%TF.GenerationSoftware,KiCad,Pcbnew,7.0.1*%
%TF.CreationDate,2023-03-30T19:37:26+02:00*%
%TF.ProjectId,home-media-converter,686f6d65-2d6d-4656-9469-612d636f6e76,rev?*%
%TF.SameCoordinates,Original*%
%TF.FileFunction,Copper,L2,Inr*%
%TF.FilePolarity,Positive*%
%FSLAX46Y46*%
G04 Gerber Fmt 4.6, Leading zero omitted, Abs format (unit mm)*
G04 Created by KiCad (PCBNEW 7.0.1) date 2023-03-30 19:37:26*
%MOMM*%
%LPD*%
G01*
G04 APERTURE LIST*
%TA.AperFunction,ComponentPad*%
%ADD10C,2.600000*%
%TD*%
%TA.AperFunction,ComponentPad*%
%ADD11C,2.082800*%
%TD*%
%TA.AperFunction,ComponentPad*%
%ADD12C,1.624000*%
%TD*%
%TA.AperFunction,ComponentPad*%
%ADD13C,1.524000*%
%TD*%
%TA.AperFunction,ComponentPad*%
%ADD14R,1.700000X1.700000*%
%TD*%
%TA.AperFunction,ComponentPad*%
%ADD15O,1.700000X1.700000*%
%TD*%
%TA.AperFunction,ComponentPad*%
%ADD16O,1.450000X2.000000*%
%TD*%
%TA.AperFunction,ComponentPad*%
%ADD17O,1.150000X1.800000*%
%TD*%
%TA.AperFunction,ComponentPad*%
%ADD18R,1.500000X1.500000*%
%TD*%
%TA.AperFunction,ComponentPad*%
%ADD19C,1.500000*%
%TD*%
%TA.AperFunction,ComponentPad*%
%ADD20C,2.300000*%
%TD*%
%TA.AperFunction,ViaPad*%
%ADD21C,0.600000*%
%TD*%
%TA.AperFunction,ViaPad*%
%ADD22C,0.450000*%
%TD*%
%TA.AperFunction,ViaPad*%
%ADD23C,0.500000*%
%TD*%
G04 APERTURE END LIST*
D10*
X109000000Y-155000000D03*
X109000000Y-107000000D03*
X39000000Y-107000000D03*
X39000000Y-155000000D03*
D11*
X41305000Y-112379500D03*
X41305000Y-128508500D03*
D12*
X64800000Y-114348000D03*
X64800000Y-116888000D03*
X64800000Y-124000000D03*
X64800000Y-126540000D03*
D13*
X62260000Y-114348000D03*
X62260000Y-116380000D03*
X62260000Y-118412000D03*
X62260000Y-122476000D03*
X62260000Y-124508000D03*
X62260000Y-126540000D03*
X59720000Y-115364000D03*
X59720000Y-117396000D03*
X59720000Y-119428000D03*
X59720000Y-121460000D03*
X59720000Y-123492000D03*
X59720000Y-125524000D03*
D14*
X104620000Y-128600000D03*
D15*
X102080000Y-128600000D03*
X99540000Y-128600000D03*
X97000000Y-128600000D03*
D14*
X102880000Y-108700000D03*
D15*
X100340000Y-108700000D03*
X97800000Y-108700000D03*
D16*
X46470000Y-152195000D03*
X53920000Y-152195000D03*
D17*
X46320000Y-155995000D03*
X54070000Y-155995000D03*
D14*
X102880000Y-112500000D03*
D15*
X100340000Y-112500000D03*
X97800000Y-112500000D03*
D14*
X87120000Y-147000000D03*
D15*
X89660000Y-147000000D03*
X92200000Y-147000000D03*
D18*
X104875002Y-138252001D03*
D19*
X103095002Y-139268001D03*
X104875002Y-140284001D03*
X103095002Y-141300001D03*
X104875002Y-142316001D03*
X103095002Y-143332001D03*
X104875002Y-144348001D03*
X103095002Y-145364001D03*
X98275002Y-134952001D03*
X98275002Y-137242001D03*
X98275002Y-146382001D03*
X98275002Y-148672001D03*
D20*
X103985002Y-133682001D03*
X103985002Y-149942001D03*
D21*
X109800000Y-132500000D03*
X111900000Y-132500000D03*
X111700000Y-142600000D03*
X110800000Y-132500000D03*
X58700000Y-105400000D03*
X92600000Y-128400000D03*
X85000000Y-128900000D03*
X86300000Y-131400000D03*
X85800000Y-142000000D03*
X83800000Y-142000000D03*
X83400000Y-112900000D03*
X111700000Y-145700000D03*
X65500000Y-150500000D03*
X69400000Y-144000000D03*
X72500000Y-139400000D03*
X105300000Y-114900000D03*
X79300000Y-109900000D03*
X78300000Y-109900000D03*
X70500000Y-115000000D03*
X69000000Y-115400000D03*
X70100000Y-129900000D03*
X63500000Y-135400000D03*
X79600000Y-150300000D03*
X83700000Y-150300000D03*
X85000000Y-151900000D03*
X94800000Y-148900000D03*
X95600000Y-142900000D03*
X99300000Y-132200000D03*
X101900000Y-125200000D03*
X109000000Y-119100000D03*
X103200000Y-121900000D03*
X107500000Y-117600000D03*
X74400000Y-107800000D03*
X73200000Y-143000000D03*
X74400000Y-143000000D03*
X73800000Y-143900000D03*
X73800000Y-142100000D03*
X66900000Y-154700000D03*
X80480000Y-115480000D03*
X95100000Y-116400000D03*
X96100000Y-119600000D03*
X74000000Y-124100000D03*
X73100000Y-115574500D03*
X66900000Y-149800000D03*
X75600000Y-126300000D03*
X64100000Y-109200000D03*
X95600000Y-121400000D03*
X78256233Y-144243767D03*
X65600000Y-139200000D03*
X77600000Y-127100000D03*
X84800000Y-142000000D03*
X78287180Y-112787180D03*
X75566102Y-113466102D03*
X51500000Y-153700000D03*
X50500000Y-153700000D03*
X51800000Y-150800000D03*
X50800000Y-150800000D03*
X63400000Y-154500000D03*
X63400000Y-153466666D03*
X63400000Y-152433333D03*
X63400000Y-151400000D03*
X67400000Y-145200000D03*
X66200000Y-145200000D03*
X65000000Y-145200000D03*
X63800000Y-145200000D03*
X62900000Y-141300000D03*
X55200000Y-149200000D03*
X55200000Y-148100000D03*
X55200000Y-147100000D03*
X55200000Y-146100000D03*
X68900000Y-123600000D03*
X71919271Y-123193055D03*
X72641641Y-121749300D03*
X71700000Y-119200000D03*
X71600000Y-117400000D03*
X81300000Y-112900000D03*
X74100000Y-132900000D03*
X71200000Y-133100000D03*
X74300000Y-126200000D03*
X71500000Y-125800000D03*
X75800000Y-127900000D03*
X77617784Y-126017784D03*
X81347999Y-125459462D03*
X83280940Y-123038570D03*
X83695717Y-121054000D03*
X82943767Y-114243767D03*
X72753500Y-132100000D03*
X93603001Y-144000000D03*
X95185263Y-123531790D03*
X69000000Y-112900000D03*
X84906792Y-134406792D03*
X82700000Y-142000000D03*
X94225000Y-124375000D03*
X94800000Y-125600000D03*
X88600000Y-134300000D03*
X103000000Y-118800000D03*
X105370376Y-124564812D03*
X95600000Y-133000000D03*
X94800000Y-135200000D03*
X80374500Y-141765584D03*
X78650000Y-141950000D03*
X77770889Y-142435957D03*
X76700000Y-142000000D03*
X76100000Y-140500000D03*
D22*
X82562963Y-130609093D03*
D21*
X74200000Y-136900000D03*
X75800000Y-141400000D03*
D22*
X75400000Y-139000000D03*
D21*
X72100000Y-140400000D03*
X86700000Y-142000000D03*
X80900000Y-142500000D03*
X76700000Y-144400000D03*
X90416196Y-142862655D03*
X65600000Y-143200000D03*
X61300000Y-139000000D03*
X62800000Y-149700000D03*
X69200000Y-141700000D03*
X68300000Y-141700000D03*
X67400000Y-141700000D03*
X69200000Y-140300000D03*
X68300000Y-140300000D03*
X67400000Y-140300000D03*
D22*
X77315000Y-113060000D03*
X74700000Y-121700000D03*
X74700000Y-119200000D03*
D21*
X69000000Y-116900000D03*
X70700000Y-127900000D03*
X63900000Y-131700000D03*
D23*
X78800000Y-119400000D03*
X81100000Y-120400000D03*
X80400000Y-121100000D03*
X81100000Y-121700000D03*
X81100000Y-122600000D03*
X80100000Y-122600000D03*
X79000000Y-122600000D03*
X76900000Y-121000000D03*
X77900000Y-120100000D03*
X76900000Y-119400000D03*
X79700000Y-118400000D03*
X78766666Y-118400000D03*
X77833333Y-118400000D03*
X76900000Y-118400000D03*
X78100000Y-136300000D03*
X81300000Y-139400000D03*
X79800000Y-139400000D03*
X78300000Y-139400000D03*
X80100000Y-136200000D03*
X79400000Y-136900000D03*
D21*
X75500000Y-131100000D03*
X68400000Y-129400000D03*
X70300000Y-126900000D03*
X81600000Y-128100000D03*
D23*
X84564754Y-124317759D03*
D21*
X79700000Y-113000000D03*
X99000000Y-120500000D03*
X96700000Y-120500000D03*
X86900000Y-108800000D03*
X100000000Y-117500000D03*
X102600000Y-114200000D03*
X103825000Y-116455000D03*
X97600000Y-123700000D03*
X109100000Y-121800000D03*
X104500000Y-124900000D03*
X60075000Y-148300000D03*
X60075000Y-147400000D03*
X60075000Y-146500000D03*
X60075000Y-145600000D03*
X60075000Y-144700000D03*
X60075000Y-143800000D03*
X60075000Y-142900000D03*
X60075000Y-142000000D03*
D23*
X86700000Y-126000000D03*
X88100000Y-125200000D03*
X84867034Y-118102904D03*
X80500000Y-130398000D03*
X77500000Y-130700000D03*
X89100000Y-117600000D03*
X86000000Y-118700000D03*
X85380000Y-132898000D03*
X87200000Y-115800000D03*
X89124789Y-120875210D03*
X86073564Y-121326436D03*
X83500000Y-132898000D03*
X88826965Y-122321284D03*
D22*
X75300000Y-136700000D03*
D21*
X84206791Y-125993209D03*
D22*
X75108976Y-137569959D03*
D21*
X88700000Y-123600000D03*
D22*
X75621487Y-138210446D03*
D21*
X89600000Y-121800000D03*
X89100000Y-119600000D03*
X84800000Y-115600000D03*
X75700000Y-135400000D03*
X74800000Y-135100000D03*
X89100000Y-118600000D03*
X76832216Y-127932216D03*
X82000000Y-124700000D03*
%TA.AperFunction,Conductor*%
G36*
X37247245Y-106214370D02*
G01*
X37291757Y-106254148D01*
X37312524Y-106310116D01*
X37304733Y-106369302D01*
X37267000Y-106465444D01*
X37206684Y-106729702D01*
X37186428Y-106999999D01*
X37206684Y-107270297D01*
X37267001Y-107534561D01*
X37366028Y-107786877D01*
X37366029Y-107786879D01*
X37501557Y-108021621D01*
X37670558Y-108233542D01*
X37869257Y-108417907D01*
X38093215Y-108570599D01*
X38337428Y-108688206D01*
X38557620Y-108756126D01*
X38596442Y-108768101D01*
X38864471Y-108808500D01*
X38864472Y-108808500D01*
X39135528Y-108808500D01*
X39135529Y-108808500D01*
X39342606Y-108777288D01*
X39403558Y-108768101D01*
X39662572Y-108688206D01*
X39906786Y-108570599D01*
X40130743Y-108417907D01*
X40130746Y-108417903D01*
X40130749Y-108417902D01*
X40218883Y-108336124D01*
X40329442Y-108233542D01*
X40498443Y-108021621D01*
X40633971Y-107786879D01*
X40732999Y-107534559D01*
X40793315Y-107270299D01*
X40813571Y-107000000D01*
X40793315Y-106729701D01*
X40732999Y-106465441D01*
X40695266Y-106369300D01*
X40687476Y-106310116D01*
X40708243Y-106254148D01*
X40752755Y-106214370D01*
X40810696Y-106200000D01*
X57268883Y-106200000D01*
X57330770Y-106216548D01*
X57376140Y-106261774D01*
X57392881Y-106323606D01*
X57394485Y-106831817D01*
X57395015Y-106999999D01*
X57395015Y-107000005D01*
X57395020Y-107001617D01*
X57395020Y-107001619D01*
X57399801Y-108517204D01*
X57400693Y-108799999D01*
X57400693Y-108800005D01*
X57400698Y-108801617D01*
X57400698Y-108801620D01*
X57411788Y-112317204D01*
X57413627Y-112899999D01*
X57413627Y-112900005D01*
X57413632Y-112901617D01*
X57413632Y-112901619D01*
X57413943Y-112999999D01*
X57413943Y-113000000D01*
X57414132Y-113060000D01*
X57418195Y-114347999D01*
X57421400Y-115363999D01*
X57424605Y-116380000D01*
X57434220Y-119428000D01*
X57437602Y-120499999D01*
X57440630Y-121460000D01*
X57443835Y-122476000D01*
X57447040Y-123491999D01*
X57450245Y-124508000D01*
X57453450Y-125524000D01*
X57453450Y-125524006D01*
X57453455Y-125525618D01*
X57453455Y-125525620D01*
X57456655Y-126539999D01*
X57460945Y-127899999D01*
X57463153Y-128599999D01*
X57463153Y-128600005D01*
X57463158Y-128601617D01*
X57463158Y-128601619D01*
X57465677Y-129399999D01*
X57465677Y-129400005D01*
X57465682Y-129401617D01*
X57465682Y-129401619D01*
X57468825Y-130397999D01*
X57469491Y-130609092D01*
X57469778Y-130699999D01*
X57471040Y-131099999D01*
X57471040Y-131100005D01*
X57471045Y-131101617D01*
X57471045Y-131101619D01*
X57474194Y-132099999D01*
X57474194Y-132100005D01*
X57474199Y-132101617D01*
X57474199Y-132101620D01*
X57476718Y-132899999D01*
X57477033Y-132999999D01*
X57477349Y-133099999D01*
X57477349Y-133100006D01*
X57477354Y-133101617D01*
X57477354Y-133101620D01*
X57479185Y-133682000D01*
X57481135Y-134299999D01*
X57481472Y-134406791D01*
X57481472Y-134406797D01*
X57481477Y-134408409D01*
X57481477Y-134408412D01*
X57483659Y-135099999D01*
X57483659Y-135100005D01*
X57483664Y-135101617D01*
X57483664Y-135101620D01*
X57483974Y-135199999D01*
X57484457Y-135353136D01*
X57484457Y-135353140D01*
X57484485Y-135362112D01*
X57468002Y-135424275D01*
X57422598Y-135469822D01*
X57360486Y-135486499D01*
X40501183Y-135486499D01*
X33724499Y-135486499D01*
X33662500Y-135469887D01*
X33617113Y-135424500D01*
X33600500Y-135362500D01*
X33600500Y-129763740D01*
X40403310Y-129763740D01*
X40603053Y-129886143D01*
X40827207Y-129978991D01*
X41063124Y-130035629D01*
X41305000Y-130054665D01*
X41546875Y-130035629D01*
X41782792Y-129978991D01*
X42006946Y-129886142D01*
X42206688Y-129763740D01*
X41305000Y-128862053D01*
X40403310Y-129763740D01*
X33600500Y-129763740D01*
X33600500Y-128508499D01*
X39758834Y-128508499D01*
X39777870Y-128750375D01*
X39834508Y-128986292D01*
X39927356Y-129210446D01*
X40049758Y-129410188D01*
X40951447Y-128508501D01*
X41658553Y-128508501D01*
X42560240Y-129410188D01*
X42682642Y-129210446D01*
X42775491Y-128986292D01*
X42832129Y-128750375D01*
X42851165Y-128508499D01*
X42832129Y-128266624D01*
X42780787Y-128052769D01*
X42782936Y-127987058D01*
X42818377Y-127931682D01*
X42877147Y-127902209D01*
X42942724Y-127906924D01*
X42996673Y-127944502D01*
X43065610Y-128027337D01*
X43125777Y-128099635D01*
X43330310Y-128282898D01*
X43559347Y-128434428D01*
X43691221Y-128496248D01*
X43808002Y-128550993D01*
X43808004Y-128550993D01*
X43808007Y-128550995D01*
X44070988Y-128630114D01*
X44342687Y-128670100D01*
X44548562Y-128670100D01*
X44548566Y-128670100D01*
X44753893Y-128655072D01*
X44775872Y-128650176D01*
X45021948Y-128595360D01*
X45278453Y-128497255D01*
X45517940Y-128362848D01*
X45735305Y-128195004D01*
X45925916Y-127997300D01*
X46085709Y-127773950D01*
X46211280Y-127529714D01*
X46299951Y-127269798D01*
X46324111Y-127139000D01*
X46349833Y-126999740D01*
X46359863Y-126725298D01*
X46344784Y-126588259D01*
X46329827Y-126452320D01*
X46260365Y-126186624D01*
X46152958Y-125933873D01*
X46009894Y-125699455D01*
X45978765Y-125662050D01*
X45908226Y-125577289D01*
X45834223Y-125488365D01*
X45629690Y-125305102D01*
X45400653Y-125153572D01*
X45400649Y-125153570D01*
X45151997Y-125037006D01*
X45045911Y-125005089D01*
X44889012Y-124957886D01*
X44617313Y-124917900D01*
X44411438Y-124917900D01*
X44411434Y-124917900D01*
X44206106Y-124932927D01*
X43938054Y-124992639D01*
X43681545Y-125090745D01*
X43442060Y-125225152D01*
X43224693Y-125392996D01*
X43034083Y-125590699D01*
X42874289Y-125814051D01*
X42748719Y-126058286D01*
X42660048Y-126318200D01*
X42610166Y-126588259D01*
X42600136Y-126862701D01*
X42630172Y-127135678D01*
X42660912Y-127253258D01*
X42699635Y-127401376D01*
X42715325Y-127438298D01*
X42724299Y-127501733D01*
X42700411Y-127561181D01*
X42650038Y-127600771D01*
X42586628Y-127609934D01*
X42560240Y-127606810D01*
X41658553Y-128508500D01*
X41658553Y-128508501D01*
X40951447Y-128508501D01*
X40951447Y-128508500D01*
X40049758Y-127606810D01*
X40049757Y-127606810D01*
X39927355Y-127806554D01*
X39834508Y-128030707D01*
X39777870Y-128266624D01*
X39758834Y-128508499D01*
X33600500Y-128508499D01*
X33600500Y-127253258D01*
X40403310Y-127253258D01*
X41305000Y-128154947D01*
X41305001Y-128154947D01*
X42206688Y-127253258D01*
X42006946Y-127130856D01*
X41782792Y-127038008D01*
X41546875Y-126981370D01*
X41305000Y-126962334D01*
X41063124Y-126981370D01*
X40827207Y-127038008D01*
X40603054Y-127130855D01*
X40403310Y-127253257D01*
X40403310Y-127253258D01*
X33600500Y-127253258D01*
X33600500Y-113634740D01*
X40403310Y-113634740D01*
X40603053Y-113757143D01*
X40827207Y-113849991D01*
X41063124Y-113906629D01*
X41305000Y-113925665D01*
X41546875Y-113906629D01*
X41782792Y-113849991D01*
X42006946Y-113757142D01*
X42206688Y-113634740D01*
X41305000Y-112733053D01*
X40403310Y-113634740D01*
X33600500Y-113634740D01*
X33600500Y-112379499D01*
X39758834Y-112379499D01*
X39777870Y-112621375D01*
X39834508Y-112857292D01*
X39927356Y-113081446D01*
X40049758Y-113281188D01*
X40951447Y-112379501D01*
X41658553Y-112379501D01*
X42560240Y-113281188D01*
X42588563Y-113277836D01*
X42649883Y-113286124D01*
X42699563Y-113323013D01*
X42725232Y-113379316D01*
X42720497Y-113441013D01*
X42660047Y-113618206D01*
X42610166Y-113888259D01*
X42600136Y-114162701D01*
X42630172Y-114435678D01*
X42636148Y-114458536D01*
X42699635Y-114701376D01*
X42807042Y-114954127D01*
X42920093Y-115139367D01*
X42950107Y-115188547D01*
X43006558Y-115256379D01*
X43125777Y-115399635D01*
X43330310Y-115582898D01*
X43559347Y-115734428D01*
X43693367Y-115797254D01*
X43808002Y-115850993D01*
X43808004Y-115850993D01*
X43808007Y-115850995D01*
X44070988Y-115930114D01*
X44342687Y-115970100D01*
X44548562Y-115970100D01*
X44548566Y-115970100D01*
X44753893Y-115955072D01*
X44753893Y-115955071D01*
X45021948Y-115895360D01*
X45278453Y-115797255D01*
X45517940Y-115662848D01*
X45735305Y-115495004D01*
X45925916Y-115297300D01*
X46085709Y-115073950D01*
X46211280Y-114829714D01*
X46299951Y-114569798D01*
X46300781Y-114565308D01*
X46349833Y-114299740D01*
X46359863Y-114025298D01*
X46330358Y-113757143D01*
X46329827Y-113752320D01*
X46260365Y-113486624D01*
X46152958Y-113233873D01*
X46009894Y-112999455D01*
X45997960Y-112985115D01*
X45908226Y-112877289D01*
X45834223Y-112788365D01*
X45629690Y-112605102D01*
X45400653Y-112453572D01*
X45400649Y-112453570D01*
X45151997Y-112337006D01*
X45045911Y-112305089D01*
X44889012Y-112257886D01*
X44617313Y-112217900D01*
X44411438Y-112217900D01*
X44411434Y-112217900D01*
X44206106Y-112232927D01*
X43938054Y-112292639D01*
X43681545Y-112390745D01*
X43442060Y-112525152D01*
X43224693Y-112692996D01*
X43034082Y-112890701D01*
X43002597Y-112934709D01*
X42949871Y-112976840D01*
X42882889Y-112985115D01*
X42821494Y-112957083D01*
X42783875Y-112901048D01*
X42781176Y-112833611D01*
X42832129Y-112621375D01*
X42851165Y-112379499D01*
X42832129Y-112137624D01*
X42775491Y-111901707D01*
X42682643Y-111677553D01*
X42560240Y-111477810D01*
X41658553Y-112379500D01*
X41658553Y-112379501D01*
X40951447Y-112379501D01*
X40951447Y-112379500D01*
X40049758Y-111477810D01*
X40049757Y-111477810D01*
X39927355Y-111677554D01*
X39834508Y-111901707D01*
X39777870Y-112137624D01*
X39758834Y-112379499D01*
X33600500Y-112379499D01*
X33600500Y-111124258D01*
X40403310Y-111124258D01*
X41305000Y-112025947D01*
X41305001Y-112025947D01*
X42206688Y-111124258D01*
X42006946Y-111001856D01*
X41782792Y-110909008D01*
X41546875Y-110852370D01*
X41305000Y-110833334D01*
X41063124Y-110852370D01*
X40827207Y-110909008D01*
X40603054Y-111001855D01*
X40403310Y-111124257D01*
X40403310Y-111124258D01*
X33600500Y-111124258D01*
X33600500Y-106324000D01*
X33617113Y-106262000D01*
X33662500Y-106216613D01*
X33724500Y-106200000D01*
X37189304Y-106200000D01*
X37247245Y-106214370D01*
G37*
%TD.AperFunction*%
%TA.AperFunction,Conductor*%
G36*
X112762500Y-104410414D02*
G01*
X112789586Y-104437500D01*
X112799500Y-104474500D01*
X112799500Y-157925500D01*
X112789586Y-157962500D01*
X112762500Y-157989586D01*
X112725500Y-157999500D01*
X33674500Y-157999500D01*
X33637500Y-157989586D01*
X33610414Y-157962500D01*
X33600500Y-157925500D01*
X33600500Y-156338072D01*
X37944769Y-156338072D01*
X38147618Y-156476373D01*
X38377181Y-156586924D01*
X38620654Y-156662025D01*
X38872599Y-156700000D01*
X39127401Y-156700000D01*
X39379345Y-156662025D01*
X39622818Y-156586924D01*
X39852382Y-156476373D01*
X40012115Y-156367467D01*
X45444500Y-156367467D01*
X45459927Y-156509317D01*
X45520732Y-156689779D01*
X45571424Y-156774030D01*
X45618911Y-156852954D01*
X45749871Y-156991207D01*
X45907490Y-157098075D01*
X46084398Y-157168562D01*
X46272322Y-157199370D01*
X46272322Y-157199369D01*
X46272323Y-157199370D01*
X46310352Y-157197308D01*
X46462475Y-157189061D01*
X46645967Y-157138114D01*
X46814216Y-157048914D01*
X46959357Y-156925631D01*
X47074602Y-156774029D01*
X47154562Y-156601197D01*
X47195500Y-156415216D01*
X47195500Y-156367467D01*
X53194500Y-156367467D01*
X53209927Y-156509317D01*
X53270732Y-156689779D01*
X53321424Y-156774030D01*
X53368911Y-156852954D01*
X53499871Y-156991207D01*
X53657490Y-157098075D01*
X53834398Y-157168562D01*
X54022322Y-157199370D01*
X54022322Y-157199369D01*
X54022323Y-157199370D01*
X54060352Y-157197308D01*
X54212475Y-157189061D01*
X54395967Y-157138114D01*
X54564216Y-157048914D01*
X54709357Y-156925631D01*
X54824602Y-156774029D01*
X54904562Y-156601197D01*
X54945500Y-156415216D01*
X54945500Y-156338072D01*
X107944769Y-156338072D01*
X108147618Y-156476373D01*
X108377181Y-156586924D01*
X108620654Y-156662025D01*
X108872599Y-156700000D01*
X109127401Y-156700000D01*
X109379345Y-156662025D01*
X109622818Y-156586924D01*
X109852382Y-156476373D01*
X110055229Y-156338072D01*
X109000000Y-155282843D01*
X107944769Y-156338072D01*
X54945500Y-156338072D01*
X54945500Y-155622535D01*
X54930073Y-155480684D01*
X54869267Y-155300220D01*
X54771089Y-155137046D01*
X54640129Y-154998793D01*
X54640128Y-154998792D01*
X54640127Y-154998791D01*
X54538624Y-154929971D01*
X54482510Y-154891925D01*
X54482508Y-154891924D01*
X54305603Y-154821438D01*
X54117676Y-154790629D01*
X53927528Y-154800938D01*
X53744031Y-154851886D01*
X53575782Y-154941086D01*
X53430644Y-155064367D01*
X53315399Y-155215969D01*
X53235437Y-155388804D01*
X53194500Y-155574785D01*
X53194500Y-156367467D01*
X47195500Y-156367467D01*
X47195500Y-155622535D01*
X47180073Y-155480684D01*
X47119267Y-155300220D01*
X47021089Y-155137046D01*
X46890129Y-154998793D01*
X46890128Y-154998792D01*
X46890127Y-154998791D01*
X46788624Y-154929971D01*
X46732510Y-154891925D01*
X46732508Y-154891924D01*
X46555603Y-154821438D01*
X46367676Y-154790629D01*
X46177528Y-154800938D01*
X45994031Y-154851886D01*
X45825782Y-154941086D01*
X45680644Y-155064367D01*
X45565399Y-155215969D01*
X45485437Y-155388804D01*
X45444500Y-155574785D01*
X45444500Y-156367467D01*
X40012115Y-156367467D01*
X40055229Y-156338072D01*
X39000000Y-155282843D01*
X37944769Y-156338072D01*
X33600500Y-156338072D01*
X33600500Y-155000000D01*
X37295232Y-155000000D01*
X37314273Y-155254080D01*
X37370970Y-155502488D01*
X37464058Y-155739671D01*
X37591454Y-155960327D01*
X37664824Y-156052330D01*
X38717157Y-155000000D01*
X38717156Y-154999999D01*
X39282842Y-154999999D01*
X40335174Y-156052331D01*
X40335176Y-156052331D01*
X40408542Y-155960333D01*
X40535941Y-155739671D01*
X40629029Y-155502488D01*
X40685726Y-155254080D01*
X40704767Y-155000000D01*
X40685726Y-154745919D01*
X40675245Y-154700000D01*
X66294317Y-154700000D01*
X66314956Y-154856762D01*
X66375464Y-155002842D01*
X66422674Y-155064367D01*
X66471718Y-155128282D01*
X66553455Y-155191001D01*
X66597157Y-155224535D01*
X66597158Y-155224535D01*
X66597159Y-155224536D01*
X66743238Y-155285044D01*
X66900000Y-155305682D01*
X67056762Y-155285044D01*
X67202841Y-155224536D01*
X67328282Y-155128282D01*
X67424536Y-155002841D01*
X67425713Y-155000000D01*
X107295232Y-155000000D01*
X107314273Y-155254080D01*
X107370970Y-155502488D01*
X107464058Y-155739671D01*
X107591454Y-155960327D01*
X107664824Y-156052330D01*
X108717157Y-155000000D01*
X108717156Y-154999999D01*
X109282842Y-154999999D01*
X110335174Y-156052331D01*
X110335176Y-156052331D01*
X110408542Y-155960333D01*
X110535941Y-155739671D01*
X110629029Y-155502488D01*
X110685726Y-155254080D01*
X110704767Y-155000000D01*
X110685726Y-154745919D01*
X110629029Y-154497511D01*
X110535941Y-154260328D01*
X110408545Y-154039672D01*
X110335174Y-153947667D01*
X109282842Y-154999999D01*
X108717156Y-154999999D01*
X107664823Y-153947667D01*
X107664822Y-153947667D01*
X107591457Y-154039668D01*
X107464058Y-154260328D01*
X107370970Y-154497511D01*
X107314273Y-154745919D01*
X107295232Y-155000000D01*
X67425713Y-155000000D01*
X67485044Y-154856762D01*
X67505682Y-154700000D01*
X67485044Y-154543238D01*
X67424536Y-154397159D01*
X67424535Y-154397158D01*
X67424535Y-154397157D01*
X67391001Y-154353455D01*
X67328282Y-154271718D01*
X67265561Y-154223591D01*
X67202842Y-154175464D01*
X67056762Y-154114956D01*
X66900000Y-154094317D01*
X66743237Y-154114956D01*
X66597157Y-154175464D01*
X66471718Y-154271718D01*
X66375464Y-154397157D01*
X66314956Y-154543237D01*
X66294317Y-154700000D01*
X40675245Y-154700000D01*
X40629029Y-154497511D01*
X40535941Y-154260328D01*
X40408545Y-154039672D01*
X40335174Y-153947667D01*
X39282842Y-154999999D01*
X38717156Y-154999999D01*
X37664823Y-153947667D01*
X37664822Y-153947667D01*
X37591457Y-154039668D01*
X37464058Y-154260328D01*
X37370970Y-154497511D01*
X37314273Y-154745919D01*
X37295232Y-155000000D01*
X33600500Y-155000000D01*
X33600500Y-153661926D01*
X37944769Y-153661926D01*
X38999999Y-154717156D01*
X40055230Y-153661926D01*
X39852382Y-153523626D01*
X39622818Y-153413075D01*
X39379345Y-153337974D01*
X39127401Y-153300000D01*
X38872599Y-153300000D01*
X38620654Y-153337974D01*
X38377181Y-153413075D01*
X38147618Y-153523626D01*
X37944769Y-153661926D01*
X33600500Y-153661926D01*
X33600500Y-152520380D01*
X45444500Y-152520380D01*
X45459338Y-152671033D01*
X45481901Y-152745415D01*
X45517977Y-152864342D01*
X45546160Y-152917068D01*
X45613202Y-153042494D01*
X45741353Y-153198647D01*
X45897506Y-153326798D01*
X46075659Y-153422023D01*
X46268967Y-153480662D01*
X46470000Y-153500462D01*
X46671033Y-153480662D01*
X46864341Y-153422023D01*
X46913674Y-153395653D01*
X46954139Y-153387126D01*
X46992862Y-153401644D01*
X47017748Y-153434674D01*
X47023406Y-153449593D01*
X47026064Y-153458123D01*
X47035209Y-153495224D01*
X47052965Y-153529055D01*
X47056632Y-153537203D01*
X47070182Y-153572930D01*
X47091888Y-153604378D01*
X47096510Y-153612023D01*
X47113357Y-153644120D01*
X47114266Y-153645852D01*
X47139605Y-153674454D01*
X47145104Y-153681474D01*
X47166817Y-153712929D01*
X47195412Y-153738262D01*
X47195415Y-153738264D01*
X47201732Y-153744581D01*
X47227071Y-153773183D01*
X47258526Y-153794895D01*
X47265542Y-153800392D01*
X47294148Y-153825734D01*
X47327985Y-153843492D01*
X47335616Y-153848107D01*
X47367070Y-153869818D01*
X47402806Y-153883370D01*
X47410938Y-153887031D01*
X47416513Y-153889957D01*
X47444775Y-153904790D01*
X47481881Y-153913935D01*
X47490408Y-153916593D01*
X47526128Y-153930140D01*
X47564058Y-153934745D01*
X47572845Y-153936356D01*
X47609942Y-153945500D01*
X47609944Y-153945500D01*
X47652628Y-153945500D01*
X47780055Y-153945500D01*
X47780056Y-153945500D01*
X47817166Y-153936352D01*
X47825928Y-153934746D01*
X47863872Y-153930140D01*
X47899600Y-153916589D01*
X47908117Y-153913935D01*
X47945225Y-153904790D01*
X47979061Y-153887030D01*
X47987186Y-153883373D01*
X48022930Y-153869818D01*
X48054392Y-153848100D01*
X48062027Y-153843486D01*
X48095852Y-153825734D01*
X48124454Y-153800395D01*
X48131474Y-153794894D01*
X48162929Y-153773183D01*
X48188275Y-153744571D01*
X48194571Y-153738275D01*
X48223183Y-153712929D01*
X48244894Y-153681474D01*
X48250396Y-153674452D01*
X48275734Y-153645852D01*
X48293488Y-153612023D01*
X48298100Y-153604392D01*
X48319818Y-153572930D01*
X48333373Y-153537186D01*
X48337030Y-153529061D01*
X48354790Y-153495225D01*
X48363935Y-153458117D01*
X48366589Y-153449600D01*
X48380140Y-153413872D01*
X48384746Y-153375928D01*
X48386352Y-153367166D01*
X48395500Y-153330056D01*
X48395500Y-153291845D01*
X48396040Y-153282924D01*
X48400645Y-153245000D01*
X51989354Y-153245000D01*
X51993960Y-153282924D01*
X51994500Y-153291845D01*
X51994500Y-153330056D01*
X52003645Y-153367161D01*
X52005255Y-153375949D01*
X52009859Y-153413870D01*
X52023407Y-153449595D01*
X52026064Y-153458123D01*
X52035209Y-153495224D01*
X52052965Y-153529055D01*
X52056632Y-153537203D01*
X52070182Y-153572930D01*
X52091888Y-153604378D01*
X52096510Y-153612023D01*
X52113357Y-153644120D01*
X52114266Y-153645852D01*
X52139605Y-153674454D01*
X52145104Y-153681474D01*
X52166817Y-153712929D01*
X52195412Y-153738262D01*
X52195415Y-153738264D01*
X52201732Y-153744581D01*
X52227071Y-153773183D01*
X52258526Y-153794895D01*
X52265542Y-153800392D01*
X52294148Y-153825734D01*
X52327985Y-153843492D01*
X52335616Y-153848107D01*
X52367070Y-153869818D01*
X52402806Y-153883370D01*
X52410938Y-153887031D01*
X52416513Y-153889957D01*
X52444775Y-153904790D01*
X52481881Y-153913935D01*
X52490408Y-153916593D01*
X52526128Y-153930140D01*
X52564058Y-153934745D01*
X52572845Y-153936356D01*
X52609942Y-153945500D01*
X52609944Y-153945500D01*
X52652628Y-153945500D01*
X52780055Y-153945500D01*
X52780056Y-153945500D01*
X52817166Y-153936352D01*
X52825928Y-153934746D01*
X52863872Y-153930140D01*
X52899600Y-153916589D01*
X52908117Y-153913935D01*
X52945225Y-153904790D01*
X52979061Y-153887030D01*
X52987186Y-153883373D01*
X53022930Y-153869818D01*
X53054392Y-153848100D01*
X53062027Y-153843486D01*
X53095852Y-153825734D01*
X53124454Y-153800395D01*
X53131474Y-153794894D01*
X53162929Y-153773183D01*
X53188275Y-153744571D01*
X53194571Y-153738275D01*
X53223183Y-153712929D01*
X53244894Y-153681474D01*
X53250396Y-153674452D01*
X53261493Y-153661926D01*
X107944769Y-153661926D01*
X108999999Y-154717156D01*
X110055230Y-153661926D01*
X109852382Y-153523626D01*
X109622818Y-153413075D01*
X109379345Y-153337974D01*
X109127401Y-153300000D01*
X108872599Y-153300000D01*
X108620654Y-153337974D01*
X108377181Y-153413075D01*
X108147618Y-153523626D01*
X107944769Y-153661926D01*
X53261493Y-153661926D01*
X53275734Y-153645852D01*
X53293488Y-153612023D01*
X53298100Y-153604392D01*
X53319818Y-153572930D01*
X53333373Y-153537186D01*
X53337030Y-153529061D01*
X53354790Y-153495225D01*
X53363935Y-153458117D01*
X53366587Y-153449606D01*
X53372251Y-153434671D01*
X53397135Y-153401645D01*
X53435858Y-153387126D01*
X53476323Y-153395652D01*
X53525659Y-153422023D01*
X53718967Y-153480662D01*
X53920000Y-153500462D01*
X54121033Y-153480662D01*
X54314341Y-153422023D01*
X54492494Y-153326798D01*
X54648647Y-153198647D01*
X54776798Y-153042494D01*
X54872023Y-152864341D01*
X54930662Y-152671033D01*
X54945500Y-152520380D01*
X54945500Y-151869620D01*
X54930662Y-151718967D01*
X54872023Y-151525659D01*
X54776798Y-151347506D01*
X54648647Y-151191353D01*
X54492494Y-151063202D01*
X54398247Y-151012826D01*
X54314342Y-150967977D01*
X54217686Y-150938657D01*
X54121033Y-150909338D01*
X53920000Y-150889538D01*
X53718967Y-150909338D01*
X53525657Y-150967977D01*
X53347506Y-151063202D01*
X53191353Y-151191353D01*
X53063202Y-151347506D01*
X52967977Y-151525657D01*
X52909338Y-151718967D01*
X52894500Y-151869624D01*
X52894500Y-152478254D01*
X52881401Y-152520291D01*
X52846741Y-152547445D01*
X52802792Y-152550103D01*
X52780056Y-152544500D01*
X52609944Y-152544500D01*
X52609943Y-152544500D01*
X52572837Y-152553645D01*
X52564050Y-152555255D01*
X52526129Y-152559859D01*
X52490398Y-152573409D01*
X52481873Y-152576065D01*
X52444775Y-152585210D01*
X52410947Y-152602963D01*
X52402803Y-152606628D01*
X52367071Y-152620180D01*
X52335620Y-152641889D01*
X52327977Y-152646509D01*
X52294150Y-152664264D01*
X52265550Y-152689599D01*
X52258523Y-152695104D01*
X52227071Y-152716816D01*
X52201733Y-152745416D01*
X52195416Y-152751733D01*
X52166816Y-152777071D01*
X52145104Y-152808523D01*
X52139599Y-152815550D01*
X52114264Y-152844150D01*
X52096509Y-152877977D01*
X52091889Y-152885620D01*
X52070180Y-152917071D01*
X52056628Y-152952803D01*
X52052963Y-152960947D01*
X52035210Y-152994775D01*
X52026065Y-153031873D01*
X52023409Y-153040398D01*
X52009859Y-153076129D01*
X52005255Y-153114050D01*
X52003645Y-153122837D01*
X51994500Y-153159943D01*
X51994500Y-153198155D01*
X51993960Y-153207076D01*
X51989354Y-153245000D01*
X48400645Y-153245000D01*
X48396040Y-153207076D01*
X48395500Y-153198155D01*
X48395500Y-153159942D01*
X48386356Y-153122845D01*
X48384744Y-153114053D01*
X48384744Y-153114050D01*
X48380140Y-153076128D01*
X48366593Y-153040407D01*
X48363934Y-153031876D01*
X48354790Y-152994775D01*
X48337031Y-152960938D01*
X48333370Y-152952806D01*
X48319818Y-152917070D01*
X48298107Y-152885616D01*
X48293492Y-152877985D01*
X48275734Y-152844148D01*
X48250392Y-152815542D01*
X48244893Y-152808523D01*
X48223183Y-152777071D01*
X48194581Y-152751732D01*
X48188264Y-152745415D01*
X48162928Y-152716816D01*
X48131476Y-152695106D01*
X48124454Y-152689605D01*
X48095852Y-152664266D01*
X48094120Y-152663357D01*
X48062023Y-152646510D01*
X48054378Y-152641888D01*
X48022930Y-152620182D01*
X47987203Y-152606632D01*
X47979055Y-152602965D01*
X47945224Y-152585209D01*
X47908123Y-152576064D01*
X47899595Y-152573407D01*
X47863870Y-152559859D01*
X47825949Y-152555255D01*
X47817161Y-152553645D01*
X47780056Y-152544500D01*
X47609944Y-152544500D01*
X47609942Y-152544500D01*
X47587207Y-152550103D01*
X47543258Y-152547444D01*
X47508599Y-152520289D01*
X47495500Y-152478253D01*
X47495500Y-151869624D01*
X47495500Y-151869620D01*
X47480662Y-151718967D01*
X47422023Y-151525659D01*
X47326798Y-151347506D01*
X47198647Y-151191353D01*
X47042494Y-151063202D01*
X46948247Y-151012826D01*
X46864342Y-150967977D01*
X46767686Y-150938657D01*
X46671033Y-150909338D01*
X46470000Y-150889538D01*
X46268967Y-150909338D01*
X46075657Y-150967977D01*
X45897506Y-151063202D01*
X45741353Y-151191353D01*
X45613202Y-151347506D01*
X45517977Y-151525657D01*
X45459337Y-151718967D01*
X45459338Y-151718967D01*
X45444500Y-151869620D01*
X45444500Y-152520380D01*
X33600500Y-152520380D01*
X33600500Y-149700000D01*
X62194317Y-149700000D01*
X62214956Y-149856762D01*
X62275464Y-150002842D01*
X62302059Y-150037501D01*
X62371718Y-150128282D01*
X62441157Y-150181564D01*
X62497157Y-150224535D01*
X62497158Y-150224535D01*
X62497159Y-150224536D01*
X62643238Y-150285044D01*
X62800000Y-150305682D01*
X62956762Y-150285044D01*
X63102841Y-150224536D01*
X63228282Y-150128282D01*
X63324536Y-150002841D01*
X63349737Y-149942001D01*
X102529530Y-149942001D01*
X102549381Y-150181560D01*
X102608393Y-150414596D01*
X102704952Y-150634729D01*
X102836428Y-150835966D01*
X102836431Y-150835970D01*
X102885744Y-150889538D01*
X102999240Y-151012828D01*
X103188934Y-151160473D01*
X103400344Y-151274882D01*
X103400346Y-151274883D01*
X103627705Y-151352935D01*
X103864810Y-151392501D01*
X104105193Y-151392501D01*
X104105194Y-151392501D01*
X104342299Y-151352935D01*
X104569658Y-151274883D01*
X104781069Y-151160473D01*
X104970766Y-151012826D01*
X105133573Y-150835970D01*
X105265051Y-150634729D01*
X105361612Y-150414592D01*
X105420622Y-150181564D01*
X105440473Y-149942001D01*
X105420622Y-149702438D01*
X105361612Y-149469410D01*
X105339242Y-149418411D01*
X105265051Y-149249272D01*
X105133575Y-149048035D01*
X105133574Y-149048034D01*
X105133573Y-149048032D01*
X104970766Y-148871176D01*
X104970765Y-148871175D01*
X104970763Y-148871173D01*
X104781069Y-148723528D01*
X104569659Y-148609119D01*
X104455978Y-148570093D01*
X104342299Y-148531067D01*
X104105194Y-148491501D01*
X103864810Y-148491501D01*
X103792491Y-148503569D01*
X103627705Y-148531067D01*
X103400344Y-148609119D01*
X103188934Y-148723528D01*
X102999240Y-148871173D01*
X102836428Y-149048035D01*
X102704952Y-149249272D01*
X102608393Y-149469405D01*
X102549381Y-149702441D01*
X102529530Y-149942001D01*
X63349737Y-149942001D01*
X63385044Y-149856762D01*
X63405682Y-149700000D01*
X63385044Y-149543238D01*
X63324536Y-149397159D01*
X63324535Y-149397158D01*
X63324535Y-149397157D01*
X63291001Y-149353455D01*
X63228282Y-149271718D01*
X63165561Y-149223590D01*
X63102842Y-149175464D01*
X62956762Y-149114956D01*
X62800000Y-149094317D01*
X62643237Y-149114956D01*
X62497157Y-149175464D01*
X62371718Y-149271718D01*
X62275464Y-149397157D01*
X62214956Y-149543237D01*
X62194317Y-149700000D01*
X33600500Y-149700000D01*
X33600500Y-148299999D01*
X59469317Y-148299999D01*
X59489956Y-148456762D01*
X59550464Y-148602842D01*
X59598591Y-148665561D01*
X59646718Y-148728282D01*
X59728455Y-148791001D01*
X59772157Y-148824535D01*
X59772158Y-148824535D01*
X59772159Y-148824536D01*
X59918238Y-148885044D01*
X60075000Y-148905682D01*
X60231762Y-148885044D01*
X60377841Y-148824536D01*
X60503282Y-148728282D01*
X60546468Y-148672001D01*
X97219419Y-148672001D01*
X97239702Y-148877935D01*
X97245631Y-148897480D01*
X97299770Y-149075956D01*
X97348543Y-149167203D01*
X97397317Y-149258451D01*
X97528592Y-149418411D01*
X97688552Y-149549686D01*
X97871048Y-149647233D01*
X98069068Y-149707301D01*
X98275002Y-149727584D01*
X98480936Y-149707301D01*
X98678956Y-149647233D01*
X98861452Y-149549686D01*
X99021412Y-149418411D01*
X99152687Y-149258451D01*
X99250234Y-149075955D01*
X99310302Y-148877935D01*
X99330585Y-148672001D01*
X99310302Y-148466067D01*
X99250234Y-148268047D01*
X99152687Y-148085551D01*
X99021412Y-147925591D01*
X98861452Y-147794316D01*
X98770203Y-147745542D01*
X98678957Y-147696769D01*
X98579946Y-147666735D01*
X98480936Y-147636701D01*
X98275002Y-147616418D01*
X98069068Y-147636701D01*
X97871046Y-147696769D01*
X97688552Y-147794316D01*
X97528592Y-147925591D01*
X97397317Y-148085551D01*
X97299770Y-148268045D01*
X97269548Y-148367677D01*
X97239702Y-148466067D01*
X97219419Y-148672001D01*
X60546468Y-148672001D01*
X60599536Y-148602841D01*
X60660044Y-148456762D01*
X60680682Y-148300000D01*
X60660044Y-148143238D01*
X60599536Y-147997159D01*
X60599535Y-147997158D01*
X60599535Y-147997157D01*
X60521184Y-147895047D01*
X60521122Y-147894865D01*
X85969500Y-147894865D01*
X85972414Y-147919989D01*
X85972415Y-147919991D01*
X86017794Y-148022765D01*
X86097235Y-148102206D01*
X86200009Y-148147585D01*
X86225135Y-148150500D01*
X88014864Y-148150499D01*
X88014865Y-148150499D01*
X88023239Y-148149527D01*
X88039991Y-148147585D01*
X88142765Y-148102206D01*
X88222206Y-148022765D01*
X88267585Y-147919991D01*
X88270500Y-147894865D01*
X88270499Y-146999999D01*
X88504570Y-146999999D01*
X88524243Y-147212309D01*
X88582594Y-147417389D01*
X88677632Y-147608254D01*
X88749063Y-147702842D01*
X88806128Y-147778407D01*
X88963698Y-147922052D01*
X89144981Y-148034298D01*
X89343802Y-148111321D01*
X89553390Y-148150500D01*
X89766609Y-148150500D01*
X89766610Y-148150500D01*
X89976198Y-148111321D01*
X90175019Y-148034298D01*
X90356302Y-147922052D01*
X90513872Y-147778407D01*
X90642366Y-147608255D01*
X90642365Y-147608255D01*
X90642367Y-147608254D01*
X90737405Y-147417389D01*
X90768576Y-147307836D01*
X90795756Y-147212310D01*
X90815429Y-147000000D01*
X90815429Y-146999999D01*
X91044570Y-146999999D01*
X91064243Y-147212309D01*
X91122594Y-147417389D01*
X91217632Y-147608254D01*
X91289063Y-147702842D01*
X91346128Y-147778407D01*
X91503698Y-147922052D01*
X91684981Y-148034298D01*
X91883802Y-148111321D01*
X92093390Y-148150500D01*
X92306609Y-148150500D01*
X92306610Y-148150500D01*
X92516198Y-148111321D01*
X92715019Y-148034298D01*
X92896302Y-147922052D01*
X93053872Y-147778407D01*
X93182366Y-147608255D01*
X93182365Y-147608255D01*
X93182367Y-147608254D01*
X93277405Y-147417389D01*
X93308576Y-147307836D01*
X93335756Y-147212310D01*
X93355429Y-147000000D01*
X93348783Y-146928282D01*
X93335756Y-146787690D01*
X93277405Y-146582610D01*
X93182367Y-146391745D01*
X93175009Y-146382001D01*
X97219419Y-146382001D01*
X97239702Y-146587934D01*
X97299770Y-146785956D01*
X97308796Y-146802842D01*
X97397317Y-146968451D01*
X97528592Y-147128411D01*
X97688552Y-147259686D01*
X97871048Y-147357233D01*
X98069068Y-147417301D01*
X98275002Y-147437584D01*
X98480936Y-147417301D01*
X98678956Y-147357233D01*
X98861452Y-147259686D01*
X99021412Y-147128411D01*
X99152687Y-146968451D01*
X99250234Y-146785955D01*
X99310302Y-146587935D01*
X99330585Y-146382001D01*
X99310302Y-146176067D01*
X99250234Y-145978047D01*
X99152687Y-145795551D01*
X99021412Y-145635591D01*
X98861452Y-145504316D01*
X98747182Y-145443237D01*
X98678957Y-145406769D01*
X98579946Y-145376735D01*
X98480936Y-145346701D01*
X98275002Y-145326418D01*
X98069068Y-145346701D01*
X97871046Y-145406769D01*
X97688552Y-145504316D01*
X97528592Y-145635591D01*
X97397317Y-145795551D01*
X97299770Y-145978045D01*
X97239702Y-146176067D01*
X97219419Y-146382001D01*
X93175009Y-146382001D01*
X93053874Y-146221596D01*
X93053872Y-146221593D01*
X92896302Y-146077948D01*
X92715019Y-145965702D01*
X92516198Y-145888679D01*
X92306610Y-145849500D01*
X92093390Y-145849500D01*
X91988596Y-145869089D01*
X91883801Y-145888679D01*
X91684980Y-145965702D01*
X91503701Y-146077946D01*
X91503698Y-146077948D01*
X91372933Y-146197157D01*
X91346125Y-146221596D01*
X91217632Y-146391745D01*
X91122594Y-146582610D01*
X91064243Y-146787690D01*
X91044570Y-146999999D01*
X90815429Y-146999999D01*
X90808783Y-146928282D01*
X90795756Y-146787690D01*
X90737405Y-146582610D01*
X90642367Y-146391745D01*
X90513874Y-146221596D01*
X90513872Y-146221593D01*
X90356302Y-146077948D01*
X90175019Y-145965702D01*
X89976198Y-145888679D01*
X89766610Y-145849500D01*
X89553390Y-145849500D01*
X89448596Y-145869089D01*
X89343801Y-145888679D01*
X89144980Y-145965702D01*
X88963701Y-146077946D01*
X88963698Y-146077948D01*
X88832933Y-146197157D01*
X88806125Y-146221596D01*
X88677632Y-146391745D01*
X88582594Y-146582610D01*
X88524243Y-146787690D01*
X88504570Y-146999999D01*
X88270499Y-146999999D01*
X88270499Y-146105136D01*
X88267585Y-146080009D01*
X88222206Y-145977235D01*
X88142765Y-145897794D01*
X88097385Y-145877756D01*
X88039990Y-145852414D01*
X88014865Y-145849500D01*
X86225134Y-145849500D01*
X86200010Y-145852414D01*
X86097235Y-145897794D01*
X86017794Y-145977235D01*
X85972414Y-146080009D01*
X85969500Y-146105134D01*
X85969500Y-147894865D01*
X60521122Y-147894865D01*
X60505892Y-147849999D01*
X60521183Y-147804952D01*
X60599536Y-147702841D01*
X60660044Y-147556762D01*
X60680682Y-147400000D01*
X60660044Y-147243238D01*
X60599536Y-147097159D01*
X60599535Y-147097158D01*
X60599535Y-147097157D01*
X60521184Y-146995047D01*
X60505892Y-146949999D01*
X60521183Y-146904952D01*
X60599536Y-146802841D01*
X60660044Y-146656762D01*
X60680682Y-146500000D01*
X60660044Y-146343238D01*
X60599536Y-146197159D01*
X60599535Y-146197158D01*
X60599535Y-146197157D01*
X60521184Y-146095047D01*
X60505892Y-146049999D01*
X60521183Y-146004952D01*
X60599536Y-145902841D01*
X60660044Y-145756762D01*
X60680682Y-145600000D01*
X60660044Y-145443238D01*
X60599536Y-145297159D01*
X60599535Y-145297158D01*
X60599535Y-145297157D01*
X60521184Y-145195047D01*
X60505892Y-145149999D01*
X60521183Y-145104952D01*
X60599536Y-145002841D01*
X60660044Y-144856762D01*
X60680682Y-144700000D01*
X60660044Y-144543238D01*
X60600713Y-144400000D01*
X76094317Y-144400000D01*
X76114956Y-144556762D01*
X76175464Y-144702842D01*
X76223590Y-144765561D01*
X76271718Y-144828282D01*
X76353455Y-144891001D01*
X76397157Y-144924535D01*
X76397158Y-144924535D01*
X76397159Y-144924536D01*
X76543238Y-144985044D01*
X76700000Y-145005682D01*
X76856762Y-144985044D01*
X77002841Y-144924536D01*
X77128282Y-144828282D01*
X77224536Y-144702841D01*
X77285044Y-144556762D01*
X77305682Y-144400000D01*
X77285044Y-144243238D01*
X77224536Y-144097159D01*
X77224535Y-144097158D01*
X77224535Y-144097157D01*
X77149983Y-144000000D01*
X92997318Y-144000000D01*
X93017957Y-144156762D01*
X93078465Y-144302842D01*
X93126591Y-144365561D01*
X93174719Y-144428282D01*
X93256456Y-144491001D01*
X93300158Y-144524535D01*
X93300159Y-144524535D01*
X93300160Y-144524536D01*
X93446239Y-144585044D01*
X93603001Y-144605682D01*
X93759763Y-144585044D01*
X93905842Y-144524536D01*
X94031283Y-144428282D01*
X94127537Y-144302841D01*
X94188045Y-144156762D01*
X94208683Y-144000000D01*
X94188045Y-143843238D01*
X94127537Y-143697159D01*
X94127536Y-143697158D01*
X94127536Y-143697157D01*
X94074685Y-143628281D01*
X94031283Y-143571718D01*
X93941522Y-143502842D01*
X93905843Y-143475464D01*
X93759763Y-143414956D01*
X93603001Y-143394317D01*
X93446238Y-143414956D01*
X93300158Y-143475464D01*
X93174719Y-143571718D01*
X93078465Y-143697157D01*
X93017957Y-143843237D01*
X92997318Y-144000000D01*
X77149983Y-144000000D01*
X77128282Y-143971718D01*
X77065561Y-143923590D01*
X77002842Y-143875464D01*
X76856762Y-143814956D01*
X76700000Y-143794317D01*
X76543237Y-143814956D01*
X76397157Y-143875464D01*
X76271718Y-143971718D01*
X76175464Y-144097157D01*
X76114956Y-144243237D01*
X76094317Y-144400000D01*
X60600713Y-144400000D01*
X60599536Y-144397159D01*
X60599535Y-144397158D01*
X60599535Y-144397157D01*
X60521184Y-144295047D01*
X60505892Y-144249999D01*
X60521183Y-144204952D01*
X60599536Y-144102841D01*
X60660044Y-143956762D01*
X60680682Y-143800000D01*
X60660044Y-143643238D01*
X60599536Y-143497159D01*
X60599535Y-143497158D01*
X60599535Y-143497157D01*
X60521184Y-143395047D01*
X60505892Y-143349999D01*
X60521183Y-143304952D01*
X60599536Y-143202841D01*
X60600713Y-143200000D01*
X64994317Y-143200000D01*
X65014956Y-143356762D01*
X65075464Y-143502842D01*
X65123591Y-143565561D01*
X65171718Y-143628282D01*
X65253455Y-143691001D01*
X65297157Y-143724535D01*
X65297158Y-143724535D01*
X65297159Y-143724536D01*
X65443238Y-143785044D01*
X65600000Y-143805682D01*
X65756762Y-143785044D01*
X65902841Y-143724536D01*
X66028282Y-143628282D01*
X66124536Y-143502841D01*
X66185044Y-143356762D01*
X66205682Y-143200000D01*
X66185044Y-143043238D01*
X66124536Y-142897159D01*
X66124535Y-142897158D01*
X66124535Y-142897157D01*
X66052163Y-142802841D01*
X66028282Y-142771718D01*
X65942496Y-142705892D01*
X65902842Y-142675464D01*
X65756762Y-142614956D01*
X65600000Y-142594317D01*
X65443237Y-142614956D01*
X65297157Y-142675464D01*
X65171718Y-142771718D01*
X65075464Y-142897157D01*
X65014956Y-143043237D01*
X64994317Y-143200000D01*
X60600713Y-143200000D01*
X60660044Y-143056762D01*
X60680682Y-142900000D01*
X60660044Y-142743238D01*
X60599536Y-142597159D01*
X60599535Y-142597158D01*
X60599535Y-142597157D01*
X60521184Y-142495047D01*
X60505892Y-142449999D01*
X60521183Y-142404952D01*
X60599536Y-142302841D01*
X60660044Y-142156762D01*
X60680682Y-142000000D01*
X60660044Y-141843238D01*
X60600713Y-141700000D01*
X66794317Y-141700000D01*
X66814956Y-141856762D01*
X66875464Y-142002842D01*
X66923590Y-142065561D01*
X66971718Y-142128282D01*
X67053455Y-142191001D01*
X67097157Y-142224535D01*
X67097158Y-142224535D01*
X67097159Y-142224536D01*
X67243238Y-142285044D01*
X67400000Y-142305682D01*
X67556762Y-142285044D01*
X67702841Y-142224536D01*
X67804951Y-142146184D01*
X67850000Y-142130892D01*
X67895048Y-142146184D01*
X67997157Y-142224535D01*
X67997158Y-142224535D01*
X67997159Y-142224536D01*
X68143238Y-142285044D01*
X68300000Y-142305682D01*
X68456762Y-142285044D01*
X68602841Y-142224536D01*
X68704951Y-142146184D01*
X68750000Y-142130892D01*
X68795048Y-142146184D01*
X68897157Y-142224535D01*
X68897158Y-142224535D01*
X68897159Y-142224536D01*
X69043238Y-142285044D01*
X69200000Y-142305682D01*
X69356762Y-142285044D01*
X69502841Y-142224536D01*
X69628282Y-142128282D01*
X69724536Y-142002841D01*
X69785044Y-141856762D01*
X69805682Y-141700000D01*
X69785044Y-141543238D01*
X69725713Y-141400000D01*
X75194317Y-141400000D01*
X75214956Y-141556762D01*
X75275464Y-141702842D01*
X75323590Y-141765561D01*
X75371718Y-141828282D01*
X75453455Y-141891001D01*
X75497157Y-141924535D01*
X75497158Y-141924535D01*
X75497159Y-141924536D01*
X75643238Y-141985044D01*
X75800000Y-142005682D01*
X75956762Y-141985044D01*
X75996242Y-141968690D01*
X76040574Y-141964812D01*
X76079116Y-141987064D01*
X76097925Y-142027399D01*
X76114956Y-142156762D01*
X76175464Y-142302842D01*
X76212131Y-142350627D01*
X76271718Y-142428282D01*
X76331998Y-142474536D01*
X76397157Y-142524535D01*
X76397158Y-142524535D01*
X76397159Y-142524536D01*
X76543238Y-142585044D01*
X76700000Y-142605682D01*
X76856762Y-142585044D01*
X77002841Y-142524536D01*
X77059216Y-142481277D01*
X77107492Y-142466056D01*
X77154257Y-142485427D01*
X77177631Y-142530327D01*
X77185845Y-142592719D01*
X77246353Y-142738799D01*
X77271613Y-142771718D01*
X77342607Y-142864239D01*
X77389212Y-142900000D01*
X77468046Y-142960492D01*
X77468047Y-142960492D01*
X77468048Y-142960493D01*
X77614127Y-143021001D01*
X77770889Y-143041639D01*
X77927651Y-143021001D01*
X78073730Y-142960493D01*
X78199171Y-142864239D01*
X78295425Y-142738798D01*
X78355933Y-142592719D01*
X78357645Y-142579706D01*
X78376452Y-142539373D01*
X78414995Y-142517120D01*
X78459330Y-142520999D01*
X78481766Y-142530292D01*
X78493238Y-142535044D01*
X78650000Y-142555682D01*
X78806762Y-142535044D01*
X78952841Y-142474536D01*
X79078282Y-142378282D01*
X79174536Y-142252841D01*
X79235044Y-142106762D01*
X79255682Y-141950000D01*
X79235044Y-141793238D01*
X79223589Y-141765584D01*
X79768817Y-141765584D01*
X79789456Y-141922346D01*
X79849964Y-142068426D01*
X79874175Y-142099978D01*
X79946218Y-142193866D01*
X80023076Y-142252841D01*
X80071657Y-142290119D01*
X80071658Y-142290119D01*
X80071659Y-142290120D01*
X80217738Y-142350628D01*
X80238975Y-142353423D01*
X80274364Y-142368081D01*
X80297684Y-142398471D01*
X80302684Y-142436449D01*
X80294317Y-142499999D01*
X80314956Y-142656762D01*
X80375464Y-142802842D01*
X80421360Y-142862654D01*
X80471718Y-142928282D01*
X80553455Y-142991001D01*
X80597157Y-143024535D01*
X80597158Y-143024535D01*
X80597159Y-143024536D01*
X80743238Y-143085044D01*
X80900000Y-143105682D01*
X81056762Y-143085044D01*
X81202841Y-143024536D01*
X81328282Y-142928282D01*
X81378640Y-142862654D01*
X89810513Y-142862654D01*
X89831152Y-143019417D01*
X89891660Y-143165497D01*
X89939787Y-143228216D01*
X89987914Y-143290937D01*
X90064885Y-143349999D01*
X90113353Y-143387190D01*
X90113354Y-143387190D01*
X90113355Y-143387191D01*
X90259434Y-143447699D01*
X90416196Y-143468337D01*
X90572958Y-143447699D01*
X90719037Y-143387191D01*
X90844478Y-143290937D01*
X90940732Y-143165496D01*
X91001240Y-143019417D01*
X91021878Y-142862655D01*
X91001240Y-142705893D01*
X90940732Y-142559814D01*
X90940731Y-142559813D01*
X90940731Y-142559812D01*
X90891035Y-142495048D01*
X90844478Y-142434373D01*
X90758766Y-142368604D01*
X90719038Y-142338119D01*
X90572958Y-142277611D01*
X90416196Y-142256972D01*
X90259433Y-142277611D01*
X90113353Y-142338119D01*
X89987914Y-142434373D01*
X89891660Y-142559812D01*
X89831152Y-142705892D01*
X89810513Y-142862654D01*
X81378640Y-142862654D01*
X81424536Y-142802841D01*
X81485044Y-142656762D01*
X81505682Y-142500000D01*
X81485044Y-142343238D01*
X81424536Y-142197159D01*
X81424535Y-142197158D01*
X81424535Y-142197157D01*
X81385422Y-142146184D01*
X81328282Y-142071718D01*
X81265561Y-142023590D01*
X81234818Y-142000000D01*
X82094317Y-142000000D01*
X82114956Y-142156762D01*
X82175464Y-142302842D01*
X82212131Y-142350627D01*
X82271718Y-142428282D01*
X82331998Y-142474536D01*
X82397157Y-142524535D01*
X82397158Y-142524535D01*
X82397159Y-142524536D01*
X82543238Y-142585044D01*
X82700000Y-142605682D01*
X82856762Y-142585044D01*
X83002841Y-142524536D01*
X83128282Y-142428282D01*
X83224536Y-142302841D01*
X83285044Y-142156762D01*
X83305682Y-142000000D01*
X86094317Y-142000000D01*
X86114956Y-142156762D01*
X86175464Y-142302842D01*
X86212131Y-142350627D01*
X86271718Y-142428282D01*
X86331998Y-142474536D01*
X86397157Y-142524535D01*
X86397158Y-142524535D01*
X86397159Y-142524536D01*
X86543238Y-142585044D01*
X86700000Y-142605682D01*
X86856762Y-142585044D01*
X87002841Y-142524536D01*
X87128282Y-142428282D01*
X87224536Y-142302841D01*
X87285044Y-142156762D01*
X87305682Y-142000000D01*
X87285044Y-141843238D01*
X87224536Y-141697159D01*
X87224535Y-141697158D01*
X87224535Y-141697157D01*
X87186168Y-141647157D01*
X87128282Y-141571718D01*
X87063121Y-141521718D01*
X87002842Y-141475464D01*
X86856762Y-141414956D01*
X86700000Y-141394317D01*
X86543237Y-141414956D01*
X86397157Y-141475464D01*
X86271718Y-141571718D01*
X86175464Y-141697157D01*
X86114956Y-141843237D01*
X86094317Y-142000000D01*
X83305682Y-142000000D01*
X83285044Y-141843238D01*
X83224536Y-141697159D01*
X83224535Y-141697158D01*
X83224535Y-141697157D01*
X83186168Y-141647157D01*
X83128282Y-141571718D01*
X83063121Y-141521718D01*
X83002842Y-141475464D01*
X82856762Y-141414956D01*
X82700000Y-141394317D01*
X82543237Y-141414956D01*
X82397157Y-141475464D01*
X82271718Y-141571718D01*
X82175464Y-141697157D01*
X82114956Y-141843237D01*
X82094317Y-142000000D01*
X81234818Y-142000000D01*
X81202842Y-141975464D01*
X81129801Y-141945210D01*
X81056762Y-141914956D01*
X81035522Y-141912159D01*
X81000133Y-141897501D01*
X80976815Y-141867111D01*
X80971815Y-141829133D01*
X80971928Y-141828281D01*
X80980182Y-141765584D01*
X80959544Y-141608822D01*
X80899036Y-141462743D01*
X80899035Y-141462742D01*
X80899035Y-141462741D01*
X80850892Y-141400000D01*
X80802782Y-141337302D01*
X80717311Y-141271718D01*
X80677342Y-141241048D01*
X80531262Y-141180540D01*
X80374500Y-141159901D01*
X80217737Y-141180540D01*
X80071657Y-141241048D01*
X79946218Y-141337302D01*
X79849964Y-141462741D01*
X79789456Y-141608821D01*
X79768817Y-141765584D01*
X79223589Y-141765584D01*
X79174536Y-141647159D01*
X79174535Y-141647158D01*
X79174535Y-141647157D01*
X79105172Y-141556762D01*
X79078282Y-141521718D01*
X79001424Y-141462743D01*
X78952842Y-141425464D01*
X78806762Y-141364956D01*
X78649999Y-141344317D01*
X78493237Y-141364956D01*
X78347157Y-141425464D01*
X78221718Y-141521718D01*
X78125464Y-141647157D01*
X78064956Y-141793238D01*
X78063243Y-141806250D01*
X78044434Y-141846584D01*
X78005893Y-141868836D01*
X77961558Y-141864957D01*
X77927652Y-141850913D01*
X77770889Y-141830274D01*
X77614126Y-141850913D01*
X77468046Y-141911421D01*
X77411671Y-141954679D01*
X77363395Y-141969900D01*
X77316630Y-141950528D01*
X77293258Y-141905629D01*
X77285044Y-141843238D01*
X77224536Y-141697159D01*
X77224535Y-141697158D01*
X77224535Y-141697157D01*
X77186168Y-141647157D01*
X77128282Y-141571718D01*
X77063121Y-141521718D01*
X77002842Y-141475464D01*
X76856762Y-141414956D01*
X76700000Y-141394317D01*
X76543236Y-141414956D01*
X76503759Y-141431308D01*
X76459424Y-141435187D01*
X76420882Y-141412934D01*
X76402075Y-141372602D01*
X76385044Y-141243238D01*
X76338644Y-141131220D01*
X76333645Y-141093244D01*
X76348305Y-141057854D01*
X76378693Y-141034538D01*
X76402841Y-141024536D01*
X76528282Y-140928282D01*
X76624536Y-140802841D01*
X76685044Y-140656762D01*
X76705682Y-140500000D01*
X76685044Y-140343238D01*
X76624536Y-140197159D01*
X76624535Y-140197158D01*
X76624535Y-140197157D01*
X76583160Y-140143237D01*
X76528282Y-140071718D01*
X76431112Y-139997157D01*
X76402842Y-139975464D01*
X76256762Y-139914956D01*
X76100000Y-139894317D01*
X75943237Y-139914956D01*
X75797157Y-139975464D01*
X75671718Y-140071718D01*
X75575464Y-140197157D01*
X75514956Y-140343237D01*
X75494317Y-140500000D01*
X75514956Y-140656763D01*
X75561353Y-140768776D01*
X75566353Y-140806752D01*
X75551695Y-140842141D01*
X75521307Y-140865460D01*
X75497159Y-140875463D01*
X75371718Y-140971718D01*
X75275464Y-141097157D01*
X75214956Y-141243237D01*
X75194317Y-141400000D01*
X69725713Y-141400000D01*
X69724536Y-141397159D01*
X69724535Y-141397158D01*
X69724535Y-141397157D01*
X69678606Y-141337302D01*
X69628282Y-141271718D01*
X69565561Y-141223591D01*
X69502842Y-141175464D01*
X69356762Y-141114956D01*
X69200000Y-141094317D01*
X69043237Y-141114956D01*
X68897157Y-141175464D01*
X68795048Y-141253815D01*
X68750000Y-141269107D01*
X68704952Y-141253815D01*
X68602842Y-141175464D01*
X68456762Y-141114956D01*
X68300000Y-141094317D01*
X68143237Y-141114956D01*
X67997157Y-141175464D01*
X67895048Y-141253815D01*
X67850000Y-141269107D01*
X67804952Y-141253815D01*
X67702842Y-141175464D01*
X67556762Y-141114956D01*
X67400000Y-141094317D01*
X67243237Y-141114956D01*
X67097157Y-141175464D01*
X66971718Y-141271718D01*
X66875464Y-141397157D01*
X66814956Y-141543237D01*
X66794317Y-141700000D01*
X60600713Y-141700000D01*
X60599536Y-141697159D01*
X60599535Y-141697158D01*
X60599535Y-141697157D01*
X60561168Y-141647157D01*
X60503282Y-141571718D01*
X60438121Y-141521718D01*
X60377842Y-141475464D01*
X60231762Y-141414956D01*
X60075000Y-141394317D01*
X59918237Y-141414956D01*
X59772157Y-141475464D01*
X59646718Y-141571718D01*
X59550464Y-141697157D01*
X59489956Y-141843237D01*
X59469317Y-142000000D01*
X59489956Y-142156762D01*
X59550464Y-142302842D01*
X59628815Y-142404952D01*
X59644107Y-142450000D01*
X59628815Y-142495048D01*
X59550464Y-142597157D01*
X59489956Y-142743237D01*
X59469317Y-142899999D01*
X59489956Y-143056762D01*
X59550464Y-143202842D01*
X59628815Y-143304952D01*
X59644107Y-143350000D01*
X59628815Y-143395048D01*
X59550464Y-143497157D01*
X59489956Y-143643237D01*
X59469317Y-143800000D01*
X59489956Y-143956762D01*
X59550464Y-144102842D01*
X59628815Y-144204952D01*
X59644107Y-144250000D01*
X59628815Y-144295048D01*
X59550464Y-144397157D01*
X59489956Y-144543237D01*
X59469317Y-144700000D01*
X59489956Y-144856762D01*
X59550464Y-145002842D01*
X59628815Y-145104952D01*
X59644107Y-145150000D01*
X59628815Y-145195048D01*
X59550464Y-145297157D01*
X59489956Y-145443237D01*
X59469317Y-145600000D01*
X59489956Y-145756762D01*
X59550464Y-145902842D01*
X59628815Y-146004952D01*
X59644107Y-146050000D01*
X59628815Y-146095048D01*
X59550464Y-146197157D01*
X59489956Y-146343237D01*
X59469317Y-146499999D01*
X59489956Y-146656762D01*
X59550464Y-146802842D01*
X59628815Y-146904952D01*
X59644107Y-146950000D01*
X59628815Y-146995048D01*
X59550464Y-147097157D01*
X59489956Y-147243237D01*
X59469317Y-147399999D01*
X59489956Y-147556762D01*
X59550464Y-147702842D01*
X59628815Y-147804952D01*
X59644107Y-147850000D01*
X59628815Y-147895048D01*
X59550464Y-147997157D01*
X59489956Y-148143237D01*
X59469317Y-148299999D01*
X33600500Y-148299999D01*
X33600500Y-140299999D01*
X66794317Y-140299999D01*
X66814956Y-140456762D01*
X66875464Y-140602842D01*
X66916839Y-140656762D01*
X66971718Y-140728282D01*
X67024491Y-140768776D01*
X67097157Y-140824535D01*
X67097158Y-140824535D01*
X67097159Y-140824536D01*
X67243238Y-140885044D01*
X67379360Y-140902964D01*
X67399999Y-140905682D01*
X67399999Y-140905681D01*
X67400000Y-140905682D01*
X67556762Y-140885044D01*
X67702841Y-140824536D01*
X67804952Y-140746183D01*
X67849999Y-140730892D01*
X67895047Y-140746184D01*
X67997157Y-140824535D01*
X67997158Y-140824535D01*
X67997159Y-140824536D01*
X68143238Y-140885044D01*
X68279360Y-140902964D01*
X68299999Y-140905682D01*
X68299999Y-140905681D01*
X68300000Y-140905682D01*
X68456762Y-140885044D01*
X68602841Y-140824536D01*
X68704952Y-140746183D01*
X68749999Y-140730892D01*
X68795047Y-140746184D01*
X68897157Y-140824535D01*
X68897158Y-140824535D01*
X68897159Y-140824536D01*
X69043238Y-140885044D01*
X69179360Y-140902964D01*
X69199999Y-140905682D01*
X69199999Y-140905681D01*
X69200000Y-140905682D01*
X69356762Y-140885044D01*
X69502841Y-140824536D01*
X69628282Y-140728282D01*
X69724536Y-140602841D01*
X69785044Y-140456762D01*
X69792517Y-140400000D01*
X71494317Y-140400000D01*
X71514956Y-140556762D01*
X71575464Y-140702842D01*
X71596988Y-140730892D01*
X71671718Y-140828282D01*
X71733206Y-140875463D01*
X71797157Y-140924535D01*
X71797158Y-140924535D01*
X71797159Y-140924536D01*
X71943238Y-140985044D01*
X72100000Y-141005682D01*
X72256762Y-140985044D01*
X72402841Y-140924536D01*
X72528282Y-140828282D01*
X72624536Y-140702841D01*
X72685044Y-140556762D01*
X72705682Y-140400000D01*
X72685044Y-140243238D01*
X72624536Y-140097159D01*
X72624535Y-140097158D01*
X72624535Y-140097157D01*
X72591001Y-140053455D01*
X72528282Y-139971718D01*
X72454308Y-139914956D01*
X72402842Y-139875464D01*
X72256762Y-139814956D01*
X72100000Y-139794317D01*
X71943237Y-139814956D01*
X71797157Y-139875464D01*
X71671718Y-139971718D01*
X71575464Y-140097157D01*
X71514956Y-140243237D01*
X71494317Y-140400000D01*
X69792517Y-140400000D01*
X69805682Y-140300000D01*
X69785044Y-140143238D01*
X69724536Y-139997159D01*
X69724535Y-139997158D01*
X69724535Y-139997157D01*
X69691001Y-139953455D01*
X69628282Y-139871718D01*
X69554308Y-139814956D01*
X69502842Y-139775464D01*
X69356762Y-139714956D01*
X69199999Y-139694317D01*
X69043237Y-139714956D01*
X68897160Y-139775463D01*
X68795047Y-139853816D01*
X68749999Y-139869107D01*
X68704951Y-139853815D01*
X68602842Y-139775464D01*
X68456762Y-139714956D01*
X68299999Y-139694317D01*
X68143237Y-139714956D01*
X67997160Y-139775463D01*
X67895047Y-139853816D01*
X67849999Y-139869107D01*
X67804951Y-139853815D01*
X67702842Y-139775464D01*
X67556762Y-139714956D01*
X67399999Y-139694317D01*
X67243237Y-139714956D01*
X67097157Y-139775464D01*
X66971718Y-139871718D01*
X66875464Y-139997157D01*
X66814956Y-140143237D01*
X66794317Y-140299999D01*
X33600500Y-140299999D01*
X33600500Y-139000000D01*
X60694317Y-139000000D01*
X60714956Y-139156762D01*
X60775464Y-139302842D01*
X60823590Y-139365561D01*
X60871718Y-139428282D01*
X60953455Y-139491001D01*
X60997157Y-139524535D01*
X60997158Y-139524535D01*
X60997159Y-139524536D01*
X61143238Y-139585044D01*
X61300000Y-139605682D01*
X61456762Y-139585044D01*
X61602841Y-139524536D01*
X61728282Y-139428282D01*
X61824536Y-139302841D01*
X61885044Y-139156762D01*
X61905682Y-139000000D01*
X61885044Y-138843238D01*
X61824536Y-138697159D01*
X61824535Y-138697158D01*
X61824535Y-138697157D01*
X61769327Y-138625209D01*
X61728282Y-138571718D01*
X61640274Y-138504187D01*
X61602842Y-138475464D01*
X61456762Y-138414956D01*
X61300000Y-138394317D01*
X61143237Y-138414956D01*
X60997157Y-138475464D01*
X60871718Y-138571718D01*
X60775464Y-138697157D01*
X60714956Y-138843237D01*
X60694317Y-139000000D01*
X33600500Y-139000000D01*
X33600500Y-136900000D01*
X73594317Y-136900000D01*
X73614956Y-137056762D01*
X73675464Y-137202842D01*
X73723590Y-137265561D01*
X73771718Y-137328282D01*
X73853455Y-137391001D01*
X73897157Y-137424535D01*
X73897158Y-137424535D01*
X73897159Y-137424536D01*
X74043238Y-137485044D01*
X74200000Y-137505682D01*
X74356762Y-137485044D01*
X74485167Y-137431856D01*
X74523142Y-137426857D01*
X74558531Y-137441516D01*
X74581850Y-137471905D01*
X74586850Y-137509883D01*
X74578940Y-137569958D01*
X74597002Y-137707144D01*
X74649950Y-137834974D01*
X74649951Y-137834976D01*
X74649952Y-137834977D01*
X74734185Y-137944750D01*
X74843958Y-138028983D01*
X74971793Y-138081933D01*
X75032678Y-138089948D01*
X75068065Y-138104607D01*
X75091384Y-138134996D01*
X75096384Y-138172973D01*
X75091451Y-138210443D01*
X75109513Y-138347629D01*
X75154697Y-138456717D01*
X75157807Y-138504187D01*
X75131378Y-138543742D01*
X75025209Y-138625209D01*
X74940974Y-138734985D01*
X74888026Y-138862815D01*
X74869964Y-139000000D01*
X74888026Y-139137185D01*
X74940974Y-139265015D01*
X74940975Y-139265017D01*
X74940976Y-139265018D01*
X75025209Y-139374791D01*
X75134982Y-139459024D01*
X75134983Y-139459024D01*
X75134984Y-139459025D01*
X75262814Y-139511973D01*
X75262817Y-139511974D01*
X75375482Y-139526807D01*
X75399999Y-139530035D01*
X75399999Y-139530034D01*
X75400000Y-139530035D01*
X75537183Y-139511974D01*
X75665018Y-139459024D01*
X75774791Y-139374791D01*
X75859024Y-139265018D01*
X75911974Y-139137183D01*
X75916869Y-139100000D01*
X82000000Y-139100000D01*
X83526000Y-139100000D01*
X83563000Y-139109914D01*
X83590086Y-139137000D01*
X83600000Y-139174000D01*
X83600000Y-141100000D01*
X100626000Y-141100000D01*
X100663000Y-141109914D01*
X100690086Y-141137000D01*
X100700000Y-141174000D01*
X100700000Y-147200000D01*
X105679485Y-147200000D01*
X105726125Y-147216548D01*
X105751905Y-147258791D01*
X105745296Y-147307836D01*
X105684276Y-147426518D01*
X105595631Y-147686358D01*
X105545766Y-147956324D01*
X105535740Y-148230684D01*
X105565765Y-148503569D01*
X105593359Y-148609119D01*
X105635206Y-148769183D01*
X105742579Y-149021853D01*
X105885597Y-149256197D01*
X106061211Y-149467219D01*
X106265679Y-149650424D01*
X106494643Y-149801905D01*
X106714005Y-149904737D01*
X106743225Y-149918435D01*
X107006120Y-149997528D01*
X107277730Y-150037501D01*
X107277733Y-150037501D01*
X107483543Y-150037501D01*
X107483549Y-150037501D01*
X107688807Y-150022478D01*
X107956777Y-149962785D01*
X108213200Y-149864712D01*
X108452611Y-149730348D01*
X108669906Y-149562558D01*
X108860456Y-149364917D01*
X109020198Y-149141638D01*
X109145729Y-148897480D01*
X109234372Y-148637647D01*
X109284238Y-148367675D01*
X109294264Y-148093321D01*
X109264238Y-147820430D01*
X109194798Y-147554819D01*
X109087760Y-147302939D01*
X109084273Y-147255283D01*
X109110640Y-147215429D01*
X109155867Y-147200000D01*
X110800000Y-147200000D01*
X110800000Y-135800000D01*
X109348717Y-135800000D01*
X109307886Y-135787716D01*
X109280611Y-135754942D01*
X109275948Y-135712559D01*
X109282136Y-135679055D01*
X109284238Y-135667675D01*
X109294264Y-135393321D01*
X109264238Y-135120430D01*
X109194798Y-134854819D01*
X109087425Y-134602149D01*
X108944407Y-134367805D01*
X108768793Y-134156783D01*
X108564325Y-133973578D01*
X108335361Y-133822097D01*
X108334617Y-133821748D01*
X108086778Y-133705566D01*
X107823883Y-133626473D01*
X107552274Y-133586501D01*
X107552271Y-133586501D01*
X107346455Y-133586501D01*
X107141197Y-133601524D01*
X107037898Y-133624535D01*
X106873223Y-133661218D01*
X106616807Y-133759288D01*
X106377392Y-133893654D01*
X106160095Y-134061445D01*
X105969548Y-134259084D01*
X105809805Y-134482364D01*
X105684276Y-134726518D01*
X105595631Y-134986358D01*
X105545766Y-135256324D01*
X105535740Y-135530684D01*
X105556340Y-135717907D01*
X105549400Y-135758224D01*
X105522100Y-135788692D01*
X105482784Y-135800000D01*
X99094500Y-135800000D01*
X99054910Y-135788519D01*
X99027605Y-135757639D01*
X99021056Y-135716942D01*
X99037297Y-135679055D01*
X99046636Y-135667675D01*
X99152687Y-135538451D01*
X99250234Y-135355955D01*
X99310302Y-135157935D01*
X99330585Y-134952001D01*
X99310302Y-134746067D01*
X99250234Y-134548047D01*
X99152687Y-134365551D01*
X99021412Y-134205591D01*
X98861452Y-134074316D01*
X98717103Y-133997159D01*
X98678957Y-133976769D01*
X98496967Y-133921564D01*
X98480936Y-133916701D01*
X98275002Y-133896418D01*
X98069068Y-133916701D01*
X97871046Y-133976769D01*
X97688552Y-134074316D01*
X97528592Y-134205591D01*
X97397317Y-134365551D01*
X97299770Y-134548045D01*
X97239702Y-134746067D01*
X97219419Y-134952001D01*
X97239702Y-135157934D01*
X97299770Y-135355956D01*
X97324831Y-135402841D01*
X97397317Y-135538451D01*
X97487471Y-135648305D01*
X97512707Y-135679055D01*
X97528948Y-135716942D01*
X97522399Y-135757639D01*
X97495094Y-135788519D01*
X97455504Y-135800000D01*
X95222491Y-135800000D01*
X95179388Y-135786151D01*
X95152418Y-135749787D01*
X95151677Y-135704519D01*
X95177443Y-135667292D01*
X95228282Y-135628282D01*
X95324536Y-135502841D01*
X95385044Y-135356762D01*
X95405682Y-135200000D01*
X95385044Y-135043238D01*
X95324536Y-134897159D01*
X95324535Y-134897158D01*
X95324535Y-134897157D01*
X95289650Y-134851694D01*
X95228282Y-134771718D01*
X95165561Y-134723591D01*
X95102842Y-134675464D01*
X94956762Y-134614956D01*
X94800000Y-134594317D01*
X94643237Y-134614956D01*
X94497157Y-134675464D01*
X94371718Y-134771718D01*
X94275464Y-134897157D01*
X94214956Y-135043237D01*
X94194317Y-135200000D01*
X94214956Y-135356762D01*
X94275464Y-135502842D01*
X94302788Y-135538451D01*
X94371718Y-135628282D01*
X94397813Y-135648305D01*
X94422557Y-135667292D01*
X94448323Y-135704519D01*
X94447582Y-135749787D01*
X94420612Y-135786151D01*
X94377509Y-135800000D01*
X87200000Y-135800000D01*
X83600000Y-137800000D01*
X83599999Y-137800001D01*
X83221674Y-138178326D01*
X83197667Y-138194367D01*
X83169348Y-138200000D01*
X82000000Y-138200000D01*
X82000000Y-139100000D01*
X75916869Y-139100000D01*
X75930035Y-139000000D01*
X75911974Y-138862817D01*
X75866788Y-138753729D01*
X75863677Y-138706259D01*
X75890106Y-138666706D01*
X75996278Y-138585237D01*
X76080511Y-138475464D01*
X76133461Y-138347629D01*
X76151522Y-138210446D01*
X76133461Y-138073263D01*
X76080511Y-137945429D01*
X76080511Y-137945428D01*
X75996280Y-137835656D01*
X75886502Y-137751420D01*
X75758671Y-137698472D01*
X75697783Y-137690455D01*
X75662394Y-137675795D01*
X75639076Y-137645405D01*
X75634077Y-137607430D01*
X75639011Y-137569959D01*
X75620950Y-137432776D01*
X75568000Y-137304942D01*
X75541025Y-137269788D01*
X75525804Y-137227968D01*
X75537325Y-137184978D01*
X75558816Y-137166946D01*
X75557288Y-137164955D01*
X75565016Y-137159024D01*
X75565018Y-137159024D01*
X75674791Y-137074791D01*
X75759024Y-136965018D01*
X75811974Y-136837183D01*
X75830035Y-136700000D01*
X75811974Y-136562817D01*
X75774239Y-136471716D01*
X75759024Y-136434982D01*
X75674793Y-136325210D01*
X75565015Y-136240974D01*
X75437185Y-136188026D01*
X75300000Y-136169964D01*
X75162815Y-136188026D01*
X75034985Y-136240974D01*
X74925209Y-136325209D01*
X74840975Y-136434984D01*
X74805579Y-136520439D01*
X74771382Y-136557759D01*
X74721196Y-136564366D01*
X74678504Y-136537169D01*
X74628280Y-136471716D01*
X74502842Y-136375464D01*
X74356762Y-136314956D01*
X74200000Y-136294317D01*
X74043237Y-136314956D01*
X73897157Y-136375464D01*
X73771718Y-136471718D01*
X73675464Y-136597157D01*
X73614956Y-136743237D01*
X73594317Y-136900000D01*
X33600500Y-136900000D01*
X33600500Y-136074000D01*
X33610414Y-136037000D01*
X33637500Y-136009914D01*
X33674500Y-136000000D01*
X58000000Y-136000000D01*
X58000000Y-135999999D01*
X57997161Y-135100000D01*
X74194317Y-135100000D01*
X74214956Y-135256762D01*
X74275464Y-135402842D01*
X74323591Y-135465561D01*
X74371718Y-135528282D01*
X74453455Y-135591001D01*
X74497157Y-135624535D01*
X74497158Y-135624535D01*
X74497159Y-135624536D01*
X74643238Y-135685044D01*
X74800000Y-135705682D01*
X74956762Y-135685044D01*
X75068776Y-135638645D01*
X75106754Y-135633646D01*
X75142143Y-135648305D01*
X75165461Y-135678693D01*
X75167593Y-135683838D01*
X75175464Y-135702842D01*
X75192111Y-135724536D01*
X75271718Y-135828282D01*
X75353455Y-135891001D01*
X75397157Y-135924535D01*
X75397158Y-135924535D01*
X75397159Y-135924536D01*
X75543238Y-135985044D01*
X75700000Y-136005682D01*
X75856762Y-135985044D01*
X76002841Y-135924536D01*
X76128282Y-135828282D01*
X76224536Y-135702841D01*
X76285044Y-135556762D01*
X76305682Y-135400000D01*
X76285044Y-135243238D01*
X76224536Y-135097159D01*
X76224535Y-135097158D01*
X76224535Y-135097157D01*
X76183160Y-135043237D01*
X76128282Y-134971718D01*
X76042222Y-134905682D01*
X76002842Y-134875464D01*
X75856762Y-134814956D01*
X75700000Y-134794317D01*
X75543236Y-134814956D01*
X75431222Y-134861354D01*
X75393244Y-134866354D01*
X75357855Y-134851694D01*
X75334538Y-134821307D01*
X75324536Y-134797159D01*
X75322355Y-134794317D01*
X75270331Y-134726518D01*
X75228282Y-134671718D01*
X75138521Y-134602842D01*
X75102842Y-134575464D01*
X74956762Y-134514956D01*
X74800000Y-134494317D01*
X74643237Y-134514956D01*
X74497157Y-134575464D01*
X74371718Y-134671718D01*
X74275464Y-134797157D01*
X74214956Y-134943237D01*
X74194317Y-135100000D01*
X57997161Y-135100000D01*
X57995250Y-134494317D01*
X57994974Y-134406792D01*
X84301109Y-134406792D01*
X84321748Y-134563554D01*
X84382256Y-134709634D01*
X84429895Y-134771718D01*
X84478510Y-134835074D01*
X84559418Y-134897157D01*
X84603949Y-134931327D01*
X84603950Y-134931327D01*
X84603951Y-134931328D01*
X84750030Y-134991836D01*
X84906792Y-135012474D01*
X85063554Y-134991836D01*
X85209633Y-134931328D01*
X85335074Y-134835074D01*
X85431328Y-134709633D01*
X85491836Y-134563554D01*
X85512474Y-134406792D01*
X85498415Y-134300000D01*
X87994317Y-134300000D01*
X88014956Y-134456762D01*
X88075464Y-134602842D01*
X88084760Y-134614956D01*
X88171718Y-134728282D01*
X88228325Y-134771718D01*
X88297157Y-134824535D01*
X88297158Y-134824535D01*
X88297159Y-134824536D01*
X88443238Y-134885044D01*
X88600000Y-134905682D01*
X88756762Y-134885044D01*
X88902841Y-134824536D01*
X89028282Y-134728282D01*
X89124536Y-134602841D01*
X89185044Y-134456762D01*
X89205682Y-134300000D01*
X89185044Y-134143238D01*
X89124536Y-133997159D01*
X89124535Y-133997158D01*
X89124535Y-133997157D01*
X89066527Y-133921560D01*
X89028282Y-133871718D01*
X88965561Y-133823591D01*
X88902842Y-133775464D01*
X88756762Y-133714956D01*
X88599999Y-133694317D01*
X88443237Y-133714956D01*
X88297157Y-133775464D01*
X88171718Y-133871718D01*
X88075464Y-133997157D01*
X88014956Y-134143237D01*
X87994317Y-134300000D01*
X85498415Y-134300000D01*
X85491836Y-134250030D01*
X85431328Y-134103951D01*
X85431327Y-134103950D01*
X85431327Y-134103949D01*
X85397793Y-134060247D01*
X85335074Y-133978510D01*
X85272353Y-133930383D01*
X85209634Y-133882256D01*
X85063554Y-133821748D01*
X84906792Y-133801109D01*
X84750029Y-133821748D01*
X84603949Y-133882256D01*
X84478510Y-133978510D01*
X84382256Y-134103949D01*
X84321748Y-134250029D01*
X84301109Y-134406792D01*
X57994974Y-134406792D01*
X57990851Y-133100000D01*
X70594317Y-133100000D01*
X70614956Y-133256762D01*
X70675464Y-133402842D01*
X70705850Y-133442441D01*
X70771718Y-133528282D01*
X70845691Y-133585043D01*
X70897157Y-133624535D01*
X70897158Y-133624535D01*
X70897159Y-133624536D01*
X71043238Y-133685044D01*
X71200000Y-133705682D01*
X71356762Y-133685044D01*
X71364111Y-133682000D01*
X102529530Y-133682000D01*
X102549381Y-133921560D01*
X102608393Y-134154596D01*
X102704952Y-134374729D01*
X102828319Y-134563554D01*
X102836431Y-134575970D01*
X102959476Y-134709633D01*
X102999240Y-134752828D01*
X103188934Y-134900473D01*
X103400344Y-135014882D01*
X103400346Y-135014883D01*
X103627705Y-135092935D01*
X103864810Y-135132501D01*
X104105193Y-135132501D01*
X104105194Y-135132501D01*
X104342299Y-135092935D01*
X104569658Y-135014883D01*
X104781069Y-134900473D01*
X104970766Y-134752826D01*
X105133573Y-134575970D01*
X105265051Y-134374729D01*
X105361612Y-134154592D01*
X105420622Y-133921564D01*
X105440473Y-133682001D01*
X105420622Y-133442438D01*
X105361612Y-133209410D01*
X105358731Y-133202841D01*
X105265051Y-132989272D01*
X105133575Y-132788035D01*
X105133574Y-132788034D01*
X105133573Y-132788032D01*
X104970766Y-132611176D01*
X104970765Y-132611175D01*
X104970763Y-132611173D01*
X104781069Y-132463528D01*
X104569659Y-132349119D01*
X104410024Y-132294317D01*
X104342299Y-132271067D01*
X104105194Y-132231501D01*
X103864810Y-132231501D01*
X103713430Y-132256762D01*
X103627705Y-132271067D01*
X103400344Y-132349119D01*
X103188934Y-132463528D01*
X102999240Y-132611173D01*
X102836428Y-132788035D01*
X102704952Y-132989272D01*
X102608393Y-133209405D01*
X102549381Y-133442441D01*
X102529530Y-133682000D01*
X71364111Y-133682000D01*
X71502841Y-133624536D01*
X71628282Y-133528282D01*
X71724536Y-133402841D01*
X71785044Y-133256762D01*
X71805682Y-133100000D01*
X71785044Y-132943238D01*
X71767134Y-132900000D01*
X73494317Y-132900000D01*
X73514956Y-133056762D01*
X73575464Y-133202842D01*
X73616839Y-133256762D01*
X73671718Y-133328282D01*
X73753455Y-133391001D01*
X73797157Y-133424535D01*
X73797158Y-133424535D01*
X73797159Y-133424536D01*
X73943238Y-133485044D01*
X74100000Y-133505682D01*
X74256762Y-133485044D01*
X74402841Y-133424536D01*
X74528282Y-133328282D01*
X74624536Y-133202841D01*
X74685044Y-133056762D01*
X74692517Y-132999999D01*
X94994317Y-132999999D01*
X95014956Y-133156762D01*
X95075464Y-133302842D01*
X95123591Y-133365561D01*
X95171718Y-133428282D01*
X95245691Y-133485043D01*
X95297157Y-133524535D01*
X95297158Y-133524535D01*
X95297159Y-133524536D01*
X95443238Y-133585044D01*
X95600000Y-133605682D01*
X95756762Y-133585044D01*
X95902841Y-133524536D01*
X96028282Y-133428282D01*
X96124536Y-133302841D01*
X96185044Y-133156762D01*
X96205682Y-133000000D01*
X96185044Y-132843238D01*
X96124536Y-132697159D01*
X96124535Y-132697158D01*
X96124535Y-132697157D01*
X96091001Y-132653455D01*
X96028282Y-132571718D01*
X95954308Y-132514956D01*
X95902842Y-132475464D01*
X95756762Y-132414956D01*
X95600000Y-132394317D01*
X95443237Y-132414956D01*
X95297157Y-132475464D01*
X95171718Y-132571718D01*
X95075464Y-132697157D01*
X95014956Y-132843237D01*
X94994317Y-132999999D01*
X74692517Y-132999999D01*
X74705682Y-132900000D01*
X74685044Y-132743238D01*
X74624536Y-132597159D01*
X74624535Y-132597158D01*
X74624535Y-132597157D01*
X74571684Y-132528281D01*
X74528282Y-132471718D01*
X74438521Y-132402842D01*
X74402842Y-132375464D01*
X74256762Y-132314956D01*
X74100000Y-132294317D01*
X73943237Y-132314956D01*
X73797157Y-132375464D01*
X73671718Y-132471718D01*
X73575464Y-132597157D01*
X73514956Y-132743237D01*
X73494317Y-132900000D01*
X71767134Y-132900000D01*
X71724536Y-132797159D01*
X71724535Y-132797158D01*
X71724535Y-132797157D01*
X71654343Y-132705682D01*
X71628282Y-132671718D01*
X71531112Y-132597157D01*
X71502842Y-132575464D01*
X71356762Y-132514956D01*
X71199999Y-132494317D01*
X71043237Y-132514956D01*
X70897157Y-132575464D01*
X70771718Y-132671718D01*
X70675464Y-132797157D01*
X70614956Y-132943237D01*
X70594317Y-133100000D01*
X57990851Y-133100000D01*
X57987696Y-132100000D01*
X72147817Y-132100000D01*
X72168456Y-132256762D01*
X72228964Y-132402842D01*
X72238260Y-132414956D01*
X72325218Y-132528282D01*
X72381825Y-132571718D01*
X72450657Y-132624535D01*
X72450658Y-132624535D01*
X72450659Y-132624536D01*
X72596738Y-132685044D01*
X72753500Y-132705682D01*
X72910262Y-132685044D01*
X73056341Y-132624536D01*
X73181782Y-132528282D01*
X73278036Y-132402841D01*
X73338544Y-132256762D01*
X73359182Y-132100000D01*
X73338544Y-131943238D01*
X73278036Y-131797159D01*
X73278035Y-131797158D01*
X73278035Y-131797157D01*
X73192007Y-131685044D01*
X73181782Y-131671718D01*
X73119061Y-131623590D01*
X73056342Y-131575464D01*
X72910262Y-131514956D01*
X72753500Y-131494317D01*
X72596737Y-131514956D01*
X72450657Y-131575464D01*
X72325218Y-131671718D01*
X72228964Y-131797157D01*
X72168456Y-131943237D01*
X72147817Y-132100000D01*
X57987696Y-132100000D01*
X57984542Y-131099999D01*
X74894317Y-131099999D01*
X74914956Y-131256762D01*
X74975464Y-131402842D01*
X75023591Y-131465561D01*
X75071718Y-131528282D01*
X75133207Y-131575464D01*
X75197157Y-131624535D01*
X75197158Y-131624535D01*
X75197159Y-131624536D01*
X75343238Y-131685044D01*
X75500000Y-131705682D01*
X75656762Y-131685044D01*
X75802841Y-131624536D01*
X75928282Y-131528282D01*
X76024536Y-131402841D01*
X76085044Y-131256762D01*
X76105682Y-131100000D01*
X76085044Y-130943238D01*
X76024536Y-130797159D01*
X76024535Y-130797158D01*
X76024535Y-130797157D01*
X75949983Y-130700000D01*
X76944749Y-130700000D01*
X76963670Y-130843710D01*
X77019137Y-130977622D01*
X77019138Y-130977624D01*
X77019139Y-130977625D01*
X77107379Y-131092621D01*
X77222375Y-131180861D01*
X77356291Y-131236330D01*
X77478210Y-131252381D01*
X77499999Y-131255250D01*
X77499999Y-131255249D01*
X77500000Y-131255250D01*
X77643709Y-131236330D01*
X77777625Y-131180861D01*
X77892621Y-131092621D01*
X77980861Y-130977625D01*
X78036330Y-130843709D01*
X78055250Y-130700000D01*
X78036330Y-130556291D01*
X77980861Y-130422375D01*
X77962157Y-130397999D01*
X79944749Y-130397999D01*
X79963670Y-130541710D01*
X80019137Y-130675622D01*
X80019138Y-130675624D01*
X80019139Y-130675625D01*
X80107379Y-130790621D01*
X80222375Y-130878861D01*
X80356291Y-130934330D01*
X80478210Y-130950381D01*
X80499999Y-130953250D01*
X80499999Y-130953249D01*
X80500000Y-130953250D01*
X80643709Y-130934330D01*
X80777625Y-130878861D01*
X80892621Y-130790621D01*
X80980861Y-130675625D01*
X81008419Y-130609092D01*
X82032927Y-130609092D01*
X82050989Y-130746278D01*
X82103937Y-130874108D01*
X82103938Y-130874110D01*
X82103939Y-130874111D01*
X82188172Y-130983884D01*
X82297945Y-131068117D01*
X82297946Y-131068117D01*
X82297947Y-131068118D01*
X82425777Y-131121066D01*
X82425780Y-131121067D01*
X82562963Y-131139128D01*
X82700146Y-131121067D01*
X82827981Y-131068117D01*
X82937754Y-130983884D01*
X83021987Y-130874111D01*
X83074937Y-130746276D01*
X83092998Y-130609093D01*
X83074937Y-130471910D01*
X83044323Y-130398000D01*
X83021987Y-130344075D01*
X82937756Y-130234303D01*
X82827978Y-130150067D01*
X82700148Y-130097119D01*
X82562963Y-130079057D01*
X82425778Y-130097119D01*
X82297948Y-130150067D01*
X82188172Y-130234302D01*
X82103937Y-130344078D01*
X82050989Y-130471908D01*
X82032927Y-130609092D01*
X81008419Y-130609092D01*
X81036330Y-130541709D01*
X81055250Y-130398000D01*
X81036330Y-130254291D01*
X80998794Y-130163670D01*
X80980862Y-130120377D01*
X80980861Y-130120376D01*
X80980861Y-130120375D01*
X80892621Y-130005379D01*
X80777625Y-129917139D01*
X80777624Y-129917138D01*
X80777622Y-129917137D01*
X80643710Y-129861670D01*
X80500000Y-129842749D01*
X80356289Y-129861670D01*
X80222377Y-129917137D01*
X80107379Y-130005379D01*
X80019137Y-130120377D01*
X79963670Y-130254289D01*
X79944749Y-130397999D01*
X77962157Y-130397999D01*
X77892621Y-130307379D01*
X77777625Y-130219139D01*
X77777624Y-130219138D01*
X77777622Y-130219137D01*
X77643710Y-130163670D01*
X77500000Y-130144749D01*
X77356289Y-130163670D01*
X77222377Y-130219137D01*
X77107379Y-130307379D01*
X77019137Y-130422377D01*
X76963670Y-130556289D01*
X76944749Y-130700000D01*
X75949983Y-130700000D01*
X75928282Y-130671718D01*
X75865561Y-130623590D01*
X75802842Y-130575464D01*
X75656762Y-130514956D01*
X75500000Y-130494317D01*
X75343237Y-130514956D01*
X75197157Y-130575464D01*
X75071718Y-130671718D01*
X74975464Y-130797157D01*
X74914956Y-130943237D01*
X74894317Y-131099999D01*
X57984542Y-131099999D01*
X57979179Y-129399999D01*
X67794317Y-129399999D01*
X67814956Y-129556762D01*
X67875464Y-129702842D01*
X67909797Y-129747585D01*
X67971718Y-129828282D01*
X68053455Y-129891001D01*
X68097157Y-129924535D01*
X68097158Y-129924535D01*
X68097159Y-129924536D01*
X68243238Y-129985044D01*
X68400000Y-130005682D01*
X68556762Y-129985044D01*
X68702841Y-129924536D01*
X68828282Y-129828282D01*
X68924536Y-129702841D01*
X68985044Y-129556762D01*
X69005682Y-129400000D01*
X68985044Y-129243238D01*
X68924536Y-129097159D01*
X68924535Y-129097158D01*
X68924535Y-129097157D01*
X68863326Y-129017389D01*
X68828282Y-128971718D01*
X68765561Y-128923591D01*
X68702842Y-128875464D01*
X68556762Y-128814956D01*
X68400000Y-128794317D01*
X68243237Y-128814956D01*
X68097157Y-128875464D01*
X67971718Y-128971718D01*
X67875464Y-129097157D01*
X67814956Y-129243237D01*
X67794317Y-129399999D01*
X57979179Y-129399999D01*
X57976655Y-128599999D01*
X95844570Y-128599999D01*
X95864243Y-128812309D01*
X95922594Y-129017389D01*
X96017632Y-129208254D01*
X96143066Y-129374352D01*
X96146128Y-129378407D01*
X96303698Y-129522052D01*
X96484981Y-129634298D01*
X96683802Y-129711321D01*
X96893390Y-129750500D01*
X97106609Y-129750500D01*
X97106610Y-129750500D01*
X97316198Y-129711321D01*
X97515019Y-129634298D01*
X97696302Y-129522052D01*
X97853872Y-129378407D01*
X97982366Y-129208255D01*
X97982365Y-129208255D01*
X97982367Y-129208254D01*
X98077405Y-129017389D01*
X98117787Y-128875464D01*
X98135756Y-128812310D01*
X98155429Y-128600000D01*
X98155429Y-128599999D01*
X98384570Y-128599999D01*
X98404243Y-128812309D01*
X98462594Y-129017389D01*
X98557632Y-129208254D01*
X98683066Y-129374352D01*
X98686128Y-129378407D01*
X98843698Y-129522052D01*
X99024981Y-129634298D01*
X99223802Y-129711321D01*
X99433390Y-129750500D01*
X99646609Y-129750500D01*
X99646610Y-129750500D01*
X99856198Y-129711321D01*
X100055019Y-129634298D01*
X100236302Y-129522052D01*
X100393872Y-129378407D01*
X100522366Y-129208255D01*
X100522365Y-129208255D01*
X100522367Y-129208254D01*
X100617405Y-129017389D01*
X100631113Y-128969210D01*
X100675756Y-128812310D01*
X100686389Y-128697551D01*
X100702757Y-128657573D01*
X100738656Y-128633545D01*
X100781854Y-128633656D01*
X100817630Y-128657867D01*
X100833792Y-128697928D01*
X100844287Y-128817885D01*
X100900897Y-129029157D01*
X100993333Y-129227389D01*
X101118786Y-129406553D01*
X101273446Y-129561213D01*
X101452610Y-129686666D01*
X101650842Y-129779102D01*
X101862115Y-129835712D01*
X101880000Y-129837277D01*
X101880000Y-127362723D01*
X102280000Y-127362723D01*
X102280000Y-129837277D01*
X102297884Y-129835712D01*
X102509157Y-129779102D01*
X102707389Y-129686666D01*
X102886553Y-129561213D01*
X103041213Y-129406553D01*
X103166666Y-129227389D01*
X103259102Y-129029157D01*
X103315712Y-128817884D01*
X103321782Y-128748507D01*
X103338812Y-128707390D01*
X103376347Y-128683478D01*
X103420809Y-128685419D01*
X103456117Y-128712511D01*
X103469500Y-128754956D01*
X103469500Y-129494865D01*
X103472414Y-129519989D01*
X103472415Y-129519991D01*
X103517794Y-129622765D01*
X103597235Y-129702206D01*
X103700009Y-129747585D01*
X103725135Y-129750500D01*
X105514864Y-129750499D01*
X105514865Y-129750499D01*
X105523239Y-129749527D01*
X105539991Y-129747585D01*
X105642765Y-129702206D01*
X105722206Y-129622765D01*
X105767585Y-129519991D01*
X105770500Y-129494865D01*
X105770499Y-127705136D01*
X105767585Y-127680009D01*
X105722206Y-127577235D01*
X105642765Y-127497794D01*
X105594806Y-127476618D01*
X105539990Y-127452414D01*
X105514865Y-127449500D01*
X103725134Y-127449500D01*
X103700010Y-127452414D01*
X103597235Y-127497794D01*
X103517794Y-127577235D01*
X103472414Y-127680009D01*
X103469500Y-127705134D01*
X103469500Y-128445041D01*
X103456117Y-128487486D01*
X103420809Y-128514578D01*
X103376347Y-128516519D01*
X103338813Y-128492607D01*
X103321782Y-128451490D01*
X103315712Y-128382115D01*
X103259102Y-128170842D01*
X103166666Y-127972611D01*
X103041213Y-127793446D01*
X102886553Y-127638786D01*
X102707389Y-127513333D01*
X102509157Y-127420897D01*
X102297884Y-127364287D01*
X102280000Y-127362723D01*
X101880000Y-127362723D01*
X101880000Y-127362722D01*
X101862115Y-127364287D01*
X101650842Y-127420897D01*
X101452611Y-127513333D01*
X101273446Y-127638786D01*
X101118786Y-127793446D01*
X100993333Y-127972611D01*
X100900897Y-128170842D01*
X100844287Y-128382114D01*
X100833792Y-128502071D01*
X100817630Y-128542132D01*
X100781854Y-128566343D01*
X100738656Y-128566454D01*
X100702757Y-128542426D01*
X100686390Y-128502448D01*
X100675756Y-128387691D01*
X100674169Y-128382115D01*
X100632328Y-128235058D01*
X100617405Y-128182610D01*
X100522367Y-127991745D01*
X100393874Y-127821596D01*
X100393872Y-127821593D01*
X100236302Y-127677948D01*
X100055019Y-127565702D01*
X99856198Y-127488679D01*
X99646610Y-127449500D01*
X99433390Y-127449500D01*
X99328595Y-127469089D01*
X99223801Y-127488679D01*
X99024980Y-127565702D01*
X98882170Y-127654127D01*
X98843698Y-127677948D01*
X98772080Y-127743237D01*
X98686125Y-127821596D01*
X98557632Y-127991745D01*
X98462594Y-128182610D01*
X98404243Y-128387690D01*
X98384570Y-128599999D01*
X98155429Y-128599999D01*
X98146950Y-128508500D01*
X98135756Y-128387690D01*
X98077405Y-128182610D01*
X97982367Y-127991745D01*
X97853874Y-127821596D01*
X97853872Y-127821593D01*
X97696302Y-127677948D01*
X97515019Y-127565702D01*
X97316198Y-127488679D01*
X97106610Y-127449500D01*
X96893390Y-127449500D01*
X96788595Y-127469089D01*
X96683801Y-127488679D01*
X96484980Y-127565702D01*
X96342170Y-127654127D01*
X96303698Y-127677948D01*
X96232080Y-127743237D01*
X96146125Y-127821596D01*
X96017632Y-127991745D01*
X95922594Y-128182610D01*
X95864243Y-128387690D01*
X95844570Y-128599999D01*
X57976655Y-128599999D01*
X57966952Y-125524000D01*
X58652359Y-125524000D01*
X58672873Y-125732286D01*
X58693414Y-125800000D01*
X58733628Y-125932570D01*
X58743926Y-125951835D01*
X58832289Y-126117150D01*
X58965064Y-126278936D01*
X59126850Y-126411711D01*
X59311431Y-126510372D01*
X59511714Y-126571127D01*
X59720000Y-126591641D01*
X59928286Y-126571127D01*
X60030898Y-126540000D01*
X61192359Y-126540000D01*
X61212873Y-126748286D01*
X61230284Y-126805682D01*
X61273628Y-126948570D01*
X61322958Y-127040859D01*
X61372289Y-127133150D01*
X61505064Y-127294936D01*
X61666850Y-127427711D01*
X61851431Y-127526372D01*
X62051714Y-127587127D01*
X62260000Y-127607641D01*
X62468286Y-127587127D01*
X62668569Y-127526372D01*
X62853150Y-127427711D01*
X63014936Y-127294936D01*
X63147711Y-127133150D01*
X63246372Y-126948569D01*
X63307127Y-126748286D01*
X63327641Y-126540000D01*
X63682733Y-126540000D01*
X63701757Y-126745296D01*
X63758179Y-126943601D01*
X63850081Y-127128166D01*
X63936872Y-127243095D01*
X63974330Y-127292697D01*
X64126697Y-127431598D01*
X64301992Y-127540136D01*
X64494246Y-127614615D01*
X64696912Y-127652500D01*
X64903087Y-127652500D01*
X64903088Y-127652500D01*
X65105754Y-127614615D01*
X65298008Y-127540136D01*
X65473303Y-127431598D01*
X65625670Y-127292697D01*
X65749919Y-127128165D01*
X65841820Y-126943603D01*
X65854226Y-126900000D01*
X69694317Y-126900000D01*
X69714956Y-127056762D01*
X69775464Y-127202842D01*
X69782669Y-127212231D01*
X69871718Y-127328282D01*
X69975192Y-127407680D01*
X69997159Y-127424536D01*
X70143873Y-127485307D01*
X70177964Y-127513911D01*
X70189485Y-127556895D01*
X70178251Y-127587769D01*
X70179192Y-127588159D01*
X70114956Y-127743237D01*
X70094317Y-127900000D01*
X70114956Y-128056762D01*
X70175464Y-128202842D01*
X70200184Y-128235057D01*
X70271718Y-128328282D01*
X70341875Y-128382115D01*
X70397157Y-128424535D01*
X70397158Y-128424535D01*
X70397159Y-128424536D01*
X70543238Y-128485044D01*
X70700000Y-128505682D01*
X70856762Y-128485044D01*
X71002841Y-128424536D01*
X71128282Y-128328282D01*
X71224536Y-128202841D01*
X71285044Y-128056762D01*
X71305682Y-127900000D01*
X75194317Y-127900000D01*
X75214956Y-128056762D01*
X75275464Y-128202842D01*
X75300184Y-128235057D01*
X75371718Y-128328282D01*
X75441875Y-128382115D01*
X75497157Y-128424535D01*
X75497158Y-128424535D01*
X75497159Y-128424536D01*
X75643238Y-128485044D01*
X75800000Y-128505682D01*
X75956762Y-128485044D01*
X76102841Y-128424536D01*
X76228282Y-128328282D01*
X76245041Y-128306440D01*
X76281494Y-128280915D01*
X76325998Y-128280915D01*
X76362454Y-128306440D01*
X76379213Y-128328281D01*
X76403935Y-128360499D01*
X76529373Y-128456751D01*
X76529374Y-128456751D01*
X76529375Y-128456752D01*
X76675454Y-128517260D01*
X76832216Y-128537898D01*
X76988978Y-128517260D01*
X77135057Y-128456752D01*
X77260498Y-128360498D01*
X77356752Y-128235057D01*
X77417260Y-128088978D01*
X77437898Y-127932216D01*
X77417260Y-127775454D01*
X77356752Y-127629375D01*
X77356751Y-127629374D01*
X77356751Y-127629373D01*
X77296842Y-127551299D01*
X77260498Y-127503934D01*
X77166228Y-127431598D01*
X77135058Y-127407680D01*
X76988978Y-127347172D01*
X76832216Y-127326533D01*
X76675453Y-127347172D01*
X76529373Y-127407680D01*
X76403934Y-127503933D01*
X76387174Y-127525774D01*
X76350718Y-127551300D01*
X76306214Y-127551299D01*
X76269759Y-127525772D01*
X76249357Y-127499184D01*
X76228282Y-127471718D01*
X76144826Y-127407680D01*
X76102842Y-127375464D01*
X75956762Y-127314956D01*
X75800000Y-127294317D01*
X75643237Y-127314956D01*
X75497157Y-127375464D01*
X75371718Y-127471718D01*
X75275464Y-127597157D01*
X75214956Y-127743237D01*
X75194317Y-127900000D01*
X71305682Y-127900000D01*
X71285044Y-127743238D01*
X71224536Y-127597159D01*
X71224535Y-127597158D01*
X71224535Y-127597157D01*
X71180780Y-127540135D01*
X71128282Y-127471718D01*
X71044826Y-127407680D01*
X71002842Y-127375464D01*
X70856125Y-127314692D01*
X70822032Y-127286084D01*
X70810515Y-127243095D01*
X70821749Y-127212231D01*
X70820808Y-127211841D01*
X70833194Y-127181938D01*
X70885044Y-127056762D01*
X70905682Y-126900000D01*
X70885044Y-126743238D01*
X70824536Y-126597159D01*
X70824535Y-126597158D01*
X70824535Y-126597157D01*
X70777860Y-126536330D01*
X70728282Y-126471718D01*
X70642222Y-126405682D01*
X70602842Y-126375464D01*
X70456762Y-126314956D01*
X70300000Y-126294317D01*
X70143237Y-126314956D01*
X69997157Y-126375464D01*
X69871718Y-126471718D01*
X69775464Y-126597157D01*
X69714956Y-126743237D01*
X69694317Y-126900000D01*
X65854226Y-126900000D01*
X65898242Y-126745297D01*
X65917266Y-126540000D01*
X65914520Y-126510372D01*
X65898242Y-126334703D01*
X65859916Y-126199999D01*
X65841820Y-126136397D01*
X65749919Y-125951835D01*
X65749918Y-125951834D01*
X65749918Y-125951833D01*
X65635258Y-125800000D01*
X70894317Y-125800000D01*
X70914956Y-125956762D01*
X70975464Y-126102842D01*
X71001212Y-126136397D01*
X71071718Y-126228282D01*
X71137732Y-126278936D01*
X71197157Y-126324535D01*
X71197158Y-126324535D01*
X71197159Y-126324536D01*
X71343238Y-126385044D01*
X71500000Y-126405682D01*
X71656762Y-126385044D01*
X71802841Y-126324536D01*
X71928282Y-126228282D01*
X71949983Y-126200000D01*
X73694317Y-126200000D01*
X73714956Y-126356762D01*
X73775464Y-126502842D01*
X73786899Y-126517744D01*
X73871718Y-126628282D01*
X73953455Y-126691001D01*
X73997157Y-126724535D01*
X73997158Y-126724535D01*
X73997159Y-126724536D01*
X74143238Y-126785044D01*
X74300000Y-126805682D01*
X74456762Y-126785044D01*
X74602841Y-126724536D01*
X74728282Y-126628282D01*
X74824536Y-126502841D01*
X74885044Y-126356762D01*
X74905682Y-126200000D01*
X74885044Y-126043238D01*
X74874500Y-126017783D01*
X77012101Y-126017783D01*
X77032740Y-126174546D01*
X77093248Y-126320626D01*
X77135327Y-126375464D01*
X77189502Y-126446066D01*
X77263493Y-126502841D01*
X77314941Y-126542319D01*
X77314942Y-126542319D01*
X77314943Y-126542320D01*
X77461022Y-126602828D01*
X77617784Y-126623466D01*
X77774546Y-126602828D01*
X77920625Y-126542320D01*
X78046066Y-126446066D01*
X78142320Y-126320625D01*
X78202828Y-126174546D01*
X78223466Y-126017784D01*
X78202828Y-125861022D01*
X78142320Y-125714943D01*
X78142319Y-125714942D01*
X78142319Y-125714941D01*
X78054121Y-125600000D01*
X78046066Y-125589502D01*
X77954367Y-125519139D01*
X77920626Y-125493248D01*
X77839059Y-125459462D01*
X80742316Y-125459462D01*
X80762955Y-125616224D01*
X80823463Y-125762304D01*
X80830687Y-125771718D01*
X80919717Y-125887744D01*
X80978136Y-125932570D01*
X81045156Y-125983997D01*
X81045157Y-125983997D01*
X81045158Y-125983998D01*
X81191237Y-126044506D01*
X81347999Y-126065144D01*
X81504761Y-126044506D01*
X81628605Y-125993208D01*
X83601108Y-125993208D01*
X83621747Y-126149971D01*
X83682255Y-126296051D01*
X83704112Y-126324535D01*
X83778509Y-126421491D01*
X83855882Y-126480861D01*
X83903948Y-126517744D01*
X83903949Y-126517744D01*
X83903950Y-126517745D01*
X84050029Y-126578253D01*
X84206791Y-126598891D01*
X84363553Y-126578253D01*
X84509632Y-126517745D01*
X84635073Y-126421491D01*
X84731327Y-126296050D01*
X84791835Y-126149971D01*
X84811579Y-125999999D01*
X86144749Y-125999999D01*
X86163670Y-126143710D01*
X86219137Y-126277622D01*
X86219138Y-126277624D01*
X86219139Y-126277625D01*
X86307379Y-126392621D01*
X86422375Y-126480861D01*
X86556291Y-126536330D01*
X86700000Y-126555250D01*
X86843709Y-126536330D01*
X86977625Y-126480861D01*
X87092621Y-126392621D01*
X87180861Y-126277625D01*
X87236330Y-126143709D01*
X87255250Y-126000000D01*
X87236330Y-125856291D01*
X87197400Y-125762304D01*
X87180862Y-125722377D01*
X87180861Y-125722376D01*
X87180861Y-125722375D01*
X87092621Y-125607379D01*
X86977625Y-125519139D01*
X86977624Y-125519138D01*
X86977622Y-125519137D01*
X86843710Y-125463670D01*
X86700000Y-125444749D01*
X86556289Y-125463670D01*
X86422377Y-125519137D01*
X86307379Y-125607379D01*
X86219137Y-125722377D01*
X86163670Y-125856289D01*
X86144749Y-125999999D01*
X84811579Y-125999999D01*
X84812473Y-125993209D01*
X84791835Y-125836447D01*
X84731327Y-125690368D01*
X84731326Y-125690367D01*
X84731326Y-125690366D01*
X84661985Y-125600000D01*
X84635073Y-125564927D01*
X84546756Y-125497159D01*
X84509633Y-125468673D01*
X84363553Y-125408165D01*
X84206791Y-125387526D01*
X84050028Y-125408165D01*
X83903948Y-125468673D01*
X83778509Y-125564927D01*
X83682255Y-125690366D01*
X83621747Y-125836446D01*
X83601108Y-125993208D01*
X81628605Y-125993208D01*
X81650840Y-125983998D01*
X81776281Y-125887744D01*
X81872535Y-125762303D01*
X81933043Y-125616224D01*
X81953681Y-125459462D01*
X81944228Y-125387661D01*
X81949228Y-125349686D01*
X81972546Y-125319296D01*
X82007935Y-125304637D01*
X82156762Y-125285044D01*
X82302841Y-125224536D01*
X82334817Y-125200000D01*
X87544749Y-125200000D01*
X87563670Y-125343710D01*
X87619137Y-125477622D01*
X87619138Y-125477624D01*
X87619139Y-125477625D01*
X87707379Y-125592621D01*
X87822375Y-125680861D01*
X87822376Y-125680861D01*
X87822377Y-125680862D01*
X87889332Y-125708595D01*
X87956291Y-125736330D01*
X88100000Y-125755250D01*
X88243709Y-125736330D01*
X88377625Y-125680861D01*
X88483006Y-125599999D01*
X94194317Y-125599999D01*
X94214956Y-125756762D01*
X94275464Y-125902842D01*
X94309233Y-125946850D01*
X94371718Y-126028282D01*
X94419758Y-126065144D01*
X94497157Y-126124535D01*
X94497158Y-126124535D01*
X94497159Y-126124536D01*
X94643238Y-126185044D01*
X94800000Y-126205682D01*
X94956762Y-126185044D01*
X95102841Y-126124536D01*
X95228282Y-126028282D01*
X95324536Y-125902841D01*
X95385044Y-125756762D01*
X95405682Y-125600000D01*
X95385044Y-125443238D01*
X95324536Y-125297159D01*
X95324535Y-125297158D01*
X95324535Y-125297157D01*
X95269283Y-125225152D01*
X95228282Y-125171718D01*
X95153172Y-125114084D01*
X95102842Y-125075464D01*
X94956762Y-125014956D01*
X94800000Y-124994317D01*
X94643237Y-125014956D01*
X94497157Y-125075464D01*
X94371718Y-125171718D01*
X94275464Y-125297157D01*
X94214956Y-125443237D01*
X94194317Y-125599999D01*
X88483006Y-125599999D01*
X88492621Y-125592621D01*
X88580861Y-125477625D01*
X88636330Y-125343709D01*
X88655250Y-125200000D01*
X88636330Y-125056291D01*
X88585232Y-124932928D01*
X88580862Y-124922377D01*
X88580861Y-124922376D01*
X88580861Y-124922375D01*
X88492621Y-124807379D01*
X88377625Y-124719139D01*
X88377624Y-124719138D01*
X88377622Y-124719137D01*
X88243710Y-124663670D01*
X88100000Y-124644749D01*
X87956289Y-124663670D01*
X87822377Y-124719137D01*
X87707379Y-124807379D01*
X87619137Y-124922377D01*
X87563670Y-125056289D01*
X87544749Y-125200000D01*
X82334817Y-125200000D01*
X82428282Y-125128282D01*
X82524536Y-125002841D01*
X82585044Y-124856762D01*
X82605682Y-124700000D01*
X82585044Y-124543238D01*
X82524536Y-124397159D01*
X82524535Y-124397158D01*
X82524535Y-124397157D01*
X82507533Y-124375000D01*
X93619317Y-124375000D01*
X93639956Y-124531762D01*
X93700464Y-124677842D01*
X93717467Y-124700000D01*
X93796718Y-124803282D01*
X93863889Y-124854824D01*
X93922157Y-124899535D01*
X93922158Y-124899535D01*
X93922159Y-124899536D01*
X94068238Y-124960044D01*
X94225000Y-124980682D01*
X94381762Y-124960044D01*
X94526723Y-124899999D01*
X103894317Y-124899999D01*
X103914956Y-125056762D01*
X103975464Y-125202842D01*
X104021576Y-125262935D01*
X104071718Y-125328282D01*
X104148928Y-125387527D01*
X104197157Y-125424535D01*
X104197158Y-125424535D01*
X104197159Y-125424536D01*
X104343238Y-125485044D01*
X104500000Y-125505682D01*
X104656762Y-125485044D01*
X104802841Y-125424536D01*
X104928282Y-125328282D01*
X105024536Y-125202841D01*
X105042641Y-125159129D01*
X105065957Y-125128744D01*
X105101346Y-125114084D01*
X105139323Y-125119083D01*
X105213614Y-125149856D01*
X105370376Y-125170494D01*
X105527138Y-125149856D01*
X105673217Y-125089348D01*
X105798658Y-124993094D01*
X105894912Y-124867653D01*
X105955420Y-124721574D01*
X105976058Y-124564812D01*
X105955420Y-124408050D01*
X105894912Y-124261971D01*
X105894911Y-124261970D01*
X105894911Y-124261969D01*
X105851720Y-124205682D01*
X105798658Y-124136530D01*
X105714768Y-124072159D01*
X105673218Y-124040276D01*
X105527138Y-123979768D01*
X105370376Y-123959129D01*
X105213613Y-123979768D01*
X105067533Y-124040276D01*
X104942094Y-124136530D01*
X104845841Y-124261969D01*
X104827735Y-124305679D01*
X104804416Y-124336067D01*
X104769027Y-124350726D01*
X104731050Y-124345726D01*
X104656763Y-124314956D01*
X104500000Y-124294317D01*
X104343237Y-124314956D01*
X104197157Y-124375464D01*
X104071718Y-124471718D01*
X103975464Y-124597157D01*
X103914956Y-124743237D01*
X103894317Y-124899999D01*
X94526723Y-124899999D01*
X94527841Y-124899536D01*
X94653282Y-124803282D01*
X94749536Y-124677841D01*
X94810044Y-124531762D01*
X94830682Y-124375000D01*
X94810044Y-124218238D01*
X94782463Y-124151653D01*
X94778253Y-124108902D01*
X94798505Y-124071012D01*
X94836394Y-124050760D01*
X94879149Y-124054971D01*
X94987858Y-124099999D01*
X95028501Y-124116834D01*
X95185263Y-124137472D01*
X95342025Y-124116834D01*
X95488104Y-124056326D01*
X95613545Y-123960072D01*
X95709799Y-123834631D01*
X95765565Y-123700000D01*
X96994317Y-123700000D01*
X97014956Y-123856762D01*
X97075464Y-124002842D01*
X97116504Y-124056326D01*
X97171718Y-124128282D01*
X97233207Y-124175464D01*
X97297157Y-124224535D01*
X97297158Y-124224535D01*
X97297159Y-124224536D01*
X97443238Y-124285044D01*
X97600000Y-124305682D01*
X97756762Y-124285044D01*
X97902841Y-124224536D01*
X98028282Y-124128282D01*
X98124536Y-124002841D01*
X98185044Y-123856762D01*
X98205682Y-123700000D01*
X98185044Y-123543238D01*
X98124536Y-123397159D01*
X98124535Y-123397158D01*
X98124535Y-123397157D01*
X98081759Y-123341411D01*
X98028282Y-123271718D01*
X97928734Y-123195332D01*
X97902842Y-123175464D01*
X97756762Y-123114956D01*
X97600000Y-123094317D01*
X97443237Y-123114956D01*
X97297157Y-123175464D01*
X97171718Y-123271718D01*
X97075464Y-123397157D01*
X97014956Y-123543237D01*
X96994317Y-123700000D01*
X95765565Y-123700000D01*
X95770307Y-123688552D01*
X95790945Y-123531790D01*
X95770307Y-123375028D01*
X95709799Y-123228949D01*
X95709798Y-123228948D01*
X95709798Y-123228947D01*
X95665884Y-123171718D01*
X95613545Y-123103508D01*
X95528915Y-123038569D01*
X95488105Y-123007254D01*
X95342025Y-122946746D01*
X95185263Y-122926107D01*
X95028500Y-122946746D01*
X94882420Y-123007254D01*
X94756981Y-123103508D01*
X94660727Y-123228947D01*
X94600219Y-123375027D01*
X94579580Y-123531790D01*
X94594387Y-123644252D01*
X94600219Y-123688552D01*
X94627798Y-123755133D01*
X94632009Y-123797887D01*
X94611757Y-123835777D01*
X94573868Y-123856029D01*
X94531113Y-123851818D01*
X94381763Y-123789956D01*
X94225000Y-123769317D01*
X94068237Y-123789956D01*
X93922157Y-123850464D01*
X93796718Y-123946718D01*
X93700464Y-124072157D01*
X93639956Y-124218237D01*
X93619317Y-124375000D01*
X82507533Y-124375000D01*
X82485070Y-124345726D01*
X82428282Y-124271718D01*
X82342222Y-124205682D01*
X82302842Y-124175464D01*
X82156762Y-124114956D01*
X82000000Y-124094317D01*
X81843237Y-124114956D01*
X81697157Y-124175464D01*
X81571718Y-124271718D01*
X81475464Y-124397157D01*
X81414956Y-124543237D01*
X81394317Y-124700000D01*
X81403770Y-124771798D01*
X81398770Y-124809775D01*
X81375452Y-124840165D01*
X81340062Y-124854824D01*
X81191237Y-124874418D01*
X81045156Y-124934926D01*
X80919717Y-125031180D01*
X80823463Y-125156619D01*
X80762955Y-125302699D01*
X80742316Y-125459462D01*
X77839059Y-125459462D01*
X77774546Y-125432740D01*
X77617784Y-125412101D01*
X77461021Y-125432740D01*
X77314941Y-125493248D01*
X77189502Y-125589502D01*
X77093248Y-125714941D01*
X77032740Y-125861021D01*
X77012101Y-126017783D01*
X74874500Y-126017783D01*
X74824536Y-125897159D01*
X74824535Y-125897158D01*
X74824535Y-125897157D01*
X74749983Y-125800000D01*
X74728282Y-125771718D01*
X74634107Y-125699455D01*
X74602842Y-125675464D01*
X74456762Y-125614956D01*
X74300000Y-125594317D01*
X74143237Y-125614956D01*
X73997157Y-125675464D01*
X73871718Y-125771718D01*
X73775464Y-125897157D01*
X73714956Y-126043237D01*
X73694317Y-126200000D01*
X71949983Y-126200000D01*
X72024536Y-126102841D01*
X72085044Y-125956762D01*
X72105682Y-125800000D01*
X72085044Y-125643238D01*
X72024536Y-125497159D01*
X72024535Y-125497158D01*
X72024535Y-125497157D01*
X71984321Y-125444750D01*
X71928282Y-125371718D01*
X71838336Y-125302700D01*
X71802842Y-125275464D01*
X71656762Y-125214956D01*
X71500000Y-125194317D01*
X71343237Y-125214956D01*
X71197157Y-125275464D01*
X71071718Y-125371718D01*
X70975464Y-125497157D01*
X70914956Y-125643237D01*
X70894317Y-125800000D01*
X65635258Y-125800000D01*
X65625670Y-125787303D01*
X65473303Y-125648402D01*
X65298008Y-125539864D01*
X65105754Y-125465385D01*
X65070196Y-125458738D01*
X64903088Y-125427500D01*
X64696912Y-125427500D01*
X64604638Y-125444749D01*
X64494245Y-125465385D01*
X64301991Y-125539864D01*
X64126696Y-125648402D01*
X63974329Y-125787303D01*
X63850081Y-125951833D01*
X63758179Y-126136398D01*
X63701757Y-126334703D01*
X63682733Y-126540000D01*
X63327641Y-126540000D01*
X63307127Y-126331714D01*
X63246372Y-126131431D01*
X63147711Y-125946850D01*
X63014936Y-125785064D01*
X62853150Y-125652289D01*
X62735234Y-125589261D01*
X62706646Y-125562044D01*
X62696118Y-125524000D01*
X62706646Y-125485956D01*
X62735235Y-125458738D01*
X62853150Y-125395711D01*
X63014936Y-125262936D01*
X63147711Y-125101150D01*
X63246372Y-124916569D01*
X63307127Y-124716286D01*
X63327641Y-124508000D01*
X63307127Y-124299714D01*
X63246372Y-124099431D01*
X63243638Y-124094317D01*
X63223331Y-124056325D01*
X63193225Y-124000000D01*
X63682733Y-124000000D01*
X63701757Y-124205296D01*
X63758179Y-124403601D01*
X63850081Y-124588166D01*
X63948988Y-124719139D01*
X63974330Y-124752697D01*
X64126697Y-124891598D01*
X64301992Y-125000136D01*
X64494246Y-125074615D01*
X64696912Y-125112500D01*
X64903087Y-125112500D01*
X64903088Y-125112500D01*
X65105754Y-125074615D01*
X65298008Y-125000136D01*
X65473303Y-124891598D01*
X65625670Y-124752697D01*
X65749919Y-124588165D01*
X65841820Y-124403603D01*
X65898242Y-124205297D01*
X65908000Y-124099999D01*
X73394317Y-124099999D01*
X73414956Y-124256762D01*
X73475464Y-124402842D01*
X73506077Y-124442737D01*
X73571718Y-124528282D01*
X73619325Y-124564812D01*
X73697157Y-124624535D01*
X73697158Y-124624535D01*
X73697159Y-124624536D01*
X73843238Y-124685044D01*
X74000000Y-124705682D01*
X74156762Y-124685044D01*
X74302841Y-124624536D01*
X74428282Y-124528282D01*
X74524536Y-124402841D01*
X74585044Y-124256762D01*
X74605682Y-124100000D01*
X74585044Y-123943238D01*
X74524536Y-123797159D01*
X74524535Y-123797158D01*
X74524535Y-123797157D01*
X74490701Y-123753064D01*
X74428282Y-123671718D01*
X74361258Y-123620289D01*
X74302842Y-123575464D01*
X74156762Y-123514956D01*
X74000000Y-123494317D01*
X73843237Y-123514956D01*
X73697157Y-123575464D01*
X73571718Y-123671718D01*
X73475464Y-123797157D01*
X73414956Y-123943237D01*
X73394317Y-124099999D01*
X65908000Y-124099999D01*
X65917266Y-124000000D01*
X65898242Y-123794703D01*
X65841820Y-123596397D01*
X65749919Y-123411835D01*
X65749918Y-123411834D01*
X65749918Y-123411833D01*
X65625670Y-123247303D01*
X65473303Y-123108402D01*
X65360519Y-123038569D01*
X82675257Y-123038569D01*
X82695896Y-123195332D01*
X82756404Y-123341412D01*
X82773515Y-123363711D01*
X82852658Y-123466852D01*
X82915349Y-123514956D01*
X82978097Y-123563105D01*
X82978098Y-123563105D01*
X82978099Y-123563106D01*
X83124178Y-123623614D01*
X83280940Y-123644252D01*
X83437702Y-123623614D01*
X83494714Y-123599999D01*
X88094317Y-123599999D01*
X88114956Y-123756762D01*
X88175464Y-123902842D01*
X88209132Y-123946718D01*
X88271718Y-124028282D01*
X88328900Y-124072159D01*
X88397157Y-124124535D01*
X88397158Y-124124535D01*
X88397159Y-124124536D01*
X88543238Y-124185044D01*
X88700000Y-124205682D01*
X88856762Y-124185044D01*
X89002841Y-124124536D01*
X89128282Y-124028282D01*
X89224536Y-123902841D01*
X89285044Y-123756762D01*
X89305682Y-123600000D01*
X89285044Y-123443238D01*
X89224536Y-123297159D01*
X89224535Y-123297158D01*
X89224535Y-123297157D01*
X89173721Y-123230936D01*
X89128282Y-123171718D01*
X89039389Y-123103508D01*
X89002842Y-123075464D01*
X88856762Y-123014956D01*
X88700000Y-122994317D01*
X88543237Y-123014956D01*
X88397157Y-123075464D01*
X88271718Y-123171718D01*
X88175464Y-123297157D01*
X88114956Y-123443237D01*
X88094317Y-123599999D01*
X83494714Y-123599999D01*
X83583781Y-123563106D01*
X83709222Y-123466852D01*
X83805476Y-123341411D01*
X83865984Y-123195332D01*
X83886622Y-123038570D01*
X83865984Y-122881808D01*
X83805476Y-122735729D01*
X83805475Y-122735728D01*
X83805475Y-122735727D01*
X83771941Y-122692025D01*
X83709222Y-122610288D01*
X83646501Y-122562160D01*
X83583782Y-122514034D01*
X83437702Y-122453526D01*
X83280940Y-122432887D01*
X83124177Y-122453526D01*
X82978097Y-122514034D01*
X82852658Y-122610288D01*
X82756404Y-122735727D01*
X82695896Y-122881807D01*
X82675257Y-123038569D01*
X65360519Y-123038569D01*
X65298008Y-122999864D01*
X65105754Y-122925385D01*
X64903088Y-122887500D01*
X64696912Y-122887500D01*
X64595579Y-122906442D01*
X64494245Y-122925385D01*
X64301991Y-122999864D01*
X64126696Y-123108402D01*
X63974329Y-123247303D01*
X63850081Y-123411833D01*
X63758179Y-123596398D01*
X63701757Y-123794703D01*
X63682733Y-124000000D01*
X63193225Y-124000000D01*
X63147711Y-123914850D01*
X63014936Y-123753064D01*
X62853150Y-123620289D01*
X62746167Y-123563105D01*
X62735234Y-123557261D01*
X62706646Y-123530042D01*
X62696118Y-123491999D01*
X62706646Y-123453955D01*
X62735232Y-123426739D01*
X62853150Y-123363711D01*
X63014936Y-123230936D01*
X63147711Y-123069150D01*
X63246372Y-122884569D01*
X63307127Y-122684286D01*
X63327641Y-122476000D01*
X63307127Y-122267714D01*
X63246372Y-122067431D01*
X63147711Y-121882850D01*
X63014936Y-121721064D01*
X62989270Y-121700000D01*
X74169964Y-121700000D01*
X74188026Y-121837185D01*
X74240974Y-121965015D01*
X74240975Y-121965017D01*
X74240976Y-121965018D01*
X74325209Y-122074791D01*
X74434982Y-122159024D01*
X74434983Y-122159024D01*
X74434984Y-122159025D01*
X74562814Y-122211973D01*
X74562817Y-122211974D01*
X74700000Y-122230035D01*
X74837183Y-122211974D01*
X74965018Y-122159024D01*
X75074791Y-122074791D01*
X75159024Y-121965018D01*
X75211974Y-121837183D01*
X75216869Y-121800000D01*
X88994317Y-121800000D01*
X89014956Y-121956762D01*
X89075464Y-122102842D01*
X89118575Y-122159024D01*
X89171718Y-122228282D01*
X89223107Y-122267714D01*
X89297157Y-122324535D01*
X89297158Y-122324535D01*
X89297159Y-122324536D01*
X89443238Y-122385044D01*
X89600000Y-122405682D01*
X89756762Y-122385044D01*
X89902841Y-122324536D01*
X90028282Y-122228282D01*
X90124536Y-122102841D01*
X90185044Y-121956762D01*
X90205682Y-121800000D01*
X108494317Y-121800000D01*
X108514956Y-121956762D01*
X108575464Y-122102842D01*
X108618575Y-122159024D01*
X108671718Y-122228282D01*
X108723107Y-122267714D01*
X108797157Y-122324535D01*
X108797158Y-122324535D01*
X108797159Y-122324536D01*
X108943238Y-122385044D01*
X109100000Y-122405682D01*
X109256762Y-122385044D01*
X109402841Y-122324536D01*
X109528282Y-122228282D01*
X109624536Y-122102841D01*
X109685044Y-121956762D01*
X109705682Y-121800000D01*
X109685044Y-121643238D01*
X109624536Y-121497159D01*
X109624535Y-121497158D01*
X109624535Y-121497157D01*
X109572138Y-121428873D01*
X109528282Y-121371718D01*
X109465561Y-121323590D01*
X109402842Y-121275464D01*
X109256762Y-121214956D01*
X109100000Y-121194317D01*
X108943237Y-121214956D01*
X108797157Y-121275464D01*
X108671718Y-121371718D01*
X108575464Y-121497157D01*
X108514956Y-121643237D01*
X108494317Y-121800000D01*
X90205682Y-121800000D01*
X90185044Y-121643238D01*
X90124536Y-121497159D01*
X90124535Y-121497158D01*
X90124535Y-121497157D01*
X90072138Y-121428873D01*
X90028282Y-121371718D01*
X89965561Y-121323590D01*
X89902842Y-121275464D01*
X89756762Y-121214956D01*
X89600000Y-121194317D01*
X89443237Y-121214956D01*
X89297157Y-121275464D01*
X89171718Y-121371718D01*
X89075464Y-121497157D01*
X89014956Y-121643237D01*
X88994317Y-121800000D01*
X75216869Y-121800000D01*
X75230035Y-121700000D01*
X75211974Y-121562817D01*
X75184777Y-121497157D01*
X75159024Y-121434982D01*
X75074793Y-121325210D01*
X74965015Y-121240974D01*
X74837185Y-121188026D01*
X74700000Y-121169964D01*
X74562815Y-121188026D01*
X74434985Y-121240974D01*
X74325209Y-121325209D01*
X74240974Y-121434985D01*
X74188026Y-121562815D01*
X74169964Y-121700000D01*
X62989270Y-121700000D01*
X62853150Y-121588289D01*
X62760859Y-121538958D01*
X62668570Y-121489628D01*
X62568427Y-121459250D01*
X62468286Y-121428873D01*
X62260000Y-121408359D01*
X62051714Y-121428873D01*
X61851429Y-121489628D01*
X61666850Y-121588289D01*
X61505064Y-121721064D01*
X61372289Y-121882850D01*
X61273628Y-122067429D01*
X61224303Y-122230035D01*
X61212873Y-122267714D01*
X61192359Y-122476000D01*
X61212873Y-122684286D01*
X61228478Y-122735729D01*
X61273628Y-122884570D01*
X61295831Y-122926108D01*
X61372289Y-123069150D01*
X61505064Y-123230936D01*
X61666850Y-123363711D01*
X61784765Y-123426738D01*
X61813353Y-123453955D01*
X61823881Y-123491999D01*
X61813353Y-123530042D01*
X61784765Y-123557261D01*
X61666850Y-123620289D01*
X61505064Y-123753064D01*
X61372289Y-123914850D01*
X61273628Y-124099429D01*
X61237588Y-124218238D01*
X61212873Y-124299714D01*
X61192359Y-124508000D01*
X61212873Y-124716286D01*
X61243250Y-124816427D01*
X61273628Y-124916570D01*
X61319742Y-125002842D01*
X61372289Y-125101150D01*
X61505064Y-125262936D01*
X61666850Y-125395711D01*
X61784765Y-125458738D01*
X61813353Y-125485957D01*
X61823881Y-125524000D01*
X61813353Y-125562043D01*
X61784765Y-125589261D01*
X61736695Y-125614956D01*
X61666850Y-125652289D01*
X61505064Y-125785064D01*
X61372289Y-125946850D01*
X61273628Y-126131429D01*
X61223691Y-126296051D01*
X61212873Y-126331714D01*
X61192359Y-126540000D01*
X60030898Y-126540000D01*
X60128569Y-126510372D01*
X60313150Y-126411711D01*
X60474936Y-126278936D01*
X60607711Y-126117150D01*
X60706372Y-125932569D01*
X60767127Y-125732286D01*
X60787641Y-125524000D01*
X60767127Y-125315714D01*
X60706372Y-125115431D01*
X60607711Y-124930850D01*
X60474936Y-124769064D01*
X60313150Y-124636289D01*
X60223117Y-124588165D01*
X60195234Y-124573261D01*
X60166646Y-124546042D01*
X60156118Y-124507999D01*
X60166646Y-124469955D01*
X60195232Y-124442739D01*
X60313150Y-124379711D01*
X60474936Y-124246936D01*
X60607711Y-124085150D01*
X60706372Y-123900569D01*
X60767127Y-123700286D01*
X60787641Y-123492000D01*
X60767127Y-123283714D01*
X60706372Y-123083431D01*
X60607711Y-122898850D01*
X60474936Y-122737064D01*
X60313150Y-122604289D01*
X60195234Y-122541261D01*
X60166646Y-122514044D01*
X60156118Y-122476000D01*
X60166646Y-122437956D01*
X60195235Y-122410738D01*
X60204694Y-122405682D01*
X60313150Y-122347711D01*
X60474936Y-122214936D01*
X60607711Y-122053150D01*
X60706372Y-121868569D01*
X60767127Y-121668286D01*
X60787641Y-121460000D01*
X60767127Y-121251714D01*
X60707151Y-121053999D01*
X83090034Y-121053999D01*
X83110673Y-121210762D01*
X83171181Y-121356842D01*
X83182596Y-121371718D01*
X83267435Y-121482282D01*
X83349172Y-121545001D01*
X83392874Y-121578535D01*
X83392875Y-121578535D01*
X83392876Y-121578536D01*
X83538955Y-121639044D01*
X83695717Y-121659682D01*
X83852479Y-121639044D01*
X83998558Y-121578536D01*
X84123999Y-121482282D01*
X84220253Y-121356841D01*
X84280761Y-121210762D01*
X84301399Y-121054000D01*
X84280761Y-120897238D01*
X84220253Y-120751159D01*
X84220252Y-120751158D01*
X84220252Y-120751157D01*
X84184883Y-120705064D01*
X84123999Y-120625718D01*
X84054369Y-120572289D01*
X83998559Y-120529464D01*
X83927426Y-120500000D01*
X96094317Y-120500000D01*
X96114956Y-120656762D01*
X96175464Y-120802842D01*
X96223591Y-120865561D01*
X96271718Y-120928282D01*
X96353455Y-120991001D01*
X96397157Y-121024535D01*
X96397158Y-121024535D01*
X96397159Y-121024536D01*
X96543238Y-121085044D01*
X96700000Y-121105682D01*
X96856762Y-121085044D01*
X97002841Y-121024536D01*
X97128282Y-120928282D01*
X97224536Y-120802841D01*
X97285044Y-120656762D01*
X97305682Y-120500000D01*
X98394317Y-120500000D01*
X98414956Y-120656762D01*
X98475464Y-120802842D01*
X98523591Y-120865561D01*
X98571718Y-120928282D01*
X98653455Y-120991001D01*
X98697157Y-121024535D01*
X98697158Y-121024535D01*
X98697159Y-121024536D01*
X98843238Y-121085044D01*
X99000000Y-121105682D01*
X99156762Y-121085044D01*
X99302841Y-121024536D01*
X99428282Y-120928282D01*
X99524536Y-120802841D01*
X99585044Y-120656762D01*
X99605682Y-120500000D01*
X99585044Y-120343238D01*
X99524536Y-120197159D01*
X99524535Y-120197158D01*
X99524535Y-120197157D01*
X99491001Y-120153455D01*
X99428282Y-120071718D01*
X99362379Y-120021149D01*
X99302842Y-119975464D01*
X99156762Y-119914956D01*
X99000000Y-119894317D01*
X98843237Y-119914956D01*
X98697157Y-119975464D01*
X98571718Y-120071718D01*
X98475464Y-120197157D01*
X98414956Y-120343237D01*
X98394317Y-120500000D01*
X97305682Y-120500000D01*
X97285044Y-120343238D01*
X97224536Y-120197159D01*
X97224535Y-120197158D01*
X97224535Y-120197157D01*
X97191001Y-120153455D01*
X97128282Y-120071718D01*
X97062379Y-120021149D01*
X97002842Y-119975464D01*
X96856762Y-119914956D01*
X96700000Y-119894317D01*
X96543237Y-119914956D01*
X96397157Y-119975464D01*
X96271718Y-120071718D01*
X96175464Y-120197157D01*
X96114956Y-120343237D01*
X96094317Y-120500000D01*
X83927426Y-120500000D01*
X83852479Y-120468956D01*
X83695717Y-120448317D01*
X83538954Y-120468956D01*
X83392874Y-120529464D01*
X83267435Y-120625718D01*
X83171181Y-120751157D01*
X83110673Y-120897237D01*
X83090034Y-121053999D01*
X60707151Y-121053999D01*
X60706372Y-121051431D01*
X60607711Y-120866850D01*
X60474936Y-120705064D01*
X60313150Y-120572289D01*
X60233030Y-120529464D01*
X60195234Y-120509261D01*
X60166646Y-120482042D01*
X60156118Y-120443999D01*
X60166646Y-120405955D01*
X60195232Y-120378739D01*
X60313150Y-120315711D01*
X60474936Y-120182936D01*
X60607711Y-120021150D01*
X60706372Y-119836569D01*
X60767127Y-119636286D01*
X60787641Y-119428000D01*
X60767127Y-119219714D01*
X60706372Y-119019431D01*
X60607711Y-118834850D01*
X60474936Y-118673064D01*
X60313150Y-118540289D01*
X60195234Y-118477261D01*
X60166646Y-118450044D01*
X60156118Y-118412000D01*
X61192359Y-118412000D01*
X61212873Y-118620286D01*
X61224360Y-118658154D01*
X61273628Y-118820570D01*
X61281261Y-118834850D01*
X61372289Y-119005150D01*
X61505064Y-119166936D01*
X61666850Y-119299711D01*
X61851431Y-119398372D01*
X62051714Y-119459127D01*
X62260000Y-119479641D01*
X62468286Y-119459127D01*
X62668569Y-119398372D01*
X62853150Y-119299711D01*
X62974648Y-119200000D01*
X74169964Y-119200000D01*
X74188026Y-119337185D01*
X74240974Y-119465015D01*
X74240975Y-119465017D01*
X74240976Y-119465018D01*
X74325209Y-119574791D01*
X74434982Y-119659024D01*
X74434983Y-119659024D01*
X74434984Y-119659025D01*
X74562814Y-119711973D01*
X74562817Y-119711974D01*
X74700000Y-119730035D01*
X74837183Y-119711974D01*
X74965018Y-119659024D01*
X75041940Y-119599999D01*
X88494317Y-119599999D01*
X88514956Y-119756762D01*
X88575464Y-119902842D01*
X88584760Y-119914956D01*
X88671718Y-120028282D01*
X88728325Y-120071718D01*
X88797157Y-120124535D01*
X88797158Y-120124535D01*
X88797159Y-120124536D01*
X88943238Y-120185044D01*
X89100000Y-120205682D01*
X89256762Y-120185044D01*
X89402841Y-120124536D01*
X89528282Y-120028282D01*
X89624536Y-119902841D01*
X89685044Y-119756762D01*
X89705682Y-119600000D01*
X89685044Y-119443238D01*
X89624536Y-119297159D01*
X89624535Y-119297158D01*
X89624535Y-119297157D01*
X89571684Y-119228281D01*
X89528282Y-119171718D01*
X89511324Y-119158705D01*
X89485798Y-119122250D01*
X89485800Y-119077745D01*
X89511324Y-119041293D01*
X89528282Y-119028282D01*
X89624536Y-118902841D01*
X89667134Y-118800000D01*
X102394317Y-118800000D01*
X102414956Y-118956762D01*
X102475464Y-119102842D01*
X102518331Y-119158707D01*
X102571718Y-119228282D01*
X102653455Y-119291001D01*
X102697157Y-119324535D01*
X102697158Y-119324535D01*
X102697159Y-119324536D01*
X102843238Y-119385044D01*
X103000000Y-119405682D01*
X103156762Y-119385044D01*
X103302841Y-119324536D01*
X103428282Y-119228282D01*
X103524536Y-119102841D01*
X103585044Y-118956762D01*
X103605682Y-118800000D01*
X103585044Y-118643238D01*
X103524536Y-118497159D01*
X103524535Y-118497158D01*
X103524535Y-118497157D01*
X103459191Y-118412000D01*
X103428282Y-118371718D01*
X103331112Y-118297157D01*
X103302842Y-118275464D01*
X103156762Y-118214956D01*
X103000000Y-118194317D01*
X102843237Y-118214956D01*
X102697157Y-118275464D01*
X102571718Y-118371718D01*
X102475464Y-118497157D01*
X102414956Y-118643237D01*
X102394317Y-118800000D01*
X89667134Y-118800000D01*
X89685044Y-118756762D01*
X89705682Y-118600000D01*
X89685044Y-118443238D01*
X89624536Y-118297159D01*
X89624535Y-118297158D01*
X89624535Y-118297157D01*
X89591001Y-118253455D01*
X89528282Y-118171718D01*
X89438602Y-118102904D01*
X89402842Y-118075464D01*
X89256762Y-118014956D01*
X89100000Y-117994317D01*
X88943237Y-118014956D01*
X88797157Y-118075464D01*
X88671718Y-118171718D01*
X88575464Y-118297157D01*
X88514956Y-118443237D01*
X88494317Y-118600000D01*
X88514956Y-118756762D01*
X88575464Y-118902842D01*
X88671716Y-119028280D01*
X88671718Y-119028282D01*
X88688669Y-119041289D01*
X88688673Y-119041292D01*
X88714199Y-119077748D01*
X88714199Y-119122252D01*
X88688673Y-119158708D01*
X88671716Y-119171719D01*
X88575464Y-119297157D01*
X88514956Y-119443237D01*
X88494317Y-119599999D01*
X75041940Y-119599999D01*
X75074791Y-119574791D01*
X75159024Y-119465018D01*
X75211974Y-119337183D01*
X75230035Y-119200000D01*
X75211974Y-119062817D01*
X75159024Y-118934983D01*
X75159024Y-118934982D01*
X75074793Y-118825210D01*
X74965015Y-118740974D01*
X74837185Y-118688026D01*
X74700000Y-118669964D01*
X74562815Y-118688026D01*
X74434985Y-118740974D01*
X74325209Y-118825209D01*
X74240974Y-118934985D01*
X74188026Y-119062815D01*
X74169964Y-119200000D01*
X62974648Y-119200000D01*
X63014936Y-119166936D01*
X63147711Y-119005150D01*
X63246372Y-118820569D01*
X63307127Y-118620286D01*
X63327641Y-118412000D01*
X63307127Y-118203714D01*
X63276546Y-118102903D01*
X84311783Y-118102903D01*
X84330704Y-118246614D01*
X84386171Y-118380526D01*
X84386172Y-118380528D01*
X84386173Y-118380529D01*
X84474413Y-118495525D01*
X84589409Y-118583765D01*
X84723325Y-118639234D01*
X84867034Y-118658154D01*
X85010743Y-118639234D01*
X85144659Y-118583765D01*
X85259655Y-118495525D01*
X85347895Y-118380529D01*
X85403364Y-118246613D01*
X85422284Y-118102904D01*
X85403364Y-117959195D01*
X85347895Y-117825279D01*
X85259655Y-117710283D01*
X85144659Y-117622043D01*
X85144658Y-117622042D01*
X85144656Y-117622041D01*
X85010744Y-117566574D01*
X84867034Y-117547653D01*
X84723323Y-117566574D01*
X84589411Y-117622041D01*
X84474413Y-117710283D01*
X84386171Y-117825281D01*
X84330704Y-117959193D01*
X84311783Y-118102903D01*
X63276546Y-118102903D01*
X63246372Y-118003431D01*
X63147711Y-117818850D01*
X63014936Y-117657064D01*
X62853150Y-117524289D01*
X62735234Y-117461261D01*
X62706646Y-117434044D01*
X62696118Y-117396000D01*
X62706646Y-117357956D01*
X62735235Y-117330738D01*
X62739832Y-117328281D01*
X62853150Y-117267711D01*
X63014936Y-117134936D01*
X63147711Y-116973150D01*
X63193225Y-116887999D01*
X63682733Y-116887999D01*
X63701757Y-117093296D01*
X63758179Y-117291601D01*
X63850081Y-117476166D01*
X63960243Y-117622043D01*
X63974330Y-117640697D01*
X64126697Y-117779598D01*
X64301992Y-117888136D01*
X64494246Y-117962615D01*
X64696912Y-118000500D01*
X64903087Y-118000500D01*
X64903088Y-118000500D01*
X65105754Y-117962615D01*
X65298008Y-117888136D01*
X65473303Y-117779598D01*
X65625670Y-117640697D01*
X65749919Y-117476165D01*
X65841820Y-117291603D01*
X65898242Y-117093297D01*
X65916154Y-116899999D01*
X68394317Y-116899999D01*
X68414956Y-117056762D01*
X68475464Y-117202842D01*
X68523591Y-117265561D01*
X68571718Y-117328282D01*
X68653455Y-117391001D01*
X68697157Y-117424535D01*
X68697158Y-117424535D01*
X68697159Y-117424536D01*
X68843238Y-117485044D01*
X69000000Y-117505682D01*
X69043159Y-117500000D01*
X99394317Y-117500000D01*
X99414956Y-117656762D01*
X99475464Y-117802842D01*
X99523590Y-117865561D01*
X99571718Y-117928282D01*
X99616462Y-117962615D01*
X99697157Y-118024535D01*
X99697158Y-118024535D01*
X99697159Y-118024536D01*
X99843238Y-118085044D01*
X100000000Y-118105682D01*
X100156762Y-118085044D01*
X100302841Y-118024536D01*
X100428282Y-117928282D01*
X100524536Y-117802841D01*
X100585044Y-117656762D01*
X100605682Y-117500000D01*
X100585044Y-117343238D01*
X100524536Y-117197159D01*
X100524535Y-117197158D01*
X100524535Y-117197157D01*
X100476790Y-117134935D01*
X100428282Y-117071718D01*
X100318437Y-116987431D01*
X100302842Y-116975464D01*
X100156762Y-116914956D01*
X100000000Y-116894317D01*
X99843237Y-116914956D01*
X99697157Y-116975464D01*
X99571718Y-117071718D01*
X99475464Y-117197157D01*
X99414956Y-117343237D01*
X99394317Y-117500000D01*
X69043159Y-117500000D01*
X69156762Y-117485044D01*
X69302841Y-117424536D01*
X69428282Y-117328282D01*
X69524536Y-117202841D01*
X69585044Y-117056762D01*
X69605682Y-116900000D01*
X69585044Y-116743238D01*
X69524536Y-116597159D01*
X69524535Y-116597158D01*
X69524535Y-116597157D01*
X69491001Y-116553455D01*
X69428282Y-116471718D01*
X69406495Y-116455000D01*
X103219317Y-116455000D01*
X103239956Y-116611762D01*
X103300464Y-116757842D01*
X103348591Y-116820561D01*
X103396718Y-116883282D01*
X103478455Y-116946001D01*
X103522157Y-116979535D01*
X103522158Y-116979535D01*
X103522159Y-116979536D01*
X103668238Y-117040044D01*
X103825000Y-117060682D01*
X103981762Y-117040044D01*
X104127841Y-116979536D01*
X104253282Y-116883282D01*
X104349536Y-116757841D01*
X104410044Y-116611762D01*
X104430682Y-116455000D01*
X104410044Y-116298238D01*
X104349536Y-116152159D01*
X104349535Y-116152158D01*
X104349535Y-116152157D01*
X104308773Y-116099035D01*
X104253282Y-116026718D01*
X104190561Y-115978590D01*
X104127842Y-115930464D01*
X103981762Y-115869956D01*
X103825000Y-115849317D01*
X103668237Y-115869956D01*
X103522157Y-115930464D01*
X103396718Y-116026718D01*
X103300464Y-116152157D01*
X103239956Y-116298237D01*
X103219317Y-116455000D01*
X69406495Y-116455000D01*
X69365561Y-116423590D01*
X69302842Y-116375464D01*
X69156762Y-116314956D01*
X69000000Y-116294317D01*
X68843237Y-116314956D01*
X68697157Y-116375464D01*
X68571718Y-116471718D01*
X68475464Y-116597157D01*
X68414956Y-116743237D01*
X68394317Y-116899999D01*
X65916154Y-116899999D01*
X65917266Y-116888000D01*
X65898242Y-116682703D01*
X65841820Y-116484397D01*
X65749919Y-116299835D01*
X65749918Y-116299834D01*
X65749918Y-116299833D01*
X65625670Y-116135303D01*
X65473303Y-115996402D01*
X65298008Y-115887864D01*
X65105754Y-115813385D01*
X65019466Y-115797255D01*
X64903088Y-115775500D01*
X64696912Y-115775500D01*
X64595578Y-115794442D01*
X64494245Y-115813385D01*
X64301991Y-115887864D01*
X64126696Y-115996402D01*
X63974329Y-116135303D01*
X63850081Y-116299833D01*
X63758179Y-116484398D01*
X63701757Y-116682703D01*
X63682733Y-116887999D01*
X63193225Y-116887999D01*
X63246372Y-116788569D01*
X63307127Y-116588286D01*
X63327641Y-116380000D01*
X63307127Y-116171714D01*
X63246372Y-115971431D01*
X63147711Y-115786850D01*
X63014936Y-115625064D01*
X62953324Y-115574500D01*
X72494317Y-115574500D01*
X72514956Y-115731262D01*
X72575464Y-115877342D01*
X72623591Y-115940061D01*
X72671718Y-116002782D01*
X72752858Y-116065043D01*
X72797157Y-116099035D01*
X72797158Y-116099035D01*
X72797159Y-116099036D01*
X72943238Y-116159544D01*
X73100000Y-116180182D01*
X73256762Y-116159544D01*
X73402841Y-116099036D01*
X73528282Y-116002782D01*
X73624536Y-115877341D01*
X73685044Y-115731262D01*
X73705682Y-115574500D01*
X73693241Y-115480000D01*
X79874317Y-115480000D01*
X79894956Y-115636762D01*
X79955464Y-115782842D01*
X79966524Y-115797255D01*
X80051718Y-115908282D01*
X80112696Y-115955072D01*
X80177157Y-116004535D01*
X80177158Y-116004535D01*
X80177159Y-116004536D01*
X80323238Y-116065044D01*
X80480000Y-116085682D01*
X80636762Y-116065044D01*
X80782841Y-116004536D01*
X80908282Y-115908282D01*
X81004536Y-115782841D01*
X81065044Y-115636762D01*
X81069884Y-115600000D01*
X84194317Y-115600000D01*
X84214956Y-115756762D01*
X84275464Y-115902842D01*
X84315542Y-115955072D01*
X84371718Y-116028282D01*
X84446523Y-116085682D01*
X84497157Y-116124535D01*
X84497158Y-116124535D01*
X84497159Y-116124536D01*
X84643238Y-116185044D01*
X84800000Y-116205682D01*
X84956762Y-116185044D01*
X85102841Y-116124536D01*
X85228282Y-116028282D01*
X85324536Y-115902841D01*
X85385044Y-115756762D01*
X85405682Y-115600000D01*
X85385044Y-115443238D01*
X85324536Y-115297159D01*
X85324535Y-115297158D01*
X85324535Y-115297157D01*
X85277385Y-115235711D01*
X85228282Y-115171718D01*
X85165561Y-115123591D01*
X85102842Y-115075464D01*
X84956762Y-115014956D01*
X84800000Y-114994317D01*
X84643237Y-115014956D01*
X84497157Y-115075464D01*
X84371718Y-115171718D01*
X84275464Y-115297157D01*
X84214956Y-115443237D01*
X84194317Y-115600000D01*
X81069884Y-115600000D01*
X81085682Y-115480000D01*
X81065044Y-115323238D01*
X81004536Y-115177159D01*
X81004535Y-115177158D01*
X81004535Y-115177157D01*
X80971001Y-115133455D01*
X80908282Y-115051718D01*
X80833477Y-114994318D01*
X80782842Y-114955464D01*
X80636762Y-114894956D01*
X80480000Y-114874317D01*
X80323237Y-114894956D01*
X80177157Y-114955464D01*
X80051718Y-115051718D01*
X79955464Y-115177157D01*
X79894956Y-115323237D01*
X79874317Y-115480000D01*
X73693241Y-115480000D01*
X73685044Y-115417738D01*
X73624536Y-115271659D01*
X73624535Y-115271658D01*
X73624535Y-115271657D01*
X73591001Y-115227955D01*
X73528282Y-115146218D01*
X73465561Y-115098090D01*
X73402842Y-115049964D01*
X73256762Y-114989456D01*
X73100000Y-114968817D01*
X72943237Y-114989456D01*
X72797157Y-115049964D01*
X72671718Y-115146218D01*
X72575464Y-115271657D01*
X72514956Y-115417737D01*
X72494317Y-115574500D01*
X62953324Y-115574500D01*
X62853150Y-115492289D01*
X62735234Y-115429261D01*
X62706646Y-115402044D01*
X62696118Y-115364000D01*
X62706646Y-115325956D01*
X62735235Y-115298738D01*
X62853150Y-115235711D01*
X63014936Y-115102936D01*
X63147711Y-114941150D01*
X63246372Y-114756569D01*
X63307127Y-114556286D01*
X63327641Y-114348000D01*
X63682733Y-114348000D01*
X63701757Y-114553296D01*
X63758179Y-114751601D01*
X63850081Y-114936166D01*
X63955275Y-115075464D01*
X63974330Y-115100697D01*
X64126697Y-115239598D01*
X64301992Y-115348136D01*
X64494246Y-115422615D01*
X64696912Y-115460500D01*
X64903087Y-115460500D01*
X64903088Y-115460500D01*
X65105754Y-115422615D01*
X65298008Y-115348136D01*
X65473303Y-115239598D01*
X65625670Y-115100697D01*
X65749919Y-114936165D01*
X65841820Y-114751603D01*
X65898242Y-114553297D01*
X65917266Y-114348000D01*
X65907607Y-114243766D01*
X82338084Y-114243766D01*
X82358723Y-114400529D01*
X82419231Y-114546609D01*
X82426656Y-114556285D01*
X82515485Y-114672049D01*
X82553705Y-114701376D01*
X82640924Y-114768302D01*
X82640925Y-114768302D01*
X82640926Y-114768303D01*
X82787005Y-114828811D01*
X82943767Y-114849449D01*
X83100529Y-114828811D01*
X83246608Y-114768303D01*
X83372049Y-114672049D01*
X83468303Y-114546608D01*
X83528811Y-114400529D01*
X83549449Y-114243767D01*
X83528811Y-114087005D01*
X83468303Y-113940926D01*
X83468302Y-113940925D01*
X83468302Y-113940924D01*
X83427891Y-113888260D01*
X83372049Y-113815485D01*
X83289731Y-113752320D01*
X83246609Y-113719231D01*
X83100529Y-113658723D01*
X82943767Y-113638084D01*
X82787004Y-113658723D01*
X82640924Y-113719231D01*
X82515485Y-113815485D01*
X82419231Y-113940924D01*
X82358723Y-114087004D01*
X82338084Y-114243766D01*
X65907607Y-114243766D01*
X65898242Y-114142703D01*
X65841820Y-113944397D01*
X65749919Y-113759835D01*
X65749918Y-113759834D01*
X65749918Y-113759833D01*
X65625670Y-113595303D01*
X65473303Y-113456402D01*
X65298008Y-113347864D01*
X65105754Y-113273385D01*
X64955791Y-113245352D01*
X64903088Y-113235500D01*
X64696912Y-113235500D01*
X64644209Y-113245352D01*
X64494245Y-113273385D01*
X64301991Y-113347864D01*
X64126696Y-113456402D01*
X63974329Y-113595303D01*
X63850081Y-113759833D01*
X63758179Y-113944398D01*
X63701757Y-114142703D01*
X63682733Y-114348000D01*
X63327641Y-114348000D01*
X63307127Y-114139714D01*
X63246372Y-113939431D01*
X63147711Y-113754850D01*
X63014936Y-113593064D01*
X62853150Y-113460289D01*
X62730749Y-113394864D01*
X62668570Y-113361628D01*
X62558638Y-113328281D01*
X62468286Y-113300873D01*
X62260000Y-113280359D01*
X62051714Y-113300873D01*
X61851429Y-113361628D01*
X61666850Y-113460289D01*
X61505064Y-113593064D01*
X61372289Y-113754850D01*
X61273628Y-113939429D01*
X61212873Y-114139714D01*
X61192359Y-114348000D01*
X61212873Y-114556285D01*
X61273628Y-114756570D01*
X61312242Y-114828810D01*
X61372289Y-114941150D01*
X61505064Y-115102936D01*
X61666850Y-115235711D01*
X61784765Y-115298738D01*
X61813353Y-115325957D01*
X61823881Y-115364000D01*
X61813353Y-115402043D01*
X61784765Y-115429261D01*
X61758618Y-115443238D01*
X61666850Y-115492289D01*
X61505064Y-115625064D01*
X61372289Y-115786850D01*
X61273628Y-115971429D01*
X61218805Y-116152159D01*
X61212873Y-116171714D01*
X61192359Y-116380000D01*
X61212873Y-116588286D01*
X61228883Y-116641064D01*
X61273628Y-116788570D01*
X61281261Y-116802850D01*
X61372289Y-116973150D01*
X61505064Y-117134936D01*
X61666850Y-117267711D01*
X61780168Y-117328281D01*
X61784765Y-117330738D01*
X61813353Y-117357957D01*
X61823881Y-117396000D01*
X61813353Y-117434043D01*
X61784765Y-117461261D01*
X61740274Y-117485043D01*
X61666850Y-117524289D01*
X61505064Y-117657064D01*
X61372289Y-117818850D01*
X61273628Y-118003429D01*
X61228883Y-118150935D01*
X61212873Y-118203714D01*
X61192359Y-118412000D01*
X60156118Y-118412000D01*
X60166646Y-118373956D01*
X60195235Y-118346738D01*
X60313150Y-118283711D01*
X60474936Y-118150936D01*
X60607711Y-117989150D01*
X60706372Y-117804569D01*
X60767127Y-117604286D01*
X60787641Y-117396000D01*
X60767127Y-117187714D01*
X60706372Y-116987431D01*
X60702151Y-116979535D01*
X60659638Y-116899999D01*
X60607711Y-116802850D01*
X60474936Y-116641064D01*
X60313150Y-116508289D01*
X60195234Y-116445261D01*
X60166646Y-116418044D01*
X60156118Y-116380000D01*
X60166646Y-116341956D01*
X60195235Y-116314738D01*
X60313150Y-116251711D01*
X60474936Y-116118936D01*
X60607711Y-115957150D01*
X60706372Y-115772569D01*
X60767127Y-115572286D01*
X60787641Y-115364000D01*
X60767127Y-115155714D01*
X60706372Y-114955431D01*
X60607711Y-114770850D01*
X60474936Y-114609064D01*
X60313150Y-114476289D01*
X60171414Y-114400529D01*
X60128570Y-114377628D01*
X60028427Y-114347250D01*
X59928286Y-114316873D01*
X59720000Y-114296359D01*
X59511714Y-114316873D01*
X59311429Y-114377628D01*
X59126850Y-114476289D01*
X58965064Y-114609064D01*
X58832289Y-114770850D01*
X58733628Y-114955429D01*
X58672873Y-115155714D01*
X58652359Y-115364000D01*
X58672873Y-115572285D01*
X58733628Y-115772570D01*
X58774651Y-115849317D01*
X58832289Y-115957150D01*
X58965064Y-116118936D01*
X59126850Y-116251711D01*
X59244765Y-116314738D01*
X59273353Y-116341957D01*
X59283881Y-116380000D01*
X59273353Y-116418043D01*
X59244765Y-116445261D01*
X59195269Y-116471718D01*
X59126850Y-116508289D01*
X58965064Y-116641064D01*
X58832289Y-116802850D01*
X58733628Y-116987429D01*
X58708060Y-117071718D01*
X58672873Y-117187714D01*
X58652359Y-117396000D01*
X58672873Y-117604286D01*
X58688883Y-117657064D01*
X58733628Y-117804570D01*
X58778295Y-117888135D01*
X58832289Y-117989150D01*
X58965064Y-118150936D01*
X59126850Y-118283711D01*
X59244765Y-118346738D01*
X59273353Y-118373957D01*
X59283881Y-118412000D01*
X59273353Y-118450043D01*
X59244765Y-118477262D01*
X59126850Y-118540289D01*
X58965064Y-118673064D01*
X58832289Y-118834850D01*
X58733628Y-119019429D01*
X58691379Y-119158707D01*
X58672873Y-119219714D01*
X58652359Y-119428000D01*
X58672873Y-119636286D01*
X58679771Y-119659025D01*
X58733628Y-119836570D01*
X58769051Y-119902841D01*
X58832289Y-120021150D01*
X58965064Y-120182936D01*
X59126850Y-120315711D01*
X59244763Y-120378737D01*
X59244765Y-120378738D01*
X59273353Y-120405957D01*
X59283881Y-120444000D01*
X59273353Y-120482043D01*
X59244765Y-120509262D01*
X59126850Y-120572289D01*
X58965064Y-120705064D01*
X58832289Y-120866850D01*
X58733628Y-121051429D01*
X58684023Y-121214956D01*
X58672873Y-121251714D01*
X58652359Y-121460000D01*
X58672873Y-121668286D01*
X58688883Y-121721064D01*
X58733628Y-121868570D01*
X58741261Y-121882850D01*
X58832289Y-122053150D01*
X58965064Y-122214936D01*
X59126850Y-122347711D01*
X59235306Y-122405682D01*
X59244765Y-122410738D01*
X59273353Y-122437957D01*
X59283881Y-122476000D01*
X59273353Y-122514043D01*
X59244765Y-122541262D01*
X59126850Y-122604289D01*
X58965064Y-122737064D01*
X58832289Y-122898850D01*
X58733628Y-123083429D01*
X58672873Y-123283714D01*
X58657162Y-123443238D01*
X58652359Y-123492000D01*
X58657405Y-123543238D01*
X58672873Y-123700285D01*
X58733628Y-123900570D01*
X58765433Y-123960072D01*
X58832289Y-124085150D01*
X58965064Y-124246936D01*
X59126850Y-124379711D01*
X59244765Y-124442738D01*
X59273353Y-124469955D01*
X59283881Y-124507999D01*
X59273353Y-124546042D01*
X59244765Y-124573261D01*
X59126850Y-124636289D01*
X58965064Y-124769064D01*
X58832289Y-124930850D01*
X58733628Y-125115429D01*
X58688883Y-125262935D01*
X58672873Y-125315714D01*
X58652359Y-125524000D01*
X57966952Y-125524000D01*
X57927129Y-112899999D01*
X68394317Y-112899999D01*
X68414956Y-113056762D01*
X68475464Y-113202842D01*
X68500524Y-113235500D01*
X68571718Y-113328282D01*
X68653455Y-113391001D01*
X68697157Y-113424535D01*
X68697158Y-113424535D01*
X68697159Y-113424536D01*
X68843238Y-113485044D01*
X69000000Y-113505682D01*
X69156762Y-113485044D01*
X69302841Y-113424536D01*
X69428282Y-113328282D01*
X69524536Y-113202841D01*
X69583703Y-113060000D01*
X76784964Y-113060000D01*
X76803026Y-113197185D01*
X76855974Y-113325015D01*
X76855975Y-113325017D01*
X76855976Y-113325018D01*
X76940209Y-113434791D01*
X77049982Y-113519024D01*
X77049983Y-113519024D01*
X77049984Y-113519025D01*
X77177814Y-113571973D01*
X77177817Y-113571974D01*
X77315000Y-113590035D01*
X77452183Y-113571974D01*
X77580018Y-113519024D01*
X77689791Y-113434791D01*
X77774024Y-113325018D01*
X77826974Y-113197183D01*
X77845035Y-113060000D01*
X77837135Y-112999999D01*
X79094317Y-112999999D01*
X79114956Y-113156762D01*
X79175464Y-113302842D01*
X79210011Y-113347864D01*
X79271718Y-113428282D01*
X79314635Y-113461213D01*
X79397157Y-113524535D01*
X79397158Y-113524535D01*
X79397159Y-113524536D01*
X79543238Y-113585044D01*
X79700000Y-113605682D01*
X79856762Y-113585044D01*
X80002841Y-113524536D01*
X80128282Y-113428282D01*
X80224536Y-113302841D01*
X80285044Y-113156762D01*
X80305682Y-113000000D01*
X80285044Y-112843238D01*
X80225713Y-112700000D01*
X96562723Y-112700000D01*
X96564287Y-112717884D01*
X96620897Y-112929157D01*
X96713333Y-113127389D01*
X96838786Y-113306553D01*
X96993446Y-113461213D01*
X97172610Y-113586666D01*
X97370842Y-113679102D01*
X97582115Y-113735712D01*
X97600000Y-113737277D01*
X97600000Y-112700000D01*
X96562723Y-112700000D01*
X80225713Y-112700000D01*
X80224536Y-112697159D01*
X80224535Y-112697158D01*
X80224535Y-112697157D01*
X80191001Y-112653455D01*
X80128282Y-112571718D01*
X80065561Y-112523590D01*
X80002842Y-112475464D01*
X79856762Y-112414956D01*
X79700000Y-112394317D01*
X79543237Y-112414956D01*
X79397157Y-112475464D01*
X79271718Y-112571718D01*
X79175464Y-112697157D01*
X79114956Y-112843237D01*
X79094317Y-112999999D01*
X77837135Y-112999999D01*
X77826974Y-112922817D01*
X77794011Y-112843237D01*
X77774024Y-112794982D01*
X77689793Y-112685210D01*
X77580015Y-112600974D01*
X77452185Y-112548026D01*
X77315000Y-112529964D01*
X77177815Y-112548026D01*
X77049985Y-112600974D01*
X76940209Y-112685209D01*
X76855974Y-112794985D01*
X76803026Y-112922815D01*
X76784964Y-113060000D01*
X69583703Y-113060000D01*
X69585044Y-113056762D01*
X69605682Y-112900000D01*
X69585044Y-112743238D01*
X69524536Y-112597159D01*
X69524535Y-112597158D01*
X69524535Y-112597157D01*
X69486835Y-112548026D01*
X69428282Y-112471718D01*
X69337515Y-112402070D01*
X69302842Y-112375464D01*
X69156762Y-112314956D01*
X69043165Y-112300000D01*
X96562723Y-112300000D01*
X97600000Y-112300000D01*
X97600000Y-111262722D01*
X97999999Y-111262722D01*
X98000000Y-111262723D01*
X98000000Y-113737277D01*
X98017884Y-113735712D01*
X98229157Y-113679102D01*
X98427389Y-113586666D01*
X98606553Y-113461213D01*
X98761213Y-113306553D01*
X98886666Y-113127389D01*
X98979102Y-112929157D01*
X99035712Y-112717884D01*
X99046207Y-112597929D01*
X99062368Y-112557868D01*
X99098144Y-112533656D01*
X99141342Y-112533545D01*
X99177242Y-112557572D01*
X99193609Y-112597550D01*
X99204243Y-112712308D01*
X99262594Y-112917389D01*
X99357632Y-113108254D01*
X99429063Y-113202842D01*
X99486128Y-113278407D01*
X99643698Y-113422052D01*
X99824981Y-113534298D01*
X100023802Y-113611321D01*
X100233390Y-113650500D01*
X100446609Y-113650500D01*
X100446610Y-113650500D01*
X100656198Y-113611321D01*
X100855019Y-113534298D01*
X101036302Y-113422052D01*
X101066125Y-113394865D01*
X101729500Y-113394865D01*
X101732414Y-113419989D01*
X101732415Y-113419991D01*
X101777794Y-113522765D01*
X101857235Y-113602206D01*
X101960009Y-113647585D01*
X101985135Y-113650500D01*
X102114676Y-113650499D01*
X102153752Y-113661658D01*
X102181043Y-113691769D01*
X102188319Y-113731752D01*
X102173383Y-113769547D01*
X102075464Y-113897157D01*
X102014956Y-114043237D01*
X101994317Y-114199999D01*
X102014956Y-114356762D01*
X102075464Y-114502842D01*
X102109048Y-114546609D01*
X102171718Y-114628282D01*
X102253455Y-114691001D01*
X102297157Y-114724535D01*
X102297158Y-114724535D01*
X102297159Y-114724536D01*
X102443238Y-114785044D01*
X102600000Y-114805682D01*
X102756762Y-114785044D01*
X102902841Y-114724536D01*
X103028282Y-114628282D01*
X103124536Y-114502841D01*
X103185044Y-114356762D01*
X103205682Y-114200000D01*
X103185044Y-114043238D01*
X103124536Y-113897159D01*
X103124535Y-113897158D01*
X103124535Y-113897157D01*
X103026616Y-113769547D01*
X103011680Y-113731752D01*
X103018955Y-113691770D01*
X103046247Y-113661658D01*
X103085324Y-113650499D01*
X103774866Y-113650499D01*
X103787427Y-113649041D01*
X103799991Y-113647585D01*
X103902765Y-113602206D01*
X103982206Y-113522765D01*
X104027585Y-113419991D01*
X104030500Y-113394865D01*
X104030499Y-111605136D01*
X104027585Y-111580009D01*
X103982206Y-111477235D01*
X103902765Y-111397794D01*
X103857384Y-111377756D01*
X103799990Y-111352414D01*
X103774865Y-111349500D01*
X101985134Y-111349500D01*
X101960010Y-111352414D01*
X101857235Y-111397794D01*
X101777794Y-111477235D01*
X101732414Y-111580009D01*
X101729500Y-111605134D01*
X101729500Y-113394865D01*
X101066125Y-113394865D01*
X101193872Y-113278407D01*
X101322366Y-113108255D01*
X101322365Y-113108255D01*
X101322367Y-113108254D01*
X101417405Y-112917389D01*
X101439365Y-112840210D01*
X101475756Y-112712310D01*
X101495429Y-112500000D01*
X101475756Y-112287690D01*
X101417405Y-112082611D01*
X101411545Y-112070842D01*
X101322367Y-111891745D01*
X101193874Y-111721596D01*
X101193872Y-111721593D01*
X101036302Y-111577948D01*
X100855019Y-111465702D01*
X100656198Y-111388679D01*
X100446610Y-111349500D01*
X100233390Y-111349500D01*
X100128595Y-111369089D01*
X100023801Y-111388679D01*
X99824980Y-111465702D01*
X99643701Y-111577946D01*
X99643698Y-111577948D01*
X99517004Y-111693446D01*
X99486125Y-111721596D01*
X99357632Y-111891745D01*
X99262594Y-112082610D01*
X99204243Y-112287691D01*
X99193609Y-112402449D01*
X99177242Y-112442427D01*
X99141342Y-112466454D01*
X99098144Y-112466343D01*
X99062368Y-112442131D01*
X99046207Y-112402070D01*
X99035712Y-112282115D01*
X98979102Y-112070842D01*
X98886666Y-111872611D01*
X98761213Y-111693446D01*
X98606553Y-111538786D01*
X98427389Y-111413333D01*
X98229157Y-111320897D01*
X98017884Y-111264287D01*
X97999999Y-111262722D01*
X97600000Y-111262722D01*
X97582115Y-111264287D01*
X97370842Y-111320897D01*
X97172611Y-111413333D01*
X96993446Y-111538786D01*
X96838786Y-111693446D01*
X96713333Y-111872611D01*
X96620897Y-112070842D01*
X96564287Y-112282115D01*
X96562723Y-112300000D01*
X69043165Y-112300000D01*
X69000000Y-112294317D01*
X68843237Y-112314956D01*
X68697157Y-112375464D01*
X68571718Y-112471718D01*
X68475464Y-112597157D01*
X68414956Y-112743237D01*
X68394317Y-112899999D01*
X57927129Y-112899999D01*
X57914195Y-108800000D01*
X86294317Y-108800000D01*
X86314956Y-108956762D01*
X86375464Y-109102842D01*
X86423590Y-109165561D01*
X86471718Y-109228282D01*
X86553455Y-109291001D01*
X86597157Y-109324535D01*
X86597158Y-109324535D01*
X86597159Y-109324536D01*
X86743238Y-109385044D01*
X86900000Y-109405682D01*
X87056762Y-109385044D01*
X87202841Y-109324536D01*
X87328282Y-109228282D01*
X87424536Y-109102841D01*
X87485044Y-108956762D01*
X87492517Y-108900000D01*
X96562723Y-108900000D01*
X96564287Y-108917884D01*
X96620897Y-109129157D01*
X96713333Y-109327389D01*
X96838786Y-109506553D01*
X96993446Y-109661213D01*
X97172610Y-109786666D01*
X97370842Y-109879102D01*
X97582115Y-109935712D01*
X97600000Y-109937277D01*
X97600000Y-108900000D01*
X96562723Y-108900000D01*
X87492517Y-108900000D01*
X87505682Y-108800000D01*
X87485044Y-108643238D01*
X87425713Y-108500000D01*
X96562723Y-108500000D01*
X97600000Y-108500000D01*
X97600000Y-107462722D01*
X97999999Y-107462722D01*
X98000000Y-107462723D01*
X98000000Y-109937277D01*
X98017884Y-109935712D01*
X98229157Y-109879102D01*
X98427389Y-109786666D01*
X98606553Y-109661213D01*
X98761213Y-109506553D01*
X98886666Y-109327389D01*
X98979102Y-109129157D01*
X99035712Y-108917884D01*
X99046207Y-108797929D01*
X99062368Y-108757868D01*
X99098144Y-108733656D01*
X99141342Y-108733545D01*
X99177242Y-108757572D01*
X99193609Y-108797550D01*
X99204243Y-108912308D01*
X99262594Y-109117389D01*
X99357632Y-109308254D01*
X99431208Y-109405682D01*
X99486128Y-109478407D01*
X99643698Y-109622052D01*
X99824981Y-109734298D01*
X100023802Y-109811321D01*
X100233390Y-109850500D01*
X100446609Y-109850500D01*
X100446610Y-109850500D01*
X100656198Y-109811321D01*
X100855019Y-109734298D01*
X101036302Y-109622052D01*
X101066125Y-109594865D01*
X101729500Y-109594865D01*
X101732414Y-109619989D01*
X101732415Y-109619991D01*
X101777794Y-109722765D01*
X101857235Y-109802206D01*
X101960009Y-109847585D01*
X101985135Y-109850500D01*
X103774864Y-109850499D01*
X103774865Y-109850499D01*
X103783239Y-109849527D01*
X103799991Y-109847585D01*
X103902765Y-109802206D01*
X103982206Y-109722765D01*
X104027585Y-109619991D01*
X104030500Y-109594865D01*
X104030499Y-108338072D01*
X107944769Y-108338072D01*
X108147618Y-108476373D01*
X108377181Y-108586924D01*
X108620654Y-108662025D01*
X108872599Y-108700000D01*
X109127401Y-108700000D01*
X109379345Y-108662025D01*
X109622818Y-108586924D01*
X109852382Y-108476373D01*
X110055229Y-108338072D01*
X109000000Y-107282843D01*
X107944769Y-108338072D01*
X104030499Y-108338072D01*
X104030499Y-107805136D01*
X104027585Y-107780009D01*
X103982206Y-107677235D01*
X103902765Y-107597794D01*
X103857385Y-107577756D01*
X103799990Y-107552414D01*
X103774865Y-107549500D01*
X101985134Y-107549500D01*
X101960010Y-107552414D01*
X101857235Y-107597794D01*
X101777794Y-107677235D01*
X101732414Y-107780009D01*
X101729500Y-107805134D01*
X101729500Y-109594865D01*
X101066125Y-109594865D01*
X101193872Y-109478407D01*
X101322366Y-109308255D01*
X101322365Y-109308255D01*
X101322367Y-109308254D01*
X101417405Y-109117389D01*
X101475756Y-108912309D01*
X101495429Y-108700000D01*
X101475756Y-108487690D01*
X101417405Y-108282610D01*
X101322367Y-108091745D01*
X101193874Y-107921596D01*
X101193872Y-107921593D01*
X101036302Y-107777948D01*
X100855019Y-107665702D01*
X100656198Y-107588679D01*
X100446610Y-107549500D01*
X100233390Y-107549500D01*
X100128595Y-107569089D01*
X100023801Y-107588679D01*
X99824980Y-107665702D01*
X99705517Y-107739671D01*
X99643698Y-107777948D01*
X99517004Y-107893446D01*
X99486125Y-107921596D01*
X99357632Y-108091745D01*
X99262594Y-108282610D01*
X99204243Y-108487691D01*
X99193609Y-108602449D01*
X99177242Y-108642427D01*
X99141342Y-108666454D01*
X99098144Y-108666343D01*
X99062368Y-108642131D01*
X99046207Y-108602070D01*
X99035712Y-108482115D01*
X98979102Y-108270842D01*
X98886666Y-108072611D01*
X98761213Y-107893446D01*
X98606553Y-107738786D01*
X98427389Y-107613333D01*
X98229157Y-107520897D01*
X98017884Y-107464287D01*
X97999999Y-107462722D01*
X97600000Y-107462722D01*
X97582115Y-107464287D01*
X97370842Y-107520897D01*
X97172611Y-107613333D01*
X96993446Y-107738786D01*
X96838786Y-107893446D01*
X96713333Y-108072611D01*
X96620897Y-108270842D01*
X96564287Y-108482115D01*
X96562723Y-108500000D01*
X87425713Y-108500000D01*
X87424536Y-108497159D01*
X87424535Y-108497158D01*
X87424535Y-108497157D01*
X87391001Y-108453455D01*
X87328282Y-108371718D01*
X87265561Y-108323591D01*
X87202842Y-108275464D01*
X87056762Y-108214956D01*
X86900000Y-108194317D01*
X86743237Y-108214956D01*
X86597157Y-108275464D01*
X86471718Y-108371718D01*
X86375464Y-108497157D01*
X86314956Y-108643237D01*
X86294317Y-108800000D01*
X57914195Y-108800000D01*
X57908517Y-106999999D01*
X107295232Y-106999999D01*
X107314273Y-107254080D01*
X107370970Y-107502488D01*
X107464058Y-107739671D01*
X107591454Y-107960327D01*
X107664824Y-108052330D01*
X108717157Y-107000000D01*
X109282843Y-107000000D01*
X110335174Y-108052331D01*
X110335176Y-108052331D01*
X110408542Y-107960333D01*
X110535941Y-107739671D01*
X110629029Y-107502488D01*
X110685726Y-107254080D01*
X110704767Y-106999999D01*
X110685726Y-106745919D01*
X110629029Y-106497511D01*
X110535941Y-106260328D01*
X110408545Y-106039672D01*
X110335174Y-105947667D01*
X109282843Y-107000000D01*
X108717157Y-107000000D01*
X107664823Y-105947667D01*
X107664822Y-105947667D01*
X107591457Y-106039668D01*
X107464058Y-106260328D01*
X107370970Y-106497511D01*
X107314273Y-106745919D01*
X107295232Y-106999999D01*
X57908517Y-106999999D01*
X57904296Y-105661926D01*
X107944769Y-105661926D01*
X108999999Y-106717156D01*
X110055230Y-105661926D01*
X109852382Y-105523626D01*
X109622818Y-105413075D01*
X109379345Y-105337974D01*
X109127401Y-105300000D01*
X108872599Y-105300000D01*
X108620654Y-105337974D01*
X108377181Y-105413075D01*
X108147618Y-105523626D01*
X107944769Y-105661926D01*
X57904296Y-105661926D01*
X57900551Y-104474732D01*
X57910387Y-104437635D01*
X57937484Y-104410453D01*
X57974551Y-104400500D01*
X112725500Y-104400500D01*
X112762500Y-104410414D01*
G37*
%TD.AperFunction*%
M02*
