%TF.GenerationSoftware,KiCad,Pcbnew,7.0.1*%
%TF.CreationDate,2023-03-30T19:37:27+02:00*%
%TF.ProjectId,home-media-converter,686f6d65-2d6d-4656-9469-612d636f6e76,rev?*%
%TF.SameCoordinates,Original*%
%TF.FileFunction,Soldermask,Bot*%
%TF.FilePolarity,Negative*%
%FSLAX46Y46*%
G04 Gerber Fmt 4.6, Leading zero omitted, Abs format (unit mm)*
G04 Created by KiCad (PCBNEW 7.0.1) date 2023-03-30 19:37:27*
%MOMM*%
%LPD*%
G01*
G04 APERTURE LIST*
G04 Aperture macros list*
%AMRoundRect*
0 Rectangle with rounded corners*
0 $1 Rounding radius*
0 $2 $3 $4 $5 $6 $7 $8 $9 X,Y pos of 4 corners*
0 Add a 4 corners polygon primitive as box body*
4,1,4,$2,$3,$4,$5,$6,$7,$8,$9,$2,$3,0*
0 Add four circle primitives for the rounded corners*
1,1,$1+$1,$2,$3*
1,1,$1+$1,$4,$5*
1,1,$1+$1,$6,$7*
1,1,$1+$1,$8,$9*
0 Add four rect primitives between the rounded corners*
20,1,$1+$1,$2,$3,$4,$5,0*
20,1,$1+$1,$4,$5,$6,$7,0*
20,1,$1+$1,$6,$7,$8,$9,0*
20,1,$1+$1,$8,$9,$2,$3,0*%
G04 Aperture macros list end*
%ADD10RoundRect,0.250000X-0.262500X-0.450000X0.262500X-0.450000X0.262500X0.450000X-0.262500X0.450000X0*%
%ADD11RoundRect,0.250000X0.650000X-0.325000X0.650000X0.325000X-0.650000X0.325000X-0.650000X-0.325000X0*%
%ADD12C,3.800000*%
%ADD13C,2.600000*%
%ADD14RoundRect,0.250000X-0.312500X-0.625000X0.312500X-0.625000X0.312500X0.625000X-0.312500X0.625000X0*%
%ADD15C,2.082800*%
%ADD16C,1.624000*%
%ADD17C,1.524000*%
%ADD18C,3.251200*%
%ADD19R,1.700000X1.700000*%
%ADD20O,1.700000X1.700000*%
%ADD21O,0.800000X0.800000*%
%ADD22O,1.450000X2.000000*%
%ADD23O,1.150000X1.800000*%
%ADD24C,3.250000*%
%ADD25R,1.500000X1.500000*%
%ADD26C,1.500000*%
%ADD27C,2.300000*%
G04 APERTURE END LIST*
D10*
X109887500Y-144000000D03*
X111712500Y-144000000D03*
D11*
X110800000Y-136875000D03*
X110800000Y-133925000D03*
D12*
X109000000Y-155000000D03*
D13*
X109000000Y-155000000D03*
D12*
X109000000Y-107000000D03*
D13*
X109000000Y-107000000D03*
D12*
X39000000Y-107000000D03*
D13*
X39000000Y-107000000D03*
D12*
X39000000Y-155000000D03*
D13*
X39000000Y-155000000D03*
D14*
X106837500Y-139000000D03*
X109762500Y-139000000D03*
D15*
X41305000Y-112379500D03*
X41305000Y-128508500D03*
D16*
X64800000Y-114348000D03*
X64800000Y-116888000D03*
X64800000Y-124000000D03*
X64800000Y-126540000D03*
D17*
X62260000Y-114348000D03*
X62260000Y-116380000D03*
X62260000Y-118412000D03*
X62260000Y-122476000D03*
X62260000Y-124508000D03*
X62260000Y-126540000D03*
X59720000Y-115364000D03*
X59720000Y-117396000D03*
X59720000Y-119428000D03*
X59720000Y-121460000D03*
X59720000Y-123492000D03*
X59720000Y-125524000D03*
D18*
X44480000Y-114094000D03*
X44480000Y-126794000D03*
D19*
X104620000Y-128600000D03*
D20*
X102080000Y-128600000D03*
X99540000Y-128600000D03*
X97000000Y-128600000D03*
D19*
X102880000Y-108700000D03*
D20*
X100340000Y-108700000D03*
X97800000Y-108700000D03*
D21*
X47695000Y-153245000D03*
X52695000Y-153245000D03*
D22*
X46470000Y-152195000D03*
X53920000Y-152195000D03*
D23*
X46320000Y-155995000D03*
X54070000Y-155995000D03*
D14*
X106837500Y-141500000D03*
X109762500Y-141500000D03*
D19*
X102880000Y-112500000D03*
D20*
X100340000Y-112500000D03*
X97800000Y-112500000D03*
D19*
X87120000Y-147000000D03*
D20*
X89660000Y-147000000D03*
X92200000Y-147000000D03*
D24*
X107415002Y-148162001D03*
X107415002Y-135462001D03*
D25*
X104875002Y-138252001D03*
D26*
X103095002Y-139268001D03*
X104875002Y-140284001D03*
X103095002Y-141300001D03*
X104875002Y-142316001D03*
X103095002Y-143332001D03*
X104875002Y-144348001D03*
X103095002Y-145364001D03*
X98275002Y-134952001D03*
X98275002Y-137242001D03*
X98275002Y-146382001D03*
X98275002Y-148672001D03*
D27*
X103985002Y-133682001D03*
X103985002Y-149942001D03*
M02*
