%TF.GenerationSoftware,KiCad,Pcbnew,7.0.1*%
%TF.CreationDate,2023-03-30T19:37:26+02:00*%
%TF.ProjectId,home-media-converter,686f6d65-2d6d-4656-9469-612d636f6e76,rev?*%
%TF.SameCoordinates,Original*%
%TF.FileFunction,Paste,Top*%
%TF.FilePolarity,Positive*%
%FSLAX46Y46*%
G04 Gerber Fmt 4.6, Leading zero omitted, Abs format (unit mm)*
G04 Created by KiCad (PCBNEW 7.0.1) date 2023-03-30 19:37:26*
%MOMM*%
%LPD*%
G01*
G04 APERTURE LIST*
G04 Aperture macros list*
%AMRoundRect*
0 Rectangle with rounded corners*
0 $1 Rounding radius*
0 $2 $3 $4 $5 $6 $7 $8 $9 X,Y pos of 4 corners*
0 Add a 4 corners polygon primitive as box body*
4,1,4,$2,$3,$4,$5,$6,$7,$8,$9,$2,$3,0*
0 Add four circle primitives for the rounded corners*
1,1,$1+$1,$2,$3*
1,1,$1+$1,$4,$5*
1,1,$1+$1,$6,$7*
1,1,$1+$1,$8,$9*
0 Add four rect primitives between the rounded corners*
20,1,$1+$1,$2,$3,$4,$5,0*
20,1,$1+$1,$4,$5,$6,$7,0*
20,1,$1+$1,$6,$7,$8,$9,0*
20,1,$1+$1,$8,$9,$2,$3,0*%
G04 Aperture macros list end*
%ADD10C,0.100000*%
%ADD11RoundRect,0.135000X-0.185000X0.135000X-0.185000X-0.135000X0.185000X-0.135000X0.185000X0.135000X0*%
%ADD12RoundRect,0.140000X0.170000X-0.140000X0.170000X0.140000X-0.170000X0.140000X-0.170000X-0.140000X0*%
%ADD13R,0.254800X0.807999*%
%ADD14R,0.807999X0.254800*%
%ADD15RoundRect,0.225000X-0.225000X-0.250000X0.225000X-0.250000X0.225000X0.250000X-0.225000X0.250000X0*%
%ADD16R,0.254800X0.757199*%
%ADD17R,0.757199X0.254800*%
%ADD18RoundRect,0.140000X0.140000X0.170000X-0.140000X0.170000X-0.140000X-0.170000X0.140000X-0.170000X0*%
%ADD19RoundRect,0.135000X0.185000X-0.135000X0.185000X0.135000X-0.185000X0.135000X-0.185000X-0.135000X0*%
%ADD20RoundRect,0.218750X-0.256250X0.218750X-0.256250X-0.218750X0.256250X-0.218750X0.256250X0.218750X0*%
%ADD21RoundRect,0.225000X0.225000X0.250000X-0.225000X0.250000X-0.225000X-0.250000X0.225000X-0.250000X0*%
%ADD22RoundRect,0.135000X-0.135000X-0.185000X0.135000X-0.185000X0.135000X0.185000X-0.135000X0.185000X0*%
%ADD23RoundRect,0.135000X0.135000X0.185000X-0.135000X0.185000X-0.135000X-0.185000X0.135000X-0.185000X0*%
%ADD24RoundRect,0.140000X-0.140000X-0.170000X0.140000X-0.170000X0.140000X0.170000X-0.140000X0.170000X0*%
%ADD25R,2.000000X2.400000*%
%ADD26RoundRect,0.218750X0.256250X-0.218750X0.256250X0.218750X-0.256250X0.218750X-0.256250X-0.218750X0*%
%ADD27RoundRect,0.140000X-0.170000X0.140000X-0.170000X-0.140000X0.170000X-0.140000X0.170000X0.140000X0*%
%ADD28RoundRect,0.218750X-0.218750X-0.256250X0.218750X-0.256250X0.218750X0.256250X-0.218750X0.256250X0*%
%ADD29R,0.706399X0.229400*%
%ADD30RoundRect,0.250000X-0.375000X-0.850000X0.375000X-0.850000X0.375000X0.850000X-0.375000X0.850000X0*%
%ADD31RoundRect,0.100000X-0.100000X0.637500X-0.100000X-0.637500X0.100000X-0.637500X0.100000X0.637500X0*%
%ADD32RoundRect,0.150000X-0.512500X-0.150000X0.512500X-0.150000X0.512500X0.150000X-0.512500X0.150000X0*%
%ADD33R,0.450000X1.300000*%
%ADD34R,1.041400X0.609600*%
%ADD35R,1.000000X0.900000*%
%ADD36RoundRect,0.218750X0.218750X0.256250X-0.218750X0.256250X-0.218750X-0.256250X0.218750X-0.256250X0*%
%ADD37R,0.931065X0.302473*%
%ADD38RoundRect,0.225000X0.225000X0.375000X-0.225000X0.375000X-0.225000X-0.375000X0.225000X-0.375000X0*%
G04 APERTURE END LIST*
D10*
X79065000Y-139749000D02*
X77995000Y-139749000D01*
X77995000Y-138679000D01*
X79065000Y-138679000D01*
X79065000Y-139749000D01*
G36*
X79065000Y-139749000D02*
G01*
X77995000Y-139749000D01*
X77995000Y-138679000D01*
X79065000Y-138679000D01*
X79065000Y-139749000D01*
G37*
X80335000Y-139749000D02*
X79265000Y-139749000D01*
X79265000Y-138679000D01*
X80335000Y-138679000D01*
X80335000Y-139749000D01*
G36*
X80335000Y-139749000D02*
G01*
X79265000Y-139749000D01*
X79265000Y-138679000D01*
X80335000Y-138679000D01*
X80335000Y-139749000D01*
G37*
X81605000Y-139749000D02*
X80535000Y-139749000D01*
X80535000Y-138679000D01*
X81605000Y-138679000D01*
X81605000Y-139749000D01*
G36*
X81605000Y-139749000D02*
G01*
X80535000Y-139749000D01*
X80535000Y-138679000D01*
X81605000Y-138679000D01*
X81605000Y-139749000D01*
G37*
X79065000Y-138479000D02*
X77995000Y-138479000D01*
X77995000Y-137409000D01*
X79065000Y-137409000D01*
X79065000Y-138479000D01*
G36*
X79065000Y-138479000D02*
G01*
X77995000Y-138479000D01*
X77995000Y-137409000D01*
X79065000Y-137409000D01*
X79065000Y-138479000D01*
G37*
X80335000Y-138479000D02*
X79265000Y-138479000D01*
X79265000Y-137409000D01*
X80335000Y-137409000D01*
X80335000Y-138479000D01*
G36*
X80335000Y-138479000D02*
G01*
X79265000Y-138479000D01*
X79265000Y-137409000D01*
X80335000Y-137409000D01*
X80335000Y-138479000D01*
G37*
X81605000Y-138479000D02*
X80535000Y-138479000D01*
X80535000Y-137409000D01*
X81605000Y-137409000D01*
X81605000Y-138479000D01*
G36*
X81605000Y-138479000D02*
G01*
X80535000Y-138479000D01*
X80535000Y-137409000D01*
X81605000Y-137409000D01*
X81605000Y-138479000D01*
G37*
X79065000Y-137209000D02*
X77995000Y-137209000D01*
X77995000Y-136139000D01*
X79065000Y-136139000D01*
X79065000Y-137209000D01*
G36*
X79065000Y-137209000D02*
G01*
X77995000Y-137209000D01*
X77995000Y-136139000D01*
X79065000Y-136139000D01*
X79065000Y-137209000D01*
G37*
X80335000Y-137209000D02*
X79265000Y-137209000D01*
X79265000Y-136139000D01*
X80335000Y-136139000D01*
X80335000Y-137209000D01*
G36*
X80335000Y-137209000D02*
G01*
X79265000Y-137209000D01*
X79265000Y-136139000D01*
X80335000Y-136139000D01*
X80335000Y-137209000D01*
G37*
X81605000Y-137209000D02*
X80535000Y-137209000D01*
X80535000Y-136139000D01*
X81605000Y-136139000D01*
X81605000Y-137209000D01*
G36*
X81605000Y-137209000D02*
G01*
X80535000Y-137209000D01*
X80535000Y-136139000D01*
X81605000Y-136139000D01*
X81605000Y-137209000D01*
G37*
X81430100Y-122928100D02*
X80341050Y-122928100D01*
X80341050Y-121839050D01*
X81430100Y-121839050D01*
X81430100Y-122928100D01*
G36*
X81430100Y-122928100D02*
G01*
X80341050Y-122928100D01*
X80341050Y-121839050D01*
X81430100Y-121839050D01*
X81430100Y-122928100D01*
G37*
X81430100Y-121639050D02*
X80341050Y-121639050D01*
X80341050Y-120550000D01*
X81430100Y-120550000D01*
X81430100Y-121639050D01*
G36*
X81430100Y-121639050D02*
G01*
X80341050Y-121639050D01*
X80341050Y-120550000D01*
X81430100Y-120550000D01*
X81430100Y-121639050D01*
G37*
X81430100Y-120350000D02*
X80341050Y-120350000D01*
X80341050Y-119260950D01*
X81430100Y-119260950D01*
X81430100Y-120350000D01*
G36*
X81430100Y-120350000D02*
G01*
X80341050Y-120350000D01*
X80341050Y-119260950D01*
X81430100Y-119260950D01*
X81430100Y-120350000D01*
G37*
X81430100Y-119060950D02*
X80341050Y-119060950D01*
X80341050Y-117971900D01*
X81430100Y-117971900D01*
X81430100Y-119060950D01*
G36*
X81430100Y-119060950D02*
G01*
X80341050Y-119060950D01*
X80341050Y-117971900D01*
X81430100Y-117971900D01*
X81430100Y-119060950D01*
G37*
X80141050Y-122928100D02*
X79052000Y-122928100D01*
X79052000Y-121839050D01*
X80141050Y-121839050D01*
X80141050Y-122928100D01*
G36*
X80141050Y-122928100D02*
G01*
X79052000Y-122928100D01*
X79052000Y-121839050D01*
X80141050Y-121839050D01*
X80141050Y-122928100D01*
G37*
X80141050Y-121639050D02*
X79052000Y-121639050D01*
X79052000Y-120550000D01*
X80141050Y-120550000D01*
X80141050Y-121639050D01*
G36*
X80141050Y-121639050D02*
G01*
X79052000Y-121639050D01*
X79052000Y-120550000D01*
X80141050Y-120550000D01*
X80141050Y-121639050D01*
G37*
X80141050Y-120350000D02*
X79052000Y-120350000D01*
X79052000Y-119260950D01*
X80141050Y-119260950D01*
X80141050Y-120350000D01*
G36*
X80141050Y-120350000D02*
G01*
X79052000Y-120350000D01*
X79052000Y-119260950D01*
X80141050Y-119260950D01*
X80141050Y-120350000D01*
G37*
X80141050Y-119060950D02*
X79052000Y-119060950D01*
X79052000Y-117971900D01*
X80141050Y-117971900D01*
X80141050Y-119060950D01*
G36*
X80141050Y-119060950D02*
G01*
X79052000Y-119060950D01*
X79052000Y-117971900D01*
X80141050Y-117971900D01*
X80141050Y-119060950D01*
G37*
X78852000Y-122928100D02*
X77762950Y-122928100D01*
X77762950Y-121839050D01*
X78852000Y-121839050D01*
X78852000Y-122928100D01*
G36*
X78852000Y-122928100D02*
G01*
X77762950Y-122928100D01*
X77762950Y-121839050D01*
X78852000Y-121839050D01*
X78852000Y-122928100D01*
G37*
X78852000Y-121639050D02*
X77762950Y-121639050D01*
X77762950Y-120550000D01*
X78852000Y-120550000D01*
X78852000Y-121639050D01*
G36*
X78852000Y-121639050D02*
G01*
X77762950Y-121639050D01*
X77762950Y-120550000D01*
X78852000Y-120550000D01*
X78852000Y-121639050D01*
G37*
X78852000Y-120350000D02*
X77762950Y-120350000D01*
X77762950Y-119260950D01*
X78852000Y-119260950D01*
X78852000Y-120350000D01*
G36*
X78852000Y-120350000D02*
G01*
X77762950Y-120350000D01*
X77762950Y-119260950D01*
X78852000Y-119260950D01*
X78852000Y-120350000D01*
G37*
X78852000Y-119060950D02*
X77762950Y-119060950D01*
X77762950Y-117971900D01*
X78852000Y-117971900D01*
X78852000Y-119060950D01*
G36*
X78852000Y-119060950D02*
G01*
X77762950Y-119060950D01*
X77762950Y-117971900D01*
X78852000Y-117971900D01*
X78852000Y-119060950D01*
G37*
X77562950Y-122928100D02*
X76473900Y-122928100D01*
X76473900Y-121839050D01*
X77562950Y-121839050D01*
X77562950Y-122928100D01*
G36*
X77562950Y-122928100D02*
G01*
X76473900Y-122928100D01*
X76473900Y-121839050D01*
X77562950Y-121839050D01*
X77562950Y-122928100D01*
G37*
X77562950Y-121639050D02*
X76473900Y-121639050D01*
X76473900Y-120550000D01*
X77562950Y-120550000D01*
X77562950Y-121639050D01*
G36*
X77562950Y-121639050D02*
G01*
X76473900Y-121639050D01*
X76473900Y-120550000D01*
X77562950Y-120550000D01*
X77562950Y-121639050D01*
G37*
X77562950Y-120350000D02*
X76473900Y-120350000D01*
X76473900Y-119260950D01*
X77562950Y-119260950D01*
X77562950Y-120350000D01*
G36*
X77562950Y-120350000D02*
G01*
X76473900Y-120350000D01*
X76473900Y-119260950D01*
X77562950Y-119260950D01*
X77562950Y-120350000D01*
G37*
X77562950Y-119060950D02*
X76473900Y-119060950D01*
X76473900Y-117971900D01*
X77562950Y-117971900D01*
X77562950Y-119060950D01*
G36*
X77562950Y-119060950D02*
G01*
X76473900Y-119060950D01*
X76473900Y-117971900D01*
X77562950Y-117971900D01*
X77562950Y-119060950D01*
G37*
X74307499Y-143875000D02*
X73307501Y-143875000D01*
X73307501Y-142125000D01*
X74307499Y-142125000D01*
X74307499Y-143875000D01*
G36*
X74307499Y-143875000D02*
G01*
X73307501Y-143875000D01*
X73307501Y-142125000D01*
X74307499Y-142125000D01*
X74307499Y-143875000D01*
G37*
D11*
X80200000Y-113690000D03*
X80200000Y-114710000D03*
D12*
X78300000Y-111780000D03*
X78300000Y-110820000D03*
D13*
X77799999Y-140888000D03*
X78300000Y-140888000D03*
X78799999Y-140888000D03*
X79300001Y-140888000D03*
X79800000Y-140888000D03*
X80299999Y-140888000D03*
X80800001Y-140888000D03*
X81300000Y-140888000D03*
X81800001Y-140888000D03*
D14*
X82744000Y-139944001D03*
X82744000Y-139444000D03*
X82744000Y-138944001D03*
X82744000Y-138443999D03*
X82744000Y-137944000D03*
X82744000Y-137444001D03*
X82744000Y-136943999D03*
X82744000Y-136444000D03*
X82744000Y-135943999D03*
D13*
X81800001Y-135000000D03*
X81300000Y-135000000D03*
X80800001Y-135000000D03*
X80299999Y-135000000D03*
X79800000Y-135000000D03*
X79300001Y-135000000D03*
X78799999Y-135000000D03*
X78300000Y-135000000D03*
X77799999Y-135000000D03*
D14*
X76856000Y-135943999D03*
X76856000Y-136444000D03*
X76856000Y-136943999D03*
X76856000Y-137444001D03*
X76856000Y-137944000D03*
X76856000Y-138443999D03*
X76856000Y-138944001D03*
X76856000Y-139444000D03*
X76856000Y-139944001D03*
D15*
X52225000Y-149600000D03*
X53775000Y-149600000D03*
D16*
X76202000Y-116998000D03*
X76701999Y-116998000D03*
X77202001Y-116998000D03*
X77702000Y-116998000D03*
X78201999Y-116998000D03*
X78702000Y-116998000D03*
X79202000Y-116998000D03*
X79702001Y-116998000D03*
X80202000Y-116998000D03*
X80701999Y-116998000D03*
X81202001Y-116998000D03*
X81702000Y-116998000D03*
D17*
X82404000Y-117700000D03*
X82404000Y-118199999D03*
X82404000Y-118700001D03*
X82404000Y-119200000D03*
X82404000Y-119699999D03*
X82404000Y-120200000D03*
X82404000Y-120700000D03*
X82404000Y-121200001D03*
X82404000Y-121700000D03*
X82404000Y-122199999D03*
X82404000Y-122700001D03*
X82404000Y-123200000D03*
D16*
X81702000Y-123902000D03*
X81202001Y-123902000D03*
X80701999Y-123902000D03*
X80202000Y-123902000D03*
X79702001Y-123902000D03*
X79202000Y-123902000D03*
X78702000Y-123902000D03*
X78201999Y-123902000D03*
X77702000Y-123902000D03*
X77202001Y-123902000D03*
X76701999Y-123902000D03*
X76202000Y-123902000D03*
D17*
X75500000Y-123200000D03*
X75500000Y-122700001D03*
X75500000Y-122199999D03*
X75500000Y-121700000D03*
X75500000Y-121200001D03*
X75500000Y-120700000D03*
X75500000Y-120200000D03*
X75500000Y-119699999D03*
X75500000Y-119200000D03*
X75500000Y-118700001D03*
X75500000Y-118199999D03*
X75500000Y-117700000D03*
D18*
X97280000Y-116400000D03*
X96320000Y-116400000D03*
D19*
X85600000Y-116610000D03*
X85600000Y-115590000D03*
D20*
X50600000Y-148112500D03*
X50600000Y-149687500D03*
D21*
X65575000Y-140500000D03*
X64025000Y-140500000D03*
D22*
X87590000Y-120600000D03*
X88610000Y-120600000D03*
D23*
X87110000Y-151900000D03*
X86090000Y-151900000D03*
D12*
X85800000Y-143680000D03*
X85800000Y-142720000D03*
D11*
X78500000Y-131078000D03*
X78500000Y-132098000D03*
D24*
X62240000Y-109200000D03*
X63200000Y-109200000D03*
D22*
X87590000Y-119600000D03*
X88610000Y-119600000D03*
D12*
X84800000Y-143680000D03*
X84800000Y-142720000D03*
X82300000Y-114660000D03*
X82300000Y-113700000D03*
D25*
X76100000Y-110800000D03*
X72400000Y-110800000D03*
D26*
X87500000Y-142000000D03*
X87500000Y-140425000D03*
D22*
X106977500Y-115300000D03*
X107997500Y-115300000D03*
D27*
X86100000Y-140220000D03*
X86100000Y-141180000D03*
D22*
X106977500Y-113500000D03*
X107997500Y-113500000D03*
D15*
X76725000Y-143300000D03*
X78275000Y-143300000D03*
D28*
X69900000Y-116400000D03*
X71475000Y-116400000D03*
D12*
X79300000Y-111780000D03*
X79300000Y-110820000D03*
D27*
X85120000Y-140220000D03*
X85120000Y-141180000D03*
D22*
X71480000Y-127900000D03*
X72500000Y-127900000D03*
D29*
X66895400Y-149100126D03*
X66895400Y-148600000D03*
X66895400Y-148099874D03*
X65300000Y-148099874D03*
X65300000Y-148600000D03*
X65300000Y-149100126D03*
D26*
X48900000Y-149687500D03*
X48900000Y-148112500D03*
D24*
X82540000Y-131388000D03*
X83500000Y-131388000D03*
D30*
X67625000Y-137970387D03*
X69775000Y-137970387D03*
D22*
X88890000Y-142100000D03*
X89910000Y-142100000D03*
D31*
X106425000Y-117537500D03*
X105775000Y-117537500D03*
X105125000Y-117537500D03*
X104475000Y-117537500D03*
X103825000Y-117537500D03*
X103175000Y-117537500D03*
X102525000Y-117537500D03*
X101875000Y-117537500D03*
X101225000Y-117537500D03*
X100575000Y-117537500D03*
X100575000Y-123262500D03*
X101225000Y-123262500D03*
X101875000Y-123262500D03*
X102525000Y-123262500D03*
X103175000Y-123262500D03*
X103825000Y-123262500D03*
X104475000Y-123262500D03*
X105125000Y-123262500D03*
X105775000Y-123262500D03*
X106425000Y-123262500D03*
D18*
X103780000Y-125200000D03*
X102820000Y-125200000D03*
D23*
X85810000Y-150300000D03*
X84790000Y-150300000D03*
D24*
X53775000Y-141600000D03*
X54735000Y-141600000D03*
D19*
X62500000Y-138980387D03*
X62500000Y-137960387D03*
D25*
X77700000Y-146300000D03*
X81400000Y-146300000D03*
D22*
X98290000Y-131200000D03*
X99310000Y-131200000D03*
D11*
X79100000Y-113690000D03*
X79100000Y-114710000D03*
D19*
X86000000Y-126010000D03*
X86000000Y-124990000D03*
D22*
X87090000Y-123600000D03*
X88110000Y-123600000D03*
D18*
X65280000Y-136170387D03*
X64320000Y-136170387D03*
D11*
X102000000Y-114890000D03*
X102000000Y-115910000D03*
D18*
X71080000Y-129000000D03*
X70120000Y-129000000D03*
D21*
X65322700Y-153200000D03*
X66872700Y-153200000D03*
D11*
X77500000Y-131278000D03*
X77500000Y-132298000D03*
D23*
X72410000Y-115000000D03*
X71390000Y-115000000D03*
D19*
X62500000Y-136880387D03*
X62500000Y-135860387D03*
D28*
X87112500Y-143600000D03*
X88687500Y-143600000D03*
D18*
X74100000Y-123300000D03*
X73140000Y-123300000D03*
D22*
X67380000Y-128600000D03*
X68400000Y-128600000D03*
D24*
X77720000Y-149400000D03*
X78680000Y-149400000D03*
D12*
X77900000Y-114680000D03*
X77900000Y-113720000D03*
D29*
X65597700Y-138470513D03*
X65597700Y-137970387D03*
X65597700Y-137470261D03*
X64002300Y-137470261D03*
X64002300Y-137970387D03*
X64002300Y-138470513D03*
D18*
X74280000Y-137900000D03*
X73320000Y-137900000D03*
D22*
X93580000Y-142900000D03*
X94600000Y-142900000D03*
D32*
X51937500Y-143050000D03*
X51937500Y-144000000D03*
X51937500Y-144950000D03*
X54212500Y-144950000D03*
X54212500Y-144000000D03*
X54212500Y-143050000D03*
D24*
X82540000Y-132388000D03*
X83500000Y-132388000D03*
D12*
X104400000Y-115880000D03*
X104400000Y-114920000D03*
D21*
X66872700Y-151600000D03*
X65322700Y-151600000D03*
D23*
X85710000Y-135644000D03*
X84690000Y-135644000D03*
D11*
X79500000Y-131078000D03*
X79500000Y-132098000D03*
X75500000Y-131778000D03*
X75500000Y-132798000D03*
D24*
X84520000Y-121100000D03*
X85480000Y-121100000D03*
D18*
X72720000Y-117300000D03*
X73680000Y-117300000D03*
D33*
X48895000Y-152145000D03*
X49545000Y-152145000D03*
X50195000Y-152145000D03*
X50845000Y-152145000D03*
X51495000Y-152145000D03*
D21*
X65575000Y-142100000D03*
X64025000Y-142100000D03*
D28*
X71112500Y-130600000D03*
X72687500Y-130600000D03*
D34*
X89475002Y-138300001D03*
X92524998Y-138300001D03*
X92524998Y-139299999D03*
X89475002Y-139299999D03*
D24*
X84420000Y-131388000D03*
X85380000Y-131388000D03*
D22*
X87190000Y-121600000D03*
X88210000Y-121600000D03*
D24*
X84420000Y-133388000D03*
X85380000Y-133388000D03*
D35*
X96100000Y-122450000D03*
X96100000Y-118350000D03*
X97700000Y-118350000D03*
X97700000Y-122450000D03*
D22*
X87290000Y-122600000D03*
X88310000Y-122600000D03*
D28*
X80912500Y-143300000D03*
X82487500Y-143300000D03*
D24*
X84420000Y-132388000D03*
X85380000Y-132388000D03*
D22*
X90090000Y-143600000D03*
X91110000Y-143600000D03*
D19*
X63797700Y-149600000D03*
X63797700Y-148580000D03*
X86600000Y-116610000D03*
X86600000Y-115590000D03*
D36*
X110875000Y-113500000D03*
X109300000Y-113500000D03*
D24*
X67220000Y-115400000D03*
X68180000Y-115400000D03*
D19*
X63797700Y-147510000D03*
X63797700Y-146490000D03*
D18*
X74280000Y-139000000D03*
X73320000Y-139000000D03*
D24*
X82540000Y-133388000D03*
X83500000Y-133388000D03*
D12*
X109100000Y-120980000D03*
X109100000Y-120020000D03*
D11*
X84980000Y-124990000D03*
X84980000Y-126010000D03*
D18*
X74080000Y-121700000D03*
X73120000Y-121700000D03*
D36*
X110875000Y-115300000D03*
X109300000Y-115300000D03*
D37*
X75298033Y-143974999D03*
X75298033Y-143325001D03*
X75298033Y-142674999D03*
X75298033Y-142025001D03*
X72316967Y-142025001D03*
X72316967Y-142674999D03*
X72316967Y-143325001D03*
X72316967Y-143974999D03*
D27*
X76300000Y-125320000D03*
X76300000Y-126280000D03*
D22*
X67190000Y-116900000D03*
X68210000Y-116900000D03*
D12*
X76700000Y-114680000D03*
X76700000Y-113720000D03*
D22*
X87390000Y-117600000D03*
X88410000Y-117600000D03*
D12*
X83800000Y-143680000D03*
X83800000Y-142720000D03*
D24*
X94195002Y-139300001D03*
X95155002Y-139300001D03*
X94195002Y-138300001D03*
X95155002Y-138300001D03*
D18*
X66577700Y-146800000D03*
X65617700Y-146800000D03*
D24*
X67220000Y-123600000D03*
X68180000Y-123600000D03*
D28*
X73112500Y-140400000D03*
X74687500Y-140400000D03*
D12*
X81300000Y-114660000D03*
X81300000Y-113700000D03*
D24*
X52615000Y-146700000D03*
X53575000Y-146700000D03*
D23*
X68220000Y-112900000D03*
X67200000Y-112900000D03*
D15*
X52225000Y-148000000D03*
X53775000Y-148000000D03*
D18*
X72720000Y-116300000D03*
X73680000Y-116300000D03*
D22*
X74380000Y-134188000D03*
X75400000Y-134188000D03*
D23*
X95910000Y-147900000D03*
X94890000Y-147900000D03*
D11*
X103200000Y-114890000D03*
X103200000Y-115910000D03*
X80500000Y-131078000D03*
X80500000Y-132098000D03*
X81500000Y-132788000D03*
X81500000Y-131768000D03*
D27*
X81600000Y-126420000D03*
X81600000Y-127380000D03*
D24*
X62220000Y-131700000D03*
X63180000Y-131700000D03*
D18*
X81380000Y-149400000D03*
X80420000Y-149400000D03*
D11*
X76500000Y-131778000D03*
X76500000Y-132798000D03*
D23*
X88110000Y-124600000D03*
X87090000Y-124600000D03*
D30*
X56200000Y-143500000D03*
X58350000Y-143500000D03*
D28*
X87212500Y-150300000D03*
X88787500Y-150300000D03*
D18*
X73380000Y-107800000D03*
X72420000Y-107800000D03*
D22*
X95790000Y-123800000D03*
X96810000Y-123800000D03*
X87390000Y-118600000D03*
X88410000Y-118600000D03*
D21*
X58350000Y-145800000D03*
X56800000Y-145800000D03*
D27*
X78400000Y-125320000D03*
X78400000Y-126280000D03*
X84100000Y-140220000D03*
X84100000Y-141180000D03*
D21*
X58350000Y-147400000D03*
X56800000Y-147400000D03*
D38*
X85850000Y-108800000D03*
X82550000Y-108800000D03*
X85850000Y-111600000D03*
X82550000Y-111600000D03*
D18*
X73680000Y-119200000D03*
X72720000Y-119200000D03*
X71180000Y-144000000D03*
X70220000Y-144000000D03*
D24*
X83820000Y-123600000D03*
X84780000Y-123600000D03*
X84520000Y-118700000D03*
X85480000Y-118700000D03*
D30*
X69022700Y-148600000D03*
X71172700Y-148600000D03*
D11*
X95600000Y-133690000D03*
X95600000Y-134710000D03*
D23*
X88600000Y-135100000D03*
X87580000Y-135100000D03*
D24*
X75220000Y-107800000D03*
X76180000Y-107800000D03*
M02*
