%TF.GenerationSoftware,KiCad,Pcbnew,7.0.1*%
%TF.CreationDate,2023-03-30T19:37:26+02:00*%
%TF.ProjectId,home-media-converter,686f6d65-2d6d-4656-9469-612d636f6e76,rev?*%
%TF.SameCoordinates,Original*%
%TF.FileFunction,Legend,Bot*%
%TF.FilePolarity,Positive*%
%FSLAX46Y46*%
G04 Gerber Fmt 4.6, Leading zero omitted, Abs format (unit mm)*
G04 Created by KiCad (PCBNEW 7.0.1) date 2023-03-30 19:37:26*
%MOMM*%
%LPD*%
G01*
G04 APERTURE LIST*
G04 Aperture macros list*
%AMRoundRect*
0 Rectangle with rounded corners*
0 $1 Rounding radius*
0 $2 $3 $4 $5 $6 $7 $8 $9 X,Y pos of 4 corners*
0 Add a 4 corners polygon primitive as box body*
4,1,4,$2,$3,$4,$5,$6,$7,$8,$9,$2,$3,0*
0 Add four circle primitives for the rounded corners*
1,1,$1+$1,$2,$3*
1,1,$1+$1,$4,$5*
1,1,$1+$1,$6,$7*
1,1,$1+$1,$8,$9*
0 Add four rect primitives between the rounded corners*
20,1,$1+$1,$2,$3,$4,$5,0*
20,1,$1+$1,$4,$5,$6,$7,0*
20,1,$1+$1,$6,$7,$8,$9,0*
20,1,$1+$1,$8,$9,$2,$3,0*%
G04 Aperture macros list end*
%ADD10C,0.150000*%
%ADD11C,0.120000*%
%ADD12RoundRect,0.250000X-0.262500X-0.450000X0.262500X-0.450000X0.262500X0.450000X-0.262500X0.450000X0*%
%ADD13RoundRect,0.250000X0.650000X-0.325000X0.650000X0.325000X-0.650000X0.325000X-0.650000X-0.325000X0*%
%ADD14C,3.800000*%
%ADD15C,2.600000*%
%ADD16RoundRect,0.250000X-0.312500X-0.625000X0.312500X-0.625000X0.312500X0.625000X-0.312500X0.625000X0*%
%ADD17C,2.082800*%
%ADD18C,1.624000*%
%ADD19C,1.524000*%
%ADD20C,3.251200*%
%ADD21R,1.700000X1.700000*%
%ADD22O,1.700000X1.700000*%
%ADD23O,0.800000X0.800000*%
%ADD24O,1.450000X2.000000*%
%ADD25O,1.150000X1.800000*%
%ADD26C,3.250000*%
%ADD27R,1.500000X1.500000*%
%ADD28C,1.500000*%
%ADD29C,2.300000*%
G04 APERTURE END LIST*
D10*
X111442857Y-146112619D02*
X111776190Y-145636428D01*
X112014285Y-146112619D02*
X112014285Y-145112619D01*
X112014285Y-145112619D02*
X111633333Y-145112619D01*
X111633333Y-145112619D02*
X111538095Y-145160238D01*
X111538095Y-145160238D02*
X111490476Y-145207857D01*
X111490476Y-145207857D02*
X111442857Y-145303095D01*
X111442857Y-145303095D02*
X111442857Y-145445952D01*
X111442857Y-145445952D02*
X111490476Y-145541190D01*
X111490476Y-145541190D02*
X111538095Y-145588809D01*
X111538095Y-145588809D02*
X111633333Y-145636428D01*
X111633333Y-145636428D02*
X112014285Y-145636428D01*
X111109523Y-145112619D02*
X110490476Y-145112619D01*
X110490476Y-145112619D02*
X110823809Y-145493571D01*
X110823809Y-145493571D02*
X110680952Y-145493571D01*
X110680952Y-145493571D02*
X110585714Y-145541190D01*
X110585714Y-145541190D02*
X110538095Y-145588809D01*
X110538095Y-145588809D02*
X110490476Y-145684047D01*
X110490476Y-145684047D02*
X110490476Y-145922142D01*
X110490476Y-145922142D02*
X110538095Y-146017380D01*
X110538095Y-146017380D02*
X110585714Y-146065000D01*
X110585714Y-146065000D02*
X110680952Y-146112619D01*
X110680952Y-146112619D02*
X110966666Y-146112619D01*
X110966666Y-146112619D02*
X111061904Y-146065000D01*
X111061904Y-146065000D02*
X111109523Y-146017380D01*
X109919047Y-145541190D02*
X110014285Y-145493571D01*
X110014285Y-145493571D02*
X110061904Y-145445952D01*
X110061904Y-145445952D02*
X110109523Y-145350714D01*
X110109523Y-145350714D02*
X110109523Y-145303095D01*
X110109523Y-145303095D02*
X110061904Y-145207857D01*
X110061904Y-145207857D02*
X110014285Y-145160238D01*
X110014285Y-145160238D02*
X109919047Y-145112619D01*
X109919047Y-145112619D02*
X109728571Y-145112619D01*
X109728571Y-145112619D02*
X109633333Y-145160238D01*
X109633333Y-145160238D02*
X109585714Y-145207857D01*
X109585714Y-145207857D02*
X109538095Y-145303095D01*
X109538095Y-145303095D02*
X109538095Y-145350714D01*
X109538095Y-145350714D02*
X109585714Y-145445952D01*
X109585714Y-145445952D02*
X109633333Y-145493571D01*
X109633333Y-145493571D02*
X109728571Y-145541190D01*
X109728571Y-145541190D02*
X109919047Y-145541190D01*
X109919047Y-145541190D02*
X110014285Y-145588809D01*
X110014285Y-145588809D02*
X110061904Y-145636428D01*
X110061904Y-145636428D02*
X110109523Y-145731666D01*
X110109523Y-145731666D02*
X110109523Y-145922142D01*
X110109523Y-145922142D02*
X110061904Y-146017380D01*
X110061904Y-146017380D02*
X110014285Y-146065000D01*
X110014285Y-146065000D02*
X109919047Y-146112619D01*
X109919047Y-146112619D02*
X109728571Y-146112619D01*
X109728571Y-146112619D02*
X109633333Y-146065000D01*
X109633333Y-146065000D02*
X109585714Y-146017380D01*
X109585714Y-146017380D02*
X109538095Y-145922142D01*
X109538095Y-145922142D02*
X109538095Y-145731666D01*
X109538095Y-145731666D02*
X109585714Y-145636428D01*
X109585714Y-145636428D02*
X109633333Y-145588809D01*
X109633333Y-145588809D02*
X109728571Y-145541190D01*
X111167380Y-130857142D02*
X111215000Y-130809523D01*
X111215000Y-130809523D02*
X111262619Y-130666666D01*
X111262619Y-130666666D02*
X111262619Y-130571428D01*
X111262619Y-130571428D02*
X111215000Y-130428571D01*
X111215000Y-130428571D02*
X111119761Y-130333333D01*
X111119761Y-130333333D02*
X111024523Y-130285714D01*
X111024523Y-130285714D02*
X110834047Y-130238095D01*
X110834047Y-130238095D02*
X110691190Y-130238095D01*
X110691190Y-130238095D02*
X110500714Y-130285714D01*
X110500714Y-130285714D02*
X110405476Y-130333333D01*
X110405476Y-130333333D02*
X110310238Y-130428571D01*
X110310238Y-130428571D02*
X110262619Y-130571428D01*
X110262619Y-130571428D02*
X110262619Y-130666666D01*
X110262619Y-130666666D02*
X110310238Y-130809523D01*
X110310238Y-130809523D02*
X110357857Y-130857142D01*
X111262619Y-131809523D02*
X111262619Y-131238095D01*
X111262619Y-131523809D02*
X110262619Y-131523809D01*
X110262619Y-131523809D02*
X110405476Y-131428571D01*
X110405476Y-131428571D02*
X110500714Y-131333333D01*
X110500714Y-131333333D02*
X110548333Y-131238095D01*
X110262619Y-132666666D02*
X110262619Y-132476190D01*
X110262619Y-132476190D02*
X110310238Y-132380952D01*
X110310238Y-132380952D02*
X110357857Y-132333333D01*
X110357857Y-132333333D02*
X110500714Y-132238095D01*
X110500714Y-132238095D02*
X110691190Y-132190476D01*
X110691190Y-132190476D02*
X111072142Y-132190476D01*
X111072142Y-132190476D02*
X111167380Y-132238095D01*
X111167380Y-132238095D02*
X111215000Y-132285714D01*
X111215000Y-132285714D02*
X111262619Y-132380952D01*
X111262619Y-132380952D02*
X111262619Y-132571428D01*
X111262619Y-132571428D02*
X111215000Y-132666666D01*
X111215000Y-132666666D02*
X111167380Y-132714285D01*
X111167380Y-132714285D02*
X111072142Y-132761904D01*
X111072142Y-132761904D02*
X110834047Y-132761904D01*
X110834047Y-132761904D02*
X110738809Y-132714285D01*
X110738809Y-132714285D02*
X110691190Y-132666666D01*
X110691190Y-132666666D02*
X110643571Y-132571428D01*
X110643571Y-132571428D02*
X110643571Y-132380952D01*
X110643571Y-132380952D02*
X110691190Y-132285714D01*
X110691190Y-132285714D02*
X110738809Y-132238095D01*
X110738809Y-132238095D02*
X110834047Y-132190476D01*
X112262619Y-138357142D02*
X111786428Y-138023809D01*
X112262619Y-137785714D02*
X111262619Y-137785714D01*
X111262619Y-137785714D02*
X111262619Y-138166666D01*
X111262619Y-138166666D02*
X111310238Y-138261904D01*
X111310238Y-138261904D02*
X111357857Y-138309523D01*
X111357857Y-138309523D02*
X111453095Y-138357142D01*
X111453095Y-138357142D02*
X111595952Y-138357142D01*
X111595952Y-138357142D02*
X111691190Y-138309523D01*
X111691190Y-138309523D02*
X111738809Y-138261904D01*
X111738809Y-138261904D02*
X111786428Y-138166666D01*
X111786428Y-138166666D02*
X111786428Y-137785714D01*
X111262619Y-138690476D02*
X111262619Y-139309523D01*
X111262619Y-139309523D02*
X111643571Y-138976190D01*
X111643571Y-138976190D02*
X111643571Y-139119047D01*
X111643571Y-139119047D02*
X111691190Y-139214285D01*
X111691190Y-139214285D02*
X111738809Y-139261904D01*
X111738809Y-139261904D02*
X111834047Y-139309523D01*
X111834047Y-139309523D02*
X112072142Y-139309523D01*
X112072142Y-139309523D02*
X112167380Y-139261904D01*
X112167380Y-139261904D02*
X112215000Y-139214285D01*
X112215000Y-139214285D02*
X112262619Y-139119047D01*
X112262619Y-139119047D02*
X112262619Y-138833333D01*
X112262619Y-138833333D02*
X112215000Y-138738095D01*
X112215000Y-138738095D02*
X112167380Y-138690476D01*
X111262619Y-139642857D02*
X111262619Y-140309523D01*
X111262619Y-140309523D02*
X112262619Y-139880952D01*
X112262619Y-141057142D02*
X111786428Y-140723809D01*
X112262619Y-140485714D02*
X111262619Y-140485714D01*
X111262619Y-140485714D02*
X111262619Y-140866666D01*
X111262619Y-140866666D02*
X111310238Y-140961904D01*
X111310238Y-140961904D02*
X111357857Y-141009523D01*
X111357857Y-141009523D02*
X111453095Y-141057142D01*
X111453095Y-141057142D02*
X111595952Y-141057142D01*
X111595952Y-141057142D02*
X111691190Y-141009523D01*
X111691190Y-141009523D02*
X111738809Y-140961904D01*
X111738809Y-140961904D02*
X111786428Y-140866666D01*
X111786428Y-140866666D02*
X111786428Y-140485714D01*
X111262619Y-141390476D02*
X111262619Y-142009523D01*
X111262619Y-142009523D02*
X111643571Y-141676190D01*
X111643571Y-141676190D02*
X111643571Y-141819047D01*
X111643571Y-141819047D02*
X111691190Y-141914285D01*
X111691190Y-141914285D02*
X111738809Y-141961904D01*
X111738809Y-141961904D02*
X111834047Y-142009523D01*
X111834047Y-142009523D02*
X112072142Y-142009523D01*
X112072142Y-142009523D02*
X112167380Y-141961904D01*
X112167380Y-141961904D02*
X112215000Y-141914285D01*
X112215000Y-141914285D02*
X112262619Y-141819047D01*
X112262619Y-141819047D02*
X112262619Y-141533333D01*
X112262619Y-141533333D02*
X112215000Y-141438095D01*
X112215000Y-141438095D02*
X112167380Y-141390476D01*
X111262619Y-142866666D02*
X111262619Y-142676190D01*
X111262619Y-142676190D02*
X111310238Y-142580952D01*
X111310238Y-142580952D02*
X111357857Y-142533333D01*
X111357857Y-142533333D02*
X111500714Y-142438095D01*
X111500714Y-142438095D02*
X111691190Y-142390476D01*
X111691190Y-142390476D02*
X112072142Y-142390476D01*
X112072142Y-142390476D02*
X112167380Y-142438095D01*
X112167380Y-142438095D02*
X112215000Y-142485714D01*
X112215000Y-142485714D02*
X112262619Y-142580952D01*
X112262619Y-142580952D02*
X112262619Y-142771428D01*
X112262619Y-142771428D02*
X112215000Y-142866666D01*
X112215000Y-142866666D02*
X112167380Y-142914285D01*
X112167380Y-142914285D02*
X112072142Y-142961904D01*
X112072142Y-142961904D02*
X111834047Y-142961904D01*
X111834047Y-142961904D02*
X111738809Y-142914285D01*
X111738809Y-142914285D02*
X111691190Y-142866666D01*
X111691190Y-142866666D02*
X111643571Y-142771428D01*
X111643571Y-142771428D02*
X111643571Y-142580952D01*
X111643571Y-142580952D02*
X111691190Y-142485714D01*
X111691190Y-142485714D02*
X111738809Y-142438095D01*
X111738809Y-142438095D02*
X111834047Y-142390476D01*
D11*
X110572936Y-144735000D02*
X111027064Y-144735000D01*
X110572936Y-143265000D02*
X111027064Y-143265000D01*
X111710000Y-136111252D02*
X111710000Y-134688748D01*
X109890000Y-136111252D02*
X109890000Y-134688748D01*
X107572936Y-138090000D02*
X109027064Y-138090000D01*
X107572936Y-139910000D02*
X109027064Y-139910000D01*
X107572936Y-140590000D02*
X109027064Y-140590000D01*
X107572936Y-142410000D02*
X109027064Y-142410000D01*
%LPC*%
D12*
X109887500Y-144000000D03*
X111712500Y-144000000D03*
D13*
X110800000Y-136875000D03*
X110800000Y-133925000D03*
D14*
X109000000Y-155000000D03*
D15*
X109000000Y-155000000D03*
D14*
X109000000Y-107000000D03*
D15*
X109000000Y-107000000D03*
D14*
X39000000Y-107000000D03*
D15*
X39000000Y-107000000D03*
D14*
X39000000Y-155000000D03*
D15*
X39000000Y-155000000D03*
D16*
X106837500Y-139000000D03*
X109762500Y-139000000D03*
D17*
X41305000Y-112379500D03*
X41305000Y-128508500D03*
D18*
X64800000Y-114348000D03*
X64800000Y-116888000D03*
X64800000Y-124000000D03*
X64800000Y-126540000D03*
D19*
X62260000Y-114348000D03*
X62260000Y-116380000D03*
X62260000Y-118412000D03*
X62260000Y-122476000D03*
X62260000Y-124508000D03*
X62260000Y-126540000D03*
X59720000Y-115364000D03*
X59720000Y-117396000D03*
X59720000Y-119428000D03*
X59720000Y-121460000D03*
X59720000Y-123492000D03*
X59720000Y-125524000D03*
D20*
X44480000Y-114094000D03*
X44480000Y-126794000D03*
D21*
X104620000Y-128600000D03*
D22*
X102080000Y-128600000D03*
X99540000Y-128600000D03*
X97000000Y-128600000D03*
D21*
X102880000Y-108700000D03*
D22*
X100340000Y-108700000D03*
X97800000Y-108700000D03*
D23*
X47695000Y-153245000D03*
X52695000Y-153245000D03*
D24*
X46470000Y-152195000D03*
X53920000Y-152195000D03*
D25*
X46320000Y-155995000D03*
X54070000Y-155995000D03*
D16*
X106837500Y-141500000D03*
X109762500Y-141500000D03*
D21*
X102880000Y-112500000D03*
D22*
X100340000Y-112500000D03*
X97800000Y-112500000D03*
D21*
X87120000Y-147000000D03*
D22*
X89660000Y-147000000D03*
X92200000Y-147000000D03*
D26*
X107415002Y-148162001D03*
X107415002Y-135462001D03*
D27*
X104875002Y-138252001D03*
D28*
X103095002Y-139268001D03*
X104875002Y-140284001D03*
X103095002Y-141300001D03*
X104875002Y-142316001D03*
X103095002Y-143332001D03*
X104875002Y-144348001D03*
X103095002Y-145364001D03*
X98275002Y-134952001D03*
X98275002Y-137242001D03*
X98275002Y-146382001D03*
X98275002Y-148672001D03*
D29*
X103985002Y-133682001D03*
X103985002Y-149942001D03*
M02*
