%TF.GenerationSoftware,KiCad,Pcbnew,7.0.1*%
%TF.CreationDate,2023-03-30T19:37:26+02:00*%
%TF.ProjectId,home-media-converter,686f6d65-2d6d-4656-9469-612d636f6e76,rev?*%
%TF.SameCoordinates,Original*%
%TF.FileFunction,Copper,L3,Inr*%
%TF.FilePolarity,Positive*%
%FSLAX46Y46*%
G04 Gerber Fmt 4.6, Leading zero omitted, Abs format (unit mm)*
G04 Created by KiCad (PCBNEW 7.0.1) date 2023-03-30 19:37:26*
%MOMM*%
%LPD*%
G01*
G04 APERTURE LIST*
%TA.AperFunction,ComponentPad*%
%ADD10C,2.600000*%
%TD*%
%TA.AperFunction,ComponentPad*%
%ADD11C,2.082800*%
%TD*%
%TA.AperFunction,ComponentPad*%
%ADD12C,1.624000*%
%TD*%
%TA.AperFunction,ComponentPad*%
%ADD13C,1.524000*%
%TD*%
%TA.AperFunction,ComponentPad*%
%ADD14R,1.700000X1.700000*%
%TD*%
%TA.AperFunction,ComponentPad*%
%ADD15O,1.700000X1.700000*%
%TD*%
%TA.AperFunction,ComponentPad*%
%ADD16O,1.450000X2.000000*%
%TD*%
%TA.AperFunction,ComponentPad*%
%ADD17O,1.150000X1.800000*%
%TD*%
%TA.AperFunction,ComponentPad*%
%ADD18R,1.500000X1.500000*%
%TD*%
%TA.AperFunction,ComponentPad*%
%ADD19C,1.500000*%
%TD*%
%TA.AperFunction,ComponentPad*%
%ADD20C,2.300000*%
%TD*%
%TA.AperFunction,ViaPad*%
%ADD21C,0.600000*%
%TD*%
%TA.AperFunction,ViaPad*%
%ADD22C,0.450000*%
%TD*%
%TA.AperFunction,ViaPad*%
%ADD23C,0.500000*%
%TD*%
%TA.AperFunction,Conductor*%
%ADD24C,0.250000*%
%TD*%
%TA.AperFunction,Conductor*%
%ADD25C,0.400000*%
%TD*%
%TA.AperFunction,Conductor*%
%ADD26C,1.000000*%
%TD*%
G04 APERTURE END LIST*
D10*
X109000000Y-155000000D03*
X109000000Y-107000000D03*
X39000000Y-107000000D03*
X39000000Y-155000000D03*
D11*
X41305000Y-112379500D03*
X41305000Y-128508500D03*
D12*
X64800000Y-114348000D03*
X64800000Y-116888000D03*
X64800000Y-124000000D03*
X64800000Y-126540000D03*
D13*
X62260000Y-114348000D03*
X62260000Y-116380000D03*
X62260000Y-118412000D03*
X62260000Y-122476000D03*
X62260000Y-124508000D03*
X62260000Y-126540000D03*
X59720000Y-115364000D03*
X59720000Y-117396000D03*
X59720000Y-119428000D03*
X59720000Y-121460000D03*
X59720000Y-123492000D03*
X59720000Y-125524000D03*
D14*
X104620000Y-128600000D03*
D15*
X102080000Y-128600000D03*
X99540000Y-128600000D03*
X97000000Y-128600000D03*
D14*
X102880000Y-108700000D03*
D15*
X100340000Y-108700000D03*
X97800000Y-108700000D03*
D16*
X46470000Y-152195000D03*
X53920000Y-152195000D03*
D17*
X46320000Y-155995000D03*
X54070000Y-155995000D03*
D14*
X102880000Y-112500000D03*
D15*
X100340000Y-112500000D03*
X97800000Y-112500000D03*
D14*
X87120000Y-147000000D03*
D15*
X89660000Y-147000000D03*
X92200000Y-147000000D03*
D18*
X104875002Y-138252001D03*
D19*
X103095002Y-139268001D03*
X104875002Y-140284001D03*
X103095002Y-141300001D03*
X104875002Y-142316001D03*
X103095002Y-143332001D03*
X104875002Y-144348001D03*
X103095002Y-145364001D03*
X98275002Y-134952001D03*
X98275002Y-137242001D03*
X98275002Y-146382001D03*
X98275002Y-148672001D03*
D20*
X103985002Y-133682001D03*
X103985002Y-149942001D03*
D21*
X109800000Y-132500000D03*
X111900000Y-132500000D03*
X111700000Y-142600000D03*
X110800000Y-132500000D03*
X58700000Y-105400000D03*
X92600000Y-128400000D03*
X85000000Y-128900000D03*
X86300000Y-131400000D03*
X85800000Y-142000000D03*
X83800000Y-142000000D03*
X83400000Y-112900000D03*
X111700000Y-145700000D03*
X65500000Y-150500000D03*
X69400000Y-144000000D03*
X72500000Y-139400000D03*
X105300000Y-114900000D03*
X79300000Y-109900000D03*
X78300000Y-109900000D03*
X70500000Y-115000000D03*
X69000000Y-115400000D03*
X70100000Y-129900000D03*
X63500000Y-135400000D03*
X79600000Y-150300000D03*
X83700000Y-150300000D03*
X85000000Y-151900000D03*
X94800000Y-148900000D03*
X95600000Y-142900000D03*
X99300000Y-132200000D03*
X101900000Y-125200000D03*
X109000000Y-119100000D03*
X103200000Y-121900000D03*
X107500000Y-117600000D03*
X74400000Y-107800000D03*
X73200000Y-143000000D03*
X74400000Y-143000000D03*
X73800000Y-143900000D03*
X73800000Y-142100000D03*
X66900000Y-154700000D03*
X80480000Y-115480000D03*
X95100000Y-116400000D03*
X96100000Y-119600000D03*
X74000000Y-124100000D03*
X73100000Y-115574500D03*
X66900000Y-149800000D03*
X75600000Y-126300000D03*
X64100000Y-109200000D03*
X95600000Y-121400000D03*
X78256233Y-144243767D03*
X65600000Y-139200000D03*
X77600000Y-127100000D03*
X84800000Y-142000000D03*
X78287180Y-112787180D03*
X75566102Y-113466102D03*
X51500000Y-153700000D03*
X50500000Y-153700000D03*
X51800000Y-150800000D03*
X50800000Y-150800000D03*
X63400000Y-154500000D03*
X63400000Y-153466666D03*
X63400000Y-152433333D03*
X63400000Y-151400000D03*
X67400000Y-145200000D03*
X66200000Y-145200000D03*
X65000000Y-145200000D03*
X63800000Y-145200000D03*
X62900000Y-141300000D03*
X55200000Y-149200000D03*
X55200000Y-148100000D03*
X55200000Y-147100000D03*
X55200000Y-146100000D03*
X68900000Y-123600000D03*
X71919271Y-123193055D03*
X72641641Y-121749300D03*
X71700000Y-119200000D03*
X71600000Y-117400000D03*
X81300000Y-112900000D03*
X74100000Y-132900000D03*
X71200000Y-133100000D03*
X74300000Y-126200000D03*
X71500000Y-125800000D03*
X75800000Y-127900000D03*
X77617784Y-126017784D03*
X81347999Y-125459462D03*
X83280940Y-123038570D03*
X83695717Y-121054000D03*
X82943767Y-114243767D03*
X72753500Y-132100000D03*
X93603001Y-144000000D03*
X95185263Y-123531790D03*
X69000000Y-112900000D03*
X84906792Y-134406792D03*
X82700000Y-142000000D03*
X94225000Y-124375000D03*
X94800000Y-125600000D03*
X88600000Y-134300000D03*
X103000000Y-118800000D03*
X105370376Y-124564812D03*
X95600000Y-133000000D03*
X94800000Y-135200000D03*
X80374500Y-141765584D03*
X78650000Y-141950000D03*
X77770889Y-142435957D03*
X76700000Y-142000000D03*
X76100000Y-140500000D03*
D22*
X82562963Y-130609093D03*
D21*
X74200000Y-136900000D03*
X75800000Y-141400000D03*
D22*
X75400000Y-139000000D03*
D21*
X72100000Y-140400000D03*
X86700000Y-142000000D03*
X80900000Y-142500000D03*
X76700000Y-144400000D03*
X90416196Y-142862655D03*
X65600000Y-143200000D03*
X61300000Y-139000000D03*
X62800000Y-149700000D03*
X69200000Y-141700000D03*
X68300000Y-141700000D03*
X67400000Y-141700000D03*
X69200000Y-140300000D03*
X68300000Y-140300000D03*
X67400000Y-140300000D03*
D22*
X77315000Y-113060000D03*
X74700000Y-121700000D03*
X74700000Y-119200000D03*
D21*
X69000000Y-116900000D03*
X70700000Y-127900000D03*
X63900000Y-131700000D03*
D23*
X78800000Y-119400000D03*
X81100000Y-120400000D03*
X80400000Y-121100000D03*
X81100000Y-121700000D03*
X81100000Y-122600000D03*
X80100000Y-122600000D03*
X79000000Y-122600000D03*
X76900000Y-121000000D03*
X77900000Y-120100000D03*
X76900000Y-119400000D03*
X79700000Y-118400000D03*
X78766666Y-118400000D03*
X77833333Y-118400000D03*
X76900000Y-118400000D03*
X78100000Y-136300000D03*
X81300000Y-139400000D03*
X79800000Y-139400000D03*
X78300000Y-139400000D03*
X80100000Y-136200000D03*
X79400000Y-136900000D03*
D21*
X75500000Y-131100000D03*
X68400000Y-129400000D03*
X70300000Y-126900000D03*
X81600000Y-128100000D03*
D23*
X84564754Y-124317759D03*
D21*
X79700000Y-113000000D03*
X99000000Y-120500000D03*
X96700000Y-120500000D03*
X86900000Y-108800000D03*
X100000000Y-117500000D03*
X102600000Y-114200000D03*
X103825000Y-116455000D03*
X97600000Y-123700000D03*
X109100000Y-121800000D03*
X104500000Y-124900000D03*
X60075000Y-148300000D03*
X60075000Y-147400000D03*
X60075000Y-146500000D03*
X60075000Y-145600000D03*
X60075000Y-144700000D03*
X60075000Y-143800000D03*
X60075000Y-142900000D03*
X60075000Y-142000000D03*
D23*
X86700000Y-126000000D03*
X88100000Y-125200000D03*
X84867034Y-118102904D03*
X80500000Y-130398000D03*
X77500000Y-130700000D03*
X89100000Y-117600000D03*
X86000000Y-118700000D03*
X85380000Y-132898000D03*
X87200000Y-115800000D03*
X89124789Y-120875210D03*
X86073564Y-121326436D03*
X83500000Y-132898000D03*
X88826965Y-122321284D03*
D22*
X75300000Y-136700000D03*
D21*
X84206791Y-125993209D03*
D22*
X75108976Y-137569959D03*
D21*
X88700000Y-123600000D03*
D22*
X75621487Y-138210446D03*
D21*
X89600000Y-121800000D03*
X89100000Y-119600000D03*
X84800000Y-115600000D03*
X75700000Y-135400000D03*
X74800000Y-135100000D03*
X89100000Y-118600000D03*
X76832216Y-127932216D03*
X82000000Y-124700000D03*
D24*
X74200000Y-136900000D02*
X74200000Y-136600000D01*
X74200000Y-136600000D02*
X74700000Y-136100000D01*
X74700000Y-136100000D02*
X77072056Y-136100000D01*
X77072056Y-136100000D02*
X82562963Y-130609093D01*
D25*
X80900000Y-142500000D02*
X80900000Y-143400000D01*
X80900000Y-143400000D02*
X79200000Y-145100000D01*
X79200000Y-145100000D02*
X77400000Y-145100000D01*
X77400000Y-145100000D02*
X76700000Y-144400000D01*
D26*
X70100000Y-140300000D02*
X69200000Y-140300000D01*
D25*
X83695717Y-121054000D02*
X83695717Y-114995717D01*
X83695717Y-114995717D02*
X82943767Y-114243767D01*
X83280940Y-123038570D02*
X83280940Y-121468777D01*
X83280940Y-121468777D02*
X83695717Y-121054000D01*
X81347999Y-125459462D02*
X81401999Y-125513462D01*
X81401999Y-125513462D02*
X82186538Y-125513462D01*
X82186538Y-125513462D02*
X83280940Y-124419060D01*
X83280940Y-124419060D02*
X83280940Y-123038570D01*
X77617784Y-126017784D02*
X80789677Y-126017784D01*
X80789677Y-126017784D02*
X81347999Y-125459462D01*
X75800000Y-127900000D02*
X75800000Y-127835568D01*
X75800000Y-127835568D02*
X77617784Y-126017784D01*
D26*
X72753500Y-132100000D02*
X72753500Y-137646500D01*
X72753500Y-132100000D02*
X72753500Y-123646500D01*
X72753500Y-123646500D02*
X74700000Y-121700000D01*
X72753500Y-137646500D02*
X70100000Y-140300000D01*
D24*
X84906792Y-139793208D02*
X84906792Y-134406792D01*
X82700000Y-142000000D02*
X84906792Y-139793208D01*
D26*
X74700000Y-119200000D02*
X74700000Y-115675000D01*
X74700000Y-115675000D02*
X77315000Y-113060000D01*
X74700000Y-121700000D02*
X74700000Y-119200000D01*
%TA.AperFunction,Conductor*%
G36*
X37247245Y-106214370D02*
G01*
X37291757Y-106254148D01*
X37312524Y-106310116D01*
X37304733Y-106369302D01*
X37267000Y-106465444D01*
X37206684Y-106729702D01*
X37186428Y-106999999D01*
X37206684Y-107270297D01*
X37267001Y-107534561D01*
X37366028Y-107786877D01*
X37366029Y-107786879D01*
X37501557Y-108021621D01*
X37670558Y-108233542D01*
X37869257Y-108417907D01*
X38093215Y-108570599D01*
X38337428Y-108688206D01*
X38596442Y-108768101D01*
X38864471Y-108808500D01*
X38864472Y-108808500D01*
X39135528Y-108808500D01*
X39135529Y-108808500D01*
X39269543Y-108788300D01*
X39403558Y-108768101D01*
X39662572Y-108688206D01*
X39906786Y-108570599D01*
X40130743Y-108417907D01*
X40130746Y-108417903D01*
X40130749Y-108417902D01*
X40237175Y-108319153D01*
X40329442Y-108233542D01*
X40498443Y-108021621D01*
X40633971Y-107786879D01*
X40732999Y-107534559D01*
X40793315Y-107270299D01*
X40813571Y-107000000D01*
X40793315Y-106729701D01*
X40732999Y-106465441D01*
X40695266Y-106369300D01*
X40687476Y-106310116D01*
X40708243Y-106254148D01*
X40752755Y-106214370D01*
X40810696Y-106200000D01*
X57268882Y-106200000D01*
X57330769Y-106216548D01*
X57376139Y-106261774D01*
X57392881Y-106323609D01*
X57395015Y-106999999D01*
X57397539Y-107799997D01*
X57397539Y-107800004D01*
X57397544Y-107801617D01*
X57397544Y-107801619D01*
X57400378Y-108699997D01*
X57401955Y-109199997D01*
X57401955Y-109200004D01*
X57401960Y-109201618D01*
X57401960Y-109201620D01*
X57404163Y-109899997D01*
X57453451Y-125523999D01*
X57453451Y-125524005D01*
X57453456Y-125525617D01*
X57453456Y-125525619D01*
X57456656Y-126539999D01*
X57467255Y-129899997D01*
X57467255Y-129900004D01*
X57467260Y-129901618D01*
X57467260Y-129901620D01*
X57472933Y-131699997D01*
X57472933Y-131700004D01*
X57472938Y-131701617D01*
X57472938Y-131701619D01*
X57484485Y-135362108D01*
X57468003Y-135424273D01*
X57422599Y-135469821D01*
X57360486Y-135486499D01*
X33724500Y-135486500D01*
X33662500Y-135469887D01*
X33617113Y-135424500D01*
X33600500Y-135362500D01*
X33600500Y-129763740D01*
X40403310Y-129763740D01*
X40603053Y-129886143D01*
X40827207Y-129978991D01*
X41063124Y-130035629D01*
X41305000Y-130054665D01*
X41546875Y-130035629D01*
X41782792Y-129978991D01*
X42006946Y-129886142D01*
X42206688Y-129763740D01*
X41305000Y-128862053D01*
X40403310Y-129763740D01*
X33600500Y-129763740D01*
X33600500Y-128508499D01*
X39758834Y-128508499D01*
X39777870Y-128750375D01*
X39834508Y-128986292D01*
X39927356Y-129210446D01*
X40049758Y-129410188D01*
X40951447Y-128508501D01*
X41658553Y-128508501D01*
X42560240Y-129410188D01*
X42682642Y-129210446D01*
X42775491Y-128986292D01*
X42832129Y-128750375D01*
X42851165Y-128508499D01*
X42832129Y-128266624D01*
X42780787Y-128052769D01*
X42782936Y-127987058D01*
X42818377Y-127931682D01*
X42877147Y-127902209D01*
X42942724Y-127906924D01*
X42996673Y-127944502D01*
X43041426Y-127998277D01*
X43125777Y-128099635D01*
X43330310Y-128282898D01*
X43559347Y-128434428D01*
X43626822Y-128466059D01*
X43808002Y-128550993D01*
X43808004Y-128550993D01*
X43808007Y-128550995D01*
X44070988Y-128630114D01*
X44342687Y-128670100D01*
X44548562Y-128670100D01*
X44548566Y-128670100D01*
X44753893Y-128655072D01*
X44753892Y-128655072D01*
X45021948Y-128595360D01*
X45278453Y-128497255D01*
X45517940Y-128362848D01*
X45735305Y-128195004D01*
X45925916Y-127997300D01*
X46085709Y-127773950D01*
X46211280Y-127529714D01*
X46272562Y-127350082D01*
X46299951Y-127269799D01*
X46349833Y-126999740D01*
X46359863Y-126725298D01*
X46338413Y-126530357D01*
X46329827Y-126452320D01*
X46260365Y-126186624D01*
X46152958Y-125933873D01*
X46009894Y-125699455D01*
X46004164Y-125692570D01*
X45919386Y-125590699D01*
X45834223Y-125488365D01*
X45629690Y-125305102D01*
X45400653Y-125153572D01*
X45400649Y-125153570D01*
X45151997Y-125037006D01*
X45045911Y-125005089D01*
X44889012Y-124957886D01*
X44617313Y-124917900D01*
X44411438Y-124917900D01*
X44411434Y-124917900D01*
X44206106Y-124932927D01*
X43938054Y-124992639D01*
X43681545Y-125090745D01*
X43442060Y-125225152D01*
X43224693Y-125392996D01*
X43034083Y-125590699D01*
X42874289Y-125814051D01*
X42748719Y-126058286D01*
X42660048Y-126318200D01*
X42610166Y-126588259D01*
X42600136Y-126862701D01*
X42630172Y-127135678D01*
X42660912Y-127253258D01*
X42699635Y-127401376D01*
X42715325Y-127438298D01*
X42724299Y-127501733D01*
X42700411Y-127561181D01*
X42650038Y-127600771D01*
X42586628Y-127609934D01*
X42560240Y-127606810D01*
X41658553Y-128508500D01*
X41658553Y-128508501D01*
X40951447Y-128508501D01*
X40951447Y-128508500D01*
X40049758Y-127606810D01*
X40049757Y-127606810D01*
X39927355Y-127806554D01*
X39834508Y-128030707D01*
X39777870Y-128266624D01*
X39758834Y-128508499D01*
X33600500Y-128508499D01*
X33600500Y-127253258D01*
X40403310Y-127253258D01*
X41305000Y-128154947D01*
X41305001Y-128154947D01*
X42206688Y-127253258D01*
X42006946Y-127130856D01*
X41782792Y-127038008D01*
X41546875Y-126981370D01*
X41305000Y-126962334D01*
X41063124Y-126981370D01*
X40827207Y-127038008D01*
X40603054Y-127130855D01*
X40403310Y-127253257D01*
X40403310Y-127253258D01*
X33600500Y-127253258D01*
X33600500Y-113634740D01*
X40403310Y-113634740D01*
X40603053Y-113757143D01*
X40827207Y-113849991D01*
X41063124Y-113906629D01*
X41305000Y-113925665D01*
X41546875Y-113906629D01*
X41782792Y-113849991D01*
X42006946Y-113757142D01*
X42206688Y-113634740D01*
X41305000Y-112733053D01*
X40403310Y-113634740D01*
X33600500Y-113634740D01*
X33600500Y-112379499D01*
X39758834Y-112379499D01*
X39777870Y-112621375D01*
X39834508Y-112857292D01*
X39927356Y-113081446D01*
X40049758Y-113281188D01*
X40951447Y-112379501D01*
X41658553Y-112379501D01*
X42560240Y-113281188D01*
X42588563Y-113277836D01*
X42649883Y-113286124D01*
X42699563Y-113323013D01*
X42725232Y-113379316D01*
X42720497Y-113441013D01*
X42660047Y-113618206D01*
X42610166Y-113888259D01*
X42600136Y-114162701D01*
X42630172Y-114435678D01*
X42670525Y-114590029D01*
X42699635Y-114701376D01*
X42807042Y-114954127D01*
X42900154Y-115106696D01*
X42950107Y-115188547D01*
X43040613Y-115297300D01*
X43125777Y-115399635D01*
X43330310Y-115582898D01*
X43559347Y-115734428D01*
X43617500Y-115761689D01*
X43808002Y-115850993D01*
X43808004Y-115850993D01*
X43808007Y-115850995D01*
X44070988Y-115930114D01*
X44342687Y-115970100D01*
X44548562Y-115970100D01*
X44548566Y-115970100D01*
X44753893Y-115955072D01*
X44759953Y-115953722D01*
X45021948Y-115895360D01*
X45278453Y-115797255D01*
X45517940Y-115662848D01*
X45735305Y-115495004D01*
X45925916Y-115297300D01*
X46085709Y-115073950D01*
X46211280Y-114829714D01*
X46276862Y-114637478D01*
X46299951Y-114569799D01*
X46349833Y-114299740D01*
X46359863Y-114025298D01*
X46354089Y-113972824D01*
X46329827Y-113752320D01*
X46260365Y-113486624D01*
X46152958Y-113233873D01*
X46009894Y-112999455D01*
X46006499Y-112995376D01*
X45915154Y-112885613D01*
X45834223Y-112788365D01*
X45629690Y-112605102D01*
X45400653Y-112453572D01*
X45400649Y-112453570D01*
X45151997Y-112337006D01*
X45009213Y-112294049D01*
X44889012Y-112257886D01*
X44617313Y-112217900D01*
X44411438Y-112217900D01*
X44411434Y-112217900D01*
X44206106Y-112232927D01*
X43938054Y-112292639D01*
X43681545Y-112390745D01*
X43442060Y-112525152D01*
X43224693Y-112692996D01*
X43034082Y-112890701D01*
X43002597Y-112934709D01*
X42949871Y-112976840D01*
X42882889Y-112985115D01*
X42821494Y-112957083D01*
X42783875Y-112901048D01*
X42781176Y-112833611D01*
X42832129Y-112621375D01*
X42851165Y-112379499D01*
X42832129Y-112137624D01*
X42775491Y-111901707D01*
X42682643Y-111677553D01*
X42560240Y-111477810D01*
X41658553Y-112379500D01*
X41658553Y-112379501D01*
X40951447Y-112379501D01*
X40951447Y-112379500D01*
X40049758Y-111477810D01*
X40049757Y-111477810D01*
X39927355Y-111677554D01*
X39834508Y-111901707D01*
X39777870Y-112137624D01*
X39758834Y-112379499D01*
X33600500Y-112379499D01*
X33600500Y-111124258D01*
X40403310Y-111124258D01*
X41305000Y-112025947D01*
X41305001Y-112025947D01*
X42206688Y-111124258D01*
X42006946Y-111001856D01*
X41782792Y-110909008D01*
X41546875Y-110852370D01*
X41305000Y-110833334D01*
X41063124Y-110852370D01*
X40827207Y-110909008D01*
X40603054Y-111001855D01*
X40403310Y-111124257D01*
X40403310Y-111124258D01*
X33600500Y-111124258D01*
X33600500Y-106324000D01*
X33617113Y-106262000D01*
X33662500Y-106216613D01*
X33724500Y-106200000D01*
X37189304Y-106200000D01*
X37247245Y-106214370D01*
G37*
%TD.AperFunction*%
%TA.AperFunction,Conductor*%
G36*
X112737500Y-104417113D02*
G01*
X112782887Y-104462500D01*
X112799500Y-104524500D01*
X112799500Y-131476000D01*
X112782887Y-131538000D01*
X112737500Y-131583387D01*
X112675500Y-131600000D01*
X101900000Y-131600000D01*
X101915321Y-135675534D01*
X101898864Y-135737731D01*
X101853457Y-135783309D01*
X101791322Y-135800000D01*
X99455773Y-135800000D01*
X99391445Y-135782009D01*
X99345784Y-135733257D01*
X99332039Y-135667890D01*
X99354197Y-135604878D01*
X99369058Y-135583655D01*
X99462122Y-135384077D01*
X99519117Y-135171372D01*
X99538309Y-134952001D01*
X99519117Y-134732630D01*
X99462122Y-134519925D01*
X99369058Y-134320348D01*
X99242751Y-134139963D01*
X99087040Y-133984252D01*
X98906656Y-133857945D01*
X98775660Y-133796861D01*
X98707079Y-133764881D01*
X98494370Y-133707885D01*
X98275002Y-133688693D01*
X98055633Y-133707885D01*
X97842924Y-133764881D01*
X97659928Y-133850214D01*
X97643349Y-133857945D01*
X97583987Y-133899511D01*
X97462960Y-133984255D01*
X97307256Y-134139959D01*
X97307253Y-134139962D01*
X97307253Y-134139963D01*
X97190445Y-134306783D01*
X97180945Y-134320350D01*
X97087882Y-134519923D01*
X97030886Y-134732632D01*
X97011694Y-134952000D01*
X97030886Y-135171369D01*
X97087882Y-135384078D01*
X97121344Y-135455837D01*
X97180946Y-135583655D01*
X97195806Y-135604878D01*
X97217965Y-135667890D01*
X97204220Y-135733257D01*
X97158559Y-135782009D01*
X97094231Y-135800000D01*
X95602213Y-135800000D01*
X95539212Y-135782803D01*
X95493685Y-135735981D01*
X95478262Y-135672522D01*
X95497219Y-135610028D01*
X95500456Y-135604876D01*
X95533043Y-135553015D01*
X95593217Y-135381047D01*
X95613616Y-135200000D01*
X95593217Y-135018953D01*
X95533043Y-134846985D01*
X95436111Y-134692719D01*
X95307281Y-134563889D01*
X95153015Y-134466957D01*
X94981047Y-134406783D01*
X94981046Y-134406782D01*
X94981044Y-134406782D01*
X94800000Y-134386383D01*
X94618955Y-134406782D01*
X94446984Y-134466957D01*
X94292717Y-134563890D01*
X94163890Y-134692717D01*
X94066957Y-134846984D01*
X94006782Y-135018955D01*
X93986383Y-135199999D01*
X94006782Y-135381044D01*
X94006782Y-135381046D01*
X94006783Y-135381047D01*
X94066957Y-135553015D01*
X94086209Y-135583655D01*
X94102781Y-135610028D01*
X94121738Y-135672522D01*
X94106315Y-135735981D01*
X94060788Y-135782803D01*
X93997787Y-135800000D01*
X87200000Y-135800000D01*
X85724510Y-136619716D01*
X85662758Y-136635311D01*
X85601408Y-136618192D01*
X85556650Y-136572876D01*
X85540292Y-136511320D01*
X85540292Y-134953952D01*
X85559298Y-134887980D01*
X85577907Y-134858364D01*
X85639835Y-134759807D01*
X85700009Y-134587839D01*
X85720408Y-134406792D01*
X85700009Y-134225745D01*
X85639835Y-134053777D01*
X85542903Y-133899511D01*
X85493606Y-133850214D01*
X85462133Y-133796861D01*
X85460396Y-133734940D01*
X85488828Y-133679906D01*
X85540333Y-133645491D01*
X85549845Y-133642162D01*
X85549850Y-133642162D01*
X85711183Y-133585709D01*
X85855909Y-133494771D01*
X85976771Y-133373909D01*
X86067709Y-133229183D01*
X86124162Y-133067850D01*
X86143299Y-132898000D01*
X86124162Y-132728150D01*
X86067709Y-132566817D01*
X85976771Y-132422091D01*
X85932328Y-132377648D01*
X85899767Y-132320265D01*
X85901248Y-132254305D01*
X85936350Y-132198440D01*
X85995136Y-132168487D01*
X86060964Y-132172926D01*
X86118952Y-132193217D01*
X86300000Y-132213616D01*
X86420855Y-132199999D01*
X98486383Y-132199999D01*
X98506782Y-132381044D01*
X98506782Y-132381046D01*
X98506783Y-132381047D01*
X98566957Y-132553015D01*
X98663889Y-132707281D01*
X98792719Y-132836111D01*
X98946985Y-132933043D01*
X99118953Y-132993217D01*
X99300000Y-133013616D01*
X99481047Y-132993217D01*
X99653015Y-132933043D01*
X99807281Y-132836111D01*
X99936111Y-132707281D01*
X100033043Y-132553015D01*
X100093217Y-132381047D01*
X100113616Y-132200000D01*
X100093217Y-132018953D01*
X100033043Y-131846985D01*
X99936111Y-131692719D01*
X99807281Y-131563889D01*
X99653015Y-131466957D01*
X99481047Y-131406783D01*
X99481046Y-131406782D01*
X99481044Y-131406782D01*
X99300000Y-131386383D01*
X99118955Y-131406782D01*
X98946984Y-131466957D01*
X98792717Y-131563890D01*
X98663890Y-131692717D01*
X98566957Y-131846984D01*
X98506782Y-132018955D01*
X98486383Y-132199999D01*
X86420855Y-132199999D01*
X86481047Y-132193217D01*
X86653015Y-132133043D01*
X86807281Y-132036111D01*
X86936111Y-131907281D01*
X87033043Y-131753015D01*
X87093217Y-131581047D01*
X87113616Y-131400000D01*
X87093217Y-131218953D01*
X87033043Y-131046985D01*
X86936111Y-130892719D01*
X86807281Y-130763889D01*
X86653015Y-130666957D01*
X86481047Y-130606783D01*
X86481046Y-130606782D01*
X86481044Y-130606782D01*
X86300000Y-130586383D01*
X86118955Y-130606782D01*
X85946984Y-130666957D01*
X85792717Y-130763890D01*
X85663890Y-130892717D01*
X85566957Y-131046984D01*
X85506782Y-131218955D01*
X85486383Y-131399999D01*
X85506782Y-131581044D01*
X85506782Y-131581046D01*
X85506783Y-131581047D01*
X85566957Y-131753015D01*
X85633749Y-131859314D01*
X85663890Y-131907282D01*
X85720384Y-131963776D01*
X85752944Y-132021159D01*
X85751464Y-132087119D01*
X85716363Y-132142983D01*
X85657577Y-132172937D01*
X85591749Y-132168499D01*
X85549848Y-132153837D01*
X85380000Y-132134700D01*
X85210153Y-132153837D01*
X85210150Y-132153837D01*
X85210150Y-132153838D01*
X85048817Y-132210291D01*
X85048815Y-132210291D01*
X85048815Y-132210292D01*
X84904089Y-132301230D01*
X84783230Y-132422089D01*
X84692292Y-132566815D01*
X84635837Y-132728153D01*
X84616700Y-132897999D01*
X84635837Y-133067846D01*
X84635837Y-133067848D01*
X84635838Y-133067850D01*
X84692291Y-133229183D01*
X84745344Y-133313616D01*
X84783230Y-133373910D01*
X84810732Y-133401412D01*
X84843942Y-133461499D01*
X84840093Y-133530045D01*
X84800366Y-133586038D01*
X84736939Y-133612313D01*
X84725747Y-133613574D01*
X84553776Y-133673749D01*
X84399509Y-133770682D01*
X84270682Y-133899509D01*
X84173749Y-134053776D01*
X84113574Y-134225747D01*
X84093175Y-134406792D01*
X84113574Y-134587836D01*
X84113574Y-134587838D01*
X84113575Y-134587839D01*
X84173749Y-134759807D01*
X84201515Y-134803997D01*
X84254286Y-134887980D01*
X84273292Y-134953952D01*
X84273292Y-137352986D01*
X84256164Y-137415870D01*
X84209512Y-137461381D01*
X83599999Y-137800000D01*
X83236319Y-138163681D01*
X83196091Y-138190561D01*
X83148638Y-138200000D01*
X82000000Y-138200000D01*
X82000000Y-138727958D01*
X81986485Y-138784253D01*
X81948885Y-138828276D01*
X81895398Y-138850431D01*
X81837682Y-138845889D01*
X81788319Y-138815639D01*
X81775910Y-138803230D01*
X81775909Y-138803229D01*
X81631183Y-138712291D01*
X81469850Y-138655838D01*
X81469848Y-138655837D01*
X81469846Y-138655837D01*
X81300000Y-138636700D01*
X81130153Y-138655837D01*
X81130150Y-138655837D01*
X81130150Y-138655838D01*
X80968817Y-138712291D01*
X80968815Y-138712291D01*
X80968815Y-138712292D01*
X80824089Y-138803230D01*
X80703229Y-138924090D01*
X80654993Y-139000857D01*
X80609981Y-139043412D01*
X80550000Y-139058884D01*
X80490019Y-139043412D01*
X80445007Y-139000857D01*
X80396770Y-138924090D01*
X80275910Y-138803230D01*
X80275909Y-138803229D01*
X80131183Y-138712291D01*
X79969850Y-138655838D01*
X79969848Y-138655837D01*
X79969846Y-138655837D01*
X79800000Y-138636700D01*
X79630153Y-138655837D01*
X79630150Y-138655837D01*
X79630150Y-138655838D01*
X79468817Y-138712291D01*
X79468815Y-138712291D01*
X79468815Y-138712292D01*
X79324089Y-138803230D01*
X79203229Y-138924090D01*
X79154993Y-139000857D01*
X79109981Y-139043412D01*
X79050000Y-139058884D01*
X78990019Y-139043412D01*
X78945007Y-139000857D01*
X78896770Y-138924090D01*
X78775910Y-138803230D01*
X78775909Y-138803229D01*
X78631183Y-138712291D01*
X78469850Y-138655838D01*
X78469848Y-138655837D01*
X78469846Y-138655837D01*
X78300000Y-138636700D01*
X78130153Y-138655837D01*
X78130150Y-138655837D01*
X78130150Y-138655838D01*
X77968817Y-138712291D01*
X77968815Y-138712291D01*
X77968815Y-138712292D01*
X77824089Y-138803230D01*
X77703230Y-138924089D01*
X77626009Y-139046984D01*
X77612291Y-139068817D01*
X77594729Y-139119006D01*
X77555837Y-139230153D01*
X77536700Y-139400000D01*
X77555837Y-139569846D01*
X77555837Y-139569848D01*
X77555838Y-139569850D01*
X77612291Y-139731183D01*
X77703229Y-139875909D01*
X77824091Y-139996771D01*
X77968817Y-140087709D01*
X78130150Y-140144162D01*
X78300000Y-140163299D01*
X78469850Y-140144162D01*
X78631183Y-140087709D01*
X78775909Y-139996771D01*
X78896771Y-139875909D01*
X78945007Y-139799141D01*
X78990019Y-139756587D01*
X79050000Y-139741115D01*
X79109981Y-139756587D01*
X79154992Y-139799141D01*
X79203229Y-139875909D01*
X79324091Y-139996771D01*
X79468817Y-140087709D01*
X79630150Y-140144162D01*
X79800000Y-140163299D01*
X79969850Y-140144162D01*
X80131183Y-140087709D01*
X80275909Y-139996771D01*
X80396771Y-139875909D01*
X80445007Y-139799141D01*
X80490019Y-139756587D01*
X80550000Y-139741115D01*
X80609981Y-139756587D01*
X80654992Y-139799141D01*
X80703229Y-139875909D01*
X80824091Y-139996771D01*
X80968817Y-140087709D01*
X81130150Y-140144162D01*
X81300000Y-140163299D01*
X81469850Y-140144162D01*
X81631183Y-140087709D01*
X81775909Y-139996771D01*
X81896771Y-139875909D01*
X81987709Y-139731183D01*
X82044162Y-139569850D01*
X82063299Y-139400000D01*
X82057900Y-139352082D01*
X82045034Y-139237883D01*
X82056534Y-139170198D01*
X82102282Y-139119006D01*
X82168254Y-139100000D01*
X83476000Y-139100000D01*
X83538000Y-139116613D01*
X83583387Y-139162000D01*
X83600000Y-139224000D01*
X83600000Y-140152733D01*
X83590561Y-140200186D01*
X83563681Y-140240414D01*
X82637942Y-141166151D01*
X82604063Y-141190190D01*
X82564146Y-141201690D01*
X82518955Y-141206782D01*
X82346984Y-141266957D01*
X82192717Y-141363890D01*
X82063890Y-141492717D01*
X81966957Y-141646984D01*
X81906782Y-141818955D01*
X81886383Y-142000000D01*
X81907908Y-142191040D01*
X81905085Y-142212476D01*
X81932352Y-142254121D01*
X81966955Y-142353012D01*
X81966957Y-142353015D01*
X82063889Y-142507281D01*
X82192719Y-142636111D01*
X82346985Y-142733043D01*
X82518953Y-142793217D01*
X82700000Y-142813616D01*
X82881047Y-142793217D01*
X83053015Y-142733043D01*
X83184030Y-142650720D01*
X83250000Y-142631715D01*
X83315969Y-142650720D01*
X83446985Y-142733043D01*
X83618953Y-142793217D01*
X83800000Y-142813616D01*
X83981047Y-142793217D01*
X84153015Y-142733043D01*
X84234027Y-142682138D01*
X84300000Y-142663132D01*
X84365972Y-142682138D01*
X84446985Y-142733043D01*
X84618953Y-142793217D01*
X84800000Y-142813616D01*
X84981047Y-142793217D01*
X85153015Y-142733043D01*
X85234027Y-142682138D01*
X85300000Y-142663132D01*
X85365972Y-142682138D01*
X85446985Y-142733043D01*
X85618953Y-142793217D01*
X85800000Y-142813616D01*
X85981047Y-142793217D01*
X86153015Y-142733043D01*
X86307281Y-142636111D01*
X86436111Y-142507281D01*
X86533043Y-142353015D01*
X86593217Y-142181047D01*
X86613616Y-142000000D01*
X86593217Y-141818953D01*
X86533043Y-141646985D01*
X86436111Y-141492719D01*
X86307281Y-141363889D01*
X86251743Y-141328992D01*
X86208523Y-141282760D01*
X86193748Y-141221218D01*
X86211269Y-141160400D01*
X86256522Y-141116152D01*
X86317717Y-141100000D01*
X100576000Y-141100000D01*
X100638000Y-141116613D01*
X100683387Y-141162000D01*
X100700000Y-141224000D01*
X100700000Y-147200000D01*
X101835112Y-147200000D01*
X101896977Y-147216535D01*
X101942343Y-147261731D01*
X101959111Y-147323534D01*
X101998778Y-157875034D01*
X101982321Y-157937231D01*
X101936914Y-157982809D01*
X101874779Y-157999500D01*
X33724500Y-157999500D01*
X33662500Y-157982887D01*
X33617113Y-157937500D01*
X33600500Y-157875500D01*
X33600500Y-154999999D01*
X37186428Y-154999999D01*
X37206684Y-155270297D01*
X37267001Y-155534561D01*
X37299904Y-155618396D01*
X37366029Y-155786879D01*
X37501557Y-156021621D01*
X37670558Y-156233542D01*
X37869257Y-156417907D01*
X38093215Y-156570599D01*
X38337428Y-156688206D01*
X38596441Y-156768100D01*
X38596442Y-156768101D01*
X38864471Y-156808500D01*
X38864472Y-156808500D01*
X39135528Y-156808500D01*
X39135529Y-156808500D01*
X39269542Y-156788300D01*
X39403558Y-156768101D01*
X39662572Y-156688206D01*
X39906786Y-156570599D01*
X40130743Y-156417907D01*
X40130746Y-156417903D01*
X40130749Y-156417902D01*
X40180640Y-156371609D01*
X45236500Y-156371609D01*
X45245713Y-156468094D01*
X45251241Y-156525989D01*
X45309537Y-156724526D01*
X45404357Y-156908451D01*
X45470707Y-156992820D01*
X45532268Y-157071101D01*
X45673744Y-157193691D01*
X45688651Y-157206608D01*
X45867849Y-157310068D01*
X45867851Y-157310069D01*
X45959891Y-157341924D01*
X46063392Y-157377747D01*
X46097784Y-157382691D01*
X46268211Y-157407195D01*
X46474899Y-157397349D01*
X46675990Y-157348565D01*
X46760287Y-157310068D01*
X46864213Y-157262607D01*
X46942852Y-157206608D01*
X47032769Y-157142579D01*
X47175562Y-156992822D01*
X47287433Y-156818747D01*
X47364339Y-156626646D01*
X47403500Y-156423462D01*
X47403500Y-156371609D01*
X52986500Y-156371609D01*
X52995713Y-156468094D01*
X53001241Y-156525989D01*
X53059537Y-156724526D01*
X53154357Y-156908451D01*
X53220707Y-156992820D01*
X53282268Y-157071101D01*
X53423744Y-157193691D01*
X53438651Y-157206608D01*
X53617849Y-157310068D01*
X53617851Y-157310069D01*
X53709891Y-157341924D01*
X53813392Y-157377747D01*
X53847784Y-157382691D01*
X54018211Y-157407195D01*
X54224899Y-157397349D01*
X54425990Y-157348565D01*
X54510287Y-157310068D01*
X54614213Y-157262607D01*
X54692852Y-157206608D01*
X54782769Y-157142579D01*
X54925562Y-156992822D01*
X55037433Y-156818747D01*
X55114339Y-156626646D01*
X55153500Y-156423462D01*
X55153500Y-155618391D01*
X55138759Y-155464014D01*
X55080462Y-155265472D01*
X54985644Y-155081551D01*
X54857732Y-154918899D01*
X54701350Y-154783393D01*
X54701348Y-154783391D01*
X54522150Y-154679931D01*
X54326607Y-154612252D01*
X54121790Y-154582805D01*
X54121789Y-154582805D01*
X54018444Y-154587728D01*
X53915100Y-154592651D01*
X53714005Y-154641436D01*
X53525786Y-154727392D01*
X53357233Y-154847419D01*
X53214437Y-154997179D01*
X53102567Y-155171250D01*
X53025660Y-155363355D01*
X52992663Y-155534561D01*
X52986500Y-155566538D01*
X52986500Y-156371609D01*
X47403500Y-156371609D01*
X47403500Y-155618391D01*
X47388759Y-155464014D01*
X47330462Y-155265472D01*
X47235644Y-155081551D01*
X47107732Y-154918899D01*
X46951350Y-154783393D01*
X46951348Y-154783391D01*
X46772150Y-154679931D01*
X46576607Y-154612252D01*
X46371790Y-154582805D01*
X46371789Y-154582805D01*
X46268444Y-154587728D01*
X46165100Y-154592651D01*
X45964005Y-154641436D01*
X45775786Y-154727392D01*
X45607233Y-154847419D01*
X45464437Y-154997179D01*
X45352567Y-155171250D01*
X45275660Y-155363355D01*
X45242663Y-155534561D01*
X45236500Y-155566538D01*
X45236500Y-156371609D01*
X40180640Y-156371609D01*
X40218883Y-156336124D01*
X40329442Y-156233542D01*
X40498443Y-156021621D01*
X40633971Y-155786879D01*
X40732999Y-155534559D01*
X40793315Y-155270299D01*
X40813571Y-155000000D01*
X40793315Y-154729701D01*
X40732999Y-154465441D01*
X40633971Y-154213121D01*
X40498443Y-153978379D01*
X40329442Y-153766458D01*
X40307523Y-153746120D01*
X40130749Y-153582097D01*
X40050359Y-153527288D01*
X39906786Y-153429401D01*
X39662572Y-153311794D01*
X39577721Y-153285621D01*
X39403557Y-153231898D01*
X39135529Y-153191500D01*
X39135528Y-153191500D01*
X38864472Y-153191500D01*
X38864471Y-153191500D01*
X38596442Y-153231898D01*
X38337428Y-153311794D01*
X38093217Y-153429399D01*
X37869255Y-153582094D01*
X37670558Y-153766458D01*
X37501556Y-153978380D01*
X37366028Y-154213122D01*
X37267001Y-154465438D01*
X37206684Y-154729702D01*
X37186428Y-154999999D01*
X33600500Y-154999999D01*
X33600500Y-152525399D01*
X45236500Y-152525399D01*
X45251417Y-152691140D01*
X45256086Y-152708057D01*
X45310485Y-152905172D01*
X45406820Y-153105216D01*
X45478484Y-153203851D01*
X45537332Y-153284848D01*
X45697817Y-153438287D01*
X45883120Y-153560605D01*
X45907499Y-153571025D01*
X46087285Y-153647870D01*
X46150487Y-153662295D01*
X46303754Y-153697277D01*
X46498138Y-153706007D01*
X46525561Y-153707239D01*
X46525561Y-153707238D01*
X46525564Y-153707239D01*
X46745589Y-153677435D01*
X46761994Y-153672104D01*
X46773673Y-153668310D01*
X46824954Y-153662919D01*
X46873993Y-153678853D01*
X46912312Y-153713356D01*
X46928204Y-153735230D01*
X46935271Y-153746112D01*
X46955958Y-153781941D01*
X46955960Y-153781944D01*
X46983646Y-153812692D01*
X46991808Y-153822773D01*
X47016132Y-153856251D01*
X47046878Y-153883935D01*
X47056054Y-153893111D01*
X47074043Y-153913088D01*
X47083747Y-153923866D01*
X47117217Y-153948183D01*
X47127295Y-153956342D01*
X47158056Y-153984040D01*
X47173088Y-153992719D01*
X47193884Y-154004726D01*
X47204767Y-154011793D01*
X47238248Y-154036118D01*
X47276061Y-154052952D01*
X47287609Y-154058837D01*
X47323444Y-154079527D01*
X47362794Y-154092312D01*
X47374906Y-154096961D01*
X47412712Y-154113794D01*
X47453191Y-154122397D01*
X47465728Y-154125757D01*
X47505072Y-154138542D01*
X47546234Y-154142868D01*
X47559027Y-154144894D01*
X47599513Y-154153500D01*
X47647390Y-154153500D01*
X47790484Y-154153500D01*
X47790487Y-154153500D01*
X47830977Y-154144893D01*
X47843760Y-154142868D01*
X47884928Y-154138542D01*
X47924279Y-154125755D01*
X47936808Y-154122397D01*
X47977288Y-154113794D01*
X48015085Y-154096964D01*
X48027208Y-154092311D01*
X48040148Y-154088106D01*
X48066554Y-154079528D01*
X48073650Y-154075431D01*
X48102391Y-154058835D01*
X48113944Y-154052949D01*
X48151752Y-154036118D01*
X48185240Y-154011786D01*
X48196114Y-154004726D01*
X48231944Y-153984040D01*
X48262696Y-153956349D01*
X48272782Y-153948183D01*
X48306253Y-153923866D01*
X48333949Y-153893104D01*
X48343104Y-153883949D01*
X48373866Y-153856253D01*
X48398190Y-153822773D01*
X48406353Y-153812692D01*
X48434040Y-153781944D01*
X48454729Y-153746108D01*
X48461792Y-153735233D01*
X48486118Y-153701752D01*
X48486898Y-153700000D01*
X49686383Y-153700000D01*
X49706782Y-153881044D01*
X49706782Y-153881046D01*
X49706783Y-153881047D01*
X49766957Y-154053015D01*
X49863889Y-154207281D01*
X49992719Y-154336111D01*
X50146985Y-154433043D01*
X50318953Y-154493217D01*
X50500000Y-154513616D01*
X50681047Y-154493217D01*
X50853015Y-154433043D01*
X50934027Y-154382138D01*
X51000000Y-154363132D01*
X51065972Y-154382138D01*
X51146985Y-154433043D01*
X51318953Y-154493217D01*
X51500000Y-154513616D01*
X51681047Y-154493217D01*
X51853015Y-154433043D01*
X52007281Y-154336111D01*
X52136111Y-154207281D01*
X52183126Y-154132456D01*
X52221361Y-154093933D01*
X52272391Y-154075431D01*
X52326431Y-154080497D01*
X52362800Y-154092314D01*
X52374906Y-154096961D01*
X52412712Y-154113794D01*
X52453191Y-154122397D01*
X52465728Y-154125757D01*
X52505072Y-154138542D01*
X52546234Y-154142868D01*
X52559027Y-154144894D01*
X52599513Y-154153500D01*
X52647390Y-154153500D01*
X52790484Y-154153500D01*
X52790487Y-154153500D01*
X52830977Y-154144893D01*
X52843760Y-154142868D01*
X52884928Y-154138542D01*
X52924279Y-154125755D01*
X52936808Y-154122397D01*
X52977288Y-154113794D01*
X53015085Y-154096964D01*
X53027208Y-154092311D01*
X53040148Y-154088106D01*
X53066554Y-154079528D01*
X53073650Y-154075431D01*
X53102391Y-154058835D01*
X53113944Y-154052949D01*
X53151752Y-154036118D01*
X53185240Y-154011786D01*
X53196114Y-154004726D01*
X53231944Y-153984040D01*
X53262696Y-153956349D01*
X53272782Y-153948183D01*
X53306253Y-153923866D01*
X53333949Y-153893104D01*
X53343104Y-153883949D01*
X53373866Y-153856253D01*
X53398190Y-153822773D01*
X53406353Y-153812692D01*
X53434040Y-153781944D01*
X53454729Y-153746108D01*
X53461780Y-153735249D01*
X53478868Y-153711729D01*
X53513997Y-153679136D01*
X53558868Y-153662295D01*
X53606769Y-153663728D01*
X53753754Y-153697277D01*
X53950226Y-153706101D01*
X53975561Y-153707239D01*
X53975561Y-153707238D01*
X53975564Y-153707239D01*
X54195589Y-153677435D01*
X54406756Y-153608822D01*
X54602278Y-153503607D01*
X54775871Y-153365171D01*
X54921956Y-153197964D01*
X55035837Y-153007359D01*
X55113855Y-152799483D01*
X55115894Y-152788248D01*
X55153500Y-152581020D01*
X55153500Y-151864604D01*
X55148494Y-151808983D01*
X55138583Y-151698860D01*
X55079514Y-151484827D01*
X55069066Y-151463132D01*
X54983179Y-151284783D01*
X54897572Y-151166957D01*
X54852668Y-151105152D01*
X54692183Y-150951713D01*
X54692180Y-150951711D01*
X54692179Y-150951710D01*
X54593228Y-150886393D01*
X54506880Y-150829395D01*
X54506878Y-150829394D01*
X54302714Y-150742129D01*
X54086246Y-150692723D01*
X53864438Y-150682760D01*
X53644411Y-150712564D01*
X53486450Y-150763890D01*
X53433244Y-150781178D01*
X53237722Y-150886393D01*
X53212699Y-150906347D01*
X53064130Y-151024827D01*
X52918042Y-151192038D01*
X52804162Y-151382641D01*
X52726143Y-151590519D01*
X52686500Y-151808980D01*
X52686500Y-152217597D01*
X52673949Y-152271957D01*
X52638838Y-152315314D01*
X52588273Y-152338889D01*
X52559034Y-152345102D01*
X52546228Y-152347130D01*
X52505072Y-152351457D01*
X52465718Y-152364244D01*
X52453187Y-152367602D01*
X52412712Y-152376206D01*
X52412710Y-152376206D01*
X52412709Y-152376207D01*
X52374911Y-152393035D01*
X52362801Y-152397684D01*
X52323444Y-152410473D01*
X52287610Y-152431161D01*
X52276050Y-152437051D01*
X52238246Y-152453882D01*
X52204767Y-152478205D01*
X52193891Y-152485268D01*
X52158057Y-152505958D01*
X52127307Y-152533645D01*
X52117226Y-152541809D01*
X52083747Y-152566134D01*
X52056058Y-152596885D01*
X52046885Y-152606058D01*
X52016134Y-152633747D01*
X51991809Y-152667226D01*
X51983645Y-152677307D01*
X51955958Y-152708057D01*
X51935268Y-152743891D01*
X51928205Y-152754767D01*
X51903882Y-152788246D01*
X51887051Y-152826050D01*
X51881161Y-152837610D01*
X51865675Y-152864434D01*
X51826857Y-152905752D01*
X51773707Y-152925474D01*
X51717334Y-152919479D01*
X51681048Y-152906782D01*
X51500000Y-152886383D01*
X51318955Y-152906782D01*
X51146982Y-152966958D01*
X51065970Y-153017861D01*
X50999998Y-153036867D01*
X50934028Y-153017861D01*
X50853015Y-152966957D01*
X50681047Y-152906783D01*
X50681046Y-152906782D01*
X50681044Y-152906782D01*
X50500000Y-152886383D01*
X50318955Y-152906782D01*
X50146984Y-152966957D01*
X49992717Y-153063890D01*
X49863890Y-153192717D01*
X49766957Y-153346984D01*
X49706782Y-153518955D01*
X49686383Y-153700000D01*
X48486898Y-153700000D01*
X48502949Y-153663944D01*
X48508835Y-153652391D01*
X48529527Y-153616556D01*
X48542311Y-153577208D01*
X48546964Y-153565087D01*
X48563793Y-153527290D01*
X48563792Y-153527290D01*
X48563794Y-153527288D01*
X48572397Y-153486808D01*
X48575757Y-153474272D01*
X48588542Y-153434928D01*
X48592868Y-153393760D01*
X48594893Y-153380977D01*
X48603500Y-153340487D01*
X48603500Y-153299110D01*
X48604179Y-153286149D01*
X48608504Y-153245000D01*
X48604178Y-153203849D01*
X48603500Y-153190890D01*
X48603500Y-153149515D01*
X48603500Y-153149513D01*
X48594894Y-153109027D01*
X48592868Y-153096234D01*
X48588542Y-153055072D01*
X48575757Y-153015728D01*
X48572397Y-153003189D01*
X48564696Y-152966957D01*
X48563794Y-152962712D01*
X48546961Y-152924906D01*
X48542309Y-152912786D01*
X48540358Y-152906782D01*
X48529527Y-152873444D01*
X48508837Y-152837609D01*
X48502952Y-152826061D01*
X48486118Y-152788248D01*
X48461793Y-152754767D01*
X48454726Y-152743884D01*
X48434042Y-152708060D01*
X48434040Y-152708056D01*
X48406342Y-152677295D01*
X48398186Y-152667222D01*
X48373866Y-152633747D01*
X48363088Y-152624043D01*
X48343111Y-152606054D01*
X48333935Y-152596878D01*
X48306251Y-152566132D01*
X48272773Y-152541808D01*
X48262691Y-152533645D01*
X48231944Y-152505960D01*
X48231941Y-152505958D01*
X48196112Y-152485271D01*
X48185230Y-152478204D01*
X48151751Y-152453881D01*
X48113949Y-152437050D01*
X48102386Y-152431159D01*
X48066554Y-152410472D01*
X48027205Y-152397686D01*
X48015092Y-152393037D01*
X47996010Y-152384541D01*
X47977288Y-152376206D01*
X47936810Y-152367602D01*
X47924279Y-152364244D01*
X47884925Y-152351457D01*
X47843774Y-152347131D01*
X47830962Y-152345102D01*
X47801723Y-152338888D01*
X47751160Y-152315312D01*
X47716050Y-152271956D01*
X47703500Y-152217597D01*
X47703500Y-151864604D01*
X47698494Y-151808983D01*
X47688583Y-151698860D01*
X47629514Y-151484827D01*
X47619066Y-151463132D01*
X47533179Y-151284783D01*
X47447572Y-151166957D01*
X47402668Y-151105152D01*
X47242183Y-150951713D01*
X47242180Y-150951711D01*
X47242179Y-150951710D01*
X47143228Y-150886393D01*
X47056880Y-150829395D01*
X47056878Y-150829394D01*
X46988108Y-150800000D01*
X49986383Y-150800000D01*
X50006782Y-150981044D01*
X50006782Y-150981046D01*
X50006783Y-150981047D01*
X50066957Y-151153015D01*
X50163889Y-151307281D01*
X50292719Y-151436111D01*
X50446985Y-151533043D01*
X50618953Y-151593217D01*
X50729113Y-151605629D01*
X50799999Y-151613616D01*
X50799999Y-151613615D01*
X50800000Y-151613616D01*
X50981047Y-151593217D01*
X51153015Y-151533043D01*
X51234027Y-151482138D01*
X51300000Y-151463132D01*
X51365973Y-151482139D01*
X51432919Y-151524205D01*
X51446985Y-151533043D01*
X51618953Y-151593217D01*
X51729113Y-151605629D01*
X51799999Y-151613616D01*
X51799999Y-151613615D01*
X51800000Y-151613616D01*
X51981047Y-151593217D01*
X52153015Y-151533043D01*
X52307281Y-151436111D01*
X52436111Y-151307281D01*
X52533043Y-151153015D01*
X52593217Y-150981047D01*
X52613616Y-150800000D01*
X52593217Y-150618953D01*
X52533043Y-150446985D01*
X52436111Y-150292719D01*
X52307281Y-150163889D01*
X52153015Y-150066957D01*
X51981047Y-150006783D01*
X51981046Y-150006782D01*
X51981044Y-150006782D01*
X51800000Y-149986383D01*
X51618955Y-150006782D01*
X51446984Y-150066957D01*
X51365972Y-150117861D01*
X51300000Y-150136867D01*
X51234028Y-150117861D01*
X51153015Y-150066957D01*
X50981044Y-150006782D01*
X50800000Y-149986383D01*
X50618955Y-150006782D01*
X50446984Y-150066957D01*
X50292717Y-150163890D01*
X50163890Y-150292717D01*
X50066957Y-150446984D01*
X50006782Y-150618955D01*
X49986383Y-150800000D01*
X46988108Y-150800000D01*
X46852714Y-150742129D01*
X46636246Y-150692723D01*
X46414438Y-150682760D01*
X46194411Y-150712564D01*
X46036450Y-150763890D01*
X45983244Y-150781178D01*
X45787722Y-150886393D01*
X45762699Y-150906347D01*
X45614130Y-151024827D01*
X45468042Y-151192038D01*
X45354162Y-151382641D01*
X45276143Y-151590519D01*
X45236500Y-151808980D01*
X45236500Y-151808983D01*
X45236500Y-152525399D01*
X33600500Y-152525399D01*
X33600500Y-149200000D01*
X54386383Y-149200000D01*
X54406782Y-149381044D01*
X54406782Y-149381046D01*
X54406783Y-149381047D01*
X54466957Y-149553015D01*
X54563889Y-149707281D01*
X54692719Y-149836111D01*
X54846985Y-149933043D01*
X55018953Y-149993217D01*
X55200000Y-150013616D01*
X55381047Y-149993217D01*
X55553015Y-149933043D01*
X55707281Y-149836111D01*
X55836111Y-149707281D01*
X55840687Y-149699999D01*
X61986383Y-149699999D01*
X62006782Y-149881044D01*
X62006782Y-149881046D01*
X62006783Y-149881047D01*
X62066957Y-150053015D01*
X62163889Y-150207281D01*
X62292719Y-150336111D01*
X62446985Y-150433043D01*
X62618953Y-150493217D01*
X62709476Y-150503416D01*
X62799998Y-150513616D01*
X62799998Y-150513615D01*
X62800000Y-150513616D01*
X62858450Y-150507030D01*
X62923614Y-150517350D01*
X62974261Y-150559632D01*
X62996053Y-150621907D01*
X62982820Y-150686543D01*
X62938308Y-150735243D01*
X62892717Y-150763890D01*
X62763890Y-150892717D01*
X62666957Y-151046984D01*
X62606782Y-151218955D01*
X62586383Y-151400000D01*
X62606782Y-151581044D01*
X62666957Y-151753015D01*
X62728333Y-151850694D01*
X62747339Y-151916666D01*
X62728333Y-151982638D01*
X62666957Y-152080317D01*
X62606782Y-152252288D01*
X62586383Y-152433333D01*
X62606782Y-152614377D01*
X62606782Y-152614379D01*
X62606783Y-152614380D01*
X62666957Y-152786348D01*
X62691903Y-152826050D01*
X62728333Y-152884027D01*
X62747339Y-152949999D01*
X62728333Y-153015971D01*
X62666957Y-153113650D01*
X62606782Y-153285621D01*
X62586383Y-153466665D01*
X62606782Y-153647710D01*
X62606782Y-153647712D01*
X62606783Y-153647713D01*
X62666957Y-153819681D01*
X62721686Y-153906782D01*
X62728334Y-153917361D01*
X62747340Y-153983333D01*
X62728334Y-154049303D01*
X62709344Y-154079527D01*
X62666957Y-154146984D01*
X62606782Y-154318955D01*
X62586383Y-154500000D01*
X62606782Y-154681044D01*
X62606782Y-154681046D01*
X62606783Y-154681047D01*
X62666957Y-154853015D01*
X62763889Y-155007281D01*
X62892719Y-155136111D01*
X63046985Y-155233043D01*
X63218953Y-155293217D01*
X63400000Y-155313616D01*
X63581047Y-155293217D01*
X63753015Y-155233043D01*
X63907281Y-155136111D01*
X64036111Y-155007281D01*
X64133043Y-154853015D01*
X64186585Y-154700000D01*
X66086383Y-154700000D01*
X66106782Y-154881044D01*
X66106782Y-154881046D01*
X66106783Y-154881047D01*
X66166957Y-155053015D01*
X66263889Y-155207281D01*
X66392719Y-155336111D01*
X66546985Y-155433043D01*
X66718953Y-155493217D01*
X66900000Y-155513616D01*
X67081047Y-155493217D01*
X67253015Y-155433043D01*
X67407281Y-155336111D01*
X67536111Y-155207281D01*
X67633043Y-155053015D01*
X67693217Y-154881047D01*
X67713616Y-154700000D01*
X67693217Y-154518953D01*
X67633043Y-154346985D01*
X67536111Y-154192719D01*
X67407281Y-154063889D01*
X67253015Y-153966957D01*
X67081047Y-153906783D01*
X67081046Y-153906782D01*
X67081044Y-153906782D01*
X66900000Y-153886383D01*
X66718955Y-153906782D01*
X66546984Y-153966957D01*
X66392717Y-154063890D01*
X66263890Y-154192717D01*
X66166957Y-154346984D01*
X66106782Y-154518955D01*
X66086383Y-154700000D01*
X64186585Y-154700000D01*
X64193217Y-154681047D01*
X64213616Y-154500000D01*
X64193217Y-154318953D01*
X64133043Y-154146985D01*
X64071665Y-154049302D01*
X64052659Y-153983333D01*
X64071666Y-153917361D01*
X64133043Y-153819681D01*
X64193217Y-153647713D01*
X64213616Y-153466666D01*
X64210418Y-153438287D01*
X64204675Y-153387315D01*
X64193217Y-153285619D01*
X64133043Y-153113651D01*
X64071665Y-153015969D01*
X64052660Y-152949999D01*
X64071667Y-152884027D01*
X64133043Y-152786348D01*
X64193217Y-152614380D01*
X64213616Y-152433333D01*
X64193217Y-152252286D01*
X64133043Y-152080318D01*
X64071665Y-151982636D01*
X64052660Y-151916666D01*
X64057462Y-151899999D01*
X84186383Y-151899999D01*
X84206782Y-152081044D01*
X84206782Y-152081046D01*
X84206783Y-152081047D01*
X84266957Y-152253015D01*
X84363889Y-152407281D01*
X84492719Y-152536111D01*
X84646985Y-152633043D01*
X84818953Y-152693217D01*
X85000000Y-152713616D01*
X85181047Y-152693217D01*
X85353015Y-152633043D01*
X85507281Y-152536111D01*
X85636111Y-152407281D01*
X85733043Y-152253015D01*
X85793217Y-152081047D01*
X85813616Y-151900000D01*
X85793217Y-151718953D01*
X85733043Y-151546985D01*
X85636111Y-151392719D01*
X85507281Y-151263889D01*
X85353015Y-151166957D01*
X85181047Y-151106783D01*
X85181046Y-151106782D01*
X85181044Y-151106782D01*
X85000000Y-151086383D01*
X84818955Y-151106782D01*
X84646984Y-151166957D01*
X84492717Y-151263890D01*
X84363890Y-151392717D01*
X84266957Y-151546984D01*
X84206782Y-151718955D01*
X84186383Y-151899999D01*
X64057462Y-151899999D01*
X64071667Y-151850694D01*
X64133043Y-151753015D01*
X64193217Y-151581047D01*
X64213616Y-151400000D01*
X64193217Y-151218953D01*
X64133043Y-151046985D01*
X64036111Y-150892719D01*
X63907281Y-150763889D01*
X63753015Y-150666957D01*
X63581047Y-150606783D01*
X63581046Y-150606782D01*
X63581044Y-150606782D01*
X63399999Y-150586383D01*
X63341548Y-150592969D01*
X63276383Y-150582648D01*
X63225737Y-150540365D01*
X63211613Y-150500000D01*
X64686383Y-150500000D01*
X64706782Y-150681044D01*
X64706782Y-150681046D01*
X64706783Y-150681047D01*
X64766957Y-150853015D01*
X64863889Y-151007281D01*
X64992719Y-151136111D01*
X65146985Y-151233043D01*
X65318953Y-151293217D01*
X65500000Y-151313616D01*
X65681047Y-151293217D01*
X65853015Y-151233043D01*
X66007281Y-151136111D01*
X66136111Y-151007281D01*
X66233043Y-150853015D01*
X66293217Y-150681047D01*
X66303473Y-150590021D01*
X66325563Y-150532150D01*
X66372891Y-150492185D01*
X66433646Y-150480100D01*
X66492663Y-150498910D01*
X66546985Y-150533043D01*
X66718953Y-150593217D01*
X66900000Y-150613616D01*
X67081047Y-150593217D01*
X67253015Y-150533043D01*
X67407281Y-150436111D01*
X67536111Y-150307281D01*
X67540686Y-150300000D01*
X78786383Y-150300000D01*
X78806782Y-150481044D01*
X78806782Y-150481046D01*
X78806783Y-150481047D01*
X78866957Y-150653015D01*
X78963889Y-150807281D01*
X79092719Y-150936111D01*
X79246985Y-151033043D01*
X79418953Y-151093217D01*
X79600000Y-151113616D01*
X79781047Y-151093217D01*
X79953015Y-151033043D01*
X80107281Y-150936111D01*
X80236111Y-150807281D01*
X80333043Y-150653015D01*
X80393217Y-150481047D01*
X80413616Y-150300000D01*
X82886383Y-150300000D01*
X82906782Y-150481044D01*
X82906782Y-150481046D01*
X82906783Y-150481047D01*
X82966957Y-150653015D01*
X83063889Y-150807281D01*
X83192719Y-150936111D01*
X83346985Y-151033043D01*
X83518953Y-151093217D01*
X83700000Y-151113616D01*
X83881047Y-151093217D01*
X84053015Y-151033043D01*
X84207281Y-150936111D01*
X84336111Y-150807281D01*
X84433043Y-150653015D01*
X84493217Y-150481047D01*
X84513616Y-150300000D01*
X84512795Y-150292717D01*
X84498280Y-150163889D01*
X84493217Y-150118953D01*
X84433043Y-149946985D01*
X84336111Y-149792719D01*
X84207281Y-149663889D01*
X84053015Y-149566957D01*
X83881047Y-149506783D01*
X83881046Y-149506782D01*
X83881044Y-149506782D01*
X83700000Y-149486383D01*
X83518955Y-149506782D01*
X83346984Y-149566957D01*
X83192717Y-149663890D01*
X83063890Y-149792717D01*
X82966957Y-149946984D01*
X82906782Y-150118955D01*
X82886383Y-150300000D01*
X80413616Y-150300000D01*
X80412795Y-150292717D01*
X80398280Y-150163889D01*
X80393217Y-150118953D01*
X80333043Y-149946985D01*
X80236111Y-149792719D01*
X80107281Y-149663889D01*
X79953015Y-149566957D01*
X79781047Y-149506783D01*
X79781046Y-149506782D01*
X79781044Y-149506782D01*
X79600000Y-149486383D01*
X79418955Y-149506782D01*
X79246984Y-149566957D01*
X79092717Y-149663890D01*
X78963890Y-149792717D01*
X78866957Y-149946984D01*
X78806782Y-150118955D01*
X78786383Y-150300000D01*
X67540686Y-150300000D01*
X67633043Y-150153015D01*
X67693217Y-149981047D01*
X67713616Y-149800000D01*
X67693217Y-149618953D01*
X67633043Y-149446985D01*
X67536111Y-149292719D01*
X67407281Y-149163889D01*
X67253015Y-149066957D01*
X67081047Y-149006783D01*
X67081046Y-149006782D01*
X67081044Y-149006782D01*
X66900000Y-148986383D01*
X66718955Y-149006782D01*
X66546984Y-149066957D01*
X66392717Y-149163890D01*
X66263890Y-149292717D01*
X66166957Y-149446984D01*
X66106782Y-149618955D01*
X66096526Y-149709978D01*
X66074435Y-149767850D01*
X66027107Y-149807814D01*
X65966353Y-149819899D01*
X65907334Y-149801088D01*
X65853015Y-149766957D01*
X65681044Y-149706782D01*
X65500000Y-149686383D01*
X65318955Y-149706782D01*
X65146984Y-149766957D01*
X64992717Y-149863890D01*
X64863890Y-149992717D01*
X64766957Y-150146984D01*
X64706782Y-150318955D01*
X64686383Y-150500000D01*
X63211613Y-150500000D01*
X63203946Y-150478090D01*
X63217180Y-150413454D01*
X63261691Y-150364757D01*
X63307281Y-150336111D01*
X63436111Y-150207281D01*
X63533043Y-150053015D01*
X63593217Y-149881047D01*
X63613616Y-149700000D01*
X63593217Y-149518953D01*
X63533043Y-149346985D01*
X63436111Y-149192719D01*
X63307281Y-149063889D01*
X63153015Y-148966957D01*
X62981047Y-148906783D01*
X62981046Y-148906782D01*
X62981044Y-148906782D01*
X62920853Y-148900000D01*
X93986383Y-148900000D01*
X94006782Y-149081044D01*
X94006782Y-149081046D01*
X94006783Y-149081047D01*
X94066957Y-149253015D01*
X94163889Y-149407281D01*
X94292719Y-149536111D01*
X94446985Y-149633043D01*
X94618953Y-149693217D01*
X94800000Y-149713616D01*
X94981047Y-149693217D01*
X95153015Y-149633043D01*
X95307281Y-149536111D01*
X95436111Y-149407281D01*
X95533043Y-149253015D01*
X95593217Y-149081047D01*
X95613616Y-148900000D01*
X95593217Y-148718953D01*
X95576787Y-148672000D01*
X97011694Y-148672000D01*
X97030886Y-148891369D01*
X97087882Y-149104078D01*
X97115773Y-149163890D01*
X97180946Y-149303655D01*
X97307253Y-149484039D01*
X97462964Y-149639750D01*
X97643348Y-149766057D01*
X97842926Y-149859121D01*
X98055631Y-149916116D01*
X98275002Y-149935308D01*
X98494373Y-149916116D01*
X98707078Y-149859121D01*
X98906656Y-149766057D01*
X99087040Y-149639750D01*
X99242751Y-149484039D01*
X99369058Y-149303655D01*
X99462122Y-149104077D01*
X99519117Y-148891372D01*
X99538309Y-148672001D01*
X99535303Y-148637647D01*
X99519117Y-148452632D01*
X99519117Y-148452630D01*
X99462122Y-148239925D01*
X99369058Y-148040348D01*
X99242751Y-147859963D01*
X99087040Y-147704252D01*
X98978961Y-147628573D01*
X98940097Y-147584258D01*
X98926086Y-147527001D01*
X98940097Y-147469744D01*
X98978961Y-147425428D01*
X99087040Y-147349750D01*
X99242751Y-147194039D01*
X99369058Y-147013655D01*
X99462122Y-146814077D01*
X99519117Y-146601372D01*
X99538309Y-146382001D01*
X99519117Y-146162630D01*
X99462122Y-145949925D01*
X99369058Y-145750348D01*
X99242751Y-145569963D01*
X99087040Y-145414252D01*
X98906656Y-145287945D01*
X98814638Y-145245036D01*
X98707079Y-145194881D01*
X98494370Y-145137885D01*
X98275002Y-145118693D01*
X98055633Y-145137885D01*
X97842924Y-145194881D01*
X97643351Y-145287944D01*
X97643349Y-145287945D01*
X97510390Y-145381044D01*
X97462960Y-145414255D01*
X97307256Y-145569959D01*
X97307253Y-145569962D01*
X97307253Y-145569963D01*
X97183302Y-145746984D01*
X97180945Y-145750350D01*
X97087882Y-145949923D01*
X97030886Y-146162632D01*
X97011694Y-146382001D01*
X97030886Y-146601369D01*
X97077581Y-146775636D01*
X97087882Y-146814077D01*
X97180946Y-147013655D01*
X97307253Y-147194039D01*
X97462964Y-147349750D01*
X97571042Y-147425428D01*
X97609906Y-147469744D01*
X97623917Y-147527001D01*
X97609906Y-147584258D01*
X97571041Y-147628575D01*
X97462964Y-147704252D01*
X97462960Y-147704255D01*
X97307256Y-147859959D01*
X97307253Y-147859962D01*
X97307253Y-147859963D01*
X97207164Y-148002906D01*
X97180945Y-148040350D01*
X97087882Y-148239923D01*
X97030886Y-148452632D01*
X97011694Y-148672000D01*
X95576787Y-148672000D01*
X95533043Y-148546985D01*
X95436111Y-148392719D01*
X95307281Y-148263889D01*
X95153015Y-148166957D01*
X94981047Y-148106783D01*
X94981046Y-148106782D01*
X94981044Y-148106782D01*
X94800000Y-148086383D01*
X94618955Y-148106782D01*
X94446984Y-148166957D01*
X94292717Y-148263890D01*
X94163890Y-148392717D01*
X94066957Y-148546984D01*
X94006782Y-148718955D01*
X93986383Y-148900000D01*
X62920853Y-148900000D01*
X62800000Y-148886383D01*
X62618955Y-148906782D01*
X62446984Y-148966957D01*
X62292717Y-149063890D01*
X62163890Y-149192717D01*
X62066957Y-149346984D01*
X62006782Y-149518955D01*
X61986383Y-149699999D01*
X55840687Y-149699999D01*
X55933043Y-149553015D01*
X55993217Y-149381047D01*
X56013616Y-149200000D01*
X55993217Y-149018953D01*
X55933043Y-148846985D01*
X55850720Y-148715970D01*
X55831715Y-148649999D01*
X55850722Y-148584027D01*
X55933043Y-148453015D01*
X55993217Y-148281047D01*
X56013616Y-148100000D01*
X55993217Y-147918953D01*
X55986107Y-147898634D01*
X85761500Y-147898634D01*
X85768011Y-147959205D01*
X85819110Y-148096203D01*
X85906738Y-148213261D01*
X86023796Y-148300889D01*
X86160794Y-148351988D01*
X86160797Y-148351988D01*
X86160799Y-148351989D01*
X86221362Y-148358500D01*
X88018634Y-148358500D01*
X88018638Y-148358500D01*
X88079201Y-148351989D01*
X88079203Y-148351988D01*
X88079205Y-148351988D01*
X88161097Y-148321443D01*
X88216204Y-148300889D01*
X88333261Y-148213261D01*
X88420889Y-148096204D01*
X88466137Y-147974889D01*
X88502089Y-147923677D01*
X88558471Y-147896539D01*
X88620925Y-147900387D01*
X88673548Y-147934241D01*
X88710969Y-147974890D01*
X88736760Y-148002906D01*
X88914424Y-148141189D01*
X89112426Y-148248342D01*
X89325365Y-148321444D01*
X89547431Y-148358500D01*
X89772569Y-148358500D01*
X89994635Y-148321444D01*
X90207574Y-148248342D01*
X90405576Y-148141189D01*
X90583240Y-148002906D01*
X90735722Y-147837268D01*
X90826190Y-147698795D01*
X90870982Y-147657561D01*
X90930000Y-147642616D01*
X90989018Y-147657561D01*
X91033809Y-147698795D01*
X91065292Y-147746984D01*
X91124278Y-147837268D01*
X91276760Y-148002906D01*
X91454424Y-148141189D01*
X91652426Y-148248342D01*
X91865365Y-148321444D01*
X92087431Y-148358500D01*
X92312569Y-148358500D01*
X92534635Y-148321444D01*
X92747574Y-148248342D01*
X92945576Y-148141189D01*
X93123240Y-148002906D01*
X93275722Y-147837268D01*
X93398860Y-147648791D01*
X93489296Y-147442616D01*
X93544564Y-147224368D01*
X93563156Y-147000000D01*
X93544564Y-146775632D01*
X93489296Y-146557384D01*
X93398860Y-146351209D01*
X93275722Y-146162732D01*
X93123240Y-145997094D01*
X92945576Y-145858811D01*
X92747574Y-145751658D01*
X92747573Y-145751657D01*
X92747572Y-145751657D01*
X92534636Y-145678556D01*
X92312569Y-145641500D01*
X92087431Y-145641500D01*
X91865363Y-145678556D01*
X91652427Y-145751657D01*
X91454424Y-145858811D01*
X91276760Y-145997094D01*
X91124279Y-146162730D01*
X91033809Y-146301205D01*
X90989017Y-146342438D01*
X90930000Y-146357383D01*
X90870983Y-146342438D01*
X90826191Y-146301205D01*
X90764827Y-146207281D01*
X90735722Y-146162732D01*
X90583240Y-145997094D01*
X90405576Y-145858811D01*
X90207574Y-145751658D01*
X90207573Y-145751657D01*
X90207572Y-145751657D01*
X89994636Y-145678556D01*
X89772569Y-145641500D01*
X89547431Y-145641500D01*
X89325363Y-145678556D01*
X89112427Y-145751657D01*
X88914424Y-145858811D01*
X88736759Y-145997094D01*
X88673548Y-146065759D01*
X88620924Y-146099612D01*
X88558470Y-146103460D01*
X88502089Y-146076322D01*
X88466138Y-146025110D01*
X88438094Y-145949923D01*
X88420889Y-145903796D01*
X88366449Y-145831073D01*
X88333261Y-145786738D01*
X88216203Y-145699110D01*
X88079205Y-145648011D01*
X88048919Y-145644755D01*
X88018638Y-145641500D01*
X86221362Y-145641500D01*
X86194445Y-145644393D01*
X86160794Y-145648011D01*
X86023796Y-145699110D01*
X85906738Y-145786738D01*
X85819110Y-145903796D01*
X85768011Y-146040794D01*
X85764393Y-146074445D01*
X85761647Y-146100000D01*
X85761500Y-146101366D01*
X85761500Y-147898634D01*
X55986107Y-147898634D01*
X55933043Y-147746985D01*
X55882138Y-147665972D01*
X55863132Y-147600000D01*
X55882139Y-147534027D01*
X55911936Y-147486606D01*
X55933043Y-147453015D01*
X55993217Y-147281047D01*
X56013616Y-147100000D01*
X55993217Y-146918953D01*
X55933043Y-146746985D01*
X55882138Y-146665971D01*
X55863132Y-146599998D01*
X55882139Y-146534027D01*
X55933043Y-146453015D01*
X55993217Y-146281047D01*
X56013616Y-146100000D01*
X55993217Y-145918953D01*
X55933043Y-145746985D01*
X55836111Y-145592719D01*
X55707281Y-145463889D01*
X55553015Y-145366957D01*
X55381047Y-145306783D01*
X55381046Y-145306782D01*
X55381044Y-145306782D01*
X55200000Y-145286383D01*
X55018955Y-145306782D01*
X54846984Y-145366957D01*
X54692717Y-145463890D01*
X54563890Y-145592717D01*
X54466957Y-145746984D01*
X54406782Y-145918955D01*
X54386383Y-146100000D01*
X54406782Y-146281044D01*
X54406782Y-146281046D01*
X54406783Y-146281047D01*
X54466957Y-146453015D01*
X54517860Y-146534026D01*
X54517861Y-146534027D01*
X54536867Y-146599998D01*
X54517861Y-146665970D01*
X54466958Y-146746982D01*
X54406782Y-146918955D01*
X54386383Y-147100000D01*
X54406782Y-147281044D01*
X54466957Y-147453015D01*
X54517861Y-147534028D01*
X54536867Y-147600000D01*
X54517861Y-147665972D01*
X54466957Y-147746984D01*
X54406782Y-147918955D01*
X54386383Y-148100000D01*
X54406782Y-148281044D01*
X54406782Y-148281046D01*
X54406783Y-148281047D01*
X54466957Y-148453015D01*
X54526002Y-148546985D01*
X54549278Y-148584027D01*
X54568284Y-148649999D01*
X54549278Y-148715971D01*
X54466957Y-148846984D01*
X54406782Y-149018955D01*
X54386383Y-149200000D01*
X33600500Y-149200000D01*
X33600500Y-145199999D01*
X62986383Y-145199999D01*
X63006782Y-145381044D01*
X63006782Y-145381046D01*
X63006783Y-145381047D01*
X63066957Y-145553015D01*
X63163889Y-145707281D01*
X63292719Y-145836111D01*
X63446985Y-145933043D01*
X63618953Y-145993217D01*
X63800000Y-146013616D01*
X63981047Y-145993217D01*
X64153015Y-145933043D01*
X64307281Y-145836111D01*
X64312319Y-145831073D01*
X64367906Y-145798979D01*
X64432094Y-145798979D01*
X64487681Y-145831073D01*
X64492719Y-145836111D01*
X64646985Y-145933043D01*
X64818953Y-145993217D01*
X65000000Y-146013616D01*
X65181047Y-145993217D01*
X65353015Y-145933043D01*
X65507281Y-145836111D01*
X65512319Y-145831073D01*
X65567906Y-145798979D01*
X65632094Y-145798979D01*
X65687681Y-145831073D01*
X65692719Y-145836111D01*
X65846985Y-145933043D01*
X66018953Y-145993217D01*
X66200000Y-146013616D01*
X66381047Y-145993217D01*
X66553015Y-145933043D01*
X66707281Y-145836111D01*
X66712319Y-145831073D01*
X66767906Y-145798979D01*
X66832094Y-145798979D01*
X66887681Y-145831073D01*
X66892719Y-145836111D01*
X67046985Y-145933043D01*
X67218953Y-145993217D01*
X67400000Y-146013616D01*
X67581047Y-145993217D01*
X67753015Y-145933043D01*
X67907281Y-145836111D01*
X68036111Y-145707281D01*
X68133043Y-145553015D01*
X68193217Y-145381047D01*
X68213616Y-145200000D01*
X68193217Y-145018953D01*
X68133043Y-144846985D01*
X68036111Y-144692719D01*
X67907281Y-144563889D01*
X67753015Y-144466957D01*
X67581047Y-144406783D01*
X67581046Y-144406782D01*
X67581044Y-144406782D01*
X67400000Y-144386383D01*
X67218955Y-144406782D01*
X67046984Y-144466957D01*
X66892717Y-144563890D01*
X66887681Y-144568927D01*
X66832094Y-144601021D01*
X66767906Y-144601021D01*
X66712319Y-144568927D01*
X66707282Y-144563890D01*
X66707281Y-144563889D01*
X66553015Y-144466957D01*
X66381047Y-144406783D01*
X66381046Y-144406782D01*
X66381044Y-144406782D01*
X66200000Y-144386383D01*
X66018955Y-144406782D01*
X65846984Y-144466957D01*
X65692717Y-144563890D01*
X65687681Y-144568927D01*
X65632094Y-144601021D01*
X65567906Y-144601021D01*
X65512319Y-144568927D01*
X65507282Y-144563890D01*
X65507281Y-144563889D01*
X65353015Y-144466957D01*
X65181047Y-144406783D01*
X65181046Y-144406782D01*
X65181044Y-144406782D01*
X65000000Y-144386383D01*
X64818955Y-144406782D01*
X64646984Y-144466957D01*
X64492717Y-144563890D01*
X64487681Y-144568927D01*
X64432094Y-144601021D01*
X64367906Y-144601021D01*
X64312319Y-144568927D01*
X64307282Y-144563890D01*
X64307281Y-144563889D01*
X64153015Y-144466957D01*
X63981047Y-144406783D01*
X63981046Y-144406782D01*
X63981044Y-144406782D01*
X63800000Y-144386383D01*
X63618955Y-144406782D01*
X63446984Y-144466957D01*
X63292717Y-144563890D01*
X63163890Y-144692717D01*
X63066957Y-144846984D01*
X63006782Y-145018955D01*
X62986383Y-145199999D01*
X33600500Y-145199999D01*
X33600500Y-142876001D01*
X64386500Y-142876001D01*
X64403996Y-143008901D01*
X64420611Y-143070909D01*
X64471908Y-143194751D01*
X64553513Y-143301099D01*
X64598900Y-143346486D01*
X64705247Y-143428090D01*
X64705248Y-143428090D01*
X64705249Y-143428091D01*
X64731947Y-143439149D01*
X64791983Y-143464018D01*
X64834636Y-143493391D01*
X64861571Y-143537624D01*
X64866955Y-143553012D01*
X64884226Y-143580499D01*
X64963889Y-143707281D01*
X65092719Y-143836111D01*
X65246985Y-143933043D01*
X65418953Y-143993217D01*
X65600000Y-144013616D01*
X65781047Y-143993217D01*
X65953015Y-143933043D01*
X66107281Y-143836111D01*
X66236111Y-143707281D01*
X66321411Y-143571526D01*
X66366423Y-143528972D01*
X66426404Y-143513500D01*
X68538904Y-143513500D01*
X68595818Y-143527333D01*
X68640034Y-143565745D01*
X68661686Y-143620166D01*
X68655946Y-143678451D01*
X68606783Y-143818953D01*
X68606782Y-143818956D01*
X68586383Y-144000000D01*
X68606782Y-144181044D01*
X68606782Y-144181046D01*
X68606783Y-144181047D01*
X68666957Y-144353015D01*
X68763889Y-144507281D01*
X68892719Y-144636111D01*
X69046985Y-144733043D01*
X69218953Y-144793217D01*
X69400000Y-144813616D01*
X69581047Y-144793217D01*
X69753015Y-144733043D01*
X69907281Y-144636111D01*
X70036111Y-144507281D01*
X70133043Y-144353015D01*
X70193217Y-144181047D01*
X70213616Y-144000000D01*
X70193217Y-143818953D01*
X70144053Y-143678451D01*
X70138314Y-143620166D01*
X70159966Y-143565745D01*
X70204182Y-143527333D01*
X70261096Y-143513500D01*
X70276001Y-143513500D01*
X70302581Y-143510000D01*
X70408905Y-143496003D01*
X70470905Y-143479390D01*
X70594751Y-143428091D01*
X70701099Y-143346486D01*
X70746486Y-143301099D01*
X70828091Y-143194751D01*
X70879390Y-143070905D01*
X70896003Y-143008905D01*
X70897175Y-143000000D01*
X72386383Y-143000000D01*
X72406782Y-143181044D01*
X72406782Y-143181046D01*
X72406783Y-143181047D01*
X72466957Y-143353015D01*
X72563889Y-143507281D01*
X72692719Y-143636111D01*
X72846985Y-143733043D01*
X72905858Y-143753643D01*
X72952583Y-143783002D01*
X72981943Y-143829729D01*
X72988122Y-143884567D01*
X72986383Y-143899999D01*
X73006782Y-144081044D01*
X73006782Y-144081046D01*
X73006783Y-144081047D01*
X73066957Y-144253015D01*
X73163889Y-144407281D01*
X73292719Y-144536111D01*
X73446985Y-144633043D01*
X73618953Y-144693217D01*
X73800000Y-144713616D01*
X73981047Y-144693217D01*
X74153015Y-144633043D01*
X74307281Y-144536111D01*
X74436111Y-144407281D01*
X74533043Y-144253015D01*
X74593217Y-144081047D01*
X74610657Y-143926260D01*
X74613616Y-143900003D01*
X74613616Y-143899999D01*
X74611877Y-143884567D01*
X74618055Y-143829731D01*
X74647416Y-143783003D01*
X74694141Y-143753643D01*
X74753015Y-143733043D01*
X74907281Y-143636111D01*
X75036111Y-143507281D01*
X75133043Y-143353015D01*
X75193217Y-143181047D01*
X75213616Y-143000000D01*
X75193217Y-142818953D01*
X75133043Y-142646985D01*
X75036111Y-142492719D01*
X74907281Y-142363889D01*
X74753015Y-142266957D01*
X74753012Y-142266955D01*
X74694142Y-142246356D01*
X74647415Y-142216995D01*
X74618055Y-142170267D01*
X74611877Y-142115430D01*
X74613616Y-142100000D01*
X74612791Y-142092679D01*
X74596715Y-141950000D01*
X74593217Y-141918953D01*
X74533043Y-141746985D01*
X74436111Y-141592719D01*
X74307281Y-141463889D01*
X74153015Y-141366957D01*
X73981047Y-141306783D01*
X73981046Y-141306782D01*
X73981044Y-141306782D01*
X73800000Y-141286383D01*
X73618955Y-141306782D01*
X73446984Y-141366957D01*
X73292717Y-141463890D01*
X73163890Y-141592717D01*
X73066957Y-141746984D01*
X73006782Y-141918955D01*
X72986383Y-142100000D01*
X72988122Y-142115431D01*
X72981944Y-142170269D01*
X72952584Y-142216996D01*
X72905857Y-142246356D01*
X72846987Y-142266955D01*
X72692717Y-142363890D01*
X72563890Y-142492717D01*
X72466957Y-142646984D01*
X72406782Y-142818955D01*
X72386383Y-143000000D01*
X70897175Y-143000000D01*
X70913500Y-142876000D01*
X70913500Y-140964096D01*
X70922939Y-140916643D01*
X70949819Y-140876415D01*
X71803740Y-140022494D01*
X71859327Y-139990400D01*
X71923515Y-139990400D01*
X71979102Y-140022494D01*
X71992719Y-140036111D01*
X72146985Y-140133043D01*
X72318953Y-140193217D01*
X72500000Y-140213616D01*
X72681047Y-140193217D01*
X72853015Y-140133043D01*
X73007281Y-140036111D01*
X73136111Y-139907281D01*
X73233043Y-139753015D01*
X73293217Y-139581047D01*
X73313616Y-139400000D01*
X73293217Y-139218953D01*
X73233043Y-139046985D01*
X73136111Y-138892719D01*
X73122493Y-138879101D01*
X73090399Y-138823514D01*
X73090399Y-138759326D01*
X73122490Y-138703743D01*
X73427281Y-138398951D01*
X73436276Y-138390799D01*
X73470068Y-138363068D01*
X73596095Y-138209504D01*
X73689741Y-138034304D01*
X73724676Y-137919138D01*
X73747409Y-137844200D01*
X73755368Y-137763382D01*
X73773089Y-137710674D01*
X73812064Y-137671009D01*
X73864455Y-137652366D01*
X73919726Y-137658496D01*
X74018952Y-137693217D01*
X74199999Y-137713616D01*
X74199999Y-137713615D01*
X74200000Y-137713616D01*
X74222126Y-137711123D01*
X74276961Y-137704945D01*
X74331799Y-137711123D01*
X74378526Y-137740483D01*
X74407886Y-137787210D01*
X74443932Y-137890223D01*
X74531875Y-138030184D01*
X74648750Y-138147059D01*
X74648752Y-138147060D01*
X74648753Y-138147061D01*
X74788709Y-138235001D01*
X74816567Y-138244748D01*
X74872559Y-138284475D01*
X74898833Y-138347903D01*
X74903417Y-138388578D01*
X74899793Y-138388986D01*
X74902293Y-138433503D01*
X74869084Y-138493589D01*
X74822899Y-138539774D01*
X74734959Y-138679731D01*
X74734958Y-138679733D01*
X74681496Y-138832521D01*
X74680365Y-138835752D01*
X74661858Y-139000000D01*
X74680112Y-139162000D01*
X74680366Y-139164252D01*
X74734958Y-139320267D01*
X74734959Y-139320268D01*
X74822899Y-139460225D01*
X74939774Y-139577100D01*
X74939776Y-139577101D01*
X74939777Y-139577102D01*
X75079733Y-139665042D01*
X75235748Y-139719634D01*
X75308748Y-139727859D01*
X75399995Y-139738141D01*
X75399997Y-139738140D01*
X75400000Y-139738141D01*
X75406760Y-139737379D01*
X75466807Y-139745511D01*
X75515832Y-139781128D01*
X75542125Y-139835723D01*
X75539408Y-139896260D01*
X75508328Y-139948279D01*
X75463891Y-139992716D01*
X75366957Y-140146984D01*
X75306782Y-140318955D01*
X75286383Y-140500000D01*
X75307061Y-140683520D01*
X75300883Y-140738358D01*
X75271523Y-140785085D01*
X75163889Y-140892719D01*
X75066957Y-141046984D01*
X75006782Y-141218955D01*
X74986383Y-141400000D01*
X75006782Y-141581044D01*
X75006782Y-141581046D01*
X75006783Y-141581047D01*
X75066957Y-141753015D01*
X75163889Y-141907281D01*
X75292719Y-142036111D01*
X75446985Y-142133043D01*
X75618953Y-142193217D01*
X75679302Y-142200016D01*
X75799996Y-142213616D01*
X75799997Y-142213615D01*
X75800000Y-142213616D01*
X75815430Y-142211877D01*
X75870267Y-142218055D01*
X75916995Y-142247415D01*
X75946356Y-142294142D01*
X75966955Y-142353012D01*
X75966957Y-142353015D01*
X76063889Y-142507281D01*
X76192719Y-142636111D01*
X76346985Y-142733043D01*
X76518953Y-142793217D01*
X76700000Y-142813616D01*
X76881047Y-142793217D01*
X76918437Y-142780133D01*
X76973269Y-142773954D01*
X77025359Y-142792181D01*
X77064380Y-142831201D01*
X77134778Y-142943238D01*
X77263608Y-143072068D01*
X77417874Y-143169000D01*
X77589842Y-143229174D01*
X77770889Y-143249573D01*
X77951936Y-143229174D01*
X78123904Y-143169000D01*
X78278170Y-143072068D01*
X78407000Y-142943238D01*
X78487017Y-142815890D01*
X78538207Y-142770146D01*
X78605891Y-142758646D01*
X78650000Y-142763616D01*
X78650000Y-142763615D01*
X78650001Y-142763616D01*
X78695261Y-142758516D01*
X78831047Y-142743217D01*
X79003015Y-142683043D01*
X79157281Y-142586111D01*
X79286111Y-142457281D01*
X79383043Y-142303015D01*
X79431880Y-142163443D01*
X79471609Y-142107452D01*
X79535038Y-142081179D01*
X79602723Y-142092679D01*
X79653915Y-142138426D01*
X79738389Y-142272865D01*
X79867219Y-142401695D01*
X80021485Y-142498627D01*
X80021486Y-142498627D01*
X80033315Y-142506060D01*
X80031937Y-142508252D01*
X80071333Y-142536203D01*
X80097609Y-142599634D01*
X80106782Y-142681044D01*
X80106782Y-142681046D01*
X80106783Y-142681047D01*
X80145670Y-142792181D01*
X80166958Y-142853017D01*
X80172494Y-142861828D01*
X80191500Y-142927799D01*
X80191500Y-143055168D01*
X80182061Y-143102621D01*
X80155181Y-143142849D01*
X79237170Y-144060858D01*
X79183816Y-144092331D01*
X79121896Y-144094068D01*
X79066862Y-144065636D01*
X79032449Y-144014134D01*
X78989276Y-143890752D01*
X78892344Y-143736486D01*
X78763514Y-143607656D01*
X78609248Y-143510724D01*
X78437280Y-143450550D01*
X78437279Y-143450549D01*
X78437277Y-143450549D01*
X78256233Y-143430150D01*
X78075188Y-143450549D01*
X77903217Y-143510724D01*
X77748950Y-143607657D01*
X77620122Y-143736485D01*
X77532966Y-143875192D01*
X77493944Y-143914213D01*
X77441856Y-143932439D01*
X77387018Y-143926260D01*
X77340292Y-143896900D01*
X77207282Y-143763890D01*
X77207281Y-143763889D01*
X77053015Y-143666957D01*
X76881047Y-143606783D01*
X76881046Y-143606782D01*
X76881044Y-143606782D01*
X76700000Y-143586383D01*
X76518955Y-143606782D01*
X76346984Y-143666957D01*
X76192717Y-143763890D01*
X76063890Y-143892717D01*
X75966957Y-144046984D01*
X75906782Y-144218955D01*
X75886383Y-144400000D01*
X75906782Y-144581044D01*
X75906782Y-144581046D01*
X75906783Y-144581047D01*
X75966957Y-144753015D01*
X76063889Y-144907281D01*
X76192719Y-145036111D01*
X76346985Y-145133043D01*
X76449620Y-145168956D01*
X76496346Y-145198316D01*
X76881231Y-145583202D01*
X76886356Y-145588646D01*
X76926727Y-145634215D01*
X76946714Y-145648011D01*
X76976838Y-145668805D01*
X76982857Y-145673234D01*
X77030774Y-145710774D01*
X77040230Y-145715029D01*
X77059780Y-145726056D01*
X77068325Y-145731954D01*
X77125248Y-145753542D01*
X77132169Y-145756409D01*
X77187665Y-145781386D01*
X77187670Y-145781388D01*
X77197882Y-145783259D01*
X77219490Y-145789282D01*
X77229199Y-145792965D01*
X77289633Y-145800302D01*
X77297025Y-145801426D01*
X77356907Y-145812401D01*
X77412964Y-145809010D01*
X77417666Y-145808726D01*
X77425152Y-145808500D01*
X79174837Y-145808500D01*
X79182324Y-145808726D01*
X79243093Y-145812402D01*
X79302994Y-145801424D01*
X79310364Y-145800303D01*
X79370801Y-145792965D01*
X79380498Y-145789287D01*
X79402124Y-145783259D01*
X79402140Y-145783256D01*
X79412329Y-145781389D01*
X79467850Y-145756400D01*
X79474752Y-145753542D01*
X79515189Y-145738205D01*
X79531675Y-145731954D01*
X79540219Y-145726055D01*
X79559754Y-145715037D01*
X79569226Y-145710775D01*
X79617162Y-145673217D01*
X79623143Y-145668816D01*
X79673273Y-145634215D01*
X79713673Y-145588611D01*
X79718767Y-145583202D01*
X81301968Y-144000000D01*
X92789384Y-144000000D01*
X92809783Y-144181044D01*
X92809783Y-144181046D01*
X92809784Y-144181047D01*
X92869958Y-144353015D01*
X92966890Y-144507281D01*
X93095720Y-144636111D01*
X93249986Y-144733043D01*
X93421954Y-144793217D01*
X93603001Y-144813616D01*
X93784048Y-144793217D01*
X93956016Y-144733043D01*
X94110282Y-144636111D01*
X94239112Y-144507281D01*
X94336044Y-144353015D01*
X94396218Y-144181047D01*
X94416617Y-144000000D01*
X94396218Y-143818953D01*
X94336044Y-143646985D01*
X94239112Y-143492719D01*
X94110282Y-143363889D01*
X93956016Y-143266957D01*
X93784048Y-143206783D01*
X93784047Y-143206782D01*
X93784045Y-143206782D01*
X93603001Y-143186383D01*
X93421956Y-143206782D01*
X93249985Y-143266957D01*
X93095718Y-143363890D01*
X92966891Y-143492717D01*
X92869958Y-143646984D01*
X92809783Y-143818955D01*
X92789384Y-144000000D01*
X81301968Y-144000000D01*
X81383208Y-143918760D01*
X81388611Y-143913673D01*
X81434215Y-143873273D01*
X81468816Y-143823143D01*
X81473222Y-143817157D01*
X81510775Y-143769226D01*
X81515037Y-143759754D01*
X81526055Y-143740219D01*
X81531954Y-143731675D01*
X81546539Y-143693217D01*
X81553542Y-143674752D01*
X81556400Y-143667850D01*
X81581389Y-143612329D01*
X81583259Y-143602123D01*
X81589287Y-143580499D01*
X81592689Y-143571528D01*
X81592965Y-143570801D01*
X81600303Y-143510364D01*
X81601424Y-143502994D01*
X81612402Y-143443093D01*
X81608726Y-143382324D01*
X81608500Y-143374837D01*
X81608500Y-142927799D01*
X81616509Y-142899999D01*
X94786383Y-142899999D01*
X94806782Y-143081044D01*
X94806782Y-143081046D01*
X94806783Y-143081047D01*
X94866957Y-143253015D01*
X94963889Y-143407281D01*
X95092719Y-143536111D01*
X95246985Y-143633043D01*
X95418953Y-143693217D01*
X95539651Y-143706816D01*
X95599999Y-143713616D01*
X95599999Y-143713615D01*
X95600000Y-143713616D01*
X95781047Y-143693217D01*
X95953015Y-143633043D01*
X96107281Y-143536111D01*
X96236111Y-143407281D01*
X96333043Y-143253015D01*
X96393217Y-143081047D01*
X96413616Y-142900000D01*
X96393217Y-142718953D01*
X96333043Y-142546985D01*
X96236111Y-142392719D01*
X96107281Y-142263889D01*
X95953015Y-142166957D01*
X95781047Y-142106783D01*
X95781046Y-142106782D01*
X95781044Y-142106782D01*
X95600000Y-142086383D01*
X95418955Y-142106782D01*
X95246984Y-142166957D01*
X95092717Y-142263890D01*
X94963890Y-142392717D01*
X94866957Y-142546984D01*
X94806782Y-142718955D01*
X94786383Y-142899999D01*
X81616509Y-142899999D01*
X81627506Y-142861828D01*
X81629906Y-142858006D01*
X81633043Y-142853015D01*
X81693217Y-142681047D01*
X81713616Y-142500000D01*
X81693217Y-142318953D01*
X81693216Y-142318952D01*
X81692091Y-142308960D01*
X81694913Y-142287523D01*
X81667647Y-142245879D01*
X81633043Y-142146985D01*
X81536111Y-141992719D01*
X81407281Y-141863889D01*
X81253015Y-141766957D01*
X81253013Y-141766956D01*
X81241185Y-141759524D01*
X81242561Y-141757333D01*
X81203158Y-141729370D01*
X81176889Y-141665945D01*
X81175748Y-141655822D01*
X81167717Y-141584537D01*
X81107543Y-141412569D01*
X81010611Y-141258303D01*
X80881781Y-141129473D01*
X80727515Y-141032541D01*
X80555547Y-140972367D01*
X80555546Y-140972366D01*
X80555544Y-140972366D01*
X80374500Y-140951967D01*
X80193455Y-140972366D01*
X80021484Y-141032541D01*
X79867217Y-141129474D01*
X79738390Y-141258301D01*
X79641455Y-141412571D01*
X79592618Y-141552139D01*
X79552889Y-141608131D01*
X79489460Y-141634404D01*
X79421775Y-141622904D01*
X79370584Y-141577157D01*
X79286111Y-141442719D01*
X79157281Y-141313889D01*
X79003015Y-141216957D01*
X78831047Y-141156783D01*
X78831046Y-141156782D01*
X78831044Y-141156782D01*
X78650000Y-141136383D01*
X78468955Y-141156782D01*
X78296984Y-141216957D01*
X78142717Y-141313890D01*
X78013890Y-141442717D01*
X77933874Y-141570062D01*
X77882681Y-141615810D01*
X77814996Y-141627310D01*
X77770889Y-141622340D01*
X77589841Y-141642739D01*
X77552453Y-141655822D01*
X77497615Y-141662000D01*
X77445528Y-141643774D01*
X77406506Y-141604752D01*
X77373447Y-141552139D01*
X77336111Y-141492719D01*
X77207281Y-141363889D01*
X77053015Y-141266957D01*
X76881047Y-141206783D01*
X76881046Y-141206782D01*
X76881044Y-141206782D01*
X76824729Y-141200437D01*
X76766857Y-141178346D01*
X76726893Y-141131018D01*
X76714808Y-141070264D01*
X76733620Y-141011244D01*
X76736108Y-141007283D01*
X76736111Y-141007281D01*
X76833043Y-140853015D01*
X76893217Y-140681047D01*
X76913616Y-140500000D01*
X76893217Y-140318953D01*
X76833043Y-140146985D01*
X76736111Y-139992719D01*
X76607281Y-139863889D01*
X76453015Y-139766957D01*
X76281047Y-139706783D01*
X76281046Y-139706782D01*
X76281044Y-139706782D01*
X76100002Y-139686383D01*
X76058760Y-139691030D01*
X75998712Y-139682895D01*
X75949689Y-139647276D01*
X75923398Y-139592680D01*
X75926117Y-139532145D01*
X75957196Y-139480128D01*
X75977102Y-139460223D01*
X76065042Y-139320267D01*
X76119634Y-139164252D01*
X76138141Y-139000000D01*
X76125735Y-138889894D01*
X76118070Y-138821864D01*
X76121694Y-138821455D01*
X76119191Y-138776950D01*
X76152403Y-138716854D01*
X76198589Y-138670669D01*
X76286529Y-138530713D01*
X76341121Y-138374698D01*
X76359628Y-138210446D01*
X76341121Y-138046194D01*
X76286529Y-137890179D01*
X76198589Y-137750223D01*
X76198588Y-137750222D01*
X76198587Y-137750220D01*
X76081712Y-137633345D01*
X75941752Y-137545403D01*
X75913892Y-137535654D01*
X75857900Y-137495924D01*
X75831628Y-137432497D01*
X75828610Y-137405707D01*
X75803279Y-137333317D01*
X75799431Y-137264771D01*
X75832641Y-137204683D01*
X75877102Y-137160223D01*
X75965042Y-137020267D01*
X76019634Y-136864252D01*
X76021958Y-136843618D01*
X76042725Y-136787649D01*
X76087237Y-136747870D01*
X76145179Y-136733500D01*
X76988423Y-136733500D01*
X77009164Y-136735789D01*
X77011961Y-136735701D01*
X77011965Y-136735702D01*
X77080073Y-136733560D01*
X77083969Y-136733500D01*
X77111910Y-136733500D01*
X77111912Y-136733500D01*
X77116012Y-136732981D01*
X77127662Y-136732064D01*
X77171945Y-136730673D01*
X77191554Y-136724975D01*
X77210587Y-136721033D01*
X77230853Y-136718474D01*
X77272062Y-136702157D01*
X77283086Y-136698382D01*
X77325649Y-136686018D01*
X77325652Y-136686016D01*
X77338230Y-136682362D01*
X77391122Y-136678797D01*
X77440670Y-136697646D01*
X77477816Y-136735465D01*
X77503229Y-136775909D01*
X77624091Y-136896771D01*
X77768817Y-136987709D01*
X77930150Y-137044162D01*
X78100000Y-137063299D01*
X78269850Y-137044162D01*
X78431183Y-136987709D01*
X78465246Y-136966305D01*
X78524260Y-136947494D01*
X78585015Y-136959577D01*
X78632344Y-136999541D01*
X78654436Y-137057412D01*
X78655837Y-137069846D01*
X78655837Y-137069848D01*
X78655838Y-137069850D01*
X78712291Y-137231183D01*
X78803229Y-137375909D01*
X78924091Y-137496771D01*
X79068817Y-137587709D01*
X79230150Y-137644162D01*
X79400000Y-137663299D01*
X79569850Y-137644162D01*
X79731183Y-137587709D01*
X79875909Y-137496771D01*
X79996771Y-137375909D01*
X80087709Y-137231183D01*
X80144162Y-137069850D01*
X80145817Y-137055152D01*
X80164042Y-137003066D01*
X80203066Y-136964042D01*
X80255152Y-136945817D01*
X80269850Y-136944162D01*
X80431183Y-136887709D01*
X80575909Y-136796771D01*
X80696771Y-136675909D01*
X80787709Y-136531183D01*
X80844162Y-136369850D01*
X80863299Y-136200000D01*
X80844162Y-136030150D01*
X80787709Y-135868817D01*
X80696771Y-135724091D01*
X80575909Y-135603229D01*
X80431183Y-135512291D01*
X80269850Y-135455838D01*
X80269848Y-135455837D01*
X80269846Y-135455837D01*
X80100000Y-135436700D01*
X79930153Y-135455837D01*
X79930150Y-135455837D01*
X79930150Y-135455838D01*
X79768817Y-135512291D01*
X79768815Y-135512291D01*
X79768815Y-135512292D01*
X79624089Y-135603230D01*
X79503230Y-135724089D01*
X79440395Y-135824089D01*
X79412291Y-135868817D01*
X79366389Y-135999999D01*
X79355837Y-136030154D01*
X79354181Y-136044849D01*
X79335954Y-136096934D01*
X79296934Y-136135954D01*
X79244849Y-136154181D01*
X79230154Y-136155837D01*
X79230151Y-136155837D01*
X79230150Y-136155838D01*
X79144131Y-136185937D01*
X79068816Y-136212291D01*
X79034754Y-136233694D01*
X78975734Y-136252504D01*
X78914980Y-136240419D01*
X78867653Y-136200454D01*
X78845563Y-136142582D01*
X78844162Y-136130154D01*
X78844162Y-136130150D01*
X78787709Y-135968817D01*
X78696771Y-135824091D01*
X78575909Y-135703229D01*
X78566030Y-135693350D01*
X78566395Y-135692984D01*
X78538855Y-135665446D01*
X78520628Y-135613357D01*
X78526806Y-135558518D01*
X78556165Y-135511793D01*
X81169959Y-132897999D01*
X82736700Y-132897999D01*
X82755837Y-133067846D01*
X82755837Y-133067848D01*
X82755838Y-133067850D01*
X82812291Y-133229183D01*
X82903229Y-133373909D01*
X83024091Y-133494771D01*
X83168817Y-133585709D01*
X83330150Y-133642162D01*
X83500000Y-133661299D01*
X83669850Y-133642162D01*
X83831183Y-133585709D01*
X83975909Y-133494771D01*
X84096771Y-133373909D01*
X84187709Y-133229183D01*
X84244162Y-133067850D01*
X84263299Y-132898000D01*
X84244162Y-132728150D01*
X84187709Y-132566817D01*
X84096771Y-132422091D01*
X83975909Y-132301229D01*
X83831183Y-132210291D01*
X83669850Y-132153838D01*
X83669848Y-132153837D01*
X83669846Y-132153837D01*
X83500000Y-132134700D01*
X83330153Y-132153837D01*
X83330150Y-132153837D01*
X83330150Y-132153838D01*
X83168817Y-132210291D01*
X83168815Y-132210291D01*
X83168815Y-132210292D01*
X83024089Y-132301230D01*
X82903230Y-132422089D01*
X82812292Y-132566815D01*
X82755837Y-132728153D01*
X82736700Y-132897999D01*
X81169959Y-132897999D01*
X82725689Y-131342269D01*
X82772411Y-131312911D01*
X82883230Y-131274135D01*
X83023186Y-131186195D01*
X83140065Y-131069316D01*
X83228005Y-130929360D01*
X83282597Y-130773345D01*
X83301104Y-130609093D01*
X83282597Y-130444841D01*
X83228005Y-130288826D01*
X83140065Y-130148870D01*
X83140064Y-130148869D01*
X83140063Y-130148867D01*
X83023188Y-130031992D01*
X82895863Y-129951989D01*
X82883230Y-129944051D01*
X82727215Y-129889459D01*
X82727211Y-129889458D01*
X82727210Y-129889458D01*
X82562963Y-129870951D01*
X82398715Y-129889458D01*
X82398712Y-129889458D01*
X82398711Y-129889459D01*
X82242696Y-129944051D01*
X82242694Y-129944051D01*
X82242694Y-129944052D01*
X82102737Y-130031992D01*
X81985862Y-130148867D01*
X81897920Y-130288827D01*
X81859144Y-130399641D01*
X81829784Y-130446366D01*
X76845970Y-135430181D01*
X76805742Y-135457061D01*
X76758289Y-135466500D01*
X76631922Y-135466500D01*
X76573981Y-135452130D01*
X76529468Y-135412352D01*
X76508702Y-135356384D01*
X76493217Y-135218955D01*
X76493217Y-135218953D01*
X76433043Y-135046985D01*
X76336111Y-134892719D01*
X76207281Y-134763889D01*
X76053015Y-134666957D01*
X75881047Y-134606783D01*
X75881046Y-134606782D01*
X75881044Y-134606782D01*
X75699999Y-134586383D01*
X75516480Y-134607061D01*
X75461642Y-134600883D01*
X75414915Y-134571523D01*
X75363315Y-134519923D01*
X75307281Y-134463889D01*
X75153015Y-134366957D01*
X74981047Y-134306783D01*
X74981046Y-134306782D01*
X74981044Y-134306782D01*
X74800000Y-134286383D01*
X74618955Y-134306782D01*
X74446984Y-134366957D01*
X74292717Y-134463890D01*
X74163890Y-134592717D01*
X74075975Y-134732632D01*
X74066957Y-134746985D01*
X74006783Y-134918953D01*
X74006782Y-134918955D01*
X74003042Y-134929646D01*
X73963313Y-134985638D01*
X73899884Y-135011911D01*
X73832198Y-135000411D01*
X73781006Y-134954663D01*
X73762000Y-134888691D01*
X73762000Y-126299999D01*
X74786383Y-126299999D01*
X74806782Y-126481044D01*
X74806782Y-126481046D01*
X74806783Y-126481047D01*
X74866957Y-126653015D01*
X74963889Y-126807281D01*
X75092719Y-126936111D01*
X75246985Y-127033043D01*
X75269299Y-127040851D01*
X75325289Y-127080578D01*
X75351563Y-127144006D01*
X75340065Y-127211690D01*
X75302413Y-127253825D01*
X75302598Y-127254010D01*
X75299316Y-127257291D01*
X75294320Y-127262883D01*
X75292718Y-127263889D01*
X75163890Y-127392717D01*
X75066957Y-127546984D01*
X75006782Y-127718955D01*
X74986383Y-127899999D01*
X75006782Y-128081044D01*
X75006782Y-128081046D01*
X75006783Y-128081047D01*
X75066957Y-128253015D01*
X75163889Y-128407281D01*
X75292719Y-128536111D01*
X75446985Y-128633043D01*
X75618953Y-128693217D01*
X75800000Y-128713616D01*
X75981047Y-128693217D01*
X76153015Y-128633043D01*
X76224500Y-128588125D01*
X76290472Y-128569119D01*
X76356442Y-128588124D01*
X76479201Y-128665259D01*
X76651169Y-128725433D01*
X76832216Y-128745832D01*
X77013263Y-128725433D01*
X77185231Y-128665259D01*
X77339497Y-128568327D01*
X77468327Y-128439497D01*
X77565259Y-128285231D01*
X77625433Y-128113263D01*
X77626927Y-128099999D01*
X80786383Y-128099999D01*
X80806782Y-128281044D01*
X80806782Y-128281046D01*
X80806783Y-128281047D01*
X80866957Y-128453015D01*
X80963889Y-128607281D01*
X81092719Y-128736111D01*
X81246985Y-128833043D01*
X81418953Y-128893217D01*
X81600000Y-128913616D01*
X81720846Y-128900000D01*
X84186383Y-128900000D01*
X84206782Y-129081044D01*
X84206782Y-129081046D01*
X84206783Y-129081047D01*
X84266957Y-129253015D01*
X84363889Y-129407281D01*
X84492719Y-129536111D01*
X84646985Y-129633043D01*
X84818953Y-129693217D01*
X85000000Y-129713616D01*
X85181047Y-129693217D01*
X85353015Y-129633043D01*
X85507281Y-129536111D01*
X85636111Y-129407281D01*
X85733043Y-129253015D01*
X85793217Y-129081047D01*
X85813616Y-128900000D01*
X85793217Y-128718953D01*
X85733043Y-128546985D01*
X85640686Y-128400000D01*
X91786383Y-128400000D01*
X91806782Y-128581044D01*
X91806782Y-128581046D01*
X91806783Y-128581047D01*
X91866957Y-128753015D01*
X91963889Y-128907281D01*
X92092719Y-129036111D01*
X92246985Y-129133043D01*
X92418953Y-129193217D01*
X92600000Y-129213616D01*
X92781047Y-129193217D01*
X92953015Y-129133043D01*
X93107281Y-129036111D01*
X93236111Y-128907281D01*
X93333043Y-128753015D01*
X93386585Y-128600000D01*
X95636843Y-128600000D01*
X95655435Y-128824363D01*
X95655435Y-128824366D01*
X95655436Y-128824368D01*
X95709056Y-129036109D01*
X95710705Y-129042618D01*
X95801138Y-129248788D01*
X95801140Y-129248791D01*
X95924278Y-129437268D01*
X96076760Y-129602906D01*
X96254424Y-129741189D01*
X96452426Y-129848342D01*
X96665365Y-129921444D01*
X96887431Y-129958500D01*
X97112569Y-129958500D01*
X97334635Y-129921444D01*
X97547574Y-129848342D01*
X97745576Y-129741189D01*
X97923240Y-129602906D01*
X98075722Y-129437268D01*
X98166190Y-129298795D01*
X98210982Y-129257561D01*
X98270000Y-129242616D01*
X98329018Y-129257561D01*
X98373809Y-129298795D01*
X98444686Y-129407281D01*
X98464278Y-129437268D01*
X98616760Y-129602906D01*
X98794424Y-129741189D01*
X98992426Y-129848342D01*
X99205365Y-129921444D01*
X99427431Y-129958500D01*
X99652569Y-129958500D01*
X99874635Y-129921444D01*
X100087574Y-129848342D01*
X100285576Y-129741189D01*
X100463240Y-129602906D01*
X100615722Y-129437268D01*
X100706190Y-129298795D01*
X100750982Y-129257561D01*
X100810000Y-129242616D01*
X100869018Y-129257561D01*
X100913809Y-129298795D01*
X100984686Y-129407281D01*
X101004278Y-129437268D01*
X101156760Y-129602906D01*
X101334424Y-129741189D01*
X101532426Y-129848342D01*
X101745365Y-129921444D01*
X101967431Y-129958500D01*
X102192569Y-129958500D01*
X102414635Y-129921444D01*
X102627574Y-129848342D01*
X102825576Y-129741189D01*
X103003240Y-129602906D01*
X103066452Y-129534239D01*
X103119073Y-129500387D01*
X103181528Y-129496539D01*
X103237909Y-129523676D01*
X103273861Y-129574889D01*
X103319110Y-129696204D01*
X103406738Y-129813261D01*
X103523796Y-129900889D01*
X103660794Y-129951988D01*
X103660797Y-129951988D01*
X103660799Y-129951989D01*
X103721362Y-129958500D01*
X105518634Y-129958500D01*
X105518638Y-129958500D01*
X105579201Y-129951989D01*
X105579203Y-129951988D01*
X105579205Y-129951988D01*
X105661097Y-129921443D01*
X105716204Y-129900889D01*
X105833261Y-129813261D01*
X105920889Y-129696204D01*
X105971989Y-129559201D01*
X105978500Y-129498638D01*
X105978500Y-127701362D01*
X105971989Y-127640799D01*
X105971988Y-127640797D01*
X105971988Y-127640794D01*
X105920889Y-127503796D01*
X105833261Y-127386738D01*
X105716203Y-127299110D01*
X105579205Y-127248011D01*
X105548919Y-127244755D01*
X105518638Y-127241500D01*
X103721362Y-127241500D01*
X103694445Y-127244393D01*
X103660794Y-127248011D01*
X103523796Y-127299110D01*
X103406738Y-127386738D01*
X103319110Y-127503796D01*
X103273861Y-127625110D01*
X103237909Y-127676323D01*
X103181528Y-127703460D01*
X103119074Y-127699612D01*
X103066451Y-127665758D01*
X103003242Y-127597096D01*
X103003241Y-127597095D01*
X103003240Y-127597094D01*
X102825576Y-127458811D01*
X102627574Y-127351658D01*
X102627573Y-127351657D01*
X102627572Y-127351657D01*
X102414636Y-127278556D01*
X102192569Y-127241500D01*
X101967431Y-127241500D01*
X101745363Y-127278556D01*
X101532427Y-127351657D01*
X101334424Y-127458811D01*
X101156760Y-127597094D01*
X101004279Y-127762730D01*
X100913809Y-127901205D01*
X100869017Y-127942438D01*
X100810000Y-127957383D01*
X100750983Y-127942438D01*
X100706191Y-127901205D01*
X100682892Y-127865544D01*
X100615722Y-127762732D01*
X100463240Y-127597094D01*
X100285576Y-127458811D01*
X100087574Y-127351658D01*
X100087573Y-127351657D01*
X100087572Y-127351657D01*
X99874636Y-127278556D01*
X99652569Y-127241500D01*
X99427431Y-127241500D01*
X99205363Y-127278556D01*
X98992427Y-127351657D01*
X98794424Y-127458811D01*
X98616760Y-127597094D01*
X98464279Y-127762730D01*
X98373809Y-127901205D01*
X98329017Y-127942438D01*
X98270000Y-127957383D01*
X98210983Y-127942438D01*
X98166191Y-127901205D01*
X98142892Y-127865544D01*
X98075722Y-127762732D01*
X97923240Y-127597094D01*
X97745576Y-127458811D01*
X97547574Y-127351658D01*
X97547573Y-127351657D01*
X97547572Y-127351657D01*
X97334636Y-127278556D01*
X97112569Y-127241500D01*
X96887431Y-127241500D01*
X96665363Y-127278556D01*
X96452427Y-127351657D01*
X96254424Y-127458811D01*
X96076760Y-127597094D01*
X95924279Y-127762730D01*
X95801138Y-127951211D01*
X95732899Y-128106783D01*
X95710704Y-128157384D01*
X95678329Y-128285231D01*
X95655435Y-128375636D01*
X95636843Y-128600000D01*
X93386585Y-128600000D01*
X93393217Y-128581047D01*
X93413616Y-128400000D01*
X93393217Y-128218953D01*
X93333043Y-128046985D01*
X93236111Y-127892719D01*
X93107281Y-127763889D01*
X92953015Y-127666957D01*
X92781047Y-127606783D01*
X92781046Y-127606782D01*
X92781044Y-127606782D01*
X92600000Y-127586383D01*
X92418955Y-127606782D01*
X92246984Y-127666957D01*
X92092717Y-127763890D01*
X91963890Y-127892717D01*
X91866957Y-128046984D01*
X91806782Y-128218955D01*
X91786383Y-128400000D01*
X85640686Y-128400000D01*
X85636111Y-128392719D01*
X85507281Y-128263889D01*
X85353015Y-128166957D01*
X85181047Y-128106783D01*
X85181046Y-128106782D01*
X85181044Y-128106782D01*
X85000000Y-128086383D01*
X84818955Y-128106782D01*
X84646984Y-128166957D01*
X84492717Y-128263890D01*
X84363890Y-128392717D01*
X84266957Y-128546984D01*
X84206782Y-128718955D01*
X84186383Y-128900000D01*
X81720846Y-128900000D01*
X81781047Y-128893217D01*
X81953015Y-128833043D01*
X82107281Y-128736111D01*
X82236111Y-128607281D01*
X82333043Y-128453015D01*
X82393217Y-128281047D01*
X82413616Y-128100000D01*
X82393217Y-127918953D01*
X82333043Y-127746985D01*
X82236111Y-127592719D01*
X82107281Y-127463889D01*
X81953015Y-127366957D01*
X81781047Y-127306783D01*
X81781046Y-127306782D01*
X81781044Y-127306782D01*
X81600000Y-127286383D01*
X81418955Y-127306782D01*
X81246984Y-127366957D01*
X81092717Y-127463890D01*
X80963890Y-127592717D01*
X80866957Y-127746984D01*
X80806782Y-127918955D01*
X80786383Y-128099999D01*
X77626927Y-128099999D01*
X77637472Y-128006409D01*
X77655698Y-127954322D01*
X77694721Y-127915299D01*
X77746805Y-127897074D01*
X77781047Y-127893217D01*
X77953015Y-127833043D01*
X78107281Y-127736111D01*
X78236111Y-127607281D01*
X78333043Y-127453015D01*
X78393217Y-127281047D01*
X78413616Y-127100000D01*
X78393217Y-126918953D01*
X78383518Y-126891237D01*
X78377779Y-126832950D01*
X78399432Y-126778529D01*
X78443647Y-126740117D01*
X78500561Y-126726284D01*
X80764514Y-126726284D01*
X80772001Y-126726510D01*
X80832770Y-126730186D01*
X80892671Y-126719208D01*
X80900041Y-126718087D01*
X80960478Y-126710749D01*
X80970175Y-126707071D01*
X80991801Y-126701043D01*
X81002006Y-126699173D01*
X81057527Y-126674184D01*
X81064429Y-126671326D01*
X81112711Y-126653015D01*
X81121352Y-126649738D01*
X81129896Y-126643839D01*
X81149431Y-126632821D01*
X81158903Y-126628559D01*
X81206839Y-126591001D01*
X81212820Y-126586600D01*
X81262950Y-126551999D01*
X81303350Y-126506395D01*
X81308437Y-126500992D01*
X81551149Y-126258280D01*
X81591377Y-126231401D01*
X81638830Y-126221962D01*
X82161375Y-126221962D01*
X82168862Y-126222188D01*
X82229631Y-126225864D01*
X82289532Y-126214886D01*
X82296902Y-126213765D01*
X82357339Y-126206427D01*
X82367036Y-126202749D01*
X82388662Y-126196721D01*
X82398867Y-126194851D01*
X82454388Y-126169862D01*
X82461290Y-126167004D01*
X82501727Y-126151667D01*
X82518213Y-126145416D01*
X82526757Y-126139517D01*
X82546292Y-126128499D01*
X82555764Y-126124237D01*
X82603700Y-126086679D01*
X82609681Y-126082278D01*
X82659811Y-126047677D01*
X82700211Y-126002073D01*
X82705298Y-125996670D01*
X83764148Y-124937820D01*
X83769551Y-124932733D01*
X83815155Y-124892333D01*
X83833337Y-124865990D01*
X83872843Y-124829360D01*
X83924161Y-124812941D01*
X83977599Y-124819839D01*
X84023065Y-124848750D01*
X84088845Y-124914530D01*
X84164428Y-124962022D01*
X84206302Y-125005819D01*
X84222423Y-125064231D01*
X84208939Y-125123308D01*
X84169071Y-125168942D01*
X84112339Y-125190234D01*
X84025746Y-125199991D01*
X83853775Y-125260166D01*
X83699508Y-125357099D01*
X83570681Y-125485926D01*
X83473748Y-125640193D01*
X83413573Y-125812164D01*
X83393174Y-125993209D01*
X83413573Y-126174253D01*
X83413573Y-126174255D01*
X83413574Y-126174256D01*
X83473748Y-126346224D01*
X83570680Y-126500490D01*
X83699510Y-126629320D01*
X83853776Y-126726252D01*
X84025744Y-126786426D01*
X84206791Y-126806825D01*
X84387838Y-126786426D01*
X84559806Y-126726252D01*
X84714072Y-126629320D01*
X84842902Y-126500490D01*
X84939834Y-126346224D01*
X85000008Y-126174256D01*
X85020407Y-125993209D01*
X85000008Y-125812162D01*
X84939834Y-125640194D01*
X84842902Y-125485928D01*
X84714072Y-125357098D01*
X84618906Y-125297301D01*
X84577031Y-125253503D01*
X84560910Y-125195090D01*
X84574394Y-125136013D01*
X84614263Y-125090380D01*
X84670996Y-125069088D01*
X84692435Y-125066672D01*
X84734604Y-125061921D01*
X84895937Y-125005468D01*
X85040663Y-124914530D01*
X85161525Y-124793668D01*
X85252463Y-124648942D01*
X85308916Y-124487609D01*
X85328053Y-124317759D01*
X85327379Y-124311781D01*
X85316114Y-124211796D01*
X85308916Y-124147909D01*
X85252463Y-123986576D01*
X85161525Y-123841850D01*
X85040663Y-123720988D01*
X84895937Y-123630050D01*
X84810056Y-123599999D01*
X87886383Y-123599999D01*
X87906782Y-123781044D01*
X87906782Y-123781046D01*
X87906783Y-123781047D01*
X87966957Y-123953015D01*
X88063889Y-124107281D01*
X88192719Y-124236111D01*
X88346985Y-124333043D01*
X88518953Y-124393217D01*
X88700000Y-124413616D01*
X88881047Y-124393217D01*
X88933111Y-124374999D01*
X93411383Y-124374999D01*
X93431782Y-124556044D01*
X93431782Y-124556046D01*
X93431783Y-124556047D01*
X93491957Y-124728015D01*
X93588889Y-124882281D01*
X93717719Y-125011111D01*
X93871985Y-125108043D01*
X93971964Y-125143027D01*
X94024995Y-125179183D01*
X94052845Y-125237013D01*
X94048049Y-125301021D01*
X94006782Y-125418955D01*
X93986383Y-125600000D01*
X94006782Y-125781044D01*
X94006782Y-125781046D01*
X94006783Y-125781047D01*
X94066957Y-125953015D01*
X94163889Y-126107281D01*
X94292719Y-126236111D01*
X94446985Y-126333043D01*
X94618953Y-126393217D01*
X94800000Y-126413616D01*
X94981047Y-126393217D01*
X95153015Y-126333043D01*
X95307281Y-126236111D01*
X95436111Y-126107281D01*
X95533043Y-125953015D01*
X95593217Y-125781047D01*
X95613616Y-125600000D01*
X95593217Y-125418953D01*
X95533043Y-125246985D01*
X95503520Y-125200000D01*
X101086383Y-125200000D01*
X101106782Y-125381044D01*
X101106782Y-125381046D01*
X101106783Y-125381047D01*
X101166957Y-125553015D01*
X101263889Y-125707281D01*
X101392719Y-125836111D01*
X101546985Y-125933043D01*
X101718953Y-125993217D01*
X101900000Y-126013616D01*
X102081047Y-125993217D01*
X102253015Y-125933043D01*
X102407281Y-125836111D01*
X102536111Y-125707281D01*
X102633043Y-125553015D01*
X102693217Y-125381047D01*
X102713616Y-125200000D01*
X102693217Y-125018953D01*
X102633043Y-124846985D01*
X102536111Y-124692719D01*
X102408203Y-124564811D01*
X104556759Y-124564811D01*
X104577158Y-124745856D01*
X104577158Y-124745858D01*
X104577159Y-124745859D01*
X104637333Y-124917827D01*
X104734265Y-125072093D01*
X104863095Y-125200923D01*
X105017361Y-125297855D01*
X105189329Y-125358029D01*
X105370376Y-125378428D01*
X105551423Y-125358029D01*
X105723391Y-125297855D01*
X105877657Y-125200923D01*
X106006487Y-125072093D01*
X106103419Y-124917827D01*
X106163593Y-124745859D01*
X106183992Y-124564812D01*
X106183004Y-124556047D01*
X106171435Y-124453363D01*
X106163593Y-124383765D01*
X106103419Y-124211797D01*
X106006487Y-124057531D01*
X105877657Y-123928701D01*
X105723391Y-123831769D01*
X105551423Y-123771595D01*
X105551422Y-123771594D01*
X105551420Y-123771594D01*
X105370376Y-123751195D01*
X105189331Y-123771594D01*
X105017360Y-123831769D01*
X104863093Y-123928702D01*
X104734266Y-124057529D01*
X104637333Y-124211796D01*
X104577158Y-124383767D01*
X104556759Y-124564811D01*
X102408203Y-124564811D01*
X102407281Y-124563889D01*
X102253015Y-124466957D01*
X102081047Y-124406783D01*
X102081046Y-124406782D01*
X102081044Y-124406782D01*
X101900000Y-124386383D01*
X101718955Y-124406782D01*
X101546984Y-124466957D01*
X101392717Y-124563890D01*
X101263890Y-124692717D01*
X101166957Y-124846984D01*
X101106782Y-125018955D01*
X101086383Y-125200000D01*
X95503520Y-125200000D01*
X95436111Y-125092719D01*
X95307281Y-124963889D01*
X95153015Y-124866957D01*
X95153012Y-124866955D01*
X95053038Y-124831973D01*
X95000004Y-124795816D01*
X94972155Y-124737985D01*
X94976951Y-124673978D01*
X94985711Y-124648943D01*
X95018217Y-124556047D01*
X95038616Y-124375000D01*
X95035459Y-124346985D01*
X95022967Y-124236109D01*
X95018217Y-124193953D01*
X94958043Y-124021985D01*
X94861111Y-123867719D01*
X94732281Y-123738889D01*
X94670390Y-123700000D01*
X96786383Y-123700000D01*
X96806782Y-123881044D01*
X96806782Y-123881046D01*
X96806783Y-123881047D01*
X96866957Y-124053015D01*
X96963889Y-124207281D01*
X97092719Y-124336111D01*
X97246985Y-124433043D01*
X97418953Y-124493217D01*
X97600000Y-124513616D01*
X97781047Y-124493217D01*
X97953015Y-124433043D01*
X98107281Y-124336111D01*
X98236111Y-124207281D01*
X98333043Y-124053015D01*
X98393217Y-123881047D01*
X98413616Y-123700000D01*
X98393217Y-123518953D01*
X98333043Y-123346985D01*
X98236111Y-123192719D01*
X98107281Y-123063889D01*
X97953015Y-122966957D01*
X97781047Y-122906783D01*
X97781046Y-122906782D01*
X97781044Y-122906782D01*
X97600000Y-122886383D01*
X97418955Y-122906782D01*
X97246984Y-122966957D01*
X97092717Y-123063890D01*
X96963890Y-123192717D01*
X96866957Y-123346984D01*
X96806782Y-123518955D01*
X96786383Y-123700000D01*
X94670390Y-123700000D01*
X94578015Y-123641957D01*
X94406047Y-123581783D01*
X94406046Y-123581782D01*
X94406044Y-123581782D01*
X94225000Y-123561383D01*
X94043955Y-123581782D01*
X93871984Y-123641957D01*
X93717717Y-123738890D01*
X93588890Y-123867717D01*
X93491957Y-124021984D01*
X93431782Y-124193955D01*
X93411383Y-124374999D01*
X88933111Y-124374999D01*
X89053015Y-124333043D01*
X89207281Y-124236111D01*
X89336111Y-124107281D01*
X89433043Y-123953015D01*
X89493217Y-123781047D01*
X89513616Y-123600000D01*
X89512795Y-123592717D01*
X89497831Y-123459906D01*
X89493217Y-123418953D01*
X89433043Y-123246985D01*
X89336111Y-123092719D01*
X89319841Y-123076449D01*
X89287747Y-123020861D01*
X89287747Y-122956674D01*
X89319838Y-122901090D01*
X89423736Y-122797193D01*
X89502675Y-122671562D01*
X89541695Y-122632543D01*
X89593783Y-122614317D01*
X89706899Y-122601571D01*
X89781047Y-122593217D01*
X89953015Y-122533043D01*
X90107281Y-122436111D01*
X90236111Y-122307281D01*
X90333043Y-122153015D01*
X90393217Y-121981047D01*
X90413616Y-121800000D01*
X90393217Y-121618953D01*
X90333043Y-121446985D01*
X90303520Y-121400000D01*
X94786383Y-121400000D01*
X94806782Y-121581044D01*
X94806782Y-121581046D01*
X94806783Y-121581047D01*
X94866957Y-121753015D01*
X94963889Y-121907281D01*
X95092719Y-122036111D01*
X95246985Y-122133043D01*
X95418953Y-122193217D01*
X95600000Y-122213616D01*
X95781047Y-122193217D01*
X95953015Y-122133043D01*
X96107281Y-122036111D01*
X96236111Y-121907281D01*
X96240686Y-121900000D01*
X102386383Y-121900000D01*
X102406782Y-122081044D01*
X102406782Y-122081046D01*
X102406783Y-122081047D01*
X102466957Y-122253015D01*
X102563889Y-122407281D01*
X102692719Y-122536111D01*
X102846985Y-122633043D01*
X103018953Y-122693217D01*
X103200000Y-122713616D01*
X103381047Y-122693217D01*
X103553015Y-122633043D01*
X103707281Y-122536111D01*
X103836111Y-122407281D01*
X103933043Y-122253015D01*
X103993217Y-122081047D01*
X104013616Y-121900000D01*
X103993217Y-121718953D01*
X103933043Y-121546985D01*
X103836111Y-121392719D01*
X103707281Y-121263889D01*
X103553015Y-121166957D01*
X103381047Y-121106783D01*
X103381046Y-121106782D01*
X103381044Y-121106782D01*
X103200000Y-121086383D01*
X103018955Y-121106782D01*
X102846984Y-121166957D01*
X102692717Y-121263890D01*
X102563890Y-121392717D01*
X102466957Y-121546984D01*
X102406782Y-121718955D01*
X102386383Y-121900000D01*
X96240686Y-121900000D01*
X96333043Y-121753015D01*
X96393217Y-121581047D01*
X96409082Y-121440239D01*
X96412934Y-121406055D01*
X96436384Y-121346305D01*
X96486568Y-121306285D01*
X96550036Y-121296719D01*
X96700000Y-121313616D01*
X96881047Y-121293217D01*
X97053015Y-121233043D01*
X97207281Y-121136111D01*
X97336111Y-121007281D01*
X97433043Y-120853015D01*
X97493217Y-120681047D01*
X97513616Y-120500000D01*
X98186383Y-120500000D01*
X98206782Y-120681044D01*
X98206782Y-120681046D01*
X98206783Y-120681047D01*
X98266957Y-120853015D01*
X98363889Y-121007281D01*
X98492719Y-121136111D01*
X98646985Y-121233043D01*
X98818953Y-121293217D01*
X99000000Y-121313616D01*
X99181047Y-121293217D01*
X99353015Y-121233043D01*
X99507281Y-121136111D01*
X99636111Y-121007281D01*
X99733043Y-120853015D01*
X99793217Y-120681047D01*
X99813616Y-120500000D01*
X99793217Y-120318953D01*
X99733043Y-120146985D01*
X99636111Y-119992719D01*
X99507281Y-119863889D01*
X99353015Y-119766957D01*
X99181047Y-119706783D01*
X99181046Y-119706782D01*
X99181044Y-119706782D01*
X99000000Y-119686383D01*
X98818955Y-119706782D01*
X98646984Y-119766957D01*
X98492717Y-119863890D01*
X98363890Y-119992717D01*
X98266957Y-120146984D01*
X98206782Y-120318955D01*
X98186383Y-120500000D01*
X97513616Y-120500000D01*
X97493217Y-120318953D01*
X97433043Y-120146985D01*
X97336111Y-119992719D01*
X97207281Y-119863889D01*
X97053015Y-119766957D01*
X97053012Y-119766955D01*
X96994142Y-119746356D01*
X96947415Y-119716995D01*
X96918055Y-119670267D01*
X96911877Y-119615430D01*
X96913616Y-119600000D01*
X96910218Y-119569846D01*
X96893217Y-119418955D01*
X96893217Y-119418953D01*
X96833043Y-119246985D01*
X96736111Y-119092719D01*
X96607281Y-118963889D01*
X96453015Y-118866957D01*
X96281047Y-118806783D01*
X96281046Y-118806782D01*
X96281044Y-118806782D01*
X96220852Y-118800000D01*
X102186383Y-118800000D01*
X102206782Y-118981044D01*
X102206782Y-118981046D01*
X102206783Y-118981047D01*
X102266957Y-119153015D01*
X102363889Y-119307281D01*
X102492719Y-119436111D01*
X102646985Y-119533043D01*
X102818953Y-119593217D01*
X102939651Y-119606816D01*
X102999999Y-119613616D01*
X102999999Y-119613615D01*
X103000000Y-119613616D01*
X103181047Y-119593217D01*
X103353015Y-119533043D01*
X103507281Y-119436111D01*
X103636111Y-119307281D01*
X103733043Y-119153015D01*
X103751594Y-119099999D01*
X108186383Y-119099999D01*
X108206782Y-119281044D01*
X108206782Y-119281046D01*
X108206783Y-119281047D01*
X108266957Y-119453015D01*
X108363889Y-119607281D01*
X108492719Y-119736111D01*
X108646985Y-119833043D01*
X108818953Y-119893217D01*
X109000000Y-119913616D01*
X109181047Y-119893217D01*
X109353015Y-119833043D01*
X109507281Y-119736111D01*
X109636111Y-119607281D01*
X109733043Y-119453015D01*
X109793217Y-119281047D01*
X109813616Y-119100000D01*
X109812795Y-119092717D01*
X109800213Y-118981044D01*
X109793217Y-118918953D01*
X109733043Y-118746985D01*
X109636111Y-118592719D01*
X109507281Y-118463889D01*
X109353015Y-118366957D01*
X109181047Y-118306783D01*
X109181046Y-118306782D01*
X109181044Y-118306782D01*
X108999999Y-118286383D01*
X108818955Y-118306782D01*
X108646984Y-118366957D01*
X108492717Y-118463890D01*
X108363890Y-118592717D01*
X108266957Y-118746984D01*
X108206782Y-118918955D01*
X108186383Y-119099999D01*
X103751594Y-119099999D01*
X103793217Y-118981047D01*
X103813616Y-118800000D01*
X103793217Y-118618953D01*
X103733043Y-118446985D01*
X103636111Y-118292719D01*
X103507281Y-118163889D01*
X103353015Y-118066957D01*
X103181047Y-118006783D01*
X103181046Y-118006782D01*
X103181044Y-118006782D01*
X103000000Y-117986383D01*
X102818955Y-118006782D01*
X102646984Y-118066957D01*
X102492717Y-118163890D01*
X102363890Y-118292717D01*
X102266957Y-118446984D01*
X102206782Y-118618955D01*
X102186383Y-118800000D01*
X96220852Y-118800000D01*
X96099999Y-118786383D01*
X95918955Y-118806782D01*
X95746984Y-118866957D01*
X95592717Y-118963890D01*
X95463890Y-119092717D01*
X95366957Y-119246984D01*
X95306782Y-119418955D01*
X95286383Y-119599999D01*
X95306782Y-119781044D01*
X95306782Y-119781046D01*
X95306783Y-119781047D01*
X95366957Y-119953015D01*
X95463889Y-120107281D01*
X95592719Y-120236111D01*
X95746985Y-120333043D01*
X95805858Y-120353643D01*
X95852585Y-120383004D01*
X95881945Y-120429734D01*
X95888121Y-120484575D01*
X95887064Y-120493951D01*
X95863612Y-120553698D01*
X95813429Y-120593715D01*
X95749961Y-120603280D01*
X95600000Y-120586383D01*
X95418955Y-120606782D01*
X95246984Y-120666957D01*
X95092717Y-120763890D01*
X94963890Y-120892717D01*
X94866957Y-121046984D01*
X94806782Y-121218955D01*
X94786383Y-121400000D01*
X90303520Y-121400000D01*
X90236111Y-121292719D01*
X90107281Y-121163889D01*
X89953015Y-121066957D01*
X89953013Y-121066956D01*
X89941185Y-121059524D01*
X89942450Y-121057510D01*
X89916371Y-121041121D01*
X89887014Y-120994396D01*
X89880837Y-120939560D01*
X89881898Y-120930150D01*
X89888088Y-120875210D01*
X89883011Y-120830153D01*
X89876100Y-120768815D01*
X89868951Y-120705360D01*
X89812498Y-120544027D01*
X89721560Y-120399301D01*
X89670505Y-120348246D01*
X89638412Y-120292659D01*
X89638412Y-120228472D01*
X89670503Y-120172888D01*
X89736111Y-120107281D01*
X89833043Y-119953015D01*
X89893217Y-119781047D01*
X89913616Y-119600000D01*
X89910218Y-119569846D01*
X89906072Y-119533042D01*
X89893217Y-119418953D01*
X89833043Y-119246985D01*
X89783566Y-119168244D01*
X89782138Y-119165971D01*
X89763132Y-119099998D01*
X89782138Y-119034028D01*
X89833043Y-118953015D01*
X89893217Y-118781047D01*
X89913616Y-118600000D01*
X89893217Y-118418953D01*
X89833043Y-118246985D01*
X89752611Y-118118979D01*
X89733606Y-118053008D01*
X89752614Y-117987035D01*
X89787708Y-117931185D01*
X89787709Y-117931183D01*
X89844162Y-117769850D01*
X89863299Y-117600000D01*
X89852032Y-117499999D01*
X99186383Y-117499999D01*
X99206782Y-117681044D01*
X99206782Y-117681046D01*
X99206783Y-117681047D01*
X99266957Y-117853015D01*
X99363889Y-118007281D01*
X99492719Y-118136111D01*
X99646985Y-118233043D01*
X99818953Y-118293217D01*
X100000000Y-118313616D01*
X100181047Y-118293217D01*
X100353015Y-118233043D01*
X100507281Y-118136111D01*
X100636111Y-118007281D01*
X100733043Y-117853015D01*
X100793217Y-117681047D01*
X100802349Y-117600000D01*
X106686383Y-117600000D01*
X106706782Y-117781044D01*
X106706782Y-117781046D01*
X106706783Y-117781047D01*
X106766957Y-117953015D01*
X106863889Y-118107281D01*
X106992719Y-118236111D01*
X107146985Y-118333043D01*
X107318953Y-118393217D01*
X107398405Y-118402169D01*
X107499999Y-118413616D01*
X107499999Y-118413615D01*
X107500000Y-118413616D01*
X107681047Y-118393217D01*
X107853015Y-118333043D01*
X108007281Y-118236111D01*
X108136111Y-118107281D01*
X108233043Y-117953015D01*
X108293217Y-117781047D01*
X108313616Y-117600000D01*
X108293217Y-117418953D01*
X108233043Y-117246985D01*
X108136111Y-117092719D01*
X108007281Y-116963889D01*
X107853015Y-116866957D01*
X107681047Y-116806783D01*
X107681046Y-116806782D01*
X107681044Y-116806782D01*
X107500000Y-116786383D01*
X107318955Y-116806782D01*
X107146984Y-116866957D01*
X106992717Y-116963890D01*
X106863890Y-117092717D01*
X106766957Y-117246984D01*
X106706782Y-117418955D01*
X106686383Y-117600000D01*
X100802349Y-117600000D01*
X100813616Y-117500000D01*
X100793217Y-117318953D01*
X100733043Y-117146985D01*
X100636111Y-116992719D01*
X100507281Y-116863889D01*
X100353015Y-116766957D01*
X100181047Y-116706783D01*
X100181046Y-116706782D01*
X100181044Y-116706782D01*
X100000000Y-116686383D01*
X99818955Y-116706782D01*
X99646984Y-116766957D01*
X99492717Y-116863890D01*
X99363890Y-116992717D01*
X99266957Y-117146984D01*
X99206782Y-117318955D01*
X99186383Y-117499999D01*
X89852032Y-117499999D01*
X89844162Y-117430150D01*
X89787709Y-117268817D01*
X89696771Y-117124091D01*
X89575909Y-117003229D01*
X89431183Y-116912291D01*
X89269850Y-116855838D01*
X89269848Y-116855837D01*
X89269846Y-116855837D01*
X89100000Y-116836700D01*
X88930153Y-116855837D01*
X88930150Y-116855837D01*
X88930150Y-116855838D01*
X88768817Y-116912291D01*
X88768815Y-116912291D01*
X88768815Y-116912292D01*
X88624089Y-117003230D01*
X88503230Y-117124089D01*
X88426009Y-117246984D01*
X88412291Y-117268817D01*
X88379018Y-117363905D01*
X88355837Y-117430153D01*
X88336700Y-117599999D01*
X88355837Y-117769846D01*
X88355837Y-117769848D01*
X88355838Y-117769850D01*
X88412291Y-117931183D01*
X88440329Y-117975804D01*
X88447387Y-117987037D01*
X88466393Y-118053009D01*
X88447387Y-118118981D01*
X88366957Y-118246984D01*
X88306782Y-118418955D01*
X88286383Y-118600000D01*
X88306782Y-118781044D01*
X88306782Y-118781046D01*
X88306783Y-118781047D01*
X88310029Y-118790323D01*
X88366957Y-118953015D01*
X88417861Y-119034028D01*
X88436867Y-119100000D01*
X88417861Y-119165972D01*
X88366957Y-119246984D01*
X88306782Y-119418955D01*
X88286383Y-119599999D01*
X88306782Y-119781044D01*
X88306782Y-119781046D01*
X88306783Y-119781047D01*
X88366957Y-119953015D01*
X88439720Y-120068817D01*
X88463890Y-120107282D01*
X88554282Y-120197674D01*
X88586376Y-120253261D01*
X88586376Y-120317447D01*
X88554283Y-120373035D01*
X88528020Y-120399298D01*
X88444838Y-120531681D01*
X88437080Y-120544027D01*
X88408326Y-120626201D01*
X88380626Y-120705363D01*
X88361489Y-120875210D01*
X88380626Y-121045056D01*
X88380626Y-121045058D01*
X88380627Y-121045060D01*
X88437080Y-121206393D01*
X88524993Y-121346305D01*
X88528019Y-121351120D01*
X88589358Y-121412459D01*
X88620831Y-121465812D01*
X88622568Y-121527732D01*
X88594137Y-121582767D01*
X88542632Y-121617181D01*
X88495784Y-121633573D01*
X88351054Y-121724514D01*
X88230195Y-121845373D01*
X88181288Y-121923207D01*
X88139256Y-121990101D01*
X88083305Y-122150000D01*
X88082802Y-122151437D01*
X88063665Y-122321284D01*
X88082802Y-122491130D01*
X88082802Y-122491132D01*
X88082803Y-122491134D01*
X88139256Y-122652467D01*
X88228708Y-122794829D01*
X88247628Y-122856160D01*
X88233348Y-122918736D01*
X88201573Y-122952985D01*
X88202598Y-122954010D01*
X88063890Y-123092717D01*
X87966957Y-123246984D01*
X87906782Y-123418955D01*
X87886383Y-123599999D01*
X84810056Y-123599999D01*
X84734604Y-123573597D01*
X84734602Y-123573596D01*
X84734600Y-123573596D01*
X84564754Y-123554459D01*
X84394907Y-123573596D01*
X84394904Y-123573596D01*
X84394904Y-123573597D01*
X84233571Y-123630050D01*
X84179410Y-123664081D01*
X84116918Y-123683038D01*
X84053459Y-123667615D01*
X84006637Y-123622088D01*
X83989440Y-123559087D01*
X83989440Y-123466369D01*
X84008446Y-123400398D01*
X84010846Y-123396576D01*
X84013983Y-123391585D01*
X84074157Y-123219617D01*
X84094556Y-123038570D01*
X84074157Y-122857523D01*
X84013983Y-122685555D01*
X84013051Y-122684071D01*
X84008446Y-122676742D01*
X83989440Y-122610771D01*
X83989440Y-121892831D01*
X84004912Y-121832850D01*
X84047468Y-121787837D01*
X84048732Y-121787043D01*
X84202998Y-121690111D01*
X84331828Y-121561281D01*
X84428760Y-121407015D01*
X84456956Y-121326435D01*
X85310264Y-121326435D01*
X85329401Y-121496282D01*
X85329401Y-121496284D01*
X85329402Y-121496286D01*
X85385855Y-121657619D01*
X85476793Y-121802345D01*
X85597655Y-121923207D01*
X85742381Y-122014145D01*
X85903714Y-122070598D01*
X86073564Y-122089735D01*
X86243414Y-122070598D01*
X86404747Y-122014145D01*
X86549473Y-121923207D01*
X86670335Y-121802345D01*
X86761273Y-121657619D01*
X86817726Y-121496286D01*
X86836863Y-121326436D01*
X86817726Y-121156586D01*
X86761273Y-120995253D01*
X86670335Y-120850527D01*
X86549473Y-120729665D01*
X86404747Y-120638727D01*
X86243414Y-120582274D01*
X86243412Y-120582273D01*
X86243410Y-120582273D01*
X86073564Y-120563136D01*
X85903717Y-120582273D01*
X85903714Y-120582273D01*
X85903714Y-120582274D01*
X85742381Y-120638727D01*
X85742379Y-120638727D01*
X85742379Y-120638728D01*
X85597653Y-120729666D01*
X85476794Y-120850525D01*
X85411063Y-120955134D01*
X85385855Y-120995253D01*
X85346829Y-121106782D01*
X85329401Y-121156589D01*
X85310264Y-121326435D01*
X84456956Y-121326435D01*
X84488934Y-121235047D01*
X84509333Y-121054000D01*
X84508542Y-121046984D01*
X84498300Y-120956082D01*
X84488934Y-120872953D01*
X84428760Y-120700985D01*
X84426111Y-120696769D01*
X84423223Y-120692172D01*
X84404217Y-120626201D01*
X84404217Y-118700000D01*
X85236700Y-118700000D01*
X85255837Y-118869846D01*
X85255837Y-118869848D01*
X85255838Y-118869850D01*
X85312291Y-119031183D01*
X85403229Y-119175909D01*
X85524091Y-119296771D01*
X85668817Y-119387709D01*
X85830150Y-119444162D01*
X86000000Y-119463299D01*
X86169850Y-119444162D01*
X86331183Y-119387709D01*
X86475909Y-119296771D01*
X86596771Y-119175909D01*
X86687709Y-119031183D01*
X86744162Y-118869850D01*
X86763299Y-118700000D01*
X86744162Y-118530150D01*
X86687709Y-118368817D01*
X86596771Y-118224091D01*
X86475909Y-118103229D01*
X86331183Y-118012291D01*
X86169850Y-117955838D01*
X86169848Y-117955837D01*
X86169846Y-117955837D01*
X86000000Y-117936700D01*
X85830153Y-117955837D01*
X85830150Y-117955837D01*
X85830150Y-117955838D01*
X85668817Y-118012291D01*
X85668815Y-118012291D01*
X85668815Y-118012292D01*
X85524089Y-118103230D01*
X85403230Y-118224089D01*
X85313459Y-118366957D01*
X85312291Y-118368817D01*
X85277951Y-118466955D01*
X85255837Y-118530153D01*
X85236700Y-118700000D01*
X84404217Y-118700000D01*
X84404217Y-116492839D01*
X84418050Y-116435925D01*
X84456462Y-116391709D01*
X84510883Y-116370057D01*
X84569172Y-116375798D01*
X84618952Y-116393217D01*
X84800000Y-116413616D01*
X84981047Y-116393217D01*
X85153015Y-116333043D01*
X85307281Y-116236111D01*
X85436111Y-116107281D01*
X85533043Y-115953015D01*
X85586585Y-115800000D01*
X86436700Y-115800000D01*
X86455837Y-115969846D01*
X86455837Y-115969848D01*
X86455838Y-115969850D01*
X86512291Y-116131183D01*
X86603229Y-116275909D01*
X86724091Y-116396771D01*
X86868817Y-116487709D01*
X87030150Y-116544162D01*
X87200000Y-116563299D01*
X87369850Y-116544162D01*
X87531183Y-116487709D01*
X87670770Y-116400000D01*
X94286383Y-116400000D01*
X94306782Y-116581044D01*
X94306782Y-116581046D01*
X94306783Y-116581047D01*
X94366957Y-116753015D01*
X94463889Y-116907281D01*
X94592719Y-117036111D01*
X94746985Y-117133043D01*
X94918953Y-117193217D01*
X95039651Y-117206816D01*
X95099999Y-117213616D01*
X95099999Y-117213615D01*
X95100000Y-117213616D01*
X95281047Y-117193217D01*
X95453015Y-117133043D01*
X95607281Y-117036111D01*
X95736111Y-116907281D01*
X95833043Y-116753015D01*
X95893217Y-116581047D01*
X95913616Y-116400000D01*
X95893217Y-116218953D01*
X95833043Y-116046985D01*
X95736111Y-115892719D01*
X95607281Y-115763889D01*
X95453015Y-115666957D01*
X95281047Y-115606783D01*
X95281046Y-115606782D01*
X95281044Y-115606782D01*
X95100000Y-115586383D01*
X94918955Y-115606782D01*
X94746984Y-115666957D01*
X94592717Y-115763890D01*
X94463890Y-115892717D01*
X94366957Y-116046984D01*
X94306782Y-116218955D01*
X94286383Y-116400000D01*
X87670770Y-116400000D01*
X87675909Y-116396771D01*
X87796771Y-116275909D01*
X87887709Y-116131183D01*
X87944162Y-115969850D01*
X87963299Y-115800000D01*
X87944162Y-115630150D01*
X87887709Y-115468817D01*
X87796771Y-115324091D01*
X87675909Y-115203229D01*
X87531183Y-115112291D01*
X87369850Y-115055838D01*
X87369848Y-115055837D01*
X87369846Y-115055837D01*
X87200000Y-115036700D01*
X87030153Y-115055837D01*
X87030150Y-115055837D01*
X87030150Y-115055838D01*
X86868817Y-115112291D01*
X86868815Y-115112291D01*
X86868815Y-115112292D01*
X86724089Y-115203230D01*
X86603230Y-115324089D01*
X86543621Y-115418955D01*
X86512291Y-115468817D01*
X86455838Y-115630150D01*
X86455837Y-115630153D01*
X86436700Y-115800000D01*
X85586585Y-115800000D01*
X85593217Y-115781047D01*
X85613616Y-115600000D01*
X85593217Y-115418953D01*
X85533043Y-115246985D01*
X85436111Y-115092719D01*
X85307281Y-114963889D01*
X85205602Y-114900000D01*
X104486383Y-114900000D01*
X104506782Y-115081044D01*
X104506782Y-115081046D01*
X104506783Y-115081047D01*
X104566957Y-115253015D01*
X104663889Y-115407281D01*
X104792719Y-115536111D01*
X104946985Y-115633043D01*
X105118953Y-115693217D01*
X105300000Y-115713616D01*
X105481047Y-115693217D01*
X105653015Y-115633043D01*
X105807281Y-115536111D01*
X105936111Y-115407281D01*
X106033043Y-115253015D01*
X106093217Y-115081047D01*
X106113616Y-114900000D01*
X106093217Y-114718953D01*
X106033043Y-114546985D01*
X105936111Y-114392719D01*
X105807281Y-114263889D01*
X105653015Y-114166957D01*
X105481047Y-114106783D01*
X105481046Y-114106782D01*
X105481044Y-114106782D01*
X105300000Y-114086383D01*
X105118955Y-114106782D01*
X104946984Y-114166957D01*
X104792717Y-114263890D01*
X104663890Y-114392717D01*
X104566957Y-114546984D01*
X104506782Y-114718955D01*
X104486383Y-114900000D01*
X85205602Y-114900000D01*
X85153015Y-114866957D01*
X84981047Y-114806783D01*
X84981046Y-114806782D01*
X84981044Y-114806782D01*
X84800000Y-114786383D01*
X84618955Y-114806782D01*
X84526458Y-114839148D01*
X84465964Y-114844557D01*
X84410158Y-114820590D01*
X84372430Y-114772998D01*
X84352118Y-114727867D01*
X84349253Y-114720950D01*
X84346692Y-114714196D01*
X84327671Y-114664042D01*
X84321774Y-114655498D01*
X84310751Y-114635953D01*
X84306492Y-114626491D01*
X84270550Y-114580615D01*
X84268946Y-114578568D01*
X84264510Y-114572539D01*
X84229931Y-114522442D01*
X84184364Y-114482074D01*
X84178910Y-114476940D01*
X83742084Y-114040114D01*
X83712723Y-113993387D01*
X83676810Y-113890752D01*
X83640526Y-113833006D01*
X83622301Y-113780921D01*
X83628479Y-113726082D01*
X83657840Y-113679355D01*
X83704564Y-113649996D01*
X83753015Y-113633043D01*
X83907281Y-113536111D01*
X84036111Y-113407281D01*
X84133043Y-113253015D01*
X84193217Y-113081047D01*
X84213616Y-112900000D01*
X84193217Y-112718953D01*
X84133043Y-112546985D01*
X84103520Y-112500000D01*
X96436843Y-112500000D01*
X96455435Y-112724363D01*
X96455435Y-112724366D01*
X96455436Y-112724368D01*
X96499912Y-112900000D01*
X96510705Y-112942618D01*
X96601138Y-113148788D01*
X96601140Y-113148791D01*
X96724278Y-113337268D01*
X96876760Y-113502906D01*
X97054424Y-113641189D01*
X97252426Y-113748342D01*
X97465365Y-113821444D01*
X97687431Y-113858500D01*
X97912569Y-113858500D01*
X98134635Y-113821444D01*
X98347574Y-113748342D01*
X98545576Y-113641189D01*
X98723240Y-113502906D01*
X98875722Y-113337268D01*
X98966192Y-113198793D01*
X99010981Y-113157562D01*
X99069998Y-113142616D01*
X99129016Y-113157561D01*
X99173807Y-113198794D01*
X99264275Y-113337265D01*
X99295352Y-113371023D01*
X99416760Y-113502906D01*
X99594424Y-113641189D01*
X99792426Y-113748342D01*
X100005365Y-113821444D01*
X100227431Y-113858500D01*
X100452569Y-113858500D01*
X100674635Y-113821444D01*
X100887574Y-113748342D01*
X101085576Y-113641189D01*
X101263240Y-113502906D01*
X101311438Y-113450550D01*
X101332908Y-113427228D01*
X101385531Y-113393374D01*
X101447986Y-113389526D01*
X101504367Y-113416664D01*
X101540319Y-113467877D01*
X101586647Y-113592089D01*
X101672811Y-113707188D01*
X101787910Y-113793352D01*
X101922624Y-113843597D01*
X101982176Y-113850000D01*
X102630000Y-113850000D01*
X102630000Y-112750000D01*
X103130000Y-112750000D01*
X103130000Y-113850000D01*
X103777824Y-113850000D01*
X103837375Y-113843597D01*
X103972089Y-113793352D01*
X104087188Y-113707188D01*
X104173352Y-113592089D01*
X104223597Y-113457375D01*
X104230000Y-113397824D01*
X104230000Y-112750000D01*
X103130000Y-112750000D01*
X102630000Y-112750000D01*
X102630000Y-111150000D01*
X103130000Y-111150000D01*
X103130000Y-112250000D01*
X104230000Y-112250000D01*
X104230000Y-111602176D01*
X104223597Y-111542624D01*
X104173352Y-111407910D01*
X104087188Y-111292811D01*
X103972089Y-111206647D01*
X103837375Y-111156402D01*
X103777824Y-111150000D01*
X103130000Y-111150000D01*
X102630000Y-111150000D01*
X101982176Y-111150000D01*
X101922624Y-111156402D01*
X101787910Y-111206647D01*
X101672811Y-111292811D01*
X101586647Y-111407911D01*
X101540319Y-111532122D01*
X101504367Y-111583335D01*
X101447986Y-111610473D01*
X101385532Y-111606625D01*
X101332908Y-111572772D01*
X101263240Y-111497094D01*
X101222872Y-111465674D01*
X101085576Y-111358811D01*
X100887574Y-111251658D01*
X100887573Y-111251657D01*
X100887572Y-111251657D01*
X100674636Y-111178556D01*
X100452569Y-111141500D01*
X100227431Y-111141500D01*
X100005363Y-111178556D01*
X99792427Y-111251657D01*
X99594424Y-111358811D01*
X99416760Y-111497094D01*
X99264279Y-111662730D01*
X99173809Y-111801205D01*
X99129017Y-111842438D01*
X99070000Y-111857383D01*
X99010983Y-111842438D01*
X98966191Y-111801205D01*
X98882877Y-111673684D01*
X98875722Y-111662732D01*
X98723240Y-111497094D01*
X98545576Y-111358811D01*
X98347574Y-111251658D01*
X98347573Y-111251657D01*
X98347572Y-111251657D01*
X98134636Y-111178556D01*
X97912569Y-111141500D01*
X97687431Y-111141500D01*
X97465363Y-111178556D01*
X97252427Y-111251657D01*
X97054424Y-111358811D01*
X96876760Y-111497094D01*
X96724279Y-111662730D01*
X96601138Y-111851211D01*
X96530000Y-112013393D01*
X96510704Y-112057384D01*
X96455436Y-112275632D01*
X96455435Y-112275636D01*
X96436843Y-112500000D01*
X84103520Y-112500000D01*
X84036111Y-112392719D01*
X83907281Y-112263889D01*
X83753015Y-112166957D01*
X83581047Y-112106783D01*
X83581046Y-112106782D01*
X83581044Y-112106782D01*
X83399999Y-112086383D01*
X83218955Y-112106782D01*
X83046984Y-112166957D01*
X82892717Y-112263890D01*
X82763890Y-112392717D01*
X82666957Y-112546984D01*
X82606782Y-112718955D01*
X82586383Y-112900000D01*
X82606782Y-113081044D01*
X82666957Y-113253015D01*
X82703239Y-113310757D01*
X82721465Y-113362845D01*
X82715287Y-113417683D01*
X82685927Y-113464409D01*
X82639201Y-113493770D01*
X82590753Y-113510723D01*
X82436484Y-113607657D01*
X82307657Y-113736484D01*
X82210724Y-113890751D01*
X82150549Y-114062722D01*
X82130150Y-114243767D01*
X82150549Y-114424811D01*
X82150549Y-114424813D01*
X82150550Y-114424814D01*
X82210724Y-114596782D01*
X82307656Y-114751048D01*
X82436486Y-114879878D01*
X82590752Y-114976810D01*
X82693388Y-115012723D01*
X82740114Y-115042084D01*
X82950898Y-115252868D01*
X82977778Y-115293096D01*
X82987217Y-115340549D01*
X82987217Y-120626201D01*
X82968211Y-120692172D01*
X82962674Y-120700983D01*
X82926759Y-120803621D01*
X82897399Y-120850346D01*
X82797744Y-120950001D01*
X82792292Y-120955134D01*
X82746723Y-120995505D01*
X82712141Y-121045604D01*
X82707705Y-121051633D01*
X82670165Y-121099550D01*
X82665904Y-121109017D01*
X82654886Y-121128552D01*
X82648985Y-121137102D01*
X82627397Y-121194022D01*
X82624533Y-121200938D01*
X82599550Y-121256448D01*
X82597678Y-121266666D01*
X82591654Y-121288273D01*
X82587975Y-121297973D01*
X82580636Y-121358409D01*
X82579509Y-121365808D01*
X82568537Y-121425681D01*
X82572214Y-121486453D01*
X82572440Y-121493940D01*
X82572440Y-122610771D01*
X82553434Y-122676742D01*
X82547898Y-122685552D01*
X82487722Y-122857525D01*
X82467323Y-123038570D01*
X82487722Y-123219614D01*
X82487722Y-123219616D01*
X82487723Y-123219617D01*
X82541779Y-123374102D01*
X82547898Y-123391587D01*
X82553434Y-123400398D01*
X82572440Y-123466369D01*
X82572440Y-123880470D01*
X82555243Y-123943471D01*
X82508421Y-123988998D01*
X82444962Y-124004421D01*
X82382469Y-123985464D01*
X82353015Y-123966957D01*
X82181047Y-123906783D01*
X82181046Y-123906782D01*
X82181044Y-123906782D01*
X82000000Y-123886383D01*
X81818955Y-123906782D01*
X81646984Y-123966957D01*
X81492717Y-124063890D01*
X81363890Y-124192717D01*
X81266957Y-124346984D01*
X81206782Y-124518955D01*
X81199864Y-124580356D01*
X81173591Y-124643785D01*
X81117599Y-124683513D01*
X80994986Y-124726417D01*
X80840716Y-124823352D01*
X80711889Y-124952179D01*
X80614955Y-125106448D01*
X80579041Y-125209082D01*
X80549686Y-125255802D01*
X80532530Y-125272960D01*
X80492300Y-125299844D01*
X80444844Y-125309284D01*
X78045583Y-125309284D01*
X77979612Y-125290278D01*
X77970801Y-125284742D01*
X77970800Y-125284741D01*
X77970799Y-125284741D01*
X77798831Y-125224567D01*
X77798830Y-125224566D01*
X77798828Y-125224566D01*
X77617784Y-125204167D01*
X77436739Y-125224566D01*
X77264768Y-125284741D01*
X77110501Y-125381674D01*
X76981674Y-125510501D01*
X76884740Y-125664770D01*
X76848826Y-125767405D01*
X76819466Y-125814130D01*
X76564236Y-126069360D01*
X76510883Y-126100833D01*
X76448962Y-126102570D01*
X76393928Y-126074139D01*
X76359514Y-126022636D01*
X76333043Y-125946985D01*
X76236111Y-125792719D01*
X76107281Y-125663889D01*
X75953015Y-125566957D01*
X75781047Y-125506783D01*
X75781046Y-125506782D01*
X75781044Y-125506782D01*
X75600000Y-125486383D01*
X75418955Y-125506782D01*
X75246984Y-125566957D01*
X75092717Y-125663890D01*
X74963890Y-125792717D01*
X74866957Y-125946984D01*
X74806782Y-126118955D01*
X74786383Y-126299999D01*
X73762000Y-126299999D01*
X73762000Y-125025556D01*
X73781006Y-124959584D01*
X73832199Y-124913836D01*
X73899884Y-124902336D01*
X74000000Y-124913616D01*
X74181047Y-124893217D01*
X74353015Y-124833043D01*
X74507281Y-124736111D01*
X74636111Y-124607281D01*
X74733043Y-124453015D01*
X74793217Y-124281047D01*
X74813616Y-124100000D01*
X74793217Y-123918953D01*
X74733043Y-123746985D01*
X74636111Y-123592719D01*
X74522493Y-123479101D01*
X74490399Y-123423514D01*
X74490399Y-123359326D01*
X74522491Y-123303741D01*
X75226232Y-122600000D01*
X78236700Y-122600000D01*
X78255837Y-122769846D01*
X78255837Y-122769848D01*
X78255838Y-122769850D01*
X78312291Y-122931183D01*
X78403229Y-123075909D01*
X78524091Y-123196771D01*
X78668817Y-123287709D01*
X78830150Y-123344162D01*
X79000000Y-123363299D01*
X79169850Y-123344162D01*
X79331183Y-123287709D01*
X79475909Y-123196771D01*
X79475913Y-123196766D01*
X79484026Y-123191669D01*
X79549999Y-123172662D01*
X79615972Y-123191669D01*
X79624089Y-123196769D01*
X79624091Y-123196771D01*
X79768817Y-123287709D01*
X79930150Y-123344162D01*
X80100000Y-123363299D01*
X80269850Y-123344162D01*
X80431183Y-123287709D01*
X80534028Y-123223086D01*
X80599999Y-123204080D01*
X80665970Y-123223085D01*
X80768817Y-123287709D01*
X80930150Y-123344162D01*
X81100000Y-123363299D01*
X81269850Y-123344162D01*
X81431183Y-123287709D01*
X81575909Y-123196771D01*
X81696771Y-123075909D01*
X81787709Y-122931183D01*
X81844162Y-122769850D01*
X81863299Y-122600000D01*
X81844162Y-122430150D01*
X81787709Y-122268817D01*
X81787708Y-122268815D01*
X81754504Y-122215972D01*
X81735497Y-122149998D01*
X81754503Y-122084027D01*
X81787709Y-122031183D01*
X81844162Y-121869850D01*
X81863299Y-121700000D01*
X81844162Y-121530150D01*
X81787709Y-121368817D01*
X81696771Y-121224091D01*
X81610361Y-121137681D01*
X81578267Y-121082094D01*
X81578267Y-121017906D01*
X81610361Y-120962319D01*
X81642530Y-120930150D01*
X81696771Y-120875909D01*
X81787709Y-120731183D01*
X81844162Y-120569850D01*
X81863299Y-120400000D01*
X81844162Y-120230150D01*
X81787709Y-120068817D01*
X81696771Y-119924091D01*
X81575909Y-119803229D01*
X81431183Y-119712291D01*
X81269850Y-119655838D01*
X81269848Y-119655837D01*
X81269846Y-119655837D01*
X81100000Y-119636700D01*
X80930153Y-119655837D01*
X80930150Y-119655837D01*
X80930150Y-119655838D01*
X80768817Y-119712291D01*
X80768815Y-119712291D01*
X80768815Y-119712292D01*
X80624089Y-119803230D01*
X80503230Y-119924089D01*
X80485054Y-119953015D01*
X80412291Y-120068817D01*
X80356426Y-120228472D01*
X80355837Y-120230154D01*
X80354181Y-120244849D01*
X80335954Y-120296934D01*
X80296934Y-120335954D01*
X80244849Y-120354181D01*
X80230154Y-120355837D01*
X80230151Y-120355837D01*
X80230150Y-120355838D01*
X80068817Y-120412291D01*
X80068815Y-120412291D01*
X80068815Y-120412292D01*
X79924089Y-120503230D01*
X79803230Y-120624089D01*
X79735937Y-120731184D01*
X79712291Y-120768817D01*
X79668936Y-120892719D01*
X79655837Y-120930153D01*
X79636700Y-121099999D01*
X79655837Y-121269846D01*
X79655837Y-121269848D01*
X79655838Y-121269850D01*
X79712291Y-121431183D01*
X79798418Y-121568253D01*
X79803230Y-121575910D01*
X79903952Y-121676632D01*
X79935425Y-121729985D01*
X79937162Y-121791905D01*
X79908731Y-121846939D01*
X79857227Y-121881354D01*
X79768818Y-121912290D01*
X79615971Y-122008331D01*
X79549999Y-122027337D01*
X79484026Y-122008330D01*
X79475910Y-122003230D01*
X79475909Y-122003229D01*
X79348556Y-121923207D01*
X79331185Y-121912292D01*
X79331184Y-121912291D01*
X79331183Y-121912291D01*
X79169850Y-121855838D01*
X79169848Y-121855837D01*
X79169846Y-121855837D01*
X79000000Y-121836700D01*
X78830153Y-121855837D01*
X78830150Y-121855837D01*
X78830150Y-121855838D01*
X78668817Y-121912291D01*
X78668815Y-121912291D01*
X78668815Y-121912292D01*
X78524089Y-122003230D01*
X78403230Y-122124089D01*
X78315943Y-122263004D01*
X78312291Y-122268817D01*
X78296161Y-122314915D01*
X78255837Y-122430153D01*
X78236700Y-122600000D01*
X75226232Y-122600000D01*
X75373781Y-122452451D01*
X75382776Y-122444299D01*
X75416568Y-122416568D01*
X75542595Y-122263004D01*
X75636241Y-122087804D01*
X75660368Y-122008268D01*
X75693909Y-121897700D01*
X75713380Y-121700000D01*
X75709096Y-121656511D01*
X75708500Y-121644358D01*
X75708500Y-121000000D01*
X76136700Y-121000000D01*
X76155837Y-121169846D01*
X76155837Y-121169848D01*
X76155838Y-121169850D01*
X76212291Y-121331183D01*
X76303229Y-121475909D01*
X76424091Y-121596771D01*
X76568817Y-121687709D01*
X76730150Y-121744162D01*
X76900000Y-121763299D01*
X77069850Y-121744162D01*
X77231183Y-121687709D01*
X77375909Y-121596771D01*
X77496771Y-121475909D01*
X77587709Y-121331183D01*
X77644162Y-121169850D01*
X77663299Y-121000000D01*
X77662793Y-120995505D01*
X77662065Y-120989041D01*
X77668244Y-120934203D01*
X77697604Y-120887476D01*
X77744331Y-120858116D01*
X77799167Y-120851938D01*
X77900000Y-120863299D01*
X78069850Y-120844162D01*
X78231183Y-120787709D01*
X78375909Y-120696771D01*
X78496771Y-120575909D01*
X78587709Y-120431183D01*
X78644162Y-120269850D01*
X78644162Y-120269846D01*
X78648776Y-120256662D01*
X78649433Y-120256892D01*
X78667536Y-120210767D01*
X78717721Y-120170746D01*
X78781192Y-120161180D01*
X78792254Y-120162426D01*
X78800000Y-120163299D01*
X78800000Y-120163298D01*
X78800001Y-120163299D01*
X78833970Y-120159471D01*
X78969850Y-120144162D01*
X79131183Y-120087709D01*
X79275909Y-119996771D01*
X79396771Y-119875909D01*
X79487709Y-119731183D01*
X79544162Y-119569850D01*
X79563299Y-119400000D01*
X79551938Y-119299167D01*
X79558116Y-119244331D01*
X79587476Y-119197604D01*
X79634203Y-119168244D01*
X79689041Y-119162065D01*
X79699999Y-119163299D01*
X79699999Y-119163298D01*
X79700000Y-119163299D01*
X79869850Y-119144162D01*
X80031183Y-119087709D01*
X80175909Y-118996771D01*
X80296771Y-118875909D01*
X80387709Y-118731183D01*
X80444162Y-118569850D01*
X80463299Y-118400000D01*
X80444162Y-118230150D01*
X80387709Y-118068817D01*
X80296771Y-117924091D01*
X80175909Y-117803229D01*
X80031183Y-117712291D01*
X79869850Y-117655838D01*
X79869848Y-117655837D01*
X79869846Y-117655837D01*
X79699999Y-117636700D01*
X79530153Y-117655837D01*
X79530150Y-117655837D01*
X79530150Y-117655838D01*
X79368817Y-117712291D01*
X79368814Y-117712292D01*
X79368813Y-117712293D01*
X79299304Y-117755968D01*
X79233333Y-117774974D01*
X79167362Y-117755968D01*
X79097852Y-117712293D01*
X79097849Y-117712291D01*
X78936516Y-117655838D01*
X78936514Y-117655837D01*
X78936512Y-117655837D01*
X78766665Y-117636700D01*
X78596819Y-117655837D01*
X78596816Y-117655837D01*
X78596816Y-117655838D01*
X78435483Y-117712291D01*
X78435480Y-117712292D01*
X78435479Y-117712293D01*
X78365970Y-117755968D01*
X78299999Y-117774974D01*
X78234027Y-117755968D01*
X78164516Y-117712291D01*
X78003183Y-117655838D01*
X78003181Y-117655837D01*
X78003179Y-117655837D01*
X77833332Y-117636700D01*
X77663486Y-117655837D01*
X77663483Y-117655837D01*
X77663483Y-117655838D01*
X77502150Y-117712291D01*
X77502147Y-117712292D01*
X77502146Y-117712293D01*
X77432637Y-117755968D01*
X77366666Y-117774974D01*
X77300694Y-117755968D01*
X77231183Y-117712291D01*
X77069850Y-117655838D01*
X77069848Y-117655837D01*
X77069846Y-117655837D01*
X76899999Y-117636700D01*
X76730153Y-117655837D01*
X76730150Y-117655837D01*
X76730150Y-117655838D01*
X76568817Y-117712291D01*
X76568815Y-117712291D01*
X76568815Y-117712292D01*
X76424089Y-117803230D01*
X76303230Y-117924089D01*
X76213459Y-118066957D01*
X76212291Y-118068817D01*
X76164856Y-118204379D01*
X76155837Y-118230153D01*
X76136700Y-118399999D01*
X76155837Y-118569846D01*
X76155837Y-118569848D01*
X76155838Y-118569850D01*
X76212291Y-118731183D01*
X76259793Y-118806782D01*
X76276913Y-118834027D01*
X76295919Y-118899999D01*
X76276913Y-118965971D01*
X76212292Y-119068815D01*
X76212291Y-119068817D01*
X76167226Y-119197604D01*
X76155837Y-119230153D01*
X76136700Y-119400000D01*
X76155837Y-119569846D01*
X76155837Y-119569848D01*
X76155838Y-119569850D01*
X76212291Y-119731183D01*
X76303229Y-119875909D01*
X76424091Y-119996771D01*
X76500396Y-120044717D01*
X76580431Y-120095007D01*
X76622986Y-120140019D01*
X76638458Y-120200000D01*
X76622986Y-120259981D01*
X76580431Y-120304993D01*
X76424090Y-120403229D01*
X76303230Y-120524089D01*
X76213459Y-120666957D01*
X76212291Y-120668817D01*
X76155838Y-120830150D01*
X76155837Y-120830153D01*
X76136700Y-121000000D01*
X75708500Y-121000000D01*
X75708500Y-116144096D01*
X75717939Y-116096643D01*
X75744819Y-116056415D01*
X78063149Y-113738085D01*
X78063149Y-113738084D01*
X78063152Y-113738082D01*
X78142487Y-113641410D01*
X78191691Y-113605186D01*
X78252222Y-113596857D01*
X78287180Y-113600796D01*
X78287181Y-113600795D01*
X78287182Y-113600796D01*
X78364457Y-113592089D01*
X78468227Y-113580397D01*
X78640195Y-113520223D01*
X78794461Y-113423291D01*
X78923291Y-113294461D01*
X79020223Y-113140195D01*
X79080397Y-112968227D01*
X79088084Y-112900000D01*
X80486383Y-112900000D01*
X80506782Y-113081044D01*
X80506782Y-113081046D01*
X80506783Y-113081047D01*
X80566957Y-113253015D01*
X80663889Y-113407281D01*
X80792719Y-113536111D01*
X80946985Y-113633043D01*
X81118953Y-113693217D01*
X81300000Y-113713616D01*
X81481047Y-113693217D01*
X81653015Y-113633043D01*
X81807281Y-113536111D01*
X81936111Y-113407281D01*
X82033043Y-113253015D01*
X82093217Y-113081047D01*
X82113616Y-112900000D01*
X82093217Y-112718953D01*
X82033043Y-112546985D01*
X81936111Y-112392719D01*
X81807281Y-112263889D01*
X81653015Y-112166957D01*
X81481047Y-112106783D01*
X81481046Y-112106782D01*
X81481044Y-112106782D01*
X81299999Y-112086383D01*
X81118955Y-112106782D01*
X80946984Y-112166957D01*
X80792717Y-112263890D01*
X80663890Y-112392717D01*
X80566957Y-112546984D01*
X80506782Y-112718955D01*
X80486383Y-112900000D01*
X79088084Y-112900000D01*
X79100796Y-112787180D01*
X79080397Y-112606133D01*
X79020223Y-112434165D01*
X78923291Y-112279899D01*
X78794461Y-112151069D01*
X78640195Y-112054137D01*
X78468227Y-111993963D01*
X78468226Y-111993962D01*
X78468224Y-111993962D01*
X78287179Y-111973563D01*
X78106135Y-111993962D01*
X77934164Y-112054137D01*
X77828892Y-112120284D01*
X77767269Y-112139214D01*
X77714582Y-112126995D01*
X77714489Y-112127305D01*
X77709858Y-112125900D01*
X77704472Y-112124651D01*
X77702803Y-112123759D01*
X77512700Y-112066092D01*
X77512697Y-112066091D01*
X77339247Y-112049008D01*
X77315000Y-112046620D01*
X77314999Y-112046620D01*
X77117301Y-112066091D01*
X77053931Y-112085314D01*
X76927196Y-112123759D01*
X76927192Y-112123760D01*
X76927192Y-112123761D01*
X76751997Y-112217405D01*
X76636914Y-112311850D01*
X76171182Y-112777583D01*
X76124456Y-112806944D01*
X76069617Y-112813122D01*
X76017530Y-112794896D01*
X75919117Y-112733059D01*
X75747149Y-112672885D01*
X75747148Y-112672884D01*
X75747146Y-112672884D01*
X75566102Y-112652485D01*
X75385057Y-112672884D01*
X75213086Y-112733059D01*
X75058819Y-112829992D01*
X74929992Y-112958819D01*
X74833059Y-113113086D01*
X74772884Y-113285057D01*
X74752485Y-113466101D01*
X74772884Y-113647146D01*
X74772884Y-113647148D01*
X74772885Y-113647149D01*
X74833059Y-113819117D01*
X74893339Y-113915052D01*
X74894896Y-113917529D01*
X74913122Y-113969617D01*
X74906944Y-114024456D01*
X74877583Y-114071182D01*
X74026229Y-114922535D01*
X74017215Y-114930706D01*
X73983432Y-114958431D01*
X73909707Y-115048265D01*
X73853712Y-115087019D01*
X73785696Y-115090360D01*
X73726173Y-115057281D01*
X73668891Y-114999999D01*
X73607281Y-114938389D01*
X73453015Y-114841457D01*
X73281047Y-114781283D01*
X73281046Y-114781282D01*
X73281044Y-114781282D01*
X73100000Y-114760883D01*
X72918955Y-114781282D01*
X72746984Y-114841457D01*
X72592717Y-114938390D01*
X72463890Y-115067217D01*
X72366957Y-115221484D01*
X72306782Y-115393455D01*
X72286383Y-115574500D01*
X72306782Y-115755544D01*
X72306782Y-115755546D01*
X72306783Y-115755547D01*
X72366957Y-115927515D01*
X72463889Y-116081781D01*
X72592719Y-116210611D01*
X72746985Y-116307543D01*
X72918953Y-116367717D01*
X73027959Y-116379999D01*
X73099999Y-116388116D01*
X73099999Y-116388115D01*
X73100000Y-116388116D01*
X73281047Y-116367717D01*
X73453015Y-116307543D01*
X73501528Y-116277059D01*
X73564022Y-116258103D01*
X73627481Y-116273526D01*
X73674303Y-116319053D01*
X73691500Y-116382054D01*
X73691500Y-121230904D01*
X73682061Y-121278357D01*
X73655183Y-121318582D01*
X73607958Y-121365808D01*
X73562887Y-121410879D01*
X73516160Y-121440239D01*
X73461322Y-121446417D01*
X73409234Y-121428191D01*
X73370213Y-121389170D01*
X73277752Y-121242019D01*
X73148922Y-121113189D01*
X72994656Y-121016257D01*
X72822688Y-120956083D01*
X72822687Y-120956082D01*
X72822685Y-120956082D01*
X72641640Y-120935683D01*
X72460596Y-120956082D01*
X72288625Y-121016257D01*
X72134358Y-121113190D01*
X72005531Y-121242017D01*
X71908598Y-121396284D01*
X71848423Y-121568255D01*
X71828024Y-121749299D01*
X71848423Y-121930344D01*
X71848423Y-121930346D01*
X71848424Y-121930347D01*
X71908598Y-122102315D01*
X71966926Y-122195144D01*
X71985737Y-122254161D01*
X71973652Y-122314915D01*
X71933688Y-122362243D01*
X71875816Y-122384334D01*
X71738226Y-122399837D01*
X71566255Y-122460012D01*
X71411988Y-122556945D01*
X71283161Y-122685772D01*
X71186228Y-122840039D01*
X71126053Y-123012010D01*
X71105654Y-123193055D01*
X71126053Y-123374099D01*
X71126053Y-123374101D01*
X71126054Y-123374102D01*
X71186228Y-123546070D01*
X71283160Y-123700336D01*
X71411990Y-123829166D01*
X71554885Y-123918953D01*
X71566258Y-123926099D01*
X71661955Y-123959585D01*
X71705341Y-123985728D01*
X71734654Y-124027039D01*
X71745000Y-124076626D01*
X71745000Y-135022637D01*
X71729973Y-135081804D01*
X71688536Y-135126632D01*
X71630730Y-135146255D01*
X71570566Y-135135917D01*
X71522625Y-135098124D01*
X71446486Y-134998900D01*
X71401099Y-134953513D01*
X71294751Y-134871908D01*
X71170909Y-134820611D01*
X71108901Y-134803996D01*
X70976001Y-134786500D01*
X70976000Y-134786500D01*
X68824000Y-134786500D01*
X68823999Y-134786500D01*
X68691098Y-134803996D01*
X68629090Y-134820611D01*
X68505248Y-134871908D01*
X68398900Y-134953513D01*
X68353513Y-134998900D01*
X68271908Y-135105248D01*
X68220611Y-135229090D01*
X68203996Y-135291098D01*
X68186500Y-135423999D01*
X68186500Y-138762500D01*
X68169887Y-138824500D01*
X68124500Y-138869887D01*
X68062500Y-138886500D01*
X66474567Y-138886500D01*
X66441676Y-138889894D01*
X66374624Y-138878016D01*
X66323955Y-138832522D01*
X66236111Y-138692719D01*
X66107281Y-138563889D01*
X65953015Y-138466957D01*
X65781047Y-138406783D01*
X65781046Y-138406782D01*
X65781044Y-138406782D01*
X65600000Y-138386383D01*
X65418955Y-138406782D01*
X65246984Y-138466957D01*
X65092717Y-138563890D01*
X64963890Y-138692717D01*
X64866957Y-138846984D01*
X64806782Y-139018955D01*
X64786383Y-139200000D01*
X64792309Y-139252592D01*
X64786602Y-139306059D01*
X64758797Y-139352082D01*
X64721517Y-139377056D01*
X64606043Y-139462698D01*
X64559226Y-139508220D01*
X64474912Y-139615481D01*
X64421819Y-139741161D01*
X64404624Y-139804154D01*
X64386500Y-139939379D01*
X64386500Y-142876001D01*
X33600500Y-142876001D01*
X33600500Y-141299999D01*
X62086383Y-141299999D01*
X62106782Y-141481044D01*
X62106782Y-141481046D01*
X62106783Y-141481047D01*
X62166957Y-141653015D01*
X62263889Y-141807281D01*
X62392719Y-141936111D01*
X62546985Y-142033043D01*
X62718953Y-142093217D01*
X62900000Y-142113616D01*
X63081047Y-142093217D01*
X63253015Y-142033043D01*
X63407281Y-141936111D01*
X63536111Y-141807281D01*
X63633043Y-141653015D01*
X63693217Y-141481047D01*
X63713616Y-141300000D01*
X63693217Y-141118953D01*
X63633043Y-140946985D01*
X63536111Y-140792719D01*
X63407281Y-140663889D01*
X63253015Y-140566957D01*
X63081047Y-140506783D01*
X63081046Y-140506782D01*
X63081044Y-140506782D01*
X62900000Y-140486383D01*
X62718955Y-140506782D01*
X62546984Y-140566957D01*
X62392717Y-140663890D01*
X62263890Y-140792717D01*
X62166957Y-140946984D01*
X62106782Y-141118955D01*
X62086383Y-141299999D01*
X33600500Y-141299999D01*
X33600500Y-139000000D01*
X60486383Y-139000000D01*
X60506782Y-139181044D01*
X60506782Y-139181046D01*
X60506783Y-139181047D01*
X60566957Y-139353015D01*
X60663889Y-139507281D01*
X60792719Y-139636111D01*
X60946985Y-139733043D01*
X61118953Y-139793217D01*
X61300000Y-139813616D01*
X61481047Y-139793217D01*
X61653015Y-139733043D01*
X61807281Y-139636111D01*
X61936111Y-139507281D01*
X62033043Y-139353015D01*
X62093217Y-139181047D01*
X62113616Y-139000000D01*
X62093217Y-138818953D01*
X62033043Y-138646985D01*
X61936111Y-138492719D01*
X61807281Y-138363889D01*
X61653015Y-138266957D01*
X61481047Y-138206783D01*
X61481046Y-138206782D01*
X61481044Y-138206782D01*
X61300000Y-138186383D01*
X61118955Y-138206782D01*
X60946984Y-138266957D01*
X60792717Y-138363890D01*
X60663890Y-138492717D01*
X60566957Y-138646984D01*
X60506782Y-138818955D01*
X60486383Y-139000000D01*
X33600500Y-139000000D01*
X33600500Y-136124000D01*
X33617113Y-136062000D01*
X33662500Y-136016613D01*
X33724500Y-136000000D01*
X58000000Y-136000000D01*
X58000000Y-135999999D01*
X57998107Y-135400000D01*
X62686383Y-135400000D01*
X62706782Y-135581044D01*
X62706782Y-135581046D01*
X62706783Y-135581047D01*
X62766957Y-135753015D01*
X62863889Y-135907281D01*
X62992719Y-136036111D01*
X63146985Y-136133043D01*
X63318953Y-136193217D01*
X63500000Y-136213616D01*
X63681047Y-136193217D01*
X63853015Y-136133043D01*
X64007281Y-136036111D01*
X64136111Y-135907281D01*
X64233043Y-135753015D01*
X64293217Y-135581047D01*
X64313616Y-135400000D01*
X64293217Y-135218953D01*
X64233043Y-135046985D01*
X64136111Y-134892719D01*
X64007281Y-134763889D01*
X63853015Y-134666957D01*
X63681047Y-134606783D01*
X63681046Y-134606782D01*
X63681044Y-134606782D01*
X63500000Y-134586383D01*
X63318955Y-134606782D01*
X63146984Y-134666957D01*
X62992717Y-134763890D01*
X62863890Y-134892717D01*
X62766957Y-135046984D01*
X62706782Y-135218955D01*
X62686383Y-135400000D01*
X57998107Y-135400000D01*
X57990325Y-132933042D01*
X57986435Y-131699999D01*
X63086383Y-131699999D01*
X63106782Y-131881044D01*
X63106782Y-131881046D01*
X63106783Y-131881047D01*
X63166957Y-132053015D01*
X63263889Y-132207281D01*
X63392719Y-132336111D01*
X63546985Y-132433043D01*
X63718953Y-132493217D01*
X63900000Y-132513616D01*
X64081047Y-132493217D01*
X64253015Y-132433043D01*
X64407281Y-132336111D01*
X64536111Y-132207281D01*
X64633043Y-132053015D01*
X64693217Y-131881047D01*
X64713616Y-131700000D01*
X64693217Y-131518953D01*
X64633043Y-131346985D01*
X64536111Y-131192719D01*
X64407281Y-131063889D01*
X64253015Y-130966957D01*
X64081047Y-130906783D01*
X64081046Y-130906782D01*
X64081044Y-130906782D01*
X63900000Y-130886383D01*
X63718955Y-130906782D01*
X63546984Y-130966957D01*
X63392717Y-131063890D01*
X63263890Y-131192717D01*
X63166957Y-131346984D01*
X63106782Y-131518955D01*
X63086383Y-131699999D01*
X57986435Y-131699999D01*
X57980757Y-129900000D01*
X69286383Y-129900000D01*
X69306782Y-130081044D01*
X69306782Y-130081046D01*
X69306783Y-130081047D01*
X69366957Y-130253015D01*
X69463889Y-130407281D01*
X69592719Y-130536111D01*
X69746985Y-130633043D01*
X69918953Y-130693217D01*
X70100000Y-130713616D01*
X70281047Y-130693217D01*
X70453015Y-130633043D01*
X70607281Y-130536111D01*
X70736111Y-130407281D01*
X70833043Y-130253015D01*
X70893217Y-130081047D01*
X70913616Y-129900000D01*
X70893217Y-129718953D01*
X70833043Y-129546985D01*
X70736111Y-129392719D01*
X70607281Y-129263889D01*
X70453015Y-129166957D01*
X70281047Y-129106783D01*
X70281046Y-129106782D01*
X70281044Y-129106782D01*
X70100000Y-129086383D01*
X69918955Y-129106782D01*
X69746984Y-129166957D01*
X69592717Y-129263890D01*
X69463890Y-129392717D01*
X69366957Y-129546984D01*
X69306782Y-129718955D01*
X69286383Y-129900000D01*
X57980757Y-129900000D01*
X57966953Y-125523999D01*
X58444646Y-125523999D01*
X58464021Y-125745460D01*
X58521560Y-125960197D01*
X58562353Y-126047677D01*
X58615512Y-126161677D01*
X58743023Y-126343781D01*
X58900219Y-126500977D01*
X59082323Y-126628488D01*
X59283804Y-126722440D01*
X59498537Y-126779978D01*
X59720000Y-126799353D01*
X59941463Y-126779978D01*
X60156196Y-126722440D01*
X60357677Y-126628488D01*
X60539781Y-126500977D01*
X60696977Y-126343781D01*
X60780036Y-126225159D01*
X60833135Y-126182152D01*
X60900958Y-126173804D01*
X60962904Y-126202652D01*
X61000162Y-126259936D01*
X61001032Y-126307384D01*
X61004967Y-126307729D01*
X60984646Y-126539999D01*
X61004021Y-126761460D01*
X61061560Y-126976197D01*
X61105636Y-127070717D01*
X61155512Y-127177677D01*
X61283023Y-127359781D01*
X61440219Y-127516977D01*
X61622323Y-127644488D01*
X61823804Y-127738440D01*
X62038537Y-127795978D01*
X62260000Y-127815353D01*
X62481463Y-127795978D01*
X62696196Y-127738440D01*
X62897677Y-127644488D01*
X63079781Y-127516977D01*
X63236977Y-127359781D01*
X63364488Y-127177677D01*
X63390034Y-127122892D01*
X63435789Y-127070718D01*
X63502414Y-127051298D01*
X63569040Y-127070717D01*
X63614796Y-127122892D01*
X63652045Y-127202772D01*
X63784574Y-127392043D01*
X63947957Y-127555426D01*
X64137228Y-127687955D01*
X64346637Y-127785604D01*
X64569822Y-127845406D01*
X64800000Y-127865544D01*
X65030178Y-127845406D01*
X65253363Y-127785604D01*
X65462772Y-127687955D01*
X65652043Y-127555426D01*
X65815426Y-127392043D01*
X65947955Y-127202772D01*
X66045604Y-126993363D01*
X66070620Y-126900000D01*
X69486383Y-126900000D01*
X69506782Y-127081044D01*
X69506782Y-127081046D01*
X69506783Y-127081047D01*
X69566957Y-127253015D01*
X69663889Y-127407281D01*
X69792719Y-127536111D01*
X69946985Y-127633043D01*
X70118953Y-127693217D01*
X70300000Y-127713616D01*
X70481047Y-127693217D01*
X70653015Y-127633043D01*
X70807281Y-127536111D01*
X70936111Y-127407281D01*
X71033043Y-127253015D01*
X71093217Y-127081047D01*
X71113616Y-126900000D01*
X71093217Y-126718953D01*
X71033043Y-126546985D01*
X70936111Y-126392719D01*
X70807281Y-126263889D01*
X70653015Y-126166957D01*
X70481047Y-126106783D01*
X70481046Y-126106782D01*
X70481044Y-126106782D01*
X70300000Y-126086383D01*
X70118955Y-126106782D01*
X69946984Y-126166957D01*
X69792717Y-126263890D01*
X69663890Y-126392717D01*
X69566957Y-126546984D01*
X69506782Y-126718955D01*
X69486383Y-126900000D01*
X66070620Y-126900000D01*
X66105406Y-126770178D01*
X66125544Y-126540000D01*
X66105406Y-126309822D01*
X66045604Y-126086637D01*
X65947955Y-125877228D01*
X65815426Y-125687957D01*
X65652043Y-125524574D01*
X65462772Y-125392045D01*
X65442048Y-125382381D01*
X65389873Y-125336625D01*
X65370454Y-125270000D01*
X65389873Y-125203375D01*
X65442048Y-125157618D01*
X65462772Y-125147955D01*
X65652043Y-125015426D01*
X65815426Y-124852043D01*
X65947955Y-124662772D01*
X66045604Y-124453363D01*
X66105406Y-124230178D01*
X66125544Y-124000000D01*
X66105406Y-123769822D01*
X66059902Y-123599999D01*
X68086383Y-123599999D01*
X68106782Y-123781044D01*
X68106782Y-123781046D01*
X68106783Y-123781047D01*
X68166957Y-123953015D01*
X68263889Y-124107281D01*
X68392719Y-124236111D01*
X68546985Y-124333043D01*
X68718953Y-124393217D01*
X68900000Y-124413616D01*
X69081047Y-124393217D01*
X69253015Y-124333043D01*
X69407281Y-124236111D01*
X69536111Y-124107281D01*
X69633043Y-123953015D01*
X69693217Y-123781047D01*
X69713616Y-123600000D01*
X69712795Y-123592717D01*
X69697831Y-123459906D01*
X69693217Y-123418953D01*
X69633043Y-123246985D01*
X69536111Y-123092719D01*
X69407281Y-122963889D01*
X69253015Y-122866957D01*
X69081047Y-122806783D01*
X69081046Y-122806782D01*
X69081044Y-122806782D01*
X68900000Y-122786383D01*
X68718955Y-122806782D01*
X68546984Y-122866957D01*
X68392717Y-122963890D01*
X68263890Y-123092717D01*
X68166957Y-123246984D01*
X68106782Y-123418955D01*
X68086383Y-123599999D01*
X66059902Y-123599999D01*
X66045604Y-123546637D01*
X65947955Y-123337228D01*
X65815426Y-123147957D01*
X65652043Y-122984574D01*
X65462772Y-122852045D01*
X65365705Y-122806782D01*
X65253364Y-122754396D01*
X65030175Y-122694593D01*
X64800000Y-122674455D01*
X64569824Y-122694593D01*
X64346635Y-122754396D01*
X64158349Y-122842196D01*
X64137228Y-122852045D01*
X63977497Y-122963890D01*
X63947953Y-122984577D01*
X63784577Y-123147953D01*
X63784574Y-123147956D01*
X63784574Y-123147957D01*
X63675495Y-123303739D01*
X63652044Y-123337230D01*
X63554396Y-123546636D01*
X63507933Y-123720036D01*
X63471931Y-123779365D01*
X63409690Y-123810058D01*
X63340705Y-123802503D01*
X63286584Y-123759066D01*
X63236977Y-123688219D01*
X63128439Y-123579681D01*
X63096345Y-123524094D01*
X63096345Y-123459906D01*
X63128439Y-123404319D01*
X63173432Y-123359326D01*
X63236977Y-123295781D01*
X63364488Y-123113677D01*
X63458440Y-122912196D01*
X63515978Y-122697463D01*
X63535353Y-122476000D01*
X63515978Y-122254537D01*
X63458440Y-122039804D01*
X63364488Y-121838324D01*
X63236977Y-121656219D01*
X63079781Y-121499023D01*
X62897677Y-121371512D01*
X62784177Y-121318586D01*
X62696197Y-121277560D01*
X62481460Y-121220021D01*
X62260000Y-121200646D01*
X62038539Y-121220021D01*
X61823802Y-121277560D01*
X61622323Y-121371512D01*
X61440218Y-121499023D01*
X61283026Y-121656215D01*
X61283023Y-121656218D01*
X61283023Y-121656219D01*
X61217848Y-121749300D01*
X61199965Y-121774839D01*
X61146830Y-121817862D01*
X61078969Y-121826185D01*
X61017013Y-121797276D01*
X60979795Y-121739925D01*
X60978988Y-121692617D01*
X60975033Y-121692271D01*
X60995353Y-121460000D01*
X60991056Y-121410879D01*
X60975978Y-121238537D01*
X60918440Y-121023804D01*
X60824488Y-120822324D01*
X60696977Y-120640219D01*
X60588439Y-120531681D01*
X60556345Y-120476094D01*
X60556345Y-120411906D01*
X60588439Y-120356319D01*
X60639765Y-120304993D01*
X60696977Y-120247781D01*
X60824488Y-120065677D01*
X60918440Y-119864196D01*
X60975978Y-119649463D01*
X60995353Y-119428000D01*
X60984082Y-119299169D01*
X60975033Y-119195729D01*
X60978988Y-119195382D01*
X60979795Y-119148075D01*
X61017013Y-119090724D01*
X61078969Y-119061815D01*
X61146830Y-119070138D01*
X61199962Y-119113159D01*
X61283023Y-119231781D01*
X61440219Y-119388977D01*
X61622323Y-119516488D01*
X61823804Y-119610440D01*
X62038537Y-119667978D01*
X62260000Y-119687353D01*
X62481463Y-119667978D01*
X62696196Y-119610440D01*
X62897677Y-119516488D01*
X63079781Y-119388977D01*
X63236977Y-119231781D01*
X63364488Y-119049677D01*
X63458440Y-118848196D01*
X63515978Y-118633463D01*
X63535353Y-118412000D01*
X63515978Y-118190537D01*
X63458440Y-117975804D01*
X63364488Y-117774324D01*
X63236977Y-117592219D01*
X63128438Y-117483680D01*
X63096345Y-117428092D01*
X63096345Y-117363905D01*
X63128436Y-117308321D01*
X63236977Y-117199781D01*
X63286585Y-117128932D01*
X63340706Y-117085496D01*
X63409691Y-117077941D01*
X63471932Y-117108635D01*
X63507933Y-117167962D01*
X63521597Y-117218955D01*
X63554396Y-117341364D01*
X63581739Y-117400000D01*
X63652045Y-117550772D01*
X63784574Y-117740043D01*
X63947957Y-117903426D01*
X64137228Y-118035955D01*
X64346637Y-118133604D01*
X64569822Y-118193406D01*
X64800000Y-118213544D01*
X65030178Y-118193406D01*
X65253363Y-118133604D01*
X65462772Y-118035955D01*
X65652043Y-117903426D01*
X65815426Y-117740043D01*
X65947955Y-117550772D01*
X66018261Y-117400000D01*
X70786383Y-117400000D01*
X70806782Y-117581044D01*
X70806782Y-117581046D01*
X70806783Y-117581047D01*
X70866957Y-117753015D01*
X70963889Y-117907281D01*
X71092719Y-118036111D01*
X71246985Y-118133043D01*
X71418953Y-118193217D01*
X71418954Y-118193217D01*
X71432140Y-118197831D01*
X71431707Y-118199067D01*
X71477639Y-118217489D01*
X71517610Y-118269982D01*
X71524999Y-118335545D01*
X71497714Y-118395617D01*
X71443480Y-118433191D01*
X71346987Y-118466955D01*
X71192717Y-118563890D01*
X71063890Y-118692717D01*
X70966957Y-118846984D01*
X70906782Y-119018955D01*
X70886383Y-119199999D01*
X70906782Y-119381044D01*
X70906782Y-119381046D01*
X70906783Y-119381047D01*
X70966957Y-119553015D01*
X71063889Y-119707281D01*
X71192719Y-119836111D01*
X71346985Y-119933043D01*
X71518953Y-119993217D01*
X71700000Y-120013616D01*
X71881047Y-119993217D01*
X72053015Y-119933043D01*
X72207281Y-119836111D01*
X72336111Y-119707281D01*
X72433043Y-119553015D01*
X72493217Y-119381047D01*
X72513616Y-119200000D01*
X72493217Y-119018953D01*
X72433043Y-118846985D01*
X72336111Y-118692719D01*
X72207281Y-118563889D01*
X72053015Y-118466957D01*
X71881047Y-118406783D01*
X71881045Y-118406782D01*
X71867860Y-118402169D01*
X71868292Y-118400933D01*
X71822354Y-118382505D01*
X71782387Y-118330011D01*
X71775001Y-118264449D01*
X71802287Y-118204379D01*
X71856517Y-118166808D01*
X71953015Y-118133043D01*
X72107281Y-118036111D01*
X72236111Y-117907281D01*
X72333043Y-117753015D01*
X72393217Y-117581047D01*
X72413616Y-117400000D01*
X72393217Y-117218953D01*
X72333043Y-117046985D01*
X72236111Y-116892719D01*
X72107281Y-116763889D01*
X71953015Y-116666957D01*
X71781047Y-116606783D01*
X71781046Y-116606782D01*
X71781044Y-116606782D01*
X71599999Y-116586383D01*
X71418955Y-116606782D01*
X71246984Y-116666957D01*
X71092717Y-116763890D01*
X70963890Y-116892717D01*
X70866957Y-117046984D01*
X70806782Y-117218955D01*
X70786383Y-117400000D01*
X66018261Y-117400000D01*
X66045604Y-117341363D01*
X66105406Y-117118178D01*
X66125544Y-116888000D01*
X66105406Y-116657822D01*
X66045604Y-116434637D01*
X65947955Y-116225228D01*
X65815426Y-116035957D01*
X65652043Y-115872574D01*
X65462772Y-115740045D01*
X65442048Y-115730381D01*
X65389873Y-115684625D01*
X65370454Y-115618000D01*
X65389873Y-115551375D01*
X65442048Y-115505618D01*
X65462772Y-115495955D01*
X65599810Y-115400000D01*
X68186383Y-115400000D01*
X68206782Y-115581044D01*
X68206782Y-115581046D01*
X68206783Y-115581047D01*
X68266957Y-115753015D01*
X68363889Y-115907281D01*
X68492719Y-116036111D01*
X68646985Y-116133043D01*
X68818953Y-116193217D01*
X69000000Y-116213616D01*
X69181047Y-116193217D01*
X69353015Y-116133043D01*
X69507281Y-116036111D01*
X69636111Y-115907281D01*
X69733043Y-115753015D01*
X69765479Y-115660316D01*
X69799891Y-115608814D01*
X69854926Y-115580382D01*
X69916846Y-115582119D01*
X69970200Y-115613592D01*
X69992719Y-115636111D01*
X70146985Y-115733043D01*
X70318953Y-115793217D01*
X70500000Y-115813616D01*
X70681047Y-115793217D01*
X70853015Y-115733043D01*
X71007281Y-115636111D01*
X71136111Y-115507281D01*
X71233043Y-115353015D01*
X71293217Y-115181047D01*
X71313616Y-115000000D01*
X71293217Y-114818953D01*
X71233043Y-114646985D01*
X71136111Y-114492719D01*
X71007281Y-114363889D01*
X70853015Y-114266957D01*
X70681047Y-114206783D01*
X70681046Y-114206782D01*
X70681044Y-114206782D01*
X70499999Y-114186383D01*
X70318955Y-114206782D01*
X70146984Y-114266957D01*
X69992717Y-114363890D01*
X69863890Y-114492717D01*
X69766955Y-114646987D01*
X69734521Y-114739680D01*
X69700107Y-114791184D01*
X69645073Y-114819616D01*
X69583154Y-114817879D01*
X69529800Y-114786408D01*
X69524674Y-114781282D01*
X69507281Y-114763889D01*
X69353015Y-114666957D01*
X69181047Y-114606783D01*
X69181046Y-114606782D01*
X69181044Y-114606782D01*
X69000000Y-114586383D01*
X68818955Y-114606782D01*
X68646984Y-114666957D01*
X68492717Y-114763890D01*
X68363890Y-114892717D01*
X68266957Y-115046984D01*
X68206782Y-115218955D01*
X68186383Y-115400000D01*
X65599810Y-115400000D01*
X65652043Y-115363426D01*
X65815426Y-115200043D01*
X65947955Y-115010772D01*
X66045604Y-114801363D01*
X66105406Y-114578178D01*
X66125544Y-114348000D01*
X66105406Y-114117822D01*
X66045604Y-113894637D01*
X65947955Y-113685228D01*
X65815426Y-113495957D01*
X65652043Y-113332574D01*
X65462772Y-113200045D01*
X65354507Y-113149560D01*
X65253364Y-113102396D01*
X65030175Y-113042593D01*
X64800000Y-113022455D01*
X64569824Y-113042593D01*
X64346635Y-113102396D01*
X64137230Y-113200044D01*
X64137228Y-113200045D01*
X64004009Y-113293326D01*
X63947953Y-113332577D01*
X63784577Y-113495953D01*
X63784574Y-113495956D01*
X63784574Y-113495957D01*
X63656158Y-113679355D01*
X63652044Y-113685230D01*
X63614797Y-113765106D01*
X63569040Y-113817282D01*
X63502415Y-113836701D01*
X63435790Y-113817281D01*
X63390033Y-113765106D01*
X63364488Y-113710324D01*
X63236977Y-113528219D01*
X63079781Y-113371023D01*
X62897677Y-113243512D01*
X62801779Y-113198794D01*
X62696197Y-113149560D01*
X62481460Y-113092021D01*
X62260000Y-113072646D01*
X62038539Y-113092021D01*
X61823802Y-113149560D01*
X61622323Y-113243512D01*
X61440218Y-113371023D01*
X61283023Y-113528218D01*
X61155512Y-113710323D01*
X61061560Y-113911802D01*
X61004021Y-114126539D01*
X60984646Y-114347999D01*
X61004967Y-114580271D01*
X61001032Y-114580615D01*
X61000162Y-114628064D01*
X60962904Y-114685348D01*
X60900958Y-114714196D01*
X60833135Y-114705848D01*
X60780035Y-114662839D01*
X60696977Y-114544219D01*
X60539781Y-114387023D01*
X60357677Y-114259512D01*
X60244597Y-114206782D01*
X60156197Y-114165560D01*
X59941460Y-114108021D01*
X59720000Y-114088646D01*
X59498539Y-114108021D01*
X59283802Y-114165560D01*
X59082323Y-114259512D01*
X58900218Y-114387023D01*
X58743023Y-114544218D01*
X58615512Y-114726323D01*
X58521560Y-114927802D01*
X58464021Y-115142539D01*
X58444646Y-115363999D01*
X58464021Y-115585460D01*
X58521560Y-115800197D01*
X58545248Y-115850995D01*
X58615512Y-116001677D01*
X58743023Y-116183781D01*
X58743026Y-116183784D01*
X58851561Y-116292319D01*
X58883655Y-116347906D01*
X58883655Y-116412094D01*
X58851561Y-116467681D01*
X58743023Y-116576218D01*
X58615512Y-116758323D01*
X58521560Y-116959802D01*
X58464021Y-117174539D01*
X58444646Y-117396000D01*
X58464021Y-117617460D01*
X58513798Y-117803230D01*
X58521560Y-117832196D01*
X58615512Y-118033677D01*
X58743023Y-118215781D01*
X58743026Y-118215784D01*
X58851561Y-118324319D01*
X58883655Y-118379906D01*
X58883655Y-118444094D01*
X58851561Y-118499681D01*
X58743023Y-118608218D01*
X58615512Y-118790323D01*
X58521560Y-118991802D01*
X58464021Y-119206539D01*
X58444646Y-119428000D01*
X58464021Y-119649460D01*
X58521560Y-119864197D01*
X58549489Y-119924091D01*
X58615512Y-120065677D01*
X58743023Y-120247781D01*
X58743026Y-120247784D01*
X58851561Y-120356319D01*
X58883655Y-120411906D01*
X58883655Y-120476094D01*
X58851561Y-120531681D01*
X58743023Y-120640218D01*
X58615512Y-120822323D01*
X58521560Y-121023802D01*
X58464021Y-121238539D01*
X58444646Y-121460000D01*
X58464021Y-121681460D01*
X58521560Y-121896197D01*
X58571470Y-122003229D01*
X58615512Y-122097677D01*
X58743023Y-122279781D01*
X58743026Y-122279784D01*
X58851561Y-122388319D01*
X58883655Y-122443906D01*
X58883655Y-122508094D01*
X58851561Y-122563681D01*
X58743023Y-122672218D01*
X58615512Y-122854323D01*
X58521560Y-123055802D01*
X58464021Y-123270539D01*
X58444646Y-123492000D01*
X58464021Y-123713460D01*
X58521560Y-123928197D01*
X58548641Y-123986272D01*
X58615512Y-124129677D01*
X58743023Y-124311781D01*
X58743026Y-124311784D01*
X58851561Y-124420319D01*
X58883655Y-124475906D01*
X58883655Y-124540094D01*
X58851561Y-124595681D01*
X58743023Y-124704218D01*
X58615512Y-124886323D01*
X58521560Y-125087802D01*
X58464021Y-125302539D01*
X58444646Y-125523999D01*
X57966953Y-125523999D01*
X57915457Y-109200000D01*
X63286383Y-109200000D01*
X63306782Y-109381044D01*
X63306782Y-109381046D01*
X63306783Y-109381047D01*
X63366957Y-109553015D01*
X63463889Y-109707281D01*
X63592719Y-109836111D01*
X63746985Y-109933043D01*
X63918953Y-109993217D01*
X64100000Y-110013616D01*
X64281047Y-109993217D01*
X64453015Y-109933043D01*
X64505604Y-109899999D01*
X77486383Y-109899999D01*
X77506782Y-110081044D01*
X77506782Y-110081046D01*
X77506783Y-110081047D01*
X77566957Y-110253015D01*
X77663889Y-110407281D01*
X77792719Y-110536111D01*
X77946985Y-110633043D01*
X78118953Y-110693217D01*
X78300000Y-110713616D01*
X78481047Y-110693217D01*
X78653015Y-110633043D01*
X78734027Y-110582138D01*
X78800000Y-110563132D01*
X78865972Y-110582138D01*
X78946985Y-110633043D01*
X79118953Y-110693217D01*
X79300000Y-110713616D01*
X79481047Y-110693217D01*
X79653015Y-110633043D01*
X79807281Y-110536111D01*
X79936111Y-110407281D01*
X80033043Y-110253015D01*
X80093217Y-110081047D01*
X80113616Y-109900000D01*
X80093217Y-109718953D01*
X80033043Y-109546985D01*
X79936111Y-109392719D01*
X79807281Y-109263889D01*
X79653015Y-109166957D01*
X79481047Y-109106783D01*
X79481046Y-109106782D01*
X79481044Y-109106782D01*
X79300000Y-109086383D01*
X79118955Y-109106782D01*
X78946984Y-109166957D01*
X78865972Y-109217861D01*
X78800000Y-109236867D01*
X78734028Y-109217861D01*
X78705602Y-109200000D01*
X78653015Y-109166957D01*
X78481047Y-109106783D01*
X78481046Y-109106782D01*
X78481044Y-109106782D01*
X78300000Y-109086383D01*
X78118955Y-109106782D01*
X77946984Y-109166957D01*
X77792717Y-109263890D01*
X77663890Y-109392717D01*
X77566957Y-109546984D01*
X77506782Y-109718955D01*
X77486383Y-109899999D01*
X64505604Y-109899999D01*
X64607281Y-109836111D01*
X64736111Y-109707281D01*
X64833043Y-109553015D01*
X64893217Y-109381047D01*
X64913616Y-109200000D01*
X64893217Y-109018953D01*
X64833043Y-108846985D01*
X64740685Y-108699999D01*
X96436843Y-108699999D01*
X96455435Y-108924363D01*
X96455435Y-108924366D01*
X96455436Y-108924368D01*
X96496464Y-109086384D01*
X96510705Y-109142618D01*
X96601138Y-109348788D01*
X96601140Y-109348791D01*
X96724278Y-109537268D01*
X96876760Y-109702906D01*
X97054424Y-109841189D01*
X97252426Y-109948342D01*
X97465365Y-110021444D01*
X97687431Y-110058500D01*
X97912569Y-110058500D01*
X98134635Y-110021444D01*
X98347574Y-109948342D01*
X98545576Y-109841189D01*
X98723240Y-109702906D01*
X98875722Y-109537268D01*
X98966190Y-109398795D01*
X99010982Y-109357561D01*
X99070000Y-109342616D01*
X99129018Y-109357561D01*
X99173809Y-109398795D01*
X99264278Y-109537268D01*
X99416760Y-109702906D01*
X99594424Y-109841189D01*
X99792426Y-109948342D01*
X100005365Y-110021444D01*
X100227431Y-110058500D01*
X100452569Y-110058500D01*
X100674635Y-110021444D01*
X100887574Y-109948342D01*
X101085576Y-109841189D01*
X101263240Y-109702906D01*
X101305155Y-109657375D01*
X101332908Y-109627228D01*
X101385531Y-109593374D01*
X101447986Y-109589526D01*
X101504367Y-109616664D01*
X101540319Y-109667877D01*
X101586647Y-109792089D01*
X101672811Y-109907188D01*
X101787910Y-109993352D01*
X101922624Y-110043597D01*
X101982176Y-110050000D01*
X102630000Y-110050000D01*
X102630000Y-108950000D01*
X103130000Y-108950000D01*
X103130000Y-110050000D01*
X103777824Y-110050000D01*
X103837375Y-110043597D01*
X103972089Y-109993352D01*
X104087188Y-109907188D01*
X104173352Y-109792089D01*
X104223597Y-109657375D01*
X104230000Y-109597824D01*
X104230000Y-108950000D01*
X103130000Y-108950000D01*
X102630000Y-108950000D01*
X102630000Y-107350000D01*
X103130000Y-107350000D01*
X103130000Y-108450000D01*
X104230000Y-108450000D01*
X104230000Y-107802176D01*
X104223597Y-107742624D01*
X104173352Y-107607910D01*
X104087188Y-107492811D01*
X103972089Y-107406647D01*
X103837375Y-107356402D01*
X103777824Y-107350000D01*
X103130000Y-107350000D01*
X102630000Y-107350000D01*
X101982176Y-107350000D01*
X101922624Y-107356402D01*
X101787910Y-107406647D01*
X101672811Y-107492811D01*
X101586647Y-107607911D01*
X101540319Y-107732122D01*
X101504367Y-107783335D01*
X101447986Y-107810473D01*
X101385532Y-107806625D01*
X101332908Y-107772772D01*
X101263240Y-107697094D01*
X101162848Y-107618955D01*
X101085576Y-107558811D01*
X100887574Y-107451658D01*
X100887573Y-107451657D01*
X100887572Y-107451657D01*
X100674636Y-107378556D01*
X100452569Y-107341500D01*
X100227431Y-107341500D01*
X100005363Y-107378556D01*
X99792427Y-107451657D01*
X99594424Y-107558811D01*
X99416760Y-107697094D01*
X99264279Y-107862730D01*
X99173809Y-108001205D01*
X99129017Y-108042438D01*
X99070000Y-108057383D01*
X99010983Y-108042438D01*
X98966191Y-108001205D01*
X98946043Y-107970367D01*
X98875722Y-107862732D01*
X98723240Y-107697094D01*
X98545576Y-107558811D01*
X98347574Y-107451658D01*
X98347573Y-107451657D01*
X98347572Y-107451657D01*
X98134636Y-107378556D01*
X97912569Y-107341500D01*
X97687431Y-107341500D01*
X97465363Y-107378556D01*
X97252427Y-107451657D01*
X97054424Y-107558811D01*
X96876760Y-107697094D01*
X96724279Y-107862730D01*
X96601138Y-108051211D01*
X96510705Y-108257381D01*
X96510704Y-108257384D01*
X96470054Y-108417907D01*
X96455435Y-108475636D01*
X96436843Y-108699999D01*
X64740685Y-108699999D01*
X64736111Y-108692719D01*
X64607281Y-108563889D01*
X64453015Y-108466957D01*
X64281047Y-108406783D01*
X64281046Y-108406782D01*
X64281044Y-108406782D01*
X64100000Y-108386383D01*
X63918955Y-108406782D01*
X63746984Y-108466957D01*
X63592717Y-108563890D01*
X63463890Y-108692717D01*
X63366957Y-108846984D01*
X63306782Y-109018955D01*
X63286383Y-109200000D01*
X57915457Y-109200000D01*
X57911041Y-107799999D01*
X73586383Y-107799999D01*
X73606782Y-107981044D01*
X73606782Y-107981046D01*
X73606783Y-107981047D01*
X73666957Y-108153015D01*
X73763889Y-108307281D01*
X73892719Y-108436111D01*
X74046985Y-108533043D01*
X74218953Y-108593217D01*
X74400000Y-108613616D01*
X74581047Y-108593217D01*
X74753015Y-108533043D01*
X74907281Y-108436111D01*
X75036111Y-108307281D01*
X75133043Y-108153015D01*
X75193217Y-107981047D01*
X75213616Y-107800000D01*
X75193217Y-107618953D01*
X75133043Y-107446985D01*
X75036111Y-107292719D01*
X74907281Y-107163889D01*
X74753015Y-107066957D01*
X74581047Y-107006783D01*
X74581046Y-107006782D01*
X74581044Y-107006782D01*
X74520853Y-107000000D01*
X107186428Y-107000000D01*
X107206684Y-107270297D01*
X107267001Y-107534561D01*
X107348660Y-107742624D01*
X107366029Y-107786879D01*
X107501557Y-108021621D01*
X107670558Y-108233542D01*
X107869257Y-108417907D01*
X108093215Y-108570599D01*
X108337428Y-108688206D01*
X108596442Y-108768101D01*
X108864471Y-108808500D01*
X108864472Y-108808500D01*
X109135528Y-108808500D01*
X109135529Y-108808500D01*
X109269543Y-108788300D01*
X109403558Y-108768101D01*
X109662572Y-108688206D01*
X109906786Y-108570599D01*
X110130743Y-108417907D01*
X110130746Y-108417903D01*
X110130749Y-108417902D01*
X110303746Y-108257384D01*
X110329442Y-108233542D01*
X110498443Y-108021621D01*
X110633971Y-107786879D01*
X110732999Y-107534559D01*
X110793315Y-107270299D01*
X110813571Y-107000000D01*
X110793315Y-106729701D01*
X110732999Y-106465441D01*
X110633971Y-106213121D01*
X110498443Y-105978379D01*
X110329442Y-105766458D01*
X110314954Y-105753015D01*
X110130749Y-105582097D01*
X110112859Y-105569900D01*
X109906786Y-105429401D01*
X109662572Y-105311794D01*
X109582675Y-105287149D01*
X109403557Y-105231898D01*
X109135529Y-105191500D01*
X109135528Y-105191500D01*
X108864472Y-105191500D01*
X108864471Y-105191500D01*
X108596442Y-105231898D01*
X108337428Y-105311794D01*
X108093217Y-105429399D01*
X107869255Y-105582094D01*
X107670558Y-105766458D01*
X107501556Y-105978380D01*
X107366028Y-106213122D01*
X107267001Y-106465438D01*
X107206684Y-106729702D01*
X107186428Y-107000000D01*
X74520853Y-107000000D01*
X74400000Y-106986383D01*
X74218955Y-107006782D01*
X74046984Y-107066957D01*
X73892717Y-107163890D01*
X73763890Y-107292717D01*
X73666957Y-107446984D01*
X73606782Y-107618955D01*
X73586383Y-107799999D01*
X57911041Y-107799999D01*
X57905516Y-106048658D01*
X57918888Y-105992253D01*
X57956440Y-105948089D01*
X58009963Y-105925820D01*
X58067759Y-105930314D01*
X58117196Y-105960588D01*
X58192719Y-106036111D01*
X58346985Y-106133043D01*
X58518953Y-106193217D01*
X58700000Y-106213616D01*
X58881047Y-106193217D01*
X59053015Y-106133043D01*
X59207281Y-106036111D01*
X59336111Y-105907281D01*
X59433043Y-105753015D01*
X59493217Y-105581047D01*
X59513616Y-105400000D01*
X59493217Y-105218953D01*
X59433043Y-105046985D01*
X59336111Y-104892719D01*
X59207281Y-104763889D01*
X59053015Y-104666957D01*
X58980379Y-104641540D01*
X58924389Y-104601813D01*
X58898116Y-104538384D01*
X58909616Y-104470698D01*
X58955364Y-104419506D01*
X59021336Y-104400500D01*
X112675500Y-104400500D01*
X112737500Y-104417113D01*
G37*
%TD.AperFunction*%
%TA.AperFunction,Conductor*%
G36*
X71038000Y-135316613D02*
G01*
X71083387Y-135362000D01*
X71100000Y-135424000D01*
X71100000Y-139576000D01*
X71083387Y-139638000D01*
X71038000Y-139683387D01*
X70976000Y-139700000D01*
X70400000Y-139700000D01*
X70400000Y-142876000D01*
X70383387Y-142938000D01*
X70338000Y-142983387D01*
X70276000Y-143000000D01*
X65024000Y-143000000D01*
X64962000Y-142983387D01*
X64916613Y-142938000D01*
X64900000Y-142876000D01*
X64900000Y-139939378D01*
X64917197Y-139876377D01*
X64964019Y-139830850D01*
X65027478Y-139815427D01*
X65089972Y-139834384D01*
X65092716Y-139836108D01*
X65092719Y-139836111D01*
X65246985Y-139933043D01*
X65418953Y-139993217D01*
X65600000Y-140013616D01*
X65781047Y-139993217D01*
X65953015Y-139933043D01*
X66107281Y-139836111D01*
X66236111Y-139707281D01*
X66333043Y-139553015D01*
X66335174Y-139546922D01*
X66357527Y-139483045D01*
X66383670Y-139439659D01*
X66424981Y-139410346D01*
X66474568Y-139400000D01*
X68700000Y-139400000D01*
X68700000Y-135424000D01*
X68716613Y-135362000D01*
X68762000Y-135316613D01*
X68824000Y-135300000D01*
X70976000Y-135300000D01*
X71038000Y-135316613D01*
G37*
%TD.AperFunction*%
M02*
