%TF.GenerationSoftware,KiCad,Pcbnew,7.0.1*%
%TF.CreationDate,2023-03-30T19:37:27+02:00*%
%TF.ProjectId,home-media-converter,686f6d65-2d6d-4656-9469-612d636f6e76,rev?*%
%TF.SameCoordinates,Original*%
%TF.FileFunction,Soldermask,Top*%
%TF.FilePolarity,Negative*%
%FSLAX46Y46*%
G04 Gerber Fmt 4.6, Leading zero omitted, Abs format (unit mm)*
G04 Created by KiCad (PCBNEW 7.0.1) date 2023-03-30 19:37:27*
%MOMM*%
%LPD*%
G01*
G04 APERTURE LIST*
G04 Aperture macros list*
%AMRoundRect*
0 Rectangle with rounded corners*
0 $1 Rounding radius*
0 $2 $3 $4 $5 $6 $7 $8 $9 X,Y pos of 4 corners*
0 Add a 4 corners polygon primitive as box body*
4,1,4,$2,$3,$4,$5,$6,$7,$8,$9,$2,$3,0*
0 Add four circle primitives for the rounded corners*
1,1,$1+$1,$2,$3*
1,1,$1+$1,$4,$5*
1,1,$1+$1,$6,$7*
1,1,$1+$1,$8,$9*
0 Add four rect primitives between the rounded corners*
20,1,$1+$1,$2,$3,$4,$5,0*
20,1,$1+$1,$4,$5,$6,$7,0*
20,1,$1+$1,$6,$7,$8,$9,0*
20,1,$1+$1,$8,$9,$2,$3,0*%
G04 Aperture macros list end*
%ADD10C,3.800000*%
%ADD11C,2.600000*%
%ADD12RoundRect,0.135000X-0.185000X0.135000X-0.185000X-0.135000X0.185000X-0.135000X0.185000X0.135000X0*%
%ADD13RoundRect,0.140000X0.170000X-0.140000X0.170000X0.140000X-0.170000X0.140000X-0.170000X-0.140000X0*%
%ADD14R,0.254800X0.807999*%
%ADD15R,0.807999X0.254800*%
%ADD16R,3.810000X3.810000*%
%ADD17RoundRect,0.225000X-0.225000X-0.250000X0.225000X-0.250000X0.225000X0.250000X-0.225000X0.250000X0*%
%ADD18R,5.156200X5.156200*%
%ADD19R,0.254800X0.757199*%
%ADD20R,0.757199X0.254800*%
%ADD21RoundRect,0.140000X0.140000X0.170000X-0.140000X0.170000X-0.140000X-0.170000X0.140000X-0.170000X0*%
%ADD22RoundRect,0.135000X0.185000X-0.135000X0.185000X0.135000X-0.185000X0.135000X-0.185000X-0.135000X0*%
%ADD23RoundRect,0.218750X-0.256250X0.218750X-0.256250X-0.218750X0.256250X-0.218750X0.256250X0.218750X0*%
%ADD24RoundRect,0.225000X0.225000X0.250000X-0.225000X0.250000X-0.225000X-0.250000X0.225000X-0.250000X0*%
%ADD25RoundRect,0.135000X-0.135000X-0.185000X0.135000X-0.185000X0.135000X0.185000X-0.135000X0.185000X0*%
%ADD26RoundRect,0.135000X0.135000X0.185000X-0.135000X0.185000X-0.135000X-0.185000X0.135000X-0.185000X0*%
%ADD27RoundRect,0.140000X-0.140000X-0.170000X0.140000X-0.170000X0.140000X0.170000X-0.140000X0.170000X0*%
%ADD28R,2.000000X2.400000*%
%ADD29RoundRect,0.218750X0.256250X-0.218750X0.256250X0.218750X-0.256250X0.218750X-0.256250X-0.218750X0*%
%ADD30C,2.082800*%
%ADD31C,1.624000*%
%ADD32C,1.524000*%
%ADD33C,3.251200*%
%ADD34RoundRect,0.140000X-0.170000X0.140000X-0.170000X-0.140000X0.170000X-0.140000X0.170000X0.140000X0*%
%ADD35RoundRect,0.218750X-0.218750X-0.256250X0.218750X-0.256250X0.218750X0.256250X-0.218750X0.256250X0*%
%ADD36R,0.706399X0.229400*%
%ADD37R,1.700000X1.700000*%
%ADD38O,1.700000X1.700000*%
%ADD39RoundRect,0.250000X-0.375000X-0.850000X0.375000X-0.850000X0.375000X0.850000X-0.375000X0.850000X0*%
%ADD40RoundRect,0.100000X-0.100000X0.637500X-0.100000X-0.637500X0.100000X-0.637500X0.100000X0.637500X0*%
%ADD41RoundRect,0.150000X-0.512500X-0.150000X0.512500X-0.150000X0.512500X0.150000X-0.512500X0.150000X0*%
%ADD42O,0.800000X0.800000*%
%ADD43R,0.450000X1.300000*%
%ADD44O,1.450000X2.000000*%
%ADD45O,1.150000X1.800000*%
%ADD46R,1.041400X0.609600*%
%ADD47R,1.000000X0.900000*%
%ADD48RoundRect,0.218750X0.218750X0.256250X-0.218750X0.256250X-0.218750X-0.256250X0.218750X-0.256250X0*%
%ADD49R,0.931065X0.302473*%
%ADD50R,1.749999X2.500000*%
%ADD51C,3.250000*%
%ADD52R,1.500000X1.500000*%
%ADD53C,1.500000*%
%ADD54C,2.300000*%
%ADD55RoundRect,0.225000X0.225000X0.375000X-0.225000X0.375000X-0.225000X-0.375000X0.225000X-0.375000X0*%
G04 APERTURE END LIST*
D10*
X109000000Y-155000000D03*
D11*
X109000000Y-155000000D03*
D10*
X109000000Y-107000000D03*
D11*
X109000000Y-107000000D03*
D10*
X39000000Y-107000000D03*
D11*
X39000000Y-107000000D03*
D10*
X39000000Y-155000000D03*
D11*
X39000000Y-155000000D03*
D12*
X80200000Y-113690000D03*
X80200000Y-114710000D03*
D13*
X78300000Y-111780000D03*
X78300000Y-110820000D03*
D14*
X77799999Y-140888000D03*
X78300000Y-140888000D03*
X78799999Y-140888000D03*
X79300001Y-140888000D03*
X79800000Y-140888000D03*
X80299999Y-140888000D03*
X80800001Y-140888000D03*
X81300000Y-140888000D03*
X81800001Y-140888000D03*
D15*
X82744000Y-139944001D03*
X82744000Y-139444000D03*
X82744000Y-138944001D03*
X82744000Y-138443999D03*
X82744000Y-137944000D03*
X82744000Y-137444001D03*
X82744000Y-136943999D03*
X82744000Y-136444000D03*
X82744000Y-135943999D03*
D14*
X81800001Y-135000000D03*
X81300000Y-135000000D03*
X80800001Y-135000000D03*
X80299999Y-135000000D03*
X79800000Y-135000000D03*
X79300001Y-135000000D03*
X78799999Y-135000000D03*
X78300000Y-135000000D03*
X77799999Y-135000000D03*
D15*
X76856000Y-135943999D03*
X76856000Y-136444000D03*
X76856000Y-136943999D03*
X76856000Y-137444001D03*
X76856000Y-137944000D03*
X76856000Y-138443999D03*
X76856000Y-138944001D03*
X76856000Y-139444000D03*
X76856000Y-139944001D03*
D16*
X79800000Y-137944000D03*
D17*
X52225000Y-149600000D03*
X53775000Y-149600000D03*
D18*
X78952000Y-120450000D03*
D19*
X76202000Y-116998000D03*
X76701999Y-116998000D03*
X77202001Y-116998000D03*
X77702000Y-116998000D03*
X78201999Y-116998000D03*
X78702000Y-116998000D03*
X79202000Y-116998000D03*
X79702001Y-116998000D03*
X80202000Y-116998000D03*
X80701999Y-116998000D03*
X81202001Y-116998000D03*
X81702000Y-116998000D03*
D20*
X82404000Y-117700000D03*
X82404000Y-118199999D03*
X82404000Y-118700001D03*
X82404000Y-119200000D03*
X82404000Y-119699999D03*
X82404000Y-120200000D03*
X82404000Y-120700000D03*
X82404000Y-121200001D03*
X82404000Y-121700000D03*
X82404000Y-122199999D03*
X82404000Y-122700001D03*
X82404000Y-123200000D03*
D19*
X81702000Y-123902000D03*
X81202001Y-123902000D03*
X80701999Y-123902000D03*
X80202000Y-123902000D03*
X79702001Y-123902000D03*
X79202000Y-123902000D03*
X78702000Y-123902000D03*
X78201999Y-123902000D03*
X77702000Y-123902000D03*
X77202001Y-123902000D03*
X76701999Y-123902000D03*
X76202000Y-123902000D03*
D20*
X75500000Y-123200000D03*
X75500000Y-122700001D03*
X75500000Y-122199999D03*
X75500000Y-121700000D03*
X75500000Y-121200001D03*
X75500000Y-120700000D03*
X75500000Y-120200000D03*
X75500000Y-119699999D03*
X75500000Y-119200000D03*
X75500000Y-118700001D03*
X75500000Y-118199999D03*
X75500000Y-117700000D03*
D21*
X97280000Y-116400000D03*
X96320000Y-116400000D03*
D22*
X85600000Y-116610000D03*
X85600000Y-115590000D03*
D23*
X50600000Y-148112500D03*
X50600000Y-149687500D03*
D24*
X65575000Y-140500000D03*
X64025000Y-140500000D03*
D25*
X87590000Y-120600000D03*
X88610000Y-120600000D03*
D26*
X87110000Y-151900000D03*
X86090000Y-151900000D03*
D13*
X85800000Y-143680000D03*
X85800000Y-142720000D03*
D12*
X78500000Y-131078000D03*
X78500000Y-132098000D03*
D27*
X62240000Y-109200000D03*
X63200000Y-109200000D03*
D25*
X87590000Y-119600000D03*
X88610000Y-119600000D03*
D13*
X84800000Y-143680000D03*
X84800000Y-142720000D03*
X82300000Y-114660000D03*
X82300000Y-113700000D03*
D28*
X76100000Y-110800000D03*
X72400000Y-110800000D03*
D29*
X87500000Y-142000000D03*
X87500000Y-140425000D03*
D30*
X41305000Y-112379500D03*
X41305000Y-128508500D03*
D31*
X64800000Y-114348000D03*
X64800000Y-116888000D03*
X64800000Y-124000000D03*
X64800000Y-126540000D03*
D32*
X62260000Y-114348000D03*
X62260000Y-116380000D03*
X62260000Y-118412000D03*
X62260000Y-122476000D03*
X62260000Y-124508000D03*
X62260000Y-126540000D03*
X59720000Y-115364000D03*
X59720000Y-117396000D03*
X59720000Y-119428000D03*
X59720000Y-121460000D03*
X59720000Y-123492000D03*
X59720000Y-125524000D03*
D33*
X44480000Y-114094000D03*
X44480000Y-126794000D03*
D25*
X106977500Y-115300000D03*
X107997500Y-115300000D03*
D34*
X86100000Y-140220000D03*
X86100000Y-141180000D03*
D25*
X106977500Y-113500000D03*
X107997500Y-113500000D03*
D17*
X76725000Y-143300000D03*
X78275000Y-143300000D03*
D35*
X69900000Y-116400000D03*
X71475000Y-116400000D03*
D13*
X79300000Y-111780000D03*
X79300000Y-110820000D03*
D34*
X85120000Y-140220000D03*
X85120000Y-141180000D03*
D25*
X71480000Y-127900000D03*
X72500000Y-127900000D03*
D36*
X66895400Y-149100126D03*
X66895400Y-148600000D03*
X66895400Y-148099874D03*
X65300000Y-148099874D03*
X65300000Y-148600000D03*
X65300000Y-149100126D03*
D37*
X104620000Y-128600000D03*
D38*
X102080000Y-128600000D03*
X99540000Y-128600000D03*
X97000000Y-128600000D03*
D29*
X48900000Y-149687500D03*
X48900000Y-148112500D03*
D27*
X82540000Y-131388000D03*
X83500000Y-131388000D03*
D39*
X67625000Y-137970387D03*
X69775000Y-137970387D03*
D25*
X88890000Y-142100000D03*
X89910000Y-142100000D03*
D40*
X106425000Y-117537500D03*
X105775000Y-117537500D03*
X105125000Y-117537500D03*
X104475000Y-117537500D03*
X103825000Y-117537500D03*
X103175000Y-117537500D03*
X102525000Y-117537500D03*
X101875000Y-117537500D03*
X101225000Y-117537500D03*
X100575000Y-117537500D03*
X100575000Y-123262500D03*
X101225000Y-123262500D03*
X101875000Y-123262500D03*
X102525000Y-123262500D03*
X103175000Y-123262500D03*
X103825000Y-123262500D03*
X104475000Y-123262500D03*
X105125000Y-123262500D03*
X105775000Y-123262500D03*
X106425000Y-123262500D03*
D21*
X103780000Y-125200000D03*
X102820000Y-125200000D03*
D26*
X85810000Y-150300000D03*
X84790000Y-150300000D03*
D27*
X53775000Y-141600000D03*
X54735000Y-141600000D03*
D22*
X62500000Y-138980387D03*
X62500000Y-137960387D03*
D28*
X77700000Y-146300000D03*
X81400000Y-146300000D03*
D25*
X98290000Y-131200000D03*
X99310000Y-131200000D03*
D37*
X102880000Y-108700000D03*
D38*
X100340000Y-108700000D03*
X97800000Y-108700000D03*
D12*
X79100000Y-113690000D03*
X79100000Y-114710000D03*
D22*
X86000000Y-126010000D03*
X86000000Y-124990000D03*
D25*
X87090000Y-123600000D03*
X88110000Y-123600000D03*
D21*
X65280000Y-136170387D03*
X64320000Y-136170387D03*
D12*
X102000000Y-114890000D03*
X102000000Y-115910000D03*
D21*
X71080000Y-129000000D03*
X70120000Y-129000000D03*
D24*
X65322700Y-153200000D03*
X66872700Y-153200000D03*
D12*
X77500000Y-131278000D03*
X77500000Y-132298000D03*
D26*
X72410000Y-115000000D03*
X71390000Y-115000000D03*
D22*
X62500000Y-136880387D03*
X62500000Y-135860387D03*
D35*
X87112500Y-143600000D03*
X88687500Y-143600000D03*
D21*
X74100000Y-123300000D03*
X73140000Y-123300000D03*
D25*
X67380000Y-128600000D03*
X68400000Y-128600000D03*
D27*
X77720000Y-149400000D03*
X78680000Y-149400000D03*
D13*
X77900000Y-114680000D03*
X77900000Y-113720000D03*
D36*
X65597700Y-138470513D03*
X65597700Y-137970387D03*
X65597700Y-137470261D03*
X64002300Y-137470261D03*
X64002300Y-137970387D03*
X64002300Y-138470513D03*
D21*
X74280000Y-137900000D03*
X73320000Y-137900000D03*
D25*
X93580000Y-142900000D03*
X94600000Y-142900000D03*
D41*
X51937500Y-143050000D03*
X51937500Y-144000000D03*
X51937500Y-144950000D03*
X54212500Y-144950000D03*
X54212500Y-144000000D03*
X54212500Y-143050000D03*
D27*
X82540000Y-132388000D03*
X83500000Y-132388000D03*
D13*
X104400000Y-115880000D03*
X104400000Y-114920000D03*
D24*
X66872700Y-151600000D03*
X65322700Y-151600000D03*
D26*
X85710000Y-135644000D03*
X84690000Y-135644000D03*
D12*
X79500000Y-131078000D03*
X79500000Y-132098000D03*
X75500000Y-131778000D03*
X75500000Y-132798000D03*
D27*
X84520000Y-121100000D03*
X85480000Y-121100000D03*
D21*
X72720000Y-117300000D03*
X73680000Y-117300000D03*
D42*
X47695000Y-153245000D03*
X52695000Y-153245000D03*
D43*
X48895000Y-152145000D03*
X49545000Y-152145000D03*
X50195000Y-152145000D03*
X50845000Y-152145000D03*
X51495000Y-152145000D03*
D44*
X46470000Y-152195000D03*
X53920000Y-152195000D03*
D45*
X46320000Y-155995000D03*
X54070000Y-155995000D03*
D24*
X65575000Y-142100000D03*
X64025000Y-142100000D03*
D35*
X71112500Y-130600000D03*
X72687500Y-130600000D03*
D46*
X89475002Y-138300001D03*
X92524998Y-138300001D03*
X92524998Y-139299999D03*
X89475002Y-139299999D03*
D27*
X84420000Y-131388000D03*
X85380000Y-131388000D03*
D25*
X87190000Y-121600000D03*
X88210000Y-121600000D03*
D27*
X84420000Y-133388000D03*
X85380000Y-133388000D03*
D47*
X96100000Y-122450000D03*
X96100000Y-118350000D03*
X97700000Y-118350000D03*
X97700000Y-122450000D03*
D25*
X87290000Y-122600000D03*
X88310000Y-122600000D03*
D35*
X80912500Y-143300000D03*
X82487500Y-143300000D03*
D27*
X84420000Y-132388000D03*
X85380000Y-132388000D03*
D25*
X90090000Y-143600000D03*
X91110000Y-143600000D03*
D22*
X63797700Y-149600000D03*
X63797700Y-148580000D03*
X86600000Y-116610000D03*
X86600000Y-115590000D03*
D48*
X110875000Y-113500000D03*
X109300000Y-113500000D03*
D27*
X67220000Y-115400000D03*
X68180000Y-115400000D03*
D22*
X63797700Y-147510000D03*
X63797700Y-146490000D03*
D21*
X74280000Y-139000000D03*
X73320000Y-139000000D03*
D27*
X82540000Y-133388000D03*
X83500000Y-133388000D03*
D13*
X109100000Y-120980000D03*
X109100000Y-120020000D03*
D12*
X84980000Y-124990000D03*
X84980000Y-126010000D03*
D21*
X74080000Y-121700000D03*
X73120000Y-121700000D03*
D37*
X102880000Y-112500000D03*
D38*
X100340000Y-112500000D03*
X97800000Y-112500000D03*
D48*
X110875000Y-115300000D03*
X109300000Y-115300000D03*
D49*
X75298033Y-143974999D03*
X75298033Y-143325001D03*
X75298033Y-142674999D03*
X75298033Y-142025001D03*
X72316967Y-142025001D03*
X72316967Y-142674999D03*
X72316967Y-143325001D03*
X72316967Y-143974999D03*
D50*
X73807500Y-143000000D03*
D34*
X76300000Y-125320000D03*
X76300000Y-126280000D03*
D25*
X67190000Y-116900000D03*
X68210000Y-116900000D03*
D13*
X76700000Y-114680000D03*
X76700000Y-113720000D03*
D25*
X87390000Y-117600000D03*
X88410000Y-117600000D03*
D13*
X83800000Y-143680000D03*
X83800000Y-142720000D03*
D27*
X94195002Y-139300001D03*
X95155002Y-139300001D03*
X94195002Y-138300001D03*
X95155002Y-138300001D03*
D21*
X66577700Y-146800000D03*
X65617700Y-146800000D03*
D27*
X67220000Y-123600000D03*
X68180000Y-123600000D03*
D35*
X73112500Y-140400000D03*
X74687500Y-140400000D03*
D13*
X81300000Y-114660000D03*
X81300000Y-113700000D03*
D27*
X52615000Y-146700000D03*
X53575000Y-146700000D03*
D26*
X68220000Y-112900000D03*
X67200000Y-112900000D03*
D17*
X52225000Y-148000000D03*
X53775000Y-148000000D03*
D21*
X72720000Y-116300000D03*
X73680000Y-116300000D03*
D25*
X74380000Y-134188000D03*
X75400000Y-134188000D03*
D26*
X95910000Y-147900000D03*
X94890000Y-147900000D03*
D37*
X87120000Y-147000000D03*
D38*
X89660000Y-147000000D03*
X92200000Y-147000000D03*
D12*
X103200000Y-114890000D03*
X103200000Y-115910000D03*
X80500000Y-131078000D03*
X80500000Y-132098000D03*
X81500000Y-132788000D03*
X81500000Y-131768000D03*
D34*
X81600000Y-126420000D03*
X81600000Y-127380000D03*
D27*
X62220000Y-131700000D03*
X63180000Y-131700000D03*
D21*
X81380000Y-149400000D03*
X80420000Y-149400000D03*
D12*
X76500000Y-131778000D03*
X76500000Y-132798000D03*
D26*
X88110000Y-124600000D03*
X87090000Y-124600000D03*
D39*
X56200000Y-143500000D03*
X58350000Y-143500000D03*
D35*
X87212500Y-150300000D03*
X88787500Y-150300000D03*
D21*
X73380000Y-107800000D03*
X72420000Y-107800000D03*
D25*
X95790000Y-123800000D03*
X96810000Y-123800000D03*
X87390000Y-118600000D03*
X88410000Y-118600000D03*
D24*
X58350000Y-145800000D03*
X56800000Y-145800000D03*
D34*
X78400000Y-125320000D03*
X78400000Y-126280000D03*
X84100000Y-140220000D03*
X84100000Y-141180000D03*
D51*
X107415002Y-148162001D03*
X107415002Y-135462001D03*
D52*
X104875002Y-138252001D03*
D53*
X103095002Y-139268001D03*
X104875002Y-140284001D03*
X103095002Y-141300001D03*
X104875002Y-142316001D03*
X103095002Y-143332001D03*
X104875002Y-144348001D03*
X103095002Y-145364001D03*
X98275002Y-134952001D03*
X98275002Y-137242001D03*
X98275002Y-146382001D03*
X98275002Y-148672001D03*
D54*
X103985002Y-133682001D03*
X103985002Y-149942001D03*
D24*
X58350000Y-147400000D03*
X56800000Y-147400000D03*
D55*
X85850000Y-108800000D03*
X82550000Y-108800000D03*
X85850000Y-111600000D03*
X82550000Y-111600000D03*
D21*
X73680000Y-119200000D03*
X72720000Y-119200000D03*
X71180000Y-144000000D03*
X70220000Y-144000000D03*
D27*
X83820000Y-123600000D03*
X84780000Y-123600000D03*
X84520000Y-118700000D03*
X85480000Y-118700000D03*
D39*
X69022700Y-148600000D03*
X71172700Y-148600000D03*
D12*
X95600000Y-133690000D03*
X95600000Y-134710000D03*
D26*
X88600000Y-135100000D03*
X87580000Y-135100000D03*
D27*
X75220000Y-107800000D03*
X76180000Y-107800000D03*
M02*
