%TF.GenerationSoftware,KiCad,Pcbnew,7.0.1*%
%TF.CreationDate,2023-03-30T19:37:34+02:00*%
%TF.ProjectId,home-media-converter,686f6d65-2d6d-4656-9469-612d636f6e76,rev?*%
%TF.SameCoordinates,Original*%
%TF.FileFunction,Drillmap*%
%TF.FilePolarity,Positive*%
%FSLAX45Y45*%
G04 Gerber Fmt 4.5, Leading zero omitted, Abs format (unit mm)*
G04 Created by KiCad (PCBNEW 7.0.1) date 2023-03-30 19:37:34*
%MOMM*%
%LPD*%
G01*
G04 APERTURE LIST*
%ADD10C,0.100000*%
%ADD11C,0.200000*%
%ADD12C,0.030000*%
%ADD13C,0.035000*%
%ADD14C,0.040000*%
%ADD15C,0.055000*%
%ADD16C,0.085000*%
%ADD17C,0.089000*%
%ADD18C,0.101600*%
%ADD19C,0.115000*%
%ADD20C,0.157000*%
%ADD21C,0.157480*%
%ADD22C,0.220000*%
G04 APERTURE END LIST*
D10*
X3340000Y-10420000D02*
X11300000Y-10420000D01*
X11300000Y-15820000D01*
X3340000Y-15820000D01*
X3340000Y-10420000D01*
D11*
D12*
X7455000Y-11905000D02*
X7485000Y-11935000D01*
X7485000Y-11905000D02*
X7455000Y-11935000D01*
X7455000Y-12155000D02*
X7485000Y-12185000D01*
X7485000Y-12155000D02*
X7455000Y-12185000D01*
X7495898Y-13741996D02*
X7525898Y-13771996D01*
X7525898Y-13741996D02*
X7495898Y-13771996D01*
X7515000Y-13655000D02*
X7545000Y-13685000D01*
X7545000Y-13655000D02*
X7515000Y-13685000D01*
X7525000Y-13885000D02*
X7555000Y-13915000D01*
X7555000Y-13885000D02*
X7525000Y-13915000D01*
X7547149Y-13806045D02*
X7577149Y-13836045D01*
X7577149Y-13806045D02*
X7547149Y-13836045D01*
X7716500Y-11291000D02*
X7746500Y-11321000D01*
X7746500Y-11291000D02*
X7716500Y-11321000D01*
X7735000Y-13055000D02*
X7765000Y-13085000D01*
X7765000Y-13055000D02*
X7735000Y-13085000D01*
X8035000Y-13024800D02*
X8065000Y-13054800D01*
X8065000Y-13024800D02*
X8035000Y-13054800D01*
X8241296Y-13045909D02*
X8271296Y-13075909D01*
X8271296Y-13045909D02*
X8241296Y-13075909D01*
X8335000Y-13274800D02*
X8365000Y-13304800D01*
X8365000Y-13274800D02*
X8335000Y-13304800D01*
X8441475Y-12416776D02*
X8471475Y-12446776D01*
X8471475Y-12416776D02*
X8441475Y-12446776D01*
X8471703Y-11795290D02*
X8501703Y-11825290D01*
X8501703Y-11795290D02*
X8471703Y-11825290D01*
X8523000Y-13274800D02*
X8553000Y-13304800D01*
X8553000Y-13274800D02*
X8523000Y-13304800D01*
X8585000Y-11855000D02*
X8615000Y-11885000D01*
X8615000Y-11855000D02*
X8585000Y-11885000D01*
X8592356Y-12117644D02*
X8622356Y-12147644D01*
X8622356Y-12117644D02*
X8592356Y-12147644D01*
X8655000Y-12585000D02*
X8685000Y-12615000D01*
X8685000Y-12585000D02*
X8655000Y-12615000D01*
X8705000Y-11565000D02*
X8735000Y-11595000D01*
X8735000Y-11565000D02*
X8705000Y-11595000D01*
X8795000Y-12505000D02*
X8825000Y-12535000D01*
X8825000Y-12505000D02*
X8795000Y-12535000D01*
X8867697Y-12217128D02*
X8897697Y-12247128D01*
X8897697Y-12217128D02*
X8867697Y-12247128D01*
X8895000Y-11745000D02*
X8925000Y-11775000D01*
X8925000Y-11745000D02*
X8895000Y-11775000D01*
X8897479Y-12072521D02*
X8927479Y-12102521D01*
X8927479Y-12072521D02*
X8897479Y-12102521D01*
D13*
X7707500Y-11840000D02*
G75*
G03*
X7707500Y-11840000I-17500J0D01*
G01*
X7707500Y-11940000D02*
G75*
G03*
X7707500Y-11940000I-17500J0D01*
G01*
X7707500Y-12100000D02*
G75*
G03*
X7707500Y-12100000I-17500J0D01*
G01*
X7800833Y-11840000D02*
G75*
G03*
X7800833Y-11840000I-17500J0D01*
G01*
X7807500Y-12010000D02*
G75*
G03*
X7807500Y-12010000I-17500J0D01*
G01*
X7827500Y-13630000D02*
G75*
G03*
X7827500Y-13630000I-17500J0D01*
G01*
X7847500Y-13940000D02*
G75*
G03*
X7847500Y-13940000I-17500J0D01*
G01*
X7894167Y-11840000D02*
G75*
G03*
X7894167Y-11840000I-17500J0D01*
G01*
X7897500Y-11940000D02*
G75*
G03*
X7897500Y-11940000I-17500J0D01*
G01*
X7917500Y-12260000D02*
G75*
G03*
X7917500Y-12260000I-17500J0D01*
G01*
X7957500Y-13690000D02*
G75*
G03*
X7957500Y-13690000I-17500J0D01*
G01*
X7987500Y-11840000D02*
G75*
G03*
X7987500Y-11840000I-17500J0D01*
G01*
X7997500Y-13940000D02*
G75*
G03*
X7997500Y-13940000I-17500J0D01*
G01*
X8027500Y-12260000D02*
G75*
G03*
X8027500Y-12260000I-17500J0D01*
G01*
X8027500Y-13620000D02*
G75*
G03*
X8027500Y-13620000I-17500J0D01*
G01*
X8057500Y-12110000D02*
G75*
G03*
X8057500Y-12110000I-17500J0D01*
G01*
X8127500Y-12040000D02*
G75*
G03*
X8127500Y-12040000I-17500J0D01*
G01*
X8127500Y-12170000D02*
G75*
G03*
X8127500Y-12170000I-17500J0D01*
G01*
X8127500Y-12260000D02*
G75*
G03*
X8127500Y-12260000I-17500J0D01*
G01*
X8147500Y-13940000D02*
G75*
G03*
X8147500Y-13940000I-17500J0D01*
G01*
D14*
X5050000Y-15350000D02*
X5050000Y-15390000D01*
X5030000Y-15370000D02*
X5070000Y-15370000D01*
X5080000Y-15060000D02*
X5080000Y-15100000D01*
X5060000Y-15080000D02*
X5100000Y-15080000D01*
X5150000Y-15350000D02*
X5150000Y-15390000D01*
X5130000Y-15370000D02*
X5170000Y-15370000D01*
X5180000Y-15060000D02*
X5180000Y-15100000D01*
X5160000Y-15080000D02*
X5200000Y-15080000D01*
X5520000Y-14590000D02*
X5520000Y-14630000D01*
X5500000Y-14610000D02*
X5540000Y-14610000D01*
X5520000Y-14690000D02*
X5520000Y-14730000D01*
X5500000Y-14710000D02*
X5540000Y-14710000D01*
X5520000Y-14790000D02*
X5520000Y-14830000D01*
X5500000Y-14810000D02*
X5540000Y-14810000D01*
X5520000Y-14900000D02*
X5520000Y-14940000D01*
X5500000Y-14920000D02*
X5540000Y-14920000D01*
X5870000Y-10520000D02*
X5870000Y-10560000D01*
X5850000Y-10540000D02*
X5890000Y-10540000D01*
X6007500Y-14180000D02*
X6007500Y-14220000D01*
X5987500Y-14200000D02*
X6027500Y-14200000D01*
X6007500Y-14270000D02*
X6007500Y-14310000D01*
X5987500Y-14290000D02*
X6027500Y-14290000D01*
X6007500Y-14360000D02*
X6007500Y-14400000D01*
X5987500Y-14380000D02*
X6027500Y-14380000D01*
X6007500Y-14450000D02*
X6007500Y-14490000D01*
X5987500Y-14470000D02*
X6027500Y-14470000D01*
X6007500Y-14540000D02*
X6007500Y-14580000D01*
X5987500Y-14560000D02*
X6027500Y-14560000D01*
X6007500Y-14630000D02*
X6007500Y-14670000D01*
X5987500Y-14650000D02*
X6027500Y-14650000D01*
X6007500Y-14720000D02*
X6007500Y-14760000D01*
X5987500Y-14740000D02*
X6027500Y-14740000D01*
X6007500Y-14810000D02*
X6007500Y-14850000D01*
X5987500Y-14830000D02*
X6027500Y-14830000D01*
X6130000Y-13880000D02*
X6130000Y-13920000D01*
X6110000Y-13900000D02*
X6150000Y-13900000D01*
X6280000Y-14950000D02*
X6280000Y-14990000D01*
X6260000Y-14970000D02*
X6300000Y-14970000D01*
X6290000Y-14110000D02*
X6290000Y-14150000D01*
X6270000Y-14130000D02*
X6310000Y-14130000D01*
X6340000Y-15120000D02*
X6340000Y-15160000D01*
X6320000Y-15140000D02*
X6360000Y-15140000D01*
X6340000Y-15223333D02*
X6340000Y-15263333D01*
X6320000Y-15243333D02*
X6360000Y-15243333D01*
X6340000Y-15326667D02*
X6340000Y-15366667D01*
X6320000Y-15346667D02*
X6360000Y-15346667D01*
X6340000Y-15430000D02*
X6340000Y-15470000D01*
X6320000Y-15450000D02*
X6360000Y-15450000D01*
X6350000Y-13520000D02*
X6350000Y-13560000D01*
X6330000Y-13540000D02*
X6370000Y-13540000D01*
X6380000Y-14500000D02*
X6380000Y-14540000D01*
X6360000Y-14520000D02*
X6400000Y-14520000D01*
X6390000Y-13150000D02*
X6390000Y-13190000D01*
X6370000Y-13170000D02*
X6410000Y-13170000D01*
X6410000Y-10900000D02*
X6410000Y-10940000D01*
X6390000Y-10920000D02*
X6430000Y-10920000D01*
X6500000Y-14500000D02*
X6500000Y-14540000D01*
X6480000Y-14520000D02*
X6520000Y-14520000D01*
X6550000Y-15030000D02*
X6550000Y-15070000D01*
X6530000Y-15050000D02*
X6570000Y-15050000D01*
X6560000Y-13900000D02*
X6560000Y-13940000D01*
X6540000Y-13920000D02*
X6580000Y-13920000D01*
X6560000Y-14300000D02*
X6560000Y-14340000D01*
X6540000Y-14320000D02*
X6580000Y-14320000D01*
X6620000Y-14500000D02*
X6620000Y-14540000D01*
X6600000Y-14520000D02*
X6640000Y-14520000D01*
X6690000Y-14960000D02*
X6690000Y-15000000D01*
X6670000Y-14980000D02*
X6710000Y-14980000D01*
X6690000Y-15450000D02*
X6690000Y-15490000D01*
X6670000Y-15470000D02*
X6710000Y-15470000D01*
X6740000Y-14010000D02*
X6740000Y-14050000D01*
X6720000Y-14030000D02*
X6760000Y-14030000D01*
X6740000Y-14150000D02*
X6740000Y-14190000D01*
X6720000Y-14170000D02*
X6760000Y-14170000D01*
X6740000Y-14500000D02*
X6740000Y-14540000D01*
X6720000Y-14520000D02*
X6760000Y-14520000D01*
X6830000Y-14010000D02*
X6830000Y-14050000D01*
X6810000Y-14030000D02*
X6850000Y-14030000D01*
X6830000Y-14150000D02*
X6830000Y-14190000D01*
X6810000Y-14170000D02*
X6850000Y-14170000D01*
X6840000Y-12920000D02*
X6840000Y-12960000D01*
X6820000Y-12940000D02*
X6860000Y-12940000D01*
X6890000Y-12340000D02*
X6890000Y-12380000D01*
X6870000Y-12360000D02*
X6910000Y-12360000D01*
X6900000Y-11270000D02*
X6900000Y-11310000D01*
X6880000Y-11290000D02*
X6920000Y-11290000D01*
X6900000Y-11520000D02*
X6900000Y-11560000D01*
X6880000Y-11540000D02*
X6920000Y-11540000D01*
X6900000Y-11670000D02*
X6900000Y-11710000D01*
X6880000Y-11690000D02*
X6920000Y-11690000D01*
X6920000Y-14010000D02*
X6920000Y-14050000D01*
X6900000Y-14030000D02*
X6940000Y-14030000D01*
X6920000Y-14150000D02*
X6920000Y-14190000D01*
X6900000Y-14170000D02*
X6940000Y-14170000D01*
X6940000Y-14380000D02*
X6940000Y-14420000D01*
X6920000Y-14400000D02*
X6960000Y-14400000D01*
X7010000Y-12970000D02*
X7010000Y-13010000D01*
X6990000Y-12990000D02*
X7030000Y-12990000D01*
X7030000Y-12670000D02*
X7030000Y-12710000D01*
X7010000Y-12690000D02*
X7050000Y-12690000D01*
X7050000Y-11480000D02*
X7050000Y-11520000D01*
X7030000Y-11500000D02*
X7070000Y-11500000D01*
X7070000Y-12770000D02*
X7070000Y-12810000D01*
X7050000Y-12790000D02*
X7090000Y-12790000D01*
X7120000Y-13290000D02*
X7120000Y-13330000D01*
X7100000Y-13310000D02*
X7140000Y-13310000D01*
X7150000Y-12560000D02*
X7150000Y-12600000D01*
X7130000Y-12580000D02*
X7170000Y-12580000D01*
X7160000Y-11720000D02*
X7160000Y-11760000D01*
X7140000Y-11740000D02*
X7180000Y-11740000D01*
X7170000Y-11900000D02*
X7170000Y-11940000D01*
X7150000Y-11920000D02*
X7190000Y-11920000D01*
X7191927Y-12299305D02*
X7191927Y-12339305D01*
X7171927Y-12319305D02*
X7211927Y-12319305D01*
X7210000Y-14020000D02*
X7210000Y-14060000D01*
X7190000Y-14040000D02*
X7230000Y-14040000D01*
X7250000Y-13920000D02*
X7250000Y-13960000D01*
X7230000Y-13940000D02*
X7270000Y-13940000D01*
X7264164Y-12154930D02*
X7264164Y-12194930D01*
X7244164Y-12174930D02*
X7284164Y-12174930D01*
X7275350Y-13190000D02*
X7275350Y-13230000D01*
X7255350Y-13210000D02*
X7295350Y-13210000D01*
X7310000Y-11537450D02*
X7310000Y-11577450D01*
X7290000Y-11557450D02*
X7330000Y-11557450D01*
X7320000Y-14280000D02*
X7320000Y-14320000D01*
X7300000Y-14300000D02*
X7340000Y-14300000D01*
X7380000Y-14190000D02*
X7380000Y-14230000D01*
X7360000Y-14210000D02*
X7400000Y-14210000D01*
X7380000Y-14370000D02*
X7380000Y-14410000D01*
X7360000Y-14390000D02*
X7400000Y-14390000D01*
X7400000Y-12390000D02*
X7400000Y-12430000D01*
X7380000Y-12410000D02*
X7420000Y-12410000D01*
X7410000Y-13270000D02*
X7410000Y-13310000D01*
X7390000Y-13290000D02*
X7430000Y-13290000D01*
X7420000Y-13670000D02*
X7420000Y-13710000D01*
X7400000Y-13690000D02*
X7440000Y-13690000D01*
X7430000Y-12600000D02*
X7430000Y-12640000D01*
X7410000Y-12620000D02*
X7450000Y-12620000D01*
X7440000Y-10760000D02*
X7440000Y-10800000D01*
X7420000Y-10780000D02*
X7460000Y-10780000D01*
X7440000Y-14280000D02*
X7440000Y-14320000D01*
X7420000Y-14300000D02*
X7460000Y-14300000D01*
X7480000Y-13490000D02*
X7480000Y-13530000D01*
X7460000Y-13510000D02*
X7500000Y-13510000D01*
X7550000Y-13090000D02*
X7550000Y-13130000D01*
X7530000Y-13110000D02*
X7570000Y-13110000D01*
X7556610Y-11326610D02*
X7556610Y-11366610D01*
X7536610Y-11346610D02*
X7576610Y-11346610D01*
X7560000Y-12610000D02*
X7560000Y-12650000D01*
X7540000Y-12630000D02*
X7580000Y-12630000D01*
X7570000Y-13520000D02*
X7570000Y-13560000D01*
X7550000Y-13540000D02*
X7590000Y-13540000D01*
X7580000Y-12770000D02*
X7580000Y-12810000D01*
X7560000Y-12790000D02*
X7600000Y-12790000D01*
X7580000Y-14120000D02*
X7580000Y-14160000D01*
X7560000Y-14140000D02*
X7600000Y-14140000D01*
X7610000Y-14030000D02*
X7610000Y-14070000D01*
X7590000Y-14050000D02*
X7630000Y-14050000D01*
X7670000Y-14180000D02*
X7670000Y-14220000D01*
X7650000Y-14200000D02*
X7690000Y-14200000D01*
X7670000Y-14420000D02*
X7670000Y-14460000D01*
X7650000Y-14440000D02*
X7690000Y-14440000D01*
X7683222Y-12773222D02*
X7683222Y-12813222D01*
X7663222Y-12793222D02*
X7703222Y-12793222D01*
X7760000Y-12690000D02*
X7760000Y-12730000D01*
X7740000Y-12710000D02*
X7780000Y-12710000D01*
X7761778Y-12581778D02*
X7761778Y-12621778D01*
X7741778Y-12601778D02*
X7781778Y-12601778D01*
X7777089Y-14223596D02*
X7777089Y-14263596D01*
X7757089Y-14243596D02*
X7797089Y-14243596D01*
X7825623Y-14404377D02*
X7825623Y-14444377D01*
X7805623Y-14424377D02*
X7845623Y-14424377D01*
X7828718Y-11258718D02*
X7828718Y-11298718D01*
X7808718Y-11278718D02*
X7848718Y-11278718D01*
X7830000Y-10970000D02*
X7830000Y-11010000D01*
X7810000Y-10990000D02*
X7850000Y-10990000D01*
X7865000Y-14175000D02*
X7865000Y-14215000D01*
X7845000Y-14195000D02*
X7885000Y-14195000D01*
X7930000Y-10970000D02*
X7930000Y-11010000D01*
X7910000Y-10990000D02*
X7950000Y-10990000D01*
X7960000Y-15010000D02*
X7960000Y-15050000D01*
X7940000Y-15030000D02*
X7980000Y-15030000D01*
X7970000Y-11280000D02*
X7970000Y-11320000D01*
X7950000Y-11300000D02*
X7990000Y-11300000D01*
X8037450Y-14156558D02*
X8037450Y-14196558D01*
X8017450Y-14176558D02*
X8057450Y-14176558D01*
X8048000Y-11528000D02*
X8048000Y-11568000D01*
X8028000Y-11548000D02*
X8068000Y-11548000D01*
X8090000Y-14230000D02*
X8090000Y-14270000D01*
X8070000Y-14250000D02*
X8110000Y-14250000D01*
X8130000Y-11270000D02*
X8130000Y-11310000D01*
X8110000Y-11290000D02*
X8150000Y-11290000D01*
X8134800Y-12525946D02*
X8134800Y-12565946D01*
X8114800Y-12545946D02*
X8154800Y-12545946D01*
X8160000Y-12790000D02*
X8160000Y-12830000D01*
X8140000Y-12810000D02*
X8180000Y-12810000D01*
X8200000Y-12450000D02*
X8200000Y-12490000D01*
X8180000Y-12470000D02*
X8220000Y-12470000D01*
X8270000Y-14180000D02*
X8270000Y-14220000D01*
X8250000Y-14200000D02*
X8290000Y-14200000D01*
X8294377Y-11404377D02*
X8294377Y-11444377D01*
X8274377Y-11424377D02*
X8314377Y-11424377D01*
X8328094Y-12283857D02*
X8328094Y-12323857D01*
X8308094Y-12303857D02*
X8348094Y-12303857D01*
X8340000Y-11270000D02*
X8340000Y-11310000D01*
X8320000Y-11290000D02*
X8360000Y-11290000D01*
X8369572Y-12085400D02*
X8369572Y-12125400D01*
X8349572Y-12105400D02*
X8389572Y-12105400D01*
X8370000Y-15010000D02*
X8370000Y-15050000D01*
X8350000Y-15030000D02*
X8390000Y-15030000D01*
X8380000Y-14180000D02*
X8380000Y-14220000D01*
X8360000Y-14200000D02*
X8400000Y-14200000D01*
X8420679Y-12579321D02*
X8420679Y-12619321D01*
X8400679Y-12599321D02*
X8440679Y-12599321D01*
X8480000Y-11540000D02*
X8480000Y-11580000D01*
X8460000Y-11560000D02*
X8500000Y-11560000D01*
X8480000Y-14180000D02*
X8480000Y-14220000D01*
X8460000Y-14200000D02*
X8500000Y-14200000D01*
X8490679Y-13420679D02*
X8490679Y-13460679D01*
X8470679Y-13440679D02*
X8510679Y-13440679D01*
X8500000Y-12870000D02*
X8500000Y-12910000D01*
X8480000Y-12890000D02*
X8520000Y-12890000D01*
X8500000Y-15170000D02*
X8500000Y-15210000D01*
X8480000Y-15190000D02*
X8520000Y-15190000D01*
X8580000Y-14180000D02*
X8580000Y-14220000D01*
X8560000Y-14200000D02*
X8600000Y-14200000D01*
X8630000Y-13120000D02*
X8630000Y-13160000D01*
X8610000Y-13140000D02*
X8650000Y-13140000D01*
X8670000Y-14180000D02*
X8670000Y-14220000D01*
X8650000Y-14200000D02*
X8690000Y-14200000D01*
X8690000Y-10860000D02*
X8690000Y-10900000D01*
X8670000Y-10880000D02*
X8710000Y-10880000D01*
X8860000Y-13410000D02*
X8860000Y-13450000D01*
X8840000Y-13430000D02*
X8880000Y-13430000D01*
X8870000Y-12340000D02*
X8870000Y-12380000D01*
X8850000Y-12360000D02*
X8890000Y-12360000D01*
X8910000Y-11840000D02*
X8910000Y-11880000D01*
X8890000Y-11860000D02*
X8930000Y-11860000D01*
X8910000Y-11940000D02*
X8910000Y-11980000D01*
X8890000Y-11960000D02*
X8930000Y-11960000D01*
X8960000Y-12160000D02*
X8960000Y-12200000D01*
X8940000Y-12180000D02*
X8980000Y-12180000D01*
X9041620Y-14266265D02*
X9041620Y-14306265D01*
X9021620Y-14286265D02*
X9061620Y-14286265D01*
X9260000Y-12820000D02*
X9260000Y-12860000D01*
X9240000Y-12840000D02*
X9280000Y-12840000D01*
X9360300Y-14380000D02*
X9360300Y-14420000D01*
X9340300Y-14400000D02*
X9380300Y-14400000D01*
X9422500Y-12417500D02*
X9422500Y-12457500D01*
X9402500Y-12437500D02*
X9442500Y-12437500D01*
X9480000Y-12540000D02*
X9480000Y-12580000D01*
X9460000Y-12560000D02*
X9500000Y-12560000D01*
X9480000Y-13500000D02*
X9480000Y-13540000D01*
X9460000Y-13520000D02*
X9500000Y-13520000D01*
X9480000Y-14870000D02*
X9480000Y-14910000D01*
X9460000Y-14890000D02*
X9500000Y-14890000D01*
X9510000Y-11620000D02*
X9510000Y-11660000D01*
X9490000Y-11640000D02*
X9530000Y-11640000D01*
X9518526Y-12333179D02*
X9518526Y-12373179D01*
X9498526Y-12353179D02*
X9538526Y-12353179D01*
X9560000Y-12120000D02*
X9560000Y-12160000D01*
X9540000Y-12140000D02*
X9580000Y-12140000D01*
X9560000Y-13280000D02*
X9560000Y-13320000D01*
X9540000Y-13300000D02*
X9580000Y-13300000D01*
X9560000Y-14270000D02*
X9560000Y-14310000D01*
X9540000Y-14290000D02*
X9580000Y-14290000D01*
X9610000Y-11940000D02*
X9610000Y-11980000D01*
X9590000Y-11960000D02*
X9630000Y-11960000D01*
X9670000Y-12030000D02*
X9670000Y-12070000D01*
X9650000Y-12050000D02*
X9690000Y-12050000D01*
X9760000Y-12350000D02*
X9760000Y-12390000D01*
X9740000Y-12370000D02*
X9780000Y-12370000D01*
X9900000Y-12030000D02*
X9900000Y-12070000D01*
X9880000Y-12050000D02*
X9920000Y-12050000D01*
X9930000Y-13200000D02*
X9930000Y-13240000D01*
X9910000Y-13220000D02*
X9950000Y-13220000D01*
X10000000Y-11730000D02*
X10000000Y-11770000D01*
X9980000Y-11750000D02*
X10020000Y-11750000D01*
X10190000Y-12500000D02*
X10190000Y-12540000D01*
X10170000Y-12520000D02*
X10210000Y-12520000D01*
X10260000Y-11400000D02*
X10260000Y-11440000D01*
X10240000Y-11420000D02*
X10280000Y-11420000D01*
X10300000Y-11860000D02*
X10300000Y-11900000D01*
X10280000Y-11880000D02*
X10320000Y-11880000D01*
X10320000Y-12170000D02*
X10320000Y-12210000D01*
X10300000Y-12190000D02*
X10340000Y-12190000D01*
X10382500Y-11625500D02*
X10382500Y-11665500D01*
X10362500Y-11645500D02*
X10402500Y-11645500D01*
X10450000Y-12470000D02*
X10450000Y-12510000D01*
X10430000Y-12490000D02*
X10470000Y-12490000D01*
X10530000Y-11470000D02*
X10530000Y-11510000D01*
X10510000Y-11490000D02*
X10550000Y-11490000D01*
X10537038Y-12436481D02*
X10537038Y-12476481D01*
X10517038Y-12456481D02*
X10557038Y-12456481D01*
X10750000Y-11740000D02*
X10750000Y-11780000D01*
X10730000Y-11760000D02*
X10770000Y-11760000D01*
X10900000Y-11890000D02*
X10900000Y-11930000D01*
X10880000Y-11910000D02*
X10920000Y-11910000D01*
X10910000Y-12160000D02*
X10910000Y-12200000D01*
X10890000Y-12180000D02*
X10930000Y-12180000D01*
X10980000Y-13230000D02*
X10980000Y-13270000D01*
X10960000Y-13250000D02*
X11000000Y-13250000D01*
X11080000Y-13230000D02*
X11080000Y-13270000D01*
X11060000Y-13250000D02*
X11100000Y-13250000D01*
X11170000Y-14240000D02*
X11170000Y-14280000D01*
X11150000Y-14260000D02*
X11190000Y-14260000D01*
X11170000Y-14550000D02*
X11170000Y-14590000D01*
X11150000Y-14570000D02*
X11190000Y-14570000D01*
X11190000Y-13230000D02*
X11190000Y-13270000D01*
X11170000Y-13250000D02*
X11210000Y-13250000D01*
D15*
X4651446Y-15618946D02*
X4651446Y-15580054D01*
X4612554Y-15580054D01*
X4612554Y-15618946D01*
X4651446Y-15618946D01*
D11*
X4604500Y-15567000D02*
X4604500Y-15632000D01*
X4604500Y-15632000D02*
G75*
G03*
X4659500Y-15632000I27500J0D01*
G01*
X4659500Y-15632000D02*
X4659500Y-15567000D01*
X4659500Y-15567000D02*
G75*
G03*
X4604500Y-15567000I-27500J0D01*
G01*
D15*
X5426446Y-15618946D02*
X5426446Y-15580054D01*
X5387554Y-15580054D01*
X5387554Y-15618946D01*
X5426446Y-15618946D01*
D11*
X5379500Y-15567000D02*
X5379500Y-15632000D01*
X5379500Y-15632000D02*
G75*
G03*
X5434500Y-15632000I27500J0D01*
G01*
X5434500Y-15632000D02*
X5434500Y-15567000D01*
X5434500Y-15567000D02*
G75*
G03*
X5379500Y-15567000I-27500J0D01*
G01*
D16*
X4647000Y-15262000D02*
X4689500Y-15219500D01*
X4647000Y-15177000D01*
X4604500Y-15219500D01*
X4647000Y-15262000D01*
D11*
X4604500Y-15192000D02*
X4604500Y-15247000D01*
X4604500Y-15247000D02*
G75*
G03*
X4689500Y-15247000I42500J0D01*
G01*
X4689500Y-15247000D02*
X4689500Y-15192000D01*
X4689500Y-15192000D02*
G75*
G03*
X4604500Y-15192000I-42500J0D01*
G01*
D16*
X5392000Y-15262000D02*
X5434500Y-15219500D01*
X5392000Y-15177000D01*
X5349500Y-15219500D01*
X5392000Y-15262000D01*
D11*
X5349500Y-15192000D02*
X5349500Y-15247000D01*
X5349500Y-15247000D02*
G75*
G03*
X5434500Y-15247000I42500J0D01*
G01*
X5434500Y-15247000D02*
X5434500Y-15192000D01*
X5434500Y-15192000D02*
G75*
G03*
X5349500Y-15192000I-42500J0D01*
G01*
D17*
X9783000Y-13450700D02*
X9872000Y-13539700D01*
X9872000Y-13450700D02*
X9783000Y-13539700D01*
X9872000Y-13495200D02*
G75*
G03*
X9872000Y-13495200I-44500J0D01*
G01*
X9783000Y-13679700D02*
X9872000Y-13768700D01*
X9872000Y-13679700D02*
X9783000Y-13768700D01*
X9872000Y-13724200D02*
G75*
G03*
X9872000Y-13724200I-44500J0D01*
G01*
X9783000Y-14593700D02*
X9872000Y-14682700D01*
X9872000Y-14593700D02*
X9783000Y-14682700D01*
X9872000Y-14638200D02*
G75*
G03*
X9872000Y-14638200I-44500J0D01*
G01*
X9783000Y-14822700D02*
X9872000Y-14911700D01*
X9872000Y-14822700D02*
X9783000Y-14911700D01*
X9872000Y-14867200D02*
G75*
G03*
X9872000Y-14867200I-44500J0D01*
G01*
X10265000Y-13882300D02*
X10354000Y-13971300D01*
X10354000Y-13882300D02*
X10265000Y-13971300D01*
X10354000Y-13926800D02*
G75*
G03*
X10354000Y-13926800I-44500J0D01*
G01*
X10265000Y-14085500D02*
X10354000Y-14174500D01*
X10354000Y-14085500D02*
X10265000Y-14174500D01*
X10354000Y-14130000D02*
G75*
G03*
X10354000Y-14130000I-44500J0D01*
G01*
X10265000Y-14288700D02*
X10354000Y-14377700D01*
X10354000Y-14288700D02*
X10265000Y-14377700D01*
X10354000Y-14333200D02*
G75*
G03*
X10354000Y-14333200I-44500J0D01*
G01*
X10265000Y-14491900D02*
X10354000Y-14580900D01*
X10354000Y-14491900D02*
X10265000Y-14580900D01*
X10354000Y-14536400D02*
G75*
G03*
X10354000Y-14536400I-44500J0D01*
G01*
X10443000Y-13780700D02*
X10532000Y-13869700D01*
X10532000Y-13780700D02*
X10443000Y-13869700D01*
X10532000Y-13825200D02*
G75*
G03*
X10532000Y-13825200I-44500J0D01*
G01*
X10443000Y-13983900D02*
X10532000Y-14072900D01*
X10532000Y-13983900D02*
X10443000Y-14072900D01*
X10532000Y-14028400D02*
G75*
G03*
X10532000Y-14028400I-44500J0D01*
G01*
X10443000Y-14187100D02*
X10532000Y-14276100D01*
X10532000Y-14187100D02*
X10443000Y-14276100D01*
X10532000Y-14231600D02*
G75*
G03*
X10532000Y-14231600I-44500J0D01*
G01*
X10443000Y-14390300D02*
X10532000Y-14479300D01*
X10532000Y-14390300D02*
X10443000Y-14479300D01*
X10532000Y-14434800D02*
G75*
G03*
X10532000Y-14434800I-44500J0D01*
G01*
D10*
X8662000Y-14650000D02*
X8762000Y-14750000D01*
X8762000Y-14650000D02*
X8662000Y-14750000D01*
X8712000Y-14650000D02*
X8712000Y-14750000D01*
X8662000Y-14700000D02*
X8762000Y-14700000D01*
X8916000Y-14650000D02*
X9016000Y-14750000D01*
X9016000Y-14650000D02*
X8916000Y-14750000D01*
X8966000Y-14650000D02*
X8966000Y-14750000D01*
X8916000Y-14700000D02*
X9016000Y-14700000D01*
X9170000Y-14650000D02*
X9270000Y-14750000D01*
X9270000Y-14650000D02*
X9170000Y-14750000D01*
X9220000Y-14650000D02*
X9220000Y-14750000D01*
X9170000Y-14700000D02*
X9270000Y-14700000D01*
X9650000Y-12810000D02*
X9750000Y-12910000D01*
X9750000Y-12810000D02*
X9650000Y-12910000D01*
X9700000Y-12810000D02*
X9700000Y-12910000D01*
X9650000Y-12860000D02*
X9750000Y-12860000D01*
X9730000Y-10820000D02*
X9830000Y-10920000D01*
X9830000Y-10820000D02*
X9730000Y-10920000D01*
X9780000Y-10820000D02*
X9780000Y-10920000D01*
X9730000Y-10870000D02*
X9830000Y-10870000D01*
X9730000Y-11200000D02*
X9830000Y-11300000D01*
X9830000Y-11200000D02*
X9730000Y-11300000D01*
X9780000Y-11200000D02*
X9780000Y-11300000D01*
X9730000Y-11250000D02*
X9830000Y-11250000D01*
X9904000Y-12810000D02*
X10004000Y-12910000D01*
X10004000Y-12810000D02*
X9904000Y-12910000D01*
X9954000Y-12810000D02*
X9954000Y-12910000D01*
X9904000Y-12860000D02*
X10004000Y-12860000D01*
X9984000Y-10820000D02*
X10084000Y-10920000D01*
X10084000Y-10820000D02*
X9984000Y-10920000D01*
X10034000Y-10820000D02*
X10034000Y-10920000D01*
X9984000Y-10870000D02*
X10084000Y-10870000D01*
X9984000Y-11200000D02*
X10084000Y-11300000D01*
X10084000Y-11200000D02*
X9984000Y-11300000D01*
X10034000Y-11200000D02*
X10034000Y-11300000D01*
X9984000Y-11250000D02*
X10084000Y-11250000D01*
X10158000Y-12810000D02*
X10258000Y-12910000D01*
X10258000Y-12810000D02*
X10158000Y-12910000D01*
X10208000Y-12810000D02*
X10208000Y-12910000D01*
X10158000Y-12860000D02*
X10258000Y-12860000D01*
X10238000Y-10820000D02*
X10338000Y-10920000D01*
X10338000Y-10820000D02*
X10238000Y-10920000D01*
X10288000Y-10820000D02*
X10288000Y-10920000D01*
X10238000Y-10870000D02*
X10338000Y-10870000D01*
X10238000Y-11200000D02*
X10338000Y-11300000D01*
X10338000Y-11200000D02*
X10238000Y-11300000D01*
X10288000Y-11200000D02*
X10288000Y-11300000D01*
X10238000Y-11250000D02*
X10338000Y-11250000D01*
X10412000Y-12810000D02*
X10512000Y-12910000D01*
X10512000Y-12810000D02*
X10412000Y-12910000D01*
X10462000Y-12810000D02*
X10462000Y-12910000D01*
X10412000Y-12860000D02*
X10512000Y-12860000D01*
D18*
X5921200Y-11485600D02*
X6022800Y-11587200D01*
X6022800Y-11485600D02*
X5921200Y-11587200D01*
X6007921Y-11572321D02*
X6007921Y-11500479D01*
X5936079Y-11500479D01*
X5936079Y-11572321D01*
X6007921Y-11572321D01*
X5921200Y-11688800D02*
X6022800Y-11790400D01*
X6022800Y-11688800D02*
X5921200Y-11790400D01*
X6007921Y-11775521D02*
X6007921Y-11703679D01*
X5936079Y-11703679D01*
X5936079Y-11775521D01*
X6007921Y-11775521D01*
X5921200Y-11892000D02*
X6022800Y-11993600D01*
X6022800Y-11892000D02*
X5921200Y-11993600D01*
X6007921Y-11978721D02*
X6007921Y-11906879D01*
X5936079Y-11906879D01*
X5936079Y-11978721D01*
X6007921Y-11978721D01*
X5921200Y-12095200D02*
X6022800Y-12196800D01*
X6022800Y-12095200D02*
X5921200Y-12196800D01*
X6007921Y-12181921D02*
X6007921Y-12110079D01*
X5936079Y-12110079D01*
X5936079Y-12181921D01*
X6007921Y-12181921D01*
X5921200Y-12298400D02*
X6022800Y-12400000D01*
X6022800Y-12298400D02*
X5921200Y-12400000D01*
X6007921Y-12385121D02*
X6007921Y-12313279D01*
X5936079Y-12313279D01*
X5936079Y-12385121D01*
X6007921Y-12385121D01*
X5921200Y-12501600D02*
X6022800Y-12603200D01*
X6022800Y-12501600D02*
X5921200Y-12603200D01*
X6007921Y-12588321D02*
X6007921Y-12516479D01*
X5936079Y-12516479D01*
X5936079Y-12588321D01*
X6007921Y-12588321D01*
X6175200Y-11384000D02*
X6276800Y-11485600D01*
X6276800Y-11384000D02*
X6175200Y-11485600D01*
X6261921Y-11470721D02*
X6261921Y-11398879D01*
X6190079Y-11398879D01*
X6190079Y-11470721D01*
X6261921Y-11470721D01*
X6175200Y-11587200D02*
X6276800Y-11688800D01*
X6276800Y-11587200D02*
X6175200Y-11688800D01*
X6261921Y-11673921D02*
X6261921Y-11602079D01*
X6190079Y-11602079D01*
X6190079Y-11673921D01*
X6261921Y-11673921D01*
X6175200Y-11790400D02*
X6276800Y-11892000D01*
X6276800Y-11790400D02*
X6175200Y-11892000D01*
X6261921Y-11877121D02*
X6261921Y-11805279D01*
X6190079Y-11805279D01*
X6190079Y-11877121D01*
X6261921Y-11877121D01*
X6175200Y-12196800D02*
X6276800Y-12298400D01*
X6276800Y-12196800D02*
X6175200Y-12298400D01*
X6261921Y-12283521D02*
X6261921Y-12211679D01*
X6190079Y-12211679D01*
X6190079Y-12283521D01*
X6261921Y-12283521D01*
X6175200Y-12400000D02*
X6276800Y-12501600D01*
X6276800Y-12400000D02*
X6175200Y-12501600D01*
X6261921Y-12486721D02*
X6261921Y-12414879D01*
X6190079Y-12414879D01*
X6190079Y-12486721D01*
X6261921Y-12486721D01*
X6175200Y-12603200D02*
X6276800Y-12704800D01*
X6276800Y-12603200D02*
X6175200Y-12704800D01*
X6261921Y-12689921D02*
X6261921Y-12618079D01*
X6190079Y-12618079D01*
X6190079Y-12689921D01*
X6261921Y-12689921D01*
D19*
X6422500Y-11377300D02*
X6537500Y-11492300D01*
X6537500Y-11377300D02*
X6422500Y-11492300D01*
X6480000Y-11492300D02*
X6537500Y-11434800D01*
X6480000Y-11377300D01*
X6422500Y-11434800D01*
X6480000Y-11492300D01*
X6422500Y-11631300D02*
X6537500Y-11746300D01*
X6537500Y-11631300D02*
X6422500Y-11746300D01*
X6480000Y-11746300D02*
X6537500Y-11688800D01*
X6480000Y-11631300D01*
X6422500Y-11688800D01*
X6480000Y-11746300D01*
X6422500Y-12342500D02*
X6537500Y-12457500D01*
X6537500Y-12342500D02*
X6422500Y-12457500D01*
X6480000Y-12457500D02*
X6537500Y-12400000D01*
X6480000Y-12342500D01*
X6422500Y-12400000D01*
X6480000Y-12457500D01*
X6422500Y-12596500D02*
X6537500Y-12711500D01*
X6537500Y-12596500D02*
X6422500Y-12711500D01*
X6480000Y-12711500D02*
X6537500Y-12654000D01*
X6480000Y-12596500D01*
X6422500Y-12654000D01*
X6480000Y-12711500D01*
D20*
X10398500Y-13289700D02*
X10398500Y-13446700D01*
X10320000Y-13368200D02*
X10477000Y-13368200D01*
X10477000Y-13368200D02*
G75*
G03*
X10477000Y-13368200I-78500J0D01*
G01*
X10398500Y-14915700D02*
X10398500Y-15072700D01*
X10320000Y-14994200D02*
X10477000Y-14994200D01*
X10477000Y-14994200D02*
G75*
G03*
X10477000Y-14994200I-78500J0D01*
G01*
D21*
X4186178Y-11293628D02*
X4186178Y-11182272D01*
X4074822Y-11182272D01*
X4074822Y-11293628D01*
X4186178Y-11293628D01*
X4209240Y-11237950D02*
G75*
G03*
X4209240Y-11237950I-78740J0D01*
G01*
X4186178Y-12906528D02*
X4186178Y-12795172D01*
X4074822Y-12795172D01*
X4074822Y-12906528D01*
X4186178Y-12906528D01*
X4209240Y-12850850D02*
G75*
G03*
X4209240Y-12850850I-78740J0D01*
G01*
D22*
X3900000Y-10810000D02*
X4010000Y-10700000D01*
X3900000Y-10590000D01*
X3790000Y-10700000D01*
X3900000Y-10810000D01*
X4010000Y-10700000D02*
G75*
G03*
X4010000Y-10700000I-110000J0D01*
G01*
X3900000Y-15610000D02*
X4010000Y-15500000D01*
X3900000Y-15390000D01*
X3790000Y-15500000D01*
X3900000Y-15610000D01*
X4010000Y-15500000D02*
G75*
G03*
X4010000Y-15500000I-110000J0D01*
G01*
X10900000Y-10810000D02*
X11010000Y-10700000D01*
X10900000Y-10590000D01*
X10790000Y-10700000D01*
X10900000Y-10810000D01*
X11010000Y-10700000D02*
G75*
G03*
X11010000Y-10700000I-110000J0D01*
G01*
X10900000Y-15610000D02*
X11010000Y-15500000D01*
X10900000Y-15390000D01*
X10790000Y-15500000D01*
X10900000Y-15610000D01*
X11010000Y-15500000D02*
G75*
G03*
X11010000Y-15500000I-110000J0D01*
G01*
D11*
X3582619Y-16137524D02*
X3582619Y-15937524D01*
X3582619Y-15937524D02*
X3630238Y-15937524D01*
X3630238Y-15937524D02*
X3658809Y-15947048D01*
X3658809Y-15947048D02*
X3677857Y-15966095D01*
X3677857Y-15966095D02*
X3687381Y-15985143D01*
X3687381Y-15985143D02*
X3696905Y-16023238D01*
X3696905Y-16023238D02*
X3696905Y-16051809D01*
X3696905Y-16051809D02*
X3687381Y-16089905D01*
X3687381Y-16089905D02*
X3677857Y-16108952D01*
X3677857Y-16108952D02*
X3658809Y-16128000D01*
X3658809Y-16128000D02*
X3630238Y-16137524D01*
X3630238Y-16137524D02*
X3582619Y-16137524D01*
X3782619Y-16137524D02*
X3782619Y-16004190D01*
X3782619Y-16042286D02*
X3792143Y-16023238D01*
X3792143Y-16023238D02*
X3801667Y-16013714D01*
X3801667Y-16013714D02*
X3820714Y-16004190D01*
X3820714Y-16004190D02*
X3839762Y-16004190D01*
X3906428Y-16137524D02*
X3906428Y-16004190D01*
X3906428Y-15937524D02*
X3896905Y-15947048D01*
X3896905Y-15947048D02*
X3906428Y-15956571D01*
X3906428Y-15956571D02*
X3915952Y-15947048D01*
X3915952Y-15947048D02*
X3906428Y-15937524D01*
X3906428Y-15937524D02*
X3906428Y-15956571D01*
X4030238Y-16137524D02*
X4011190Y-16128000D01*
X4011190Y-16128000D02*
X4001667Y-16108952D01*
X4001667Y-16108952D02*
X4001667Y-15937524D01*
X4135000Y-16137524D02*
X4115952Y-16128000D01*
X4115952Y-16128000D02*
X4106428Y-16108952D01*
X4106428Y-16108952D02*
X4106428Y-15937524D01*
X4363571Y-16137524D02*
X4363571Y-15937524D01*
X4363571Y-15937524D02*
X4430238Y-16080381D01*
X4430238Y-16080381D02*
X4496905Y-15937524D01*
X4496905Y-15937524D02*
X4496905Y-16137524D01*
X4677857Y-16137524D02*
X4677857Y-16032762D01*
X4677857Y-16032762D02*
X4668333Y-16013714D01*
X4668333Y-16013714D02*
X4649286Y-16004190D01*
X4649286Y-16004190D02*
X4611190Y-16004190D01*
X4611190Y-16004190D02*
X4592143Y-16013714D01*
X4677857Y-16128000D02*
X4658810Y-16137524D01*
X4658810Y-16137524D02*
X4611190Y-16137524D01*
X4611190Y-16137524D02*
X4592143Y-16128000D01*
X4592143Y-16128000D02*
X4582619Y-16108952D01*
X4582619Y-16108952D02*
X4582619Y-16089905D01*
X4582619Y-16089905D02*
X4592143Y-16070857D01*
X4592143Y-16070857D02*
X4611190Y-16061333D01*
X4611190Y-16061333D02*
X4658810Y-16061333D01*
X4658810Y-16061333D02*
X4677857Y-16051809D01*
X4773095Y-16004190D02*
X4773095Y-16204190D01*
X4773095Y-16013714D02*
X4792143Y-16004190D01*
X4792143Y-16004190D02*
X4830238Y-16004190D01*
X4830238Y-16004190D02*
X4849286Y-16013714D01*
X4849286Y-16013714D02*
X4858810Y-16023238D01*
X4858810Y-16023238D02*
X4868333Y-16042286D01*
X4868333Y-16042286D02*
X4868333Y-16099428D01*
X4868333Y-16099428D02*
X4858810Y-16118476D01*
X4858810Y-16118476D02*
X4849286Y-16128000D01*
X4849286Y-16128000D02*
X4830238Y-16137524D01*
X4830238Y-16137524D02*
X4792143Y-16137524D01*
X4792143Y-16137524D02*
X4773095Y-16128000D01*
X4954048Y-16118476D02*
X4963571Y-16128000D01*
X4963571Y-16128000D02*
X4954048Y-16137524D01*
X4954048Y-16137524D02*
X4944524Y-16128000D01*
X4944524Y-16128000D02*
X4954048Y-16118476D01*
X4954048Y-16118476D02*
X4954048Y-16137524D01*
X4954048Y-16013714D02*
X4963571Y-16023238D01*
X4963571Y-16023238D02*
X4954048Y-16032762D01*
X4954048Y-16032762D02*
X4944524Y-16023238D01*
X4944524Y-16023238D02*
X4954048Y-16013714D01*
X4954048Y-16013714D02*
X4954048Y-16032762D01*
D12*
X3305000Y-16450000D02*
X3335000Y-16480000D01*
X3335000Y-16450000D02*
X3305000Y-16480000D01*
D11*
X3620714Y-16357524D02*
X3639762Y-16357524D01*
X3639762Y-16357524D02*
X3658809Y-16367048D01*
X3658809Y-16367048D02*
X3668333Y-16376571D01*
X3668333Y-16376571D02*
X3677857Y-16395619D01*
X3677857Y-16395619D02*
X3687381Y-16433714D01*
X3687381Y-16433714D02*
X3687381Y-16481333D01*
X3687381Y-16481333D02*
X3677857Y-16519428D01*
X3677857Y-16519428D02*
X3668333Y-16538476D01*
X3668333Y-16538476D02*
X3658809Y-16548000D01*
X3658809Y-16548000D02*
X3639762Y-16557524D01*
X3639762Y-16557524D02*
X3620714Y-16557524D01*
X3620714Y-16557524D02*
X3601667Y-16548000D01*
X3601667Y-16548000D02*
X3592143Y-16538476D01*
X3592143Y-16538476D02*
X3582619Y-16519428D01*
X3582619Y-16519428D02*
X3573095Y-16481333D01*
X3573095Y-16481333D02*
X3573095Y-16433714D01*
X3573095Y-16433714D02*
X3582619Y-16395619D01*
X3582619Y-16395619D02*
X3592143Y-16376571D01*
X3592143Y-16376571D02*
X3601667Y-16367048D01*
X3601667Y-16367048D02*
X3620714Y-16357524D01*
X3773095Y-16538476D02*
X3782619Y-16548000D01*
X3782619Y-16548000D02*
X3773095Y-16557524D01*
X3773095Y-16557524D02*
X3763571Y-16548000D01*
X3763571Y-16548000D02*
X3773095Y-16538476D01*
X3773095Y-16538476D02*
X3773095Y-16557524D01*
X3849286Y-16357524D02*
X3973095Y-16357524D01*
X3973095Y-16357524D02*
X3906428Y-16433714D01*
X3906428Y-16433714D02*
X3935000Y-16433714D01*
X3935000Y-16433714D02*
X3954048Y-16443238D01*
X3954048Y-16443238D02*
X3963571Y-16452762D01*
X3963571Y-16452762D02*
X3973095Y-16471809D01*
X3973095Y-16471809D02*
X3973095Y-16519428D01*
X3973095Y-16519428D02*
X3963571Y-16538476D01*
X3963571Y-16538476D02*
X3954048Y-16548000D01*
X3954048Y-16548000D02*
X3935000Y-16557524D01*
X3935000Y-16557524D02*
X3877857Y-16557524D01*
X3877857Y-16557524D02*
X3858809Y-16548000D01*
X3858809Y-16548000D02*
X3849286Y-16538476D01*
X4096905Y-16357524D02*
X4115952Y-16357524D01*
X4115952Y-16357524D02*
X4135000Y-16367048D01*
X4135000Y-16367048D02*
X4144524Y-16376571D01*
X4144524Y-16376571D02*
X4154048Y-16395619D01*
X4154048Y-16395619D02*
X4163571Y-16433714D01*
X4163571Y-16433714D02*
X4163571Y-16481333D01*
X4163571Y-16481333D02*
X4154048Y-16519428D01*
X4154048Y-16519428D02*
X4144524Y-16538476D01*
X4144524Y-16538476D02*
X4135000Y-16548000D01*
X4135000Y-16548000D02*
X4115952Y-16557524D01*
X4115952Y-16557524D02*
X4096905Y-16557524D01*
X4096905Y-16557524D02*
X4077857Y-16548000D01*
X4077857Y-16548000D02*
X4068333Y-16538476D01*
X4068333Y-16538476D02*
X4058809Y-16519428D01*
X4058809Y-16519428D02*
X4049286Y-16481333D01*
X4049286Y-16481333D02*
X4049286Y-16433714D01*
X4049286Y-16433714D02*
X4058809Y-16395619D01*
X4058809Y-16395619D02*
X4068333Y-16376571D01*
X4068333Y-16376571D02*
X4077857Y-16367048D01*
X4077857Y-16367048D02*
X4096905Y-16357524D01*
X4287381Y-16357524D02*
X4306429Y-16357524D01*
X4306429Y-16357524D02*
X4325476Y-16367048D01*
X4325476Y-16367048D02*
X4335000Y-16376571D01*
X4335000Y-16376571D02*
X4344524Y-16395619D01*
X4344524Y-16395619D02*
X4354048Y-16433714D01*
X4354048Y-16433714D02*
X4354048Y-16481333D01*
X4354048Y-16481333D02*
X4344524Y-16519428D01*
X4344524Y-16519428D02*
X4335000Y-16538476D01*
X4335000Y-16538476D02*
X4325476Y-16548000D01*
X4325476Y-16548000D02*
X4306429Y-16557524D01*
X4306429Y-16557524D02*
X4287381Y-16557524D01*
X4287381Y-16557524D02*
X4268333Y-16548000D01*
X4268333Y-16548000D02*
X4258810Y-16538476D01*
X4258810Y-16538476D02*
X4249286Y-16519428D01*
X4249286Y-16519428D02*
X4239762Y-16481333D01*
X4239762Y-16481333D02*
X4239762Y-16433714D01*
X4239762Y-16433714D02*
X4249286Y-16395619D01*
X4249286Y-16395619D02*
X4258810Y-16376571D01*
X4258810Y-16376571D02*
X4268333Y-16367048D01*
X4268333Y-16367048D02*
X4287381Y-16357524D01*
X4439762Y-16557524D02*
X4439762Y-16424190D01*
X4439762Y-16443238D02*
X4449286Y-16433714D01*
X4449286Y-16433714D02*
X4468333Y-16424190D01*
X4468333Y-16424190D02*
X4496905Y-16424190D01*
X4496905Y-16424190D02*
X4515952Y-16433714D01*
X4515952Y-16433714D02*
X4525476Y-16452762D01*
X4525476Y-16452762D02*
X4525476Y-16557524D01*
X4525476Y-16452762D02*
X4535000Y-16433714D01*
X4535000Y-16433714D02*
X4554048Y-16424190D01*
X4554048Y-16424190D02*
X4582619Y-16424190D01*
X4582619Y-16424190D02*
X4601667Y-16433714D01*
X4601667Y-16433714D02*
X4611191Y-16452762D01*
X4611191Y-16452762D02*
X4611191Y-16557524D01*
X4706429Y-16557524D02*
X4706429Y-16424190D01*
X4706429Y-16443238D02*
X4715952Y-16433714D01*
X4715952Y-16433714D02*
X4735000Y-16424190D01*
X4735000Y-16424190D02*
X4763572Y-16424190D01*
X4763572Y-16424190D02*
X4782619Y-16433714D01*
X4782619Y-16433714D02*
X4792143Y-16452762D01*
X4792143Y-16452762D02*
X4792143Y-16557524D01*
X4792143Y-16452762D02*
X4801667Y-16433714D01*
X4801667Y-16433714D02*
X4820714Y-16424190D01*
X4820714Y-16424190D02*
X4849286Y-16424190D01*
X4849286Y-16424190D02*
X4868333Y-16433714D01*
X4868333Y-16433714D02*
X4877857Y-16452762D01*
X4877857Y-16452762D02*
X4877857Y-16557524D01*
X5268333Y-16348000D02*
X5096905Y-16605143D01*
X5525476Y-16357524D02*
X5544524Y-16357524D01*
X5544524Y-16357524D02*
X5563572Y-16367048D01*
X5563572Y-16367048D02*
X5573095Y-16376571D01*
X5573095Y-16376571D02*
X5582619Y-16395619D01*
X5582619Y-16395619D02*
X5592143Y-16433714D01*
X5592143Y-16433714D02*
X5592143Y-16481333D01*
X5592143Y-16481333D02*
X5582619Y-16519428D01*
X5582619Y-16519428D02*
X5573095Y-16538476D01*
X5573095Y-16538476D02*
X5563572Y-16548000D01*
X5563572Y-16548000D02*
X5544524Y-16557524D01*
X5544524Y-16557524D02*
X5525476Y-16557524D01*
X5525476Y-16557524D02*
X5506429Y-16548000D01*
X5506429Y-16548000D02*
X5496905Y-16538476D01*
X5496905Y-16538476D02*
X5487381Y-16519428D01*
X5487381Y-16519428D02*
X5477857Y-16481333D01*
X5477857Y-16481333D02*
X5477857Y-16433714D01*
X5477857Y-16433714D02*
X5487381Y-16395619D01*
X5487381Y-16395619D02*
X5496905Y-16376571D01*
X5496905Y-16376571D02*
X5506429Y-16367048D01*
X5506429Y-16367048D02*
X5525476Y-16357524D01*
X5677857Y-16538476D02*
X5687381Y-16548000D01*
X5687381Y-16548000D02*
X5677857Y-16557524D01*
X5677857Y-16557524D02*
X5668333Y-16548000D01*
X5668333Y-16548000D02*
X5677857Y-16538476D01*
X5677857Y-16538476D02*
X5677857Y-16557524D01*
X5811191Y-16357524D02*
X5830238Y-16357524D01*
X5830238Y-16357524D02*
X5849286Y-16367048D01*
X5849286Y-16367048D02*
X5858810Y-16376571D01*
X5858810Y-16376571D02*
X5868333Y-16395619D01*
X5868333Y-16395619D02*
X5877857Y-16433714D01*
X5877857Y-16433714D02*
X5877857Y-16481333D01*
X5877857Y-16481333D02*
X5868333Y-16519428D01*
X5868333Y-16519428D02*
X5858810Y-16538476D01*
X5858810Y-16538476D02*
X5849286Y-16548000D01*
X5849286Y-16548000D02*
X5830238Y-16557524D01*
X5830238Y-16557524D02*
X5811191Y-16557524D01*
X5811191Y-16557524D02*
X5792143Y-16548000D01*
X5792143Y-16548000D02*
X5782619Y-16538476D01*
X5782619Y-16538476D02*
X5773095Y-16519428D01*
X5773095Y-16519428D02*
X5763572Y-16481333D01*
X5763572Y-16481333D02*
X5763572Y-16433714D01*
X5763572Y-16433714D02*
X5773095Y-16395619D01*
X5773095Y-16395619D02*
X5782619Y-16376571D01*
X5782619Y-16376571D02*
X5792143Y-16367048D01*
X5792143Y-16367048D02*
X5811191Y-16357524D01*
X6068333Y-16557524D02*
X5954048Y-16557524D01*
X6011191Y-16557524D02*
X6011191Y-16357524D01*
X6011191Y-16357524D02*
X5992143Y-16386095D01*
X5992143Y-16386095D02*
X5973095Y-16405143D01*
X5973095Y-16405143D02*
X5954048Y-16414667D01*
X6258810Y-16557524D02*
X6144524Y-16557524D01*
X6201667Y-16557524D02*
X6201667Y-16357524D01*
X6201667Y-16357524D02*
X6182619Y-16386095D01*
X6182619Y-16386095D02*
X6163572Y-16405143D01*
X6163572Y-16405143D02*
X6144524Y-16414667D01*
X6373095Y-16443238D02*
X6354048Y-16433714D01*
X6354048Y-16433714D02*
X6344524Y-16424190D01*
X6344524Y-16424190D02*
X6335000Y-16405143D01*
X6335000Y-16405143D02*
X6335000Y-16395619D01*
X6335000Y-16395619D02*
X6344524Y-16376571D01*
X6344524Y-16376571D02*
X6354048Y-16367048D01*
X6354048Y-16367048D02*
X6373095Y-16357524D01*
X6373095Y-16357524D02*
X6411191Y-16357524D01*
X6411191Y-16357524D02*
X6430238Y-16367048D01*
X6430238Y-16367048D02*
X6439762Y-16376571D01*
X6439762Y-16376571D02*
X6449286Y-16395619D01*
X6449286Y-16395619D02*
X6449286Y-16405143D01*
X6449286Y-16405143D02*
X6439762Y-16424190D01*
X6439762Y-16424190D02*
X6430238Y-16433714D01*
X6430238Y-16433714D02*
X6411191Y-16443238D01*
X6411191Y-16443238D02*
X6373095Y-16443238D01*
X6373095Y-16443238D02*
X6354048Y-16452762D01*
X6354048Y-16452762D02*
X6344524Y-16462286D01*
X6344524Y-16462286D02*
X6335000Y-16481333D01*
X6335000Y-16481333D02*
X6335000Y-16519428D01*
X6335000Y-16519428D02*
X6344524Y-16538476D01*
X6344524Y-16538476D02*
X6354048Y-16548000D01*
X6354048Y-16548000D02*
X6373095Y-16557524D01*
X6373095Y-16557524D02*
X6411191Y-16557524D01*
X6411191Y-16557524D02*
X6430238Y-16548000D01*
X6430238Y-16548000D02*
X6439762Y-16538476D01*
X6439762Y-16538476D02*
X6449286Y-16519428D01*
X6449286Y-16519428D02*
X6449286Y-16481333D01*
X6449286Y-16481333D02*
X6439762Y-16462286D01*
X6439762Y-16462286D02*
X6430238Y-16452762D01*
X6430238Y-16452762D02*
X6411191Y-16443238D01*
X6525476Y-16357524D02*
X6525476Y-16395619D01*
X6601667Y-16357524D02*
X6601667Y-16395619D01*
X6896905Y-16633714D02*
X6887381Y-16624190D01*
X6887381Y-16624190D02*
X6868334Y-16595619D01*
X6868334Y-16595619D02*
X6858810Y-16576571D01*
X6858810Y-16576571D02*
X6849286Y-16548000D01*
X6849286Y-16548000D02*
X6839762Y-16500381D01*
X6839762Y-16500381D02*
X6839762Y-16462286D01*
X6839762Y-16462286D02*
X6849286Y-16414667D01*
X6849286Y-16414667D02*
X6858810Y-16386095D01*
X6858810Y-16386095D02*
X6868334Y-16367048D01*
X6868334Y-16367048D02*
X6887381Y-16338476D01*
X6887381Y-16338476D02*
X6896905Y-16328952D01*
X6963572Y-16376571D02*
X6973095Y-16367048D01*
X6973095Y-16367048D02*
X6992143Y-16357524D01*
X6992143Y-16357524D02*
X7039762Y-16357524D01*
X7039762Y-16357524D02*
X7058810Y-16367048D01*
X7058810Y-16367048D02*
X7068334Y-16376571D01*
X7068334Y-16376571D02*
X7077857Y-16395619D01*
X7077857Y-16395619D02*
X7077857Y-16414667D01*
X7077857Y-16414667D02*
X7068334Y-16443238D01*
X7068334Y-16443238D02*
X6954048Y-16557524D01*
X6954048Y-16557524D02*
X7077857Y-16557524D01*
X7154048Y-16376571D02*
X7163572Y-16367048D01*
X7163572Y-16367048D02*
X7182619Y-16357524D01*
X7182619Y-16357524D02*
X7230238Y-16357524D01*
X7230238Y-16357524D02*
X7249286Y-16367048D01*
X7249286Y-16367048D02*
X7258810Y-16376571D01*
X7258810Y-16376571D02*
X7268334Y-16395619D01*
X7268334Y-16395619D02*
X7268334Y-16414667D01*
X7268334Y-16414667D02*
X7258810Y-16443238D01*
X7258810Y-16443238D02*
X7144524Y-16557524D01*
X7144524Y-16557524D02*
X7268334Y-16557524D01*
X7506429Y-16557524D02*
X7506429Y-16357524D01*
X7592143Y-16557524D02*
X7592143Y-16452762D01*
X7592143Y-16452762D02*
X7582619Y-16433714D01*
X7582619Y-16433714D02*
X7563572Y-16424190D01*
X7563572Y-16424190D02*
X7535000Y-16424190D01*
X7535000Y-16424190D02*
X7515953Y-16433714D01*
X7515953Y-16433714D02*
X7506429Y-16443238D01*
X7715953Y-16557524D02*
X7696905Y-16548000D01*
X7696905Y-16548000D02*
X7687381Y-16538476D01*
X7687381Y-16538476D02*
X7677857Y-16519428D01*
X7677857Y-16519428D02*
X7677857Y-16462286D01*
X7677857Y-16462286D02*
X7687381Y-16443238D01*
X7687381Y-16443238D02*
X7696905Y-16433714D01*
X7696905Y-16433714D02*
X7715953Y-16424190D01*
X7715953Y-16424190D02*
X7744524Y-16424190D01*
X7744524Y-16424190D02*
X7763572Y-16433714D01*
X7763572Y-16433714D02*
X7773096Y-16443238D01*
X7773096Y-16443238D02*
X7782619Y-16462286D01*
X7782619Y-16462286D02*
X7782619Y-16519428D01*
X7782619Y-16519428D02*
X7773096Y-16538476D01*
X7773096Y-16538476D02*
X7763572Y-16548000D01*
X7763572Y-16548000D02*
X7744524Y-16557524D01*
X7744524Y-16557524D02*
X7715953Y-16557524D01*
X7896905Y-16557524D02*
X7877857Y-16548000D01*
X7877857Y-16548000D02*
X7868334Y-16528952D01*
X7868334Y-16528952D02*
X7868334Y-16357524D01*
X8049286Y-16548000D02*
X8030238Y-16557524D01*
X8030238Y-16557524D02*
X7992143Y-16557524D01*
X7992143Y-16557524D02*
X7973096Y-16548000D01*
X7973096Y-16548000D02*
X7963572Y-16528952D01*
X7963572Y-16528952D02*
X7963572Y-16452762D01*
X7963572Y-16452762D02*
X7973096Y-16433714D01*
X7973096Y-16433714D02*
X7992143Y-16424190D01*
X7992143Y-16424190D02*
X8030238Y-16424190D01*
X8030238Y-16424190D02*
X8049286Y-16433714D01*
X8049286Y-16433714D02*
X8058810Y-16452762D01*
X8058810Y-16452762D02*
X8058810Y-16471809D01*
X8058810Y-16471809D02*
X7963572Y-16490857D01*
X8135000Y-16548000D02*
X8154048Y-16557524D01*
X8154048Y-16557524D02*
X8192143Y-16557524D01*
X8192143Y-16557524D02*
X8211191Y-16548000D01*
X8211191Y-16548000D02*
X8220715Y-16528952D01*
X8220715Y-16528952D02*
X8220715Y-16519428D01*
X8220715Y-16519428D02*
X8211191Y-16500381D01*
X8211191Y-16500381D02*
X8192143Y-16490857D01*
X8192143Y-16490857D02*
X8163572Y-16490857D01*
X8163572Y-16490857D02*
X8144524Y-16481333D01*
X8144524Y-16481333D02*
X8135000Y-16462286D01*
X8135000Y-16462286D02*
X8135000Y-16452762D01*
X8135000Y-16452762D02*
X8144524Y-16433714D01*
X8144524Y-16433714D02*
X8163572Y-16424190D01*
X8163572Y-16424190D02*
X8192143Y-16424190D01*
X8192143Y-16424190D02*
X8211191Y-16433714D01*
X8287381Y-16633714D02*
X8296905Y-16624190D01*
X8296905Y-16624190D02*
X8315953Y-16595619D01*
X8315953Y-16595619D02*
X8325477Y-16576571D01*
X8325477Y-16576571D02*
X8335000Y-16548000D01*
X8335000Y-16548000D02*
X8344524Y-16500381D01*
X8344524Y-16500381D02*
X8344524Y-16462286D01*
X8344524Y-16462286D02*
X8335000Y-16414667D01*
X8335000Y-16414667D02*
X8325477Y-16386095D01*
X8325477Y-16386095D02*
X8315953Y-16367048D01*
X8315953Y-16367048D02*
X8296905Y-16338476D01*
X8296905Y-16338476D02*
X8287381Y-16328952D01*
D13*
X3335000Y-16729000D02*
G75*
G03*
X3335000Y-16729000I-17500J0D01*
G01*
D11*
X3620714Y-16621524D02*
X3639762Y-16621524D01*
X3639762Y-16621524D02*
X3658809Y-16631048D01*
X3658809Y-16631048D02*
X3668333Y-16640571D01*
X3668333Y-16640571D02*
X3677857Y-16659619D01*
X3677857Y-16659619D02*
X3687381Y-16697714D01*
X3687381Y-16697714D02*
X3687381Y-16745333D01*
X3687381Y-16745333D02*
X3677857Y-16783429D01*
X3677857Y-16783429D02*
X3668333Y-16802476D01*
X3668333Y-16802476D02*
X3658809Y-16812000D01*
X3658809Y-16812000D02*
X3639762Y-16821524D01*
X3639762Y-16821524D02*
X3620714Y-16821524D01*
X3620714Y-16821524D02*
X3601667Y-16812000D01*
X3601667Y-16812000D02*
X3592143Y-16802476D01*
X3592143Y-16802476D02*
X3582619Y-16783429D01*
X3582619Y-16783429D02*
X3573095Y-16745333D01*
X3573095Y-16745333D02*
X3573095Y-16697714D01*
X3573095Y-16697714D02*
X3582619Y-16659619D01*
X3582619Y-16659619D02*
X3592143Y-16640571D01*
X3592143Y-16640571D02*
X3601667Y-16631048D01*
X3601667Y-16631048D02*
X3620714Y-16621524D01*
X3773095Y-16802476D02*
X3782619Y-16812000D01*
X3782619Y-16812000D02*
X3773095Y-16821524D01*
X3773095Y-16821524D02*
X3763571Y-16812000D01*
X3763571Y-16812000D02*
X3773095Y-16802476D01*
X3773095Y-16802476D02*
X3773095Y-16821524D01*
X3849286Y-16621524D02*
X3973095Y-16621524D01*
X3973095Y-16621524D02*
X3906428Y-16697714D01*
X3906428Y-16697714D02*
X3935000Y-16697714D01*
X3935000Y-16697714D02*
X3954048Y-16707238D01*
X3954048Y-16707238D02*
X3963571Y-16716762D01*
X3963571Y-16716762D02*
X3973095Y-16735809D01*
X3973095Y-16735809D02*
X3973095Y-16783429D01*
X3973095Y-16783429D02*
X3963571Y-16802476D01*
X3963571Y-16802476D02*
X3954048Y-16812000D01*
X3954048Y-16812000D02*
X3935000Y-16821524D01*
X3935000Y-16821524D02*
X3877857Y-16821524D01*
X3877857Y-16821524D02*
X3858809Y-16812000D01*
X3858809Y-16812000D02*
X3849286Y-16802476D01*
X4154048Y-16621524D02*
X4058809Y-16621524D01*
X4058809Y-16621524D02*
X4049286Y-16716762D01*
X4049286Y-16716762D02*
X4058809Y-16707238D01*
X4058809Y-16707238D02*
X4077857Y-16697714D01*
X4077857Y-16697714D02*
X4125476Y-16697714D01*
X4125476Y-16697714D02*
X4144524Y-16707238D01*
X4144524Y-16707238D02*
X4154048Y-16716762D01*
X4154048Y-16716762D02*
X4163571Y-16735809D01*
X4163571Y-16735809D02*
X4163571Y-16783429D01*
X4163571Y-16783429D02*
X4154048Y-16802476D01*
X4154048Y-16802476D02*
X4144524Y-16812000D01*
X4144524Y-16812000D02*
X4125476Y-16821524D01*
X4125476Y-16821524D02*
X4077857Y-16821524D01*
X4077857Y-16821524D02*
X4058809Y-16812000D01*
X4058809Y-16812000D02*
X4049286Y-16802476D01*
X4287381Y-16621524D02*
X4306429Y-16621524D01*
X4306429Y-16621524D02*
X4325476Y-16631048D01*
X4325476Y-16631048D02*
X4335000Y-16640571D01*
X4335000Y-16640571D02*
X4344524Y-16659619D01*
X4344524Y-16659619D02*
X4354048Y-16697714D01*
X4354048Y-16697714D02*
X4354048Y-16745333D01*
X4354048Y-16745333D02*
X4344524Y-16783429D01*
X4344524Y-16783429D02*
X4335000Y-16802476D01*
X4335000Y-16802476D02*
X4325476Y-16812000D01*
X4325476Y-16812000D02*
X4306429Y-16821524D01*
X4306429Y-16821524D02*
X4287381Y-16821524D01*
X4287381Y-16821524D02*
X4268333Y-16812000D01*
X4268333Y-16812000D02*
X4258810Y-16802476D01*
X4258810Y-16802476D02*
X4249286Y-16783429D01*
X4249286Y-16783429D02*
X4239762Y-16745333D01*
X4239762Y-16745333D02*
X4239762Y-16697714D01*
X4239762Y-16697714D02*
X4249286Y-16659619D01*
X4249286Y-16659619D02*
X4258810Y-16640571D01*
X4258810Y-16640571D02*
X4268333Y-16631048D01*
X4268333Y-16631048D02*
X4287381Y-16621524D01*
X4439762Y-16821524D02*
X4439762Y-16688190D01*
X4439762Y-16707238D02*
X4449286Y-16697714D01*
X4449286Y-16697714D02*
X4468333Y-16688190D01*
X4468333Y-16688190D02*
X4496905Y-16688190D01*
X4496905Y-16688190D02*
X4515952Y-16697714D01*
X4515952Y-16697714D02*
X4525476Y-16716762D01*
X4525476Y-16716762D02*
X4525476Y-16821524D01*
X4525476Y-16716762D02*
X4535000Y-16697714D01*
X4535000Y-16697714D02*
X4554048Y-16688190D01*
X4554048Y-16688190D02*
X4582619Y-16688190D01*
X4582619Y-16688190D02*
X4601667Y-16697714D01*
X4601667Y-16697714D02*
X4611191Y-16716762D01*
X4611191Y-16716762D02*
X4611191Y-16821524D01*
X4706429Y-16821524D02*
X4706429Y-16688190D01*
X4706429Y-16707238D02*
X4715952Y-16697714D01*
X4715952Y-16697714D02*
X4735000Y-16688190D01*
X4735000Y-16688190D02*
X4763572Y-16688190D01*
X4763572Y-16688190D02*
X4782619Y-16697714D01*
X4782619Y-16697714D02*
X4792143Y-16716762D01*
X4792143Y-16716762D02*
X4792143Y-16821524D01*
X4792143Y-16716762D02*
X4801667Y-16697714D01*
X4801667Y-16697714D02*
X4820714Y-16688190D01*
X4820714Y-16688190D02*
X4849286Y-16688190D01*
X4849286Y-16688190D02*
X4868333Y-16697714D01*
X4868333Y-16697714D02*
X4877857Y-16716762D01*
X4877857Y-16716762D02*
X4877857Y-16821524D01*
X5268333Y-16612000D02*
X5096905Y-16869143D01*
X5525476Y-16621524D02*
X5544524Y-16621524D01*
X5544524Y-16621524D02*
X5563572Y-16631048D01*
X5563572Y-16631048D02*
X5573095Y-16640571D01*
X5573095Y-16640571D02*
X5582619Y-16659619D01*
X5582619Y-16659619D02*
X5592143Y-16697714D01*
X5592143Y-16697714D02*
X5592143Y-16745333D01*
X5592143Y-16745333D02*
X5582619Y-16783429D01*
X5582619Y-16783429D02*
X5573095Y-16802476D01*
X5573095Y-16802476D02*
X5563572Y-16812000D01*
X5563572Y-16812000D02*
X5544524Y-16821524D01*
X5544524Y-16821524D02*
X5525476Y-16821524D01*
X5525476Y-16821524D02*
X5506429Y-16812000D01*
X5506429Y-16812000D02*
X5496905Y-16802476D01*
X5496905Y-16802476D02*
X5487381Y-16783429D01*
X5487381Y-16783429D02*
X5477857Y-16745333D01*
X5477857Y-16745333D02*
X5477857Y-16697714D01*
X5477857Y-16697714D02*
X5487381Y-16659619D01*
X5487381Y-16659619D02*
X5496905Y-16640571D01*
X5496905Y-16640571D02*
X5506429Y-16631048D01*
X5506429Y-16631048D02*
X5525476Y-16621524D01*
X5677857Y-16802476D02*
X5687381Y-16812000D01*
X5687381Y-16812000D02*
X5677857Y-16821524D01*
X5677857Y-16821524D02*
X5668333Y-16812000D01*
X5668333Y-16812000D02*
X5677857Y-16802476D01*
X5677857Y-16802476D02*
X5677857Y-16821524D01*
X5811191Y-16621524D02*
X5830238Y-16621524D01*
X5830238Y-16621524D02*
X5849286Y-16631048D01*
X5849286Y-16631048D02*
X5858810Y-16640571D01*
X5858810Y-16640571D02*
X5868333Y-16659619D01*
X5868333Y-16659619D02*
X5877857Y-16697714D01*
X5877857Y-16697714D02*
X5877857Y-16745333D01*
X5877857Y-16745333D02*
X5868333Y-16783429D01*
X5868333Y-16783429D02*
X5858810Y-16802476D01*
X5858810Y-16802476D02*
X5849286Y-16812000D01*
X5849286Y-16812000D02*
X5830238Y-16821524D01*
X5830238Y-16821524D02*
X5811191Y-16821524D01*
X5811191Y-16821524D02*
X5792143Y-16812000D01*
X5792143Y-16812000D02*
X5782619Y-16802476D01*
X5782619Y-16802476D02*
X5773095Y-16783429D01*
X5773095Y-16783429D02*
X5763572Y-16745333D01*
X5763572Y-16745333D02*
X5763572Y-16697714D01*
X5763572Y-16697714D02*
X5773095Y-16659619D01*
X5773095Y-16659619D02*
X5782619Y-16640571D01*
X5782619Y-16640571D02*
X5792143Y-16631048D01*
X5792143Y-16631048D02*
X5811191Y-16621524D01*
X6068333Y-16821524D02*
X5954048Y-16821524D01*
X6011191Y-16821524D02*
X6011191Y-16621524D01*
X6011191Y-16621524D02*
X5992143Y-16650095D01*
X5992143Y-16650095D02*
X5973095Y-16669143D01*
X5973095Y-16669143D02*
X5954048Y-16678667D01*
X6135000Y-16621524D02*
X6258810Y-16621524D01*
X6258810Y-16621524D02*
X6192143Y-16697714D01*
X6192143Y-16697714D02*
X6220714Y-16697714D01*
X6220714Y-16697714D02*
X6239762Y-16707238D01*
X6239762Y-16707238D02*
X6249286Y-16716762D01*
X6249286Y-16716762D02*
X6258810Y-16735809D01*
X6258810Y-16735809D02*
X6258810Y-16783429D01*
X6258810Y-16783429D02*
X6249286Y-16802476D01*
X6249286Y-16802476D02*
X6239762Y-16812000D01*
X6239762Y-16812000D02*
X6220714Y-16821524D01*
X6220714Y-16821524D02*
X6163572Y-16821524D01*
X6163572Y-16821524D02*
X6144524Y-16812000D01*
X6144524Y-16812000D02*
X6135000Y-16802476D01*
X6373095Y-16707238D02*
X6354048Y-16697714D01*
X6354048Y-16697714D02*
X6344524Y-16688190D01*
X6344524Y-16688190D02*
X6335000Y-16669143D01*
X6335000Y-16669143D02*
X6335000Y-16659619D01*
X6335000Y-16659619D02*
X6344524Y-16640571D01*
X6344524Y-16640571D02*
X6354048Y-16631048D01*
X6354048Y-16631048D02*
X6373095Y-16621524D01*
X6373095Y-16621524D02*
X6411191Y-16621524D01*
X6411191Y-16621524D02*
X6430238Y-16631048D01*
X6430238Y-16631048D02*
X6439762Y-16640571D01*
X6439762Y-16640571D02*
X6449286Y-16659619D01*
X6449286Y-16659619D02*
X6449286Y-16669143D01*
X6449286Y-16669143D02*
X6439762Y-16688190D01*
X6439762Y-16688190D02*
X6430238Y-16697714D01*
X6430238Y-16697714D02*
X6411191Y-16707238D01*
X6411191Y-16707238D02*
X6373095Y-16707238D01*
X6373095Y-16707238D02*
X6354048Y-16716762D01*
X6354048Y-16716762D02*
X6344524Y-16726286D01*
X6344524Y-16726286D02*
X6335000Y-16745333D01*
X6335000Y-16745333D02*
X6335000Y-16783429D01*
X6335000Y-16783429D02*
X6344524Y-16802476D01*
X6344524Y-16802476D02*
X6354048Y-16812000D01*
X6354048Y-16812000D02*
X6373095Y-16821524D01*
X6373095Y-16821524D02*
X6411191Y-16821524D01*
X6411191Y-16821524D02*
X6430238Y-16812000D01*
X6430238Y-16812000D02*
X6439762Y-16802476D01*
X6439762Y-16802476D02*
X6449286Y-16783429D01*
X6449286Y-16783429D02*
X6449286Y-16745333D01*
X6449286Y-16745333D02*
X6439762Y-16726286D01*
X6439762Y-16726286D02*
X6430238Y-16716762D01*
X6430238Y-16716762D02*
X6411191Y-16707238D01*
X6525476Y-16621524D02*
X6525476Y-16659619D01*
X6601667Y-16621524D02*
X6601667Y-16659619D01*
X6896905Y-16897714D02*
X6887381Y-16888190D01*
X6887381Y-16888190D02*
X6868334Y-16859619D01*
X6868334Y-16859619D02*
X6858810Y-16840571D01*
X6858810Y-16840571D02*
X6849286Y-16812000D01*
X6849286Y-16812000D02*
X6839762Y-16764381D01*
X6839762Y-16764381D02*
X6839762Y-16726286D01*
X6839762Y-16726286D02*
X6849286Y-16678667D01*
X6849286Y-16678667D02*
X6858810Y-16650095D01*
X6858810Y-16650095D02*
X6868334Y-16631048D01*
X6868334Y-16631048D02*
X6887381Y-16602476D01*
X6887381Y-16602476D02*
X6896905Y-16592952D01*
X6963572Y-16640571D02*
X6973095Y-16631048D01*
X6973095Y-16631048D02*
X6992143Y-16621524D01*
X6992143Y-16621524D02*
X7039762Y-16621524D01*
X7039762Y-16621524D02*
X7058810Y-16631048D01*
X7058810Y-16631048D02*
X7068334Y-16640571D01*
X7068334Y-16640571D02*
X7077857Y-16659619D01*
X7077857Y-16659619D02*
X7077857Y-16678667D01*
X7077857Y-16678667D02*
X7068334Y-16707238D01*
X7068334Y-16707238D02*
X6954048Y-16821524D01*
X6954048Y-16821524D02*
X7077857Y-16821524D01*
X7201667Y-16621524D02*
X7220715Y-16621524D01*
X7220715Y-16621524D02*
X7239762Y-16631048D01*
X7239762Y-16631048D02*
X7249286Y-16640571D01*
X7249286Y-16640571D02*
X7258810Y-16659619D01*
X7258810Y-16659619D02*
X7268334Y-16697714D01*
X7268334Y-16697714D02*
X7268334Y-16745333D01*
X7268334Y-16745333D02*
X7258810Y-16783429D01*
X7258810Y-16783429D02*
X7249286Y-16802476D01*
X7249286Y-16802476D02*
X7239762Y-16812000D01*
X7239762Y-16812000D02*
X7220715Y-16821524D01*
X7220715Y-16821524D02*
X7201667Y-16821524D01*
X7201667Y-16821524D02*
X7182619Y-16812000D01*
X7182619Y-16812000D02*
X7173095Y-16802476D01*
X7173095Y-16802476D02*
X7163572Y-16783429D01*
X7163572Y-16783429D02*
X7154048Y-16745333D01*
X7154048Y-16745333D02*
X7154048Y-16697714D01*
X7154048Y-16697714D02*
X7163572Y-16659619D01*
X7163572Y-16659619D02*
X7173095Y-16640571D01*
X7173095Y-16640571D02*
X7182619Y-16631048D01*
X7182619Y-16631048D02*
X7201667Y-16621524D01*
X7506429Y-16821524D02*
X7506429Y-16621524D01*
X7592143Y-16821524D02*
X7592143Y-16716762D01*
X7592143Y-16716762D02*
X7582619Y-16697714D01*
X7582619Y-16697714D02*
X7563572Y-16688190D01*
X7563572Y-16688190D02*
X7535000Y-16688190D01*
X7535000Y-16688190D02*
X7515953Y-16697714D01*
X7515953Y-16697714D02*
X7506429Y-16707238D01*
X7715953Y-16821524D02*
X7696905Y-16812000D01*
X7696905Y-16812000D02*
X7687381Y-16802476D01*
X7687381Y-16802476D02*
X7677857Y-16783429D01*
X7677857Y-16783429D02*
X7677857Y-16726286D01*
X7677857Y-16726286D02*
X7687381Y-16707238D01*
X7687381Y-16707238D02*
X7696905Y-16697714D01*
X7696905Y-16697714D02*
X7715953Y-16688190D01*
X7715953Y-16688190D02*
X7744524Y-16688190D01*
X7744524Y-16688190D02*
X7763572Y-16697714D01*
X7763572Y-16697714D02*
X7773096Y-16707238D01*
X7773096Y-16707238D02*
X7782619Y-16726286D01*
X7782619Y-16726286D02*
X7782619Y-16783429D01*
X7782619Y-16783429D02*
X7773096Y-16802476D01*
X7773096Y-16802476D02*
X7763572Y-16812000D01*
X7763572Y-16812000D02*
X7744524Y-16821524D01*
X7744524Y-16821524D02*
X7715953Y-16821524D01*
X7896905Y-16821524D02*
X7877857Y-16812000D01*
X7877857Y-16812000D02*
X7868334Y-16792952D01*
X7868334Y-16792952D02*
X7868334Y-16621524D01*
X8049286Y-16812000D02*
X8030238Y-16821524D01*
X8030238Y-16821524D02*
X7992143Y-16821524D01*
X7992143Y-16821524D02*
X7973096Y-16812000D01*
X7973096Y-16812000D02*
X7963572Y-16792952D01*
X7963572Y-16792952D02*
X7963572Y-16716762D01*
X7963572Y-16716762D02*
X7973096Y-16697714D01*
X7973096Y-16697714D02*
X7992143Y-16688190D01*
X7992143Y-16688190D02*
X8030238Y-16688190D01*
X8030238Y-16688190D02*
X8049286Y-16697714D01*
X8049286Y-16697714D02*
X8058810Y-16716762D01*
X8058810Y-16716762D02*
X8058810Y-16735809D01*
X8058810Y-16735809D02*
X7963572Y-16754857D01*
X8135000Y-16812000D02*
X8154048Y-16821524D01*
X8154048Y-16821524D02*
X8192143Y-16821524D01*
X8192143Y-16821524D02*
X8211191Y-16812000D01*
X8211191Y-16812000D02*
X8220715Y-16792952D01*
X8220715Y-16792952D02*
X8220715Y-16783429D01*
X8220715Y-16783429D02*
X8211191Y-16764381D01*
X8211191Y-16764381D02*
X8192143Y-16754857D01*
X8192143Y-16754857D02*
X8163572Y-16754857D01*
X8163572Y-16754857D02*
X8144524Y-16745333D01*
X8144524Y-16745333D02*
X8135000Y-16726286D01*
X8135000Y-16726286D02*
X8135000Y-16716762D01*
X8135000Y-16716762D02*
X8144524Y-16697714D01*
X8144524Y-16697714D02*
X8163572Y-16688190D01*
X8163572Y-16688190D02*
X8192143Y-16688190D01*
X8192143Y-16688190D02*
X8211191Y-16697714D01*
X8287381Y-16897714D02*
X8296905Y-16888190D01*
X8296905Y-16888190D02*
X8315953Y-16859619D01*
X8315953Y-16859619D02*
X8325477Y-16840571D01*
X8325477Y-16840571D02*
X8335000Y-16812000D01*
X8335000Y-16812000D02*
X8344524Y-16764381D01*
X8344524Y-16764381D02*
X8344524Y-16726286D01*
X8344524Y-16726286D02*
X8335000Y-16678667D01*
X8335000Y-16678667D02*
X8325477Y-16650095D01*
X8325477Y-16650095D02*
X8315953Y-16631048D01*
X8315953Y-16631048D02*
X8296905Y-16602476D01*
X8296905Y-16602476D02*
X8287381Y-16592952D01*
D14*
X3315000Y-16973000D02*
X3315000Y-17013000D01*
X3295000Y-16993000D02*
X3335000Y-16993000D01*
D11*
X3620714Y-16885524D02*
X3639762Y-16885524D01*
X3639762Y-16885524D02*
X3658809Y-16895048D01*
X3658809Y-16895048D02*
X3668333Y-16904571D01*
X3668333Y-16904571D02*
X3677857Y-16923619D01*
X3677857Y-16923619D02*
X3687381Y-16961714D01*
X3687381Y-16961714D02*
X3687381Y-17009333D01*
X3687381Y-17009333D02*
X3677857Y-17047429D01*
X3677857Y-17047429D02*
X3668333Y-17066476D01*
X3668333Y-17066476D02*
X3658809Y-17076000D01*
X3658809Y-17076000D02*
X3639762Y-17085524D01*
X3639762Y-17085524D02*
X3620714Y-17085524D01*
X3620714Y-17085524D02*
X3601667Y-17076000D01*
X3601667Y-17076000D02*
X3592143Y-17066476D01*
X3592143Y-17066476D02*
X3582619Y-17047429D01*
X3582619Y-17047429D02*
X3573095Y-17009333D01*
X3573095Y-17009333D02*
X3573095Y-16961714D01*
X3573095Y-16961714D02*
X3582619Y-16923619D01*
X3582619Y-16923619D02*
X3592143Y-16904571D01*
X3592143Y-16904571D02*
X3601667Y-16895048D01*
X3601667Y-16895048D02*
X3620714Y-16885524D01*
X3773095Y-17066476D02*
X3782619Y-17076000D01*
X3782619Y-17076000D02*
X3773095Y-17085524D01*
X3773095Y-17085524D02*
X3763571Y-17076000D01*
X3763571Y-17076000D02*
X3773095Y-17066476D01*
X3773095Y-17066476D02*
X3773095Y-17085524D01*
X3954048Y-16952190D02*
X3954048Y-17085524D01*
X3906428Y-16876000D02*
X3858809Y-17018857D01*
X3858809Y-17018857D02*
X3982619Y-17018857D01*
X4096905Y-16885524D02*
X4115952Y-16885524D01*
X4115952Y-16885524D02*
X4135000Y-16895048D01*
X4135000Y-16895048D02*
X4144524Y-16904571D01*
X4144524Y-16904571D02*
X4154048Y-16923619D01*
X4154048Y-16923619D02*
X4163571Y-16961714D01*
X4163571Y-16961714D02*
X4163571Y-17009333D01*
X4163571Y-17009333D02*
X4154048Y-17047429D01*
X4154048Y-17047429D02*
X4144524Y-17066476D01*
X4144524Y-17066476D02*
X4135000Y-17076000D01*
X4135000Y-17076000D02*
X4115952Y-17085524D01*
X4115952Y-17085524D02*
X4096905Y-17085524D01*
X4096905Y-17085524D02*
X4077857Y-17076000D01*
X4077857Y-17076000D02*
X4068333Y-17066476D01*
X4068333Y-17066476D02*
X4058809Y-17047429D01*
X4058809Y-17047429D02*
X4049286Y-17009333D01*
X4049286Y-17009333D02*
X4049286Y-16961714D01*
X4049286Y-16961714D02*
X4058809Y-16923619D01*
X4058809Y-16923619D02*
X4068333Y-16904571D01*
X4068333Y-16904571D02*
X4077857Y-16895048D01*
X4077857Y-16895048D02*
X4096905Y-16885524D01*
X4287381Y-16885524D02*
X4306429Y-16885524D01*
X4306429Y-16885524D02*
X4325476Y-16895048D01*
X4325476Y-16895048D02*
X4335000Y-16904571D01*
X4335000Y-16904571D02*
X4344524Y-16923619D01*
X4344524Y-16923619D02*
X4354048Y-16961714D01*
X4354048Y-16961714D02*
X4354048Y-17009333D01*
X4354048Y-17009333D02*
X4344524Y-17047429D01*
X4344524Y-17047429D02*
X4335000Y-17066476D01*
X4335000Y-17066476D02*
X4325476Y-17076000D01*
X4325476Y-17076000D02*
X4306429Y-17085524D01*
X4306429Y-17085524D02*
X4287381Y-17085524D01*
X4287381Y-17085524D02*
X4268333Y-17076000D01*
X4268333Y-17076000D02*
X4258810Y-17066476D01*
X4258810Y-17066476D02*
X4249286Y-17047429D01*
X4249286Y-17047429D02*
X4239762Y-17009333D01*
X4239762Y-17009333D02*
X4239762Y-16961714D01*
X4239762Y-16961714D02*
X4249286Y-16923619D01*
X4249286Y-16923619D02*
X4258810Y-16904571D01*
X4258810Y-16904571D02*
X4268333Y-16895048D01*
X4268333Y-16895048D02*
X4287381Y-16885524D01*
X4439762Y-17085524D02*
X4439762Y-16952190D01*
X4439762Y-16971238D02*
X4449286Y-16961714D01*
X4449286Y-16961714D02*
X4468333Y-16952190D01*
X4468333Y-16952190D02*
X4496905Y-16952190D01*
X4496905Y-16952190D02*
X4515952Y-16961714D01*
X4515952Y-16961714D02*
X4525476Y-16980762D01*
X4525476Y-16980762D02*
X4525476Y-17085524D01*
X4525476Y-16980762D02*
X4535000Y-16961714D01*
X4535000Y-16961714D02*
X4554048Y-16952190D01*
X4554048Y-16952190D02*
X4582619Y-16952190D01*
X4582619Y-16952190D02*
X4601667Y-16961714D01*
X4601667Y-16961714D02*
X4611191Y-16980762D01*
X4611191Y-16980762D02*
X4611191Y-17085524D01*
X4706429Y-17085524D02*
X4706429Y-16952190D01*
X4706429Y-16971238D02*
X4715952Y-16961714D01*
X4715952Y-16961714D02*
X4735000Y-16952190D01*
X4735000Y-16952190D02*
X4763572Y-16952190D01*
X4763572Y-16952190D02*
X4782619Y-16961714D01*
X4782619Y-16961714D02*
X4792143Y-16980762D01*
X4792143Y-16980762D02*
X4792143Y-17085524D01*
X4792143Y-16980762D02*
X4801667Y-16961714D01*
X4801667Y-16961714D02*
X4820714Y-16952190D01*
X4820714Y-16952190D02*
X4849286Y-16952190D01*
X4849286Y-16952190D02*
X4868333Y-16961714D01*
X4868333Y-16961714D02*
X4877857Y-16980762D01*
X4877857Y-16980762D02*
X4877857Y-17085524D01*
X5268333Y-16876000D02*
X5096905Y-17133143D01*
X5525476Y-16885524D02*
X5544524Y-16885524D01*
X5544524Y-16885524D02*
X5563572Y-16895048D01*
X5563572Y-16895048D02*
X5573095Y-16904571D01*
X5573095Y-16904571D02*
X5582619Y-16923619D01*
X5582619Y-16923619D02*
X5592143Y-16961714D01*
X5592143Y-16961714D02*
X5592143Y-17009333D01*
X5592143Y-17009333D02*
X5582619Y-17047429D01*
X5582619Y-17047429D02*
X5573095Y-17066476D01*
X5573095Y-17066476D02*
X5563572Y-17076000D01*
X5563572Y-17076000D02*
X5544524Y-17085524D01*
X5544524Y-17085524D02*
X5525476Y-17085524D01*
X5525476Y-17085524D02*
X5506429Y-17076000D01*
X5506429Y-17076000D02*
X5496905Y-17066476D01*
X5496905Y-17066476D02*
X5487381Y-17047429D01*
X5487381Y-17047429D02*
X5477857Y-17009333D01*
X5477857Y-17009333D02*
X5477857Y-16961714D01*
X5477857Y-16961714D02*
X5487381Y-16923619D01*
X5487381Y-16923619D02*
X5496905Y-16904571D01*
X5496905Y-16904571D02*
X5506429Y-16895048D01*
X5506429Y-16895048D02*
X5525476Y-16885524D01*
X5677857Y-17066476D02*
X5687381Y-17076000D01*
X5687381Y-17076000D02*
X5677857Y-17085524D01*
X5677857Y-17085524D02*
X5668333Y-17076000D01*
X5668333Y-17076000D02*
X5677857Y-17066476D01*
X5677857Y-17066476D02*
X5677857Y-17085524D01*
X5811191Y-16885524D02*
X5830238Y-16885524D01*
X5830238Y-16885524D02*
X5849286Y-16895048D01*
X5849286Y-16895048D02*
X5858810Y-16904571D01*
X5858810Y-16904571D02*
X5868333Y-16923619D01*
X5868333Y-16923619D02*
X5877857Y-16961714D01*
X5877857Y-16961714D02*
X5877857Y-17009333D01*
X5877857Y-17009333D02*
X5868333Y-17047429D01*
X5868333Y-17047429D02*
X5858810Y-17066476D01*
X5858810Y-17066476D02*
X5849286Y-17076000D01*
X5849286Y-17076000D02*
X5830238Y-17085524D01*
X5830238Y-17085524D02*
X5811191Y-17085524D01*
X5811191Y-17085524D02*
X5792143Y-17076000D01*
X5792143Y-17076000D02*
X5782619Y-17066476D01*
X5782619Y-17066476D02*
X5773095Y-17047429D01*
X5773095Y-17047429D02*
X5763572Y-17009333D01*
X5763572Y-17009333D02*
X5763572Y-16961714D01*
X5763572Y-16961714D02*
X5773095Y-16923619D01*
X5773095Y-16923619D02*
X5782619Y-16904571D01*
X5782619Y-16904571D02*
X5792143Y-16895048D01*
X5792143Y-16895048D02*
X5811191Y-16885524D01*
X6068333Y-17085524D02*
X5954048Y-17085524D01*
X6011191Y-17085524D02*
X6011191Y-16885524D01*
X6011191Y-16885524D02*
X5992143Y-16914095D01*
X5992143Y-16914095D02*
X5973095Y-16933143D01*
X5973095Y-16933143D02*
X5954048Y-16942667D01*
X6249286Y-16885524D02*
X6154048Y-16885524D01*
X6154048Y-16885524D02*
X6144524Y-16980762D01*
X6144524Y-16980762D02*
X6154048Y-16971238D01*
X6154048Y-16971238D02*
X6173095Y-16961714D01*
X6173095Y-16961714D02*
X6220714Y-16961714D01*
X6220714Y-16961714D02*
X6239762Y-16971238D01*
X6239762Y-16971238D02*
X6249286Y-16980762D01*
X6249286Y-16980762D02*
X6258810Y-16999810D01*
X6258810Y-16999810D02*
X6258810Y-17047429D01*
X6258810Y-17047429D02*
X6249286Y-17066476D01*
X6249286Y-17066476D02*
X6239762Y-17076000D01*
X6239762Y-17076000D02*
X6220714Y-17085524D01*
X6220714Y-17085524D02*
X6173095Y-17085524D01*
X6173095Y-17085524D02*
X6154048Y-17076000D01*
X6154048Y-17076000D02*
X6144524Y-17066476D01*
X6325476Y-16885524D02*
X6458810Y-16885524D01*
X6458810Y-16885524D02*
X6373095Y-17085524D01*
X6525476Y-16885524D02*
X6525476Y-16923619D01*
X6601667Y-16885524D02*
X6601667Y-16923619D01*
X6896905Y-17161714D02*
X6887381Y-17152190D01*
X6887381Y-17152190D02*
X6868334Y-17123619D01*
X6868334Y-17123619D02*
X6858810Y-17104571D01*
X6858810Y-17104571D02*
X6849286Y-17076000D01*
X6849286Y-17076000D02*
X6839762Y-17028381D01*
X6839762Y-17028381D02*
X6839762Y-16990286D01*
X6839762Y-16990286D02*
X6849286Y-16942667D01*
X6849286Y-16942667D02*
X6858810Y-16914095D01*
X6858810Y-16914095D02*
X6868334Y-16895048D01*
X6868334Y-16895048D02*
X6887381Y-16866476D01*
X6887381Y-16866476D02*
X6896905Y-16856952D01*
X7077857Y-17085524D02*
X6963572Y-17085524D01*
X7020714Y-17085524D02*
X7020714Y-16885524D01*
X7020714Y-16885524D02*
X7001667Y-16914095D01*
X7001667Y-16914095D02*
X6982619Y-16933143D01*
X6982619Y-16933143D02*
X6963572Y-16942667D01*
X7258810Y-16885524D02*
X7163572Y-16885524D01*
X7163572Y-16885524D02*
X7154048Y-16980762D01*
X7154048Y-16980762D02*
X7163572Y-16971238D01*
X7163572Y-16971238D02*
X7182619Y-16961714D01*
X7182619Y-16961714D02*
X7230238Y-16961714D01*
X7230238Y-16961714D02*
X7249286Y-16971238D01*
X7249286Y-16971238D02*
X7258810Y-16980762D01*
X7258810Y-16980762D02*
X7268334Y-16999810D01*
X7268334Y-16999810D02*
X7268334Y-17047429D01*
X7268334Y-17047429D02*
X7258810Y-17066476D01*
X7258810Y-17066476D02*
X7249286Y-17076000D01*
X7249286Y-17076000D02*
X7230238Y-17085524D01*
X7230238Y-17085524D02*
X7182619Y-17085524D01*
X7182619Y-17085524D02*
X7163572Y-17076000D01*
X7163572Y-17076000D02*
X7154048Y-17066476D01*
X7449286Y-16885524D02*
X7354048Y-16885524D01*
X7354048Y-16885524D02*
X7344524Y-16980762D01*
X7344524Y-16980762D02*
X7354048Y-16971238D01*
X7354048Y-16971238D02*
X7373095Y-16961714D01*
X7373095Y-16961714D02*
X7420715Y-16961714D01*
X7420715Y-16961714D02*
X7439762Y-16971238D01*
X7439762Y-16971238D02*
X7449286Y-16980762D01*
X7449286Y-16980762D02*
X7458810Y-16999810D01*
X7458810Y-16999810D02*
X7458810Y-17047429D01*
X7458810Y-17047429D02*
X7449286Y-17066476D01*
X7449286Y-17066476D02*
X7439762Y-17076000D01*
X7439762Y-17076000D02*
X7420715Y-17085524D01*
X7420715Y-17085524D02*
X7373095Y-17085524D01*
X7373095Y-17085524D02*
X7354048Y-17076000D01*
X7354048Y-17076000D02*
X7344524Y-17066476D01*
X7696905Y-17085524D02*
X7696905Y-16885524D01*
X7782619Y-17085524D02*
X7782619Y-16980762D01*
X7782619Y-16980762D02*
X7773096Y-16961714D01*
X7773096Y-16961714D02*
X7754048Y-16952190D01*
X7754048Y-16952190D02*
X7725476Y-16952190D01*
X7725476Y-16952190D02*
X7706429Y-16961714D01*
X7706429Y-16961714D02*
X7696905Y-16971238D01*
X7906429Y-17085524D02*
X7887381Y-17076000D01*
X7887381Y-17076000D02*
X7877857Y-17066476D01*
X7877857Y-17066476D02*
X7868334Y-17047429D01*
X7868334Y-17047429D02*
X7868334Y-16990286D01*
X7868334Y-16990286D02*
X7877857Y-16971238D01*
X7877857Y-16971238D02*
X7887381Y-16961714D01*
X7887381Y-16961714D02*
X7906429Y-16952190D01*
X7906429Y-16952190D02*
X7935000Y-16952190D01*
X7935000Y-16952190D02*
X7954048Y-16961714D01*
X7954048Y-16961714D02*
X7963572Y-16971238D01*
X7963572Y-16971238D02*
X7973096Y-16990286D01*
X7973096Y-16990286D02*
X7973096Y-17047429D01*
X7973096Y-17047429D02*
X7963572Y-17066476D01*
X7963572Y-17066476D02*
X7954048Y-17076000D01*
X7954048Y-17076000D02*
X7935000Y-17085524D01*
X7935000Y-17085524D02*
X7906429Y-17085524D01*
X8087381Y-17085524D02*
X8068334Y-17076000D01*
X8068334Y-17076000D02*
X8058810Y-17056952D01*
X8058810Y-17056952D02*
X8058810Y-16885524D01*
X8239762Y-17076000D02*
X8220715Y-17085524D01*
X8220715Y-17085524D02*
X8182619Y-17085524D01*
X8182619Y-17085524D02*
X8163572Y-17076000D01*
X8163572Y-17076000D02*
X8154048Y-17056952D01*
X8154048Y-17056952D02*
X8154048Y-16980762D01*
X8154048Y-16980762D02*
X8163572Y-16961714D01*
X8163572Y-16961714D02*
X8182619Y-16952190D01*
X8182619Y-16952190D02*
X8220715Y-16952190D01*
X8220715Y-16952190D02*
X8239762Y-16961714D01*
X8239762Y-16961714D02*
X8249286Y-16980762D01*
X8249286Y-16980762D02*
X8249286Y-16999810D01*
X8249286Y-16999810D02*
X8154048Y-17018857D01*
X8325477Y-17076000D02*
X8344524Y-17085524D01*
X8344524Y-17085524D02*
X8382619Y-17085524D01*
X8382619Y-17085524D02*
X8401667Y-17076000D01*
X8401667Y-17076000D02*
X8411191Y-17056952D01*
X8411191Y-17056952D02*
X8411191Y-17047429D01*
X8411191Y-17047429D02*
X8401667Y-17028381D01*
X8401667Y-17028381D02*
X8382619Y-17018857D01*
X8382619Y-17018857D02*
X8354048Y-17018857D01*
X8354048Y-17018857D02*
X8335000Y-17009333D01*
X8335000Y-17009333D02*
X8325477Y-16990286D01*
X8325477Y-16990286D02*
X8325477Y-16980762D01*
X8325477Y-16980762D02*
X8335000Y-16961714D01*
X8335000Y-16961714D02*
X8354048Y-16952190D01*
X8354048Y-16952190D02*
X8382619Y-16952190D01*
X8382619Y-16952190D02*
X8401667Y-16961714D01*
X8477858Y-17161714D02*
X8487381Y-17152190D01*
X8487381Y-17152190D02*
X8506429Y-17123619D01*
X8506429Y-17123619D02*
X8515953Y-17104571D01*
X8515953Y-17104571D02*
X8525477Y-17076000D01*
X8525477Y-17076000D02*
X8535000Y-17028381D01*
X8535000Y-17028381D02*
X8535000Y-16990286D01*
X8535000Y-16990286D02*
X8525477Y-16942667D01*
X8525477Y-16942667D02*
X8515953Y-16914095D01*
X8515953Y-16914095D02*
X8506429Y-16895048D01*
X8506429Y-16895048D02*
X8487381Y-16866476D01*
X8487381Y-16866476D02*
X8477858Y-16856952D01*
D15*
X3326946Y-17276446D02*
X3326946Y-17237554D01*
X3288054Y-17237554D01*
X3288054Y-17276446D01*
X3326946Y-17276446D01*
D11*
X3620714Y-17149524D02*
X3639762Y-17149524D01*
X3639762Y-17149524D02*
X3658809Y-17159048D01*
X3658809Y-17159048D02*
X3668333Y-17168571D01*
X3668333Y-17168571D02*
X3677857Y-17187619D01*
X3677857Y-17187619D02*
X3687381Y-17225714D01*
X3687381Y-17225714D02*
X3687381Y-17273333D01*
X3687381Y-17273333D02*
X3677857Y-17311429D01*
X3677857Y-17311429D02*
X3668333Y-17330476D01*
X3668333Y-17330476D02*
X3658809Y-17340000D01*
X3658809Y-17340000D02*
X3639762Y-17349524D01*
X3639762Y-17349524D02*
X3620714Y-17349524D01*
X3620714Y-17349524D02*
X3601667Y-17340000D01*
X3601667Y-17340000D02*
X3592143Y-17330476D01*
X3592143Y-17330476D02*
X3582619Y-17311429D01*
X3582619Y-17311429D02*
X3573095Y-17273333D01*
X3573095Y-17273333D02*
X3573095Y-17225714D01*
X3573095Y-17225714D02*
X3582619Y-17187619D01*
X3582619Y-17187619D02*
X3592143Y-17168571D01*
X3592143Y-17168571D02*
X3601667Y-17159048D01*
X3601667Y-17159048D02*
X3620714Y-17149524D01*
X3773095Y-17330476D02*
X3782619Y-17340000D01*
X3782619Y-17340000D02*
X3773095Y-17349524D01*
X3773095Y-17349524D02*
X3763571Y-17340000D01*
X3763571Y-17340000D02*
X3773095Y-17330476D01*
X3773095Y-17330476D02*
X3773095Y-17349524D01*
X3963571Y-17149524D02*
X3868333Y-17149524D01*
X3868333Y-17149524D02*
X3858809Y-17244762D01*
X3858809Y-17244762D02*
X3868333Y-17235238D01*
X3868333Y-17235238D02*
X3887381Y-17225714D01*
X3887381Y-17225714D02*
X3935000Y-17225714D01*
X3935000Y-17225714D02*
X3954048Y-17235238D01*
X3954048Y-17235238D02*
X3963571Y-17244762D01*
X3963571Y-17244762D02*
X3973095Y-17263810D01*
X3973095Y-17263810D02*
X3973095Y-17311429D01*
X3973095Y-17311429D02*
X3963571Y-17330476D01*
X3963571Y-17330476D02*
X3954048Y-17340000D01*
X3954048Y-17340000D02*
X3935000Y-17349524D01*
X3935000Y-17349524D02*
X3887381Y-17349524D01*
X3887381Y-17349524D02*
X3868333Y-17340000D01*
X3868333Y-17340000D02*
X3858809Y-17330476D01*
X4154048Y-17149524D02*
X4058809Y-17149524D01*
X4058809Y-17149524D02*
X4049286Y-17244762D01*
X4049286Y-17244762D02*
X4058809Y-17235238D01*
X4058809Y-17235238D02*
X4077857Y-17225714D01*
X4077857Y-17225714D02*
X4125476Y-17225714D01*
X4125476Y-17225714D02*
X4144524Y-17235238D01*
X4144524Y-17235238D02*
X4154048Y-17244762D01*
X4154048Y-17244762D02*
X4163571Y-17263810D01*
X4163571Y-17263810D02*
X4163571Y-17311429D01*
X4163571Y-17311429D02*
X4154048Y-17330476D01*
X4154048Y-17330476D02*
X4144524Y-17340000D01*
X4144524Y-17340000D02*
X4125476Y-17349524D01*
X4125476Y-17349524D02*
X4077857Y-17349524D01*
X4077857Y-17349524D02*
X4058809Y-17340000D01*
X4058809Y-17340000D02*
X4049286Y-17330476D01*
X4287381Y-17149524D02*
X4306429Y-17149524D01*
X4306429Y-17149524D02*
X4325476Y-17159048D01*
X4325476Y-17159048D02*
X4335000Y-17168571D01*
X4335000Y-17168571D02*
X4344524Y-17187619D01*
X4344524Y-17187619D02*
X4354048Y-17225714D01*
X4354048Y-17225714D02*
X4354048Y-17273333D01*
X4354048Y-17273333D02*
X4344524Y-17311429D01*
X4344524Y-17311429D02*
X4335000Y-17330476D01*
X4335000Y-17330476D02*
X4325476Y-17340000D01*
X4325476Y-17340000D02*
X4306429Y-17349524D01*
X4306429Y-17349524D02*
X4287381Y-17349524D01*
X4287381Y-17349524D02*
X4268333Y-17340000D01*
X4268333Y-17340000D02*
X4258810Y-17330476D01*
X4258810Y-17330476D02*
X4249286Y-17311429D01*
X4249286Y-17311429D02*
X4239762Y-17273333D01*
X4239762Y-17273333D02*
X4239762Y-17225714D01*
X4239762Y-17225714D02*
X4249286Y-17187619D01*
X4249286Y-17187619D02*
X4258810Y-17168571D01*
X4258810Y-17168571D02*
X4268333Y-17159048D01*
X4268333Y-17159048D02*
X4287381Y-17149524D01*
X4439762Y-17349524D02*
X4439762Y-17216190D01*
X4439762Y-17235238D02*
X4449286Y-17225714D01*
X4449286Y-17225714D02*
X4468333Y-17216190D01*
X4468333Y-17216190D02*
X4496905Y-17216190D01*
X4496905Y-17216190D02*
X4515952Y-17225714D01*
X4515952Y-17225714D02*
X4525476Y-17244762D01*
X4525476Y-17244762D02*
X4525476Y-17349524D01*
X4525476Y-17244762D02*
X4535000Y-17225714D01*
X4535000Y-17225714D02*
X4554048Y-17216190D01*
X4554048Y-17216190D02*
X4582619Y-17216190D01*
X4582619Y-17216190D02*
X4601667Y-17225714D01*
X4601667Y-17225714D02*
X4611191Y-17244762D01*
X4611191Y-17244762D02*
X4611191Y-17349524D01*
X4706429Y-17349524D02*
X4706429Y-17216190D01*
X4706429Y-17235238D02*
X4715952Y-17225714D01*
X4715952Y-17225714D02*
X4735000Y-17216190D01*
X4735000Y-17216190D02*
X4763572Y-17216190D01*
X4763572Y-17216190D02*
X4782619Y-17225714D01*
X4782619Y-17225714D02*
X4792143Y-17244762D01*
X4792143Y-17244762D02*
X4792143Y-17349524D01*
X4792143Y-17244762D02*
X4801667Y-17225714D01*
X4801667Y-17225714D02*
X4820714Y-17216190D01*
X4820714Y-17216190D02*
X4849286Y-17216190D01*
X4849286Y-17216190D02*
X4868333Y-17225714D01*
X4868333Y-17225714D02*
X4877857Y-17244762D01*
X4877857Y-17244762D02*
X4877857Y-17349524D01*
X5268333Y-17140000D02*
X5096905Y-17397143D01*
X5525476Y-17149524D02*
X5544524Y-17149524D01*
X5544524Y-17149524D02*
X5563572Y-17159048D01*
X5563572Y-17159048D02*
X5573095Y-17168571D01*
X5573095Y-17168571D02*
X5582619Y-17187619D01*
X5582619Y-17187619D02*
X5592143Y-17225714D01*
X5592143Y-17225714D02*
X5592143Y-17273333D01*
X5592143Y-17273333D02*
X5582619Y-17311429D01*
X5582619Y-17311429D02*
X5573095Y-17330476D01*
X5573095Y-17330476D02*
X5563572Y-17340000D01*
X5563572Y-17340000D02*
X5544524Y-17349524D01*
X5544524Y-17349524D02*
X5525476Y-17349524D01*
X5525476Y-17349524D02*
X5506429Y-17340000D01*
X5506429Y-17340000D02*
X5496905Y-17330476D01*
X5496905Y-17330476D02*
X5487381Y-17311429D01*
X5487381Y-17311429D02*
X5477857Y-17273333D01*
X5477857Y-17273333D02*
X5477857Y-17225714D01*
X5477857Y-17225714D02*
X5487381Y-17187619D01*
X5487381Y-17187619D02*
X5496905Y-17168571D01*
X5496905Y-17168571D02*
X5506429Y-17159048D01*
X5506429Y-17159048D02*
X5525476Y-17149524D01*
X5677857Y-17330476D02*
X5687381Y-17340000D01*
X5687381Y-17340000D02*
X5677857Y-17349524D01*
X5677857Y-17349524D02*
X5668333Y-17340000D01*
X5668333Y-17340000D02*
X5677857Y-17330476D01*
X5677857Y-17330476D02*
X5677857Y-17349524D01*
X5811191Y-17149524D02*
X5830238Y-17149524D01*
X5830238Y-17149524D02*
X5849286Y-17159048D01*
X5849286Y-17159048D02*
X5858810Y-17168571D01*
X5858810Y-17168571D02*
X5868333Y-17187619D01*
X5868333Y-17187619D02*
X5877857Y-17225714D01*
X5877857Y-17225714D02*
X5877857Y-17273333D01*
X5877857Y-17273333D02*
X5868333Y-17311429D01*
X5868333Y-17311429D02*
X5858810Y-17330476D01*
X5858810Y-17330476D02*
X5849286Y-17340000D01*
X5849286Y-17340000D02*
X5830238Y-17349524D01*
X5830238Y-17349524D02*
X5811191Y-17349524D01*
X5811191Y-17349524D02*
X5792143Y-17340000D01*
X5792143Y-17340000D02*
X5782619Y-17330476D01*
X5782619Y-17330476D02*
X5773095Y-17311429D01*
X5773095Y-17311429D02*
X5763572Y-17273333D01*
X5763572Y-17273333D02*
X5763572Y-17225714D01*
X5763572Y-17225714D02*
X5773095Y-17187619D01*
X5773095Y-17187619D02*
X5782619Y-17168571D01*
X5782619Y-17168571D02*
X5792143Y-17159048D01*
X5792143Y-17159048D02*
X5811191Y-17149524D01*
X5954048Y-17168571D02*
X5963572Y-17159048D01*
X5963572Y-17159048D02*
X5982619Y-17149524D01*
X5982619Y-17149524D02*
X6030238Y-17149524D01*
X6030238Y-17149524D02*
X6049286Y-17159048D01*
X6049286Y-17159048D02*
X6058810Y-17168571D01*
X6058810Y-17168571D02*
X6068333Y-17187619D01*
X6068333Y-17187619D02*
X6068333Y-17206667D01*
X6068333Y-17206667D02*
X6058810Y-17235238D01*
X6058810Y-17235238D02*
X5944524Y-17349524D01*
X5944524Y-17349524D02*
X6068333Y-17349524D01*
X6258810Y-17349524D02*
X6144524Y-17349524D01*
X6201667Y-17349524D02*
X6201667Y-17149524D01*
X6201667Y-17149524D02*
X6182619Y-17178095D01*
X6182619Y-17178095D02*
X6163572Y-17197143D01*
X6163572Y-17197143D02*
X6144524Y-17206667D01*
X6325476Y-17149524D02*
X6458810Y-17149524D01*
X6458810Y-17149524D02*
X6373095Y-17349524D01*
X6525476Y-17149524D02*
X6525476Y-17187619D01*
X6601667Y-17149524D02*
X6601667Y-17187619D01*
X6896905Y-17425714D02*
X6887381Y-17416190D01*
X6887381Y-17416190D02*
X6868334Y-17387619D01*
X6868334Y-17387619D02*
X6858810Y-17368571D01*
X6858810Y-17368571D02*
X6849286Y-17340000D01*
X6849286Y-17340000D02*
X6839762Y-17292381D01*
X6839762Y-17292381D02*
X6839762Y-17254286D01*
X6839762Y-17254286D02*
X6849286Y-17206667D01*
X6849286Y-17206667D02*
X6858810Y-17178095D01*
X6858810Y-17178095D02*
X6868334Y-17159048D01*
X6868334Y-17159048D02*
X6887381Y-17130476D01*
X6887381Y-17130476D02*
X6896905Y-17120952D01*
X7011191Y-17149524D02*
X7030238Y-17149524D01*
X7030238Y-17149524D02*
X7049286Y-17159048D01*
X7049286Y-17159048D02*
X7058810Y-17168571D01*
X7058810Y-17168571D02*
X7068334Y-17187619D01*
X7068334Y-17187619D02*
X7077857Y-17225714D01*
X7077857Y-17225714D02*
X7077857Y-17273333D01*
X7077857Y-17273333D02*
X7068334Y-17311429D01*
X7068334Y-17311429D02*
X7058810Y-17330476D01*
X7058810Y-17330476D02*
X7049286Y-17340000D01*
X7049286Y-17340000D02*
X7030238Y-17349524D01*
X7030238Y-17349524D02*
X7011191Y-17349524D01*
X7011191Y-17349524D02*
X6992143Y-17340000D01*
X6992143Y-17340000D02*
X6982619Y-17330476D01*
X6982619Y-17330476D02*
X6973095Y-17311429D01*
X6973095Y-17311429D02*
X6963572Y-17273333D01*
X6963572Y-17273333D02*
X6963572Y-17225714D01*
X6963572Y-17225714D02*
X6973095Y-17187619D01*
X6973095Y-17187619D02*
X6982619Y-17168571D01*
X6982619Y-17168571D02*
X6992143Y-17159048D01*
X6992143Y-17159048D02*
X7011191Y-17149524D01*
X7315953Y-17349524D02*
X7315953Y-17149524D01*
X7401667Y-17349524D02*
X7401667Y-17244762D01*
X7401667Y-17244762D02*
X7392143Y-17225714D01*
X7392143Y-17225714D02*
X7373096Y-17216190D01*
X7373096Y-17216190D02*
X7344524Y-17216190D01*
X7344524Y-17216190D02*
X7325476Y-17225714D01*
X7325476Y-17225714D02*
X7315953Y-17235238D01*
X7525476Y-17349524D02*
X7506429Y-17340000D01*
X7506429Y-17340000D02*
X7496905Y-17330476D01*
X7496905Y-17330476D02*
X7487381Y-17311429D01*
X7487381Y-17311429D02*
X7487381Y-17254286D01*
X7487381Y-17254286D02*
X7496905Y-17235238D01*
X7496905Y-17235238D02*
X7506429Y-17225714D01*
X7506429Y-17225714D02*
X7525476Y-17216190D01*
X7525476Y-17216190D02*
X7554048Y-17216190D01*
X7554048Y-17216190D02*
X7573096Y-17225714D01*
X7573096Y-17225714D02*
X7582619Y-17235238D01*
X7582619Y-17235238D02*
X7592143Y-17254286D01*
X7592143Y-17254286D02*
X7592143Y-17311429D01*
X7592143Y-17311429D02*
X7582619Y-17330476D01*
X7582619Y-17330476D02*
X7573096Y-17340000D01*
X7573096Y-17340000D02*
X7554048Y-17349524D01*
X7554048Y-17349524D02*
X7525476Y-17349524D01*
X7706429Y-17349524D02*
X7687381Y-17340000D01*
X7687381Y-17340000D02*
X7677857Y-17320952D01*
X7677857Y-17320952D02*
X7677857Y-17149524D01*
X7858810Y-17340000D02*
X7839762Y-17349524D01*
X7839762Y-17349524D02*
X7801667Y-17349524D01*
X7801667Y-17349524D02*
X7782619Y-17340000D01*
X7782619Y-17340000D02*
X7773096Y-17320952D01*
X7773096Y-17320952D02*
X7773096Y-17244762D01*
X7773096Y-17244762D02*
X7782619Y-17225714D01*
X7782619Y-17225714D02*
X7801667Y-17216190D01*
X7801667Y-17216190D02*
X7839762Y-17216190D01*
X7839762Y-17216190D02*
X7858810Y-17225714D01*
X7858810Y-17225714D02*
X7868334Y-17244762D01*
X7868334Y-17244762D02*
X7868334Y-17263810D01*
X7868334Y-17263810D02*
X7773096Y-17282857D01*
X7944524Y-17340000D02*
X7963572Y-17349524D01*
X7963572Y-17349524D02*
X8001667Y-17349524D01*
X8001667Y-17349524D02*
X8020715Y-17340000D01*
X8020715Y-17340000D02*
X8030238Y-17320952D01*
X8030238Y-17320952D02*
X8030238Y-17311429D01*
X8030238Y-17311429D02*
X8020715Y-17292381D01*
X8020715Y-17292381D02*
X8001667Y-17282857D01*
X8001667Y-17282857D02*
X7973096Y-17282857D01*
X7973096Y-17282857D02*
X7954048Y-17273333D01*
X7954048Y-17273333D02*
X7944524Y-17254286D01*
X7944524Y-17254286D02*
X7944524Y-17244762D01*
X7944524Y-17244762D02*
X7954048Y-17225714D01*
X7954048Y-17225714D02*
X7973096Y-17216190D01*
X7973096Y-17216190D02*
X8001667Y-17216190D01*
X8001667Y-17216190D02*
X8020715Y-17225714D01*
X8268334Y-17273333D02*
X8420715Y-17273333D01*
X8344524Y-17349524D02*
X8344524Y-17197143D01*
X8658810Y-17168571D02*
X8668334Y-17159048D01*
X8668334Y-17159048D02*
X8687381Y-17149524D01*
X8687381Y-17149524D02*
X8735001Y-17149524D01*
X8735001Y-17149524D02*
X8754048Y-17159048D01*
X8754048Y-17159048D02*
X8763572Y-17168571D01*
X8763572Y-17168571D02*
X8773096Y-17187619D01*
X8773096Y-17187619D02*
X8773096Y-17206667D01*
X8773096Y-17206667D02*
X8763572Y-17235238D01*
X8763572Y-17235238D02*
X8649286Y-17349524D01*
X8649286Y-17349524D02*
X8773096Y-17349524D01*
X9001667Y-17340000D02*
X9020715Y-17349524D01*
X9020715Y-17349524D02*
X9058810Y-17349524D01*
X9058810Y-17349524D02*
X9077858Y-17340000D01*
X9077858Y-17340000D02*
X9087382Y-17320952D01*
X9087382Y-17320952D02*
X9087382Y-17311429D01*
X9087382Y-17311429D02*
X9077858Y-17292381D01*
X9077858Y-17292381D02*
X9058810Y-17282857D01*
X9058810Y-17282857D02*
X9030239Y-17282857D01*
X9030239Y-17282857D02*
X9011191Y-17273333D01*
X9011191Y-17273333D02*
X9001667Y-17254286D01*
X9001667Y-17254286D02*
X9001667Y-17244762D01*
X9001667Y-17244762D02*
X9011191Y-17225714D01*
X9011191Y-17225714D02*
X9030239Y-17216190D01*
X9030239Y-17216190D02*
X9058810Y-17216190D01*
X9058810Y-17216190D02*
X9077858Y-17225714D01*
X9201667Y-17349524D02*
X9182620Y-17340000D01*
X9182620Y-17340000D02*
X9173096Y-17320952D01*
X9173096Y-17320952D02*
X9173096Y-17149524D01*
X9306429Y-17349524D02*
X9287382Y-17340000D01*
X9287382Y-17340000D02*
X9277858Y-17330476D01*
X9277858Y-17330476D02*
X9268334Y-17311429D01*
X9268334Y-17311429D02*
X9268334Y-17254286D01*
X9268334Y-17254286D02*
X9277858Y-17235238D01*
X9277858Y-17235238D02*
X9287382Y-17225714D01*
X9287382Y-17225714D02*
X9306429Y-17216190D01*
X9306429Y-17216190D02*
X9335001Y-17216190D01*
X9335001Y-17216190D02*
X9354048Y-17225714D01*
X9354048Y-17225714D02*
X9363572Y-17235238D01*
X9363572Y-17235238D02*
X9373096Y-17254286D01*
X9373096Y-17254286D02*
X9373096Y-17311429D01*
X9373096Y-17311429D02*
X9363572Y-17330476D01*
X9363572Y-17330476D02*
X9354048Y-17340000D01*
X9354048Y-17340000D02*
X9335001Y-17349524D01*
X9335001Y-17349524D02*
X9306429Y-17349524D01*
X9430239Y-17216190D02*
X9506429Y-17216190D01*
X9458810Y-17149524D02*
X9458810Y-17320952D01*
X9458810Y-17320952D02*
X9468334Y-17340000D01*
X9468334Y-17340000D02*
X9487382Y-17349524D01*
X9487382Y-17349524D02*
X9506429Y-17349524D01*
X9563572Y-17340000D02*
X9582620Y-17349524D01*
X9582620Y-17349524D02*
X9620715Y-17349524D01*
X9620715Y-17349524D02*
X9639763Y-17340000D01*
X9639763Y-17340000D02*
X9649286Y-17320952D01*
X9649286Y-17320952D02*
X9649286Y-17311429D01*
X9649286Y-17311429D02*
X9639763Y-17292381D01*
X9639763Y-17292381D02*
X9620715Y-17282857D01*
X9620715Y-17282857D02*
X9592143Y-17282857D01*
X9592143Y-17282857D02*
X9573096Y-17273333D01*
X9573096Y-17273333D02*
X9563572Y-17254286D01*
X9563572Y-17254286D02*
X9563572Y-17244762D01*
X9563572Y-17244762D02*
X9573096Y-17225714D01*
X9573096Y-17225714D02*
X9592143Y-17216190D01*
X9592143Y-17216190D02*
X9620715Y-17216190D01*
X9620715Y-17216190D02*
X9639763Y-17225714D01*
X9715953Y-17425714D02*
X9725477Y-17416190D01*
X9725477Y-17416190D02*
X9744524Y-17387619D01*
X9744524Y-17387619D02*
X9754048Y-17368571D01*
X9754048Y-17368571D02*
X9763572Y-17340000D01*
X9763572Y-17340000D02*
X9773096Y-17292381D01*
X9773096Y-17292381D02*
X9773096Y-17254286D01*
X9773096Y-17254286D02*
X9763572Y-17206667D01*
X9763572Y-17206667D02*
X9754048Y-17178095D01*
X9754048Y-17178095D02*
X9744524Y-17159048D01*
X9744524Y-17159048D02*
X9725477Y-17130476D01*
X9725477Y-17130476D02*
X9715953Y-17120952D01*
D16*
X3292500Y-17563500D02*
X3335000Y-17521000D01*
X3292500Y-17478500D01*
X3250000Y-17521000D01*
X3292500Y-17563500D01*
D11*
X3620714Y-17413524D02*
X3639762Y-17413524D01*
X3639762Y-17413524D02*
X3658809Y-17423048D01*
X3658809Y-17423048D02*
X3668333Y-17432571D01*
X3668333Y-17432571D02*
X3677857Y-17451619D01*
X3677857Y-17451619D02*
X3687381Y-17489714D01*
X3687381Y-17489714D02*
X3687381Y-17537333D01*
X3687381Y-17537333D02*
X3677857Y-17575429D01*
X3677857Y-17575429D02*
X3668333Y-17594476D01*
X3668333Y-17594476D02*
X3658809Y-17604000D01*
X3658809Y-17604000D02*
X3639762Y-17613524D01*
X3639762Y-17613524D02*
X3620714Y-17613524D01*
X3620714Y-17613524D02*
X3601667Y-17604000D01*
X3601667Y-17604000D02*
X3592143Y-17594476D01*
X3592143Y-17594476D02*
X3582619Y-17575429D01*
X3582619Y-17575429D02*
X3573095Y-17537333D01*
X3573095Y-17537333D02*
X3573095Y-17489714D01*
X3573095Y-17489714D02*
X3582619Y-17451619D01*
X3582619Y-17451619D02*
X3592143Y-17432571D01*
X3592143Y-17432571D02*
X3601667Y-17423048D01*
X3601667Y-17423048D02*
X3620714Y-17413524D01*
X3773095Y-17594476D02*
X3782619Y-17604000D01*
X3782619Y-17604000D02*
X3773095Y-17613524D01*
X3773095Y-17613524D02*
X3763571Y-17604000D01*
X3763571Y-17604000D02*
X3773095Y-17594476D01*
X3773095Y-17594476D02*
X3773095Y-17613524D01*
X3896905Y-17499238D02*
X3877857Y-17489714D01*
X3877857Y-17489714D02*
X3868333Y-17480190D01*
X3868333Y-17480190D02*
X3858809Y-17461143D01*
X3858809Y-17461143D02*
X3858809Y-17451619D01*
X3858809Y-17451619D02*
X3868333Y-17432571D01*
X3868333Y-17432571D02*
X3877857Y-17423048D01*
X3877857Y-17423048D02*
X3896905Y-17413524D01*
X3896905Y-17413524D02*
X3935000Y-17413524D01*
X3935000Y-17413524D02*
X3954048Y-17423048D01*
X3954048Y-17423048D02*
X3963571Y-17432571D01*
X3963571Y-17432571D02*
X3973095Y-17451619D01*
X3973095Y-17451619D02*
X3973095Y-17461143D01*
X3973095Y-17461143D02*
X3963571Y-17480190D01*
X3963571Y-17480190D02*
X3954048Y-17489714D01*
X3954048Y-17489714D02*
X3935000Y-17499238D01*
X3935000Y-17499238D02*
X3896905Y-17499238D01*
X3896905Y-17499238D02*
X3877857Y-17508762D01*
X3877857Y-17508762D02*
X3868333Y-17518286D01*
X3868333Y-17518286D02*
X3858809Y-17537333D01*
X3858809Y-17537333D02*
X3858809Y-17575429D01*
X3858809Y-17575429D02*
X3868333Y-17594476D01*
X3868333Y-17594476D02*
X3877857Y-17604000D01*
X3877857Y-17604000D02*
X3896905Y-17613524D01*
X3896905Y-17613524D02*
X3935000Y-17613524D01*
X3935000Y-17613524D02*
X3954048Y-17604000D01*
X3954048Y-17604000D02*
X3963571Y-17594476D01*
X3963571Y-17594476D02*
X3973095Y-17575429D01*
X3973095Y-17575429D02*
X3973095Y-17537333D01*
X3973095Y-17537333D02*
X3963571Y-17518286D01*
X3963571Y-17518286D02*
X3954048Y-17508762D01*
X3954048Y-17508762D02*
X3935000Y-17499238D01*
X4154048Y-17413524D02*
X4058809Y-17413524D01*
X4058809Y-17413524D02*
X4049286Y-17508762D01*
X4049286Y-17508762D02*
X4058809Y-17499238D01*
X4058809Y-17499238D02*
X4077857Y-17489714D01*
X4077857Y-17489714D02*
X4125476Y-17489714D01*
X4125476Y-17489714D02*
X4144524Y-17499238D01*
X4144524Y-17499238D02*
X4154048Y-17508762D01*
X4154048Y-17508762D02*
X4163571Y-17527810D01*
X4163571Y-17527810D02*
X4163571Y-17575429D01*
X4163571Y-17575429D02*
X4154048Y-17594476D01*
X4154048Y-17594476D02*
X4144524Y-17604000D01*
X4144524Y-17604000D02*
X4125476Y-17613524D01*
X4125476Y-17613524D02*
X4077857Y-17613524D01*
X4077857Y-17613524D02*
X4058809Y-17604000D01*
X4058809Y-17604000D02*
X4049286Y-17594476D01*
X4287381Y-17413524D02*
X4306429Y-17413524D01*
X4306429Y-17413524D02*
X4325476Y-17423048D01*
X4325476Y-17423048D02*
X4335000Y-17432571D01*
X4335000Y-17432571D02*
X4344524Y-17451619D01*
X4344524Y-17451619D02*
X4354048Y-17489714D01*
X4354048Y-17489714D02*
X4354048Y-17537333D01*
X4354048Y-17537333D02*
X4344524Y-17575429D01*
X4344524Y-17575429D02*
X4335000Y-17594476D01*
X4335000Y-17594476D02*
X4325476Y-17604000D01*
X4325476Y-17604000D02*
X4306429Y-17613524D01*
X4306429Y-17613524D02*
X4287381Y-17613524D01*
X4287381Y-17613524D02*
X4268333Y-17604000D01*
X4268333Y-17604000D02*
X4258810Y-17594476D01*
X4258810Y-17594476D02*
X4249286Y-17575429D01*
X4249286Y-17575429D02*
X4239762Y-17537333D01*
X4239762Y-17537333D02*
X4239762Y-17489714D01*
X4239762Y-17489714D02*
X4249286Y-17451619D01*
X4249286Y-17451619D02*
X4258810Y-17432571D01*
X4258810Y-17432571D02*
X4268333Y-17423048D01*
X4268333Y-17423048D02*
X4287381Y-17413524D01*
X4439762Y-17613524D02*
X4439762Y-17480190D01*
X4439762Y-17499238D02*
X4449286Y-17489714D01*
X4449286Y-17489714D02*
X4468333Y-17480190D01*
X4468333Y-17480190D02*
X4496905Y-17480190D01*
X4496905Y-17480190D02*
X4515952Y-17489714D01*
X4515952Y-17489714D02*
X4525476Y-17508762D01*
X4525476Y-17508762D02*
X4525476Y-17613524D01*
X4525476Y-17508762D02*
X4535000Y-17489714D01*
X4535000Y-17489714D02*
X4554048Y-17480190D01*
X4554048Y-17480190D02*
X4582619Y-17480190D01*
X4582619Y-17480190D02*
X4601667Y-17489714D01*
X4601667Y-17489714D02*
X4611191Y-17508762D01*
X4611191Y-17508762D02*
X4611191Y-17613524D01*
X4706429Y-17613524D02*
X4706429Y-17480190D01*
X4706429Y-17499238D02*
X4715952Y-17489714D01*
X4715952Y-17489714D02*
X4735000Y-17480190D01*
X4735000Y-17480190D02*
X4763572Y-17480190D01*
X4763572Y-17480190D02*
X4782619Y-17489714D01*
X4782619Y-17489714D02*
X4792143Y-17508762D01*
X4792143Y-17508762D02*
X4792143Y-17613524D01*
X4792143Y-17508762D02*
X4801667Y-17489714D01*
X4801667Y-17489714D02*
X4820714Y-17480190D01*
X4820714Y-17480190D02*
X4849286Y-17480190D01*
X4849286Y-17480190D02*
X4868333Y-17489714D01*
X4868333Y-17489714D02*
X4877857Y-17508762D01*
X4877857Y-17508762D02*
X4877857Y-17613524D01*
X5268333Y-17404000D02*
X5096905Y-17661143D01*
X5525476Y-17413524D02*
X5544524Y-17413524D01*
X5544524Y-17413524D02*
X5563572Y-17423048D01*
X5563572Y-17423048D02*
X5573095Y-17432571D01*
X5573095Y-17432571D02*
X5582619Y-17451619D01*
X5582619Y-17451619D02*
X5592143Y-17489714D01*
X5592143Y-17489714D02*
X5592143Y-17537333D01*
X5592143Y-17537333D02*
X5582619Y-17575429D01*
X5582619Y-17575429D02*
X5573095Y-17594476D01*
X5573095Y-17594476D02*
X5563572Y-17604000D01*
X5563572Y-17604000D02*
X5544524Y-17613524D01*
X5544524Y-17613524D02*
X5525476Y-17613524D01*
X5525476Y-17613524D02*
X5506429Y-17604000D01*
X5506429Y-17604000D02*
X5496905Y-17594476D01*
X5496905Y-17594476D02*
X5487381Y-17575429D01*
X5487381Y-17575429D02*
X5477857Y-17537333D01*
X5477857Y-17537333D02*
X5477857Y-17489714D01*
X5477857Y-17489714D02*
X5487381Y-17451619D01*
X5487381Y-17451619D02*
X5496905Y-17432571D01*
X5496905Y-17432571D02*
X5506429Y-17423048D01*
X5506429Y-17423048D02*
X5525476Y-17413524D01*
X5677857Y-17594476D02*
X5687381Y-17604000D01*
X5687381Y-17604000D02*
X5677857Y-17613524D01*
X5677857Y-17613524D02*
X5668333Y-17604000D01*
X5668333Y-17604000D02*
X5677857Y-17594476D01*
X5677857Y-17594476D02*
X5677857Y-17613524D01*
X5811191Y-17413524D02*
X5830238Y-17413524D01*
X5830238Y-17413524D02*
X5849286Y-17423048D01*
X5849286Y-17423048D02*
X5858810Y-17432571D01*
X5858810Y-17432571D02*
X5868333Y-17451619D01*
X5868333Y-17451619D02*
X5877857Y-17489714D01*
X5877857Y-17489714D02*
X5877857Y-17537333D01*
X5877857Y-17537333D02*
X5868333Y-17575429D01*
X5868333Y-17575429D02*
X5858810Y-17594476D01*
X5858810Y-17594476D02*
X5849286Y-17604000D01*
X5849286Y-17604000D02*
X5830238Y-17613524D01*
X5830238Y-17613524D02*
X5811191Y-17613524D01*
X5811191Y-17613524D02*
X5792143Y-17604000D01*
X5792143Y-17604000D02*
X5782619Y-17594476D01*
X5782619Y-17594476D02*
X5773095Y-17575429D01*
X5773095Y-17575429D02*
X5763572Y-17537333D01*
X5763572Y-17537333D02*
X5763572Y-17489714D01*
X5763572Y-17489714D02*
X5773095Y-17451619D01*
X5773095Y-17451619D02*
X5782619Y-17432571D01*
X5782619Y-17432571D02*
X5792143Y-17423048D01*
X5792143Y-17423048D02*
X5811191Y-17413524D01*
X5944524Y-17413524D02*
X6068333Y-17413524D01*
X6068333Y-17413524D02*
X6001667Y-17489714D01*
X6001667Y-17489714D02*
X6030238Y-17489714D01*
X6030238Y-17489714D02*
X6049286Y-17499238D01*
X6049286Y-17499238D02*
X6058810Y-17508762D01*
X6058810Y-17508762D02*
X6068333Y-17527810D01*
X6068333Y-17527810D02*
X6068333Y-17575429D01*
X6068333Y-17575429D02*
X6058810Y-17594476D01*
X6058810Y-17594476D02*
X6049286Y-17604000D01*
X6049286Y-17604000D02*
X6030238Y-17613524D01*
X6030238Y-17613524D02*
X5973095Y-17613524D01*
X5973095Y-17613524D02*
X5954048Y-17604000D01*
X5954048Y-17604000D02*
X5944524Y-17594476D01*
X6135000Y-17413524D02*
X6258810Y-17413524D01*
X6258810Y-17413524D02*
X6192143Y-17489714D01*
X6192143Y-17489714D02*
X6220714Y-17489714D01*
X6220714Y-17489714D02*
X6239762Y-17499238D01*
X6239762Y-17499238D02*
X6249286Y-17508762D01*
X6249286Y-17508762D02*
X6258810Y-17527810D01*
X6258810Y-17527810D02*
X6258810Y-17575429D01*
X6258810Y-17575429D02*
X6249286Y-17594476D01*
X6249286Y-17594476D02*
X6239762Y-17604000D01*
X6239762Y-17604000D02*
X6220714Y-17613524D01*
X6220714Y-17613524D02*
X6163572Y-17613524D01*
X6163572Y-17613524D02*
X6144524Y-17604000D01*
X6144524Y-17604000D02*
X6135000Y-17594476D01*
X6439762Y-17413524D02*
X6344524Y-17413524D01*
X6344524Y-17413524D02*
X6335000Y-17508762D01*
X6335000Y-17508762D02*
X6344524Y-17499238D01*
X6344524Y-17499238D02*
X6363572Y-17489714D01*
X6363572Y-17489714D02*
X6411191Y-17489714D01*
X6411191Y-17489714D02*
X6430238Y-17499238D01*
X6430238Y-17499238D02*
X6439762Y-17508762D01*
X6439762Y-17508762D02*
X6449286Y-17527810D01*
X6449286Y-17527810D02*
X6449286Y-17575429D01*
X6449286Y-17575429D02*
X6439762Y-17594476D01*
X6439762Y-17594476D02*
X6430238Y-17604000D01*
X6430238Y-17604000D02*
X6411191Y-17613524D01*
X6411191Y-17613524D02*
X6363572Y-17613524D01*
X6363572Y-17613524D02*
X6344524Y-17604000D01*
X6344524Y-17604000D02*
X6335000Y-17594476D01*
X6525476Y-17413524D02*
X6525476Y-17451619D01*
X6601667Y-17413524D02*
X6601667Y-17451619D01*
X6896905Y-17689714D02*
X6887381Y-17680190D01*
X6887381Y-17680190D02*
X6868334Y-17651619D01*
X6868334Y-17651619D02*
X6858810Y-17632571D01*
X6858810Y-17632571D02*
X6849286Y-17604000D01*
X6849286Y-17604000D02*
X6839762Y-17556381D01*
X6839762Y-17556381D02*
X6839762Y-17518286D01*
X6839762Y-17518286D02*
X6849286Y-17470667D01*
X6849286Y-17470667D02*
X6858810Y-17442095D01*
X6858810Y-17442095D02*
X6868334Y-17423048D01*
X6868334Y-17423048D02*
X6887381Y-17394476D01*
X6887381Y-17394476D02*
X6896905Y-17384952D01*
X7011191Y-17413524D02*
X7030238Y-17413524D01*
X7030238Y-17413524D02*
X7049286Y-17423048D01*
X7049286Y-17423048D02*
X7058810Y-17432571D01*
X7058810Y-17432571D02*
X7068334Y-17451619D01*
X7068334Y-17451619D02*
X7077857Y-17489714D01*
X7077857Y-17489714D02*
X7077857Y-17537333D01*
X7077857Y-17537333D02*
X7068334Y-17575429D01*
X7068334Y-17575429D02*
X7058810Y-17594476D01*
X7058810Y-17594476D02*
X7049286Y-17604000D01*
X7049286Y-17604000D02*
X7030238Y-17613524D01*
X7030238Y-17613524D02*
X7011191Y-17613524D01*
X7011191Y-17613524D02*
X6992143Y-17604000D01*
X6992143Y-17604000D02*
X6982619Y-17594476D01*
X6982619Y-17594476D02*
X6973095Y-17575429D01*
X6973095Y-17575429D02*
X6963572Y-17537333D01*
X6963572Y-17537333D02*
X6963572Y-17489714D01*
X6963572Y-17489714D02*
X6973095Y-17451619D01*
X6973095Y-17451619D02*
X6982619Y-17432571D01*
X6982619Y-17432571D02*
X6992143Y-17423048D01*
X6992143Y-17423048D02*
X7011191Y-17413524D01*
X7315953Y-17613524D02*
X7315953Y-17413524D01*
X7401667Y-17613524D02*
X7401667Y-17508762D01*
X7401667Y-17508762D02*
X7392143Y-17489714D01*
X7392143Y-17489714D02*
X7373096Y-17480190D01*
X7373096Y-17480190D02*
X7344524Y-17480190D01*
X7344524Y-17480190D02*
X7325476Y-17489714D01*
X7325476Y-17489714D02*
X7315953Y-17499238D01*
X7525476Y-17613524D02*
X7506429Y-17604000D01*
X7506429Y-17604000D02*
X7496905Y-17594476D01*
X7496905Y-17594476D02*
X7487381Y-17575429D01*
X7487381Y-17575429D02*
X7487381Y-17518286D01*
X7487381Y-17518286D02*
X7496905Y-17499238D01*
X7496905Y-17499238D02*
X7506429Y-17489714D01*
X7506429Y-17489714D02*
X7525476Y-17480190D01*
X7525476Y-17480190D02*
X7554048Y-17480190D01*
X7554048Y-17480190D02*
X7573096Y-17489714D01*
X7573096Y-17489714D02*
X7582619Y-17499238D01*
X7582619Y-17499238D02*
X7592143Y-17518286D01*
X7592143Y-17518286D02*
X7592143Y-17575429D01*
X7592143Y-17575429D02*
X7582619Y-17594476D01*
X7582619Y-17594476D02*
X7573096Y-17604000D01*
X7573096Y-17604000D02*
X7554048Y-17613524D01*
X7554048Y-17613524D02*
X7525476Y-17613524D01*
X7706429Y-17613524D02*
X7687381Y-17604000D01*
X7687381Y-17604000D02*
X7677857Y-17584952D01*
X7677857Y-17584952D02*
X7677857Y-17413524D01*
X7858810Y-17604000D02*
X7839762Y-17613524D01*
X7839762Y-17613524D02*
X7801667Y-17613524D01*
X7801667Y-17613524D02*
X7782619Y-17604000D01*
X7782619Y-17604000D02*
X7773096Y-17584952D01*
X7773096Y-17584952D02*
X7773096Y-17508762D01*
X7773096Y-17508762D02*
X7782619Y-17489714D01*
X7782619Y-17489714D02*
X7801667Y-17480190D01*
X7801667Y-17480190D02*
X7839762Y-17480190D01*
X7839762Y-17480190D02*
X7858810Y-17489714D01*
X7858810Y-17489714D02*
X7868334Y-17508762D01*
X7868334Y-17508762D02*
X7868334Y-17527810D01*
X7868334Y-17527810D02*
X7773096Y-17546857D01*
X7944524Y-17604000D02*
X7963572Y-17613524D01*
X7963572Y-17613524D02*
X8001667Y-17613524D01*
X8001667Y-17613524D02*
X8020715Y-17604000D01*
X8020715Y-17604000D02*
X8030238Y-17584952D01*
X8030238Y-17584952D02*
X8030238Y-17575429D01*
X8030238Y-17575429D02*
X8020715Y-17556381D01*
X8020715Y-17556381D02*
X8001667Y-17546857D01*
X8001667Y-17546857D02*
X7973096Y-17546857D01*
X7973096Y-17546857D02*
X7954048Y-17537333D01*
X7954048Y-17537333D02*
X7944524Y-17518286D01*
X7944524Y-17518286D02*
X7944524Y-17508762D01*
X7944524Y-17508762D02*
X7954048Y-17489714D01*
X7954048Y-17489714D02*
X7973096Y-17480190D01*
X7973096Y-17480190D02*
X8001667Y-17480190D01*
X8001667Y-17480190D02*
X8020715Y-17489714D01*
X8268334Y-17537333D02*
X8420715Y-17537333D01*
X8344524Y-17613524D02*
X8344524Y-17461143D01*
X8658810Y-17432571D02*
X8668334Y-17423048D01*
X8668334Y-17423048D02*
X8687381Y-17413524D01*
X8687381Y-17413524D02*
X8735001Y-17413524D01*
X8735001Y-17413524D02*
X8754048Y-17423048D01*
X8754048Y-17423048D02*
X8763572Y-17432571D01*
X8763572Y-17432571D02*
X8773096Y-17451619D01*
X8773096Y-17451619D02*
X8773096Y-17470667D01*
X8773096Y-17470667D02*
X8763572Y-17499238D01*
X8763572Y-17499238D02*
X8649286Y-17613524D01*
X8649286Y-17613524D02*
X8773096Y-17613524D01*
X9001667Y-17604000D02*
X9020715Y-17613524D01*
X9020715Y-17613524D02*
X9058810Y-17613524D01*
X9058810Y-17613524D02*
X9077858Y-17604000D01*
X9077858Y-17604000D02*
X9087382Y-17584952D01*
X9087382Y-17584952D02*
X9087382Y-17575429D01*
X9087382Y-17575429D02*
X9077858Y-17556381D01*
X9077858Y-17556381D02*
X9058810Y-17546857D01*
X9058810Y-17546857D02*
X9030239Y-17546857D01*
X9030239Y-17546857D02*
X9011191Y-17537333D01*
X9011191Y-17537333D02*
X9001667Y-17518286D01*
X9001667Y-17518286D02*
X9001667Y-17508762D01*
X9001667Y-17508762D02*
X9011191Y-17489714D01*
X9011191Y-17489714D02*
X9030239Y-17480190D01*
X9030239Y-17480190D02*
X9058810Y-17480190D01*
X9058810Y-17480190D02*
X9077858Y-17489714D01*
X9201667Y-17613524D02*
X9182620Y-17604000D01*
X9182620Y-17604000D02*
X9173096Y-17584952D01*
X9173096Y-17584952D02*
X9173096Y-17413524D01*
X9306429Y-17613524D02*
X9287382Y-17604000D01*
X9287382Y-17604000D02*
X9277858Y-17594476D01*
X9277858Y-17594476D02*
X9268334Y-17575429D01*
X9268334Y-17575429D02*
X9268334Y-17518286D01*
X9268334Y-17518286D02*
X9277858Y-17499238D01*
X9277858Y-17499238D02*
X9287382Y-17489714D01*
X9287382Y-17489714D02*
X9306429Y-17480190D01*
X9306429Y-17480190D02*
X9335001Y-17480190D01*
X9335001Y-17480190D02*
X9354048Y-17489714D01*
X9354048Y-17489714D02*
X9363572Y-17499238D01*
X9363572Y-17499238D02*
X9373096Y-17518286D01*
X9373096Y-17518286D02*
X9373096Y-17575429D01*
X9373096Y-17575429D02*
X9363572Y-17594476D01*
X9363572Y-17594476D02*
X9354048Y-17604000D01*
X9354048Y-17604000D02*
X9335001Y-17613524D01*
X9335001Y-17613524D02*
X9306429Y-17613524D01*
X9430239Y-17480190D02*
X9506429Y-17480190D01*
X9458810Y-17413524D02*
X9458810Y-17584952D01*
X9458810Y-17584952D02*
X9468334Y-17604000D01*
X9468334Y-17604000D02*
X9487382Y-17613524D01*
X9487382Y-17613524D02*
X9506429Y-17613524D01*
X9563572Y-17604000D02*
X9582620Y-17613524D01*
X9582620Y-17613524D02*
X9620715Y-17613524D01*
X9620715Y-17613524D02*
X9639763Y-17604000D01*
X9639763Y-17604000D02*
X9649286Y-17584952D01*
X9649286Y-17584952D02*
X9649286Y-17575429D01*
X9649286Y-17575429D02*
X9639763Y-17556381D01*
X9639763Y-17556381D02*
X9620715Y-17546857D01*
X9620715Y-17546857D02*
X9592143Y-17546857D01*
X9592143Y-17546857D02*
X9573096Y-17537333D01*
X9573096Y-17537333D02*
X9563572Y-17518286D01*
X9563572Y-17518286D02*
X9563572Y-17508762D01*
X9563572Y-17508762D02*
X9573096Y-17489714D01*
X9573096Y-17489714D02*
X9592143Y-17480190D01*
X9592143Y-17480190D02*
X9620715Y-17480190D01*
X9620715Y-17480190D02*
X9639763Y-17489714D01*
X9715953Y-17689714D02*
X9725477Y-17680190D01*
X9725477Y-17680190D02*
X9744524Y-17651619D01*
X9744524Y-17651619D02*
X9754048Y-17632571D01*
X9754048Y-17632571D02*
X9763572Y-17604000D01*
X9763572Y-17604000D02*
X9773096Y-17556381D01*
X9773096Y-17556381D02*
X9773096Y-17518286D01*
X9773096Y-17518286D02*
X9763572Y-17470667D01*
X9763572Y-17470667D02*
X9754048Y-17442095D01*
X9754048Y-17442095D02*
X9744524Y-17423048D01*
X9744524Y-17423048D02*
X9725477Y-17394476D01*
X9725477Y-17394476D02*
X9715953Y-17384952D01*
D17*
X3246000Y-17740500D02*
X3335000Y-17829500D01*
X3335000Y-17740500D02*
X3246000Y-17829500D01*
X3335000Y-17785000D02*
G75*
G03*
X3335000Y-17785000I-44500J0D01*
G01*
D11*
X3620714Y-17677524D02*
X3639762Y-17677524D01*
X3639762Y-17677524D02*
X3658809Y-17687048D01*
X3658809Y-17687048D02*
X3668333Y-17696571D01*
X3668333Y-17696571D02*
X3677857Y-17715619D01*
X3677857Y-17715619D02*
X3687381Y-17753714D01*
X3687381Y-17753714D02*
X3687381Y-17801333D01*
X3687381Y-17801333D02*
X3677857Y-17839429D01*
X3677857Y-17839429D02*
X3668333Y-17858476D01*
X3668333Y-17858476D02*
X3658809Y-17868000D01*
X3658809Y-17868000D02*
X3639762Y-17877524D01*
X3639762Y-17877524D02*
X3620714Y-17877524D01*
X3620714Y-17877524D02*
X3601667Y-17868000D01*
X3601667Y-17868000D02*
X3592143Y-17858476D01*
X3592143Y-17858476D02*
X3582619Y-17839429D01*
X3582619Y-17839429D02*
X3573095Y-17801333D01*
X3573095Y-17801333D02*
X3573095Y-17753714D01*
X3573095Y-17753714D02*
X3582619Y-17715619D01*
X3582619Y-17715619D02*
X3592143Y-17696571D01*
X3592143Y-17696571D02*
X3601667Y-17687048D01*
X3601667Y-17687048D02*
X3620714Y-17677524D01*
X3773095Y-17858476D02*
X3782619Y-17868000D01*
X3782619Y-17868000D02*
X3773095Y-17877524D01*
X3773095Y-17877524D02*
X3763571Y-17868000D01*
X3763571Y-17868000D02*
X3773095Y-17858476D01*
X3773095Y-17858476D02*
X3773095Y-17877524D01*
X3896905Y-17763238D02*
X3877857Y-17753714D01*
X3877857Y-17753714D02*
X3868333Y-17744190D01*
X3868333Y-17744190D02*
X3858809Y-17725143D01*
X3858809Y-17725143D02*
X3858809Y-17715619D01*
X3858809Y-17715619D02*
X3868333Y-17696571D01*
X3868333Y-17696571D02*
X3877857Y-17687048D01*
X3877857Y-17687048D02*
X3896905Y-17677524D01*
X3896905Y-17677524D02*
X3935000Y-17677524D01*
X3935000Y-17677524D02*
X3954048Y-17687048D01*
X3954048Y-17687048D02*
X3963571Y-17696571D01*
X3963571Y-17696571D02*
X3973095Y-17715619D01*
X3973095Y-17715619D02*
X3973095Y-17725143D01*
X3973095Y-17725143D02*
X3963571Y-17744190D01*
X3963571Y-17744190D02*
X3954048Y-17753714D01*
X3954048Y-17753714D02*
X3935000Y-17763238D01*
X3935000Y-17763238D02*
X3896905Y-17763238D01*
X3896905Y-17763238D02*
X3877857Y-17772762D01*
X3877857Y-17772762D02*
X3868333Y-17782286D01*
X3868333Y-17782286D02*
X3858809Y-17801333D01*
X3858809Y-17801333D02*
X3858809Y-17839429D01*
X3858809Y-17839429D02*
X3868333Y-17858476D01*
X3868333Y-17858476D02*
X3877857Y-17868000D01*
X3877857Y-17868000D02*
X3896905Y-17877524D01*
X3896905Y-17877524D02*
X3935000Y-17877524D01*
X3935000Y-17877524D02*
X3954048Y-17868000D01*
X3954048Y-17868000D02*
X3963571Y-17858476D01*
X3963571Y-17858476D02*
X3973095Y-17839429D01*
X3973095Y-17839429D02*
X3973095Y-17801333D01*
X3973095Y-17801333D02*
X3963571Y-17782286D01*
X3963571Y-17782286D02*
X3954048Y-17772762D01*
X3954048Y-17772762D02*
X3935000Y-17763238D01*
X4068333Y-17877524D02*
X4106428Y-17877524D01*
X4106428Y-17877524D02*
X4125476Y-17868000D01*
X4125476Y-17868000D02*
X4135000Y-17858476D01*
X4135000Y-17858476D02*
X4154048Y-17829905D01*
X4154048Y-17829905D02*
X4163571Y-17791810D01*
X4163571Y-17791810D02*
X4163571Y-17715619D01*
X4163571Y-17715619D02*
X4154048Y-17696571D01*
X4154048Y-17696571D02*
X4144524Y-17687048D01*
X4144524Y-17687048D02*
X4125476Y-17677524D01*
X4125476Y-17677524D02*
X4087381Y-17677524D01*
X4087381Y-17677524D02*
X4068333Y-17687048D01*
X4068333Y-17687048D02*
X4058809Y-17696571D01*
X4058809Y-17696571D02*
X4049286Y-17715619D01*
X4049286Y-17715619D02*
X4049286Y-17763238D01*
X4049286Y-17763238D02*
X4058809Y-17782286D01*
X4058809Y-17782286D02*
X4068333Y-17791810D01*
X4068333Y-17791810D02*
X4087381Y-17801333D01*
X4087381Y-17801333D02*
X4125476Y-17801333D01*
X4125476Y-17801333D02*
X4144524Y-17791810D01*
X4144524Y-17791810D02*
X4154048Y-17782286D01*
X4154048Y-17782286D02*
X4163571Y-17763238D01*
X4287381Y-17677524D02*
X4306429Y-17677524D01*
X4306429Y-17677524D02*
X4325476Y-17687048D01*
X4325476Y-17687048D02*
X4335000Y-17696571D01*
X4335000Y-17696571D02*
X4344524Y-17715619D01*
X4344524Y-17715619D02*
X4354048Y-17753714D01*
X4354048Y-17753714D02*
X4354048Y-17801333D01*
X4354048Y-17801333D02*
X4344524Y-17839429D01*
X4344524Y-17839429D02*
X4335000Y-17858476D01*
X4335000Y-17858476D02*
X4325476Y-17868000D01*
X4325476Y-17868000D02*
X4306429Y-17877524D01*
X4306429Y-17877524D02*
X4287381Y-17877524D01*
X4287381Y-17877524D02*
X4268333Y-17868000D01*
X4268333Y-17868000D02*
X4258810Y-17858476D01*
X4258810Y-17858476D02*
X4249286Y-17839429D01*
X4249286Y-17839429D02*
X4239762Y-17801333D01*
X4239762Y-17801333D02*
X4239762Y-17753714D01*
X4239762Y-17753714D02*
X4249286Y-17715619D01*
X4249286Y-17715619D02*
X4258810Y-17696571D01*
X4258810Y-17696571D02*
X4268333Y-17687048D01*
X4268333Y-17687048D02*
X4287381Y-17677524D01*
X4439762Y-17877524D02*
X4439762Y-17744190D01*
X4439762Y-17763238D02*
X4449286Y-17753714D01*
X4449286Y-17753714D02*
X4468333Y-17744190D01*
X4468333Y-17744190D02*
X4496905Y-17744190D01*
X4496905Y-17744190D02*
X4515952Y-17753714D01*
X4515952Y-17753714D02*
X4525476Y-17772762D01*
X4525476Y-17772762D02*
X4525476Y-17877524D01*
X4525476Y-17772762D02*
X4535000Y-17753714D01*
X4535000Y-17753714D02*
X4554048Y-17744190D01*
X4554048Y-17744190D02*
X4582619Y-17744190D01*
X4582619Y-17744190D02*
X4601667Y-17753714D01*
X4601667Y-17753714D02*
X4611191Y-17772762D01*
X4611191Y-17772762D02*
X4611191Y-17877524D01*
X4706429Y-17877524D02*
X4706429Y-17744190D01*
X4706429Y-17763238D02*
X4715952Y-17753714D01*
X4715952Y-17753714D02*
X4735000Y-17744190D01*
X4735000Y-17744190D02*
X4763572Y-17744190D01*
X4763572Y-17744190D02*
X4782619Y-17753714D01*
X4782619Y-17753714D02*
X4792143Y-17772762D01*
X4792143Y-17772762D02*
X4792143Y-17877524D01*
X4792143Y-17772762D02*
X4801667Y-17753714D01*
X4801667Y-17753714D02*
X4820714Y-17744190D01*
X4820714Y-17744190D02*
X4849286Y-17744190D01*
X4849286Y-17744190D02*
X4868333Y-17753714D01*
X4868333Y-17753714D02*
X4877857Y-17772762D01*
X4877857Y-17772762D02*
X4877857Y-17877524D01*
X5268333Y-17668000D02*
X5096905Y-17925143D01*
X5525476Y-17677524D02*
X5544524Y-17677524D01*
X5544524Y-17677524D02*
X5563572Y-17687048D01*
X5563572Y-17687048D02*
X5573095Y-17696571D01*
X5573095Y-17696571D02*
X5582619Y-17715619D01*
X5582619Y-17715619D02*
X5592143Y-17753714D01*
X5592143Y-17753714D02*
X5592143Y-17801333D01*
X5592143Y-17801333D02*
X5582619Y-17839429D01*
X5582619Y-17839429D02*
X5573095Y-17858476D01*
X5573095Y-17858476D02*
X5563572Y-17868000D01*
X5563572Y-17868000D02*
X5544524Y-17877524D01*
X5544524Y-17877524D02*
X5525476Y-17877524D01*
X5525476Y-17877524D02*
X5506429Y-17868000D01*
X5506429Y-17868000D02*
X5496905Y-17858476D01*
X5496905Y-17858476D02*
X5487381Y-17839429D01*
X5487381Y-17839429D02*
X5477857Y-17801333D01*
X5477857Y-17801333D02*
X5477857Y-17753714D01*
X5477857Y-17753714D02*
X5487381Y-17715619D01*
X5487381Y-17715619D02*
X5496905Y-17696571D01*
X5496905Y-17696571D02*
X5506429Y-17687048D01*
X5506429Y-17687048D02*
X5525476Y-17677524D01*
X5677857Y-17858476D02*
X5687381Y-17868000D01*
X5687381Y-17868000D02*
X5677857Y-17877524D01*
X5677857Y-17877524D02*
X5668333Y-17868000D01*
X5668333Y-17868000D02*
X5677857Y-17858476D01*
X5677857Y-17858476D02*
X5677857Y-17877524D01*
X5811191Y-17677524D02*
X5830238Y-17677524D01*
X5830238Y-17677524D02*
X5849286Y-17687048D01*
X5849286Y-17687048D02*
X5858810Y-17696571D01*
X5858810Y-17696571D02*
X5868333Y-17715619D01*
X5868333Y-17715619D02*
X5877857Y-17753714D01*
X5877857Y-17753714D02*
X5877857Y-17801333D01*
X5877857Y-17801333D02*
X5868333Y-17839429D01*
X5868333Y-17839429D02*
X5858810Y-17858476D01*
X5858810Y-17858476D02*
X5849286Y-17868000D01*
X5849286Y-17868000D02*
X5830238Y-17877524D01*
X5830238Y-17877524D02*
X5811191Y-17877524D01*
X5811191Y-17877524D02*
X5792143Y-17868000D01*
X5792143Y-17868000D02*
X5782619Y-17858476D01*
X5782619Y-17858476D02*
X5773095Y-17839429D01*
X5773095Y-17839429D02*
X5763572Y-17801333D01*
X5763572Y-17801333D02*
X5763572Y-17753714D01*
X5763572Y-17753714D02*
X5773095Y-17715619D01*
X5773095Y-17715619D02*
X5782619Y-17696571D01*
X5782619Y-17696571D02*
X5792143Y-17687048D01*
X5792143Y-17687048D02*
X5811191Y-17677524D01*
X5944524Y-17677524D02*
X6068333Y-17677524D01*
X6068333Y-17677524D02*
X6001667Y-17753714D01*
X6001667Y-17753714D02*
X6030238Y-17753714D01*
X6030238Y-17753714D02*
X6049286Y-17763238D01*
X6049286Y-17763238D02*
X6058810Y-17772762D01*
X6058810Y-17772762D02*
X6068333Y-17791810D01*
X6068333Y-17791810D02*
X6068333Y-17839429D01*
X6068333Y-17839429D02*
X6058810Y-17858476D01*
X6058810Y-17858476D02*
X6049286Y-17868000D01*
X6049286Y-17868000D02*
X6030238Y-17877524D01*
X6030238Y-17877524D02*
X5973095Y-17877524D01*
X5973095Y-17877524D02*
X5954048Y-17868000D01*
X5954048Y-17868000D02*
X5944524Y-17858476D01*
X6249286Y-17677524D02*
X6154048Y-17677524D01*
X6154048Y-17677524D02*
X6144524Y-17772762D01*
X6144524Y-17772762D02*
X6154048Y-17763238D01*
X6154048Y-17763238D02*
X6173095Y-17753714D01*
X6173095Y-17753714D02*
X6220714Y-17753714D01*
X6220714Y-17753714D02*
X6239762Y-17763238D01*
X6239762Y-17763238D02*
X6249286Y-17772762D01*
X6249286Y-17772762D02*
X6258810Y-17791810D01*
X6258810Y-17791810D02*
X6258810Y-17839429D01*
X6258810Y-17839429D02*
X6249286Y-17858476D01*
X6249286Y-17858476D02*
X6239762Y-17868000D01*
X6239762Y-17868000D02*
X6220714Y-17877524D01*
X6220714Y-17877524D02*
X6173095Y-17877524D01*
X6173095Y-17877524D02*
X6154048Y-17868000D01*
X6154048Y-17868000D02*
X6144524Y-17858476D01*
X6382619Y-17677524D02*
X6401667Y-17677524D01*
X6401667Y-17677524D02*
X6420714Y-17687048D01*
X6420714Y-17687048D02*
X6430238Y-17696571D01*
X6430238Y-17696571D02*
X6439762Y-17715619D01*
X6439762Y-17715619D02*
X6449286Y-17753714D01*
X6449286Y-17753714D02*
X6449286Y-17801333D01*
X6449286Y-17801333D02*
X6439762Y-17839429D01*
X6439762Y-17839429D02*
X6430238Y-17858476D01*
X6430238Y-17858476D02*
X6420714Y-17868000D01*
X6420714Y-17868000D02*
X6401667Y-17877524D01*
X6401667Y-17877524D02*
X6382619Y-17877524D01*
X6382619Y-17877524D02*
X6363572Y-17868000D01*
X6363572Y-17868000D02*
X6354048Y-17858476D01*
X6354048Y-17858476D02*
X6344524Y-17839429D01*
X6344524Y-17839429D02*
X6335000Y-17801333D01*
X6335000Y-17801333D02*
X6335000Y-17753714D01*
X6335000Y-17753714D02*
X6344524Y-17715619D01*
X6344524Y-17715619D02*
X6354048Y-17696571D01*
X6354048Y-17696571D02*
X6363572Y-17687048D01*
X6363572Y-17687048D02*
X6382619Y-17677524D01*
X6525476Y-17677524D02*
X6525476Y-17715619D01*
X6601667Y-17677524D02*
X6601667Y-17715619D01*
X6896905Y-17953714D02*
X6887381Y-17944190D01*
X6887381Y-17944190D02*
X6868334Y-17915619D01*
X6868334Y-17915619D02*
X6858810Y-17896571D01*
X6858810Y-17896571D02*
X6849286Y-17868000D01*
X6849286Y-17868000D02*
X6839762Y-17820381D01*
X6839762Y-17820381D02*
X6839762Y-17782286D01*
X6839762Y-17782286D02*
X6849286Y-17734667D01*
X6849286Y-17734667D02*
X6858810Y-17706095D01*
X6858810Y-17706095D02*
X6868334Y-17687048D01*
X6868334Y-17687048D02*
X6887381Y-17658476D01*
X6887381Y-17658476D02*
X6896905Y-17648952D01*
X7077857Y-17877524D02*
X6963572Y-17877524D01*
X7020714Y-17877524D02*
X7020714Y-17677524D01*
X7020714Y-17677524D02*
X7001667Y-17706095D01*
X7001667Y-17706095D02*
X6982619Y-17725143D01*
X6982619Y-17725143D02*
X6963572Y-17734667D01*
X7154048Y-17696571D02*
X7163572Y-17687048D01*
X7163572Y-17687048D02*
X7182619Y-17677524D01*
X7182619Y-17677524D02*
X7230238Y-17677524D01*
X7230238Y-17677524D02*
X7249286Y-17687048D01*
X7249286Y-17687048D02*
X7258810Y-17696571D01*
X7258810Y-17696571D02*
X7268334Y-17715619D01*
X7268334Y-17715619D02*
X7268334Y-17734667D01*
X7268334Y-17734667D02*
X7258810Y-17763238D01*
X7258810Y-17763238D02*
X7144524Y-17877524D01*
X7144524Y-17877524D02*
X7268334Y-17877524D01*
X7506429Y-17877524D02*
X7506429Y-17677524D01*
X7592143Y-17877524D02*
X7592143Y-17772762D01*
X7592143Y-17772762D02*
X7582619Y-17753714D01*
X7582619Y-17753714D02*
X7563572Y-17744190D01*
X7563572Y-17744190D02*
X7535000Y-17744190D01*
X7535000Y-17744190D02*
X7515953Y-17753714D01*
X7515953Y-17753714D02*
X7506429Y-17763238D01*
X7715953Y-17877524D02*
X7696905Y-17868000D01*
X7696905Y-17868000D02*
X7687381Y-17858476D01*
X7687381Y-17858476D02*
X7677857Y-17839429D01*
X7677857Y-17839429D02*
X7677857Y-17782286D01*
X7677857Y-17782286D02*
X7687381Y-17763238D01*
X7687381Y-17763238D02*
X7696905Y-17753714D01*
X7696905Y-17753714D02*
X7715953Y-17744190D01*
X7715953Y-17744190D02*
X7744524Y-17744190D01*
X7744524Y-17744190D02*
X7763572Y-17753714D01*
X7763572Y-17753714D02*
X7773096Y-17763238D01*
X7773096Y-17763238D02*
X7782619Y-17782286D01*
X7782619Y-17782286D02*
X7782619Y-17839429D01*
X7782619Y-17839429D02*
X7773096Y-17858476D01*
X7773096Y-17858476D02*
X7763572Y-17868000D01*
X7763572Y-17868000D02*
X7744524Y-17877524D01*
X7744524Y-17877524D02*
X7715953Y-17877524D01*
X7896905Y-17877524D02*
X7877857Y-17868000D01*
X7877857Y-17868000D02*
X7868334Y-17848952D01*
X7868334Y-17848952D02*
X7868334Y-17677524D01*
X8049286Y-17868000D02*
X8030238Y-17877524D01*
X8030238Y-17877524D02*
X7992143Y-17877524D01*
X7992143Y-17877524D02*
X7973096Y-17868000D01*
X7973096Y-17868000D02*
X7963572Y-17848952D01*
X7963572Y-17848952D02*
X7963572Y-17772762D01*
X7963572Y-17772762D02*
X7973096Y-17753714D01*
X7973096Y-17753714D02*
X7992143Y-17744190D01*
X7992143Y-17744190D02*
X8030238Y-17744190D01*
X8030238Y-17744190D02*
X8049286Y-17753714D01*
X8049286Y-17753714D02*
X8058810Y-17772762D01*
X8058810Y-17772762D02*
X8058810Y-17791810D01*
X8058810Y-17791810D02*
X7963572Y-17810857D01*
X8135000Y-17868000D02*
X8154048Y-17877524D01*
X8154048Y-17877524D02*
X8192143Y-17877524D01*
X8192143Y-17877524D02*
X8211191Y-17868000D01*
X8211191Y-17868000D02*
X8220715Y-17848952D01*
X8220715Y-17848952D02*
X8220715Y-17839429D01*
X8220715Y-17839429D02*
X8211191Y-17820381D01*
X8211191Y-17820381D02*
X8192143Y-17810857D01*
X8192143Y-17810857D02*
X8163572Y-17810857D01*
X8163572Y-17810857D02*
X8144524Y-17801333D01*
X8144524Y-17801333D02*
X8135000Y-17782286D01*
X8135000Y-17782286D02*
X8135000Y-17772762D01*
X8135000Y-17772762D02*
X8144524Y-17753714D01*
X8144524Y-17753714D02*
X8163572Y-17744190D01*
X8163572Y-17744190D02*
X8192143Y-17744190D01*
X8192143Y-17744190D02*
X8211191Y-17753714D01*
X8287381Y-17953714D02*
X8296905Y-17944190D01*
X8296905Y-17944190D02*
X8315953Y-17915619D01*
X8315953Y-17915619D02*
X8325477Y-17896571D01*
X8325477Y-17896571D02*
X8335000Y-17868000D01*
X8335000Y-17868000D02*
X8344524Y-17820381D01*
X8344524Y-17820381D02*
X8344524Y-17782286D01*
X8344524Y-17782286D02*
X8335000Y-17734667D01*
X8335000Y-17734667D02*
X8325477Y-17706095D01*
X8325477Y-17706095D02*
X8315953Y-17687048D01*
X8315953Y-17687048D02*
X8296905Y-17658476D01*
X8296905Y-17658476D02*
X8287381Y-17648952D01*
D10*
X3235000Y-17999000D02*
X3335000Y-18099000D01*
X3335000Y-17999000D02*
X3235000Y-18099000D01*
X3285000Y-17999000D02*
X3285000Y-18099000D01*
X3235000Y-18049000D02*
X3335000Y-18049000D01*
D11*
X3687381Y-18141524D02*
X3573095Y-18141524D01*
X3630238Y-18141524D02*
X3630238Y-17941524D01*
X3630238Y-17941524D02*
X3611190Y-17970095D01*
X3611190Y-17970095D02*
X3592143Y-17989143D01*
X3592143Y-17989143D02*
X3573095Y-17998667D01*
X3773095Y-18122476D02*
X3782619Y-18132000D01*
X3782619Y-18132000D02*
X3773095Y-18141524D01*
X3773095Y-18141524D02*
X3763571Y-18132000D01*
X3763571Y-18132000D02*
X3773095Y-18122476D01*
X3773095Y-18122476D02*
X3773095Y-18141524D01*
X3906428Y-17941524D02*
X3925476Y-17941524D01*
X3925476Y-17941524D02*
X3944524Y-17951048D01*
X3944524Y-17951048D02*
X3954048Y-17960571D01*
X3954048Y-17960571D02*
X3963571Y-17979619D01*
X3963571Y-17979619D02*
X3973095Y-18017714D01*
X3973095Y-18017714D02*
X3973095Y-18065333D01*
X3973095Y-18065333D02*
X3963571Y-18103429D01*
X3963571Y-18103429D02*
X3954048Y-18122476D01*
X3954048Y-18122476D02*
X3944524Y-18132000D01*
X3944524Y-18132000D02*
X3925476Y-18141524D01*
X3925476Y-18141524D02*
X3906428Y-18141524D01*
X3906428Y-18141524D02*
X3887381Y-18132000D01*
X3887381Y-18132000D02*
X3877857Y-18122476D01*
X3877857Y-18122476D02*
X3868333Y-18103429D01*
X3868333Y-18103429D02*
X3858809Y-18065333D01*
X3858809Y-18065333D02*
X3858809Y-18017714D01*
X3858809Y-18017714D02*
X3868333Y-17979619D01*
X3868333Y-17979619D02*
X3877857Y-17960571D01*
X3877857Y-17960571D02*
X3887381Y-17951048D01*
X3887381Y-17951048D02*
X3906428Y-17941524D01*
X4096905Y-17941524D02*
X4115952Y-17941524D01*
X4115952Y-17941524D02*
X4135000Y-17951048D01*
X4135000Y-17951048D02*
X4144524Y-17960571D01*
X4144524Y-17960571D02*
X4154048Y-17979619D01*
X4154048Y-17979619D02*
X4163571Y-18017714D01*
X4163571Y-18017714D02*
X4163571Y-18065333D01*
X4163571Y-18065333D02*
X4154048Y-18103429D01*
X4154048Y-18103429D02*
X4144524Y-18122476D01*
X4144524Y-18122476D02*
X4135000Y-18132000D01*
X4135000Y-18132000D02*
X4115952Y-18141524D01*
X4115952Y-18141524D02*
X4096905Y-18141524D01*
X4096905Y-18141524D02*
X4077857Y-18132000D01*
X4077857Y-18132000D02*
X4068333Y-18122476D01*
X4068333Y-18122476D02*
X4058809Y-18103429D01*
X4058809Y-18103429D02*
X4049286Y-18065333D01*
X4049286Y-18065333D02*
X4049286Y-18017714D01*
X4049286Y-18017714D02*
X4058809Y-17979619D01*
X4058809Y-17979619D02*
X4068333Y-17960571D01*
X4068333Y-17960571D02*
X4077857Y-17951048D01*
X4077857Y-17951048D02*
X4096905Y-17941524D01*
X4287381Y-17941524D02*
X4306429Y-17941524D01*
X4306429Y-17941524D02*
X4325476Y-17951048D01*
X4325476Y-17951048D02*
X4335000Y-17960571D01*
X4335000Y-17960571D02*
X4344524Y-17979619D01*
X4344524Y-17979619D02*
X4354048Y-18017714D01*
X4354048Y-18017714D02*
X4354048Y-18065333D01*
X4354048Y-18065333D02*
X4344524Y-18103429D01*
X4344524Y-18103429D02*
X4335000Y-18122476D01*
X4335000Y-18122476D02*
X4325476Y-18132000D01*
X4325476Y-18132000D02*
X4306429Y-18141524D01*
X4306429Y-18141524D02*
X4287381Y-18141524D01*
X4287381Y-18141524D02*
X4268333Y-18132000D01*
X4268333Y-18132000D02*
X4258810Y-18122476D01*
X4258810Y-18122476D02*
X4249286Y-18103429D01*
X4249286Y-18103429D02*
X4239762Y-18065333D01*
X4239762Y-18065333D02*
X4239762Y-18017714D01*
X4239762Y-18017714D02*
X4249286Y-17979619D01*
X4249286Y-17979619D02*
X4258810Y-17960571D01*
X4258810Y-17960571D02*
X4268333Y-17951048D01*
X4268333Y-17951048D02*
X4287381Y-17941524D01*
X4439762Y-18141524D02*
X4439762Y-18008190D01*
X4439762Y-18027238D02*
X4449286Y-18017714D01*
X4449286Y-18017714D02*
X4468333Y-18008190D01*
X4468333Y-18008190D02*
X4496905Y-18008190D01*
X4496905Y-18008190D02*
X4515952Y-18017714D01*
X4515952Y-18017714D02*
X4525476Y-18036762D01*
X4525476Y-18036762D02*
X4525476Y-18141524D01*
X4525476Y-18036762D02*
X4535000Y-18017714D01*
X4535000Y-18017714D02*
X4554048Y-18008190D01*
X4554048Y-18008190D02*
X4582619Y-18008190D01*
X4582619Y-18008190D02*
X4601667Y-18017714D01*
X4601667Y-18017714D02*
X4611191Y-18036762D01*
X4611191Y-18036762D02*
X4611191Y-18141524D01*
X4706429Y-18141524D02*
X4706429Y-18008190D01*
X4706429Y-18027238D02*
X4715952Y-18017714D01*
X4715952Y-18017714D02*
X4735000Y-18008190D01*
X4735000Y-18008190D02*
X4763572Y-18008190D01*
X4763572Y-18008190D02*
X4782619Y-18017714D01*
X4782619Y-18017714D02*
X4792143Y-18036762D01*
X4792143Y-18036762D02*
X4792143Y-18141524D01*
X4792143Y-18036762D02*
X4801667Y-18017714D01*
X4801667Y-18017714D02*
X4820714Y-18008190D01*
X4820714Y-18008190D02*
X4849286Y-18008190D01*
X4849286Y-18008190D02*
X4868333Y-18017714D01*
X4868333Y-18017714D02*
X4877857Y-18036762D01*
X4877857Y-18036762D02*
X4877857Y-18141524D01*
X5268333Y-17932000D02*
X5096905Y-18189143D01*
X5525476Y-17941524D02*
X5544524Y-17941524D01*
X5544524Y-17941524D02*
X5563572Y-17951048D01*
X5563572Y-17951048D02*
X5573095Y-17960571D01*
X5573095Y-17960571D02*
X5582619Y-17979619D01*
X5582619Y-17979619D02*
X5592143Y-18017714D01*
X5592143Y-18017714D02*
X5592143Y-18065333D01*
X5592143Y-18065333D02*
X5582619Y-18103429D01*
X5582619Y-18103429D02*
X5573095Y-18122476D01*
X5573095Y-18122476D02*
X5563572Y-18132000D01*
X5563572Y-18132000D02*
X5544524Y-18141524D01*
X5544524Y-18141524D02*
X5525476Y-18141524D01*
X5525476Y-18141524D02*
X5506429Y-18132000D01*
X5506429Y-18132000D02*
X5496905Y-18122476D01*
X5496905Y-18122476D02*
X5487381Y-18103429D01*
X5487381Y-18103429D02*
X5477857Y-18065333D01*
X5477857Y-18065333D02*
X5477857Y-18017714D01*
X5477857Y-18017714D02*
X5487381Y-17979619D01*
X5487381Y-17979619D02*
X5496905Y-17960571D01*
X5496905Y-17960571D02*
X5506429Y-17951048D01*
X5506429Y-17951048D02*
X5525476Y-17941524D01*
X5677857Y-18122476D02*
X5687381Y-18132000D01*
X5687381Y-18132000D02*
X5677857Y-18141524D01*
X5677857Y-18141524D02*
X5668333Y-18132000D01*
X5668333Y-18132000D02*
X5677857Y-18122476D01*
X5677857Y-18122476D02*
X5677857Y-18141524D01*
X5811191Y-17941524D02*
X5830238Y-17941524D01*
X5830238Y-17941524D02*
X5849286Y-17951048D01*
X5849286Y-17951048D02*
X5858810Y-17960571D01*
X5858810Y-17960571D02*
X5868333Y-17979619D01*
X5868333Y-17979619D02*
X5877857Y-18017714D01*
X5877857Y-18017714D02*
X5877857Y-18065333D01*
X5877857Y-18065333D02*
X5868333Y-18103429D01*
X5868333Y-18103429D02*
X5858810Y-18122476D01*
X5858810Y-18122476D02*
X5849286Y-18132000D01*
X5849286Y-18132000D02*
X5830238Y-18141524D01*
X5830238Y-18141524D02*
X5811191Y-18141524D01*
X5811191Y-18141524D02*
X5792143Y-18132000D01*
X5792143Y-18132000D02*
X5782619Y-18122476D01*
X5782619Y-18122476D02*
X5773095Y-18103429D01*
X5773095Y-18103429D02*
X5763572Y-18065333D01*
X5763572Y-18065333D02*
X5763572Y-18017714D01*
X5763572Y-18017714D02*
X5773095Y-17979619D01*
X5773095Y-17979619D02*
X5782619Y-17960571D01*
X5782619Y-17960571D02*
X5792143Y-17951048D01*
X5792143Y-17951048D02*
X5811191Y-17941524D01*
X5944524Y-17941524D02*
X6068333Y-17941524D01*
X6068333Y-17941524D02*
X6001667Y-18017714D01*
X6001667Y-18017714D02*
X6030238Y-18017714D01*
X6030238Y-18017714D02*
X6049286Y-18027238D01*
X6049286Y-18027238D02*
X6058810Y-18036762D01*
X6058810Y-18036762D02*
X6068333Y-18055810D01*
X6068333Y-18055810D02*
X6068333Y-18103429D01*
X6068333Y-18103429D02*
X6058810Y-18122476D01*
X6058810Y-18122476D02*
X6049286Y-18132000D01*
X6049286Y-18132000D02*
X6030238Y-18141524D01*
X6030238Y-18141524D02*
X5973095Y-18141524D01*
X5973095Y-18141524D02*
X5954048Y-18132000D01*
X5954048Y-18132000D02*
X5944524Y-18122476D01*
X6163572Y-18141524D02*
X6201667Y-18141524D01*
X6201667Y-18141524D02*
X6220714Y-18132000D01*
X6220714Y-18132000D02*
X6230238Y-18122476D01*
X6230238Y-18122476D02*
X6249286Y-18093905D01*
X6249286Y-18093905D02*
X6258810Y-18055810D01*
X6258810Y-18055810D02*
X6258810Y-17979619D01*
X6258810Y-17979619D02*
X6249286Y-17960571D01*
X6249286Y-17960571D02*
X6239762Y-17951048D01*
X6239762Y-17951048D02*
X6220714Y-17941524D01*
X6220714Y-17941524D02*
X6182619Y-17941524D01*
X6182619Y-17941524D02*
X6163572Y-17951048D01*
X6163572Y-17951048D02*
X6154048Y-17960571D01*
X6154048Y-17960571D02*
X6144524Y-17979619D01*
X6144524Y-17979619D02*
X6144524Y-18027238D01*
X6144524Y-18027238D02*
X6154048Y-18046286D01*
X6154048Y-18046286D02*
X6163572Y-18055810D01*
X6163572Y-18055810D02*
X6182619Y-18065333D01*
X6182619Y-18065333D02*
X6220714Y-18065333D01*
X6220714Y-18065333D02*
X6239762Y-18055810D01*
X6239762Y-18055810D02*
X6249286Y-18046286D01*
X6249286Y-18046286D02*
X6258810Y-18027238D01*
X6430238Y-18008190D02*
X6430238Y-18141524D01*
X6382619Y-17932000D02*
X6335000Y-18074857D01*
X6335000Y-18074857D02*
X6458810Y-18074857D01*
X6525476Y-17941524D02*
X6525476Y-17979619D01*
X6601667Y-17941524D02*
X6601667Y-17979619D01*
X6896905Y-18217714D02*
X6887381Y-18208190D01*
X6887381Y-18208190D02*
X6868334Y-18179619D01*
X6868334Y-18179619D02*
X6858810Y-18160571D01*
X6858810Y-18160571D02*
X6849286Y-18132000D01*
X6849286Y-18132000D02*
X6839762Y-18084381D01*
X6839762Y-18084381D02*
X6839762Y-18046286D01*
X6839762Y-18046286D02*
X6849286Y-17998667D01*
X6849286Y-17998667D02*
X6858810Y-17970095D01*
X6858810Y-17970095D02*
X6868334Y-17951048D01*
X6868334Y-17951048D02*
X6887381Y-17922476D01*
X6887381Y-17922476D02*
X6896905Y-17912952D01*
X7077857Y-18141524D02*
X6963572Y-18141524D01*
X7020714Y-18141524D02*
X7020714Y-17941524D01*
X7020714Y-17941524D02*
X7001667Y-17970095D01*
X7001667Y-17970095D02*
X6982619Y-17989143D01*
X6982619Y-17989143D02*
X6963572Y-17998667D01*
X7144524Y-17941524D02*
X7268334Y-17941524D01*
X7268334Y-17941524D02*
X7201667Y-18017714D01*
X7201667Y-18017714D02*
X7230238Y-18017714D01*
X7230238Y-18017714D02*
X7249286Y-18027238D01*
X7249286Y-18027238D02*
X7258810Y-18036762D01*
X7258810Y-18036762D02*
X7268334Y-18055810D01*
X7268334Y-18055810D02*
X7268334Y-18103429D01*
X7268334Y-18103429D02*
X7258810Y-18122476D01*
X7258810Y-18122476D02*
X7249286Y-18132000D01*
X7249286Y-18132000D02*
X7230238Y-18141524D01*
X7230238Y-18141524D02*
X7173095Y-18141524D01*
X7173095Y-18141524D02*
X7154048Y-18132000D01*
X7154048Y-18132000D02*
X7144524Y-18122476D01*
X7506429Y-18141524D02*
X7506429Y-17941524D01*
X7592143Y-18141524D02*
X7592143Y-18036762D01*
X7592143Y-18036762D02*
X7582619Y-18017714D01*
X7582619Y-18017714D02*
X7563572Y-18008190D01*
X7563572Y-18008190D02*
X7535000Y-18008190D01*
X7535000Y-18008190D02*
X7515953Y-18017714D01*
X7515953Y-18017714D02*
X7506429Y-18027238D01*
X7715953Y-18141524D02*
X7696905Y-18132000D01*
X7696905Y-18132000D02*
X7687381Y-18122476D01*
X7687381Y-18122476D02*
X7677857Y-18103429D01*
X7677857Y-18103429D02*
X7677857Y-18046286D01*
X7677857Y-18046286D02*
X7687381Y-18027238D01*
X7687381Y-18027238D02*
X7696905Y-18017714D01*
X7696905Y-18017714D02*
X7715953Y-18008190D01*
X7715953Y-18008190D02*
X7744524Y-18008190D01*
X7744524Y-18008190D02*
X7763572Y-18017714D01*
X7763572Y-18017714D02*
X7773096Y-18027238D01*
X7773096Y-18027238D02*
X7782619Y-18046286D01*
X7782619Y-18046286D02*
X7782619Y-18103429D01*
X7782619Y-18103429D02*
X7773096Y-18122476D01*
X7773096Y-18122476D02*
X7763572Y-18132000D01*
X7763572Y-18132000D02*
X7744524Y-18141524D01*
X7744524Y-18141524D02*
X7715953Y-18141524D01*
X7896905Y-18141524D02*
X7877857Y-18132000D01*
X7877857Y-18132000D02*
X7868334Y-18112952D01*
X7868334Y-18112952D02*
X7868334Y-17941524D01*
X8049286Y-18132000D02*
X8030238Y-18141524D01*
X8030238Y-18141524D02*
X7992143Y-18141524D01*
X7992143Y-18141524D02*
X7973096Y-18132000D01*
X7973096Y-18132000D02*
X7963572Y-18112952D01*
X7963572Y-18112952D02*
X7963572Y-18036762D01*
X7963572Y-18036762D02*
X7973096Y-18017714D01*
X7973096Y-18017714D02*
X7992143Y-18008190D01*
X7992143Y-18008190D02*
X8030238Y-18008190D01*
X8030238Y-18008190D02*
X8049286Y-18017714D01*
X8049286Y-18017714D02*
X8058810Y-18036762D01*
X8058810Y-18036762D02*
X8058810Y-18055810D01*
X8058810Y-18055810D02*
X7963572Y-18074857D01*
X8135000Y-18132000D02*
X8154048Y-18141524D01*
X8154048Y-18141524D02*
X8192143Y-18141524D01*
X8192143Y-18141524D02*
X8211191Y-18132000D01*
X8211191Y-18132000D02*
X8220715Y-18112952D01*
X8220715Y-18112952D02*
X8220715Y-18103429D01*
X8220715Y-18103429D02*
X8211191Y-18084381D01*
X8211191Y-18084381D02*
X8192143Y-18074857D01*
X8192143Y-18074857D02*
X8163572Y-18074857D01*
X8163572Y-18074857D02*
X8144524Y-18065333D01*
X8144524Y-18065333D02*
X8135000Y-18046286D01*
X8135000Y-18046286D02*
X8135000Y-18036762D01*
X8135000Y-18036762D02*
X8144524Y-18017714D01*
X8144524Y-18017714D02*
X8163572Y-18008190D01*
X8163572Y-18008190D02*
X8192143Y-18008190D01*
X8192143Y-18008190D02*
X8211191Y-18017714D01*
X8287381Y-18217714D02*
X8296905Y-18208190D01*
X8296905Y-18208190D02*
X8315953Y-18179619D01*
X8315953Y-18179619D02*
X8325477Y-18160571D01*
X8325477Y-18160571D02*
X8335000Y-18132000D01*
X8335000Y-18132000D02*
X8344524Y-18084381D01*
X8344524Y-18084381D02*
X8344524Y-18046286D01*
X8344524Y-18046286D02*
X8335000Y-17998667D01*
X8335000Y-17998667D02*
X8325477Y-17970095D01*
X8325477Y-17970095D02*
X8315953Y-17951048D01*
X8315953Y-17951048D02*
X8296905Y-17922476D01*
X8296905Y-17922476D02*
X8287381Y-17912952D01*
D18*
X3233400Y-18262200D02*
X3335000Y-18363800D01*
X3335000Y-18262200D02*
X3233400Y-18363800D01*
X3320121Y-18348921D02*
X3320121Y-18277079D01*
X3248279Y-18277079D01*
X3248279Y-18348921D01*
X3320121Y-18348921D01*
D11*
X3687381Y-18405524D02*
X3573095Y-18405524D01*
X3630238Y-18405524D02*
X3630238Y-18205524D01*
X3630238Y-18205524D02*
X3611190Y-18234095D01*
X3611190Y-18234095D02*
X3592143Y-18253143D01*
X3592143Y-18253143D02*
X3573095Y-18262667D01*
X3773095Y-18386476D02*
X3782619Y-18396000D01*
X3782619Y-18396000D02*
X3773095Y-18405524D01*
X3773095Y-18405524D02*
X3763571Y-18396000D01*
X3763571Y-18396000D02*
X3773095Y-18386476D01*
X3773095Y-18386476D02*
X3773095Y-18405524D01*
X3906428Y-18205524D02*
X3925476Y-18205524D01*
X3925476Y-18205524D02*
X3944524Y-18215048D01*
X3944524Y-18215048D02*
X3954048Y-18224571D01*
X3954048Y-18224571D02*
X3963571Y-18243619D01*
X3963571Y-18243619D02*
X3973095Y-18281714D01*
X3973095Y-18281714D02*
X3973095Y-18329333D01*
X3973095Y-18329333D02*
X3963571Y-18367429D01*
X3963571Y-18367429D02*
X3954048Y-18386476D01*
X3954048Y-18386476D02*
X3944524Y-18396000D01*
X3944524Y-18396000D02*
X3925476Y-18405524D01*
X3925476Y-18405524D02*
X3906428Y-18405524D01*
X3906428Y-18405524D02*
X3887381Y-18396000D01*
X3887381Y-18396000D02*
X3877857Y-18386476D01*
X3877857Y-18386476D02*
X3868333Y-18367429D01*
X3868333Y-18367429D02*
X3858809Y-18329333D01*
X3858809Y-18329333D02*
X3858809Y-18281714D01*
X3858809Y-18281714D02*
X3868333Y-18243619D01*
X3868333Y-18243619D02*
X3877857Y-18224571D01*
X3877857Y-18224571D02*
X3887381Y-18215048D01*
X3887381Y-18215048D02*
X3906428Y-18205524D01*
X4163571Y-18405524D02*
X4049286Y-18405524D01*
X4106428Y-18405524D02*
X4106428Y-18205524D01*
X4106428Y-18205524D02*
X4087381Y-18234095D01*
X4087381Y-18234095D02*
X4068333Y-18253143D01*
X4068333Y-18253143D02*
X4049286Y-18262667D01*
X4335000Y-18205524D02*
X4296905Y-18205524D01*
X4296905Y-18205524D02*
X4277857Y-18215048D01*
X4277857Y-18215048D02*
X4268333Y-18224571D01*
X4268333Y-18224571D02*
X4249286Y-18253143D01*
X4249286Y-18253143D02*
X4239762Y-18291238D01*
X4239762Y-18291238D02*
X4239762Y-18367429D01*
X4239762Y-18367429D02*
X4249286Y-18386476D01*
X4249286Y-18386476D02*
X4258810Y-18396000D01*
X4258810Y-18396000D02*
X4277857Y-18405524D01*
X4277857Y-18405524D02*
X4315952Y-18405524D01*
X4315952Y-18405524D02*
X4335000Y-18396000D01*
X4335000Y-18396000D02*
X4344524Y-18386476D01*
X4344524Y-18386476D02*
X4354048Y-18367429D01*
X4354048Y-18367429D02*
X4354048Y-18319810D01*
X4354048Y-18319810D02*
X4344524Y-18300762D01*
X4344524Y-18300762D02*
X4335000Y-18291238D01*
X4335000Y-18291238D02*
X4315952Y-18281714D01*
X4315952Y-18281714D02*
X4277857Y-18281714D01*
X4277857Y-18281714D02*
X4258810Y-18291238D01*
X4258810Y-18291238D02*
X4249286Y-18300762D01*
X4249286Y-18300762D02*
X4239762Y-18319810D01*
X4439762Y-18405524D02*
X4439762Y-18272190D01*
X4439762Y-18291238D02*
X4449286Y-18281714D01*
X4449286Y-18281714D02*
X4468333Y-18272190D01*
X4468333Y-18272190D02*
X4496905Y-18272190D01*
X4496905Y-18272190D02*
X4515952Y-18281714D01*
X4515952Y-18281714D02*
X4525476Y-18300762D01*
X4525476Y-18300762D02*
X4525476Y-18405524D01*
X4525476Y-18300762D02*
X4535000Y-18281714D01*
X4535000Y-18281714D02*
X4554048Y-18272190D01*
X4554048Y-18272190D02*
X4582619Y-18272190D01*
X4582619Y-18272190D02*
X4601667Y-18281714D01*
X4601667Y-18281714D02*
X4611191Y-18300762D01*
X4611191Y-18300762D02*
X4611191Y-18405524D01*
X4706429Y-18405524D02*
X4706429Y-18272190D01*
X4706429Y-18291238D02*
X4715952Y-18281714D01*
X4715952Y-18281714D02*
X4735000Y-18272190D01*
X4735000Y-18272190D02*
X4763572Y-18272190D01*
X4763572Y-18272190D02*
X4782619Y-18281714D01*
X4782619Y-18281714D02*
X4792143Y-18300762D01*
X4792143Y-18300762D02*
X4792143Y-18405524D01*
X4792143Y-18300762D02*
X4801667Y-18281714D01*
X4801667Y-18281714D02*
X4820714Y-18272190D01*
X4820714Y-18272190D02*
X4849286Y-18272190D01*
X4849286Y-18272190D02*
X4868333Y-18281714D01*
X4868333Y-18281714D02*
X4877857Y-18300762D01*
X4877857Y-18300762D02*
X4877857Y-18405524D01*
X5268333Y-18196000D02*
X5096905Y-18453143D01*
X5525476Y-18205524D02*
X5544524Y-18205524D01*
X5544524Y-18205524D02*
X5563572Y-18215048D01*
X5563572Y-18215048D02*
X5573095Y-18224571D01*
X5573095Y-18224571D02*
X5582619Y-18243619D01*
X5582619Y-18243619D02*
X5592143Y-18281714D01*
X5592143Y-18281714D02*
X5592143Y-18329333D01*
X5592143Y-18329333D02*
X5582619Y-18367429D01*
X5582619Y-18367429D02*
X5573095Y-18386476D01*
X5573095Y-18386476D02*
X5563572Y-18396000D01*
X5563572Y-18396000D02*
X5544524Y-18405524D01*
X5544524Y-18405524D02*
X5525476Y-18405524D01*
X5525476Y-18405524D02*
X5506429Y-18396000D01*
X5506429Y-18396000D02*
X5496905Y-18386476D01*
X5496905Y-18386476D02*
X5487381Y-18367429D01*
X5487381Y-18367429D02*
X5477857Y-18329333D01*
X5477857Y-18329333D02*
X5477857Y-18281714D01*
X5477857Y-18281714D02*
X5487381Y-18243619D01*
X5487381Y-18243619D02*
X5496905Y-18224571D01*
X5496905Y-18224571D02*
X5506429Y-18215048D01*
X5506429Y-18215048D02*
X5525476Y-18205524D01*
X5677857Y-18386476D02*
X5687381Y-18396000D01*
X5687381Y-18396000D02*
X5677857Y-18405524D01*
X5677857Y-18405524D02*
X5668333Y-18396000D01*
X5668333Y-18396000D02*
X5677857Y-18386476D01*
X5677857Y-18386476D02*
X5677857Y-18405524D01*
X5811191Y-18205524D02*
X5830238Y-18205524D01*
X5830238Y-18205524D02*
X5849286Y-18215048D01*
X5849286Y-18215048D02*
X5858810Y-18224571D01*
X5858810Y-18224571D02*
X5868333Y-18243619D01*
X5868333Y-18243619D02*
X5877857Y-18281714D01*
X5877857Y-18281714D02*
X5877857Y-18329333D01*
X5877857Y-18329333D02*
X5868333Y-18367429D01*
X5868333Y-18367429D02*
X5858810Y-18386476D01*
X5858810Y-18386476D02*
X5849286Y-18396000D01*
X5849286Y-18396000D02*
X5830238Y-18405524D01*
X5830238Y-18405524D02*
X5811191Y-18405524D01*
X5811191Y-18405524D02*
X5792143Y-18396000D01*
X5792143Y-18396000D02*
X5782619Y-18386476D01*
X5782619Y-18386476D02*
X5773095Y-18367429D01*
X5773095Y-18367429D02*
X5763572Y-18329333D01*
X5763572Y-18329333D02*
X5763572Y-18281714D01*
X5763572Y-18281714D02*
X5773095Y-18243619D01*
X5773095Y-18243619D02*
X5782619Y-18224571D01*
X5782619Y-18224571D02*
X5792143Y-18215048D01*
X5792143Y-18215048D02*
X5811191Y-18205524D01*
X6049286Y-18272190D02*
X6049286Y-18405524D01*
X6001667Y-18196000D02*
X5954048Y-18338857D01*
X5954048Y-18338857D02*
X6077857Y-18338857D01*
X6192143Y-18205524D02*
X6211191Y-18205524D01*
X6211191Y-18205524D02*
X6230238Y-18215048D01*
X6230238Y-18215048D02*
X6239762Y-18224571D01*
X6239762Y-18224571D02*
X6249286Y-18243619D01*
X6249286Y-18243619D02*
X6258810Y-18281714D01*
X6258810Y-18281714D02*
X6258810Y-18329333D01*
X6258810Y-18329333D02*
X6249286Y-18367429D01*
X6249286Y-18367429D02*
X6239762Y-18386476D01*
X6239762Y-18386476D02*
X6230238Y-18396000D01*
X6230238Y-18396000D02*
X6211191Y-18405524D01*
X6211191Y-18405524D02*
X6192143Y-18405524D01*
X6192143Y-18405524D02*
X6173095Y-18396000D01*
X6173095Y-18396000D02*
X6163572Y-18386476D01*
X6163572Y-18386476D02*
X6154048Y-18367429D01*
X6154048Y-18367429D02*
X6144524Y-18329333D01*
X6144524Y-18329333D02*
X6144524Y-18281714D01*
X6144524Y-18281714D02*
X6154048Y-18243619D01*
X6154048Y-18243619D02*
X6163572Y-18224571D01*
X6163572Y-18224571D02*
X6173095Y-18215048D01*
X6173095Y-18215048D02*
X6192143Y-18205524D01*
X6382619Y-18205524D02*
X6401667Y-18205524D01*
X6401667Y-18205524D02*
X6420714Y-18215048D01*
X6420714Y-18215048D02*
X6430238Y-18224571D01*
X6430238Y-18224571D02*
X6439762Y-18243619D01*
X6439762Y-18243619D02*
X6449286Y-18281714D01*
X6449286Y-18281714D02*
X6449286Y-18329333D01*
X6449286Y-18329333D02*
X6439762Y-18367429D01*
X6439762Y-18367429D02*
X6430238Y-18386476D01*
X6430238Y-18386476D02*
X6420714Y-18396000D01*
X6420714Y-18396000D02*
X6401667Y-18405524D01*
X6401667Y-18405524D02*
X6382619Y-18405524D01*
X6382619Y-18405524D02*
X6363572Y-18396000D01*
X6363572Y-18396000D02*
X6354048Y-18386476D01*
X6354048Y-18386476D02*
X6344524Y-18367429D01*
X6344524Y-18367429D02*
X6335000Y-18329333D01*
X6335000Y-18329333D02*
X6335000Y-18281714D01*
X6335000Y-18281714D02*
X6344524Y-18243619D01*
X6344524Y-18243619D02*
X6354048Y-18224571D01*
X6354048Y-18224571D02*
X6363572Y-18215048D01*
X6363572Y-18215048D02*
X6382619Y-18205524D01*
X6525476Y-18205524D02*
X6525476Y-18243619D01*
X6601667Y-18205524D02*
X6601667Y-18243619D01*
X6896905Y-18481714D02*
X6887381Y-18472190D01*
X6887381Y-18472190D02*
X6868334Y-18443619D01*
X6868334Y-18443619D02*
X6858810Y-18424571D01*
X6858810Y-18424571D02*
X6849286Y-18396000D01*
X6849286Y-18396000D02*
X6839762Y-18348381D01*
X6839762Y-18348381D02*
X6839762Y-18310286D01*
X6839762Y-18310286D02*
X6849286Y-18262667D01*
X6849286Y-18262667D02*
X6858810Y-18234095D01*
X6858810Y-18234095D02*
X6868334Y-18215048D01*
X6868334Y-18215048D02*
X6887381Y-18186476D01*
X6887381Y-18186476D02*
X6896905Y-18176952D01*
X7077857Y-18405524D02*
X6963572Y-18405524D01*
X7020714Y-18405524D02*
X7020714Y-18205524D01*
X7020714Y-18205524D02*
X7001667Y-18234095D01*
X7001667Y-18234095D02*
X6982619Y-18253143D01*
X6982619Y-18253143D02*
X6963572Y-18262667D01*
X7154048Y-18224571D02*
X7163572Y-18215048D01*
X7163572Y-18215048D02*
X7182619Y-18205524D01*
X7182619Y-18205524D02*
X7230238Y-18205524D01*
X7230238Y-18205524D02*
X7249286Y-18215048D01*
X7249286Y-18215048D02*
X7258810Y-18224571D01*
X7258810Y-18224571D02*
X7268334Y-18243619D01*
X7268334Y-18243619D02*
X7268334Y-18262667D01*
X7268334Y-18262667D02*
X7258810Y-18291238D01*
X7258810Y-18291238D02*
X7144524Y-18405524D01*
X7144524Y-18405524D02*
X7268334Y-18405524D01*
X7506429Y-18405524D02*
X7506429Y-18205524D01*
X7592143Y-18405524D02*
X7592143Y-18300762D01*
X7592143Y-18300762D02*
X7582619Y-18281714D01*
X7582619Y-18281714D02*
X7563572Y-18272190D01*
X7563572Y-18272190D02*
X7535000Y-18272190D01*
X7535000Y-18272190D02*
X7515953Y-18281714D01*
X7515953Y-18281714D02*
X7506429Y-18291238D01*
X7715953Y-18405524D02*
X7696905Y-18396000D01*
X7696905Y-18396000D02*
X7687381Y-18386476D01*
X7687381Y-18386476D02*
X7677857Y-18367429D01*
X7677857Y-18367429D02*
X7677857Y-18310286D01*
X7677857Y-18310286D02*
X7687381Y-18291238D01*
X7687381Y-18291238D02*
X7696905Y-18281714D01*
X7696905Y-18281714D02*
X7715953Y-18272190D01*
X7715953Y-18272190D02*
X7744524Y-18272190D01*
X7744524Y-18272190D02*
X7763572Y-18281714D01*
X7763572Y-18281714D02*
X7773096Y-18291238D01*
X7773096Y-18291238D02*
X7782619Y-18310286D01*
X7782619Y-18310286D02*
X7782619Y-18367429D01*
X7782619Y-18367429D02*
X7773096Y-18386476D01*
X7773096Y-18386476D02*
X7763572Y-18396000D01*
X7763572Y-18396000D02*
X7744524Y-18405524D01*
X7744524Y-18405524D02*
X7715953Y-18405524D01*
X7896905Y-18405524D02*
X7877857Y-18396000D01*
X7877857Y-18396000D02*
X7868334Y-18376952D01*
X7868334Y-18376952D02*
X7868334Y-18205524D01*
X8049286Y-18396000D02*
X8030238Y-18405524D01*
X8030238Y-18405524D02*
X7992143Y-18405524D01*
X7992143Y-18405524D02*
X7973096Y-18396000D01*
X7973096Y-18396000D02*
X7963572Y-18376952D01*
X7963572Y-18376952D02*
X7963572Y-18300762D01*
X7963572Y-18300762D02*
X7973096Y-18281714D01*
X7973096Y-18281714D02*
X7992143Y-18272190D01*
X7992143Y-18272190D02*
X8030238Y-18272190D01*
X8030238Y-18272190D02*
X8049286Y-18281714D01*
X8049286Y-18281714D02*
X8058810Y-18300762D01*
X8058810Y-18300762D02*
X8058810Y-18319810D01*
X8058810Y-18319810D02*
X7963572Y-18338857D01*
X8135000Y-18396000D02*
X8154048Y-18405524D01*
X8154048Y-18405524D02*
X8192143Y-18405524D01*
X8192143Y-18405524D02*
X8211191Y-18396000D01*
X8211191Y-18396000D02*
X8220715Y-18376952D01*
X8220715Y-18376952D02*
X8220715Y-18367429D01*
X8220715Y-18367429D02*
X8211191Y-18348381D01*
X8211191Y-18348381D02*
X8192143Y-18338857D01*
X8192143Y-18338857D02*
X8163572Y-18338857D01*
X8163572Y-18338857D02*
X8144524Y-18329333D01*
X8144524Y-18329333D02*
X8135000Y-18310286D01*
X8135000Y-18310286D02*
X8135000Y-18300762D01*
X8135000Y-18300762D02*
X8144524Y-18281714D01*
X8144524Y-18281714D02*
X8163572Y-18272190D01*
X8163572Y-18272190D02*
X8192143Y-18272190D01*
X8192143Y-18272190D02*
X8211191Y-18281714D01*
X8287381Y-18481714D02*
X8296905Y-18472190D01*
X8296905Y-18472190D02*
X8315953Y-18443619D01*
X8315953Y-18443619D02*
X8325477Y-18424571D01*
X8325477Y-18424571D02*
X8335000Y-18396000D01*
X8335000Y-18396000D02*
X8344524Y-18348381D01*
X8344524Y-18348381D02*
X8344524Y-18310286D01*
X8344524Y-18310286D02*
X8335000Y-18262667D01*
X8335000Y-18262667D02*
X8325477Y-18234095D01*
X8325477Y-18234095D02*
X8315953Y-18215048D01*
X8315953Y-18215048D02*
X8296905Y-18186476D01*
X8296905Y-18186476D02*
X8287381Y-18176952D01*
D19*
X3220000Y-18519500D02*
X3335000Y-18634500D01*
X3335000Y-18519500D02*
X3220000Y-18634500D01*
X3277500Y-18634500D02*
X3335000Y-18577000D01*
X3277500Y-18519500D01*
X3220000Y-18577000D01*
X3277500Y-18634500D01*
D11*
X3687381Y-18669524D02*
X3573095Y-18669524D01*
X3630238Y-18669524D02*
X3630238Y-18469524D01*
X3630238Y-18469524D02*
X3611190Y-18498095D01*
X3611190Y-18498095D02*
X3592143Y-18517143D01*
X3592143Y-18517143D02*
X3573095Y-18526667D01*
X3773095Y-18650476D02*
X3782619Y-18660000D01*
X3782619Y-18660000D02*
X3773095Y-18669524D01*
X3773095Y-18669524D02*
X3763571Y-18660000D01*
X3763571Y-18660000D02*
X3773095Y-18650476D01*
X3773095Y-18650476D02*
X3773095Y-18669524D01*
X3973095Y-18669524D02*
X3858809Y-18669524D01*
X3915952Y-18669524D02*
X3915952Y-18469524D01*
X3915952Y-18469524D02*
X3896905Y-18498095D01*
X3896905Y-18498095D02*
X3877857Y-18517143D01*
X3877857Y-18517143D02*
X3858809Y-18526667D01*
X4154048Y-18469524D02*
X4058809Y-18469524D01*
X4058809Y-18469524D02*
X4049286Y-18564762D01*
X4049286Y-18564762D02*
X4058809Y-18555238D01*
X4058809Y-18555238D02*
X4077857Y-18545714D01*
X4077857Y-18545714D02*
X4125476Y-18545714D01*
X4125476Y-18545714D02*
X4144524Y-18555238D01*
X4144524Y-18555238D02*
X4154048Y-18564762D01*
X4154048Y-18564762D02*
X4163571Y-18583810D01*
X4163571Y-18583810D02*
X4163571Y-18631429D01*
X4163571Y-18631429D02*
X4154048Y-18650476D01*
X4154048Y-18650476D02*
X4144524Y-18660000D01*
X4144524Y-18660000D02*
X4125476Y-18669524D01*
X4125476Y-18669524D02*
X4077857Y-18669524D01*
X4077857Y-18669524D02*
X4058809Y-18660000D01*
X4058809Y-18660000D02*
X4049286Y-18650476D01*
X4287381Y-18469524D02*
X4306429Y-18469524D01*
X4306429Y-18469524D02*
X4325476Y-18479048D01*
X4325476Y-18479048D02*
X4335000Y-18488571D01*
X4335000Y-18488571D02*
X4344524Y-18507619D01*
X4344524Y-18507619D02*
X4354048Y-18545714D01*
X4354048Y-18545714D02*
X4354048Y-18593333D01*
X4354048Y-18593333D02*
X4344524Y-18631429D01*
X4344524Y-18631429D02*
X4335000Y-18650476D01*
X4335000Y-18650476D02*
X4325476Y-18660000D01*
X4325476Y-18660000D02*
X4306429Y-18669524D01*
X4306429Y-18669524D02*
X4287381Y-18669524D01*
X4287381Y-18669524D02*
X4268333Y-18660000D01*
X4268333Y-18660000D02*
X4258810Y-18650476D01*
X4258810Y-18650476D02*
X4249286Y-18631429D01*
X4249286Y-18631429D02*
X4239762Y-18593333D01*
X4239762Y-18593333D02*
X4239762Y-18545714D01*
X4239762Y-18545714D02*
X4249286Y-18507619D01*
X4249286Y-18507619D02*
X4258810Y-18488571D01*
X4258810Y-18488571D02*
X4268333Y-18479048D01*
X4268333Y-18479048D02*
X4287381Y-18469524D01*
X4439762Y-18669524D02*
X4439762Y-18536190D01*
X4439762Y-18555238D02*
X4449286Y-18545714D01*
X4449286Y-18545714D02*
X4468333Y-18536190D01*
X4468333Y-18536190D02*
X4496905Y-18536190D01*
X4496905Y-18536190D02*
X4515952Y-18545714D01*
X4515952Y-18545714D02*
X4525476Y-18564762D01*
X4525476Y-18564762D02*
X4525476Y-18669524D01*
X4525476Y-18564762D02*
X4535000Y-18545714D01*
X4535000Y-18545714D02*
X4554048Y-18536190D01*
X4554048Y-18536190D02*
X4582619Y-18536190D01*
X4582619Y-18536190D02*
X4601667Y-18545714D01*
X4601667Y-18545714D02*
X4611191Y-18564762D01*
X4611191Y-18564762D02*
X4611191Y-18669524D01*
X4706429Y-18669524D02*
X4706429Y-18536190D01*
X4706429Y-18555238D02*
X4715952Y-18545714D01*
X4715952Y-18545714D02*
X4735000Y-18536190D01*
X4735000Y-18536190D02*
X4763572Y-18536190D01*
X4763572Y-18536190D02*
X4782619Y-18545714D01*
X4782619Y-18545714D02*
X4792143Y-18564762D01*
X4792143Y-18564762D02*
X4792143Y-18669524D01*
X4792143Y-18564762D02*
X4801667Y-18545714D01*
X4801667Y-18545714D02*
X4820714Y-18536190D01*
X4820714Y-18536190D02*
X4849286Y-18536190D01*
X4849286Y-18536190D02*
X4868333Y-18545714D01*
X4868333Y-18545714D02*
X4877857Y-18564762D01*
X4877857Y-18564762D02*
X4877857Y-18669524D01*
X5268333Y-18460000D02*
X5096905Y-18717143D01*
X5525476Y-18469524D02*
X5544524Y-18469524D01*
X5544524Y-18469524D02*
X5563572Y-18479048D01*
X5563572Y-18479048D02*
X5573095Y-18488571D01*
X5573095Y-18488571D02*
X5582619Y-18507619D01*
X5582619Y-18507619D02*
X5592143Y-18545714D01*
X5592143Y-18545714D02*
X5592143Y-18593333D01*
X5592143Y-18593333D02*
X5582619Y-18631429D01*
X5582619Y-18631429D02*
X5573095Y-18650476D01*
X5573095Y-18650476D02*
X5563572Y-18660000D01*
X5563572Y-18660000D02*
X5544524Y-18669524D01*
X5544524Y-18669524D02*
X5525476Y-18669524D01*
X5525476Y-18669524D02*
X5506429Y-18660000D01*
X5506429Y-18660000D02*
X5496905Y-18650476D01*
X5496905Y-18650476D02*
X5487381Y-18631429D01*
X5487381Y-18631429D02*
X5477857Y-18593333D01*
X5477857Y-18593333D02*
X5477857Y-18545714D01*
X5477857Y-18545714D02*
X5487381Y-18507619D01*
X5487381Y-18507619D02*
X5496905Y-18488571D01*
X5496905Y-18488571D02*
X5506429Y-18479048D01*
X5506429Y-18479048D02*
X5525476Y-18469524D01*
X5677857Y-18650476D02*
X5687381Y-18660000D01*
X5687381Y-18660000D02*
X5677857Y-18669524D01*
X5677857Y-18669524D02*
X5668333Y-18660000D01*
X5668333Y-18660000D02*
X5677857Y-18650476D01*
X5677857Y-18650476D02*
X5677857Y-18669524D01*
X5811191Y-18469524D02*
X5830238Y-18469524D01*
X5830238Y-18469524D02*
X5849286Y-18479048D01*
X5849286Y-18479048D02*
X5858810Y-18488571D01*
X5858810Y-18488571D02*
X5868333Y-18507619D01*
X5868333Y-18507619D02*
X5877857Y-18545714D01*
X5877857Y-18545714D02*
X5877857Y-18593333D01*
X5877857Y-18593333D02*
X5868333Y-18631429D01*
X5868333Y-18631429D02*
X5858810Y-18650476D01*
X5858810Y-18650476D02*
X5849286Y-18660000D01*
X5849286Y-18660000D02*
X5830238Y-18669524D01*
X5830238Y-18669524D02*
X5811191Y-18669524D01*
X5811191Y-18669524D02*
X5792143Y-18660000D01*
X5792143Y-18660000D02*
X5782619Y-18650476D01*
X5782619Y-18650476D02*
X5773095Y-18631429D01*
X5773095Y-18631429D02*
X5763572Y-18593333D01*
X5763572Y-18593333D02*
X5763572Y-18545714D01*
X5763572Y-18545714D02*
X5773095Y-18507619D01*
X5773095Y-18507619D02*
X5782619Y-18488571D01*
X5782619Y-18488571D02*
X5792143Y-18479048D01*
X5792143Y-18479048D02*
X5811191Y-18469524D01*
X6049286Y-18536190D02*
X6049286Y-18669524D01*
X6001667Y-18460000D02*
X5954048Y-18602857D01*
X5954048Y-18602857D02*
X6077857Y-18602857D01*
X6249286Y-18469524D02*
X6154048Y-18469524D01*
X6154048Y-18469524D02*
X6144524Y-18564762D01*
X6144524Y-18564762D02*
X6154048Y-18555238D01*
X6154048Y-18555238D02*
X6173095Y-18545714D01*
X6173095Y-18545714D02*
X6220714Y-18545714D01*
X6220714Y-18545714D02*
X6239762Y-18555238D01*
X6239762Y-18555238D02*
X6249286Y-18564762D01*
X6249286Y-18564762D02*
X6258810Y-18583810D01*
X6258810Y-18583810D02*
X6258810Y-18631429D01*
X6258810Y-18631429D02*
X6249286Y-18650476D01*
X6249286Y-18650476D02*
X6239762Y-18660000D01*
X6239762Y-18660000D02*
X6220714Y-18669524D01*
X6220714Y-18669524D02*
X6173095Y-18669524D01*
X6173095Y-18669524D02*
X6154048Y-18660000D01*
X6154048Y-18660000D02*
X6144524Y-18650476D01*
X6325476Y-18469524D02*
X6449286Y-18469524D01*
X6449286Y-18469524D02*
X6382619Y-18545714D01*
X6382619Y-18545714D02*
X6411191Y-18545714D01*
X6411191Y-18545714D02*
X6430238Y-18555238D01*
X6430238Y-18555238D02*
X6439762Y-18564762D01*
X6439762Y-18564762D02*
X6449286Y-18583810D01*
X6449286Y-18583810D02*
X6449286Y-18631429D01*
X6449286Y-18631429D02*
X6439762Y-18650476D01*
X6439762Y-18650476D02*
X6430238Y-18660000D01*
X6430238Y-18660000D02*
X6411191Y-18669524D01*
X6411191Y-18669524D02*
X6354048Y-18669524D01*
X6354048Y-18669524D02*
X6335000Y-18660000D01*
X6335000Y-18660000D02*
X6325476Y-18650476D01*
X6525476Y-18469524D02*
X6525476Y-18507619D01*
X6601667Y-18469524D02*
X6601667Y-18507619D01*
X6896905Y-18745714D02*
X6887381Y-18736190D01*
X6887381Y-18736190D02*
X6868334Y-18707619D01*
X6868334Y-18707619D02*
X6858810Y-18688571D01*
X6858810Y-18688571D02*
X6849286Y-18660000D01*
X6849286Y-18660000D02*
X6839762Y-18612381D01*
X6839762Y-18612381D02*
X6839762Y-18574286D01*
X6839762Y-18574286D02*
X6849286Y-18526667D01*
X6849286Y-18526667D02*
X6858810Y-18498095D01*
X6858810Y-18498095D02*
X6868334Y-18479048D01*
X6868334Y-18479048D02*
X6887381Y-18450476D01*
X6887381Y-18450476D02*
X6896905Y-18440952D01*
X7058810Y-18536190D02*
X7058810Y-18669524D01*
X7011191Y-18460000D02*
X6963572Y-18602857D01*
X6963572Y-18602857D02*
X7087381Y-18602857D01*
X7315953Y-18669524D02*
X7315953Y-18469524D01*
X7401667Y-18669524D02*
X7401667Y-18564762D01*
X7401667Y-18564762D02*
X7392143Y-18545714D01*
X7392143Y-18545714D02*
X7373096Y-18536190D01*
X7373096Y-18536190D02*
X7344524Y-18536190D01*
X7344524Y-18536190D02*
X7325476Y-18545714D01*
X7325476Y-18545714D02*
X7315953Y-18555238D01*
X7525476Y-18669524D02*
X7506429Y-18660000D01*
X7506429Y-18660000D02*
X7496905Y-18650476D01*
X7496905Y-18650476D02*
X7487381Y-18631429D01*
X7487381Y-18631429D02*
X7487381Y-18574286D01*
X7487381Y-18574286D02*
X7496905Y-18555238D01*
X7496905Y-18555238D02*
X7506429Y-18545714D01*
X7506429Y-18545714D02*
X7525476Y-18536190D01*
X7525476Y-18536190D02*
X7554048Y-18536190D01*
X7554048Y-18536190D02*
X7573096Y-18545714D01*
X7573096Y-18545714D02*
X7582619Y-18555238D01*
X7582619Y-18555238D02*
X7592143Y-18574286D01*
X7592143Y-18574286D02*
X7592143Y-18631429D01*
X7592143Y-18631429D02*
X7582619Y-18650476D01*
X7582619Y-18650476D02*
X7573096Y-18660000D01*
X7573096Y-18660000D02*
X7554048Y-18669524D01*
X7554048Y-18669524D02*
X7525476Y-18669524D01*
X7706429Y-18669524D02*
X7687381Y-18660000D01*
X7687381Y-18660000D02*
X7677857Y-18640952D01*
X7677857Y-18640952D02*
X7677857Y-18469524D01*
X7858810Y-18660000D02*
X7839762Y-18669524D01*
X7839762Y-18669524D02*
X7801667Y-18669524D01*
X7801667Y-18669524D02*
X7782619Y-18660000D01*
X7782619Y-18660000D02*
X7773096Y-18640952D01*
X7773096Y-18640952D02*
X7773096Y-18564762D01*
X7773096Y-18564762D02*
X7782619Y-18545714D01*
X7782619Y-18545714D02*
X7801667Y-18536190D01*
X7801667Y-18536190D02*
X7839762Y-18536190D01*
X7839762Y-18536190D02*
X7858810Y-18545714D01*
X7858810Y-18545714D02*
X7868334Y-18564762D01*
X7868334Y-18564762D02*
X7868334Y-18583810D01*
X7868334Y-18583810D02*
X7773096Y-18602857D01*
X7944524Y-18660000D02*
X7963572Y-18669524D01*
X7963572Y-18669524D02*
X8001667Y-18669524D01*
X8001667Y-18669524D02*
X8020715Y-18660000D01*
X8020715Y-18660000D02*
X8030238Y-18640952D01*
X8030238Y-18640952D02*
X8030238Y-18631429D01*
X8030238Y-18631429D02*
X8020715Y-18612381D01*
X8020715Y-18612381D02*
X8001667Y-18602857D01*
X8001667Y-18602857D02*
X7973096Y-18602857D01*
X7973096Y-18602857D02*
X7954048Y-18593333D01*
X7954048Y-18593333D02*
X7944524Y-18574286D01*
X7944524Y-18574286D02*
X7944524Y-18564762D01*
X7944524Y-18564762D02*
X7954048Y-18545714D01*
X7954048Y-18545714D02*
X7973096Y-18536190D01*
X7973096Y-18536190D02*
X8001667Y-18536190D01*
X8001667Y-18536190D02*
X8020715Y-18545714D01*
X8096905Y-18745714D02*
X8106429Y-18736190D01*
X8106429Y-18736190D02*
X8125477Y-18707619D01*
X8125477Y-18707619D02*
X8135000Y-18688571D01*
X8135000Y-18688571D02*
X8144524Y-18660000D01*
X8144524Y-18660000D02*
X8154048Y-18612381D01*
X8154048Y-18612381D02*
X8154048Y-18574286D01*
X8154048Y-18574286D02*
X8144524Y-18526667D01*
X8144524Y-18526667D02*
X8135000Y-18498095D01*
X8135000Y-18498095D02*
X8125477Y-18479048D01*
X8125477Y-18479048D02*
X8106429Y-18450476D01*
X8106429Y-18450476D02*
X8096905Y-18440952D01*
D20*
X3256500Y-18762500D02*
X3256500Y-18919500D01*
X3178000Y-18841000D02*
X3335000Y-18841000D01*
X3335000Y-18841000D02*
G75*
G03*
X3335000Y-18841000I-78500J0D01*
G01*
D11*
X3687381Y-18933524D02*
X3573095Y-18933524D01*
X3630238Y-18933524D02*
X3630238Y-18733524D01*
X3630238Y-18733524D02*
X3611190Y-18762095D01*
X3611190Y-18762095D02*
X3592143Y-18781143D01*
X3592143Y-18781143D02*
X3573095Y-18790667D01*
X3773095Y-18914476D02*
X3782619Y-18924000D01*
X3782619Y-18924000D02*
X3773095Y-18933524D01*
X3773095Y-18933524D02*
X3763571Y-18924000D01*
X3763571Y-18924000D02*
X3773095Y-18914476D01*
X3773095Y-18914476D02*
X3773095Y-18933524D01*
X3963571Y-18733524D02*
X3868333Y-18733524D01*
X3868333Y-18733524D02*
X3858809Y-18828762D01*
X3858809Y-18828762D02*
X3868333Y-18819238D01*
X3868333Y-18819238D02*
X3887381Y-18809714D01*
X3887381Y-18809714D02*
X3935000Y-18809714D01*
X3935000Y-18809714D02*
X3954048Y-18819238D01*
X3954048Y-18819238D02*
X3963571Y-18828762D01*
X3963571Y-18828762D02*
X3973095Y-18847810D01*
X3973095Y-18847810D02*
X3973095Y-18895429D01*
X3973095Y-18895429D02*
X3963571Y-18914476D01*
X3963571Y-18914476D02*
X3954048Y-18924000D01*
X3954048Y-18924000D02*
X3935000Y-18933524D01*
X3935000Y-18933524D02*
X3887381Y-18933524D01*
X3887381Y-18933524D02*
X3868333Y-18924000D01*
X3868333Y-18924000D02*
X3858809Y-18914476D01*
X4039762Y-18733524D02*
X4173095Y-18733524D01*
X4173095Y-18733524D02*
X4087381Y-18933524D01*
X4287381Y-18733524D02*
X4306429Y-18733524D01*
X4306429Y-18733524D02*
X4325476Y-18743048D01*
X4325476Y-18743048D02*
X4335000Y-18752571D01*
X4335000Y-18752571D02*
X4344524Y-18771619D01*
X4344524Y-18771619D02*
X4354048Y-18809714D01*
X4354048Y-18809714D02*
X4354048Y-18857333D01*
X4354048Y-18857333D02*
X4344524Y-18895429D01*
X4344524Y-18895429D02*
X4335000Y-18914476D01*
X4335000Y-18914476D02*
X4325476Y-18924000D01*
X4325476Y-18924000D02*
X4306429Y-18933524D01*
X4306429Y-18933524D02*
X4287381Y-18933524D01*
X4287381Y-18933524D02*
X4268333Y-18924000D01*
X4268333Y-18924000D02*
X4258810Y-18914476D01*
X4258810Y-18914476D02*
X4249286Y-18895429D01*
X4249286Y-18895429D02*
X4239762Y-18857333D01*
X4239762Y-18857333D02*
X4239762Y-18809714D01*
X4239762Y-18809714D02*
X4249286Y-18771619D01*
X4249286Y-18771619D02*
X4258810Y-18752571D01*
X4258810Y-18752571D02*
X4268333Y-18743048D01*
X4268333Y-18743048D02*
X4287381Y-18733524D01*
X4439762Y-18933524D02*
X4439762Y-18800190D01*
X4439762Y-18819238D02*
X4449286Y-18809714D01*
X4449286Y-18809714D02*
X4468333Y-18800190D01*
X4468333Y-18800190D02*
X4496905Y-18800190D01*
X4496905Y-18800190D02*
X4515952Y-18809714D01*
X4515952Y-18809714D02*
X4525476Y-18828762D01*
X4525476Y-18828762D02*
X4525476Y-18933524D01*
X4525476Y-18828762D02*
X4535000Y-18809714D01*
X4535000Y-18809714D02*
X4554048Y-18800190D01*
X4554048Y-18800190D02*
X4582619Y-18800190D01*
X4582619Y-18800190D02*
X4601667Y-18809714D01*
X4601667Y-18809714D02*
X4611191Y-18828762D01*
X4611191Y-18828762D02*
X4611191Y-18933524D01*
X4706429Y-18933524D02*
X4706429Y-18800190D01*
X4706429Y-18819238D02*
X4715952Y-18809714D01*
X4715952Y-18809714D02*
X4735000Y-18800190D01*
X4735000Y-18800190D02*
X4763572Y-18800190D01*
X4763572Y-18800190D02*
X4782619Y-18809714D01*
X4782619Y-18809714D02*
X4792143Y-18828762D01*
X4792143Y-18828762D02*
X4792143Y-18933524D01*
X4792143Y-18828762D02*
X4801667Y-18809714D01*
X4801667Y-18809714D02*
X4820714Y-18800190D01*
X4820714Y-18800190D02*
X4849286Y-18800190D01*
X4849286Y-18800190D02*
X4868333Y-18809714D01*
X4868333Y-18809714D02*
X4877857Y-18828762D01*
X4877857Y-18828762D02*
X4877857Y-18933524D01*
X5268333Y-18724000D02*
X5096905Y-18981143D01*
X5525476Y-18733524D02*
X5544524Y-18733524D01*
X5544524Y-18733524D02*
X5563572Y-18743048D01*
X5563572Y-18743048D02*
X5573095Y-18752571D01*
X5573095Y-18752571D02*
X5582619Y-18771619D01*
X5582619Y-18771619D02*
X5592143Y-18809714D01*
X5592143Y-18809714D02*
X5592143Y-18857333D01*
X5592143Y-18857333D02*
X5582619Y-18895429D01*
X5582619Y-18895429D02*
X5573095Y-18914476D01*
X5573095Y-18914476D02*
X5563572Y-18924000D01*
X5563572Y-18924000D02*
X5544524Y-18933524D01*
X5544524Y-18933524D02*
X5525476Y-18933524D01*
X5525476Y-18933524D02*
X5506429Y-18924000D01*
X5506429Y-18924000D02*
X5496905Y-18914476D01*
X5496905Y-18914476D02*
X5487381Y-18895429D01*
X5487381Y-18895429D02*
X5477857Y-18857333D01*
X5477857Y-18857333D02*
X5477857Y-18809714D01*
X5477857Y-18809714D02*
X5487381Y-18771619D01*
X5487381Y-18771619D02*
X5496905Y-18752571D01*
X5496905Y-18752571D02*
X5506429Y-18743048D01*
X5506429Y-18743048D02*
X5525476Y-18733524D01*
X5677857Y-18914476D02*
X5687381Y-18924000D01*
X5687381Y-18924000D02*
X5677857Y-18933524D01*
X5677857Y-18933524D02*
X5668333Y-18924000D01*
X5668333Y-18924000D02*
X5677857Y-18914476D01*
X5677857Y-18914476D02*
X5677857Y-18933524D01*
X5811191Y-18733524D02*
X5830238Y-18733524D01*
X5830238Y-18733524D02*
X5849286Y-18743048D01*
X5849286Y-18743048D02*
X5858810Y-18752571D01*
X5858810Y-18752571D02*
X5868333Y-18771619D01*
X5868333Y-18771619D02*
X5877857Y-18809714D01*
X5877857Y-18809714D02*
X5877857Y-18857333D01*
X5877857Y-18857333D02*
X5868333Y-18895429D01*
X5868333Y-18895429D02*
X5858810Y-18914476D01*
X5858810Y-18914476D02*
X5849286Y-18924000D01*
X5849286Y-18924000D02*
X5830238Y-18933524D01*
X5830238Y-18933524D02*
X5811191Y-18933524D01*
X5811191Y-18933524D02*
X5792143Y-18924000D01*
X5792143Y-18924000D02*
X5782619Y-18914476D01*
X5782619Y-18914476D02*
X5773095Y-18895429D01*
X5773095Y-18895429D02*
X5763572Y-18857333D01*
X5763572Y-18857333D02*
X5763572Y-18809714D01*
X5763572Y-18809714D02*
X5773095Y-18771619D01*
X5773095Y-18771619D02*
X5782619Y-18752571D01*
X5782619Y-18752571D02*
X5792143Y-18743048D01*
X5792143Y-18743048D02*
X5811191Y-18733524D01*
X6049286Y-18733524D02*
X6011191Y-18733524D01*
X6011191Y-18733524D02*
X5992143Y-18743048D01*
X5992143Y-18743048D02*
X5982619Y-18752571D01*
X5982619Y-18752571D02*
X5963572Y-18781143D01*
X5963572Y-18781143D02*
X5954048Y-18819238D01*
X5954048Y-18819238D02*
X5954048Y-18895429D01*
X5954048Y-18895429D02*
X5963572Y-18914476D01*
X5963572Y-18914476D02*
X5973095Y-18924000D01*
X5973095Y-18924000D02*
X5992143Y-18933524D01*
X5992143Y-18933524D02*
X6030238Y-18933524D01*
X6030238Y-18933524D02*
X6049286Y-18924000D01*
X6049286Y-18924000D02*
X6058810Y-18914476D01*
X6058810Y-18914476D02*
X6068333Y-18895429D01*
X6068333Y-18895429D02*
X6068333Y-18847810D01*
X6068333Y-18847810D02*
X6058810Y-18828762D01*
X6058810Y-18828762D02*
X6049286Y-18819238D01*
X6049286Y-18819238D02*
X6030238Y-18809714D01*
X6030238Y-18809714D02*
X5992143Y-18809714D01*
X5992143Y-18809714D02*
X5973095Y-18819238D01*
X5973095Y-18819238D02*
X5963572Y-18828762D01*
X5963572Y-18828762D02*
X5954048Y-18847810D01*
X6258810Y-18933524D02*
X6144524Y-18933524D01*
X6201667Y-18933524D02*
X6201667Y-18733524D01*
X6201667Y-18733524D02*
X6182619Y-18762095D01*
X6182619Y-18762095D02*
X6163572Y-18781143D01*
X6163572Y-18781143D02*
X6144524Y-18790667D01*
X6373095Y-18819238D02*
X6354048Y-18809714D01*
X6354048Y-18809714D02*
X6344524Y-18800190D01*
X6344524Y-18800190D02*
X6335000Y-18781143D01*
X6335000Y-18781143D02*
X6335000Y-18771619D01*
X6335000Y-18771619D02*
X6344524Y-18752571D01*
X6344524Y-18752571D02*
X6354048Y-18743048D01*
X6354048Y-18743048D02*
X6373095Y-18733524D01*
X6373095Y-18733524D02*
X6411191Y-18733524D01*
X6411191Y-18733524D02*
X6430238Y-18743048D01*
X6430238Y-18743048D02*
X6439762Y-18752571D01*
X6439762Y-18752571D02*
X6449286Y-18771619D01*
X6449286Y-18771619D02*
X6449286Y-18781143D01*
X6449286Y-18781143D02*
X6439762Y-18800190D01*
X6439762Y-18800190D02*
X6430238Y-18809714D01*
X6430238Y-18809714D02*
X6411191Y-18819238D01*
X6411191Y-18819238D02*
X6373095Y-18819238D01*
X6373095Y-18819238D02*
X6354048Y-18828762D01*
X6354048Y-18828762D02*
X6344524Y-18838286D01*
X6344524Y-18838286D02*
X6335000Y-18857333D01*
X6335000Y-18857333D02*
X6335000Y-18895429D01*
X6335000Y-18895429D02*
X6344524Y-18914476D01*
X6344524Y-18914476D02*
X6354048Y-18924000D01*
X6354048Y-18924000D02*
X6373095Y-18933524D01*
X6373095Y-18933524D02*
X6411191Y-18933524D01*
X6411191Y-18933524D02*
X6430238Y-18924000D01*
X6430238Y-18924000D02*
X6439762Y-18914476D01*
X6439762Y-18914476D02*
X6449286Y-18895429D01*
X6449286Y-18895429D02*
X6449286Y-18857333D01*
X6449286Y-18857333D02*
X6439762Y-18838286D01*
X6439762Y-18838286D02*
X6430238Y-18828762D01*
X6430238Y-18828762D02*
X6411191Y-18819238D01*
X6525476Y-18733524D02*
X6525476Y-18771619D01*
X6601667Y-18733524D02*
X6601667Y-18771619D01*
X6896905Y-19009714D02*
X6887381Y-19000190D01*
X6887381Y-19000190D02*
X6868334Y-18971619D01*
X6868334Y-18971619D02*
X6858810Y-18952571D01*
X6858810Y-18952571D02*
X6849286Y-18924000D01*
X6849286Y-18924000D02*
X6839762Y-18876381D01*
X6839762Y-18876381D02*
X6839762Y-18838286D01*
X6839762Y-18838286D02*
X6849286Y-18790667D01*
X6849286Y-18790667D02*
X6858810Y-18762095D01*
X6858810Y-18762095D02*
X6868334Y-18743048D01*
X6868334Y-18743048D02*
X6887381Y-18714476D01*
X6887381Y-18714476D02*
X6896905Y-18704952D01*
X6963572Y-18752571D02*
X6973095Y-18743048D01*
X6973095Y-18743048D02*
X6992143Y-18733524D01*
X6992143Y-18733524D02*
X7039762Y-18733524D01*
X7039762Y-18733524D02*
X7058810Y-18743048D01*
X7058810Y-18743048D02*
X7068334Y-18752571D01*
X7068334Y-18752571D02*
X7077857Y-18771619D01*
X7077857Y-18771619D02*
X7077857Y-18790667D01*
X7077857Y-18790667D02*
X7068334Y-18819238D01*
X7068334Y-18819238D02*
X6954048Y-18933524D01*
X6954048Y-18933524D02*
X7077857Y-18933524D01*
X7315953Y-18933524D02*
X7315953Y-18733524D01*
X7401667Y-18933524D02*
X7401667Y-18828762D01*
X7401667Y-18828762D02*
X7392143Y-18809714D01*
X7392143Y-18809714D02*
X7373096Y-18800190D01*
X7373096Y-18800190D02*
X7344524Y-18800190D01*
X7344524Y-18800190D02*
X7325476Y-18809714D01*
X7325476Y-18809714D02*
X7315953Y-18819238D01*
X7525476Y-18933524D02*
X7506429Y-18924000D01*
X7506429Y-18924000D02*
X7496905Y-18914476D01*
X7496905Y-18914476D02*
X7487381Y-18895429D01*
X7487381Y-18895429D02*
X7487381Y-18838286D01*
X7487381Y-18838286D02*
X7496905Y-18819238D01*
X7496905Y-18819238D02*
X7506429Y-18809714D01*
X7506429Y-18809714D02*
X7525476Y-18800190D01*
X7525476Y-18800190D02*
X7554048Y-18800190D01*
X7554048Y-18800190D02*
X7573096Y-18809714D01*
X7573096Y-18809714D02*
X7582619Y-18819238D01*
X7582619Y-18819238D02*
X7592143Y-18838286D01*
X7592143Y-18838286D02*
X7592143Y-18895429D01*
X7592143Y-18895429D02*
X7582619Y-18914476D01*
X7582619Y-18914476D02*
X7573096Y-18924000D01*
X7573096Y-18924000D02*
X7554048Y-18933524D01*
X7554048Y-18933524D02*
X7525476Y-18933524D01*
X7706429Y-18933524D02*
X7687381Y-18924000D01*
X7687381Y-18924000D02*
X7677857Y-18904952D01*
X7677857Y-18904952D02*
X7677857Y-18733524D01*
X7858810Y-18924000D02*
X7839762Y-18933524D01*
X7839762Y-18933524D02*
X7801667Y-18933524D01*
X7801667Y-18933524D02*
X7782619Y-18924000D01*
X7782619Y-18924000D02*
X7773096Y-18904952D01*
X7773096Y-18904952D02*
X7773096Y-18828762D01*
X7773096Y-18828762D02*
X7782619Y-18809714D01*
X7782619Y-18809714D02*
X7801667Y-18800190D01*
X7801667Y-18800190D02*
X7839762Y-18800190D01*
X7839762Y-18800190D02*
X7858810Y-18809714D01*
X7858810Y-18809714D02*
X7868334Y-18828762D01*
X7868334Y-18828762D02*
X7868334Y-18847810D01*
X7868334Y-18847810D02*
X7773096Y-18866857D01*
X7944524Y-18924000D02*
X7963572Y-18933524D01*
X7963572Y-18933524D02*
X8001667Y-18933524D01*
X8001667Y-18933524D02*
X8020715Y-18924000D01*
X8020715Y-18924000D02*
X8030238Y-18904952D01*
X8030238Y-18904952D02*
X8030238Y-18895429D01*
X8030238Y-18895429D02*
X8020715Y-18876381D01*
X8020715Y-18876381D02*
X8001667Y-18866857D01*
X8001667Y-18866857D02*
X7973096Y-18866857D01*
X7973096Y-18866857D02*
X7954048Y-18857333D01*
X7954048Y-18857333D02*
X7944524Y-18838286D01*
X7944524Y-18838286D02*
X7944524Y-18828762D01*
X7944524Y-18828762D02*
X7954048Y-18809714D01*
X7954048Y-18809714D02*
X7973096Y-18800190D01*
X7973096Y-18800190D02*
X8001667Y-18800190D01*
X8001667Y-18800190D02*
X8020715Y-18809714D01*
X8096905Y-19009714D02*
X8106429Y-19000190D01*
X8106429Y-19000190D02*
X8125477Y-18971619D01*
X8125477Y-18971619D02*
X8135000Y-18952571D01*
X8135000Y-18952571D02*
X8144524Y-18924000D01*
X8144524Y-18924000D02*
X8154048Y-18876381D01*
X8154048Y-18876381D02*
X8154048Y-18838286D01*
X8154048Y-18838286D02*
X8144524Y-18790667D01*
X8144524Y-18790667D02*
X8135000Y-18762095D01*
X8135000Y-18762095D02*
X8125477Y-18743048D01*
X8125477Y-18743048D02*
X8106429Y-18714476D01*
X8106429Y-18714476D02*
X8096905Y-18704952D01*
D21*
X3311938Y-19173678D02*
X3311938Y-19062322D01*
X3200582Y-19062322D01*
X3200582Y-19173678D01*
X3311938Y-19173678D01*
X3335000Y-19118000D02*
G75*
G03*
X3335000Y-19118000I-78740J0D01*
G01*
D11*
X3687381Y-19210524D02*
X3573095Y-19210524D01*
X3630238Y-19210524D02*
X3630238Y-19010524D01*
X3630238Y-19010524D02*
X3611190Y-19039095D01*
X3611190Y-19039095D02*
X3592143Y-19058143D01*
X3592143Y-19058143D02*
X3573095Y-19067667D01*
X3773095Y-19191476D02*
X3782619Y-19201000D01*
X3782619Y-19201000D02*
X3773095Y-19210524D01*
X3773095Y-19210524D02*
X3763571Y-19201000D01*
X3763571Y-19201000D02*
X3773095Y-19191476D01*
X3773095Y-19191476D02*
X3773095Y-19210524D01*
X3963571Y-19010524D02*
X3868333Y-19010524D01*
X3868333Y-19010524D02*
X3858809Y-19105762D01*
X3858809Y-19105762D02*
X3868333Y-19096238D01*
X3868333Y-19096238D02*
X3887381Y-19086714D01*
X3887381Y-19086714D02*
X3935000Y-19086714D01*
X3935000Y-19086714D02*
X3954048Y-19096238D01*
X3954048Y-19096238D02*
X3963571Y-19105762D01*
X3963571Y-19105762D02*
X3973095Y-19124810D01*
X3973095Y-19124810D02*
X3973095Y-19172429D01*
X3973095Y-19172429D02*
X3963571Y-19191476D01*
X3963571Y-19191476D02*
X3954048Y-19201000D01*
X3954048Y-19201000D02*
X3935000Y-19210524D01*
X3935000Y-19210524D02*
X3887381Y-19210524D01*
X3887381Y-19210524D02*
X3868333Y-19201000D01*
X3868333Y-19201000D02*
X3858809Y-19191476D01*
X4039762Y-19010524D02*
X4173095Y-19010524D01*
X4173095Y-19010524D02*
X4087381Y-19210524D01*
X4344524Y-19010524D02*
X4249286Y-19010524D01*
X4249286Y-19010524D02*
X4239762Y-19105762D01*
X4239762Y-19105762D02*
X4249286Y-19096238D01*
X4249286Y-19096238D02*
X4268333Y-19086714D01*
X4268333Y-19086714D02*
X4315952Y-19086714D01*
X4315952Y-19086714D02*
X4335000Y-19096238D01*
X4335000Y-19096238D02*
X4344524Y-19105762D01*
X4344524Y-19105762D02*
X4354048Y-19124810D01*
X4354048Y-19124810D02*
X4354048Y-19172429D01*
X4354048Y-19172429D02*
X4344524Y-19191476D01*
X4344524Y-19191476D02*
X4335000Y-19201000D01*
X4335000Y-19201000D02*
X4315952Y-19210524D01*
X4315952Y-19210524D02*
X4268333Y-19210524D01*
X4268333Y-19210524D02*
X4249286Y-19201000D01*
X4249286Y-19201000D02*
X4239762Y-19191476D01*
X4439762Y-19210524D02*
X4439762Y-19077190D01*
X4439762Y-19096238D02*
X4449286Y-19086714D01*
X4449286Y-19086714D02*
X4468333Y-19077190D01*
X4468333Y-19077190D02*
X4496905Y-19077190D01*
X4496905Y-19077190D02*
X4515952Y-19086714D01*
X4515952Y-19086714D02*
X4525476Y-19105762D01*
X4525476Y-19105762D02*
X4525476Y-19210524D01*
X4525476Y-19105762D02*
X4535000Y-19086714D01*
X4535000Y-19086714D02*
X4554048Y-19077190D01*
X4554048Y-19077190D02*
X4582619Y-19077190D01*
X4582619Y-19077190D02*
X4601667Y-19086714D01*
X4601667Y-19086714D02*
X4611191Y-19105762D01*
X4611191Y-19105762D02*
X4611191Y-19210524D01*
X4706429Y-19210524D02*
X4706429Y-19077190D01*
X4706429Y-19096238D02*
X4715952Y-19086714D01*
X4715952Y-19086714D02*
X4735000Y-19077190D01*
X4735000Y-19077190D02*
X4763572Y-19077190D01*
X4763572Y-19077190D02*
X4782619Y-19086714D01*
X4782619Y-19086714D02*
X4792143Y-19105762D01*
X4792143Y-19105762D02*
X4792143Y-19210524D01*
X4792143Y-19105762D02*
X4801667Y-19086714D01*
X4801667Y-19086714D02*
X4820714Y-19077190D01*
X4820714Y-19077190D02*
X4849286Y-19077190D01*
X4849286Y-19077190D02*
X4868333Y-19086714D01*
X4868333Y-19086714D02*
X4877857Y-19105762D01*
X4877857Y-19105762D02*
X4877857Y-19210524D01*
X5268333Y-19001000D02*
X5096905Y-19258143D01*
X5525476Y-19010524D02*
X5544524Y-19010524D01*
X5544524Y-19010524D02*
X5563572Y-19020048D01*
X5563572Y-19020048D02*
X5573095Y-19029571D01*
X5573095Y-19029571D02*
X5582619Y-19048619D01*
X5582619Y-19048619D02*
X5592143Y-19086714D01*
X5592143Y-19086714D02*
X5592143Y-19134333D01*
X5592143Y-19134333D02*
X5582619Y-19172429D01*
X5582619Y-19172429D02*
X5573095Y-19191476D01*
X5573095Y-19191476D02*
X5563572Y-19201000D01*
X5563572Y-19201000D02*
X5544524Y-19210524D01*
X5544524Y-19210524D02*
X5525476Y-19210524D01*
X5525476Y-19210524D02*
X5506429Y-19201000D01*
X5506429Y-19201000D02*
X5496905Y-19191476D01*
X5496905Y-19191476D02*
X5487381Y-19172429D01*
X5487381Y-19172429D02*
X5477857Y-19134333D01*
X5477857Y-19134333D02*
X5477857Y-19086714D01*
X5477857Y-19086714D02*
X5487381Y-19048619D01*
X5487381Y-19048619D02*
X5496905Y-19029571D01*
X5496905Y-19029571D02*
X5506429Y-19020048D01*
X5506429Y-19020048D02*
X5525476Y-19010524D01*
X5677857Y-19191476D02*
X5687381Y-19201000D01*
X5687381Y-19201000D02*
X5677857Y-19210524D01*
X5677857Y-19210524D02*
X5668333Y-19201000D01*
X5668333Y-19201000D02*
X5677857Y-19191476D01*
X5677857Y-19191476D02*
X5677857Y-19210524D01*
X5811191Y-19010524D02*
X5830238Y-19010524D01*
X5830238Y-19010524D02*
X5849286Y-19020048D01*
X5849286Y-19020048D02*
X5858810Y-19029571D01*
X5858810Y-19029571D02*
X5868333Y-19048619D01*
X5868333Y-19048619D02*
X5877857Y-19086714D01*
X5877857Y-19086714D02*
X5877857Y-19134333D01*
X5877857Y-19134333D02*
X5868333Y-19172429D01*
X5868333Y-19172429D02*
X5858810Y-19191476D01*
X5858810Y-19191476D02*
X5849286Y-19201000D01*
X5849286Y-19201000D02*
X5830238Y-19210524D01*
X5830238Y-19210524D02*
X5811191Y-19210524D01*
X5811191Y-19210524D02*
X5792143Y-19201000D01*
X5792143Y-19201000D02*
X5782619Y-19191476D01*
X5782619Y-19191476D02*
X5773095Y-19172429D01*
X5773095Y-19172429D02*
X5763572Y-19134333D01*
X5763572Y-19134333D02*
X5763572Y-19086714D01*
X5763572Y-19086714D02*
X5773095Y-19048619D01*
X5773095Y-19048619D02*
X5782619Y-19029571D01*
X5782619Y-19029571D02*
X5792143Y-19020048D01*
X5792143Y-19020048D02*
X5811191Y-19010524D01*
X6049286Y-19010524D02*
X6011191Y-19010524D01*
X6011191Y-19010524D02*
X5992143Y-19020048D01*
X5992143Y-19020048D02*
X5982619Y-19029571D01*
X5982619Y-19029571D02*
X5963572Y-19058143D01*
X5963572Y-19058143D02*
X5954048Y-19096238D01*
X5954048Y-19096238D02*
X5954048Y-19172429D01*
X5954048Y-19172429D02*
X5963572Y-19191476D01*
X5963572Y-19191476D02*
X5973095Y-19201000D01*
X5973095Y-19201000D02*
X5992143Y-19210524D01*
X5992143Y-19210524D02*
X6030238Y-19210524D01*
X6030238Y-19210524D02*
X6049286Y-19201000D01*
X6049286Y-19201000D02*
X6058810Y-19191476D01*
X6058810Y-19191476D02*
X6068333Y-19172429D01*
X6068333Y-19172429D02*
X6068333Y-19124810D01*
X6068333Y-19124810D02*
X6058810Y-19105762D01*
X6058810Y-19105762D02*
X6049286Y-19096238D01*
X6049286Y-19096238D02*
X6030238Y-19086714D01*
X6030238Y-19086714D02*
X5992143Y-19086714D01*
X5992143Y-19086714D02*
X5973095Y-19096238D01*
X5973095Y-19096238D02*
X5963572Y-19105762D01*
X5963572Y-19105762D02*
X5954048Y-19124810D01*
X6144524Y-19029571D02*
X6154048Y-19020048D01*
X6154048Y-19020048D02*
X6173095Y-19010524D01*
X6173095Y-19010524D02*
X6220714Y-19010524D01*
X6220714Y-19010524D02*
X6239762Y-19020048D01*
X6239762Y-19020048D02*
X6249286Y-19029571D01*
X6249286Y-19029571D02*
X6258810Y-19048619D01*
X6258810Y-19048619D02*
X6258810Y-19067667D01*
X6258810Y-19067667D02*
X6249286Y-19096238D01*
X6249286Y-19096238D02*
X6135000Y-19210524D01*
X6135000Y-19210524D02*
X6258810Y-19210524D01*
X6382619Y-19010524D02*
X6401667Y-19010524D01*
X6401667Y-19010524D02*
X6420714Y-19020048D01*
X6420714Y-19020048D02*
X6430238Y-19029571D01*
X6430238Y-19029571D02*
X6439762Y-19048619D01*
X6439762Y-19048619D02*
X6449286Y-19086714D01*
X6449286Y-19086714D02*
X6449286Y-19134333D01*
X6449286Y-19134333D02*
X6439762Y-19172429D01*
X6439762Y-19172429D02*
X6430238Y-19191476D01*
X6430238Y-19191476D02*
X6420714Y-19201000D01*
X6420714Y-19201000D02*
X6401667Y-19210524D01*
X6401667Y-19210524D02*
X6382619Y-19210524D01*
X6382619Y-19210524D02*
X6363572Y-19201000D01*
X6363572Y-19201000D02*
X6354048Y-19191476D01*
X6354048Y-19191476D02*
X6344524Y-19172429D01*
X6344524Y-19172429D02*
X6335000Y-19134333D01*
X6335000Y-19134333D02*
X6335000Y-19086714D01*
X6335000Y-19086714D02*
X6344524Y-19048619D01*
X6344524Y-19048619D02*
X6354048Y-19029571D01*
X6354048Y-19029571D02*
X6363572Y-19020048D01*
X6363572Y-19020048D02*
X6382619Y-19010524D01*
X6525476Y-19010524D02*
X6525476Y-19048619D01*
X6601667Y-19010524D02*
X6601667Y-19048619D01*
X6896905Y-19286714D02*
X6887381Y-19277190D01*
X6887381Y-19277190D02*
X6868334Y-19248619D01*
X6868334Y-19248619D02*
X6858810Y-19229571D01*
X6858810Y-19229571D02*
X6849286Y-19201000D01*
X6849286Y-19201000D02*
X6839762Y-19153381D01*
X6839762Y-19153381D02*
X6839762Y-19115286D01*
X6839762Y-19115286D02*
X6849286Y-19067667D01*
X6849286Y-19067667D02*
X6858810Y-19039095D01*
X6858810Y-19039095D02*
X6868334Y-19020048D01*
X6868334Y-19020048D02*
X6887381Y-18991476D01*
X6887381Y-18991476D02*
X6896905Y-18981952D01*
X6963572Y-19029571D02*
X6973095Y-19020048D01*
X6973095Y-19020048D02*
X6992143Y-19010524D01*
X6992143Y-19010524D02*
X7039762Y-19010524D01*
X7039762Y-19010524D02*
X7058810Y-19020048D01*
X7058810Y-19020048D02*
X7068334Y-19029571D01*
X7068334Y-19029571D02*
X7077857Y-19048619D01*
X7077857Y-19048619D02*
X7077857Y-19067667D01*
X7077857Y-19067667D02*
X7068334Y-19096238D01*
X7068334Y-19096238D02*
X6954048Y-19210524D01*
X6954048Y-19210524D02*
X7077857Y-19210524D01*
X7315953Y-19210524D02*
X7315953Y-19010524D01*
X7401667Y-19210524D02*
X7401667Y-19105762D01*
X7401667Y-19105762D02*
X7392143Y-19086714D01*
X7392143Y-19086714D02*
X7373096Y-19077190D01*
X7373096Y-19077190D02*
X7344524Y-19077190D01*
X7344524Y-19077190D02*
X7325476Y-19086714D01*
X7325476Y-19086714D02*
X7315953Y-19096238D01*
X7525476Y-19210524D02*
X7506429Y-19201000D01*
X7506429Y-19201000D02*
X7496905Y-19191476D01*
X7496905Y-19191476D02*
X7487381Y-19172429D01*
X7487381Y-19172429D02*
X7487381Y-19115286D01*
X7487381Y-19115286D02*
X7496905Y-19096238D01*
X7496905Y-19096238D02*
X7506429Y-19086714D01*
X7506429Y-19086714D02*
X7525476Y-19077190D01*
X7525476Y-19077190D02*
X7554048Y-19077190D01*
X7554048Y-19077190D02*
X7573096Y-19086714D01*
X7573096Y-19086714D02*
X7582619Y-19096238D01*
X7582619Y-19096238D02*
X7592143Y-19115286D01*
X7592143Y-19115286D02*
X7592143Y-19172429D01*
X7592143Y-19172429D02*
X7582619Y-19191476D01*
X7582619Y-19191476D02*
X7573096Y-19201000D01*
X7573096Y-19201000D02*
X7554048Y-19210524D01*
X7554048Y-19210524D02*
X7525476Y-19210524D01*
X7706429Y-19210524D02*
X7687381Y-19201000D01*
X7687381Y-19201000D02*
X7677857Y-19181952D01*
X7677857Y-19181952D02*
X7677857Y-19010524D01*
X7858810Y-19201000D02*
X7839762Y-19210524D01*
X7839762Y-19210524D02*
X7801667Y-19210524D01*
X7801667Y-19210524D02*
X7782619Y-19201000D01*
X7782619Y-19201000D02*
X7773096Y-19181952D01*
X7773096Y-19181952D02*
X7773096Y-19105762D01*
X7773096Y-19105762D02*
X7782619Y-19086714D01*
X7782619Y-19086714D02*
X7801667Y-19077190D01*
X7801667Y-19077190D02*
X7839762Y-19077190D01*
X7839762Y-19077190D02*
X7858810Y-19086714D01*
X7858810Y-19086714D02*
X7868334Y-19105762D01*
X7868334Y-19105762D02*
X7868334Y-19124810D01*
X7868334Y-19124810D02*
X7773096Y-19143857D01*
X7944524Y-19201000D02*
X7963572Y-19210524D01*
X7963572Y-19210524D02*
X8001667Y-19210524D01*
X8001667Y-19210524D02*
X8020715Y-19201000D01*
X8020715Y-19201000D02*
X8030238Y-19181952D01*
X8030238Y-19181952D02*
X8030238Y-19172429D01*
X8030238Y-19172429D02*
X8020715Y-19153381D01*
X8020715Y-19153381D02*
X8001667Y-19143857D01*
X8001667Y-19143857D02*
X7973096Y-19143857D01*
X7973096Y-19143857D02*
X7954048Y-19134333D01*
X7954048Y-19134333D02*
X7944524Y-19115286D01*
X7944524Y-19115286D02*
X7944524Y-19105762D01*
X7944524Y-19105762D02*
X7954048Y-19086714D01*
X7954048Y-19086714D02*
X7973096Y-19077190D01*
X7973096Y-19077190D02*
X8001667Y-19077190D01*
X8001667Y-19077190D02*
X8020715Y-19086714D01*
X8096905Y-19286714D02*
X8106429Y-19277190D01*
X8106429Y-19277190D02*
X8125477Y-19248619D01*
X8125477Y-19248619D02*
X8135000Y-19229571D01*
X8135000Y-19229571D02*
X8144524Y-19201000D01*
X8144524Y-19201000D02*
X8154048Y-19153381D01*
X8154048Y-19153381D02*
X8154048Y-19115286D01*
X8154048Y-19115286D02*
X8144524Y-19067667D01*
X8144524Y-19067667D02*
X8135000Y-19039095D01*
X8135000Y-19039095D02*
X8125477Y-19020048D01*
X8125477Y-19020048D02*
X8106429Y-18991476D01*
X8106429Y-18991476D02*
X8096905Y-18981952D01*
X3235000Y-19495480D02*
X3335000Y-19395480D01*
X3235000Y-19295480D01*
X3135000Y-19395480D01*
X3235000Y-19495480D01*
X3335000Y-19395480D02*
G75*
G03*
X3335000Y-19395480I-100000J0D01*
G01*
X3573095Y-19307051D02*
X3582619Y-19297528D01*
X3582619Y-19297528D02*
X3601667Y-19288004D01*
X3601667Y-19288004D02*
X3649286Y-19288004D01*
X3649286Y-19288004D02*
X3668333Y-19297528D01*
X3668333Y-19297528D02*
X3677857Y-19307051D01*
X3677857Y-19307051D02*
X3687381Y-19326099D01*
X3687381Y-19326099D02*
X3687381Y-19345147D01*
X3687381Y-19345147D02*
X3677857Y-19373718D01*
X3677857Y-19373718D02*
X3563571Y-19488004D01*
X3563571Y-19488004D02*
X3687381Y-19488004D01*
X3773095Y-19468956D02*
X3782619Y-19478480D01*
X3782619Y-19478480D02*
X3773095Y-19488004D01*
X3773095Y-19488004D02*
X3763571Y-19478480D01*
X3763571Y-19478480D02*
X3773095Y-19468956D01*
X3773095Y-19468956D02*
X3773095Y-19488004D01*
X3858809Y-19307051D02*
X3868333Y-19297528D01*
X3868333Y-19297528D02*
X3887381Y-19288004D01*
X3887381Y-19288004D02*
X3935000Y-19288004D01*
X3935000Y-19288004D02*
X3954048Y-19297528D01*
X3954048Y-19297528D02*
X3963571Y-19307051D01*
X3963571Y-19307051D02*
X3973095Y-19326099D01*
X3973095Y-19326099D02*
X3973095Y-19345147D01*
X3973095Y-19345147D02*
X3963571Y-19373718D01*
X3963571Y-19373718D02*
X3849286Y-19488004D01*
X3849286Y-19488004D02*
X3973095Y-19488004D01*
X4096905Y-19288004D02*
X4115952Y-19288004D01*
X4115952Y-19288004D02*
X4135000Y-19297528D01*
X4135000Y-19297528D02*
X4144524Y-19307051D01*
X4144524Y-19307051D02*
X4154048Y-19326099D01*
X4154048Y-19326099D02*
X4163571Y-19364194D01*
X4163571Y-19364194D02*
X4163571Y-19411813D01*
X4163571Y-19411813D02*
X4154048Y-19449909D01*
X4154048Y-19449909D02*
X4144524Y-19468956D01*
X4144524Y-19468956D02*
X4135000Y-19478480D01*
X4135000Y-19478480D02*
X4115952Y-19488004D01*
X4115952Y-19488004D02*
X4096905Y-19488004D01*
X4096905Y-19488004D02*
X4077857Y-19478480D01*
X4077857Y-19478480D02*
X4068333Y-19468956D01*
X4068333Y-19468956D02*
X4058809Y-19449909D01*
X4058809Y-19449909D02*
X4049286Y-19411813D01*
X4049286Y-19411813D02*
X4049286Y-19364194D01*
X4049286Y-19364194D02*
X4058809Y-19326099D01*
X4058809Y-19326099D02*
X4068333Y-19307051D01*
X4068333Y-19307051D02*
X4077857Y-19297528D01*
X4077857Y-19297528D02*
X4096905Y-19288004D01*
X4287381Y-19288004D02*
X4306429Y-19288004D01*
X4306429Y-19288004D02*
X4325476Y-19297528D01*
X4325476Y-19297528D02*
X4335000Y-19307051D01*
X4335000Y-19307051D02*
X4344524Y-19326099D01*
X4344524Y-19326099D02*
X4354048Y-19364194D01*
X4354048Y-19364194D02*
X4354048Y-19411813D01*
X4354048Y-19411813D02*
X4344524Y-19449909D01*
X4344524Y-19449909D02*
X4335000Y-19468956D01*
X4335000Y-19468956D02*
X4325476Y-19478480D01*
X4325476Y-19478480D02*
X4306429Y-19488004D01*
X4306429Y-19488004D02*
X4287381Y-19488004D01*
X4287381Y-19488004D02*
X4268333Y-19478480D01*
X4268333Y-19478480D02*
X4258810Y-19468956D01*
X4258810Y-19468956D02*
X4249286Y-19449909D01*
X4249286Y-19449909D02*
X4239762Y-19411813D01*
X4239762Y-19411813D02*
X4239762Y-19364194D01*
X4239762Y-19364194D02*
X4249286Y-19326099D01*
X4249286Y-19326099D02*
X4258810Y-19307051D01*
X4258810Y-19307051D02*
X4268333Y-19297528D01*
X4268333Y-19297528D02*
X4287381Y-19288004D01*
X4439762Y-19488004D02*
X4439762Y-19354670D01*
X4439762Y-19373718D02*
X4449286Y-19364194D01*
X4449286Y-19364194D02*
X4468333Y-19354670D01*
X4468333Y-19354670D02*
X4496905Y-19354670D01*
X4496905Y-19354670D02*
X4515952Y-19364194D01*
X4515952Y-19364194D02*
X4525476Y-19383242D01*
X4525476Y-19383242D02*
X4525476Y-19488004D01*
X4525476Y-19383242D02*
X4535000Y-19364194D01*
X4535000Y-19364194D02*
X4554048Y-19354670D01*
X4554048Y-19354670D02*
X4582619Y-19354670D01*
X4582619Y-19354670D02*
X4601667Y-19364194D01*
X4601667Y-19364194D02*
X4611191Y-19383242D01*
X4611191Y-19383242D02*
X4611191Y-19488004D01*
X4706429Y-19488004D02*
X4706429Y-19354670D01*
X4706429Y-19373718D02*
X4715952Y-19364194D01*
X4715952Y-19364194D02*
X4735000Y-19354670D01*
X4735000Y-19354670D02*
X4763572Y-19354670D01*
X4763572Y-19354670D02*
X4782619Y-19364194D01*
X4782619Y-19364194D02*
X4792143Y-19383242D01*
X4792143Y-19383242D02*
X4792143Y-19488004D01*
X4792143Y-19383242D02*
X4801667Y-19364194D01*
X4801667Y-19364194D02*
X4820714Y-19354670D01*
X4820714Y-19354670D02*
X4849286Y-19354670D01*
X4849286Y-19354670D02*
X4868333Y-19364194D01*
X4868333Y-19364194D02*
X4877857Y-19383242D01*
X4877857Y-19383242D02*
X4877857Y-19488004D01*
X5268333Y-19278480D02*
X5096905Y-19535623D01*
X5525476Y-19288004D02*
X5544524Y-19288004D01*
X5544524Y-19288004D02*
X5563572Y-19297528D01*
X5563572Y-19297528D02*
X5573095Y-19307051D01*
X5573095Y-19307051D02*
X5582619Y-19326099D01*
X5582619Y-19326099D02*
X5592143Y-19364194D01*
X5592143Y-19364194D02*
X5592143Y-19411813D01*
X5592143Y-19411813D02*
X5582619Y-19449909D01*
X5582619Y-19449909D02*
X5573095Y-19468956D01*
X5573095Y-19468956D02*
X5563572Y-19478480D01*
X5563572Y-19478480D02*
X5544524Y-19488004D01*
X5544524Y-19488004D02*
X5525476Y-19488004D01*
X5525476Y-19488004D02*
X5506429Y-19478480D01*
X5506429Y-19478480D02*
X5496905Y-19468956D01*
X5496905Y-19468956D02*
X5487381Y-19449909D01*
X5487381Y-19449909D02*
X5477857Y-19411813D01*
X5477857Y-19411813D02*
X5477857Y-19364194D01*
X5477857Y-19364194D02*
X5487381Y-19326099D01*
X5487381Y-19326099D02*
X5496905Y-19307051D01*
X5496905Y-19307051D02*
X5506429Y-19297528D01*
X5506429Y-19297528D02*
X5525476Y-19288004D01*
X5677857Y-19468956D02*
X5687381Y-19478480D01*
X5687381Y-19478480D02*
X5677857Y-19488004D01*
X5677857Y-19488004D02*
X5668333Y-19478480D01*
X5668333Y-19478480D02*
X5677857Y-19468956D01*
X5677857Y-19468956D02*
X5677857Y-19488004D01*
X5811191Y-19288004D02*
X5830238Y-19288004D01*
X5830238Y-19288004D02*
X5849286Y-19297528D01*
X5849286Y-19297528D02*
X5858810Y-19307051D01*
X5858810Y-19307051D02*
X5868333Y-19326099D01*
X5868333Y-19326099D02*
X5877857Y-19364194D01*
X5877857Y-19364194D02*
X5877857Y-19411813D01*
X5877857Y-19411813D02*
X5868333Y-19449909D01*
X5868333Y-19449909D02*
X5858810Y-19468956D01*
X5858810Y-19468956D02*
X5849286Y-19478480D01*
X5849286Y-19478480D02*
X5830238Y-19488004D01*
X5830238Y-19488004D02*
X5811191Y-19488004D01*
X5811191Y-19488004D02*
X5792143Y-19478480D01*
X5792143Y-19478480D02*
X5782619Y-19468956D01*
X5782619Y-19468956D02*
X5773095Y-19449909D01*
X5773095Y-19449909D02*
X5763572Y-19411813D01*
X5763572Y-19411813D02*
X5763572Y-19364194D01*
X5763572Y-19364194D02*
X5773095Y-19326099D01*
X5773095Y-19326099D02*
X5782619Y-19307051D01*
X5782619Y-19307051D02*
X5792143Y-19297528D01*
X5792143Y-19297528D02*
X5811191Y-19288004D01*
X5992143Y-19373718D02*
X5973095Y-19364194D01*
X5973095Y-19364194D02*
X5963572Y-19354670D01*
X5963572Y-19354670D02*
X5954048Y-19335623D01*
X5954048Y-19335623D02*
X5954048Y-19326099D01*
X5954048Y-19326099D02*
X5963572Y-19307051D01*
X5963572Y-19307051D02*
X5973095Y-19297528D01*
X5973095Y-19297528D02*
X5992143Y-19288004D01*
X5992143Y-19288004D02*
X6030238Y-19288004D01*
X6030238Y-19288004D02*
X6049286Y-19297528D01*
X6049286Y-19297528D02*
X6058810Y-19307051D01*
X6058810Y-19307051D02*
X6068333Y-19326099D01*
X6068333Y-19326099D02*
X6068333Y-19335623D01*
X6068333Y-19335623D02*
X6058810Y-19354670D01*
X6058810Y-19354670D02*
X6049286Y-19364194D01*
X6049286Y-19364194D02*
X6030238Y-19373718D01*
X6030238Y-19373718D02*
X5992143Y-19373718D01*
X5992143Y-19373718D02*
X5973095Y-19383242D01*
X5973095Y-19383242D02*
X5963572Y-19392766D01*
X5963572Y-19392766D02*
X5954048Y-19411813D01*
X5954048Y-19411813D02*
X5954048Y-19449909D01*
X5954048Y-19449909D02*
X5963572Y-19468956D01*
X5963572Y-19468956D02*
X5973095Y-19478480D01*
X5973095Y-19478480D02*
X5992143Y-19488004D01*
X5992143Y-19488004D02*
X6030238Y-19488004D01*
X6030238Y-19488004D02*
X6049286Y-19478480D01*
X6049286Y-19478480D02*
X6058810Y-19468956D01*
X6058810Y-19468956D02*
X6068333Y-19449909D01*
X6068333Y-19449909D02*
X6068333Y-19411813D01*
X6068333Y-19411813D02*
X6058810Y-19392766D01*
X6058810Y-19392766D02*
X6049286Y-19383242D01*
X6049286Y-19383242D02*
X6030238Y-19373718D01*
X6239762Y-19288004D02*
X6201667Y-19288004D01*
X6201667Y-19288004D02*
X6182619Y-19297528D01*
X6182619Y-19297528D02*
X6173095Y-19307051D01*
X6173095Y-19307051D02*
X6154048Y-19335623D01*
X6154048Y-19335623D02*
X6144524Y-19373718D01*
X6144524Y-19373718D02*
X6144524Y-19449909D01*
X6144524Y-19449909D02*
X6154048Y-19468956D01*
X6154048Y-19468956D02*
X6163572Y-19478480D01*
X6163572Y-19478480D02*
X6182619Y-19488004D01*
X6182619Y-19488004D02*
X6220714Y-19488004D01*
X6220714Y-19488004D02*
X6239762Y-19478480D01*
X6239762Y-19478480D02*
X6249286Y-19468956D01*
X6249286Y-19468956D02*
X6258810Y-19449909D01*
X6258810Y-19449909D02*
X6258810Y-19402290D01*
X6258810Y-19402290D02*
X6249286Y-19383242D01*
X6249286Y-19383242D02*
X6239762Y-19373718D01*
X6239762Y-19373718D02*
X6220714Y-19364194D01*
X6220714Y-19364194D02*
X6182619Y-19364194D01*
X6182619Y-19364194D02*
X6163572Y-19373718D01*
X6163572Y-19373718D02*
X6154048Y-19383242D01*
X6154048Y-19383242D02*
X6144524Y-19402290D01*
X6430238Y-19288004D02*
X6392143Y-19288004D01*
X6392143Y-19288004D02*
X6373095Y-19297528D01*
X6373095Y-19297528D02*
X6363572Y-19307051D01*
X6363572Y-19307051D02*
X6344524Y-19335623D01*
X6344524Y-19335623D02*
X6335000Y-19373718D01*
X6335000Y-19373718D02*
X6335000Y-19449909D01*
X6335000Y-19449909D02*
X6344524Y-19468956D01*
X6344524Y-19468956D02*
X6354048Y-19478480D01*
X6354048Y-19478480D02*
X6373095Y-19488004D01*
X6373095Y-19488004D02*
X6411191Y-19488004D01*
X6411191Y-19488004D02*
X6430238Y-19478480D01*
X6430238Y-19478480D02*
X6439762Y-19468956D01*
X6439762Y-19468956D02*
X6449286Y-19449909D01*
X6449286Y-19449909D02*
X6449286Y-19402290D01*
X6449286Y-19402290D02*
X6439762Y-19383242D01*
X6439762Y-19383242D02*
X6430238Y-19373718D01*
X6430238Y-19373718D02*
X6411191Y-19364194D01*
X6411191Y-19364194D02*
X6373095Y-19364194D01*
X6373095Y-19364194D02*
X6354048Y-19373718D01*
X6354048Y-19373718D02*
X6344524Y-19383242D01*
X6344524Y-19383242D02*
X6335000Y-19402290D01*
X6525476Y-19288004D02*
X6525476Y-19326099D01*
X6601667Y-19288004D02*
X6601667Y-19326099D01*
X6896905Y-19564194D02*
X6887381Y-19554670D01*
X6887381Y-19554670D02*
X6868334Y-19526099D01*
X6868334Y-19526099D02*
X6858810Y-19507051D01*
X6858810Y-19507051D02*
X6849286Y-19478480D01*
X6849286Y-19478480D02*
X6839762Y-19430861D01*
X6839762Y-19430861D02*
X6839762Y-19392766D01*
X6839762Y-19392766D02*
X6849286Y-19345147D01*
X6849286Y-19345147D02*
X6858810Y-19316575D01*
X6858810Y-19316575D02*
X6868334Y-19297528D01*
X6868334Y-19297528D02*
X6887381Y-19268956D01*
X6887381Y-19268956D02*
X6896905Y-19259432D01*
X7058810Y-19354670D02*
X7058810Y-19488004D01*
X7011191Y-19278480D02*
X6963572Y-19421337D01*
X6963572Y-19421337D02*
X7087381Y-19421337D01*
X7315953Y-19488004D02*
X7315953Y-19288004D01*
X7401667Y-19488004D02*
X7401667Y-19383242D01*
X7401667Y-19383242D02*
X7392143Y-19364194D01*
X7392143Y-19364194D02*
X7373096Y-19354670D01*
X7373096Y-19354670D02*
X7344524Y-19354670D01*
X7344524Y-19354670D02*
X7325476Y-19364194D01*
X7325476Y-19364194D02*
X7315953Y-19373718D01*
X7525476Y-19488004D02*
X7506429Y-19478480D01*
X7506429Y-19478480D02*
X7496905Y-19468956D01*
X7496905Y-19468956D02*
X7487381Y-19449909D01*
X7487381Y-19449909D02*
X7487381Y-19392766D01*
X7487381Y-19392766D02*
X7496905Y-19373718D01*
X7496905Y-19373718D02*
X7506429Y-19364194D01*
X7506429Y-19364194D02*
X7525476Y-19354670D01*
X7525476Y-19354670D02*
X7554048Y-19354670D01*
X7554048Y-19354670D02*
X7573096Y-19364194D01*
X7573096Y-19364194D02*
X7582619Y-19373718D01*
X7582619Y-19373718D02*
X7592143Y-19392766D01*
X7592143Y-19392766D02*
X7592143Y-19449909D01*
X7592143Y-19449909D02*
X7582619Y-19468956D01*
X7582619Y-19468956D02*
X7573096Y-19478480D01*
X7573096Y-19478480D02*
X7554048Y-19488004D01*
X7554048Y-19488004D02*
X7525476Y-19488004D01*
X7706429Y-19488004D02*
X7687381Y-19478480D01*
X7687381Y-19478480D02*
X7677857Y-19459432D01*
X7677857Y-19459432D02*
X7677857Y-19288004D01*
X7858810Y-19478480D02*
X7839762Y-19488004D01*
X7839762Y-19488004D02*
X7801667Y-19488004D01*
X7801667Y-19488004D02*
X7782619Y-19478480D01*
X7782619Y-19478480D02*
X7773096Y-19459432D01*
X7773096Y-19459432D02*
X7773096Y-19383242D01*
X7773096Y-19383242D02*
X7782619Y-19364194D01*
X7782619Y-19364194D02*
X7801667Y-19354670D01*
X7801667Y-19354670D02*
X7839762Y-19354670D01*
X7839762Y-19354670D02*
X7858810Y-19364194D01*
X7858810Y-19364194D02*
X7868334Y-19383242D01*
X7868334Y-19383242D02*
X7868334Y-19402290D01*
X7868334Y-19402290D02*
X7773096Y-19421337D01*
X7944524Y-19478480D02*
X7963572Y-19488004D01*
X7963572Y-19488004D02*
X8001667Y-19488004D01*
X8001667Y-19488004D02*
X8020715Y-19478480D01*
X8020715Y-19478480D02*
X8030238Y-19459432D01*
X8030238Y-19459432D02*
X8030238Y-19449909D01*
X8030238Y-19449909D02*
X8020715Y-19430861D01*
X8020715Y-19430861D02*
X8001667Y-19421337D01*
X8001667Y-19421337D02*
X7973096Y-19421337D01*
X7973096Y-19421337D02*
X7954048Y-19411813D01*
X7954048Y-19411813D02*
X7944524Y-19392766D01*
X7944524Y-19392766D02*
X7944524Y-19383242D01*
X7944524Y-19383242D02*
X7954048Y-19364194D01*
X7954048Y-19364194D02*
X7973096Y-19354670D01*
X7973096Y-19354670D02*
X8001667Y-19354670D01*
X8001667Y-19354670D02*
X8020715Y-19364194D01*
X8096905Y-19564194D02*
X8106429Y-19554670D01*
X8106429Y-19554670D02*
X8125477Y-19526099D01*
X8125477Y-19526099D02*
X8135000Y-19507051D01*
X8135000Y-19507051D02*
X8144524Y-19478480D01*
X8144524Y-19478480D02*
X8154048Y-19430861D01*
X8154048Y-19430861D02*
X8154048Y-19392766D01*
X8154048Y-19392766D02*
X8144524Y-19345147D01*
X8144524Y-19345147D02*
X8135000Y-19316575D01*
X8135000Y-19316575D02*
X8125477Y-19297528D01*
X8125477Y-19297528D02*
X8106429Y-19268956D01*
X8106429Y-19268956D02*
X8096905Y-19259432D01*
M02*
