%TF.GenerationSoftware,KiCad,Pcbnew,7.0.1*%
%TF.CreationDate,2023-03-30T19:37:34+02:00*%
%TF.ProjectId,home-media-converter,686f6d65-2d6d-4656-9469-612d636f6e76,rev?*%
%TF.SameCoordinates,Original*%
%TF.FileFunction,Drillmap*%
%TF.FilePolarity,Positive*%
%FSLAX45Y45*%
G04 Gerber Fmt 4.5, Leading zero omitted, Abs format (unit mm)*
G04 Created by KiCad (PCBNEW 7.0.1) date 2023-03-30 19:37:34*
%MOMM*%
%LPD*%
G01*
G04 APERTURE LIST*
%ADD10C,0.100000*%
%ADD11C,0.200000*%
%ADD12C,0.080000*%
%ADD13C,0.325000*%
%ADD14C,0.325120*%
G04 APERTURE END LIST*
D10*
X3340000Y-10420000D02*
X11300000Y-10420000D01*
X11300000Y-15820000D01*
X3340000Y-15820000D01*
X3340000Y-10420000D01*
D11*
D12*
X4729500Y-15284500D02*
X4809500Y-15364500D01*
X4809500Y-15284500D02*
X4729500Y-15364500D01*
X5229500Y-15284500D02*
X5309500Y-15364500D01*
X5309500Y-15284500D02*
X5229500Y-15364500D01*
D13*
X10904000Y-13546200D02*
G75*
G03*
X10904000Y-13546200I-162500J0D01*
G01*
X10904000Y-14816200D02*
G75*
G03*
X10904000Y-14816200I-162500J0D01*
G01*
D14*
X4448000Y-11246840D02*
X4448000Y-11571960D01*
X4285440Y-11409400D02*
X4610560Y-11409400D01*
X4448000Y-12516840D02*
X4448000Y-12841960D01*
X4285440Y-12679400D02*
X4610560Y-12679400D01*
D11*
X3582619Y-16137524D02*
X3582619Y-15937524D01*
X3582619Y-15937524D02*
X3630238Y-15937524D01*
X3630238Y-15937524D02*
X3658809Y-15947048D01*
X3658809Y-15947048D02*
X3677857Y-15966095D01*
X3677857Y-15966095D02*
X3687381Y-15985143D01*
X3687381Y-15985143D02*
X3696905Y-16023238D01*
X3696905Y-16023238D02*
X3696905Y-16051809D01*
X3696905Y-16051809D02*
X3687381Y-16089905D01*
X3687381Y-16089905D02*
X3677857Y-16108952D01*
X3677857Y-16108952D02*
X3658809Y-16128000D01*
X3658809Y-16128000D02*
X3630238Y-16137524D01*
X3630238Y-16137524D02*
X3582619Y-16137524D01*
X3782619Y-16137524D02*
X3782619Y-16004190D01*
X3782619Y-16042286D02*
X3792143Y-16023238D01*
X3792143Y-16023238D02*
X3801667Y-16013714D01*
X3801667Y-16013714D02*
X3820714Y-16004190D01*
X3820714Y-16004190D02*
X3839762Y-16004190D01*
X3906428Y-16137524D02*
X3906428Y-16004190D01*
X3906428Y-15937524D02*
X3896905Y-15947048D01*
X3896905Y-15947048D02*
X3906428Y-15956571D01*
X3906428Y-15956571D02*
X3915952Y-15947048D01*
X3915952Y-15947048D02*
X3906428Y-15937524D01*
X3906428Y-15937524D02*
X3906428Y-15956571D01*
X4030238Y-16137524D02*
X4011190Y-16128000D01*
X4011190Y-16128000D02*
X4001667Y-16108952D01*
X4001667Y-16108952D02*
X4001667Y-15937524D01*
X4135000Y-16137524D02*
X4115952Y-16128000D01*
X4115952Y-16128000D02*
X4106428Y-16108952D01*
X4106428Y-16108952D02*
X4106428Y-15937524D01*
X4363571Y-16137524D02*
X4363571Y-15937524D01*
X4363571Y-15937524D02*
X4430238Y-16080381D01*
X4430238Y-16080381D02*
X4496905Y-15937524D01*
X4496905Y-15937524D02*
X4496905Y-16137524D01*
X4677857Y-16137524D02*
X4677857Y-16032762D01*
X4677857Y-16032762D02*
X4668333Y-16013714D01*
X4668333Y-16013714D02*
X4649286Y-16004190D01*
X4649286Y-16004190D02*
X4611190Y-16004190D01*
X4611190Y-16004190D02*
X4592143Y-16013714D01*
X4677857Y-16128000D02*
X4658810Y-16137524D01*
X4658810Y-16137524D02*
X4611190Y-16137524D01*
X4611190Y-16137524D02*
X4592143Y-16128000D01*
X4592143Y-16128000D02*
X4582619Y-16108952D01*
X4582619Y-16108952D02*
X4582619Y-16089905D01*
X4582619Y-16089905D02*
X4592143Y-16070857D01*
X4592143Y-16070857D02*
X4611190Y-16061333D01*
X4611190Y-16061333D02*
X4658810Y-16061333D01*
X4658810Y-16061333D02*
X4677857Y-16051809D01*
X4773095Y-16004190D02*
X4773095Y-16204190D01*
X4773095Y-16013714D02*
X4792143Y-16004190D01*
X4792143Y-16004190D02*
X4830238Y-16004190D01*
X4830238Y-16004190D02*
X4849286Y-16013714D01*
X4849286Y-16013714D02*
X4858810Y-16023238D01*
X4858810Y-16023238D02*
X4868333Y-16042286D01*
X4868333Y-16042286D02*
X4868333Y-16099428D01*
X4868333Y-16099428D02*
X4858810Y-16118476D01*
X4858810Y-16118476D02*
X4849286Y-16128000D01*
X4849286Y-16128000D02*
X4830238Y-16137524D01*
X4830238Y-16137524D02*
X4792143Y-16137524D01*
X4792143Y-16137524D02*
X4773095Y-16128000D01*
X4954048Y-16118476D02*
X4963571Y-16128000D01*
X4963571Y-16128000D02*
X4954048Y-16137524D01*
X4954048Y-16137524D02*
X4944524Y-16128000D01*
X4944524Y-16128000D02*
X4954048Y-16118476D01*
X4954048Y-16118476D02*
X4954048Y-16137524D01*
X4954048Y-16013714D02*
X4963571Y-16023238D01*
X4963571Y-16023238D02*
X4954048Y-16032762D01*
X4954048Y-16032762D02*
X4944524Y-16023238D01*
X4944524Y-16023238D02*
X4954048Y-16013714D01*
X4954048Y-16013714D02*
X4954048Y-16032762D01*
D12*
X3255000Y-16425000D02*
X3335000Y-16505000D01*
X3335000Y-16425000D02*
X3255000Y-16505000D01*
D11*
X3620714Y-16357524D02*
X3639762Y-16357524D01*
X3639762Y-16357524D02*
X3658809Y-16367048D01*
X3658809Y-16367048D02*
X3668333Y-16376571D01*
X3668333Y-16376571D02*
X3677857Y-16395619D01*
X3677857Y-16395619D02*
X3687381Y-16433714D01*
X3687381Y-16433714D02*
X3687381Y-16481333D01*
X3687381Y-16481333D02*
X3677857Y-16519428D01*
X3677857Y-16519428D02*
X3668333Y-16538476D01*
X3668333Y-16538476D02*
X3658809Y-16548000D01*
X3658809Y-16548000D02*
X3639762Y-16557524D01*
X3639762Y-16557524D02*
X3620714Y-16557524D01*
X3620714Y-16557524D02*
X3601667Y-16548000D01*
X3601667Y-16548000D02*
X3592143Y-16538476D01*
X3592143Y-16538476D02*
X3582619Y-16519428D01*
X3582619Y-16519428D02*
X3573095Y-16481333D01*
X3573095Y-16481333D02*
X3573095Y-16433714D01*
X3573095Y-16433714D02*
X3582619Y-16395619D01*
X3582619Y-16395619D02*
X3592143Y-16376571D01*
X3592143Y-16376571D02*
X3601667Y-16367048D01*
X3601667Y-16367048D02*
X3620714Y-16357524D01*
X3773095Y-16538476D02*
X3782619Y-16548000D01*
X3782619Y-16548000D02*
X3773095Y-16557524D01*
X3773095Y-16557524D02*
X3763571Y-16548000D01*
X3763571Y-16548000D02*
X3773095Y-16538476D01*
X3773095Y-16538476D02*
X3773095Y-16557524D01*
X3896905Y-16443238D02*
X3877857Y-16433714D01*
X3877857Y-16433714D02*
X3868333Y-16424190D01*
X3868333Y-16424190D02*
X3858809Y-16405143D01*
X3858809Y-16405143D02*
X3858809Y-16395619D01*
X3858809Y-16395619D02*
X3868333Y-16376571D01*
X3868333Y-16376571D02*
X3877857Y-16367048D01*
X3877857Y-16367048D02*
X3896905Y-16357524D01*
X3896905Y-16357524D02*
X3935000Y-16357524D01*
X3935000Y-16357524D02*
X3954048Y-16367048D01*
X3954048Y-16367048D02*
X3963571Y-16376571D01*
X3963571Y-16376571D02*
X3973095Y-16395619D01*
X3973095Y-16395619D02*
X3973095Y-16405143D01*
X3973095Y-16405143D02*
X3963571Y-16424190D01*
X3963571Y-16424190D02*
X3954048Y-16433714D01*
X3954048Y-16433714D02*
X3935000Y-16443238D01*
X3935000Y-16443238D02*
X3896905Y-16443238D01*
X3896905Y-16443238D02*
X3877857Y-16452762D01*
X3877857Y-16452762D02*
X3868333Y-16462286D01*
X3868333Y-16462286D02*
X3858809Y-16481333D01*
X3858809Y-16481333D02*
X3858809Y-16519428D01*
X3858809Y-16519428D02*
X3868333Y-16538476D01*
X3868333Y-16538476D02*
X3877857Y-16548000D01*
X3877857Y-16548000D02*
X3896905Y-16557524D01*
X3896905Y-16557524D02*
X3935000Y-16557524D01*
X3935000Y-16557524D02*
X3954048Y-16548000D01*
X3954048Y-16548000D02*
X3963571Y-16538476D01*
X3963571Y-16538476D02*
X3973095Y-16519428D01*
X3973095Y-16519428D02*
X3973095Y-16481333D01*
X3973095Y-16481333D02*
X3963571Y-16462286D01*
X3963571Y-16462286D02*
X3954048Y-16452762D01*
X3954048Y-16452762D02*
X3935000Y-16443238D01*
X4096905Y-16357524D02*
X4115952Y-16357524D01*
X4115952Y-16357524D02*
X4135000Y-16367048D01*
X4135000Y-16367048D02*
X4144524Y-16376571D01*
X4144524Y-16376571D02*
X4154048Y-16395619D01*
X4154048Y-16395619D02*
X4163571Y-16433714D01*
X4163571Y-16433714D02*
X4163571Y-16481333D01*
X4163571Y-16481333D02*
X4154048Y-16519428D01*
X4154048Y-16519428D02*
X4144524Y-16538476D01*
X4144524Y-16538476D02*
X4135000Y-16548000D01*
X4135000Y-16548000D02*
X4115952Y-16557524D01*
X4115952Y-16557524D02*
X4096905Y-16557524D01*
X4096905Y-16557524D02*
X4077857Y-16548000D01*
X4077857Y-16548000D02*
X4068333Y-16538476D01*
X4068333Y-16538476D02*
X4058809Y-16519428D01*
X4058809Y-16519428D02*
X4049286Y-16481333D01*
X4049286Y-16481333D02*
X4049286Y-16433714D01*
X4049286Y-16433714D02*
X4058809Y-16395619D01*
X4058809Y-16395619D02*
X4068333Y-16376571D01*
X4068333Y-16376571D02*
X4077857Y-16367048D01*
X4077857Y-16367048D02*
X4096905Y-16357524D01*
X4287381Y-16357524D02*
X4306429Y-16357524D01*
X4306429Y-16357524D02*
X4325476Y-16367048D01*
X4325476Y-16367048D02*
X4335000Y-16376571D01*
X4335000Y-16376571D02*
X4344524Y-16395619D01*
X4344524Y-16395619D02*
X4354048Y-16433714D01*
X4354048Y-16433714D02*
X4354048Y-16481333D01*
X4354048Y-16481333D02*
X4344524Y-16519428D01*
X4344524Y-16519428D02*
X4335000Y-16538476D01*
X4335000Y-16538476D02*
X4325476Y-16548000D01*
X4325476Y-16548000D02*
X4306429Y-16557524D01*
X4306429Y-16557524D02*
X4287381Y-16557524D01*
X4287381Y-16557524D02*
X4268333Y-16548000D01*
X4268333Y-16548000D02*
X4258810Y-16538476D01*
X4258810Y-16538476D02*
X4249286Y-16519428D01*
X4249286Y-16519428D02*
X4239762Y-16481333D01*
X4239762Y-16481333D02*
X4239762Y-16433714D01*
X4239762Y-16433714D02*
X4249286Y-16395619D01*
X4249286Y-16395619D02*
X4258810Y-16376571D01*
X4258810Y-16376571D02*
X4268333Y-16367048D01*
X4268333Y-16367048D02*
X4287381Y-16357524D01*
X4439762Y-16557524D02*
X4439762Y-16424190D01*
X4439762Y-16443238D02*
X4449286Y-16433714D01*
X4449286Y-16433714D02*
X4468333Y-16424190D01*
X4468333Y-16424190D02*
X4496905Y-16424190D01*
X4496905Y-16424190D02*
X4515952Y-16433714D01*
X4515952Y-16433714D02*
X4525476Y-16452762D01*
X4525476Y-16452762D02*
X4525476Y-16557524D01*
X4525476Y-16452762D02*
X4535000Y-16433714D01*
X4535000Y-16433714D02*
X4554048Y-16424190D01*
X4554048Y-16424190D02*
X4582619Y-16424190D01*
X4582619Y-16424190D02*
X4601667Y-16433714D01*
X4601667Y-16433714D02*
X4611191Y-16452762D01*
X4611191Y-16452762D02*
X4611191Y-16557524D01*
X4706429Y-16557524D02*
X4706429Y-16424190D01*
X4706429Y-16443238D02*
X4715952Y-16433714D01*
X4715952Y-16433714D02*
X4735000Y-16424190D01*
X4735000Y-16424190D02*
X4763572Y-16424190D01*
X4763572Y-16424190D02*
X4782619Y-16433714D01*
X4782619Y-16433714D02*
X4792143Y-16452762D01*
X4792143Y-16452762D02*
X4792143Y-16557524D01*
X4792143Y-16452762D02*
X4801667Y-16433714D01*
X4801667Y-16433714D02*
X4820714Y-16424190D01*
X4820714Y-16424190D02*
X4849286Y-16424190D01*
X4849286Y-16424190D02*
X4868333Y-16433714D01*
X4868333Y-16433714D02*
X4877857Y-16452762D01*
X4877857Y-16452762D02*
X4877857Y-16557524D01*
X5268333Y-16348000D02*
X5096905Y-16605143D01*
X5525476Y-16357524D02*
X5544524Y-16357524D01*
X5544524Y-16357524D02*
X5563572Y-16367048D01*
X5563572Y-16367048D02*
X5573095Y-16376571D01*
X5573095Y-16376571D02*
X5582619Y-16395619D01*
X5582619Y-16395619D02*
X5592143Y-16433714D01*
X5592143Y-16433714D02*
X5592143Y-16481333D01*
X5592143Y-16481333D02*
X5582619Y-16519428D01*
X5582619Y-16519428D02*
X5573095Y-16538476D01*
X5573095Y-16538476D02*
X5563572Y-16548000D01*
X5563572Y-16548000D02*
X5544524Y-16557524D01*
X5544524Y-16557524D02*
X5525476Y-16557524D01*
X5525476Y-16557524D02*
X5506429Y-16548000D01*
X5506429Y-16548000D02*
X5496905Y-16538476D01*
X5496905Y-16538476D02*
X5487381Y-16519428D01*
X5487381Y-16519428D02*
X5477857Y-16481333D01*
X5477857Y-16481333D02*
X5477857Y-16433714D01*
X5477857Y-16433714D02*
X5487381Y-16395619D01*
X5487381Y-16395619D02*
X5496905Y-16376571D01*
X5496905Y-16376571D02*
X5506429Y-16367048D01*
X5506429Y-16367048D02*
X5525476Y-16357524D01*
X5677857Y-16538476D02*
X5687381Y-16548000D01*
X5687381Y-16548000D02*
X5677857Y-16557524D01*
X5677857Y-16557524D02*
X5668333Y-16548000D01*
X5668333Y-16548000D02*
X5677857Y-16538476D01*
X5677857Y-16538476D02*
X5677857Y-16557524D01*
X5811191Y-16357524D02*
X5830238Y-16357524D01*
X5830238Y-16357524D02*
X5849286Y-16367048D01*
X5849286Y-16367048D02*
X5858810Y-16376571D01*
X5858810Y-16376571D02*
X5868333Y-16395619D01*
X5868333Y-16395619D02*
X5877857Y-16433714D01*
X5877857Y-16433714D02*
X5877857Y-16481333D01*
X5877857Y-16481333D02*
X5868333Y-16519428D01*
X5868333Y-16519428D02*
X5858810Y-16538476D01*
X5858810Y-16538476D02*
X5849286Y-16548000D01*
X5849286Y-16548000D02*
X5830238Y-16557524D01*
X5830238Y-16557524D02*
X5811191Y-16557524D01*
X5811191Y-16557524D02*
X5792143Y-16548000D01*
X5792143Y-16548000D02*
X5782619Y-16538476D01*
X5782619Y-16538476D02*
X5773095Y-16519428D01*
X5773095Y-16519428D02*
X5763572Y-16481333D01*
X5763572Y-16481333D02*
X5763572Y-16433714D01*
X5763572Y-16433714D02*
X5773095Y-16395619D01*
X5773095Y-16395619D02*
X5782619Y-16376571D01*
X5782619Y-16376571D02*
X5792143Y-16367048D01*
X5792143Y-16367048D02*
X5811191Y-16357524D01*
X5944524Y-16357524D02*
X6068333Y-16357524D01*
X6068333Y-16357524D02*
X6001667Y-16433714D01*
X6001667Y-16433714D02*
X6030238Y-16433714D01*
X6030238Y-16433714D02*
X6049286Y-16443238D01*
X6049286Y-16443238D02*
X6058810Y-16452762D01*
X6058810Y-16452762D02*
X6068333Y-16471809D01*
X6068333Y-16471809D02*
X6068333Y-16519428D01*
X6068333Y-16519428D02*
X6058810Y-16538476D01*
X6058810Y-16538476D02*
X6049286Y-16548000D01*
X6049286Y-16548000D02*
X6030238Y-16557524D01*
X6030238Y-16557524D02*
X5973095Y-16557524D01*
X5973095Y-16557524D02*
X5954048Y-16548000D01*
X5954048Y-16548000D02*
X5944524Y-16538476D01*
X6258810Y-16557524D02*
X6144524Y-16557524D01*
X6201667Y-16557524D02*
X6201667Y-16357524D01*
X6201667Y-16357524D02*
X6182619Y-16386095D01*
X6182619Y-16386095D02*
X6163572Y-16405143D01*
X6163572Y-16405143D02*
X6144524Y-16414667D01*
X6439762Y-16357524D02*
X6344524Y-16357524D01*
X6344524Y-16357524D02*
X6335000Y-16452762D01*
X6335000Y-16452762D02*
X6344524Y-16443238D01*
X6344524Y-16443238D02*
X6363572Y-16433714D01*
X6363572Y-16433714D02*
X6411191Y-16433714D01*
X6411191Y-16433714D02*
X6430238Y-16443238D01*
X6430238Y-16443238D02*
X6439762Y-16452762D01*
X6439762Y-16452762D02*
X6449286Y-16471809D01*
X6449286Y-16471809D02*
X6449286Y-16519428D01*
X6449286Y-16519428D02*
X6439762Y-16538476D01*
X6439762Y-16538476D02*
X6430238Y-16548000D01*
X6430238Y-16548000D02*
X6411191Y-16557524D01*
X6411191Y-16557524D02*
X6363572Y-16557524D01*
X6363572Y-16557524D02*
X6344524Y-16548000D01*
X6344524Y-16548000D02*
X6335000Y-16538476D01*
X6525476Y-16357524D02*
X6525476Y-16395619D01*
X6601667Y-16357524D02*
X6601667Y-16395619D01*
X6896905Y-16633714D02*
X6887381Y-16624190D01*
X6887381Y-16624190D02*
X6868334Y-16595619D01*
X6868334Y-16595619D02*
X6858810Y-16576571D01*
X6858810Y-16576571D02*
X6849286Y-16548000D01*
X6849286Y-16548000D02*
X6839762Y-16500381D01*
X6839762Y-16500381D02*
X6839762Y-16462286D01*
X6839762Y-16462286D02*
X6849286Y-16414667D01*
X6849286Y-16414667D02*
X6858810Y-16386095D01*
X6858810Y-16386095D02*
X6868334Y-16367048D01*
X6868334Y-16367048D02*
X6887381Y-16338476D01*
X6887381Y-16338476D02*
X6896905Y-16328952D01*
X6963572Y-16376571D02*
X6973095Y-16367048D01*
X6973095Y-16367048D02*
X6992143Y-16357524D01*
X6992143Y-16357524D02*
X7039762Y-16357524D01*
X7039762Y-16357524D02*
X7058810Y-16367048D01*
X7058810Y-16367048D02*
X7068334Y-16376571D01*
X7068334Y-16376571D02*
X7077857Y-16395619D01*
X7077857Y-16395619D02*
X7077857Y-16414667D01*
X7077857Y-16414667D02*
X7068334Y-16443238D01*
X7068334Y-16443238D02*
X6954048Y-16557524D01*
X6954048Y-16557524D02*
X7077857Y-16557524D01*
X7315953Y-16557524D02*
X7315953Y-16357524D01*
X7401667Y-16557524D02*
X7401667Y-16452762D01*
X7401667Y-16452762D02*
X7392143Y-16433714D01*
X7392143Y-16433714D02*
X7373096Y-16424190D01*
X7373096Y-16424190D02*
X7344524Y-16424190D01*
X7344524Y-16424190D02*
X7325476Y-16433714D01*
X7325476Y-16433714D02*
X7315953Y-16443238D01*
X7525476Y-16557524D02*
X7506429Y-16548000D01*
X7506429Y-16548000D02*
X7496905Y-16538476D01*
X7496905Y-16538476D02*
X7487381Y-16519428D01*
X7487381Y-16519428D02*
X7487381Y-16462286D01*
X7487381Y-16462286D02*
X7496905Y-16443238D01*
X7496905Y-16443238D02*
X7506429Y-16433714D01*
X7506429Y-16433714D02*
X7525476Y-16424190D01*
X7525476Y-16424190D02*
X7554048Y-16424190D01*
X7554048Y-16424190D02*
X7573096Y-16433714D01*
X7573096Y-16433714D02*
X7582619Y-16443238D01*
X7582619Y-16443238D02*
X7592143Y-16462286D01*
X7592143Y-16462286D02*
X7592143Y-16519428D01*
X7592143Y-16519428D02*
X7582619Y-16538476D01*
X7582619Y-16538476D02*
X7573096Y-16548000D01*
X7573096Y-16548000D02*
X7554048Y-16557524D01*
X7554048Y-16557524D02*
X7525476Y-16557524D01*
X7706429Y-16557524D02*
X7687381Y-16548000D01*
X7687381Y-16548000D02*
X7677857Y-16528952D01*
X7677857Y-16528952D02*
X7677857Y-16357524D01*
X7858810Y-16548000D02*
X7839762Y-16557524D01*
X7839762Y-16557524D02*
X7801667Y-16557524D01*
X7801667Y-16557524D02*
X7782619Y-16548000D01*
X7782619Y-16548000D02*
X7773096Y-16528952D01*
X7773096Y-16528952D02*
X7773096Y-16452762D01*
X7773096Y-16452762D02*
X7782619Y-16433714D01*
X7782619Y-16433714D02*
X7801667Y-16424190D01*
X7801667Y-16424190D02*
X7839762Y-16424190D01*
X7839762Y-16424190D02*
X7858810Y-16433714D01*
X7858810Y-16433714D02*
X7868334Y-16452762D01*
X7868334Y-16452762D02*
X7868334Y-16471809D01*
X7868334Y-16471809D02*
X7773096Y-16490857D01*
X7944524Y-16548000D02*
X7963572Y-16557524D01*
X7963572Y-16557524D02*
X8001667Y-16557524D01*
X8001667Y-16557524D02*
X8020715Y-16548000D01*
X8020715Y-16548000D02*
X8030238Y-16528952D01*
X8030238Y-16528952D02*
X8030238Y-16519428D01*
X8030238Y-16519428D02*
X8020715Y-16500381D01*
X8020715Y-16500381D02*
X8001667Y-16490857D01*
X8001667Y-16490857D02*
X7973096Y-16490857D01*
X7973096Y-16490857D02*
X7954048Y-16481333D01*
X7954048Y-16481333D02*
X7944524Y-16462286D01*
X7944524Y-16462286D02*
X7944524Y-16452762D01*
X7944524Y-16452762D02*
X7954048Y-16433714D01*
X7954048Y-16433714D02*
X7973096Y-16424190D01*
X7973096Y-16424190D02*
X8001667Y-16424190D01*
X8001667Y-16424190D02*
X8020715Y-16433714D01*
X8096905Y-16633714D02*
X8106429Y-16624190D01*
X8106429Y-16624190D02*
X8125477Y-16595619D01*
X8125477Y-16595619D02*
X8135000Y-16576571D01*
X8135000Y-16576571D02*
X8144524Y-16548000D01*
X8144524Y-16548000D02*
X8154048Y-16500381D01*
X8154048Y-16500381D02*
X8154048Y-16462286D01*
X8154048Y-16462286D02*
X8144524Y-16414667D01*
X8144524Y-16414667D02*
X8135000Y-16386095D01*
X8135000Y-16386095D02*
X8125477Y-16367048D01*
X8125477Y-16367048D02*
X8106429Y-16338476D01*
X8106429Y-16338476D02*
X8096905Y-16328952D01*
X8458810Y-16633714D02*
X8449286Y-16624190D01*
X8449286Y-16624190D02*
X8430239Y-16595619D01*
X8430239Y-16595619D02*
X8420715Y-16576571D01*
X8420715Y-16576571D02*
X8411191Y-16548000D01*
X8411191Y-16548000D02*
X8401667Y-16500381D01*
X8401667Y-16500381D02*
X8401667Y-16462286D01*
X8401667Y-16462286D02*
X8411191Y-16414667D01*
X8411191Y-16414667D02*
X8420715Y-16386095D01*
X8420715Y-16386095D02*
X8430239Y-16367048D01*
X8430239Y-16367048D02*
X8449286Y-16338476D01*
X8449286Y-16338476D02*
X8458810Y-16328952D01*
X8535000Y-16424190D02*
X8535000Y-16557524D01*
X8535000Y-16443238D02*
X8544524Y-16433714D01*
X8544524Y-16433714D02*
X8563572Y-16424190D01*
X8563572Y-16424190D02*
X8592143Y-16424190D01*
X8592143Y-16424190D02*
X8611191Y-16433714D01*
X8611191Y-16433714D02*
X8620715Y-16452762D01*
X8620715Y-16452762D02*
X8620715Y-16557524D01*
X8744524Y-16557524D02*
X8725477Y-16548000D01*
X8725477Y-16548000D02*
X8715953Y-16538476D01*
X8715953Y-16538476D02*
X8706429Y-16519428D01*
X8706429Y-16519428D02*
X8706429Y-16462286D01*
X8706429Y-16462286D02*
X8715953Y-16443238D01*
X8715953Y-16443238D02*
X8725477Y-16433714D01*
X8725477Y-16433714D02*
X8744524Y-16424190D01*
X8744524Y-16424190D02*
X8773096Y-16424190D01*
X8773096Y-16424190D02*
X8792143Y-16433714D01*
X8792143Y-16433714D02*
X8801667Y-16443238D01*
X8801667Y-16443238D02*
X8811191Y-16462286D01*
X8811191Y-16462286D02*
X8811191Y-16519428D01*
X8811191Y-16519428D02*
X8801667Y-16538476D01*
X8801667Y-16538476D02*
X8792143Y-16548000D01*
X8792143Y-16548000D02*
X8773096Y-16557524D01*
X8773096Y-16557524D02*
X8744524Y-16557524D01*
X8868334Y-16424190D02*
X8944524Y-16424190D01*
X8896905Y-16357524D02*
X8896905Y-16528952D01*
X8896905Y-16528952D02*
X8906429Y-16548000D01*
X8906429Y-16548000D02*
X8925477Y-16557524D01*
X8925477Y-16557524D02*
X8944524Y-16557524D01*
X9163572Y-16424190D02*
X9163572Y-16624190D01*
X9163572Y-16433714D02*
X9182620Y-16424190D01*
X9182620Y-16424190D02*
X9220715Y-16424190D01*
X9220715Y-16424190D02*
X9239762Y-16433714D01*
X9239762Y-16433714D02*
X9249286Y-16443238D01*
X9249286Y-16443238D02*
X9258810Y-16462286D01*
X9258810Y-16462286D02*
X9258810Y-16519428D01*
X9258810Y-16519428D02*
X9249286Y-16538476D01*
X9249286Y-16538476D02*
X9239762Y-16548000D01*
X9239762Y-16548000D02*
X9220715Y-16557524D01*
X9220715Y-16557524D02*
X9182620Y-16557524D01*
X9182620Y-16557524D02*
X9163572Y-16548000D01*
X9373096Y-16557524D02*
X9354048Y-16548000D01*
X9354048Y-16548000D02*
X9344524Y-16528952D01*
X9344524Y-16528952D02*
X9344524Y-16357524D01*
X9535001Y-16557524D02*
X9535001Y-16452762D01*
X9535001Y-16452762D02*
X9525477Y-16433714D01*
X9525477Y-16433714D02*
X9506429Y-16424190D01*
X9506429Y-16424190D02*
X9468334Y-16424190D01*
X9468334Y-16424190D02*
X9449286Y-16433714D01*
X9535001Y-16548000D02*
X9515953Y-16557524D01*
X9515953Y-16557524D02*
X9468334Y-16557524D01*
X9468334Y-16557524D02*
X9449286Y-16548000D01*
X9449286Y-16548000D02*
X9439762Y-16528952D01*
X9439762Y-16528952D02*
X9439762Y-16509905D01*
X9439762Y-16509905D02*
X9449286Y-16490857D01*
X9449286Y-16490857D02*
X9468334Y-16481333D01*
X9468334Y-16481333D02*
X9515953Y-16481333D01*
X9515953Y-16481333D02*
X9535001Y-16471809D01*
X9601667Y-16424190D02*
X9677858Y-16424190D01*
X9630239Y-16357524D02*
X9630239Y-16528952D01*
X9630239Y-16528952D02*
X9639762Y-16548000D01*
X9639762Y-16548000D02*
X9658810Y-16557524D01*
X9658810Y-16557524D02*
X9677858Y-16557524D01*
X9820715Y-16548000D02*
X9801667Y-16557524D01*
X9801667Y-16557524D02*
X9763572Y-16557524D01*
X9763572Y-16557524D02*
X9744524Y-16548000D01*
X9744524Y-16548000D02*
X9735001Y-16528952D01*
X9735001Y-16528952D02*
X9735001Y-16452762D01*
X9735001Y-16452762D02*
X9744524Y-16433714D01*
X9744524Y-16433714D02*
X9763572Y-16424190D01*
X9763572Y-16424190D02*
X9801667Y-16424190D01*
X9801667Y-16424190D02*
X9820715Y-16433714D01*
X9820715Y-16433714D02*
X9830239Y-16452762D01*
X9830239Y-16452762D02*
X9830239Y-16471809D01*
X9830239Y-16471809D02*
X9735001Y-16490857D01*
X10001667Y-16557524D02*
X10001667Y-16357524D01*
X10001667Y-16548000D02*
X9982620Y-16557524D01*
X9982620Y-16557524D02*
X9944524Y-16557524D01*
X9944524Y-16557524D02*
X9925477Y-16548000D01*
X9925477Y-16548000D02*
X9915953Y-16538476D01*
X9915953Y-16538476D02*
X9906429Y-16519428D01*
X9906429Y-16519428D02*
X9906429Y-16462286D01*
X9906429Y-16462286D02*
X9915953Y-16443238D01*
X9915953Y-16443238D02*
X9925477Y-16433714D01*
X9925477Y-16433714D02*
X9944524Y-16424190D01*
X9944524Y-16424190D02*
X9982620Y-16424190D01*
X9982620Y-16424190D02*
X10001667Y-16433714D01*
X10077858Y-16633714D02*
X10087382Y-16624190D01*
X10087382Y-16624190D02*
X10106429Y-16595619D01*
X10106429Y-16595619D02*
X10115953Y-16576571D01*
X10115953Y-16576571D02*
X10125477Y-16548000D01*
X10125477Y-16548000D02*
X10135001Y-16500381D01*
X10135001Y-16500381D02*
X10135001Y-16462286D01*
X10135001Y-16462286D02*
X10125477Y-16414667D01*
X10125477Y-16414667D02*
X10115953Y-16386095D01*
X10115953Y-16386095D02*
X10106429Y-16367048D01*
X10106429Y-16367048D02*
X10087382Y-16338476D01*
X10087382Y-16338476D02*
X10077858Y-16328952D01*
X3335000Y-16729000D02*
G75*
G03*
X3335000Y-16729000I-100000J0D01*
G01*
X3563571Y-16621524D02*
X3687381Y-16621524D01*
X3687381Y-16621524D02*
X3620714Y-16697714D01*
X3620714Y-16697714D02*
X3649286Y-16697714D01*
X3649286Y-16697714D02*
X3668333Y-16707238D01*
X3668333Y-16707238D02*
X3677857Y-16716762D01*
X3677857Y-16716762D02*
X3687381Y-16735809D01*
X3687381Y-16735809D02*
X3687381Y-16783429D01*
X3687381Y-16783429D02*
X3677857Y-16802476D01*
X3677857Y-16802476D02*
X3668333Y-16812000D01*
X3668333Y-16812000D02*
X3649286Y-16821524D01*
X3649286Y-16821524D02*
X3592143Y-16821524D01*
X3592143Y-16821524D02*
X3573095Y-16812000D01*
X3573095Y-16812000D02*
X3563571Y-16802476D01*
X3773095Y-16802476D02*
X3782619Y-16812000D01*
X3782619Y-16812000D02*
X3773095Y-16821524D01*
X3773095Y-16821524D02*
X3763571Y-16812000D01*
X3763571Y-16812000D02*
X3773095Y-16802476D01*
X3773095Y-16802476D02*
X3773095Y-16821524D01*
X3858809Y-16640571D02*
X3868333Y-16631048D01*
X3868333Y-16631048D02*
X3887381Y-16621524D01*
X3887381Y-16621524D02*
X3935000Y-16621524D01*
X3935000Y-16621524D02*
X3954048Y-16631048D01*
X3954048Y-16631048D02*
X3963571Y-16640571D01*
X3963571Y-16640571D02*
X3973095Y-16659619D01*
X3973095Y-16659619D02*
X3973095Y-16678667D01*
X3973095Y-16678667D02*
X3963571Y-16707238D01*
X3963571Y-16707238D02*
X3849286Y-16821524D01*
X3849286Y-16821524D02*
X3973095Y-16821524D01*
X4154048Y-16621524D02*
X4058809Y-16621524D01*
X4058809Y-16621524D02*
X4049286Y-16716762D01*
X4049286Y-16716762D02*
X4058809Y-16707238D01*
X4058809Y-16707238D02*
X4077857Y-16697714D01*
X4077857Y-16697714D02*
X4125476Y-16697714D01*
X4125476Y-16697714D02*
X4144524Y-16707238D01*
X4144524Y-16707238D02*
X4154048Y-16716762D01*
X4154048Y-16716762D02*
X4163571Y-16735809D01*
X4163571Y-16735809D02*
X4163571Y-16783429D01*
X4163571Y-16783429D02*
X4154048Y-16802476D01*
X4154048Y-16802476D02*
X4144524Y-16812000D01*
X4144524Y-16812000D02*
X4125476Y-16821524D01*
X4125476Y-16821524D02*
X4077857Y-16821524D01*
X4077857Y-16821524D02*
X4058809Y-16812000D01*
X4058809Y-16812000D02*
X4049286Y-16802476D01*
X4287381Y-16621524D02*
X4306429Y-16621524D01*
X4306429Y-16621524D02*
X4325476Y-16631048D01*
X4325476Y-16631048D02*
X4335000Y-16640571D01*
X4335000Y-16640571D02*
X4344524Y-16659619D01*
X4344524Y-16659619D02*
X4354048Y-16697714D01*
X4354048Y-16697714D02*
X4354048Y-16745333D01*
X4354048Y-16745333D02*
X4344524Y-16783429D01*
X4344524Y-16783429D02*
X4335000Y-16802476D01*
X4335000Y-16802476D02*
X4325476Y-16812000D01*
X4325476Y-16812000D02*
X4306429Y-16821524D01*
X4306429Y-16821524D02*
X4287381Y-16821524D01*
X4287381Y-16821524D02*
X4268333Y-16812000D01*
X4268333Y-16812000D02*
X4258810Y-16802476D01*
X4258810Y-16802476D02*
X4249286Y-16783429D01*
X4249286Y-16783429D02*
X4239762Y-16745333D01*
X4239762Y-16745333D02*
X4239762Y-16697714D01*
X4239762Y-16697714D02*
X4249286Y-16659619D01*
X4249286Y-16659619D02*
X4258810Y-16640571D01*
X4258810Y-16640571D02*
X4268333Y-16631048D01*
X4268333Y-16631048D02*
X4287381Y-16621524D01*
X4439762Y-16821524D02*
X4439762Y-16688190D01*
X4439762Y-16707238D02*
X4449286Y-16697714D01*
X4449286Y-16697714D02*
X4468333Y-16688190D01*
X4468333Y-16688190D02*
X4496905Y-16688190D01*
X4496905Y-16688190D02*
X4515952Y-16697714D01*
X4515952Y-16697714D02*
X4525476Y-16716762D01*
X4525476Y-16716762D02*
X4525476Y-16821524D01*
X4525476Y-16716762D02*
X4535000Y-16697714D01*
X4535000Y-16697714D02*
X4554048Y-16688190D01*
X4554048Y-16688190D02*
X4582619Y-16688190D01*
X4582619Y-16688190D02*
X4601667Y-16697714D01*
X4601667Y-16697714D02*
X4611191Y-16716762D01*
X4611191Y-16716762D02*
X4611191Y-16821524D01*
X4706429Y-16821524D02*
X4706429Y-16688190D01*
X4706429Y-16707238D02*
X4715952Y-16697714D01*
X4715952Y-16697714D02*
X4735000Y-16688190D01*
X4735000Y-16688190D02*
X4763572Y-16688190D01*
X4763572Y-16688190D02*
X4782619Y-16697714D01*
X4782619Y-16697714D02*
X4792143Y-16716762D01*
X4792143Y-16716762D02*
X4792143Y-16821524D01*
X4792143Y-16716762D02*
X4801667Y-16697714D01*
X4801667Y-16697714D02*
X4820714Y-16688190D01*
X4820714Y-16688190D02*
X4849286Y-16688190D01*
X4849286Y-16688190D02*
X4868333Y-16697714D01*
X4868333Y-16697714D02*
X4877857Y-16716762D01*
X4877857Y-16716762D02*
X4877857Y-16821524D01*
X5268333Y-16612000D02*
X5096905Y-16869143D01*
X5525476Y-16621524D02*
X5544524Y-16621524D01*
X5544524Y-16621524D02*
X5563572Y-16631048D01*
X5563572Y-16631048D02*
X5573095Y-16640571D01*
X5573095Y-16640571D02*
X5582619Y-16659619D01*
X5582619Y-16659619D02*
X5592143Y-16697714D01*
X5592143Y-16697714D02*
X5592143Y-16745333D01*
X5592143Y-16745333D02*
X5582619Y-16783429D01*
X5582619Y-16783429D02*
X5573095Y-16802476D01*
X5573095Y-16802476D02*
X5563572Y-16812000D01*
X5563572Y-16812000D02*
X5544524Y-16821524D01*
X5544524Y-16821524D02*
X5525476Y-16821524D01*
X5525476Y-16821524D02*
X5506429Y-16812000D01*
X5506429Y-16812000D02*
X5496905Y-16802476D01*
X5496905Y-16802476D02*
X5487381Y-16783429D01*
X5487381Y-16783429D02*
X5477857Y-16745333D01*
X5477857Y-16745333D02*
X5477857Y-16697714D01*
X5477857Y-16697714D02*
X5487381Y-16659619D01*
X5487381Y-16659619D02*
X5496905Y-16640571D01*
X5496905Y-16640571D02*
X5506429Y-16631048D01*
X5506429Y-16631048D02*
X5525476Y-16621524D01*
X5677857Y-16802476D02*
X5687381Y-16812000D01*
X5687381Y-16812000D02*
X5677857Y-16821524D01*
X5677857Y-16821524D02*
X5668333Y-16812000D01*
X5668333Y-16812000D02*
X5677857Y-16802476D01*
X5677857Y-16802476D02*
X5677857Y-16821524D01*
X5877857Y-16821524D02*
X5763572Y-16821524D01*
X5820714Y-16821524D02*
X5820714Y-16621524D01*
X5820714Y-16621524D02*
X5801667Y-16650095D01*
X5801667Y-16650095D02*
X5782619Y-16669143D01*
X5782619Y-16669143D02*
X5763572Y-16678667D01*
X5954048Y-16640571D02*
X5963572Y-16631048D01*
X5963572Y-16631048D02*
X5982619Y-16621524D01*
X5982619Y-16621524D02*
X6030238Y-16621524D01*
X6030238Y-16621524D02*
X6049286Y-16631048D01*
X6049286Y-16631048D02*
X6058810Y-16640571D01*
X6058810Y-16640571D02*
X6068333Y-16659619D01*
X6068333Y-16659619D02*
X6068333Y-16678667D01*
X6068333Y-16678667D02*
X6058810Y-16707238D01*
X6058810Y-16707238D02*
X5944524Y-16821524D01*
X5944524Y-16821524D02*
X6068333Y-16821524D01*
X6182619Y-16707238D02*
X6163572Y-16697714D01*
X6163572Y-16697714D02*
X6154048Y-16688190D01*
X6154048Y-16688190D02*
X6144524Y-16669143D01*
X6144524Y-16669143D02*
X6144524Y-16659619D01*
X6144524Y-16659619D02*
X6154048Y-16640571D01*
X6154048Y-16640571D02*
X6163572Y-16631048D01*
X6163572Y-16631048D02*
X6182619Y-16621524D01*
X6182619Y-16621524D02*
X6220714Y-16621524D01*
X6220714Y-16621524D02*
X6239762Y-16631048D01*
X6239762Y-16631048D02*
X6249286Y-16640571D01*
X6249286Y-16640571D02*
X6258810Y-16659619D01*
X6258810Y-16659619D02*
X6258810Y-16669143D01*
X6258810Y-16669143D02*
X6249286Y-16688190D01*
X6249286Y-16688190D02*
X6239762Y-16697714D01*
X6239762Y-16697714D02*
X6220714Y-16707238D01*
X6220714Y-16707238D02*
X6182619Y-16707238D01*
X6182619Y-16707238D02*
X6163572Y-16716762D01*
X6163572Y-16716762D02*
X6154048Y-16726286D01*
X6154048Y-16726286D02*
X6144524Y-16745333D01*
X6144524Y-16745333D02*
X6144524Y-16783429D01*
X6144524Y-16783429D02*
X6154048Y-16802476D01*
X6154048Y-16802476D02*
X6163572Y-16812000D01*
X6163572Y-16812000D02*
X6182619Y-16821524D01*
X6182619Y-16821524D02*
X6220714Y-16821524D01*
X6220714Y-16821524D02*
X6239762Y-16812000D01*
X6239762Y-16812000D02*
X6249286Y-16802476D01*
X6249286Y-16802476D02*
X6258810Y-16783429D01*
X6258810Y-16783429D02*
X6258810Y-16745333D01*
X6258810Y-16745333D02*
X6249286Y-16726286D01*
X6249286Y-16726286D02*
X6239762Y-16716762D01*
X6239762Y-16716762D02*
X6220714Y-16707238D01*
X6382619Y-16621524D02*
X6401667Y-16621524D01*
X6401667Y-16621524D02*
X6420714Y-16631048D01*
X6420714Y-16631048D02*
X6430238Y-16640571D01*
X6430238Y-16640571D02*
X6439762Y-16659619D01*
X6439762Y-16659619D02*
X6449286Y-16697714D01*
X6449286Y-16697714D02*
X6449286Y-16745333D01*
X6449286Y-16745333D02*
X6439762Y-16783429D01*
X6439762Y-16783429D02*
X6430238Y-16802476D01*
X6430238Y-16802476D02*
X6420714Y-16812000D01*
X6420714Y-16812000D02*
X6401667Y-16821524D01*
X6401667Y-16821524D02*
X6382619Y-16821524D01*
X6382619Y-16821524D02*
X6363572Y-16812000D01*
X6363572Y-16812000D02*
X6354048Y-16802476D01*
X6354048Y-16802476D02*
X6344524Y-16783429D01*
X6344524Y-16783429D02*
X6335000Y-16745333D01*
X6335000Y-16745333D02*
X6335000Y-16697714D01*
X6335000Y-16697714D02*
X6344524Y-16659619D01*
X6344524Y-16659619D02*
X6354048Y-16640571D01*
X6354048Y-16640571D02*
X6363572Y-16631048D01*
X6363572Y-16631048D02*
X6382619Y-16621524D01*
X6525476Y-16621524D02*
X6525476Y-16659619D01*
X6601667Y-16621524D02*
X6601667Y-16659619D01*
X6896905Y-16897714D02*
X6887381Y-16888190D01*
X6887381Y-16888190D02*
X6868334Y-16859619D01*
X6868334Y-16859619D02*
X6858810Y-16840571D01*
X6858810Y-16840571D02*
X6849286Y-16812000D01*
X6849286Y-16812000D02*
X6839762Y-16764381D01*
X6839762Y-16764381D02*
X6839762Y-16726286D01*
X6839762Y-16726286D02*
X6849286Y-16678667D01*
X6849286Y-16678667D02*
X6858810Y-16650095D01*
X6858810Y-16650095D02*
X6868334Y-16631048D01*
X6868334Y-16631048D02*
X6887381Y-16602476D01*
X6887381Y-16602476D02*
X6896905Y-16592952D01*
X6963572Y-16640571D02*
X6973095Y-16631048D01*
X6973095Y-16631048D02*
X6992143Y-16621524D01*
X6992143Y-16621524D02*
X7039762Y-16621524D01*
X7039762Y-16621524D02*
X7058810Y-16631048D01*
X7058810Y-16631048D02*
X7068334Y-16640571D01*
X7068334Y-16640571D02*
X7077857Y-16659619D01*
X7077857Y-16659619D02*
X7077857Y-16678667D01*
X7077857Y-16678667D02*
X7068334Y-16707238D01*
X7068334Y-16707238D02*
X6954048Y-16821524D01*
X6954048Y-16821524D02*
X7077857Y-16821524D01*
X7315953Y-16821524D02*
X7315953Y-16621524D01*
X7401667Y-16821524D02*
X7401667Y-16716762D01*
X7401667Y-16716762D02*
X7392143Y-16697714D01*
X7392143Y-16697714D02*
X7373096Y-16688190D01*
X7373096Y-16688190D02*
X7344524Y-16688190D01*
X7344524Y-16688190D02*
X7325476Y-16697714D01*
X7325476Y-16697714D02*
X7315953Y-16707238D01*
X7525476Y-16821524D02*
X7506429Y-16812000D01*
X7506429Y-16812000D02*
X7496905Y-16802476D01*
X7496905Y-16802476D02*
X7487381Y-16783429D01*
X7487381Y-16783429D02*
X7487381Y-16726286D01*
X7487381Y-16726286D02*
X7496905Y-16707238D01*
X7496905Y-16707238D02*
X7506429Y-16697714D01*
X7506429Y-16697714D02*
X7525476Y-16688190D01*
X7525476Y-16688190D02*
X7554048Y-16688190D01*
X7554048Y-16688190D02*
X7573096Y-16697714D01*
X7573096Y-16697714D02*
X7582619Y-16707238D01*
X7582619Y-16707238D02*
X7592143Y-16726286D01*
X7592143Y-16726286D02*
X7592143Y-16783429D01*
X7592143Y-16783429D02*
X7582619Y-16802476D01*
X7582619Y-16802476D02*
X7573096Y-16812000D01*
X7573096Y-16812000D02*
X7554048Y-16821524D01*
X7554048Y-16821524D02*
X7525476Y-16821524D01*
X7706429Y-16821524D02*
X7687381Y-16812000D01*
X7687381Y-16812000D02*
X7677857Y-16792952D01*
X7677857Y-16792952D02*
X7677857Y-16621524D01*
X7858810Y-16812000D02*
X7839762Y-16821524D01*
X7839762Y-16821524D02*
X7801667Y-16821524D01*
X7801667Y-16821524D02*
X7782619Y-16812000D01*
X7782619Y-16812000D02*
X7773096Y-16792952D01*
X7773096Y-16792952D02*
X7773096Y-16716762D01*
X7773096Y-16716762D02*
X7782619Y-16697714D01*
X7782619Y-16697714D02*
X7801667Y-16688190D01*
X7801667Y-16688190D02*
X7839762Y-16688190D01*
X7839762Y-16688190D02*
X7858810Y-16697714D01*
X7858810Y-16697714D02*
X7868334Y-16716762D01*
X7868334Y-16716762D02*
X7868334Y-16735809D01*
X7868334Y-16735809D02*
X7773096Y-16754857D01*
X7944524Y-16812000D02*
X7963572Y-16821524D01*
X7963572Y-16821524D02*
X8001667Y-16821524D01*
X8001667Y-16821524D02*
X8020715Y-16812000D01*
X8020715Y-16812000D02*
X8030238Y-16792952D01*
X8030238Y-16792952D02*
X8030238Y-16783429D01*
X8030238Y-16783429D02*
X8020715Y-16764381D01*
X8020715Y-16764381D02*
X8001667Y-16754857D01*
X8001667Y-16754857D02*
X7973096Y-16754857D01*
X7973096Y-16754857D02*
X7954048Y-16745333D01*
X7954048Y-16745333D02*
X7944524Y-16726286D01*
X7944524Y-16726286D02*
X7944524Y-16716762D01*
X7944524Y-16716762D02*
X7954048Y-16697714D01*
X7954048Y-16697714D02*
X7973096Y-16688190D01*
X7973096Y-16688190D02*
X8001667Y-16688190D01*
X8001667Y-16688190D02*
X8020715Y-16697714D01*
X8096905Y-16897714D02*
X8106429Y-16888190D01*
X8106429Y-16888190D02*
X8125477Y-16859619D01*
X8125477Y-16859619D02*
X8135000Y-16840571D01*
X8135000Y-16840571D02*
X8144524Y-16812000D01*
X8144524Y-16812000D02*
X8154048Y-16764381D01*
X8154048Y-16764381D02*
X8154048Y-16726286D01*
X8154048Y-16726286D02*
X8144524Y-16678667D01*
X8144524Y-16678667D02*
X8135000Y-16650095D01*
X8135000Y-16650095D02*
X8125477Y-16631048D01*
X8125477Y-16631048D02*
X8106429Y-16602476D01*
X8106429Y-16602476D02*
X8096905Y-16592952D01*
X8458810Y-16897714D02*
X8449286Y-16888190D01*
X8449286Y-16888190D02*
X8430239Y-16859619D01*
X8430239Y-16859619D02*
X8420715Y-16840571D01*
X8420715Y-16840571D02*
X8411191Y-16812000D01*
X8411191Y-16812000D02*
X8401667Y-16764381D01*
X8401667Y-16764381D02*
X8401667Y-16726286D01*
X8401667Y-16726286D02*
X8411191Y-16678667D01*
X8411191Y-16678667D02*
X8420715Y-16650095D01*
X8420715Y-16650095D02*
X8430239Y-16631048D01*
X8430239Y-16631048D02*
X8449286Y-16602476D01*
X8449286Y-16602476D02*
X8458810Y-16592952D01*
X8535000Y-16688190D02*
X8535000Y-16821524D01*
X8535000Y-16707238D02*
X8544524Y-16697714D01*
X8544524Y-16697714D02*
X8563572Y-16688190D01*
X8563572Y-16688190D02*
X8592143Y-16688190D01*
X8592143Y-16688190D02*
X8611191Y-16697714D01*
X8611191Y-16697714D02*
X8620715Y-16716762D01*
X8620715Y-16716762D02*
X8620715Y-16821524D01*
X8744524Y-16821524D02*
X8725477Y-16812000D01*
X8725477Y-16812000D02*
X8715953Y-16802476D01*
X8715953Y-16802476D02*
X8706429Y-16783429D01*
X8706429Y-16783429D02*
X8706429Y-16726286D01*
X8706429Y-16726286D02*
X8715953Y-16707238D01*
X8715953Y-16707238D02*
X8725477Y-16697714D01*
X8725477Y-16697714D02*
X8744524Y-16688190D01*
X8744524Y-16688190D02*
X8773096Y-16688190D01*
X8773096Y-16688190D02*
X8792143Y-16697714D01*
X8792143Y-16697714D02*
X8801667Y-16707238D01*
X8801667Y-16707238D02*
X8811191Y-16726286D01*
X8811191Y-16726286D02*
X8811191Y-16783429D01*
X8811191Y-16783429D02*
X8801667Y-16802476D01*
X8801667Y-16802476D02*
X8792143Y-16812000D01*
X8792143Y-16812000D02*
X8773096Y-16821524D01*
X8773096Y-16821524D02*
X8744524Y-16821524D01*
X8868334Y-16688190D02*
X8944524Y-16688190D01*
X8896905Y-16621524D02*
X8896905Y-16792952D01*
X8896905Y-16792952D02*
X8906429Y-16812000D01*
X8906429Y-16812000D02*
X8925477Y-16821524D01*
X8925477Y-16821524D02*
X8944524Y-16821524D01*
X9163572Y-16688190D02*
X9163572Y-16888190D01*
X9163572Y-16697714D02*
X9182620Y-16688190D01*
X9182620Y-16688190D02*
X9220715Y-16688190D01*
X9220715Y-16688190D02*
X9239762Y-16697714D01*
X9239762Y-16697714D02*
X9249286Y-16707238D01*
X9249286Y-16707238D02*
X9258810Y-16726286D01*
X9258810Y-16726286D02*
X9258810Y-16783429D01*
X9258810Y-16783429D02*
X9249286Y-16802476D01*
X9249286Y-16802476D02*
X9239762Y-16812000D01*
X9239762Y-16812000D02*
X9220715Y-16821524D01*
X9220715Y-16821524D02*
X9182620Y-16821524D01*
X9182620Y-16821524D02*
X9163572Y-16812000D01*
X9373096Y-16821524D02*
X9354048Y-16812000D01*
X9354048Y-16812000D02*
X9344524Y-16792952D01*
X9344524Y-16792952D02*
X9344524Y-16621524D01*
X9535001Y-16821524D02*
X9535001Y-16716762D01*
X9535001Y-16716762D02*
X9525477Y-16697714D01*
X9525477Y-16697714D02*
X9506429Y-16688190D01*
X9506429Y-16688190D02*
X9468334Y-16688190D01*
X9468334Y-16688190D02*
X9449286Y-16697714D01*
X9535001Y-16812000D02*
X9515953Y-16821524D01*
X9515953Y-16821524D02*
X9468334Y-16821524D01*
X9468334Y-16821524D02*
X9449286Y-16812000D01*
X9449286Y-16812000D02*
X9439762Y-16792952D01*
X9439762Y-16792952D02*
X9439762Y-16773905D01*
X9439762Y-16773905D02*
X9449286Y-16754857D01*
X9449286Y-16754857D02*
X9468334Y-16745333D01*
X9468334Y-16745333D02*
X9515953Y-16745333D01*
X9515953Y-16745333D02*
X9535001Y-16735809D01*
X9601667Y-16688190D02*
X9677858Y-16688190D01*
X9630239Y-16621524D02*
X9630239Y-16792952D01*
X9630239Y-16792952D02*
X9639762Y-16812000D01*
X9639762Y-16812000D02*
X9658810Y-16821524D01*
X9658810Y-16821524D02*
X9677858Y-16821524D01*
X9820715Y-16812000D02*
X9801667Y-16821524D01*
X9801667Y-16821524D02*
X9763572Y-16821524D01*
X9763572Y-16821524D02*
X9744524Y-16812000D01*
X9744524Y-16812000D02*
X9735001Y-16792952D01*
X9735001Y-16792952D02*
X9735001Y-16716762D01*
X9735001Y-16716762D02*
X9744524Y-16697714D01*
X9744524Y-16697714D02*
X9763572Y-16688190D01*
X9763572Y-16688190D02*
X9801667Y-16688190D01*
X9801667Y-16688190D02*
X9820715Y-16697714D01*
X9820715Y-16697714D02*
X9830239Y-16716762D01*
X9830239Y-16716762D02*
X9830239Y-16735809D01*
X9830239Y-16735809D02*
X9735001Y-16754857D01*
X10001667Y-16821524D02*
X10001667Y-16621524D01*
X10001667Y-16812000D02*
X9982620Y-16821524D01*
X9982620Y-16821524D02*
X9944524Y-16821524D01*
X9944524Y-16821524D02*
X9925477Y-16812000D01*
X9925477Y-16812000D02*
X9915953Y-16802476D01*
X9915953Y-16802476D02*
X9906429Y-16783429D01*
X9906429Y-16783429D02*
X9906429Y-16726286D01*
X9906429Y-16726286D02*
X9915953Y-16707238D01*
X9915953Y-16707238D02*
X9925477Y-16697714D01*
X9925477Y-16697714D02*
X9944524Y-16688190D01*
X9944524Y-16688190D02*
X9982620Y-16688190D01*
X9982620Y-16688190D02*
X10001667Y-16697714D01*
X10077858Y-16897714D02*
X10087382Y-16888190D01*
X10087382Y-16888190D02*
X10106429Y-16859619D01*
X10106429Y-16859619D02*
X10115953Y-16840571D01*
X10115953Y-16840571D02*
X10125477Y-16812000D01*
X10125477Y-16812000D02*
X10135001Y-16764381D01*
X10135001Y-16764381D02*
X10135001Y-16726286D01*
X10135001Y-16726286D02*
X10125477Y-16678667D01*
X10125477Y-16678667D02*
X10115953Y-16650095D01*
X10115953Y-16650095D02*
X10106429Y-16631048D01*
X10106429Y-16631048D02*
X10087382Y-16602476D01*
X10087382Y-16602476D02*
X10077858Y-16592952D01*
X3235000Y-16949000D02*
X3235000Y-17149000D01*
X3135000Y-17049000D02*
X3335000Y-17049000D01*
X3563571Y-16941524D02*
X3687381Y-16941524D01*
X3687381Y-16941524D02*
X3620714Y-17017714D01*
X3620714Y-17017714D02*
X3649286Y-17017714D01*
X3649286Y-17017714D02*
X3668333Y-17027238D01*
X3668333Y-17027238D02*
X3677857Y-17036762D01*
X3677857Y-17036762D02*
X3687381Y-17055810D01*
X3687381Y-17055810D02*
X3687381Y-17103429D01*
X3687381Y-17103429D02*
X3677857Y-17122476D01*
X3677857Y-17122476D02*
X3668333Y-17132000D01*
X3668333Y-17132000D02*
X3649286Y-17141524D01*
X3649286Y-17141524D02*
X3592143Y-17141524D01*
X3592143Y-17141524D02*
X3573095Y-17132000D01*
X3573095Y-17132000D02*
X3563571Y-17122476D01*
X3773095Y-17122476D02*
X3782619Y-17132000D01*
X3782619Y-17132000D02*
X3773095Y-17141524D01*
X3773095Y-17141524D02*
X3763571Y-17132000D01*
X3763571Y-17132000D02*
X3773095Y-17122476D01*
X3773095Y-17122476D02*
X3773095Y-17141524D01*
X3858809Y-16960571D02*
X3868333Y-16951048D01*
X3868333Y-16951048D02*
X3887381Y-16941524D01*
X3887381Y-16941524D02*
X3935000Y-16941524D01*
X3935000Y-16941524D02*
X3954048Y-16951048D01*
X3954048Y-16951048D02*
X3963571Y-16960571D01*
X3963571Y-16960571D02*
X3973095Y-16979619D01*
X3973095Y-16979619D02*
X3973095Y-16998667D01*
X3973095Y-16998667D02*
X3963571Y-17027238D01*
X3963571Y-17027238D02*
X3849286Y-17141524D01*
X3849286Y-17141524D02*
X3973095Y-17141524D01*
X4154048Y-16941524D02*
X4058809Y-16941524D01*
X4058809Y-16941524D02*
X4049286Y-17036762D01*
X4049286Y-17036762D02*
X4058809Y-17027238D01*
X4058809Y-17027238D02*
X4077857Y-17017714D01*
X4077857Y-17017714D02*
X4125476Y-17017714D01*
X4125476Y-17017714D02*
X4144524Y-17027238D01*
X4144524Y-17027238D02*
X4154048Y-17036762D01*
X4154048Y-17036762D02*
X4163571Y-17055810D01*
X4163571Y-17055810D02*
X4163571Y-17103429D01*
X4163571Y-17103429D02*
X4154048Y-17122476D01*
X4154048Y-17122476D02*
X4144524Y-17132000D01*
X4144524Y-17132000D02*
X4125476Y-17141524D01*
X4125476Y-17141524D02*
X4077857Y-17141524D01*
X4077857Y-17141524D02*
X4058809Y-17132000D01*
X4058809Y-17132000D02*
X4049286Y-17122476D01*
X4354048Y-17141524D02*
X4239762Y-17141524D01*
X4296905Y-17141524D02*
X4296905Y-16941524D01*
X4296905Y-16941524D02*
X4277857Y-16970095D01*
X4277857Y-16970095D02*
X4258810Y-16989143D01*
X4258810Y-16989143D02*
X4239762Y-16998667D01*
X4439762Y-17141524D02*
X4439762Y-17008190D01*
X4439762Y-17027238D02*
X4449286Y-17017714D01*
X4449286Y-17017714D02*
X4468333Y-17008190D01*
X4468333Y-17008190D02*
X4496905Y-17008190D01*
X4496905Y-17008190D02*
X4515952Y-17017714D01*
X4515952Y-17017714D02*
X4525476Y-17036762D01*
X4525476Y-17036762D02*
X4525476Y-17141524D01*
X4525476Y-17036762D02*
X4535000Y-17017714D01*
X4535000Y-17017714D02*
X4554048Y-17008190D01*
X4554048Y-17008190D02*
X4582619Y-17008190D01*
X4582619Y-17008190D02*
X4601667Y-17017714D01*
X4601667Y-17017714D02*
X4611191Y-17036762D01*
X4611191Y-17036762D02*
X4611191Y-17141524D01*
X4706429Y-17141524D02*
X4706429Y-17008190D01*
X4706429Y-17027238D02*
X4715952Y-17017714D01*
X4715952Y-17017714D02*
X4735000Y-17008190D01*
X4735000Y-17008190D02*
X4763572Y-17008190D01*
X4763572Y-17008190D02*
X4782619Y-17017714D01*
X4782619Y-17017714D02*
X4792143Y-17036762D01*
X4792143Y-17036762D02*
X4792143Y-17141524D01*
X4792143Y-17036762D02*
X4801667Y-17017714D01*
X4801667Y-17017714D02*
X4820714Y-17008190D01*
X4820714Y-17008190D02*
X4849286Y-17008190D01*
X4849286Y-17008190D02*
X4868333Y-17017714D01*
X4868333Y-17017714D02*
X4877857Y-17036762D01*
X4877857Y-17036762D02*
X4877857Y-17141524D01*
X5268333Y-16932000D02*
X5096905Y-17189143D01*
X5525476Y-16941524D02*
X5544524Y-16941524D01*
X5544524Y-16941524D02*
X5563572Y-16951048D01*
X5563572Y-16951048D02*
X5573095Y-16960571D01*
X5573095Y-16960571D02*
X5582619Y-16979619D01*
X5582619Y-16979619D02*
X5592143Y-17017714D01*
X5592143Y-17017714D02*
X5592143Y-17065333D01*
X5592143Y-17065333D02*
X5582619Y-17103429D01*
X5582619Y-17103429D02*
X5573095Y-17122476D01*
X5573095Y-17122476D02*
X5563572Y-17132000D01*
X5563572Y-17132000D02*
X5544524Y-17141524D01*
X5544524Y-17141524D02*
X5525476Y-17141524D01*
X5525476Y-17141524D02*
X5506429Y-17132000D01*
X5506429Y-17132000D02*
X5496905Y-17122476D01*
X5496905Y-17122476D02*
X5487381Y-17103429D01*
X5487381Y-17103429D02*
X5477857Y-17065333D01*
X5477857Y-17065333D02*
X5477857Y-17017714D01*
X5477857Y-17017714D02*
X5487381Y-16979619D01*
X5487381Y-16979619D02*
X5496905Y-16960571D01*
X5496905Y-16960571D02*
X5506429Y-16951048D01*
X5506429Y-16951048D02*
X5525476Y-16941524D01*
X5677857Y-17122476D02*
X5687381Y-17132000D01*
X5687381Y-17132000D02*
X5677857Y-17141524D01*
X5677857Y-17141524D02*
X5668333Y-17132000D01*
X5668333Y-17132000D02*
X5677857Y-17122476D01*
X5677857Y-17122476D02*
X5677857Y-17141524D01*
X5877857Y-17141524D02*
X5763572Y-17141524D01*
X5820714Y-17141524D02*
X5820714Y-16941524D01*
X5820714Y-16941524D02*
X5801667Y-16970095D01*
X5801667Y-16970095D02*
X5782619Y-16989143D01*
X5782619Y-16989143D02*
X5763572Y-16998667D01*
X5954048Y-16960571D02*
X5963572Y-16951048D01*
X5963572Y-16951048D02*
X5982619Y-16941524D01*
X5982619Y-16941524D02*
X6030238Y-16941524D01*
X6030238Y-16941524D02*
X6049286Y-16951048D01*
X6049286Y-16951048D02*
X6058810Y-16960571D01*
X6058810Y-16960571D02*
X6068333Y-16979619D01*
X6068333Y-16979619D02*
X6068333Y-16998667D01*
X6068333Y-16998667D02*
X6058810Y-17027238D01*
X6058810Y-17027238D02*
X5944524Y-17141524D01*
X5944524Y-17141524D02*
X6068333Y-17141524D01*
X6182619Y-17027238D02*
X6163572Y-17017714D01*
X6163572Y-17017714D02*
X6154048Y-17008190D01*
X6154048Y-17008190D02*
X6144524Y-16989143D01*
X6144524Y-16989143D02*
X6144524Y-16979619D01*
X6144524Y-16979619D02*
X6154048Y-16960571D01*
X6154048Y-16960571D02*
X6163572Y-16951048D01*
X6163572Y-16951048D02*
X6182619Y-16941524D01*
X6182619Y-16941524D02*
X6220714Y-16941524D01*
X6220714Y-16941524D02*
X6239762Y-16951048D01*
X6239762Y-16951048D02*
X6249286Y-16960571D01*
X6249286Y-16960571D02*
X6258810Y-16979619D01*
X6258810Y-16979619D02*
X6258810Y-16989143D01*
X6258810Y-16989143D02*
X6249286Y-17008190D01*
X6249286Y-17008190D02*
X6239762Y-17017714D01*
X6239762Y-17017714D02*
X6220714Y-17027238D01*
X6220714Y-17027238D02*
X6182619Y-17027238D01*
X6182619Y-17027238D02*
X6163572Y-17036762D01*
X6163572Y-17036762D02*
X6154048Y-17046286D01*
X6154048Y-17046286D02*
X6144524Y-17065333D01*
X6144524Y-17065333D02*
X6144524Y-17103429D01*
X6144524Y-17103429D02*
X6154048Y-17122476D01*
X6154048Y-17122476D02*
X6163572Y-17132000D01*
X6163572Y-17132000D02*
X6182619Y-17141524D01*
X6182619Y-17141524D02*
X6220714Y-17141524D01*
X6220714Y-17141524D02*
X6239762Y-17132000D01*
X6239762Y-17132000D02*
X6249286Y-17122476D01*
X6249286Y-17122476D02*
X6258810Y-17103429D01*
X6258810Y-17103429D02*
X6258810Y-17065333D01*
X6258810Y-17065333D02*
X6249286Y-17046286D01*
X6249286Y-17046286D02*
X6239762Y-17036762D01*
X6239762Y-17036762D02*
X6220714Y-17027238D01*
X6382619Y-16941524D02*
X6401667Y-16941524D01*
X6401667Y-16941524D02*
X6420714Y-16951048D01*
X6420714Y-16951048D02*
X6430238Y-16960571D01*
X6430238Y-16960571D02*
X6439762Y-16979619D01*
X6439762Y-16979619D02*
X6449286Y-17017714D01*
X6449286Y-17017714D02*
X6449286Y-17065333D01*
X6449286Y-17065333D02*
X6439762Y-17103429D01*
X6439762Y-17103429D02*
X6430238Y-17122476D01*
X6430238Y-17122476D02*
X6420714Y-17132000D01*
X6420714Y-17132000D02*
X6401667Y-17141524D01*
X6401667Y-17141524D02*
X6382619Y-17141524D01*
X6382619Y-17141524D02*
X6363572Y-17132000D01*
X6363572Y-17132000D02*
X6354048Y-17122476D01*
X6354048Y-17122476D02*
X6344524Y-17103429D01*
X6344524Y-17103429D02*
X6335000Y-17065333D01*
X6335000Y-17065333D02*
X6335000Y-17017714D01*
X6335000Y-17017714D02*
X6344524Y-16979619D01*
X6344524Y-16979619D02*
X6354048Y-16960571D01*
X6354048Y-16960571D02*
X6363572Y-16951048D01*
X6363572Y-16951048D02*
X6382619Y-16941524D01*
X6525476Y-16941524D02*
X6525476Y-16979619D01*
X6601667Y-16941524D02*
X6601667Y-16979619D01*
X6896905Y-17217714D02*
X6887381Y-17208190D01*
X6887381Y-17208190D02*
X6868334Y-17179619D01*
X6868334Y-17179619D02*
X6858810Y-17160571D01*
X6858810Y-17160571D02*
X6849286Y-17132000D01*
X6849286Y-17132000D02*
X6839762Y-17084381D01*
X6839762Y-17084381D02*
X6839762Y-17046286D01*
X6839762Y-17046286D02*
X6849286Y-16998667D01*
X6849286Y-16998667D02*
X6858810Y-16970095D01*
X6858810Y-16970095D02*
X6868334Y-16951048D01*
X6868334Y-16951048D02*
X6887381Y-16922476D01*
X6887381Y-16922476D02*
X6896905Y-16912952D01*
X6963572Y-16960571D02*
X6973095Y-16951048D01*
X6973095Y-16951048D02*
X6992143Y-16941524D01*
X6992143Y-16941524D02*
X7039762Y-16941524D01*
X7039762Y-16941524D02*
X7058810Y-16951048D01*
X7058810Y-16951048D02*
X7068334Y-16960571D01*
X7068334Y-16960571D02*
X7077857Y-16979619D01*
X7077857Y-16979619D02*
X7077857Y-16998667D01*
X7077857Y-16998667D02*
X7068334Y-17027238D01*
X7068334Y-17027238D02*
X6954048Y-17141524D01*
X6954048Y-17141524D02*
X7077857Y-17141524D01*
X7315953Y-17141524D02*
X7315953Y-16941524D01*
X7401667Y-17141524D02*
X7401667Y-17036762D01*
X7401667Y-17036762D02*
X7392143Y-17017714D01*
X7392143Y-17017714D02*
X7373096Y-17008190D01*
X7373096Y-17008190D02*
X7344524Y-17008190D01*
X7344524Y-17008190D02*
X7325476Y-17017714D01*
X7325476Y-17017714D02*
X7315953Y-17027238D01*
X7525476Y-17141524D02*
X7506429Y-17132000D01*
X7506429Y-17132000D02*
X7496905Y-17122476D01*
X7496905Y-17122476D02*
X7487381Y-17103429D01*
X7487381Y-17103429D02*
X7487381Y-17046286D01*
X7487381Y-17046286D02*
X7496905Y-17027238D01*
X7496905Y-17027238D02*
X7506429Y-17017714D01*
X7506429Y-17017714D02*
X7525476Y-17008190D01*
X7525476Y-17008190D02*
X7554048Y-17008190D01*
X7554048Y-17008190D02*
X7573096Y-17017714D01*
X7573096Y-17017714D02*
X7582619Y-17027238D01*
X7582619Y-17027238D02*
X7592143Y-17046286D01*
X7592143Y-17046286D02*
X7592143Y-17103429D01*
X7592143Y-17103429D02*
X7582619Y-17122476D01*
X7582619Y-17122476D02*
X7573096Y-17132000D01*
X7573096Y-17132000D02*
X7554048Y-17141524D01*
X7554048Y-17141524D02*
X7525476Y-17141524D01*
X7706429Y-17141524D02*
X7687381Y-17132000D01*
X7687381Y-17132000D02*
X7677857Y-17112952D01*
X7677857Y-17112952D02*
X7677857Y-16941524D01*
X7858810Y-17132000D02*
X7839762Y-17141524D01*
X7839762Y-17141524D02*
X7801667Y-17141524D01*
X7801667Y-17141524D02*
X7782619Y-17132000D01*
X7782619Y-17132000D02*
X7773096Y-17112952D01*
X7773096Y-17112952D02*
X7773096Y-17036762D01*
X7773096Y-17036762D02*
X7782619Y-17017714D01*
X7782619Y-17017714D02*
X7801667Y-17008190D01*
X7801667Y-17008190D02*
X7839762Y-17008190D01*
X7839762Y-17008190D02*
X7858810Y-17017714D01*
X7858810Y-17017714D02*
X7868334Y-17036762D01*
X7868334Y-17036762D02*
X7868334Y-17055810D01*
X7868334Y-17055810D02*
X7773096Y-17074857D01*
X7944524Y-17132000D02*
X7963572Y-17141524D01*
X7963572Y-17141524D02*
X8001667Y-17141524D01*
X8001667Y-17141524D02*
X8020715Y-17132000D01*
X8020715Y-17132000D02*
X8030238Y-17112952D01*
X8030238Y-17112952D02*
X8030238Y-17103429D01*
X8030238Y-17103429D02*
X8020715Y-17084381D01*
X8020715Y-17084381D02*
X8001667Y-17074857D01*
X8001667Y-17074857D02*
X7973096Y-17074857D01*
X7973096Y-17074857D02*
X7954048Y-17065333D01*
X7954048Y-17065333D02*
X7944524Y-17046286D01*
X7944524Y-17046286D02*
X7944524Y-17036762D01*
X7944524Y-17036762D02*
X7954048Y-17017714D01*
X7954048Y-17017714D02*
X7973096Y-17008190D01*
X7973096Y-17008190D02*
X8001667Y-17008190D01*
X8001667Y-17008190D02*
X8020715Y-17017714D01*
X8096905Y-17217714D02*
X8106429Y-17208190D01*
X8106429Y-17208190D02*
X8125477Y-17179619D01*
X8125477Y-17179619D02*
X8135000Y-17160571D01*
X8135000Y-17160571D02*
X8144524Y-17132000D01*
X8144524Y-17132000D02*
X8154048Y-17084381D01*
X8154048Y-17084381D02*
X8154048Y-17046286D01*
X8154048Y-17046286D02*
X8144524Y-16998667D01*
X8144524Y-16998667D02*
X8135000Y-16970095D01*
X8135000Y-16970095D02*
X8125477Y-16951048D01*
X8125477Y-16951048D02*
X8106429Y-16922476D01*
X8106429Y-16922476D02*
X8096905Y-16912952D01*
X8458810Y-17217714D02*
X8449286Y-17208190D01*
X8449286Y-17208190D02*
X8430239Y-17179619D01*
X8430239Y-17179619D02*
X8420715Y-17160571D01*
X8420715Y-17160571D02*
X8411191Y-17132000D01*
X8411191Y-17132000D02*
X8401667Y-17084381D01*
X8401667Y-17084381D02*
X8401667Y-17046286D01*
X8401667Y-17046286D02*
X8411191Y-16998667D01*
X8411191Y-16998667D02*
X8420715Y-16970095D01*
X8420715Y-16970095D02*
X8430239Y-16951048D01*
X8430239Y-16951048D02*
X8449286Y-16922476D01*
X8449286Y-16922476D02*
X8458810Y-16912952D01*
X8535000Y-17008190D02*
X8535000Y-17141524D01*
X8535000Y-17027238D02*
X8544524Y-17017714D01*
X8544524Y-17017714D02*
X8563572Y-17008190D01*
X8563572Y-17008190D02*
X8592143Y-17008190D01*
X8592143Y-17008190D02*
X8611191Y-17017714D01*
X8611191Y-17017714D02*
X8620715Y-17036762D01*
X8620715Y-17036762D02*
X8620715Y-17141524D01*
X8744524Y-17141524D02*
X8725477Y-17132000D01*
X8725477Y-17132000D02*
X8715953Y-17122476D01*
X8715953Y-17122476D02*
X8706429Y-17103429D01*
X8706429Y-17103429D02*
X8706429Y-17046286D01*
X8706429Y-17046286D02*
X8715953Y-17027238D01*
X8715953Y-17027238D02*
X8725477Y-17017714D01*
X8725477Y-17017714D02*
X8744524Y-17008190D01*
X8744524Y-17008190D02*
X8773096Y-17008190D01*
X8773096Y-17008190D02*
X8792143Y-17017714D01*
X8792143Y-17017714D02*
X8801667Y-17027238D01*
X8801667Y-17027238D02*
X8811191Y-17046286D01*
X8811191Y-17046286D02*
X8811191Y-17103429D01*
X8811191Y-17103429D02*
X8801667Y-17122476D01*
X8801667Y-17122476D02*
X8792143Y-17132000D01*
X8792143Y-17132000D02*
X8773096Y-17141524D01*
X8773096Y-17141524D02*
X8744524Y-17141524D01*
X8868334Y-17008190D02*
X8944524Y-17008190D01*
X8896905Y-16941524D02*
X8896905Y-17112952D01*
X8896905Y-17112952D02*
X8906429Y-17132000D01*
X8906429Y-17132000D02*
X8925477Y-17141524D01*
X8925477Y-17141524D02*
X8944524Y-17141524D01*
X9163572Y-17008190D02*
X9163572Y-17208190D01*
X9163572Y-17017714D02*
X9182620Y-17008190D01*
X9182620Y-17008190D02*
X9220715Y-17008190D01*
X9220715Y-17008190D02*
X9239762Y-17017714D01*
X9239762Y-17017714D02*
X9249286Y-17027238D01*
X9249286Y-17027238D02*
X9258810Y-17046286D01*
X9258810Y-17046286D02*
X9258810Y-17103429D01*
X9258810Y-17103429D02*
X9249286Y-17122476D01*
X9249286Y-17122476D02*
X9239762Y-17132000D01*
X9239762Y-17132000D02*
X9220715Y-17141524D01*
X9220715Y-17141524D02*
X9182620Y-17141524D01*
X9182620Y-17141524D02*
X9163572Y-17132000D01*
X9373096Y-17141524D02*
X9354048Y-17132000D01*
X9354048Y-17132000D02*
X9344524Y-17112952D01*
X9344524Y-17112952D02*
X9344524Y-16941524D01*
X9535001Y-17141524D02*
X9535001Y-17036762D01*
X9535001Y-17036762D02*
X9525477Y-17017714D01*
X9525477Y-17017714D02*
X9506429Y-17008190D01*
X9506429Y-17008190D02*
X9468334Y-17008190D01*
X9468334Y-17008190D02*
X9449286Y-17017714D01*
X9535001Y-17132000D02*
X9515953Y-17141524D01*
X9515953Y-17141524D02*
X9468334Y-17141524D01*
X9468334Y-17141524D02*
X9449286Y-17132000D01*
X9449286Y-17132000D02*
X9439762Y-17112952D01*
X9439762Y-17112952D02*
X9439762Y-17093905D01*
X9439762Y-17093905D02*
X9449286Y-17074857D01*
X9449286Y-17074857D02*
X9468334Y-17065333D01*
X9468334Y-17065333D02*
X9515953Y-17065333D01*
X9515953Y-17065333D02*
X9535001Y-17055810D01*
X9601667Y-17008190D02*
X9677858Y-17008190D01*
X9630239Y-16941524D02*
X9630239Y-17112952D01*
X9630239Y-17112952D02*
X9639762Y-17132000D01*
X9639762Y-17132000D02*
X9658810Y-17141524D01*
X9658810Y-17141524D02*
X9677858Y-17141524D01*
X9820715Y-17132000D02*
X9801667Y-17141524D01*
X9801667Y-17141524D02*
X9763572Y-17141524D01*
X9763572Y-17141524D02*
X9744524Y-17132000D01*
X9744524Y-17132000D02*
X9735001Y-17112952D01*
X9735001Y-17112952D02*
X9735001Y-17036762D01*
X9735001Y-17036762D02*
X9744524Y-17017714D01*
X9744524Y-17017714D02*
X9763572Y-17008190D01*
X9763572Y-17008190D02*
X9801667Y-17008190D01*
X9801667Y-17008190D02*
X9820715Y-17017714D01*
X9820715Y-17017714D02*
X9830239Y-17036762D01*
X9830239Y-17036762D02*
X9830239Y-17055810D01*
X9830239Y-17055810D02*
X9735001Y-17074857D01*
X10001667Y-17141524D02*
X10001667Y-16941524D01*
X10001667Y-17132000D02*
X9982620Y-17141524D01*
X9982620Y-17141524D02*
X9944524Y-17141524D01*
X9944524Y-17141524D02*
X9925477Y-17132000D01*
X9925477Y-17132000D02*
X9915953Y-17122476D01*
X9915953Y-17122476D02*
X9906429Y-17103429D01*
X9906429Y-17103429D02*
X9906429Y-17046286D01*
X9906429Y-17046286D02*
X9915953Y-17027238D01*
X9915953Y-17027238D02*
X9925477Y-17017714D01*
X9925477Y-17017714D02*
X9944524Y-17008190D01*
X9944524Y-17008190D02*
X9982620Y-17008190D01*
X9982620Y-17008190D02*
X10001667Y-17017714D01*
X10077858Y-17217714D02*
X10087382Y-17208190D01*
X10087382Y-17208190D02*
X10106429Y-17179619D01*
X10106429Y-17179619D02*
X10115953Y-17160571D01*
X10115953Y-17160571D02*
X10125477Y-17132000D01*
X10125477Y-17132000D02*
X10135001Y-17084381D01*
X10135001Y-17084381D02*
X10135001Y-17046286D01*
X10135001Y-17046286D02*
X10125477Y-16998667D01*
X10125477Y-16998667D02*
X10115953Y-16970095D01*
X10115953Y-16970095D02*
X10106429Y-16951048D01*
X10106429Y-16951048D02*
X10087382Y-16922476D01*
X10087382Y-16922476D02*
X10077858Y-16912952D01*
M02*
